<svg width="663" height="741" viewBox="0 0 663 741" fill="none" xmlns="http://www.w3.org/2000/svg">
<g clip-path="url(#clip0_167_2937)">
<path d="M397.012 76.76L461.505 486.726" stroke="url(#paint0_linear_167_2937)" stroke-width="2" stroke-linecap="round"/>
<path d="M617.289 61.5176C608.758 65.8103 600.056 69.0286 591.23 71.4654C575.406 91.8378 559.067 108.754 542.519 124.568L535.2 78.4971C517.912 78.9401 500.48 78.4714 483.192 78.9145L490.573 125.376C468.964 110.383 447.526 96.4639 426.679 86.0562C418.015 88.4672 409.471 91.6271 401.098 95.8614L403.141 108.722C417.777 113.44 432.833 120.595 448.1 129.286C434.612 131.796 421.335 135.841 408.479 142.323L416.547 193.115C429.404 186.633 442.681 182.588 456.169 180.078C444.46 193.788 432.963 209.033 421.885 226.716L423.928 239.576C432.307 235.375 440.846 232.182 449.509 229.771C465.465 209.178 481.979 192.1 498.637 176.135L506.018 222.597C523.305 222.154 540.737 222.623 558.025 222.18L550.706 176.109C572.132 190.998 593.349 204.785 614.055 215.148C622.887 212.744 631.583 209.493 640.114 205.2L638.133 192.73C623.319 187.94 608.079 180.681 592.624 171.853C606.279 169.35 619.719 165.279 632.733 158.739L624.665 107.947C611.65 114.487 598.211 118.558 584.555 121.061C596.411 107.228 608.051 91.826 619.26 73.9225L617.279 61.4525L617.289 61.5176Z" fill="#6C38FF"/>
<path d="M617.289 61.5176C608.758 65.8103 600.056 69.0286 591.23 71.4654C575.406 91.8378 559.067 108.754 542.519 124.568L535.2 78.4971C517.912 78.9401 500.48 78.4714 483.192 78.9145L490.573 125.376C468.964 110.383 447.526 96.4639 426.679 86.0562C418.015 88.4672 409.471 91.6271 401.098 95.8614L403.141 108.722C417.777 113.44 432.833 120.595 448.1 129.286C434.612 131.796 421.335 135.841 408.479 142.323L416.547 193.115C429.404 186.633 442.681 182.588 456.169 180.078C444.46 193.788 432.963 209.033 421.885 226.716L423.928 239.576C432.307 235.375 440.846 232.182 449.509 229.771C465.465 209.178 481.979 192.1 498.637 176.135L506.018 222.597C523.305 222.154 540.737 222.623 558.025 222.18L550.706 176.109C572.132 190.998 593.349 204.785 614.055 215.148C622.887 212.744 631.583 209.493 640.114 205.2L638.133 192.73C623.319 187.94 608.079 180.681 592.624 171.853C606.279 169.35 619.719 165.279 632.733 158.739L624.665 107.947C611.65 114.487 598.211 118.558 584.555 121.061C596.411 107.228 608.051 91.826 619.26 73.9225L617.279 61.4525L617.289 61.5176Z" fill="white" fill-opacity="0.5"/>
<path d="M626.155 117.322L631.255 149.425C602.141 164.097 571.004 166.24 539.609 166.554L548.474 222.36C537.509 222.466 526.508 222.345 515.575 222.446L506.71 166.64C475.315 166.954 444.177 169.096 415.064 183.769L409.964 151.666C439.078 136.993 470.215 134.851 501.61 134.537L492.744 78.7306C503.71 78.6243 514.711 78.746 525.644 78.6448L534.509 134.451C565.904 134.137 597.041 131.994 626.155 117.322Z" fill="url(#paint1_linear_167_2937)"/>
<path d="M494.489 176.291C477.825 192.424 461.367 209.859 445.494 230.974C439.546 232.82 433.621 235.03 427.807 237.723C443.256 213.938 459.413 194.614 475.869 177.38C482.052 176.798 488.239 176.449 494.484 176.258L494.489 176.291Z" fill="url(#paint2_linear_167_2937)"/>
<path d="M494.489 176.291C477.825 192.424 461.367 209.859 445.494 230.974C439.546 232.82 433.621 235.03 427.807 237.723C443.256 213.938 459.413 194.614 475.869 177.38C482.052 176.798 488.239 176.449 494.484 176.258L494.489 176.291Z" fill="url(#paint3_linear_167_2937)"/>
<path d="M494.489 176.291C477.825 192.424 461.367 209.859 445.494 230.974C439.546 232.82 433.621 235.03 427.807 237.723C443.256 213.938 459.413 194.614 475.869 177.38C482.052 176.798 488.239 176.449 494.484 176.258L494.489 176.291Z" fill="url(#paint4_linear_167_2937)"/>
<path d="M612.884 63.6194C597.419 87.3061 581.252 106.565 564.753 123.74C558.597 124.284 552.378 124.637 546.165 124.823C562.829 108.69 579.297 91.3199 595.153 70.3082C601.14 68.4893 607.032 66.2849 612.884 63.6194Z" fill="url(#paint5_linear_167_2937)"/>
<path d="M612.884 63.6194C597.419 87.3061 581.252 106.565 564.753 123.74C558.597 124.284 552.378 124.637 546.165 124.823C562.829 108.69 579.297 91.3199 595.153 70.3082C601.14 68.4893 607.032 66.2849 612.884 63.6194Z" fill="url(#paint6_linear_167_2937)"/>
<path d="M612.884 63.6194C597.419 87.3061 581.252 106.565 564.753 123.74C558.597 124.284 552.378 124.637 546.165 124.823C562.829 108.69 579.297 91.3199 595.153 70.3082C601.14 68.4893 607.032 66.2849 612.884 63.6194Z" fill="url(#paint7_linear_167_2937)"/>
<path d="M638.723 196.441L640.125 205.265C637.715 206.482 635.289 207.602 632.82 208.662C612.36 200.896 591.211 188.801 569.762 174.817C575.961 174.333 582.096 173.659 588.217 172.686C605.381 182.811 622.298 191.173 638.691 196.446L638.723 196.441Z" fill="url(#paint8_linear_167_2937)"/>
<path d="M638.723 196.441L640.125 205.265C637.715 206.482 635.289 207.602 632.82 208.662C612.36 200.896 591.211 188.801 569.762 174.817C575.961 174.333 582.096 173.659 588.217 172.686C605.381 182.811 622.298 191.173 638.691 196.446L638.723 196.441Z" fill="url(#paint9_linear_167_2937)"/>
<path d="M638.723 196.441L640.125 205.265C637.715 206.482 635.289 207.602 632.82 208.662C612.36 200.896 591.211 188.801 569.762 174.817C575.961 174.333 582.096 173.659 588.217 172.686C605.381 182.811 622.298 191.173 638.691 196.446L638.723 196.441Z" fill="url(#paint10_linear_167_2937)"/>
<path d="M470.833 126.343C464.672 126.855 458.504 127.534 452.421 128.534C435.451 118.578 418.793 110.376 402.578 105.174L401.099 95.8623C403.324 94.741 405.56 93.6849 407.838 92.6887C428.283 100.356 449.422 112.387 470.833 126.343Z" fill="url(#paint11_linear_167_2937)"/>
<path d="M470.833 126.343C464.672 126.855 458.504 127.534 452.421 128.534C435.451 118.578 418.793 110.376 402.578 105.174L401.099 95.8623C403.324 94.741 405.56 93.6849 407.838 92.6887C428.283 100.356 449.422 112.387 470.833 126.343Z" fill="url(#paint12_linear_167_2937)"/>
<path d="M470.833 126.343C464.672 126.855 458.504 127.534 452.421 128.534C435.451 118.578 418.793 110.376 402.578 105.174L401.099 95.8623C403.324 94.741 405.56 93.6849 407.838 92.6887C428.283 100.356 449.422 112.387 470.833 126.343Z" fill="url(#paint13_linear_167_2937)"/>
<path d="M418.577 339.818L423.734 338.689" stroke="black" stroke-width="1.21772"/>
<path d="M427.012 368.135L432.937 364.843" stroke="black" stroke-width="1.21772"/>
<path fill-rule="evenodd" clip-rule="evenodd" d="M330.655 287.551L350.266 228.494C352.082 223.024 349.352 217.083 344.019 214.898L251.71 177.085C245.113 174.382 237.579 177.598 234.967 184.231L210.529 246.284" fill="#12101E"/>
<path d="M330.655 287.551L350.266 228.494C352.082 223.024 349.352 217.083 344.019 214.898L251.71 177.085C245.113 174.382 237.579 177.598 234.967 184.231L210.529 246.284" stroke="black" stroke-width="1.21772" stroke-linecap="round"/>
<path d="M337.602 284.939L337.738 284.99L337.882 284.975L358.888 282.768L372.754 295.34C375.909 298.202 376.99 302.704 375.476 306.686L307.255 486.138C305.217 491.498 299.209 494.18 293.858 492.118L122.696 426.162C119.478 424.922 117.088 422.16 116.324 418.796L111.045 395.551L180.461 235.757C182.664 230.686 188.464 228.242 193.632 230.207L337.602 284.939Z" fill="#12101E" stroke="black" stroke-width="1.21772"/>
<circle cx="329.554" cy="405.696" r="5.35891" transform="rotate(55.8151 329.554 405.696)" fill="#403D5E"/>
<circle cx="330.177" cy="405.879" r="3.89739" transform="rotate(55.8151 330.177 405.879)" fill="#161424"/>
<rect x="368.271" y="285.679" width="202.511" height="202.511" rx="10.3507" transform="rotate(110.815 368.271 285.679)" fill="#12101E" stroke="black" stroke-width="1.21772"/>
<path opacity="0.394996" fill-rule="evenodd" clip-rule="evenodd" d="M143.201 332.35L196.583 296.539L168.655 394.957L156.554 415.686L152.908 417.373L147.703 417.355L137.34 413.603L160.524 338.469L143.201 332.35Z" fill="#0B0A13"/>
<ellipse cx="263.819" cy="255.848" rx="41.5696" ry="28.8366" transform="rotate(55.8151 263.819 255.848)" fill="#0058FF"/>
<path fill-rule="evenodd" clip-rule="evenodd" d="M292.78 287.293C292.78 287.293 309.385 280.77 315.168 257.729C320.951 234.687 311.271 212.347 292.286 202.927C273.3 193.507 247.667 203.634 234.7 225.541C221.734 247.447 236.033 266.132 236.033 266.132" fill="#0058FF"/>
<path d="M292.78 287.293C292.78 287.293 309.385 280.77 315.168 257.729C320.951 234.687 311.271 212.347 292.286 202.927C273.3 193.507 247.667 203.634 234.7 225.541C221.734 247.447 236.033 266.132 236.033 266.132" stroke="black" stroke-width="1.21772" stroke-linecap="round"/>
<mask id="mask0_167_2937" style="mask-type:luminance" maskUnits="userSpaceOnUse" x="228" y="198" width="90" height="90">
<path fill-rule="evenodd" clip-rule="evenodd" d="M292.78 287.293C292.78 287.293 309.385 280.77 315.168 257.728C320.951 234.687 311.271 212.347 292.286 202.927C273.3 193.507 247.667 203.634 234.7 225.541C221.734 247.447 236.033 266.132 236.033 266.132" fill="white"/>
<path d="M292.78 287.293C292.78 287.293 309.385 280.77 315.168 257.728C320.951 234.687 311.271 212.347 292.286 202.927C273.3 193.507 247.667 203.634 234.7 225.541C221.734 247.447 236.033 266.132 236.033 266.132" stroke="white" stroke-width="1.21772" stroke-linecap="round"/>
</mask>
<g mask="url(#mask0_167_2937)">
<path opacity="0.629534" fill-rule="evenodd" clip-rule="evenodd" d="M218.601 265.344C209.641 228.593 240.099 198.542 237.634 183.07C234.676 164.499 228.83 161.665 213.596 165.62C213.327 165.689 275.306 174.324 289.274 199.311C291.96 204.115 272.802 219.796 272.992 224.924C274.188 257.258 220.991 275.148 218.601 265.344Z" fill="#1D1B30"/>
</g>
<path fill-rule="evenodd" clip-rule="evenodd" d="M276.462 281.24C278.127 281.826 278.972 283.683 278.311 285.319C277.735 286.745 276.099 287.417 274.687 286.807L250.34 276.291C248.797 275.625 248.199 273.75 249.071 272.314C249.923 270.911 251.716 270.409 253.175 271.159C256.521 272.879 262.231 275.78 264.909 276.936C267.483 278.047 272.991 280.019 276.462 281.24Z" fill="#1C1A2E" stroke="black" stroke-width="1.21772" stroke-linecap="round"/>
<path d="M305.728 271.14C307.23 268.957 308.938 264.532 310.152 258.997C311.372 253.442 312.109 246.701 311.625 239.849C310.657 226.145 304.778 211.888 287.979 205.983C271.194 200.084 257.08 207.195 247.34 216.873C242.469 221.713 238.669 227.213 236.141 232.102C234.877 234.546 233.927 236.847 233.32 238.844C232.718 240.828 232.439 242.562 232.564 243.855C233.039 248.775 236.556 254.654 242.859 260.175C249.18 265.712 258.363 270.945 270.316 274.56C282.192 278.153 289.556 279.485 294.697 278.816C297.292 278.477 299.327 277.629 301.085 276.311C302.831 275.002 304.279 273.247 305.728 271.14Z" fill="#1C1A2E" stroke="black" stroke-width="1.21772"/>
<mask id="mask1_167_2937" style="mask-type:luminance" maskUnits="userSpaceOnUse" x="231" y="203" width="82" height="77">
<path d="M305.728 271.14C307.23 268.957 308.938 264.532 310.152 258.997C311.372 253.442 312.109 246.701 311.625 239.849C310.657 226.145 304.778 211.888 287.979 205.983C271.194 200.084 257.08 207.195 247.34 216.873C242.469 221.713 238.669 227.213 236.141 232.102C234.877 234.546 233.927 236.847 233.32 238.844C232.718 240.828 232.439 242.562 232.564 243.855C233.039 248.775 236.556 254.654 242.859 260.175C249.18 265.712 258.363 270.945 270.316 274.56C282.192 278.153 289.556 279.485 294.697 278.816C297.292 278.477 299.327 277.629 301.085 276.311C302.831 275.002 304.279 273.247 305.728 271.14Z" fill="white" stroke="white" stroke-width="1.21772"/>
</mask>
<g mask="url(#mask1_167_2937)">
<ellipse opacity="0.727097" cx="250.791" cy="234.042" rx="38.6825" ry="46.5549" transform="rotate(39.8151 250.791 234.042)" fill="#12101E"/>
</g>
<path fill-rule="evenodd" clip-rule="evenodd" d="M266.892 226.395C259.552 229.537 253.193 233.427 249.636 235.769C248.657 236.414 247.46 235.501 247.933 234.428C250.054 229.616 254.863 221.031 263.298 217.421C271.788 213.788 280.246 216.782 284.49 218.86C285.499 219.353 285.224 220.762 284.124 220.984C280.508 221.713 274.154 223.287 266.892 226.395Z" fill="white"/>
<path d="M142.105 644.255C142.105 644.255 142.378 650.648 137.876 656.298C133.373 661.947 126.776 670.4 118.159 675.709C109.542 681.018 105.095 678.605 102.909 677.459C100.722 676.312 96.9172 672.374 96.9172 672.374" stroke="#2FFD61" stroke-width="1.21772" stroke-linecap="round"/>
<path fill-rule="evenodd" clip-rule="evenodd" d="M188.062 668.428C188.062 668.428 188.474 699.13 179.635 706.05C170.797 712.969 156.906 711.862 150.28 700.131C143.654 688.4 156.679 665.958 156.679 665.958" fill="#100F1B"/>
<path d="M188.062 668.428C188.062 668.428 188.474 699.131 179.635 706.05C170.797 712.969 156.906 711.862 150.28 700.131C143.654 688.4 156.679 665.958 156.679 665.958" stroke="#2FFD61" stroke-width="1.21772"/>
<path fill-rule="evenodd" clip-rule="evenodd" d="M108.689 640.676C108.689 640.676 88.8586 655.403 94.5773 668.285C100.296 681.168 109.787 675.289 115.156 672.765C120.525 670.241 137.723 648.699 137.723 648.699" fill="#100F1B"/>
<path d="M108.689 640.676C108.689 640.676 88.8586 655.403 94.5773 668.285C100.296 681.168 109.787 675.289 115.156 672.765C120.525 670.241 137.723 648.699 137.723 648.699" stroke="#050505" stroke-width="1.21772" stroke-linecap="round"/>
<path d="M302.555 348.801C302.977 347.799 303.314 347 303.555 346.429C303.869 346.889 304.291 347.504 304.798 348.239C305.957 349.918 307.561 352.222 309.341 354.724C312.895 359.718 317.173 365.53 320.012 368.707C331.691 381.777 342.261 389.034 347.497 391.6C353.363 394.475 357.871 394.589 362.733 393.505C365.092 392.979 367.536 392.171 370.239 391.277L370.402 391.224C373.177 390.306 376.246 389.297 379.84 388.381C387.102 386.53 396.918 383.281 405.622 379.948C409.975 378.281 414.058 376.591 417.409 375.04C420.745 373.497 423.404 372.071 424.875 370.929C426.345 369.788 427.13 368.668 427.289 367.453C427.446 366.254 426.97 365.119 426.305 364.009C425.906 363.343 425.394 362.619 424.854 361.856C424.51 361.37 424.155 360.869 423.812 360.357C422.906 359.006 422.004 357.486 421.339 355.688C420.194 352.594 419.978 349.385 419.793 346.635C419.73 345.7 419.671 344.818 419.579 344.012C419.491 343.233 419.37 342.512 419.173 341.899C418.977 341.289 418.69 340.733 418.234 340.338C417.263 339.497 415.875 339.642 414.125 340.452C406.329 344.058 394.449 346.091 384.457 347.219C379.473 347.781 374.981 348.116 371.734 348.31C370.111 348.407 368.799 348.469 367.894 348.506C367.442 348.525 367.091 348.538 366.854 348.546C366.833 348.547 366.813 348.547 366.794 348.548C366.753 348.498 366.707 348.44 366.654 348.375C366.438 348.108 366.119 347.716 365.709 347.213C364.888 346.208 363.701 344.762 362.236 343C359.306 339.477 355.262 334.687 350.807 329.621C346.352 324.557 341.483 319.213 336.903 314.585C332.331 309.964 328.018 306.026 324.681 303.796C311.416 294.934 297.492 293.088 284.717 291.852C272.084 290.63 264.832 287.676 241.199 274.749C237.91 272.95 235.06 271.369 232.549 269.976C226.062 266.377 221.835 264.032 218.128 262.415C212.937 260.151 208.745 259.302 200.846 258.387C192.778 257.452 183.648 260.691 174.721 265.442C165.777 270.203 156.93 276.542 149.412 281.929C136.133 291.444 122.921 291.434 112.019 290.183C109.884 289.938 107.843 289.646 105.903 289.369C105.363 289.292 104.83 289.215 104.305 289.142C101.905 288.805 99.6691 288.518 97.6534 288.42C93.6546 288.226 90.3084 288.76 88.2435 291.361C87.5457 292.239 87.3257 293.424 87.3209 294.702C87.3162 295.988 87.531 297.474 87.8021 299.036C87.8933 299.562 87.9909 300.097 88.0899 300.64C88.5872 303.367 89.118 306.279 89.0349 309.047C88.696 320.341 85.8073 324.56 84.4384 326.385C84.3777 326.466 84.3173 326.545 84.2589 326.622C84.152 326.763 84.0517 326.896 83.9677 327.012C83.8388 327.19 83.7107 327.379 83.6268 327.569C83.5413 327.761 83.4667 328.031 83.5588 328.326C83.6495 328.618 83.8616 328.804 84.0505 328.925C84.402 329.151 84.9809 329.338 85.7195 329.561C85.9556 329.633 86.2152 329.71 86.5013 329.794C87.1598 329.989 87.9581 330.225 88.9309 330.531C94.6044 332.316 107.752 334.263 121.312 334.381C128.099 334.44 135.015 334.042 141.17 332.928C147.314 331.816 152.761 329.981 156.561 327.126C164.129 321.44 178.442 311.974 185.508 307.35C186.479 306.715 187.635 307.609 187.315 308.66C184.472 317.975 177.725 339.79 170.288 361.755C162.843 383.745 154.731 405.809 149.158 415.673C137.973 435.471 118.848 462.203 103.159 484.132C100.619 487.683 98.1688 491.107 95.8569 494.357C93.7045 497.382 92.2946 501.796 91.4451 507.153C90.5937 512.522 90.2964 518.898 90.4118 525.893C90.6428 539.884 92.5266 556.42 94.9802 572.469C99.1755 599.912 105.048 625.996 107.206 635.583C107.572 637.209 107.831 638.36 107.957 638.963C108.897 643.459 112.649 645.908 116.753 647.37C119.955 648.511 123.511 649.099 126.359 649.569C127.16 649.701 127.906 649.824 128.571 649.948C131.859 650.558 134.883 649.507 137.336 647.918C139.786 646.329 141.714 644.175 142.851 642.469C142.948 642.323 142.979 642.154 142.993 642.074C143.012 641.965 143.024 641.839 143.032 641.703C143.049 641.43 143.054 641.068 143.048 640.631C143.038 639.753 142.987 638.527 142.907 637.003C142.762 634.27 142.52 630.553 142.23 626.12L142.128 624.546C141.459 614.281 140.585 600.575 140.072 586.328C139.558 572.078 139.406 557.302 140.179 544.895C140.565 538.691 141.181 533.093 142.096 528.456C143.013 523.804 144.219 520.181 145.748 517.881C152.103 508.326 161.947 497.523 170.887 489.285C175.356 485.167 179.584 481.705 183.022 479.366C184.743 478.195 186.249 477.317 187.477 476.778C188.091 476.508 188.621 476.33 189.064 476.239C189.511 476.146 189.831 476.151 190.045 476.208C190.487 476.324 190.854 476.667 191.106 477.457C191.364 478.265 191.465 479.444 191.404 481.027C191.283 484.183 190.533 488.714 189.409 494.553C188.913 497.128 188.345 499.951 187.73 503.012C185.561 513.804 182.796 527.559 180.469 543.856C177.49 564.729 171.043 595.137 165.375 620.907C164.093 626.737 162.851 632.332 161.698 637.523C160.304 643.797 159.041 649.483 157.997 654.286C157.043 658.675 156.269 662.334 155.745 665.038C155.482 666.39 155.281 667.508 155.15 668.362C155.023 669.189 154.951 669.835 154.977 670.196C155.353 675.439 157.413 678.938 160.357 681.232C163.276 683.506 167.006 684.551 170.66 685.02C178.195 685.988 184.114 681.899 188.027 674.538C189.953 670.915 200.14 650.235 211.173 626.091C222.203 601.954 234.102 574.306 239.436 556.764C244.471 540.202 246.761 522.049 248.965 504.582C249.098 503.532 249.23 502.485 249.362 501.441C251.701 482.988 254.122 465.481 259.766 451.469C265.444 437.376 276.499 410.86 286.136 387.864C290.954 376.367 295.418 365.751 298.676 358.009C300.306 354.138 301.634 350.985 302.555 348.801Z" fill="url(#paint14_linear_167_2937)" stroke="#050505" stroke-width="1.21772"/>
<path opacity="0.3" d="M200.844 259.09C216.596 260.915 217.338 262.451 240.976 275.381L216.382 342.776C209.068 362.821 198.558 381.55 185.261 398.238L177.824 407.571C169.713 417.75 168.927 431.945 175.865 442.958L186.83 461.768L190.269 475.717C184.834 474.282 158.089 498.427 145.31 517.642C139.013 557.071 126.887 638.633 128.751 649.447C122.578 648.301 110.368 647.291 108.622 638.937C106.875 630.582 79.8455 518.104 96.4215 494.808C112.998 471.512 136.741 439.11 149.757 416.071C160.97 396.223 182.278 327.571 187.965 308.936C188.461 307.311 186.665 306.008 185.244 306.938C178.182 311.56 163.85 321.037 156.263 326.737C161.856 306.674 154.308 288.901 149.835 282.522C164.883 271.739 185.093 257.265 200.844 259.09Z" fill="#210080"/>
<path opacity="0.1" fill-rule="evenodd" clip-rule="evenodd" d="M229.668 454.839C229.668 454.839 237.321 471.246 218.243 542.73C199.166 614.215 169.033 684.145 169.033 684.145C169.033 684.145 164.566 685.44 161.524 683.74C158.483 682.041 153.303 675.355 153.303 675.355L193.156 474.134C193.156 474.134 200.793 451.207 213.53 451.545C226.267 451.882 229.668 454.839 229.668 454.839Z" fill="#1D1B30"/>
<path opacity="0.3" d="M318.779 353.429C316.659 364.804 340.51 416.084 366.439 372.61C369.401 363.389 374.33 352.9 354.78 334.783C344.265 321.632 341.909 325.496 318.779 353.429Z" fill="#210080"/>
<path opacity="0.3" fill-rule="evenodd" clip-rule="evenodd" d="M237.206 386.459C232.36 345.924 278 333.991 282.682 316.952C288.303 296.498 279.893 286.952 297.373 281.713C314.852 276.475 312.97 350.722 299.366 383.034C285.534 415.89 253.535 523.03 237.206 386.459Z" fill="#210080"/>
<path fill-rule="evenodd" clip-rule="evenodd" d="M288.75 382.159C288.275 343.464 298.484 333.42 303.446 333.286C309.775 333.116 328.292 369.101 324.985 378.954C316.654 403.778 289.033 405.16 288.75 382.159Z" fill="#1D1B30"/>
<path fill-rule="evenodd" clip-rule="evenodd" d="M274.482 411.773C274.62 410.879 274.251 409.983 273.525 409.445L266.527 404.264C265.643 403.61 264.38 403.964 263.965 404.982C262.997 407.357 260.147 408.322 257.935 407.024L232.612 392.166C230.98 391.208 230.257 389.227 230.889 387.443C231.174 386.637 230.766 385.75 229.968 385.442L207.862 376.917C207.153 376.643 206.354 376.973 206.045 377.667C205.332 379.266 203.566 380.112 201.874 379.665L180.901 374.121C178.504 373.488 176.844 371.306 176.874 368.826C176.886 367.758 176.117 366.84 175.063 366.666L165.799 365.131C165.551 365.09 165.299 365.088 165.051 365.124L163.156 365.399L165.009 368.127L162.894 375.161L198.189 384.406C198.189 384.406 205.066 383.841 212.024 386.368C218.982 388.895 231.808 396.613 231.808 396.613L254.252 408.619L272.815 422.6L274.482 411.773Z" fill="#171527"/>
<path fill-rule="evenodd" clip-rule="evenodd" d="M249.809 497.908L242.658 487.38L238.574 509.659L246.552 526.176L249.809 497.908Z" fill="#F700FE"/>
<path fill-rule="evenodd" clip-rule="evenodd" d="M258.111 306.28C260.833 307.47 262.11 310.613 260.991 313.365L248.223 344.758C247.182 347.319 244.22 348.501 241.702 347.36L212.996 334.36C210.588 333.269 209.489 330.456 210.521 328.022L223.574 297.223C224.765 294.413 228.02 293.118 230.815 294.34L258.111 306.28Z" fill="#11101D"/>
<path fill-rule="evenodd" clip-rule="evenodd" d="M259.726 300.66C262.447 301.85 263.725 304.993 262.606 307.745L249.838 339.138C248.796 341.699 245.835 342.881 243.316 341.74L214.61 328.74C212.202 327.649 211.103 324.836 212.135 322.402L225.189 291.602C226.379 288.793 229.635 287.498 232.43 288.72L259.726 300.66Z" fill="#1D1B30" stroke="black" stroke-width="1.21772" stroke-linecap="round"/>
<circle cx="237.896" cy="177.029" r="9.87716" transform="rotate(55.8151 237.896 177.029)" fill="#161424" stroke="black" stroke-width="1.21772"/>
<circle cx="238.206" cy="176.819" r="5.61751" transform="rotate(55.8151 238.206 176.819)" fill="#403D5E"/>
<path d="M166.24 378.27C166.24 378.27 190.28 381.447 200.375 383.814C207.397 385.461 213.764 387.225 219.557 389.426C240.739 397.474 271.688 420.94 271.688 420.94" stroke="black" stroke-width="1.21772"/>
<path d="M160.681 394.976C160.681 394.976 188.41 396.51 210.985 404.76C233.56 413.01 265.088 436.142 265.088 436.142" stroke="black" stroke-width="1.21772"/>
<path d="M207.439 384.277C208.152 382.294 210.39 381.324 212.324 382.159L233.361 391.239C235.218 392.041 236.07 394.2 235.261 396.054L227.832 413.079C227.036 414.904 224.925 415.755 223.086 414.994L203.07 406.704C201.268 405.958 200.37 403.928 201.03 402.092L207.439 384.277Z" fill="#161424" stroke="black" stroke-width="1.21772"/>
<path d="M284.095 423.131C284.82 423.694 285.014 424.706 284.55 425.498L273.883 443.671C273.323 444.625 272.049 444.866 271.179 444.181L255.668 431.976C254.975 431.43 254.771 430.468 255.183 429.688L265.031 411.032C265.561 410.028 266.87 409.746 267.767 410.443L284.095 423.131Z" fill="#161424" stroke="black" stroke-width="1.21772"/>
<path fill-rule="evenodd" clip-rule="evenodd" d="M171.561 359.808C170.369 359.634 169.23 360.357 168.879 361.509L151.767 417.782C151.361 419.118 152.158 420.521 153.513 420.855L177.521 426.784C178.781 427.095 180.063 426.364 180.437 425.122L198.108 366.508C198.537 365.083 197.6 363.61 196.128 363.395L171.561 359.808Z" fill="#161424"/>
<path d="M168.329 357.115C167.435 356.984 166.58 357.527 166.317 358.391L149.205 414.664C148.901 415.666 149.499 416.718 150.515 416.969L174.523 422.897C175.467 423.131 176.429 422.583 176.71 421.651L194.38 363.036C194.703 361.968 194 360.863 192.895 360.702L168.329 357.115Z" fill="#5639FE" stroke="black" stroke-width="1.21772"/>
<path fill-rule="evenodd" clip-rule="evenodd" d="M181.091 262.694L182.139 264.129C182.723 264.928 182.564 266.047 181.781 266.652L171.471 274.616C170.819 275.119 169.91 275.124 169.253 274.627L164.649 271.146" fill="#F700FE"/>
<path d="M181.091 262.694L182.139 264.129C182.723 264.928 182.564 266.047 181.781 266.652L171.471 274.616C170.819 275.119 169.91 275.124 169.253 274.627L164.649 271.146C169.263 268.163 179.011 262.297 181.091 262.694Z" stroke="black" stroke-width="1.21772"/>
<path fill-rule="evenodd" clip-rule="evenodd" d="M345.301 324.383L344.233 325.802C343.637 326.593 342.521 326.766 341.714 326.192L331.1 318.638C330.429 318.16 330.161 317.292 330.446 316.518L332.44 311.102" fill="#F700FE"/>
<path d="M345.301 324.383L344.233 325.802C343.637 326.593 342.521 326.766 341.714 326.192L331.1 318.638C330.429 318.16 330.161 317.292 330.446 316.518L332.44 311.102C336.634 314.651 345.078 322.276 345.301 324.383Z" stroke="black" stroke-width="1.21772"/>
<path fill-rule="evenodd" clip-rule="evenodd" d="M186.525 532.309C186.783 530.164 188.051 528.276 190.01 527.366C196.137 524.519 210.071 519.031 219.294 523.009C228.352 526.916 234.6 535.242 237.178 539.196C238.073 540.57 238.293 542.247 237.905 543.84C237.117 547.078 235.671 552.87 234.362 557.349C233.903 558.92 233.315 560.825 232.687 562.815C230.981 568.222 223.147 569.38 218.604 565.988C215.859 563.938 212.621 562.177 209.013 561.396C203.606 560.225 197.514 560.455 192.572 561.029C187.873 561.575 183.482 557.669 184.045 552.973L186.525 532.309Z" fill="#161424" stroke="black" stroke-width="1.21772"/>
<path fill-rule="evenodd" clip-rule="evenodd" d="M85.5151 500.311C85.7725 498.166 87.0398 496.279 88.9986 495.367C95.1918 492.485 109.38 486.877 118.764 490.924C127.978 494.898 134.328 503.381 136.932 507.381C137.826 508.756 138.047 510.435 137.659 512.028C136.861 515.307 135.388 521.211 134.054 525.773C133.573 527.42 132.953 529.429 132.291 531.522C130.583 536.928 122.754 538.088 118.232 534.667C115.411 532.533 112.066 530.689 108.33 529.88C102.789 528.68 96.5392 528.93 91.498 529.525C86.8004 530.079 82.4112 526.174 82.9748 521.477L85.5151 500.311Z" fill="#161424" stroke="black" stroke-width="1.21772"/>
<rect x="281.695" y="311.922" width="19.7543" height="13.0133" rx="1.21772" transform="rotate(25.8151 281.695 311.922)" fill="#161424" stroke="black" stroke-width="1.21772"/>
<path fill-rule="evenodd" clip-rule="evenodd" d="M81.4963 297.354L65.5713 287.745L49.8605 284.824L47.8445 289.117C47.8445 289.117 57.232 291.989 59.9053 298.149C62.5786 304.309 62.5056 319.93 62.5056 319.93C62.5056 319.93 61.8295 319.843 66.4785 320.757C71.1275 321.67 80.4888 321.063 80.4888 321.063L81.4963 297.354Z" fill="#403D5E"/>
<path d="M80.215 296.805L74.1593 292.787C74.1593 292.787 67.2165 287.998 63.8897 287.019C55.3005 284.491 49.6926 284.591 49.6926 284.591C49.6926 284.591 46.7495 285.083 46.9097 287.551C47.0921 290.362 48.0669 290.433 48.0669 290.433L62.1196 295.973" stroke="black" stroke-width="1.21772" stroke-linecap="round"/>
<path d="M43.6777 316.64C43.6777 316.64 58.5721 320.68 65.5245 321.401C72.4768 322.121 80.0049 320.487 80.0049 320.487" stroke="black" stroke-width="1.21772" stroke-linecap="round"/>
<path d="M107.379 637.108C107.379 637.108 117.277 641.258 124.424 641.533C131.572 641.807 143.488 637.855 143.488 637.855" stroke="black" stroke-width="1.21772"/>
<path d="M156.688 660.644C156.688 660.644 161.323 674.834 170.953 675.911C180.583 676.988 190.764 669.316 190.764 669.316" stroke="black" stroke-width="1.21772"/>
<path d="M84.8002 325.233L83.8199 324.794C81.5067 323.758 80.0772 321.397 80.2311 318.867L81.4899 298.162C81.6784 295.063 84.8487 293.061 87.7281 294.222V294.222" stroke="black" stroke-width="1.21772"/>
<path d="M83.7832 518.105C83.7832 518.105 86.6776 512.17 95.8082 513.207C104.939 514.244 131.236 527.055 131.236 527.055" stroke="#2FFD61" stroke-width="1.21772" stroke-linecap="round"/>
<path d="M232.441 559.271C232.441 559.271 232.629 552.671 224.059 549.355C215.489 546.039 186.25 545.194 186.25 545.194" stroke="#2FFD61" stroke-width="1.21772" stroke-linecap="round"/>
<path d="M234.205 547.209C234.205 547.209 234.393 540.609 225.823 537.293C217.253 533.977 188.013 533.132 188.013 533.132" stroke="#2FFD61" stroke-width="1.21772" stroke-linecap="round"/>
<path d="M85.5491 506.041C85.5491 506.041 88.4435 500.106 97.5741 501.143C106.705 502.18 133.002 514.991 133.002 514.991" stroke="#2FFD61" stroke-width="1.21772" stroke-linecap="round"/>
<path fill-rule="evenodd" clip-rule="evenodd" d="M338.778 390.145C338.049 389.593 338.248 388.622 339.16 388.555C340.972 388.421 344.142 388.569 349.086 389.977C354.558 391.536 359.414 393.844 362.257 395.338C363.228 395.848 363.008 397.182 361.923 397.349C358.811 397.83 353.967 398.338 350.939 397.475C347.421 396.473 341.575 392.262 338.778 390.145Z" fill="#1C1A2E" stroke="black" stroke-width="1.21772"/>
<path fill-rule="evenodd" clip-rule="evenodd" d="M144.085 334.623C143.408 334.727 143.117 333.787 143.723 333.467C145.435 332.561 147.91 331.225 151.32 329.326C156.426 326.485 160.953 323.872 163.512 322.382C164.066 322.059 164.644 322.675 164.269 323.196C162.447 325.723 159.206 329.824 156.313 331.434C153.541 332.977 147.82 334.052 144.085 334.623Z" fill="#1C1A2E" stroke="black" stroke-width="1.21772"/>
<path d="M367.139 348.144C367.139 348.144 371.169 361.593 366.281 371.88C361.392 382.166 349.286 390.181 349.286 390.181" stroke="black" stroke-width="1.21772"/>
<path d="M140.161 287.757C140.161 287.757 147.292 292.619 150.893 299.294C154.494 305.969 151.506 315.851 151.506 315.851" stroke="black" stroke-width="1.21772" stroke-linecap="round"/>
<circle cx="247.112" cy="317.902" r="4.11951" transform="rotate(55.8151 247.112 317.902)" fill="#47809D"/>
<circle cx="171.471" cy="415.605" r="2.74634" transform="rotate(55.8151 171.471 415.605)" fill="#403D5E"/>
<circle cx="242.225" cy="329.368" r="4.11951" transform="rotate(55.8151 242.225 329.368)" fill="#57556D"/>
<path d="M52.8101 290.088C53.818 290.013 54.6953 290.77 54.7677 291.779L54.9801 294.736C55.0522 295.74 54.2981 296.613 53.294 296.688L40.2628 297.659C39.2548 297.734 38.3775 296.977 38.3051 295.969L38.0927 293.011C38.0206 292.007 38.7748 291.134 39.7789 291.059L52.8101 290.088Z" fill="#403D5E" stroke="black" stroke-width="1.21772"/>
<path d="M52.658 296.529C53.6659 296.454 54.5432 297.212 54.6156 298.22L54.828 301.177C54.9001 302.182 54.146 303.055 53.1419 303.13L40.1107 304.101C39.1027 304.176 38.2254 303.418 38.153 302.41L37.9406 299.453C37.8685 298.448 38.6227 297.575 39.6268 297.5L52.658 296.529Z" fill="#403D5E" stroke="black" stroke-width="1.21772"/>
<path d="M53.5966 303.086C54.5791 303.028 55.431 303.759 55.523 304.739L55.8441 308.16C55.9396 309.179 55.1809 310.077 54.1612 310.153L41.1504 311.122C40.1522 311.197 39.2801 310.454 39.1947 309.457L38.8846 305.834C38.7969 304.81 39.5709 303.915 40.5967 303.854L53.5966 303.086Z" fill="#403D5E" stroke="black" stroke-width="1.21772"/>
<path d="M54.4348 309.81C55.4428 309.735 56.3201 310.493 56.3925 311.501L56.6049 314.458C56.677 315.462 55.9228 316.336 54.9187 316.41L41.8875 317.382C40.8796 317.457 40.0023 316.699 39.9299 315.691L39.7175 312.734C39.6454 311.729 40.3995 310.856 41.4036 310.781L54.4348 309.81Z" fill="#403D5E" stroke="black" stroke-width="1.21772"/>
<path fill-rule="evenodd" clip-rule="evenodd" d="M171.385 364.462C171.536 363.841 172.141 363.442 172.77 363.548L184.631 365.546C185.343 365.666 185.795 366.377 185.602 367.073L182.906 376.777C181.27 382.665 175.337 386.265 169.359 384.997L167.765 384.659C167.093 384.517 166.672 383.848 166.834 383.18L171.385 364.462Z" fill="#12101E"/>
<path d="M249.934 496.517L243.198 486.599C242.887 486.142 242.176 486.302 242.092 486.849L238.602 509.468C238.584 509.59 238.602 509.715 238.656 509.826L246.552 526.173" stroke="black" stroke-width="1.21772"/>
<path fill-rule="evenodd" clip-rule="evenodd" d="M228.748 294.211C229.379 292.637 231.176 291.882 232.742 292.533L244.62 297.472C246.181 298.121 246.914 299.917 246.254 301.473L235.361 327.139C234.71 328.674 232.944 329.399 231.401 328.765L220.017 324.084C218.472 323.448 217.728 321.686 218.35 320.135L228.748 294.211Z" fill="#403D5E"/>
<path fill-rule="evenodd" clip-rule="evenodd" d="M271.017 421.572C271.953 420.004 274.049 419.607 275.494 420.725L277.472 422.256C278.653 423.169 278.997 424.805 278.284 426.117L274.227 433.581C273.346 435.203 271.235 435.673 269.748 434.579L267.462 432.897C266.199 431.968 265.848 430.231 266.652 428.885L271.017 421.572Z" fill="#403D5E"/>
<ellipse cx="270.433" cy="431.954" rx="3.74501" ry="2.6215" transform="rotate(31.8151 270.433 431.954)" fill="#161424"/>
<path d="M236.053 300.227L227.765 320.48" stroke="#1D1B30" stroke-width="3.65317" stroke-linecap="round"/>
<path d="M194.573 455.505C194.573 455.505 213.633 448.998 226.872 452.866C240.11 456.733 250.653 468.119 250.653 468.119" stroke="black" stroke-width="1.21772" stroke-linecap="round"/>
<path d="M161.615 443.078C161.615 443.078 177.434 448.882 184.005 458.367C190.576 467.852 191.436 480.806 191.436 480.806" stroke="black" stroke-width="1.21772" stroke-linecap="round"/>
<path d="M269.89 432.88C269.89 432.88 250.753 472.029 273.562 475.026C293.932 477.703 290.462 433.278 313.381 441.462C331.527 447.941 346.673 445.469 353.788 429.939C362.827 410.207 331.2 406.346 331.2 406.346" stroke="#232139" stroke-width="4.26203" stroke-linecap="round"/>
<path fill-rule="evenodd" clip-rule="evenodd" d="M430.21 339.656C426.762 336.357 424.323 337.773 423.211 339.383C422.099 340.994 422.376 343.564 423.657 348.647C424.939 353.73 427.066 359.865 430.414 363.147C433.762 366.429 436.337 365.558 436.695 360.58C437.054 355.602 433.659 342.954 430.21 339.656Z" fill="#27253E" stroke="black" stroke-width="1.21772"/>
<path fill-rule="evenodd" clip-rule="evenodd" d="M426.115 339.812L437.577 325.164L451.219 316.842L454.631 320.136C454.631 320.136 446.881 326.162 446.575 332.87C446.269 339.578 451.897 354.15 451.897 354.15C451.897 354.15 452.498 353.828 448.479 356.337C444.46 358.845 435.495 361.61 435.495 361.61L426.115 339.812Z" fill="#403D5E"/>
<path d="M427.116 338.841L431.345 332.93C431.345 332.93 436.129 325.984 438.889 323.885C446.016 318.465 451.292 316.563 451.292 316.563C451.292 316.563 454.218 315.975 454.947 318.339C455.776 321.03 454.891 321.444 454.891 321.444L443.73 331.622" stroke="black" stroke-width="1.21772" stroke-linecap="round"/>
<path d="M468.321 344.375C468.321 344.375 455.84 353.452 449.599 356.6C443.359 359.748 435.742 360.9 435.742 360.9" stroke="black" stroke-width="1.21772" stroke-linecap="round"/>
<path d="M450.336 322.813C449.367 323.101 448.817 324.121 449.108 325.089L449.962 327.929C450.252 328.893 451.268 329.44 452.233 329.153L464.757 325.422C465.725 325.134 466.275 324.113 465.984 323.145L465.13 320.306C464.84 319.342 463.824 318.794 462.859 319.082L450.336 322.813Z" fill="#403D5E" stroke="black" stroke-width="1.21772"/>
<path d="M452.769 328.777C451.8 329.066 451.25 330.086 451.541 331.054L452.395 333.893C452.685 334.858 453.701 335.405 454.666 335.118L467.189 331.387C468.158 331.098 468.708 330.078 468.417 329.11L467.563 326.271C467.273 325.307 466.257 324.759 465.292 325.047L452.769 328.777Z" fill="#403D5E" stroke="black" stroke-width="1.21772"/>
<path d="M454.227 335.24C453.288 335.536 452.752 336.522 453.015 337.47L453.932 340.782C454.206 341.768 455.234 342.337 456.214 342.045L468.718 338.32C469.677 338.034 470.228 337.03 469.953 336.067L468.953 332.571C468.67 331.583 467.629 331.023 466.649 331.331L454.227 335.24Z" fill="#403D5E" stroke="black" stroke-width="1.21772"/>
<path d="M455.836 341.819C454.867 342.108 454.317 343.128 454.608 344.096L455.462 346.935C455.752 347.9 456.768 348.447 457.733 348.16L470.256 344.429C471.225 344.14 471.775 343.12 471.484 342.152L470.63 339.313C470.34 338.349 469.324 337.801 468.359 338.089L455.836 341.819Z" fill="#403D5E" stroke="black" stroke-width="1.21772"/>
</g>
<defs>
<linearGradient id="paint0_linear_167_2937" x1="343.182" y1="24.9957" x2="319.343" y2="588.174" gradientUnits="userSpaceOnUse">
<stop stop-color="#0058FF"/>
<stop offset="1" stop-color="#F700FE"/>
</linearGradient>
<linearGradient id="paint1_linear_167_2937" x1="245.86" y1="13.2465" x2="865.972" y2="318.239" gradientUnits="userSpaceOnUse">
<stop stop-color="#0058FF"/>
<stop offset="1" stop-color="#F700FE"/>
</linearGradient>
<linearGradient id="paint2_linear_167_2937" x1="423.723" y1="212.017" x2="498.283" y2="200.173" gradientUnits="userSpaceOnUse">
<stop stop-color="#0058FF"/>
<stop offset="1" stop-color="#F700FE"/>
</linearGradient>
<linearGradient id="paint3_linear_167_2937" x1="389.653" y1="174.467" x2="531.132" y2="229.211" gradientUnits="userSpaceOnUse">
<stop stop-color="#0058FF"/>
<stop offset="1" stop-color="#F700FE"/>
</linearGradient>
<linearGradient id="paint4_linear_167_2937" x1="366.226" y1="158.605" x2="580.364" y2="263.64" gradientUnits="userSpaceOnUse">
<stop stop-color="#0058FF"/>
<stop offset="1" stop-color="#F700FE"/>
</linearGradient>
<linearGradient id="paint5_linear_167_2937" x1="542.389" y1="101.055" x2="616.949" y2="89.2107" gradientUnits="userSpaceOnUse">
<stop stop-color="#0058FF"/>
<stop offset="1" stop-color="#F700FE"/>
</linearGradient>
<linearGradient id="paint6_linear_167_2937" x1="508.349" y1="63.6908" x2="649.562" y2="118.646" gradientUnits="userSpaceOnUse">
<stop stop-color="#0058FF"/>
<stop offset="1" stop-color="#F700FE"/>
</linearGradient>
<linearGradient id="paint7_linear_167_2937" x1="484.935" y1="47.9132" x2="698.537" y2="153.241" gradientUnits="userSpaceOnUse">
<stop stop-color="#0058FF"/>
<stop offset="1" stop-color="#F700FE"/>
</linearGradient>
<linearGradient id="paint8_linear_167_2937" x1="573.16" y1="196.208" x2="637.074" y2="186.055" gradientUnits="userSpaceOnUse">
<stop stop-color="#0058FF"/>
<stop offset="1" stop-color="#F700FE"/>
</linearGradient>
<linearGradient id="paint9_linear_167_2937" x1="544.122" y1="165.069" x2="663.859" y2="213.195" gradientUnits="userSpaceOnUse">
<stop stop-color="#0058FF"/>
<stop offset="1" stop-color="#F700FE"/>
</linearGradient>
<linearGradient id="paint10_linear_167_2937" x1="524.116" y1="151.95" x2="704.578" y2="243.628" gradientUnits="userSpaceOnUse">
<stop stop-color="#0058FF"/>
<stop offset="1" stop-color="#F700FE"/>
</linearGradient>
<linearGradient id="paint11_linear_167_2937" x1="404.156" y1="115.105" x2="467.45" y2="105.05" gradientUnits="userSpaceOnUse">
<stop stop-color="#0058FF"/>
<stop offset="1" stop-color="#F700FE"/>
</linearGradient>
<linearGradient id="paint12_linear_167_2937" x1="375.37" y1="84.0885" x2="494.217" y2="131.544" gradientUnits="userSpaceOnUse">
<stop stop-color="#0058FF"/>
<stop offset="1" stop-color="#F700FE"/>
</linearGradient>
<linearGradient id="paint13_linear_167_2937" x1="355.545" y1="71.0151" x2="534.799" y2="161.529" gradientUnits="userSpaceOnUse">
<stop stop-color="#0058FF"/>
<stop offset="1" stop-color="#F700FE"/>
</linearGradient>
<linearGradient id="paint14_linear_167_2937" x1="193.902" y1="98.2587" x2="445.654" y2="623.545" gradientUnits="userSpaceOnUse">
<stop stop-color="#0058FF"/>
<stop offset="1" stop-color="#F700FE"/>
</linearGradient>
<clipPath id="clip0_167_2937">
<rect width="663" height="741" fill="white"/>
</clipPath>
</defs>
</svg>
