<svg width="940" height="711" viewBox="0 0 940 711" fill="none" xmlns="http://www.w3.org/2000/svg">
<g clip-path="url(#clip0_167_3208)">
<path opacity="0.143438" fill-rule="evenodd" clip-rule="evenodd" d="M339.789 410.509L337.475 413.494L335.161 410.509L332.177 408.195L335.161 405.881L337.475 402.897L339.789 405.881L342.774 408.195L339.789 410.509Z" fill="#979797"/>
<path opacity="0.143438" fill-rule="evenodd" clip-rule="evenodd" d="M527.356 63.9866L525.043 66.9712L522.729 63.9866L519.744 61.6727L522.729 59.3587L525.043 56.3742L527.356 59.3587L530.341 61.6727L527.356 63.9866Z" fill="#979797"/>
<path opacity="0.143438" fill-rule="evenodd" clip-rule="evenodd" d="M678.894 598.076L676.58 601.061L674.266 598.076L671.281 595.762L674.266 593.448L676.58 590.464L678.894 593.448L681.878 595.762L678.894 598.076Z" fill="#979797"/>
<path opacity="0.0904018" fill-rule="evenodd" clip-rule="evenodd" d="M110.469 366.353L105.694 362.65L110.469 358.948L114.171 354.173L117.873 358.948L122.649 362.65L117.873 366.353L114.171 371.128L110.469 366.353Z" fill="#979797"/>
<path opacity="0.0904018" fill-rule="evenodd" clip-rule="evenodd" d="M290.618 70.696L285.843 66.9937L290.618 63.2914L294.32 58.5161L298.023 63.2914L302.798 66.9937L298.023 70.696L294.32 75.4713L290.618 70.696Z" fill="#2FFD61"/>
<path opacity="0.0904018" fill-rule="evenodd" clip-rule="evenodd" d="M509.976 219.054L505.201 215.352L509.976 211.65L513.678 206.874L517.381 211.65L522.156 215.352L517.381 219.054L513.678 223.829L509.976 219.054Z" fill="#979797"/>
<path opacity="0.0904018" fill-rule="evenodd" clip-rule="evenodd" d="M216.439 652.472L211.664 648.77L216.439 645.068L220.141 640.292L223.843 645.068L228.619 648.77L223.843 652.472L220.141 657.247L216.439 652.472Z" fill="#979797"/>
<path fill-rule="evenodd" clip-rule="evenodd" d="M624.287 603.694L619.512 599.991L624.287 596.289L627.99 591.514L631.692 596.289L636.467 599.991L631.692 603.694L627.99 608.469L624.287 603.694Z" fill="#0058FF"/>
<path fill-rule="evenodd" clip-rule="evenodd" d="M535.409 341.98L530.634 338.277L535.409 334.575L539.111 329.8L542.814 334.575L547.589 338.277L542.814 341.98L539.111 346.755L535.409 341.98Z" fill="#979797"/>
<path fill-rule="evenodd" clip-rule="evenodd" d="M541.767 641.875L536.992 638.172L541.767 634.47L545.469 629.695L549.172 634.47L553.947 638.172L549.172 641.875L545.469 646.65L541.767 641.875Z" fill="#2FFD61"/>
<path fill-rule="evenodd" clip-rule="evenodd" d="M190.733 272.831L185.957 269.129L190.733 265.427L194.435 260.652L198.137 265.427L202.913 269.129L198.137 272.831L194.435 277.607L190.733 272.831Z" fill="#2FFD61"/>
<path fill-rule="evenodd" clip-rule="evenodd" d="M720.857 84.4721L716.081 80.7698L720.857 77.0675L724.559 72.2922L728.261 77.0675L733.037 80.7698L728.261 84.4721L724.559 89.2474L720.857 84.4721Z" fill="#FFEC6A"/>
<path fill-rule="evenodd" clip-rule="evenodd" d="M660.454 419.338L655.678 415.636L660.454 411.933L664.156 407.158L667.858 411.933L672.634 415.636L667.858 419.338L664.156 424.113L660.454 419.338Z" fill="#979797"/>
<path d="M270.456 378.876C268.303 385.529 271.952 392.667 278.606 394.817L623.756 506.335C635.219 510.039 647.543 503.923 651.525 492.554L744.617 226.837C747.851 217.606 742.596 207.567 733.168 204.964L375.687 106.26C366.969 103.853 357.902 108.738 355.116 117.343L270.456 378.876Z" fill="#1C1A2E" stroke="black" stroke-width="2"/>
<path fill-rule="evenodd" clip-rule="evenodd" d="M116.79 398.071C114.656 395.628 117.121 391.934 120.196 392.966L181.061 413.404C189.476 416.23 197.026 421.165 202.991 427.74L341.42 580.334C344.935 584.208 341.305 590.291 336.227 589.038L285.005 576.404C274.655 573.851 265.342 568.174 258.33 560.145L116.79 398.071Z" fill="#373451" stroke="black" stroke-width="2.1194"/>
<path d="M112.465 393.853V393.853C109.551 396.767 109.389 401.438 112.094 404.547L254.84 568.595C261.303 576.023 269.865 581.32 279.397 583.787L333.716 597.85C337.196 598.751 340.866 597.359 342.873 594.377L345.68 590.208" stroke="black" stroke-width="2.1194" stroke-linecap="round"/>
<path fill-rule="evenodd" clip-rule="evenodd" d="M140.245 408.649C138.78 406.996 140.505 404.485 142.574 405.259L191.208 423.45L324.759 571.522C326.15 573.064 324.722 575.479 322.7 575.004L281.731 565.382C279.599 564.881 277.675 563.733 276.223 562.094L140.245 408.649Z" stroke="black" stroke-width="2.1194"/>
<path d="M166.635 422.466L284.574 553.883" stroke="black" stroke-width="2.1194" stroke-linecap="round"/>
<path d="M187.696 431.732L305.635 563.15" stroke="black" stroke-width="2.1194" stroke-linecap="round"/>
<path d="M180.114 442.684L208.756 451.108" stroke="black" stroke-width="2.1194" stroke-linecap="round"/>
<path d="M197.805 463.744L226.447 472.169" stroke="black" stroke-width="2.1194" stroke-linecap="round"/>
<path d="M214.653 483.963L243.295 492.387" stroke="black" stroke-width="2.1194" stroke-linecap="round"/>
<path d="M236.556 505.865L265.198 514.29" stroke="black" stroke-width="2.1194" stroke-linecap="round"/>
<path d="M255.089 524.399L283.732 532.823" stroke="black" stroke-width="2.1194" stroke-linecap="round"/>
<path d="M404.368 603.336C402.391 595.955 406.771 588.368 414.152 586.39L434.72 580.879C442.101 578.901 449.687 583.282 451.665 590.663L464.306 637.84C466.284 645.221 461.904 652.808 454.523 654.786L433.955 660.297C426.574 662.275 418.987 657.895 417.01 650.514L404.368 603.336Z" stroke="black" stroke-width="2"/>
<path d="M396.018 598.515C394.04 591.134 398.421 583.547 405.802 581.569L426.369 576.058C433.75 574.08 441.337 578.461 443.315 585.842L455.956 633.02C457.934 640.401 453.554 647.987 446.173 649.965L425.605 655.476C418.224 657.454 410.637 653.074 408.659 645.693L396.018 598.515Z" fill="#373451" stroke="black" stroke-width="2"/>
<circle cx="430.599" cy="634.022" r="6.5759" transform="rotate(-60 430.599 634.022)" stroke="black" stroke-width="2"/>
<path fill-rule="evenodd" clip-rule="evenodd" d="M373.711 517.648C369.178 516.028 368.019 510.155 371.597 506.935L385.224 494.669C390.376 490.032 397.639 488.554 404.193 490.81L504.257 525.253C508.194 526.608 509.788 531.319 507.482 534.786L499.263 547.145C494.411 554.44 485.212 557.492 476.962 554.544L373.711 517.648Z" fill="#1C1A2E" stroke="black" stroke-width="2.1194"/>
<path fill-rule="evenodd" clip-rule="evenodd" d="M419.357 395.834L402.957 501.442C401.931 508.049 405.797 514.438 412.125 516.596L462.781 533.864C470.869 536.622 479.49 531.426 480.831 522.987L496.424 424.84L419.357 395.834Z" fill="#1C1A2E" stroke="black" stroke-width="2.1194"/>
<path fill-rule="evenodd" clip-rule="evenodd" d="M271.622 372.239L262.671 397.549C258.873 408.288 264.731 420.036 275.594 423.463L617.347 531.312C627.653 534.565 638.689 529.101 642.35 518.933L652.167 491.671L271.622 372.239Z" fill="#373451" stroke="black" stroke-width="2.1194"/>
<circle cx="452.515" cy="464.754" r="6.88806" stroke="black" stroke-width="2.1194"/>
<circle cx="813.376" cy="454.875" r="76.8284" fill="#110042"/>
<mask id="mask0_167_3208" style="mask-type:alpha" maskUnits="userSpaceOnUse" x="736" y="378" width="155" height="154">
<circle cx="813.376" cy="454.875" r="76.8284" fill="white"/>
</mask>
<g mask="url(#mask0_167_3208)">
<circle opacity="0.480911" cx="861.593" cy="449.046" r="91.1343" fill="white" fill-opacity="0.13"/>
<circle opacity="0.480911" cx="751.384" cy="363.211" r="90.0746" stroke="black" stroke-width="2.1194"/>
<circle opacity="0.480911" cx="752.444" cy="374.867" r="104.91" stroke="black" stroke-width="2.1194"/>
<circle opacity="0.480911" cx="768.339" cy="393.942" r="104.91" stroke="black" stroke-width="2.1194"/>
<circle opacity="0.480911" cx="779.996" cy="415.136" r="104.91" stroke="black" stroke-width="2.1194"/>
<circle opacity="0.480911" cx="791.653" cy="425.733" r="104.91" stroke="black" stroke-width="2.1194"/>
<circle opacity="0.480911" cx="748.205" cy="358.972" r="73.1194" stroke="black" stroke-width="2.1194"/>
<circle opacity="0.480911" cx="736.548" cy="340.957" r="73.1194" stroke="black" stroke-width="2.1194"/>
</g>
<path opacity="0.0904018" fill-rule="evenodd" clip-rule="evenodd" d="M69.1405 146.994L64.3652 143.292L69.1405 139.59L72.8428 134.815L76.5451 139.59L81.3204 143.292L76.5451 146.994L72.8428 151.77L69.1405 146.994Z" fill="#2FFD61"/>
<path fill-rule="evenodd" clip-rule="evenodd" d="M509.352 143.5L506.273 153.482C505.748 155.185 506.724 156.986 508.437 157.476L579.922 177.914C581.592 178.391 583.337 177.44 583.839 175.777L587.113 164.94" fill="url(#paint0_linear_167_3208)"/>
<path d="M509.352 143.5L506.273 153.482C505.748 155.185 506.724 156.986 508.437 157.476L579.922 177.914C581.592 178.391 583.337 177.44 583.839 175.777L587.113 164.94" stroke="black" stroke-width="2.1194"/>
<path d="M384.915 170.116L393.896 173.343" stroke="#F700FE" stroke-width="2.1194" stroke-linecap="round"/>
<path d="M364.252 228.72L380.25 233.898" stroke="black" stroke-width="2.1194" stroke-linecap="round"/>
<path d="M438.431 254.153L454.429 259.331" stroke="black" stroke-width="2.1194" stroke-linecap="round"/>
<path d="M348.506 287.989L364.504 293.167" stroke="black" stroke-width="2.1194" stroke-linecap="round"/>
<path d="M422.685 313.422L438.683 318.6" stroke="black" stroke-width="2.1194" stroke-linecap="round"/>
<path d="M370.417 203.662L386.414 208.84" stroke="#47809D" stroke-width="2.1194" stroke-linecap="round"/>
<path d="M447.775 226.975L463.773 232.153" stroke="#47809D" stroke-width="2.1194" stroke-linecap="round"/>
<path d="M356.448 264.085L372.446 269.263" stroke="#4E479D" stroke-width="2.1194" stroke-linecap="round"/>
<path d="M470.896 197.324L486.893 202.502" stroke="#4E479D" stroke-width="2.1194" stroke-linecap="round"/>
<path d="M430.627 289.518L446.625 294.696" stroke="#4E479D" stroke-width="2.1194" stroke-linecap="round"/>
<path d="M501.777 337.131L517.775 342.309" stroke="#47809D" stroke-width="2.1194" stroke-linecap="round"/>
<path d="M388.666 181.397L404.664 186.575" stroke="#F700FE" stroke-width="2.1194" stroke-linecap="round"/>
<path d="M374.698 241.821L390.695 246.999" stroke="black" stroke-width="2.1194" stroke-linecap="round"/>
<path d="M358.952 301.09L374.949 306.268" stroke="black" stroke-width="2.1194" stroke-linecap="round"/>
<path d="M380.862 216.762L396.86 221.941" stroke="black" stroke-width="2.1194" stroke-linecap="round"/>
<path d="M455.042 242.195L471.039 247.373" stroke="black" stroke-width="2.1194" stroke-linecap="round"/>
<path d="M366.894 277.186L382.891 282.364" stroke="black" stroke-width="2.1194" stroke-linecap="round"/>
<path d="M481.342 210.425L497.339 215.603" stroke="black" stroke-width="2.1194" stroke-linecap="round"/>
<path d="M441.073 302.619L457.07 307.797" stroke="black" stroke-width="2.1194" stroke-linecap="round"/>
<path d="M555.521 235.858L571.518 241.036" stroke="black" stroke-width="2.1194" stroke-linecap="round"/>
<path d="M508.759 355.564L524.757 360.742" stroke="#F700FE" stroke-width="2.1194" stroke-linecap="round"/>
<path d="M412.259 187.873L428.256 193.051" stroke="#47809D" stroke-width="2.1194" stroke-linecap="round"/>
<path d="M398.29 248.297L414.288 253.475" stroke="#47809D" stroke-width="2.1194" stroke-linecap="round"/>
<path d="M382.544 307.566L398.541 312.744" stroke="#4E479D" stroke-width="2.1194" stroke-linecap="round"/>
<path d="M374.365 189.799L390.362 194.977" stroke="#F700FE" stroke-width="2.1194" stroke-linecap="round"/>
<path d="M360.396 250.223L376.394 255.401" stroke="black" stroke-width="2.1194" stroke-linecap="round"/>
<path d="M344.65 309.493L360.648 314.671" stroke="black" stroke-width="2.1194" stroke-linecap="round"/>
<path d="M403.591 175.927L442.057 187.821" stroke="#4E479D" stroke-width="2.1194" stroke-linecap="round"/>
<path d="M389.622 236.35L428.088 248.245" stroke="#4E479D" stroke-width="2.1194" stroke-linecap="round"/>
<path d="M463.801 261.783L502.267 273.677" stroke="#4E479D" stroke-width="2.1194" stroke-linecap="round"/>
<path d="M373.876 295.62L412.342 307.514" stroke="black" stroke-width="2.1194" stroke-linecap="round"/>
<path d="M448.055 321.052L486.521 332.947" stroke="#F700FE" stroke-width="2.1194" stroke-linecap="round"/>
<path d="M395.787 211.292L434.253 223.186" stroke="#4E479D" stroke-width="2.1194" stroke-linecap="round"/>
<path d="M381.818 271.716L420.284 283.61" stroke="black" stroke-width="2.1194" stroke-linecap="round"/>
<path d="M496.266 204.955L534.732 216.849" stroke="black" stroke-width="2.1194" stroke-linecap="round"/>
<path d="M455.997 297.149L494.463 309.043" stroke="black" stroke-width="2.1194" stroke-linecap="round"/>
<path d="M527.147 344.761L565.613 356.655" stroke="#F700FE" stroke-width="2.1194" stroke-linecap="round"/>
<path d="M382.867 163.575L375.053 172.556" stroke="#F700FE" stroke-width="2.1194" stroke-linecap="round"/>
<path d="M415.311 197.28L407.497 206.261" stroke="#F700FE" stroke-width="2.1194" stroke-linecap="round"/>
<path d="M548.817 362.468L541.003 371.449" stroke="#F700FE" stroke-width="2.1194" stroke-linecap="round"/>
<path d="M397.682 192.859L400.954 196.381C401.415 196.877 401.298 197.674 400.713 198.016L396.134 200.699" stroke="#F700FE" stroke-width="2.1194" stroke-linecap="round"/>
<path d="M531.187 358.047L534.459 361.569C534.921 362.065 534.803 362.862 534.218 363.204L529.639 365.887" stroke="#F700FE" stroke-width="2.1194" stroke-linecap="round"/>
<path fill-rule="evenodd" clip-rule="evenodd" d="M306.132 325.867C308.005 319.69 314.542 316.212 320.712 318.108L640.495 416.398C646.851 418.352 650.288 425.219 648.041 431.478L630.705 479.78C628.583 485.693 622.158 488.86 616.176 486.943L300.005 385.602C293.942 383.659 290.56 377.211 292.408 371.119L306.132 325.867Z" fill="url(#paint1_linear_167_3208)" stroke="black" stroke-width="2.1194"/>
<path fill-rule="evenodd" clip-rule="evenodd" d="M610.121 237.345C612.276 231.688 618.403 228.621 624.223 230.288L697.445 251.252C703.915 253.104 707.477 260.036 705.216 266.375L672.774 357.315C670.672 363.207 664.294 366.39 658.322 364.526L583.781 341.259C577.368 339.257 573.97 332.261 576.361 325.982L610.121 237.345Z" fill="#1C1A2E" stroke="black" stroke-width="2.1194"/>
<path opacity="0.2" fill-rule="evenodd" clip-rule="evenodd" d="M598.333 312.827C598.959 311.283 600.671 310.485 602.256 310.997L660.989 329.981C662.714 330.539 663.624 332.424 662.988 334.121L658.241 346.791C657.643 348.388 655.89 349.228 654.27 348.695L595.311 329.297C593.563 328.722 592.667 326.787 593.359 325.081L598.333 312.827Z" fill="#FFEC6A"/>
<path opacity="0.6" fill-rule="evenodd" clip-rule="evenodd" d="M610.924 280.512C611.551 278.968 613.263 278.17 614.848 278.682L673.58 297.666C675.305 298.224 676.216 300.109 675.58 301.807L670.832 314.476C670.234 316.073 668.482 316.913 666.862 316.38L607.903 296.982C606.155 296.407 605.258 294.472 605.951 292.767L610.924 280.512Z" fill="#FFEC6A"/>
<path fill-rule="evenodd" clip-rule="evenodd" d="M622.421 249.32C623.047 247.776 624.759 246.978 626.344 247.491L685.077 266.474C686.802 267.032 687.712 268.917 687.076 270.615L682.329 283.284C681.73 284.881 679.978 285.722 678.358 285.189L619.399 265.79C617.651 265.215 616.755 263.28 617.447 261.575L622.421 249.32Z" fill="#FFEC6A"/>
<path d="M321.634 337.131L455.042 378.046" stroke="black" stroke-width="2.1194" stroke-linecap="round"/>
<path d="M400.531 378.046L483.653 403.479" stroke="black" stroke-width="2.1194" stroke-linecap="round"/>
<path d="M358.952 364.27L378.059 370.727" stroke="black" stroke-width="2.1194" stroke-linecap="round"/>
<path d="M314.216 367.862L447.624 408.777" stroke="black" stroke-width="2.1194" stroke-linecap="round"/>
<g opacity="0.4">
<circle cx="199.06" cy="166.311" r="27.3479" fill="url(#paint2_linear_167_3208)"/>
<mask id="mask1_167_3208" style="mask-type:alpha" maskUnits="userSpaceOnUse" x="171" y="138" width="56" height="56">
<circle cx="199.06" cy="166.311" r="27.3479" fill="white"/>
</mask>
<g mask="url(#mask1_167_3208)">
<circle opacity="0.480911" cx="215.664" cy="164.358" r="32.2314" fill="white" fill-opacity="0.18"/>
</g>
</g>
</g>
<defs>
<linearGradient id="paint0_linear_167_3208" x1="479.874" y1="161.094" x2="636.091" y2="149.535" gradientUnits="userSpaceOnUse">
<stop stop-color="#0058FF"/>
<stop offset="1" stop-color="#F700FE"/>
</linearGradient>
<linearGradient id="paint1_linear_167_3208" x1="222.503" y1="287.053" x2="743.396" y2="577.31" gradientUnits="userSpaceOnUse">
<stop stop-color="#0058FF"/>
<stop offset="0.900311" stop-color="#DE09FE"/>
<stop offset="1" stop-color="#F700FE"/>
</linearGradient>
<linearGradient id="paint2_linear_167_3208" x1="148.257" y1="142.905" x2="264.785" y2="193.659" gradientUnits="userSpaceOnUse">
<stop stop-color="#0058FF"/>
<stop offset="1" stop-color="#F700FE"/>
</linearGradient>
<clipPath id="clip0_167_3208">
<rect width="938.896" height="710" fill="white" transform="translate(0.552246 0.00195312)"/>
</clipPath>
</defs>
</svg>
