<svg width="1920" height="15377" viewBox="0 0 1920 15377" fill="none" xmlns="http://www.w3.org/2000/svg">
<path opacity="0.1" fill-rule="evenodd" clip-rule="evenodd" d="M1501.7 81.987L1274.74 -75.2842C1256.4 -90.4834 1236.9 -103.96 1216.49 -115.643L1211.47 -119.124L1211.45 -118.484C1088.65 -186.518 934.252 -190.314 803.822 -115.017L407.02 114.077C209.187 228.296 141.404 481.263 255.623 679.096L336.769 819.647L362.437 982.096C396.484 1197.58 590.73 1346.77 803.08 1329.96L802.897 1330.26L1255.97 1288.66L1255.48 1288.33C1425.29 1269.28 1573.19 1145.28 1613.05 967.759L1709.73 537.191C1751.21 352.465 1662.03 167.826 1501.7 81.987ZM832.018 997.572C777.149 993.146 718.717 988.432 702.191 958.762C699.729 954.342 696.864 949.282 693.664 943.634C669.37 900.739 625.841 823.882 593.996 735.645C577.33 689.465 533.619 519.79 546.91 489.56C573.725 428.568 870.896 177.059 903.798 152.666C936.7 128.273 970.17 129.975 1078.52 213.364C1165.2 280.076 1338.9 387.518 1414.91 432.901C1428.53 444.246 1447.59 482.707 1414.91 545.789C1374.07 624.64 1279.12 872.315 1270.11 935.367C1261.1 998.42 1192.05 1030.95 1119.49 1019.44C1080.02 1013.18 1055.86 1011.91 1011.43 1009.57C974.181 1007.62 922.681 1004.91 835.957 997.891C834.646 997.784 833.333 997.679 832.018 997.572Z" fill="url(#paint0_linear_167_1529)"/>
<path opacity="0.1" fill-rule="evenodd" clip-rule="evenodd" d="M1483.04 14142.1L1256.08 13984.9C1237.74 13969.7 1218.24 13956.2 1197.83 13944.5L1192.81 13941L1192.79 13941.7C1069.99 13873.6 915.591 13869.8 785.161 13945.1L388.36 14174.2C190.526 14288.4 122.744 14541.4 236.962 14739.2L318.109 14879.8L343.777 15042.2C377.824 15257.7 572.07 15406.9 784.42 15390.1L784.237 15390.4L1237.31 15348.8L1236.82 15348.5C1406.63 15329.4 1554.53 15205.4 1594.39 15027.9L1691.07 14597.3C1732.55 14412.6 1643.37 14228 1483.04 14142.1ZM813.358 15057.7C758.489 15053.3 700.057 15048.6 683.531 15018.9C681.069 15014.5 678.203 15009.4 675.004 15003.8C650.71 14960.9 607.18 14884 575.336 14795.8C558.67 14749.6 514.959 14579.9 528.25 14549.7C555.065 14488.7 852.236 14237.2 885.138 14212.8C918.04 14188.4 951.509 14190.1 1059.86 14273.5C1146.54 14340.2 1320.24 14447.7 1396.25 14493C1409.87 14504.4 1428.93 14542.8 1396.25 14605.9C1355.41 14684.8 1260.46 14932.5 1251.45 14995.5C1242.44 15058.6 1173.39 15091.1 1100.83 15079.6C1061.36 15073.3 1037.2 15072 992.77 15069.7C955.521 15067.8 904.02 15065.1 817.296 15058C815.986 15057.9 814.673 15057.8 813.358 15057.7Z" fill="url(#paint1_linear_167_1529)"/>
<path opacity="0.1" fill-rule="evenodd" clip-rule="evenodd" d="M2137.26 6109.56L2294.53 5882.6C2309.73 5864.26 2323.21 5844.76 2334.89 5824.35L2338.37 5819.33L2337.73 5819.31C2405.77 5696.51 2409.56 5542.11 2334.27 5411.68L2105.17 5014.88C1990.95 4817.05 1737.99 4749.27 1540.15 4863.48L1399.6 4944.63L1237.15 4970.3C1021.67 5004.35 872.476 5198.59 889.291 5410.94L888.988 5410.76L930.586 5863.83L930.923 5863.34C949.969 6033.15 1073.97 6181.05 1251.49 6220.91L1682.06 6317.6C1866.78 6359.08 2051.42 6269.89 2137.26 6109.56ZM1221.68 5439.88C1226.1 5385.01 1230.82 5326.58 1260.49 5310.05C1264.91 5307.59 1269.97 5304.73 1275.62 5301.53C1318.51 5277.23 1395.37 5233.7 1483.6 5201.86C1529.78 5185.19 1699.46 5141.48 1729.69 5154.77C1790.68 5181.59 2042.19 5478.76 2066.58 5511.66C2090.98 5544.56 2089.27 5578.03 2005.88 5686.38C1939.17 5773.06 1831.73 5946.76 1786.35 6022.78C1775 6036.39 1736.54 6055.45 1673.46 6022.78C1594.61 5981.93 1346.93 5886.98 1283.88 5877.97C1220.83 5868.97 1188.3 5799.91 1199.81 5727.35C1206.07 5687.88 1207.34 5663.72 1209.68 5619.29C1211.63 5582.04 1214.34 5530.54 1221.36 5443.82C1221.46 5442.51 1221.57 5441.19 1221.68 5439.88Z" fill="url(#paint2_linear_167_1529)"/>
<path opacity="0.381766" fill-rule="evenodd" clip-rule="evenodd" d="M0.528351 598.338C-199.27 686.264 -286.058 898.918 -255.742 1054.79C-225.425 1210.67 -102.299 1395.21 235.59 1424.63C573.48 1454.05 669.289 1267.81 669.289 1145.99C669.289 1024.17 338.166 1235.46 251.018 1036.94C208.757 940.662 263.23 859.13 330.555 800.683C390.772 748.406 396.58 647.384 322.202 618.627C224.82 580.976 101.454 553.923 0.528351 598.338Z" fill="#1C1A2E"/>
<path opacity="0.143438" fill-rule="evenodd" clip-rule="evenodd" d="M166.125 10822.4L163.941 10825.2L161.758 10822.4L158.941 10820.2L161.758 10818L163.941 10815.2L166.125 10818L168.941 10820.2L166.125 10822.4Z" fill="#979797"/>
<path opacity="0.143438" fill-rule="evenodd" clip-rule="evenodd" d="M543.125 10683.4L540.941 10686.2L538.758 10683.4L535.941 10681.2L538.758 10679L540.941 10676.2L543.125 10679L545.941 10681.2L543.125 10683.4Z" fill="#979797"/>
<path opacity="0.143438" fill-rule="evenodd" clip-rule="evenodd" d="M486.125 10999.4L483.941 11002.2L481.758 10999.4L478.941 10997.2L481.758 10995L483.941 10992.2L486.125 10995L488.941 10997.2L486.125 10999.4Z" fill="#979797"/>
<path opacity="0.0904018" fill-rule="evenodd" clip-rule="evenodd" d="M119.724 10501.7L115.217 10498.2L119.724 10494.7L123.217 10490.2L126.711 10494.7L131.217 10498.2L126.711 10501.7L123.217 10506.2L119.724 10501.7Z" fill="#979797"/>
<path opacity="0.0904018" fill-rule="evenodd" clip-rule="evenodd" d="M326.724 10641.7L322.218 10638.2L326.724 10634.7L330.218 10630.2L333.711 10634.7L338.218 10638.2L333.711 10641.7L330.218 10646.2L326.724 10641.7Z" fill="#979797"/>
<path opacity="0.0904018" fill-rule="evenodd" clip-rule="evenodd" d="M269.724 10957.7L265.218 10954.2L269.724 10950.7L273.218 10946.2L276.711 10950.7L281.218 10954.2L276.711 10957.7L273.218 10962.2L269.724 10957.7Z" fill="#979797"/>
<path opacity="0.0904018" fill-rule="evenodd" clip-rule="evenodd" d="M49.7236 11050.7L45.2173 11047.2L49.7236 11043.7L53.2173 11039.2L56.711 11043.7L61.2173 11047.2L56.711 11050.7L53.2173 11055.2L49.7236 11050.7Z" fill="#979797"/>
<path fill-rule="evenodd" clip-rule="evenodd" d="M350.724 10757.7L346.218 10754.2L350.724 10750.7L354.218 10746.2L357.711 10750.7L362.218 10754.2L357.711 10757.7L354.218 10762.2L350.724 10757.7Z" fill="#979797"/>
<path fill-rule="evenodd" clip-rule="evenodd" d="M293.724 11073.7L289.218 11070.2L293.724 11066.7L297.218 11062.2L300.711 11066.7L305.218 11070.2L300.711 11073.7L297.218 11078.2L293.724 11073.7Z" fill="#979797"/>
<path fill-rule="evenodd" clip-rule="evenodd" d="M148.724 10653.7L144.217 10650.2L148.724 10646.7L152.217 10642.2L155.711 10646.7L160.217 10650.2L155.711 10653.7L152.217 10658.2L148.724 10653.7Z" fill="#F700FE"/>
<path fill-rule="evenodd" clip-rule="evenodd" d="M525.724 10514.7L521.218 10511.2L525.724 10507.7L529.218 10503.2L532.711 10507.7L537.218 10511.2L532.711 10514.7L529.218 10519.2L525.724 10514.7Z" fill="#F700FE"/>
<path fill-rule="evenodd" clip-rule="evenodd" d="M468.724 10830.7L464.218 10827.2L468.724 10823.7L472.218 10819.2L475.711 10823.7L480.218 10827.2L475.711 10830.7L472.218 10835.2L468.724 10830.7Z" fill="#979797"/>
<path opacity="0.143438" fill-rule="evenodd" clip-rule="evenodd" d="M1450.12 11417.4L1447.94 11420.2L1445.76 11417.4L1442.94 11415.2L1445.76 11413L1447.94 11410.2L1450.12 11413L1452.94 11415.2L1450.12 11417.4Z" fill="#979797"/>
<path opacity="0.143438" fill-rule="evenodd" clip-rule="evenodd" d="M1827.12 11278.4L1824.94 11281.2L1822.76 11278.4L1819.94 11276.2L1822.76 11274L1824.94 11271.2L1827.12 11274L1829.94 11276.2L1827.12 11278.4Z" fill="#979797"/>
<path opacity="0.143438" fill-rule="evenodd" clip-rule="evenodd" d="M1770.12 11594.4L1767.94 11597.2L1765.76 11594.4L1762.94 11592.2L1765.76 11590L1767.94 11587.2L1770.12 11590L1772.94 11592.2L1770.12 11594.4Z" fill="#2FFD61"/>
<path opacity="0.0904018" fill-rule="evenodd" clip-rule="evenodd" d="M1233.72 11375.7L1229.22 11372.2L1233.72 11368.7L1237.22 11364.2L1240.71 11368.7L1245.22 11372.2L1240.71 11375.7L1237.22 11380.2L1233.72 11375.7Z" fill="#979797"/>
<path opacity="0.0904018" fill-rule="evenodd" clip-rule="evenodd" d="M1403.72 11096.7L1399.22 11093.2L1403.72 11089.7L1407.22 11085.2L1410.71 11089.7L1415.22 11093.2L1410.71 11096.7L1407.22 11101.2L1403.72 11096.7Z" fill="#979797"/>
<path opacity="0.0904018" fill-rule="evenodd" clip-rule="evenodd" d="M1610.72 11236.7L1606.22 11233.2L1610.72 11229.7L1614.22 11225.2L1617.71 11229.7L1622.22 11233.2L1617.71 11236.7L1614.22 11241.2L1610.72 11236.7Z" fill="#979797"/>
<path opacity="0.0904018" fill-rule="evenodd" clip-rule="evenodd" d="M1553.72 11552.7L1549.22 11549.2L1553.72 11545.7L1557.22 11541.2L1560.71 11545.7L1565.22 11549.2L1560.71 11552.7L1557.22 11557.2L1553.72 11552.7Z" fill="#979797"/>
<path opacity="0.0904018" fill-rule="evenodd" clip-rule="evenodd" d="M1333.72 11645.7L1329.22 11642.2L1333.72 11638.7L1337.22 11634.2L1340.71 11638.7L1345.22 11642.2L1340.71 11645.7L1337.22 11650.2L1333.72 11645.7Z" fill="#979797"/>
<path fill-rule="evenodd" clip-rule="evenodd" d="M1257.72 11491.7L1253.22 11488.2L1257.72 11484.7L1261.22 11480.2L1264.71 11484.7L1269.22 11488.2L1264.71 11491.7L1261.22 11496.2L1257.72 11491.7Z" fill="#979797"/>
<path fill-rule="evenodd" clip-rule="evenodd" d="M1634.72 11352.7L1630.22 11349.2L1634.72 11345.7L1638.22 11341.2L1641.71 11345.7L1646.22 11349.2L1641.71 11352.7L1638.22 11357.2L1634.72 11352.7Z" fill="#979797"/>
<path fill-rule="evenodd" clip-rule="evenodd" d="M1577.72 11668.7L1573.22 11665.2L1577.72 11661.7L1581.22 11657.2L1584.71 11661.7L1589.22 11665.2L1584.71 11668.7L1581.22 11673.2L1577.72 11668.7Z" fill="#979797"/>
<path fill-rule="evenodd" clip-rule="evenodd" d="M1163.72 12001.7L1159.22 11998.2L1163.72 11994.7L1167.22 11990.2L1170.71 11994.7L1175.22 11998.2L1170.71 12001.7L1167.22 12006.2L1163.72 12001.7Z" fill="#979797"/>
<path fill-rule="evenodd" clip-rule="evenodd" d="M460.724 11874.7L456.218 11871.2L460.724 11867.7L464.218 11863.2L467.711 11867.7L472.218 11871.2L467.711 11874.7L464.218 11879.2L460.724 11874.7Z" fill="#979797"/>
<path fill-rule="evenodd" clip-rule="evenodd" d="M1432.72 11248.7L1428.22 11245.2L1432.72 11241.7L1436.22 11237.2L1439.71 11241.7L1444.22 11245.2L1439.71 11248.7L1436.22 11253.2L1432.72 11248.7Z" fill="#979797"/>
<path fill-rule="evenodd" clip-rule="evenodd" d="M1809.72 11109.7L1805.22 11106.2L1809.72 11102.7L1813.22 11098.2L1816.71 11102.7L1821.22 11106.2L1816.71 11109.7L1813.22 11114.2L1809.72 11109.7Z" fill="#979797"/>
<path fill-rule="evenodd" clip-rule="evenodd" d="M1752.72 11425.7L1748.22 11422.2L1752.72 11418.7L1756.22 11414.2L1759.71 11418.7L1764.22 11422.2L1759.71 11425.7L1756.22 11430.2L1752.72 11425.7Z" fill="#979797"/>
<path opacity="0.143438" fill-rule="evenodd" clip-rule="evenodd" d="M428.476 12268.9L431.292 12271.1L428.476 12273.3L426.292 12276.1L424.109 12273.3L421.292 12271.1L424.109 12268.9L426.292 12266.1L428.476 12268.9Z" fill="#210080"/>
<path opacity="0.143438" fill-rule="evenodd" clip-rule="evenodd" d="M289.476 11891.9L292.292 11894.1L289.476 11896.3L287.292 11899.1L285.109 11896.3L282.292 11894.1L285.109 11891.9L287.292 11889.1L289.476 11891.9Z" fill="#210080"/>
<path opacity="0.143438" fill-rule="evenodd" clip-rule="evenodd" d="M605.476 11948.9L608.292 11951.1L605.476 11953.3L603.292 11956.1L601.109 11953.3L598.292 11951.1L601.109 11948.9L603.292 11946.1L605.476 11948.9Z" fill="#210080"/>
<path opacity="0.0904018" fill-rule="evenodd" clip-rule="evenodd" d="M386.807 12485.3L383.314 12489.8L379.82 12485.3L375.314 12481.8L379.82 12478.3L383.314 12473.8L386.807 12478.3L391.314 12481.8L386.807 12485.3Z" fill="#210080"/>
<path opacity="0.0904018" fill-rule="evenodd" clip-rule="evenodd" d="M107.807 12315.3L104.314 12319.8L100.82 12315.3L96.3137 12311.8L100.82 12308.3L104.314 12303.8L107.807 12308.3L112.314 12311.8L107.807 12315.3Z" fill="#210080"/>
<path opacity="0.0904018" fill-rule="evenodd" clip-rule="evenodd" d="M247.807 12108.3L244.314 12112.8L240.82 12108.3L236.314 12104.8L240.82 12101.3L244.314 12096.8L247.807 12101.3L252.314 12104.8L247.807 12108.3Z" fill="#210080"/>
<path opacity="0.0904018" fill-rule="evenodd" clip-rule="evenodd" d="M563.807 12165.3L560.314 12169.8L556.82 12165.3L552.314 12161.8L556.82 12158.3L560.314 12153.8L563.807 12158.3L568.314 12161.8L563.807 12165.3Z" fill="#210080"/>
<path opacity="0.0904018" fill-rule="evenodd" clip-rule="evenodd" d="M656.807 12385.3L653.314 12389.8L649.82 12385.3L645.314 12381.8L649.82 12378.3L653.314 12373.8L656.807 12378.3L661.314 12381.8L656.807 12385.3Z" fill="#210080"/>
<path fill-rule="evenodd" clip-rule="evenodd" d="M502.807 12461.3L499.314 12465.8L495.82 12461.3L491.314 12457.8L495.82 12454.3L499.314 12449.8L502.807 12454.3L507.314 12457.8L502.807 12461.3Z" fill="#210080"/>
<path fill-rule="evenodd" clip-rule="evenodd" d="M363.807 12084.3L360.314 12088.8L356.82 12084.3L352.314 12080.8L356.82 12077.3L360.314 12072.8L363.807 12077.3L368.314 12080.8L363.807 12084.3Z" fill="#210080"/>
<path fill-rule="evenodd" clip-rule="evenodd" d="M679.807 12141.3L676.314 12145.8L672.82 12141.3L668.314 12137.8L672.82 12134.3L676.314 12129.8L679.807 12134.3L684.314 12137.8L679.807 12141.3Z" fill="#210080"/>
<path fill-rule="evenodd" clip-rule="evenodd" d="M259.807 12286.3L256.314 12290.8L252.82 12286.3L248.314 12282.8L252.82 12279.3L256.314 12274.8L259.807 12279.3L264.314 12282.8L259.807 12286.3Z" fill="#210080"/>
<path fill-rule="evenodd" clip-rule="evenodd" d="M120.807 11909.3L117.314 11913.8L113.82 11909.3L109.314 11905.8L113.82 11902.3L117.314 11897.8L120.807 11902.3L125.314 11905.8L120.807 11909.3Z" fill="#210080"/>
<path fill-rule="evenodd" clip-rule="evenodd" d="M436.807 11966.3L433.314 11970.8L429.82 11966.3L425.314 11962.8L429.82 11959.3L433.314 11954.8L436.807 11959.3L441.314 11962.8L436.807 11966.3Z" fill="#210080"/>
<g opacity="0.156157">
<path opacity="0.143438" fill-rule="evenodd" clip-rule="evenodd" d="M158.902 12948.1L156.923 12950.6L154.945 12948.1L152.393 12946.1L154.945 12944.1L156.923 12941.6L158.902 12944.1L161.454 12946.1L158.902 12948.1Z" fill="#210080"/>
<path opacity="0.143438" fill-rule="evenodd" clip-rule="evenodd" d="M400.46 12859L398.481 12861.6L396.503 12859L393.951 12857L396.503 12855L398.481 12852.5L400.46 12855L403.012 12857L400.46 12859Z" fill="#210080"/>
<path opacity="0.143438" fill-rule="evenodd" clip-rule="evenodd" d="M363.938 13061.5L361.959 13064L359.981 13061.5L357.429 13059.5L359.981 13057.5L361.959 13055L363.938 13057.5L366.49 13059.5L363.938 13061.5Z" fill="#210080"/>
<path opacity="0.0904018" fill-rule="evenodd" clip-rule="evenodd" d="M18.739 12921.7L14.6557 12918.5L18.739 12915.4L21.9048 12911.3L25.0706 12915.4L29.1539 12918.5L25.0706 12921.7L21.9048 12925.8L18.739 12921.7Z" fill="#210080"/>
<path opacity="0.0904018" fill-rule="evenodd" clip-rule="evenodd" d="M127.664 12742.9L123.581 12739.8L127.664 12736.6L130.83 12732.5L133.996 12736.6L138.079 12739.8L133.996 12742.9L130.83 12747L127.664 12742.9Z" fill="#210080"/>
<path opacity="0.0904018" fill-rule="evenodd" clip-rule="evenodd" d="M260.297 12832.6L256.214 12829.5L260.297 12826.3L263.463 12822.2L266.629 12826.3L270.712 12829.5L266.629 12832.6L263.463 12836.7L260.297 12832.6Z" fill="#210080"/>
<path opacity="0.0904018" fill-rule="evenodd" clip-rule="evenodd" d="M223.775 13035.1L219.692 13032L223.775 13028.8L226.941 13024.7L230.107 13028.8L234.19 13032L230.107 13035.1L226.941 13039.2L223.775 13035.1Z" fill="#210080"/>
<path opacity="0.0904018" fill-rule="evenodd" clip-rule="evenodd" d="M82.8127 13094.7L78.7294 13091.5L82.8127 13088.4L85.9785 13084.3L89.1443 13088.4L93.2276 13091.5L89.1443 13094.7L85.9785 13098.8L82.8127 13094.7Z" fill="#210080"/>
<path fill-rule="evenodd" clip-rule="evenodd" d="M34.1169 12996L30.0336 12992.9L34.1169 12989.7L37.2827 12985.6L40.4485 12989.7L44.5318 12992.9L40.4485 12996L37.2827 13000.1L34.1169 12996Z" fill="#210080"/>
<path fill-rule="evenodd" clip-rule="evenodd" d="M275.675 12907L271.591 12903.8L275.675 12900.6L278.84 12896.6L282.006 12900.6L286.089 12903.8L282.006 12907L278.84 12911.1L275.675 12907Z" fill="#210080"/>
<path fill-rule="evenodd" clip-rule="evenodd" d="M239.153 13109.4L235.069 13106.3L239.153 13103.1L242.318 13099L245.484 13103.1L249.567 13106.3L245.484 13109.4L242.318 13113.5L239.153 13109.4Z" fill="#210080"/>
<path fill-rule="evenodd" clip-rule="evenodd" d="M146.246 12840.3L142.163 12837.2L146.246 12834L149.412 12829.9L152.577 12834L156.661 12837.2L152.577 12840.3L149.412 12844.4L146.246 12840.3Z" fill="#210080"/>
<path fill-rule="evenodd" clip-rule="evenodd" d="M387.804 12751.3L383.721 12748.1L387.804 12744.9L390.97 12740.9L394.136 12744.9L398.219 12748.1L394.136 12751.3L390.97 12755.4L387.804 12751.3Z" fill="#210080"/>
<path fill-rule="evenodd" clip-rule="evenodd" d="M351.282 12953.7L347.199 12950.6L351.282 12947.4L354.448 12943.3L357.614 12947.4L361.697 12950.6L357.614 12953.7L354.448 12957.8L351.282 12953.7Z" fill="#210080"/>
</g>
<g opacity="0.156157">
<path opacity="0.143438" fill-rule="evenodd" clip-rule="evenodd" d="M1343.9 12952.1L1341.92 12954.6L1339.95 12952.1L1337.39 12950.1L1339.95 12948.1L1341.92 12945.6L1343.9 12948.1L1346.45 12950.1L1343.9 12952.1Z" fill="#979797"/>
<path opacity="0.143438" fill-rule="evenodd" clip-rule="evenodd" d="M1585.46 12863L1583.48 12865.6L1581.5 12863L1578.95 12861L1581.5 12859L1583.48 12856.5L1585.46 12859L1588.01 12861L1585.46 12863Z" fill="#979797"/>
<path opacity="0.143438" fill-rule="evenodd" clip-rule="evenodd" d="M1548.94 13065.5L1546.96 13068L1544.98 13065.5L1542.43 13063.5L1544.98 13061.5L1546.96 13059L1548.94 13061.5L1551.49 13063.5L1548.94 13065.5Z" fill="#979797"/>
<path opacity="0.0904018" fill-rule="evenodd" clip-rule="evenodd" d="M1203.74 12925.7L1199.66 12922.5L1203.74 12919.4L1206.91 12915.3L1210.07 12919.4L1214.15 12922.5L1210.07 12925.7L1206.91 12929.8L1203.74 12925.7Z" fill="#979797"/>
<path opacity="0.0904018" fill-rule="evenodd" clip-rule="evenodd" d="M1312.67 12746.9L1308.58 12743.8L1312.67 12740.6L1315.83 12736.5L1319 12740.6L1323.08 12743.8L1319 12746.9L1315.83 12751L1312.67 12746.9Z" fill="#979797"/>
<path opacity="0.0904018" fill-rule="evenodd" clip-rule="evenodd" d="M1445.3 12836.6L1441.21 12833.5L1445.3 12830.3L1448.46 12826.2L1451.63 12830.3L1455.71 12833.5L1451.63 12836.6L1448.46 12840.7L1445.3 12836.6Z" fill="#979797"/>
<path opacity="0.0904018" fill-rule="evenodd" clip-rule="evenodd" d="M1408.78 13039.1L1404.69 13036L1408.78 13032.8L1411.94 13028.7L1415.11 13032.8L1419.19 13036L1415.11 13039.1L1411.94 13043.2L1408.78 13039.1Z" fill="#979797"/>
<path opacity="0.0904018" fill-rule="evenodd" clip-rule="evenodd" d="M1267.81 13098.7L1263.73 13095.5L1267.81 13092.4L1270.98 13088.3L1274.14 13092.4L1278.23 13095.5L1274.14 13098.7L1270.98 13102.8L1267.81 13098.7Z" fill="#979797"/>
<path fill-rule="evenodd" clip-rule="evenodd" d="M1219.12 13000L1215.03 12996.9L1219.12 12993.7L1222.28 12989.6L1225.45 12993.7L1229.53 12996.9L1225.45 13000L1222.28 13004.1L1219.12 13000Z" fill="#979797"/>
<path fill-rule="evenodd" clip-rule="evenodd" d="M1460.68 12911L1456.59 12907.8L1460.68 12904.6L1463.84 12900.6L1467.01 12904.6L1471.09 12907.8L1467.01 12911L1463.84 12915.1L1460.68 12911Z" fill="#979797"/>
<path fill-rule="evenodd" clip-rule="evenodd" d="M1424.15 13113.4L1420.07 13110.3L1424.15 13107.1L1427.32 13103L1430.48 13107.1L1434.57 13110.3L1430.48 13113.4L1427.32 13117.5L1424.15 13113.4Z" fill="#979797"/>
<path fill-rule="evenodd" clip-rule="evenodd" d="M1331.25 12844.3L1327.16 12841.2L1331.25 12838L1334.41 12833.9L1337.58 12838L1341.66 12841.2L1337.58 12844.3L1334.41 12848.4L1331.25 12844.3Z" fill="#979797"/>
<path fill-rule="evenodd" clip-rule="evenodd" d="M1572.8 12755.3L1568.72 12752.1L1572.8 12748.9L1575.97 12744.9L1579.14 12748.9L1583.22 12752.1L1579.14 12755.3L1575.97 12759.4L1572.8 12755.3Z" fill="#979797"/>
<path fill-rule="evenodd" clip-rule="evenodd" d="M1536.28 12957.7L1532.2 12954.6L1536.28 12951.4L1539.45 12947.3L1542.61 12951.4L1546.7 12954.6L1542.61 12957.7L1539.45 12961.8L1536.28 12957.7Z" fill="#979797"/>
</g>
<g opacity="0.156157">
<path opacity="0.143438" fill-rule="evenodd" clip-rule="evenodd" d="M1633.9 13451.1L1631.92 13453.6L1629.95 13451.1L1627.39 13449.1L1629.95 13447.1L1631.92 13444.6L1633.9 13447.1L1636.45 13449.1L1633.9 13451.1Z" fill="#F700FE"/>
<path opacity="0.143438" fill-rule="evenodd" clip-rule="evenodd" d="M1875.46 13362L1873.48 13364.6L1871.5 13362L1868.95 13360L1871.5 13358L1873.48 13355.5L1875.46 13358L1878.01 13360L1875.46 13362Z" fill="#F700FE"/>
<path opacity="0.143438" fill-rule="evenodd" clip-rule="evenodd" d="M1838.94 13564.5L1836.96 13567L1834.98 13564.5L1832.43 13562.5L1834.98 13560.5L1836.96 13558L1838.94 13560.5L1841.49 13562.5L1838.94 13564.5Z" fill="#F700FE"/>
<path opacity="0.0904018" fill-rule="evenodd" clip-rule="evenodd" d="M1493.74 13424.7L1489.66 13421.5L1493.74 13418.4L1496.91 13414.3L1500.07 13418.4L1504.15 13421.5L1500.07 13424.7L1496.91 13428.8L1493.74 13424.7Z" fill="#F700FE"/>
<path opacity="0.0904018" fill-rule="evenodd" clip-rule="evenodd" d="M1602.67 13245.9L1598.58 13242.8L1602.67 13239.6L1605.83 13235.5L1609 13239.6L1613.08 13242.8L1609 13245.9L1605.83 13250L1602.67 13245.9Z" fill="#F700FE"/>
<path opacity="0.0904018" fill-rule="evenodd" clip-rule="evenodd" d="M1735.3 13335.6L1731.21 13332.5L1735.3 13329.3L1738.46 13325.2L1741.63 13329.3L1745.71 13332.5L1741.63 13335.6L1738.46 13339.7L1735.3 13335.6Z" fill="#F700FE"/>
<path opacity="0.0904018" fill-rule="evenodd" clip-rule="evenodd" d="M1698.78 13538.1L1694.69 13535L1698.78 13531.8L1701.94 13527.7L1705.11 13531.8L1709.19 13535L1705.11 13538.1L1701.94 13542.2L1698.78 13538.1Z" fill="#F700FE"/>
<path opacity="0.0904018" fill-rule="evenodd" clip-rule="evenodd" d="M1557.81 13597.7L1553.73 13594.5L1557.81 13591.4L1560.98 13587.3L1564.14 13591.4L1568.23 13594.5L1564.14 13597.7L1560.98 13601.8L1557.81 13597.7Z" fill="#F700FE"/>
<path fill-rule="evenodd" clip-rule="evenodd" d="M1509.12 13499L1505.03 13495.9L1509.12 13492.7L1512.28 13488.6L1515.45 13492.7L1519.53 13495.9L1515.45 13499L1512.28 13503.1L1509.12 13499Z" fill="#F700FE"/>
<path fill-rule="evenodd" clip-rule="evenodd" d="M1750.68 13410L1746.59 13406.8L1750.68 13403.6L1753.84 13399.6L1757.01 13403.6L1761.09 13406.8L1757.01 13410L1753.84 13414.1L1750.68 13410Z" fill="#F700FE"/>
<path fill-rule="evenodd" clip-rule="evenodd" d="M1714.15 13612.4L1710.07 13609.3L1714.15 13606.1L1717.32 13602L1720.48 13606.1L1724.57 13609.3L1720.48 13612.4L1717.32 13616.5L1714.15 13612.4Z" fill="#F700FE"/>
<path fill-rule="evenodd" clip-rule="evenodd" d="M1621.25 13343.3L1617.16 13340.2L1621.25 13337L1624.41 13332.9L1627.58 13337L1631.66 13340.2L1627.58 13343.3L1624.41 13347.4L1621.25 13343.3Z" fill="#F700FE"/>
<path fill-rule="evenodd" clip-rule="evenodd" d="M1862.8 13254.3L1858.72 13251.1L1862.8 13247.9L1865.97 13243.9L1869.14 13247.9L1873.22 13251.1L1869.14 13254.3L1865.97 13258.4L1862.8 13254.3Z" fill="#F700FE"/>
<path fill-rule="evenodd" clip-rule="evenodd" d="M1826.28 13456.7L1822.2 13453.6L1826.28 13450.4L1829.45 13446.3L1832.61 13450.4L1836.7 13453.6L1832.61 13456.7L1829.45 13460.8L1826.28 13456.7Z" fill="#F700FE"/>
</g>
<path opacity="0.143438" fill-rule="evenodd" clip-rule="evenodd" d="M1477.22 12521.5L1475.04 12524.3L1472.85 12521.5L1470.04 12519.3L1472.85 12517.1L1475.04 12514.3L1477.22 12517.1L1480.04 12519.3L1477.22 12521.5Z" fill="#979797"/>
<path opacity="0.143438" fill-rule="evenodd" clip-rule="evenodd" d="M1854.22 12382.5L1852.04 12385.3L1849.85 12382.5L1847.04 12380.3L1849.85 12378.1L1852.04 12375.3L1854.22 12378.1L1857.04 12380.3L1854.22 12382.5Z" fill="#979797"/>
<path opacity="0.143438" fill-rule="evenodd" clip-rule="evenodd" d="M1797.22 12698.5L1795.04 12701.3L1792.85 12698.5L1790.04 12696.3L1792.85 12694.1L1795.04 12691.3L1797.22 12694.1L1800.04 12696.3L1797.22 12698.5Z" fill="#979797"/>
<path opacity="0.0904018" fill-rule="evenodd" clip-rule="evenodd" d="M1260.82 12479.8L1256.31 12476.3L1260.82 12472.8L1264.31 12468.3L1267.81 12472.8L1272.31 12476.3L1267.81 12479.8L1264.31 12484.3L1260.82 12479.8Z" fill="#979797"/>
<path opacity="0.0904018" fill-rule="evenodd" clip-rule="evenodd" d="M1430.82 12200.8L1426.31 12197.3L1430.82 12193.8L1434.31 12189.3L1437.81 12193.8L1442.31 12197.3L1437.81 12200.8L1434.31 12205.3L1430.82 12200.8Z" fill="#979797"/>
<path opacity="0.0904018" fill-rule="evenodd" clip-rule="evenodd" d="M1637.82 12340.8L1633.31 12337.3L1637.82 12333.8L1641.31 12329.3L1644.81 12333.8L1649.31 12337.3L1644.81 12340.8L1641.31 12345.3L1637.82 12340.8Z" fill="#979797"/>
<path opacity="0.0904018" fill-rule="evenodd" clip-rule="evenodd" d="M1580.82 12656.8L1576.31 12653.3L1580.82 12649.8L1584.31 12645.3L1587.81 12649.8L1592.31 12653.3L1587.81 12656.8L1584.31 12661.3L1580.82 12656.8Z" fill="#979797"/>
<path opacity="0.0904018" fill-rule="evenodd" clip-rule="evenodd" d="M1360.82 12749.8L1356.31 12746.3L1360.82 12742.8L1364.31 12738.3L1367.81 12742.8L1372.31 12746.3L1367.81 12749.8L1364.31 12754.3L1360.82 12749.8Z" fill="#979797"/>
<path opacity="0.0904018" fill-rule="evenodd" clip-rule="evenodd" d="M944.82 11812.8L940.314 11809.3L944.82 11805.8L948.314 11801.3L951.807 11805.8L956.314 11809.3L951.807 11812.8L948.314 11817.3L944.82 11812.8Z" fill="#979797"/>
<path opacity="0.0904018" fill-rule="evenodd" clip-rule="evenodd" d="M209.82 11922.8L205.313 11919.3L209.82 11915.8L213.313 11911.3L216.807 11915.8L221.313 11919.3L216.807 11922.8L213.313 11927.3L209.82 11922.8Z" fill="#979797"/>
<path fill-rule="evenodd" clip-rule="evenodd" d="M1661.82 12456.8L1657.31 12453.3L1661.82 12449.8L1665.31 12445.3L1668.81 12449.8L1673.31 12453.3L1668.81 12456.8L1665.31 12461.3L1661.82 12456.8Z" fill="#979797"/>
<path fill-rule="evenodd" clip-rule="evenodd" d="M1604.82 12772.8L1600.31 12769.3L1604.82 12765.8L1608.31 12761.3L1611.81 12765.8L1616.31 12769.3L1611.81 12772.8L1608.31 12777.3L1604.82 12772.8Z" fill="#979797"/>
<path fill-rule="evenodd" clip-rule="evenodd" d="M1459.82 12352.8L1455.31 12349.3L1459.82 12345.8L1463.31 12341.3L1466.81 12345.8L1471.31 12349.3L1466.81 12352.8L1463.31 12357.3L1459.82 12352.8Z" fill="#979797"/>
<path fill-rule="evenodd" clip-rule="evenodd" d="M1836.82 12213.8L1832.31 12210.3L1836.82 12206.8L1840.31 12202.3L1843.81 12206.8L1848.31 12210.3L1843.81 12213.8L1840.31 12218.3L1836.82 12213.8Z" fill="#979797"/>
<path fill-rule="evenodd" clip-rule="evenodd" d="M1779.82 12529.8L1775.31 12526.3L1779.82 12522.8L1783.31 12518.3L1786.81 12522.8L1791.31 12526.3L1786.81 12529.8L1783.31 12534.3L1779.82 12529.8Z" fill="#979797"/>
<path fill-rule="evenodd" clip-rule="evenodd" d="M1401.82 11872.8L1397.31 11869.3L1401.82 11865.8L1405.31 11861.3L1408.81 11865.8L1413.31 11869.3L1408.81 11872.8L1405.31 11877.3L1401.82 11872.8Z" fill="#979797"/>
<path opacity="0.143438" fill-rule="evenodd" clip-rule="evenodd" d="M1450.12 10782.4L1447.94 10785.2L1445.76 10782.4L1442.94 10780.2L1445.76 10778L1447.94 10775.2L1450.12 10778L1452.94 10780.2L1450.12 10782.4Z" fill="#F700FE"/>
<path opacity="0.143438" fill-rule="evenodd" clip-rule="evenodd" d="M1827.12 10643.4L1824.94 10646.2L1822.76 10643.4L1819.94 10641.2L1822.76 10639L1824.94 10636.2L1827.12 10639L1829.94 10641.2L1827.12 10643.4Z" fill="#F700FE"/>
<path opacity="0.143438" fill-rule="evenodd" clip-rule="evenodd" d="M1770.12 10959.4L1767.94 10962.2L1765.76 10959.4L1762.94 10957.2L1765.76 10955L1767.94 10952.2L1770.12 10955L1772.94 10957.2L1770.12 10959.4Z" fill="#F700FE"/>
<path opacity="0.0904018" fill-rule="evenodd" clip-rule="evenodd" d="M1233.72 10740.7L1229.22 10737.2L1233.72 10733.7L1237.22 10729.2L1240.71 10733.7L1245.22 10737.2L1240.71 10740.7L1237.22 10745.2L1233.72 10740.7Z" fill="#F700FE"/>
<path opacity="0.0904018" fill-rule="evenodd" clip-rule="evenodd" d="M1403.72 10461.7L1399.22 10458.2L1403.72 10454.7L1407.22 10450.2L1410.71 10454.7L1415.22 10458.2L1410.71 10461.7L1407.22 10466.2L1403.72 10461.7Z" fill="#F700FE"/>
<path opacity="0.0904018" fill-rule="evenodd" clip-rule="evenodd" d="M1610.72 10601.7L1606.22 10598.2L1610.72 10594.7L1614.22 10590.2L1617.71 10594.7L1622.22 10598.2L1617.71 10601.7L1614.22 10606.2L1610.72 10601.7Z" fill="#F700FE"/>
<path opacity="0.0904018" fill-rule="evenodd" clip-rule="evenodd" d="M1553.72 10917.7L1549.22 10914.2L1553.72 10910.7L1557.22 10906.2L1560.71 10910.7L1565.22 10914.2L1560.71 10917.7L1557.22 10922.2L1553.72 10917.7Z" fill="#F700FE"/>
<path opacity="0.0904018" fill-rule="evenodd" clip-rule="evenodd" d="M1333.72 11010.7L1329.22 11007.2L1333.72 11003.7L1337.22 10999.2L1340.71 11003.7L1345.22 11007.2L1340.71 11010.7L1337.22 11015.2L1333.72 11010.7Z" fill="#F700FE"/>
<path fill-rule="evenodd" clip-rule="evenodd" d="M1257.72 10856.7L1253.22 10853.2L1257.72 10849.7L1261.22 10845.2L1264.71 10849.7L1269.22 10853.2L1264.71 10856.7L1261.22 10861.2L1257.72 10856.7Z" fill="#F700FE"/>
<path fill-rule="evenodd" clip-rule="evenodd" d="M1634.72 10717.7L1630.22 10714.2L1634.72 10710.7L1638.22 10706.2L1641.71 10710.7L1646.22 10714.2L1641.71 10717.7L1638.22 10722.2L1634.72 10717.7Z" fill="#2FFD61"/>
<path fill-rule="evenodd" clip-rule="evenodd" d="M1681.82 11033.7L1677.31 11030.2L1681.82 11026.7L1685.31 11022.2L1688.81 11026.7L1693.31 11030.2L1688.81 11033.7L1685.31 11038.2L1681.82 11033.7Z" fill="#0058FF"/>
<path fill-rule="evenodd" clip-rule="evenodd" d="M1432.72 10613.7L1428.22 10610.2L1432.72 10606.7L1436.22 10602.2L1439.71 10606.7L1444.22 10610.2L1439.71 10613.7L1436.22 10618.2L1432.72 10613.7Z" fill="#0058FF"/>
<path fill-rule="evenodd" clip-rule="evenodd" d="M1809.72 10474.7L1805.22 10471.2L1809.72 10467.7L1813.22 10463.2L1816.71 10467.7L1821.22 10471.2L1816.71 10474.7L1813.22 10479.2L1809.72 10474.7Z" fill="#F700FE"/>
<path fill-rule="evenodd" clip-rule="evenodd" d="M1752.72 10790.7L1748.22 10787.2L1752.72 10783.7L1756.22 10779.2L1759.71 10783.7L1764.22 10787.2L1759.71 10790.7L1756.22 10795.2L1752.72 10790.7Z" fill="#979797"/>
<g opacity="0.392787">
<path opacity="0.143438" fill-rule="evenodd" clip-rule="evenodd" d="M275.125 13918.4L272.941 13921.2L270.758 13918.4L267.941 13916.2L270.758 13914L272.941 13911.2L275.125 13914L277.941 13916.2L275.125 13918.4Z" fill="#F700FE"/>
<path opacity="0.143438" fill-rule="evenodd" clip-rule="evenodd" d="M652.125 13779.4L649.941 13782.2L647.758 13779.4L644.941 13777.2L647.758 13775L649.941 13772.2L652.125 13775L654.941 13777.2L652.125 13779.4Z" fill="#F700FE"/>
<path opacity="0.143438" fill-rule="evenodd" clip-rule="evenodd" d="M595.125 14095.4L592.941 14098.2L590.758 14095.4L587.941 14093.2L590.758 14091L592.941 14088.2L595.125 14091L597.941 14093.2L595.125 14095.4Z" fill="#F700FE"/>
<path opacity="0.0904018" fill-rule="evenodd" clip-rule="evenodd" d="M58.7236 13876.7L54.2173 13873.2L58.7236 13869.7L62.2173 13865.2L65.711 13869.7L70.2173 13873.2L65.711 13876.7L62.2173 13881.2L58.7236 13876.7Z" fill="#F700FE"/>
<path opacity="0.0904018" fill-rule="evenodd" clip-rule="evenodd" d="M228.724 13597.7L224.217 13594.2L228.724 13590.7L232.217 13586.2L235.711 13590.7L240.217 13594.2L235.711 13597.7L232.217 13602.2L228.724 13597.7Z" fill="#F700FE"/>
<path opacity="0.0904018" fill-rule="evenodd" clip-rule="evenodd" d="M435.724 13737.7L431.218 13734.2L435.724 13730.7L439.218 13726.2L442.711 13730.7L447.218 13734.2L442.711 13737.7L439.218 13742.2L435.724 13737.7Z" fill="#F700FE"/>
<path opacity="0.0904018" fill-rule="evenodd" clip-rule="evenodd" d="M378.724 14053.7L374.218 14050.2L378.724 14046.7L382.218 14042.2L385.711 14046.7L390.218 14050.2L385.711 14053.7L382.218 14058.2L378.724 14053.7Z" fill="#F700FE"/>
<path opacity="0.0904018" fill-rule="evenodd" clip-rule="evenodd" d="M158.724 14146.7L154.217 14143.2L158.724 14139.7L162.217 14135.2L165.711 14139.7L170.217 14143.2L165.711 14146.7L162.217 14151.2L158.724 14146.7Z" fill="#F700FE"/>
<path fill-rule="evenodd" clip-rule="evenodd" d="M82.7236 13992.7L78.2173 13989.2L82.7236 13985.7L86.2173 13981.2L89.711 13985.7L94.2173 13989.2L89.711 13992.7L86.2173 13997.2L82.7236 13992.7Z" fill="#FFEC6A"/>
<path fill-rule="evenodd" clip-rule="evenodd" d="M459.724 13853.7L455.218 13850.2L459.724 13846.7L463.218 13842.2L466.711 13846.7L471.218 13850.2L466.711 13853.7L463.218 13858.2L459.724 13853.7Z" fill="#FFEC6A"/>
<path fill-rule="evenodd" clip-rule="evenodd" d="M325.82 14103.8L321.313 14100.3L325.82 14096.8L329.313 14092.3L332.807 14096.8L337.313 14100.3L332.807 14103.8L329.313 14108.3L325.82 14103.8Z" fill="#F700FE"/>
<path fill-rule="evenodd" clip-rule="evenodd" d="M257.724 13749.7L253.217 13746.2L257.724 13742.7L261.217 13738.2L264.711 13742.7L269.217 13746.2L264.711 13749.7L261.217 13754.2L257.724 13749.7Z" fill="#F700FE"/>
<path fill-rule="evenodd" clip-rule="evenodd" d="M634.724 13610.7L630.218 13607.2L634.724 13603.7L638.218 13599.2L641.711 13603.7L646.218 13607.2L641.711 13610.7L638.218 13615.2L634.724 13610.7Z" fill="#F700FE"/>
<path fill-rule="evenodd" clip-rule="evenodd" d="M577.724 13926.7L573.218 13923.2L577.724 13919.7L581.218 13915.2L584.711 13919.7L589.218 13923.2L584.711 13926.7L581.218 13931.2L577.724 13926.7Z" fill="#FFEC6A"/>
</g>
<path fill-rule="evenodd" clip-rule="evenodd" d="M614.389 14296.2L609.883 14292.7L614.389 14289.2L617.883 14284.7L621.377 14289.2L625.883 14292.7L621.377 14296.2L617.883 14300.7L614.389 14296.2Z" fill="#2FFD61"/>
<path opacity="0.143438" fill-rule="evenodd" clip-rule="evenodd" d="M288.125 11417.4L285.941 11420.2L283.758 11417.4L280.941 11415.2L283.758 11413L285.941 11410.2L288.125 11413L290.941 11415.2L288.125 11417.4Z" fill="#FFEC6A"/>
<path opacity="0.143438" fill-rule="evenodd" clip-rule="evenodd" d="M665.125 11278.4L662.941 11281.2L660.758 11278.4L657.941 11276.2L660.758 11274L662.941 11271.2L665.125 11274L667.941 11276.2L665.125 11278.4Z" fill="#FFEC6A"/>
<path opacity="0.143438" fill-rule="evenodd" clip-rule="evenodd" d="M608.125 11594.4L605.941 11597.2L603.758 11594.4L600.941 11592.2L603.758 11590L605.941 11587.2L608.125 11590L610.941 11592.2L608.125 11594.4Z" fill="#FFEC6A"/>
<path opacity="0.0904018" fill-rule="evenodd" clip-rule="evenodd" d="M71.7236 11375.7L67.2173 11372.2L71.7236 11368.7L75.2173 11364.2L78.711 11368.7L83.2173 11372.2L78.711 11375.7L75.2173 11380.2L71.7236 11375.7Z" fill="#FFEC6A"/>
<path opacity="0.0904018" fill-rule="evenodd" clip-rule="evenodd" d="M241.724 11096.7L237.217 11093.2L241.724 11089.7L245.217 11085.2L248.711 11089.7L253.217 11093.2L248.711 11096.7L245.217 11101.2L241.724 11096.7Z" fill="#FFEC6A"/>
<path opacity="0.0904018" fill-rule="evenodd" clip-rule="evenodd" d="M448.724 11236.7L444.218 11233.2L448.724 11229.7L452.218 11225.2L455.711 11229.7L460.218 11233.2L455.711 11236.7L452.218 11241.2L448.724 11236.7Z" fill="#FFEC6A"/>
<path opacity="0.0904018" fill-rule="evenodd" clip-rule="evenodd" d="M391.724 11552.7L387.218 11549.2L391.724 11545.7L395.218 11541.2L398.711 11545.7L403.218 11549.2L398.711 11552.7L395.218 11557.2L391.724 11552.7Z" fill="#FFEC6A"/>
<path opacity="0.0904018" fill-rule="evenodd" clip-rule="evenodd" d="M171.724 11645.7L167.217 11642.2L171.724 11638.7L175.217 11634.2L178.711 11638.7L183.217 11642.2L178.711 11645.7L175.217 11650.2L171.724 11645.7Z" fill="#FFEC6A"/>
<path fill-rule="evenodd" clip-rule="evenodd" d="M154.506 11377.5L150 11374L154.506 11370.5L158 11366L161.494 11370.5L166 11374L161.494 11377.5L158 11382L154.506 11377.5Z" fill="#FFEC6A"/>
<path fill-rule="evenodd" clip-rule="evenodd" d="M472.724 11352.7L468.218 11349.2L472.724 11345.7L476.218 11341.2L479.711 11345.7L484.218 11349.2L479.711 11352.7L476.218 11357.2L472.724 11352.7Z" fill="#FFEC6A"/>
<path fill-rule="evenodd" clip-rule="evenodd" d="M415.724 11668.7L411.218 11665.2L415.724 11661.7L419.218 11657.2L422.711 11661.7L427.218 11665.2L422.711 11668.7L419.218 11673.2L415.724 11668.7Z" fill="#0058FF"/>
<path fill-rule="evenodd" clip-rule="evenodd" d="M270.724 11248.7L266.217 11245.2L270.724 11241.7L274.217 11237.2L277.711 11241.7L282.217 11245.2L277.711 11248.7L274.217 11253.2L270.724 11248.7Z" fill="#979797"/>
<path fill-rule="evenodd" clip-rule="evenodd" d="M647.724 11109.7L643.218 11106.2L647.724 11102.7L651.218 11098.2L654.711 11102.7L659.218 11106.2L654.711 11109.7L651.218 11114.2L647.724 11109.7Z" fill="#FFEC6A"/>
<path fill-rule="evenodd" clip-rule="evenodd" d="M590.724 11489.8L586.218 11486.3L590.724 11482.8L594.218 11478.3L597.711 11482.8L602.218 11486.3L597.711 11489.8L594.218 11494.3L590.724 11489.8Z" fill="#0058FF"/>
<path opacity="0.143438" fill-rule="evenodd" clip-rule="evenodd" d="M530.125 6975.38L527.941 6978.2L525.758 6975.38L522.941 6973.2L525.758 6971.01L527.941 6968.2L530.125 6971.01L532.941 6973.2L530.125 6975.38Z" fill="#979797"/>
<path fill-rule="evenodd" clip-rule="evenodd" d="M621.959 1946.85L626.466 1950.34L621.959 1953.83L618.466 1958.34L614.972 1953.83L610.466 1950.34L614.972 1946.85L618.466 1942.34L621.959 1946.85Z" fill="#F700FE"/>
<path opacity="0.0608491" fill-rule="evenodd" clip-rule="evenodd" d="M666.954 2047.21L671.46 2050.7L666.954 2054.2L663.46 2058.7L659.966 2054.2L655.46 2050.7L659.966 2047.21L663.46 2042.7L666.954 2047.21Z" fill="#979797"/>
<path opacity="0.0904018" fill-rule="evenodd" clip-rule="evenodd" d="M92.9537 2036.21L97.46 2039.7L92.9537 2043.2L89.46 2047.7L85.9663 2043.2L81.46 2039.7L85.9663 2036.21L89.46 2031.7L92.9537 2036.21Z" fill="#979797"/>
<path opacity="0.143438" fill-rule="evenodd" clip-rule="evenodd" d="M761.644 2176.28L764.46 2178.46L761.644 2180.64L759.46 2183.46L757.277 2180.64L754.46 2178.46L757.277 2176.28L759.46 2173.46L761.644 2176.28Z" fill="#979797"/>
<path opacity="0.361561" fill-rule="evenodd" clip-rule="evenodd" d="M2401.46 617.623C2425.21 400.63 2284.44 219.142 2134.29 167.459C1984.14 115.775 1762.76 130.136 1568.34 408.047C1373.91 685.958 1431.09 922.961 1592.8 922.961C1754.5 922.961 1680.87 591.464 1896.37 615.255C2000.88 626.793 2044.25 714.733 2061.21 802.262C2076.37 880.55 2160.96 936.091 2223.05 886.056C2304.35 820.547 2389.46 727.235 2401.46 617.623Z" fill="#1C1A2E"/>
<circle cx="1846.66" cy="692.625" r="33.3687" fill="#1C1A2E"/>
<mask id="mask0_167_1529" style="mask-type:alpha" maskUnits="userSpaceOnUse" x="1813" y="659" width="68" height="67">
<circle cx="1846.66" cy="692.625" r="33.3687" fill="white"/>
</mask>
<g mask="url(#mask0_167_1529)">
<circle cx="1873.35" cy="682.087" r="38.9887" fill="#2C2855"/>
<circle opacity="0.540783" cx="1836.47" cy="660.661" r="6.32249" fill="#161424"/>
<circle opacity="0.540783" cx="1860.36" cy="721.778" r="6.32249" fill="#161424"/>
<circle opacity="0.540783" cx="1841.04" cy="684.897" r="8.07874" fill="#161424"/>
<circle opacity="0.540783" cx="1833.31" cy="712.295" r="8.07874" fill="#161424"/>
<circle opacity="0.540783" cx="1867.03" cy="684.194" r="8.07874" fill="#161424"/>
<circle opacity="0.540783" cx="1849.47" cy="704.567" r="2.45875" fill="#161424"/>
<circle opacity="0.540783" cx="1864.22" cy="701.054" r="2.45875" fill="#161424"/>
<circle opacity="0.540783" cx="1857.9" cy="672.252" r="2.45875" fill="#161424"/>
<circle opacity="0.540783" cx="1820.67" cy="685.599" r="2.45875" fill="#161424"/>
<circle opacity="0.540783" cx="1871.25" cy="708.782" r="2.45875" fill="#161424"/>
<circle opacity="0.540783" cx="1830.5" cy="694.732" r="3.86374" fill="#161424"/>
<circle opacity="0.540783" cx="1872.65" cy="670.847" r="3.86374" fill="#161424"/>
<circle opacity="0.540783" cx="1852.98" cy="693.327" r="3.86374" fill="#161424"/>
<circle opacity="0.540783" cx="1844.55" cy="725.642" r="3.86374" fill="#161424"/>
<circle opacity="0.540783" cx="1815.75" cy="700.352" r="3.86374" fill="#161424"/>
</g>
<circle cx="171.5" cy="11536.5" r="50.5" fill="#1C1A2F"/>
<mask id="mask1_167_1529" style="mask-type:alpha" maskUnits="userSpaceOnUse" x="121" y="11485" width="101" height="102">
<circle cx="171.5" cy="11536.5" r="50.5" fill="white"/>
</mask>
<g mask="url(#mask1_167_1529)">
<circle cx="217.985" cy="11528" r="59.3745" fill="#26233F"/>
</g>
<path opacity="0.112188" fill-rule="evenodd" clip-rule="evenodd" d="M123.077 11513.3C122.309 11511.6 122.761 11509.5 124.195 11508.2C125.811 11506.8 128.227 11506.7 129.908 11508.1L130.591 11508.6C132.128 11509.9 134.215 11510.2 136.049 11509.5L139.157 11508.2C139.943 11507.9 140.669 11507.5 141.304 11506.9L143.381 11505.1C144.689 11503.9 146.608 11503.8 148.053 11504.8C149.438 11505.7 151.267 11505.6 152.575 11504.6L153.926 11503.5C155.326 11502.4 157.315 11502.5 158.677 11503.6C159.665 11504.4 161.014 11504.7 162.246 11504.3L163.668 11503.9C165.036 11503.4 166.524 11503.6 167.791 11504.2C169.235 11505 170.955 11505.1 172.451 11504.4L173.801 11503.8C175.313 11503.1 176.341 11501.7 176.483 11500L176.553 11499.2C176.694 11497.6 177.951 11496.3 179.582 11496C180.357 11495.9 181.146 11496.1 181.826 11496.5L184.772 11498.1C185.873 11498.8 187.151 11499 188.406 11498.8L190.093 11498.6C191.386 11498.4 192.439 11497.5 192.755 11496.2C193.071 11494.9 194.125 11494 195.418 11493.8L196.813 11493.6C197.78 11493.5 198.766 11493.6 199.661 11494L200.928 11494.5C201.844 11494.9 202.853 11495.1 203.842 11494.9L204.035 11494.9C205.311 11494.7 206.606 11495.1 207.645 11495.8L208.461 11496.4C209.01 11496.8 209.373 11497.4 209.467 11498.1C209.617 11499.2 209.079 11500.2 208.126 11500.7L206.635 11501.5C205.874 11501.9 204.965 11501.9 204.22 11501.4C203.53 11501 202.696 11501 201.967 11501.3L197.531 11503.2L192.56 11504.9C191.67 11505.2 190.71 11505.2 189.813 11504.9C188.907 11504.7 187.937 11504.7 187.041 11505L183.846 11506.1C182.849 11506.4 182.03 11507.1 181.573 11508.1C181.001 11509.3 179.874 11510.1 178.57 11510.3L172.276 11511.2L168.381 11511.7L163.743 11512.4C163.028 11512.5 162.347 11512.7 161.762 11513.2C160.811 11513.9 159.627 11514.1 158.468 11514L156.73 11513.7C156.029 11513.6 155.382 11513.2 154.884 11512.7C153.75 11511.6 151.95 11511.4 150.622 11512.3L147.93 11514.2C147.461 11514.5 146.956 11514.8 146.424 11515L142.828 11516.4C142.028 11516.7 141.196 11516.9 140.346 11517C139.762 11517.1 139.185 11517.3 138.621 11517.4L132.452 11519.3C131.524 11519.6 130.546 11519.7 129.582 11519.6C127.124 11519.3 125.005 11517.7 124.014 11515.5L123.077 11513.3Z" fill="white"/>
<path opacity="0.112188" fill-rule="evenodd" clip-rule="evenodd" d="M218.577 11553.9C219.345 11555.6 218.894 11557.7 217.459 11559C215.843 11560.4 213.427 11560.4 211.747 11559.1L211.063 11558.5C209.527 11557.3 207.44 11557 205.606 11557.7L202.497 11559C201.712 11559.3 200.985 11559.7 200.35 11560.3L198.274 11562.1C196.966 11563.2 195.047 11563.4 193.601 11562.4C192.216 11561.5 190.387 11561.5 189.08 11562.6L187.729 11563.7C186.329 11564.8 184.34 11564.7 182.977 11563.6C181.99 11562.7 180.64 11562.5 179.408 11562.9L177.986 11563.3C176.618 11563.8 175.131 11563.6 173.864 11562.9C172.419 11562.2 170.699 11562.1 169.203 11562.8L167.854 11563.4C166.341 11564.1 165.314 11565.5 165.171 11567.1L165.102 11568C164.96 11569.6 163.703 11570.9 162.072 11571.2C161.297 11571.3 160.508 11571.1 159.829 11570.7L156.883 11569C155.782 11568.4 154.503 11568.2 153.248 11568.3L151.562 11568.6C150.269 11568.8 149.215 11569.7 148.899 11571C148.583 11572.2 147.53 11573.2 146.236 11573.4L144.842 11573.6C143.875 11573.7 142.889 11573.6 141.993 11573.2L140.726 11572.6C139.81 11572.2 138.802 11572.1 137.812 11572.2L137.62 11572.3C136.344 11572.4 135.048 11572.1 134.01 11571.4L133.193 11570.8C132.645 11570.3 132.282 11569.7 132.187 11569.1C132.038 11568 132.575 11567 133.528 11566.5L135.019 11565.7C135.78 11565.3 136.689 11565.3 137.435 11565.7C138.125 11566.1 138.959 11566.2 139.688 11565.9L144.124 11564L149.095 11562.3C149.984 11562 150.945 11562 151.842 11562.3C152.747 11562.5 153.718 11562.5 154.614 11562.2L157.808 11561.1C158.805 11560.8 159.624 11560 160.082 11559.1C160.653 11557.9 161.78 11557.1 163.085 11556.9L169.378 11556L173.274 11555.5L177.911 11554.8C178.627 11554.7 179.307 11554.4 179.892 11554C180.843 11553.3 182.028 11553 183.187 11553.2L184.925 11553.5C185.625 11553.6 186.272 11553.9 186.77 11554.5C187.905 11555.6 189.704 11555.8 191.032 11554.9L193.724 11553C194.193 11552.7 194.699 11552.4 195.23 11552.2L198.827 11550.8C199.626 11550.5 200.459 11550.3 201.308 11550.1C201.893 11550.1 202.47 11549.9 203.034 11549.8L209.202 11547.9C210.13 11547.6 211.108 11547.5 212.072 11547.6C214.53 11547.9 216.649 11549.5 217.641 11551.7L218.577 11553.9Z" fill="white"/>
<path opacity="0.112188" fill-rule="evenodd" clip-rule="evenodd" d="M118.466 11554C117.221 11551.6 117.923 11548.7 120.114 11547.1C121.895 11545.9 124.269 11545.8 126.125 11547L127.449 11547.8C129.426 11549 131.858 11549.3 134.065 11548.5L138.361 11547.1C139.369 11546.7 140.322 11546.2 141.191 11545.6L143.918 11543.7C145.631 11542.5 147.88 11542.3 149.747 11543.3C151.535 11544.2 153.677 11544.1 155.367 11543L157.478 11541.6C159.224 11540.5 161.469 11540.5 163.202 11541.7C164.473 11542.5 166.045 11542.8 167.51 11542.3L169.714 11541.7C171.382 11541.3 173.159 11541.3 174.768 11542C176.595 11542.7 178.631 11542.7 180.472 11542L182.889 11541.1C184.516 11540.5 185.681 11539.1 185.931 11537.3C186.237 11535.2 187.894 11533.6 190 11533.3L190.133 11533.3C191.033 11533.2 191.951 11533.3 192.786 11533.6L196.458 11535.2C197.855 11535.8 199.391 11536 200.898 11535.8L203.689 11535.4C205.058 11535.2 206.205 11534.3 206.659 11533C207.114 11531.7 208.26 11530.7 209.63 11530.5L212.036 11530.2C213.179 11530 214.344 11530.1 215.443 11530.5L217 11531C218.197 11531.4 219.464 11531.5 220.708 11531.3L221.621 11531.2C222.85 11531 224.101 11531.2 225.181 11531.9L226.619 11532.7C227.235 11533 227.653 11533.6 227.752 11534.3C227.894 11535.3 227.343 11536.3 226.403 11536.7L223.945 11537.8C223 11538.2 221.927 11538.2 220.98 11537.8C220.102 11537.4 219.113 11537.4 218.216 11537.7L212.442 11539.9L206.038 11541.7C204.923 11542.1 203.744 11542.1 202.608 11541.9C201.462 11541.6 200.271 11541.7 199.147 11542L194.775 11543.3C193.643 11543.6 192.672 11544.4 192.04 11545.4C191.273 11546.6 190.01 11547.4 188.587 11547.6L180.176 11548.8L175.224 11549.5L169.286 11550.3C168.4 11550.4 167.547 11550.7 166.777 11551.2C165.539 11551.9 164.1 11552.3 162.668 11552.1L160.345 11551.9C159.495 11551.8 158.688 11551.5 158.021 11550.9C156.614 11549.8 154.661 11549.7 153.095 11550.6L149.26 11552.7C148.642 11553.1 147.992 11553.4 147.318 11553.6L143.786 11554.8C142.04 11555.4 140.244 11555.8 138.42 11556L129.171 11558.6C128.17 11558.8 127.132 11558.9 126.097 11558.9L124.637 11558.8C122.261 11558.6 120.137 11557.2 119.035 11555.1L118.466 11554Z" fill="white"/>
<path opacity="0.112188" fill-rule="evenodd" clip-rule="evenodd" d="M223.188 11513.2C224.434 11515.5 223.731 11518.5 221.541 11520C219.759 11521.3 217.385 11521.4 215.529 11520.2L214.206 11519.4C212.228 11518.2 209.797 11517.9 207.589 11518.6L203.293 11520.1C202.285 11520.5 201.332 11520.9 200.463 11521.6L197.736 11523.5C196.023 11524.7 193.775 11524.9 191.907 11523.9C190.119 11523 187.977 11523.1 186.287 11524.2L184.176 11525.5C182.43 11526.7 180.185 11526.7 178.452 11525.5C177.182 11524.7 175.609 11524.4 174.144 11524.8L171.941 11525.5C170.272 11525.9 168.495 11525.8 166.886 11525.2C165.059 11524.5 163.024 11524.4 161.182 11525.1L158.765 11526C157.138 11526.7 155.974 11528.1 155.723 11529.8C155.417 11531.9 153.76 11533.6 151.654 11533.9L151.522 11533.9C150.621 11534 149.703 11533.9 148.868 11533.5L145.196 11532C143.799 11531.4 142.263 11531.2 140.756 11531.4L137.965 11531.8C136.596 11532 135.449 11532.9 134.995 11534.2C134.541 11535.5 133.394 11536.5 132.024 11536.6L129.618 11537C128.475 11537.1 127.311 11537 126.212 11536.7L124.654 11536.2C123.458 11535.8 122.19 11535.7 120.947 11535.9L120.033 11536C118.804 11536.2 117.553 11535.9 116.473 11535.3L115.036 11534.5C114.42 11534.2 114.001 11533.5 113.902 11532.8C113.76 11531.8 114.312 11530.8 115.251 11530.4L117.709 11529.4C118.654 11529 119.727 11529 120.674 11529.4C121.552 11529.7 122.541 11529.8 123.438 11529.4L129.212 11527.3L135.617 11525.4C136.731 11525.1 137.91 11525.1 139.046 11525.3C140.193 11525.6 141.383 11525.5 142.507 11525.2L146.879 11523.9C148.011 11523.5 148.983 11522.8 149.614 11521.8C150.381 11520.6 151.644 11519.8 153.067 11519.6L161.478 11518.4L166.43 11517.7L172.368 11516.9C173.254 11516.7 174.107 11516.4 174.877 11516C176.115 11515.3 177.554 11514.9 178.986 11515.1L181.309 11515.3C182.159 11515.4 182.967 11515.7 183.633 11516.2C185.04 11517.4 186.993 11517.5 188.56 11516.6L192.394 11514.4C193.012 11514.1 193.662 11513.8 194.336 11513.6L197.868 11512.4C199.614 11511.8 201.411 11511.4 203.234 11511.1L212.483 11508.6C213.484 11508.4 214.523 11508.3 215.557 11508.3L217.017 11508.4C219.394 11508.6 221.517 11510 222.619 11512.1L223.188 11513.2Z" fill="white"/>
<circle cx="309" cy="327" r="24" fill="#1C1A2E"/>
<mask id="mask2_167_1529" style="mask-type:alpha" maskUnits="userSpaceOnUse" x="285" y="303" width="48" height="48">
<circle cx="309" cy="327" r="24" fill="white"/>
</mask>
<g mask="url(#mask2_167_1529)">
<circle opacity="0.480911" cx="323.5" cy="323.5" r="28.5" fill="#2B2941"/>
</g>
<circle cx="203.826" cy="1667.53" r="123.5" fill="#1C1A2E"/>
<mask id="mask3_167_1529" style="mask-type:alpha" maskUnits="userSpaceOnUse" x="80" y="1544" width="248" height="248">
<circle cx="203.826" cy="1667.53" r="123.5" fill="white"/>
</mask>
<g mask="url(#mask3_167_1529)">
<circle opacity="0.480911" cx="281.826" cy="1658.53" r="146.5" fill="#2B2941"/>
<circle opacity="0.480911" cx="103.826" cy="1520.53" r="145.5" stroke="black" stroke-width="2"/>
<circle opacity="0.480911" cx="105.826" cy="1539.53" r="169.5" stroke="black" stroke-width="2"/>
<circle opacity="0.480911" cx="131.326" cy="1569.03" r="169" stroke="black" stroke-width="2"/>
<circle opacity="0.480911" cx="150.326" cy="1603.03" r="169" stroke="black" stroke-width="2"/>
<circle opacity="0.480911" cx="168.326" cy="1621.03" r="169" stroke="black" stroke-width="2"/>
<circle opacity="0.480911" cx="99.3262" cy="1513.03" r="118" stroke="black" stroke-width="2"/>
<circle opacity="0.480911" cx="80.3262" cy="1484.03" r="118" stroke="black" stroke-width="2"/>
</g>
<circle cx="1802.5" cy="10657.5" r="61.5" fill="#1C1A2E"/>
<mask id="mask4_167_1529" style="mask-type:alpha" maskUnits="userSpaceOnUse" x="1741" y="10596" width="123" height="123">
<circle cx="1802.5" cy="10657.5" r="61.5" fill="white"/>
</mask>
<g mask="url(#mask4_167_1529)">
<circle opacity="0.480911" cx="1841" cy="10653" r="73" fill="#2B2941"/>
<circle opacity="0.480911" cx="1753" cy="10584" r="72" stroke="black" stroke-width="2"/>
<circle opacity="0.480911" cx="1754" cy="10594" r="84" stroke="black" stroke-width="2"/>
<circle opacity="0.480911" cx="1766.5" cy="10608.5" r="83.5" stroke="black" stroke-width="2"/>
<circle opacity="0.480911" cx="1775.5" cy="10625.5" r="83.5" stroke="black" stroke-width="2"/>
<circle opacity="0.480911" cx="1784.5" cy="10634.5" r="83.5" stroke="black" stroke-width="2"/>
<circle opacity="0.480911" cx="1750.5" cy="10580.5" r="58.5" stroke="black" stroke-width="2"/>
<circle opacity="0.480911" cx="1741.5" cy="10566.5" r="58.5" stroke="black" stroke-width="2"/>
</g>
<path fill-rule="evenodd" clip-rule="evenodd" d="M931.724 270.711L927.218 267.218L931.724 263.724L935.218 259.218L938.711 263.724L943.218 267.218L938.711 270.711L935.218 275.218L931.724 270.711Z" fill="#979797"/>
<path opacity="0.0608491" fill-rule="evenodd" clip-rule="evenodd" d="M696.724 236.711L692.218 233.218L696.724 229.724L700.218 225.218L703.711 229.724L708.218 233.218L703.711 236.711L700.218 241.218L696.724 236.711Z" fill="#979797"/>
<path opacity="0.0904018" fill-rule="evenodd" clip-rule="evenodd" d="M1270.72 247.711L1266.22 244.218L1270.72 240.724L1274.22 236.218L1277.71 240.724L1282.22 244.218L1277.71 247.711L1274.22 252.218L1270.72 247.711Z" fill="#979797"/>
<path opacity="0.143438" fill-rule="evenodd" clip-rule="evenodd" d="M602.034 107.644L599.218 105.46L602.034 103.277L604.218 100.46L606.401 103.277L609.218 105.46L606.401 107.644L604.218 110.46L602.034 107.644Z" fill="#979797"/>
<path fill-rule="evenodd" clip-rule="evenodd" d="M1495.72 2468.71L1491.22 2465.22L1495.72 2461.72L1499.22 2457.22L1502.71 2461.72L1507.22 2465.22L1502.71 2468.71L1499.22 2473.22L1495.72 2468.71Z" fill="#2FFD61"/>
<path fill-rule="evenodd" clip-rule="evenodd" d="M1357.72 2719.71L1353.22 2716.22L1357.72 2712.72L1361.22 2708.22L1364.71 2712.72L1369.22 2716.22L1364.71 2719.71L1361.22 2724.22L1357.72 2719.71Z" fill="#2FFD61"/>
<path opacity="0.0608491" fill-rule="evenodd" clip-rule="evenodd" d="M1285.72 2498.71L1281.22 2495.22L1285.72 2491.72L1289.22 2487.22L1292.71 2491.72L1297.22 2495.22L1292.71 2498.71L1289.22 2503.22L1285.72 2498.71Z" fill="#979797"/>
<path opacity="0.0904018" fill-rule="evenodd" clip-rule="evenodd" d="M1859.72 2509.71L1855.22 2506.22L1859.72 2502.72L1863.22 2498.22L1866.71 2502.72L1871.22 2506.22L1866.71 2509.71L1863.22 2514.22L1859.72 2509.71Z" fill="#979797"/>
<path opacity="0.143438" fill-rule="evenodd" clip-rule="evenodd" d="M1191.03 2369.64L1188.22 2367.46L1191.03 2365.28L1193.22 2362.46L1195.4 2365.28L1198.22 2367.46L1195.4 2369.64L1193.22 2372.46L1191.03 2369.64Z" fill="#979797"/>
<path fill-rule="evenodd" clip-rule="evenodd" d="M1646.72 4909.71L1642.22 4906.22L1646.72 4902.72L1650.22 4898.22L1653.71 4902.72L1658.22 4906.22L1653.71 4909.71L1650.22 4914.22L1646.72 4909.71Z" fill="#F700FE"/>
<path opacity="0.0608491" fill-rule="evenodd" clip-rule="evenodd" d="M1411.72 4875.71L1407.22 4872.22L1411.72 4868.72L1415.22 4864.22L1418.71 4868.72L1423.22 4872.22L1418.71 4875.71L1415.22 4880.22L1411.72 4875.71Z" fill="#F700FE"/>
<path opacity="0.143438" fill-rule="evenodd" clip-rule="evenodd" d="M1317.03 4746.64L1314.22 4744.46L1317.03 4742.28L1319.22 4739.46L1321.4 4742.28L1324.22 4744.46L1321.4 4746.64L1319.22 4749.46L1317.03 4746.64Z" fill="#F700FE"/>
<path fill-rule="evenodd" clip-rule="evenodd" d="M1263.87 5259.82L1268.37 5263.31L1263.87 5266.81L1260.37 5271.31L1256.88 5266.81L1252.37 5263.31L1256.88 5259.82L1260.37 5255.31L1263.87 5259.82Z" fill="#0058FF"/>
<path opacity="0.0608491" fill-rule="evenodd" clip-rule="evenodd" d="M1475.87 4787.82L1480.37 4791.31L1475.87 4794.81L1472.37 4799.31L1468.88 4794.81L1464.37 4791.31L1468.88 4787.82L1472.37 4783.31L1475.87 4787.82Z" fill="#0058FF"/>
<path opacity="0.0904018" fill-rule="evenodd" clip-rule="evenodd" d="M308.866 5192.82L313.372 5196.31L308.866 5199.81L305.372 5204.31L301.878 5199.81L297.372 5196.31L301.878 5192.82L305.372 5188.31L308.866 5192.82Z" fill="#0058FF"/>
<path opacity="0.143438" fill-rule="evenodd" clip-rule="evenodd" d="M1570.56 4916.89L1573.37 4919.07L1570.56 4921.25L1568.37 4924.07L1566.19 4921.25L1563.37 4919.07L1566.19 4916.89L1568.37 4914.07L1570.56 4916.89Z" fill="#0058FF"/>
<path fill-rule="evenodd" clip-rule="evenodd" d="M417.138 5256.5L411.488 5255.73L413.644 5250.45L414.417 5244.8L419.695 5246.95L425.345 5247.73L423.189 5253.01L422.417 5258.65L417.138 5256.5Z" fill="#979797"/>
<path opacity="0.0904018" fill-rule="evenodd" clip-rule="evenodd" d="M475.22 5040.08L469.571 5039.31L471.727 5034.03L472.499 5028.38L477.778 5030.54L483.427 5031.31L481.272 5036.59L480.499 5042.24L475.22 5040.08Z" fill="#979797"/>
<path fill-rule="evenodd" clip-rule="evenodd" d="M793.724 5186.71L789.218 5183.22L793.724 5179.72L797.218 5175.22L800.711 5179.72L805.218 5183.22L800.711 5186.71L797.218 5191.22L793.724 5186.71Z" fill="#979797"/>
<path opacity="0.0608491" fill-rule="evenodd" clip-rule="evenodd" d="M576.724 4919.71L572.218 4916.22L576.724 4912.72L580.218 4908.22L583.711 4912.72L588.218 4916.22L583.711 4919.71L580.218 4924.22L576.724 4919.71Z" fill="#979797"/>
<path opacity="0.0904018" fill-rule="evenodd" clip-rule="evenodd" d="M906.724 5318.71L902.218 5315.22L906.724 5311.72L910.218 5307.22L913.711 5311.72L918.218 5315.22L913.711 5318.71L910.218 5323.22L906.724 5318.71Z" fill="#979797"/>
<path opacity="0.143438" fill-rule="evenodd" clip-rule="evenodd" d="M482.034 4790.64L479.218 4788.46L482.034 4786.28L484.218 4783.46L486.401 4786.28L489.218 4788.46L486.401 4790.64L484.218 4793.46L482.034 4790.64Z" fill="#979797"/>
<path fill-rule="evenodd" clip-rule="evenodd" d="M1421.91 3229.32L1417.41 3225.83L1421.91 3222.33L1425.41 3217.83L1428.9 3222.33L1433.41 3225.83L1428.9 3229.32L1425.41 3233.83L1421.91 3229.32Z" fill="#FFEC6A"/>
<path opacity="0.0608491" fill-rule="evenodd" clip-rule="evenodd" d="M1186.91 3195.32L1182.41 3191.83L1186.91 3188.33L1190.41 3183.83L1193.9 3188.33L1198.41 3191.83L1193.9 3195.32L1190.41 3199.83L1186.91 3195.32Z" fill="#FFEC6A"/>
<path opacity="0.0904018" fill-rule="evenodd" clip-rule="evenodd" d="M1760.91 3206.32L1756.41 3202.83L1760.91 3199.33L1764.41 3194.83L1767.9 3199.33L1772.41 3202.83L1767.9 3206.32L1764.41 3210.83L1760.91 3206.32Z" fill="#FFEC6A"/>
<path opacity="0.143438" fill-rule="evenodd" clip-rule="evenodd" d="M1092.22 3066.25L1089.41 3064.07L1092.22 3061.89L1094.41 3059.07L1096.59 3061.89L1099.41 3064.07L1096.59 3066.25L1094.41 3069.07L1092.22 3066.25Z" fill="#FFEC6A"/>
<path fill-rule="evenodd" clip-rule="evenodd" d="M1111.95 2452.21L1116.46 2455.7L1111.95 2459.2L1108.46 2463.7L1104.97 2459.2L1100.46 2455.7L1104.97 2452.21L1108.46 2447.7L1111.95 2452.21Z" fill="#F700FE"/>
<path opacity="0.0608491" fill-rule="evenodd" clip-rule="evenodd" d="M1607.95 2599.21L1612.46 2602.7L1607.95 2606.2L1604.46 2610.7L1600.97 2606.2L1596.46 2602.7L1600.97 2599.21L1604.46 2594.7L1607.95 2599.21Z" fill="#979797"/>
<path opacity="0.0904018" fill-rule="evenodd" clip-rule="evenodd" d="M1033.95 2588.21L1038.46 2591.7L1033.95 2595.2L1030.46 2599.7L1026.97 2595.2L1022.46 2591.7L1026.97 2588.21L1030.46 2583.7L1033.95 2588.21Z" fill="#979797"/>
<path opacity="0.0904018" fill-rule="evenodd" clip-rule="evenodd" d="M1703.95 2981.21L1708.46 2984.7L1703.95 2988.2L1700.46 2992.7L1696.97 2988.2L1692.46 2984.7L1696.97 2981.21L1700.46 2976.7L1703.95 2981.21Z" fill="#979797"/>
<path opacity="0.0904018" fill-rule="evenodd" clip-rule="evenodd" d="M871.954 2400.21L876.46 2403.7L871.954 2407.2L868.46 2411.7L864.966 2407.2L860.46 2403.7L864.966 2400.21L868.46 2395.7L871.954 2400.21Z" fill="#979797"/>
<path opacity="0.0904018" fill-rule="evenodd" clip-rule="evenodd" d="M919.954 2101.21L924.46 2104.7L919.954 2108.2L916.46 2112.7L912.966 2108.2L908.46 2104.7L912.966 2101.21L916.46 2096.7L919.954 2101.21Z" fill="#979797"/>
<path opacity="0.143438" fill-rule="evenodd" clip-rule="evenodd" d="M1702.64 2728.28L1705.46 2730.46L1702.64 2732.64L1700.46 2735.46L1698.28 2732.64L1695.46 2730.46L1698.28 2728.28L1700.46 2725.46L1702.64 2728.28Z" fill="#979797"/>
<path fill-rule="evenodd" clip-rule="evenodd" d="M56.9537 2426.21L61.46 2429.7L56.9537 2433.2L53.46 2437.7L49.9663 2433.2L45.46 2429.7L49.9663 2426.21L53.46 2421.7L56.9537 2426.21Z" fill="#979797"/>
<path opacity="0.0608491" fill-rule="evenodd" clip-rule="evenodd" d="M291.954 2460.21L296.46 2463.7L291.954 2467.2L288.46 2471.7L284.966 2467.2L280.46 2463.7L284.966 2460.21L288.46 2455.7L291.954 2460.21Z" fill="#979797"/>
<path opacity="0.143438" fill-rule="evenodd" clip-rule="evenodd" d="M386.644 2589.28L389.46 2591.46L386.644 2593.64L384.46 2596.46L382.276 2593.64L379.46 2591.46L382.276 2589.28L384.46 2586.46L386.644 2589.28Z" fill="#979797"/>
<path d="M292.955 2740.55V2758H290.909L281.398 2744.3H281.227V2758H279.114V2740.55H281.159L290.705 2754.28H290.875V2740.55H292.955ZM302.4 2758.27C301.138 2758.27 300.05 2757.99 299.136 2757.44C298.227 2756.88 297.525 2756.09 297.031 2755.09C296.542 2754.07 296.298 2752.9 296.298 2751.56C296.298 2750.22 296.542 2749.03 297.031 2748.01C297.525 2746.98 298.212 2746.18 299.093 2745.61C299.979 2745.03 301.013 2744.74 302.195 2744.74C302.877 2744.74 303.55 2744.85 304.215 2745.08C304.88 2745.31 305.485 2745.68 306.031 2746.19C306.576 2746.69 307.011 2747.36 307.335 2748.2C307.658 2749.03 307.82 2750.06 307.82 2751.28V2752.14H297.729V2750.4H305.775C305.775 2749.66 305.627 2749 305.332 2748.42C305.042 2747.84 304.627 2747.38 304.087 2747.05C303.553 2746.71 302.923 2746.55 302.195 2746.55C301.394 2746.55 300.701 2746.74 300.116 2747.14C299.536 2747.53 299.09 2748.05 298.778 2748.68C298.465 2749.31 298.309 2749.98 298.309 2750.7V2751.86C298.309 2752.85 298.479 2753.69 298.82 2754.38C299.167 2755.06 299.647 2755.58 300.261 2755.94C300.874 2756.29 301.587 2756.47 302.4 2756.47C302.928 2756.47 303.406 2756.39 303.832 2756.24C304.263 2756.09 304.636 2755.86 304.948 2755.56C305.261 2755.26 305.502 2754.88 305.673 2754.42L307.616 2754.97C307.411 2755.63 307.067 2756.2 306.585 2756.7C306.102 2757.2 305.505 2757.59 304.795 2757.86C304.085 2758.14 303.286 2758.27 302.4 2758.27ZM313.846 2758L309.857 2744.91H311.971L314.8 2754.93H314.937L317.732 2744.91H319.88L322.641 2754.9H322.778L325.607 2744.91H327.721L323.732 2758H321.755L318.891 2747.94H318.687L315.823 2758H313.846Z" fill="white"/>
<path fill-rule="evenodd" clip-rule="evenodd" d="M191.954 1451.21L196.46 1454.7L191.954 1458.2L188.46 1462.7L184.966 1458.2L180.46 1454.7L184.966 1451.21L188.46 1446.7L191.954 1451.21Z" fill="#979797"/>
<path opacity="0.0608491" fill-rule="evenodd" clip-rule="evenodd" d="M426.954 1485.21L431.46 1488.7L426.954 1492.2L423.46 1496.7L419.966 1492.2L415.46 1488.7L419.966 1485.21L423.46 1480.7L426.954 1485.21Z" fill="#979797"/>
<path opacity="0.143438" fill-rule="evenodd" clip-rule="evenodd" d="M521.644 1614.28L524.46 1616.46L521.644 1618.64L519.46 1621.46L517.276 1618.64L514.46 1616.46L517.276 1614.28L519.46 1611.46L521.644 1614.28Z" fill="#979797"/>
<path opacity="0.167015" fill-rule="evenodd" clip-rule="evenodd" d="M76.7236 255.711L72.2173 252.218L76.7236 248.724L80.2173 244.218L83.711 248.724L88.2173 252.218L83.711 255.711L80.2173 260.218L76.7236 255.711Z" fill="#979797"/>
<path fill-rule="evenodd" clip-rule="evenodd" d="M375.724 450.711L371.218 447.218L375.724 443.724L379.218 439.218L382.711 443.724L387.218 447.218L382.711 450.711L379.218 455.218L375.724 450.711Z" fill="#979797"/>
<path fill-rule="evenodd" clip-rule="evenodd" d="M1849.89 481.255L1847.07 479.071L1849.89 476.888L1852.07 474.071L1854.25 476.888L1857.07 479.071L1854.25 481.255L1852.07 484.071L1849.89 481.255Z" fill="#F700FE"/>
<path fill-rule="evenodd" clip-rule="evenodd" d="M1892.03 1211.64L1889.22 1209.46L1892.03 1207.28L1894.22 1204.46L1896.4 1207.28L1899.22 1209.46L1896.4 1211.64L1894.22 1214.46L1892.03 1211.64Z" fill="#979797"/>
<path fill-rule="evenodd" clip-rule="evenodd" d="M69.0337 559.644L66.2173 557.46L69.0337 555.277L71.2173 552.46L73.4009 555.277L76.2173 557.46L73.4009 559.644L71.2173 562.46L69.0337 559.644Z" fill="#979797"/>
<path fill-rule="evenodd" clip-rule="evenodd" d="M433.034 1260.64L430.218 1258.46L433.034 1256.28L435.218 1253.46L437.401 1256.28L440.218 1258.46L437.401 1260.64L435.218 1263.46L433.034 1260.64Z" fill="#979797"/>
<path fill-rule="evenodd" clip-rule="evenodd" d="M1446.03 606.644L1443.22 604.46L1446.03 602.277L1448.22 599.46L1450.4 602.277L1453.22 604.46L1450.4 606.644L1448.22 609.46L1446.03 606.644Z" fill="#FFEC6A"/>
<path fill-rule="evenodd" clip-rule="evenodd" d="M1507.03 1419.64L1504.22 1417.46L1507.03 1415.28L1509.22 1412.46L1511.4 1415.28L1514.22 1417.46L1511.4 1419.64L1509.22 1422.46L1507.03 1419.64Z" fill="#979797"/>
<path fill-rule="evenodd" clip-rule="evenodd" d="M1479.89 217.255L1477.07 215.071L1479.89 212.888L1482.07 210.071L1484.25 212.888L1487.07 215.071L1484.25 217.255L1482.07 220.071L1479.89 217.255Z" fill="#979797"/>
<path fill-rule="evenodd" clip-rule="evenodd" d="M1702.03 1158.64L1699.22 1156.46L1702.03 1154.28L1704.22 1151.46L1706.4 1154.28L1709.22 1156.46L1706.4 1158.64L1704.22 1161.46L1702.03 1158.64Z" fill="#979797"/>
<path opacity="0.143438" fill-rule="evenodd" clip-rule="evenodd" d="M1636.03 1249.64L1633.22 1247.46L1636.03 1245.28L1638.22 1242.46L1640.4 1245.28L1643.22 1247.46L1640.4 1249.64L1638.22 1252.46L1636.03 1249.64Z" fill="#979797"/>
<path opacity="0.143438" fill-rule="evenodd" clip-rule="evenodd" d="M1804.03 849.644L1801.22 847.46L1804.03 845.277L1806.22 842.46L1808.4 845.277L1811.22 847.46L1808.4 849.644L1806.22 852.46L1804.03 849.644Z" fill="#979797"/>
<path opacity="0.143438" fill-rule="evenodd" clip-rule="evenodd" d="M1865.03 1662.64L1862.22 1660.46L1865.03 1658.28L1867.22 1655.46L1869.4 1658.28L1872.22 1660.46L1869.4 1662.64L1867.22 1665.46L1865.03 1662.64Z" fill="#979797"/>
<path d="M264.416 958.399C264.416 958.399 258.086 1001.08 211.771 1011.61C165.456 1022.14 142.607 981 96.1466 962C1.74728 923.396 -151.595 945.61 -129.021 1173.12C-116.221 1302.12 -166.23 1538.5 -99.3801 1653.39C-11.4258 1804.55 172.671 1972.72 335.744 1890.24C658.724 1683.63 149.075 1221.61 273.5 1065.19C381.269 929.709 547.279 1089.89 672.042 948.868C735.158 877.526 815.755 796.785 963 844.344C1110.25 891.904 1088.06 1155.16 1233.5 1155.16C1378.94 1155.16 1281.4 1008.59 1401.53 945.443C1521.65 882.298 1682.03 1046.06 1767.36 874.532C1802.4 804.09 1787.54 779.451 1754.5 760.732C1721.46 742.014 1642.43 755.109 1646.5 827.532C1653.4 950.421 2050 988.119 2050 1210.59C2050 1394.15 1716.22 1753.37 1546.33 1835.67C1499.97 1858.13 1442.86 1860.16 1431.77 1831.77C1411.55 1779.98 1459.2 1758.47 1503.72 1756.89C1571.87 1754.48 1680.97 1799.85 1718.26 1860C1779.92 1959.44 1628.99 2052.52 1628.99 2052.52" stroke="#7B2CFE" stroke-width="4" stroke-linecap="round"/>
<path d="M264.416 958.399C264.416 958.399 258.086 1001.08 211.771 1011.61C165.456 1022.14 142.607 981 96.1466 962C1.74728 923.396 -151.595 945.61 -129.021 1173.12C-116.221 1302.12 -166.23 1538.5 -99.3801 1653.39C-11.4258 1804.55 172.671 1972.72 335.744 1890.24C658.724 1683.63 149.075 1221.61 273.5 1065.19C381.269 929.709 547.279 1089.89 672.042 948.868C735.158 877.526 815.755 796.785 963 844.344C1110.25 891.904 1088.06 1155.16 1233.5 1155.16C1378.94 1155.16 1281.4 1008.59 1401.53 945.443C1521.65 882.298 1682.03 1046.06 1767.36 874.532C1802.4 804.09 1787.54 779.451 1754.5 760.732C1721.46 742.014 1642.43 755.109 1646.5 827.532C1653.4 950.421 2050 988.119 2050 1210.59C2050 1394.15 1716.22 1753.37 1546.33 1835.67C1499.97 1858.13 1442.86 1860.16 1431.77 1831.77C1411.55 1779.98 1459.2 1758.47 1503.72 1756.89C1571.87 1754.48 1680.97 1799.85 1718.26 1860C1779.92 1959.44 1628.99 2052.52 1628.99 2052.52" stroke="black" stroke-opacity="0.6" stroke-width="4" stroke-linecap="round"/>
<path d="M413 351.874C432.284 315.486 503.45 245.628 633.844 257.299" stroke="url(#paint3_linear_167_1529)" stroke-opacity="0.2" stroke-width="10" stroke-linecap="round"/>
<path d="M413 351.874C432.284 315.486 503.45 245.628 633.844 257.299" stroke="url(#paint4_linear_167_1529)" stroke-width="10" stroke-linecap="round"/>
<path fill-rule="evenodd" clip-rule="evenodd" d="M1425.82 14256.7L1421.31 14253.2L1425.82 14249.7L1429.31 14245.2L1432.81 14249.7L1437.31 14253.2L1432.81 14256.7L1429.31 14261.2L1425.82 14256.7Z" fill="#0058FF"/>
<path fill-rule="evenodd" clip-rule="evenodd" d="M1741.01 14653.8L1736.97 14650.6L1741.01 14647.5L1744.14 14643.5L1747.26 14647.5L1751.3 14650.6L1747.26 14653.8L1744.14 14657.8L1741.01 14653.8Z" fill="#0058FF"/>
<circle cx="500.207" cy="1139" r="46" fill="#1C1A2E"/>
<mask id="mask5_167_1529" style="mask-type:alpha" maskUnits="userSpaceOnUse" x="454" y="1093" width="93" height="92">
<circle cx="500.207" cy="1139" r="46" fill="white"/>
</mask>
<g mask="url(#mask5_167_1529)">
<circle opacity="0.480911" cx="542.207" cy="1132" r="54" fill="#2B2941"/>
</g>
<circle cx="279.5" cy="588" r="10" fill="#161424" stroke="black" stroke-width="2"/>
<circle cx="279" cy="588" r="13" fill="#161424" stroke="black" stroke-width="2"/>
<circle cx="279" cy="588" r="7" fill="#403D5E"/>
<path fill-rule="evenodd" clip-rule="evenodd" d="M678.724 877.711L674.218 874.218L678.724 870.724L682.218 866.218L685.711 870.724L690.218 874.218L685.711 877.711L682.218 882.218L678.724 877.711Z" fill="#979797"/>
<path fill-rule="evenodd" clip-rule="evenodd" d="M1641.89 414.255L1639.07 412.071L1641.89 409.888L1644.07 407.071L1646.25 409.888L1649.07 412.071L1646.25 414.255L1644.07 417.071L1641.89 414.255Z" fill="#0058FF"/>
<path opacity="0.143438" fill-rule="evenodd" clip-rule="evenodd" d="M1575.03 533.644L1572.22 531.46L1575.03 529.277L1577.22 526.46L1579.4 529.277L1582.22 531.46L1579.4 533.644L1577.22 536.46L1575.03 533.644Z" fill="#979797"/>
<path fill-rule="evenodd" clip-rule="evenodd" d="M1221.29 954.18L1216.78 950.686L1221.29 947.193L1224.78 942.686L1228.27 947.193L1232.78 950.686L1228.27 954.18L1224.78 958.686L1221.29 954.18Z" fill="#0058FF"/>
<path opacity="0.143438" fill-rule="evenodd" clip-rule="evenodd" d="M1185.03 949.644L1182.22 947.46L1185.03 945.277L1187.22 942.46L1189.4 945.277L1192.22 947.46L1189.4 949.644L1187.22 952.46L1185.03 949.644Z" fill="#979797"/>
<path fill-rule="evenodd" clip-rule="evenodd" d="M1488.95 1917.21L1493.46 1920.7L1488.95 1924.2L1485.46 1928.7L1481.97 1924.2L1477.46 1920.7L1481.97 1917.21L1485.46 1912.7L1488.95 1917.21Z" fill="#FFEC6A"/>
<path opacity="0.0608491" fill-rule="evenodd" clip-rule="evenodd" d="M1723.95 1951.21L1728.46 1954.7L1723.95 1958.2L1720.46 1962.7L1716.97 1958.2L1712.46 1954.7L1716.97 1951.21L1720.46 1946.7L1723.95 1951.21Z" fill="#979797"/>
<path opacity="0.0904018" fill-rule="evenodd" clip-rule="evenodd" d="M1149.95 1940.21L1154.46 1943.7L1149.95 1947.2L1146.46 1951.7L1142.97 1947.2L1138.46 1943.7L1142.97 1940.21L1146.46 1935.7L1149.95 1940.21Z" fill="#979797"/>
<path opacity="0.143438" fill-rule="evenodd" clip-rule="evenodd" d="M1818.64 2080.28L1821.46 2082.46L1818.64 2084.64L1816.46 2087.46L1814.28 2084.64L1811.46 2082.46L1814.28 2080.28L1816.46 2077.46L1818.64 2080.28Z" fill="#979797"/>
<circle cx="728.369" cy="14179.4" r="57.3687" fill="#1C1A2E"/>
<mask id="mask6_167_1529" style="mask-type:alpha" maskUnits="userSpaceOnUse" x="671" y="14122" width="115" height="115">
<circle cx="728.369" cy="14179.4" r="57.3687" fill="white"/>
</mask>
<g mask="url(#mask6_167_1529)">
<circle cx="774.263" cy="14161.3" r="67.0308" fill="#2C2855"/>
<circle opacity="0.540783" cx="710.856" cy="14124.4" r="10.8699" fill="#161424"/>
<circle opacity="0.540783" cx="751.92" cy="14229.5" r="10.8699" fill="#161424"/>
<circle opacity="0.540783" cx="718.706" cy="14166.1" r="13.8893" fill="#161424"/>
<circle opacity="0.540783" cx="705.421" cy="14213.2" r="13.8893" fill="#161424"/>
<circle opacity="0.540783" cx="763.394" cy="14164.9" r="13.8893" fill="#161424"/>
<circle opacity="0.540783" cx="733.199" cy="14199.9" r="4.22717" fill="#161424"/>
<circle opacity="0.540783" cx="758.562" cy="14193.9" r="4.22717" fill="#161424"/>
<circle opacity="0.540783" cx="747.693" cy="14144.3" r="4.22717" fill="#161424"/>
<circle opacity="0.540783" cx="683.682" cy="14167.3" r="4.22717" fill="#161424"/>
<circle opacity="0.540783" cx="770.641" cy="14207.1" r="4.22717" fill="#161424"/>
<circle opacity="0.540783" cx="700.59" cy="14183" r="6.64269" fill="#161424"/>
<circle opacity="0.540783" cx="773.056" cy="14141.9" r="6.64269" fill="#161424"/>
<circle opacity="0.540783" cx="739.239" cy="14180.6" r="6.64269" fill="#161424"/>
<circle opacity="0.540783" cx="724.745" cy="14236.1" r="6.64269" fill="#161424"/>
<circle opacity="0.540783" cx="675.227" cy="14192.7" r="6.64269" fill="#161424"/>
</g>
<circle cx="1216.25" cy="14719.2" r="45.25" fill="#1C1A2E"/>
<mask id="mask7_167_1529" style="mask-type:alpha" maskUnits="userSpaceOnUse" x="1171" y="14674" width="91" height="91">
<circle cx="1216.25" cy="14719.2" r="45.25" fill="white"/>
</mask>
<g mask="url(#mask7_167_1529)">
<circle opacity="0.480911" cx="1244.58" cy="14715.9" r="53.7114" fill="#2B2941"/>
<circle opacity="0.480911" cx="1179.83" cy="14665.2" r="52.7114" stroke="black" stroke-width="2"/>
<circle opacity="0.480911" cx="1180.57" cy="14672.5" r="61.5407" stroke="black" stroke-width="2"/>
<circle opacity="0.480911" cx="1189.76" cy="14683.2" r="61.1728" stroke="black" stroke-width="2"/>
<circle opacity="0.480911" cx="1196.38" cy="14695.7" r="61.1728" stroke="black" stroke-width="2"/>
<circle opacity="0.480911" cx="1203.01" cy="14702.3" r="61.1728" stroke="black" stroke-width="2"/>
<circle opacity="0.480911" cx="1177.99" cy="14662.6" r="42.7785" stroke="black" stroke-width="2"/>
<circle opacity="0.480911" cx="1171.37" cy="14652.3" r="42.7785" stroke="black" stroke-width="2"/>
</g>
<path fill-rule="evenodd" clip-rule="evenodd" d="M1055.19 14732.6L1050.69 14729.1L1055.19 14725.6L1058.69 14721.1L1062.18 14725.6L1066.69 14729.1L1062.18 14732.6L1058.69 14737.1L1055.19 14732.6Z" fill="#2FFD61"/>
<path fill-rule="evenodd" clip-rule="evenodd" d="M1186.83 14468.4L1182.33 14464.9L1186.83 14461.4L1190.33 14456.9L1193.82 14461.4L1198.33 14464.9L1193.82 14468.4L1190.33 14472.9L1186.83 14468.4Z" fill="#F700FE"/>
<defs>
<linearGradient id="paint0_linear_167_1529" x1="960" y1="1331.25" x2="960" y2="-170.5" gradientUnits="userSpaceOnUse">
<stop stop-color="#0058FF"/>
<stop offset="0.234375" stop-color="#F700FE"/>
<stop offset="1" stop-color="#F700FE" stop-opacity="0"/>
</linearGradient>
<linearGradient id="paint1_linear_167_1529" x1="941.34" y1="15391.4" x2="941.34" y2="13889.6" gradientUnits="userSpaceOnUse">
<stop stop-color="#0058FF"/>
<stop offset="0.234375" stop-color="#F700FE"/>
<stop offset="1" stop-color="#F700FE" stop-opacity="0"/>
</linearGradient>
<linearGradient id="paint2_linear_167_1529" x1="888" y1="5567.86" x2="2389.75" y2="5567.86" gradientUnits="userSpaceOnUse">
<stop stop-color="#0058FF"/>
<stop offset="0.234375" stop-color="#F700FE"/>
<stop offset="1" stop-color="#F700FE" stop-opacity="0"/>
</linearGradient>
<linearGradient id="paint3_linear_167_1529" x1="406.555" y1="351.874" x2="558.253" y2="189.163" gradientUnits="userSpaceOnUse">
<stop stop-color="#2FFD61"/>
<stop offset="1" stop-color="#2FFD61" stop-opacity="0"/>
</linearGradient>
<linearGradient id="paint4_linear_167_1529" x1="413" y1="351.874" x2="476.976" y2="292.736" gradientUnits="userSpaceOnUse">
<stop stop-color="#2FFD61"/>
<stop offset="1" stop-color="#2FFD61" stop-opacity="0"/>
</linearGradient>
</defs>
</svg>
