<svg width="310" height="248" viewBox="0 0 310 248" fill="none" xmlns="http://www.w3.org/2000/svg">
<circle cx="161" cy="124" r="83" fill="white"/>
<circle cx="161" cy="124" r="83" fill="#210080"/>
<circle cx="161" cy="124" r="83" fill="url(#paint0_linear_167_2141)" fill-opacity="0.6"/>
<mask id="mask0_167_2141" style="mask-type:alpha" maskUnits="userSpaceOnUse" x="78" y="41" width="166" height="166">
<circle cx="161" cy="124" r="83" fill="white"/>
<circle cx="161" cy="124" r="83" stroke="white"/>
</mask>
<g mask="url(#mask0_167_2141)">
<circle cx="211.5" cy="111.5" r="98.5" fill="white" fill-opacity="0.15"/>
<path d="M228.217 48.46C228.217 48.46 221.653 70.7977 203.095 80.4002C184.537 90.0026 175.118 72.0679 152.011 87.8918C128.903 103.716 131.983 115.422 117.91 124C103.837 132.578 75.6883 124 75.6883 124L47.8325 134.642" stroke="#161424" stroke-width="2"/>
<path d="M50.8325 190.823C50.8325 190.823 58.948 163.208 81.8901 151.337C104.832 139.466 116.477 161.638 145.043 142.075C173.609 122.513 169.802 108.042 187.2 97.437C204.597 86.8322 239.396 97.437 239.396 97.437L273.833 84.2802" stroke="#161424" stroke-width="2"/>
<path d="M64.8325 223.823C64.8325 223.823 72.948 196.208 95.8901 184.337C118.832 172.466 130.477 194.638 159.043 175.075C187.609 155.513 183.802 141.042 201.2 130.437C218.597 119.832 253.396 130.437 253.396 130.437L287.833 117.28" stroke="#161424" stroke-width="2"/>
<path d="M258.217 131.46C258.217 131.46 251.653 153.798 233.095 163.4C214.537 173.003 205.118 155.068 182.011 170.892C158.903 186.716 161.983 198.422 147.91 207C133.837 215.578 105.688 207 105.688 207L77.8325 217.642" stroke="#161424" stroke-width="2"/>
<path d="M310.218 -6.54004C310.218 -6.54004 303.653 15.7977 285.095 25.4002C266.537 35.0026 257.118 17.0679 234.011 32.8918C219.309 42.9597 209.313 53.5686 194.598 57.0334C186.184 59.0143 170.895 53.913 165.776 57.0334C151.704 65.6117 167.204 66.5968 152.619 77.4611C138.035 88.3254 135.551 64.489 126.301 72.7978C117.051 81.1065 128.007 89.3692 123.732 91.5511C119.457 93.7331 115.254 92.4278 102.781 97.1028C90.3075 101.778 91.4497 111.036 86.2723 113.754C81.0949 116.472 68.4951 111.5 68.4951 111.5" stroke="#161424" stroke-width="2"/>
<path d="M365.218 108.46C365.218 108.46 358.653 130.798 340.095 140.4C321.537 150.003 312.118 132.068 289.011 147.892C274.309 157.96 264.313 168.569 249.598 172.033C241.184 174.014 225.895 168.913 220.776 172.033C206.704 180.612 222.204 181.597 207.619 192.461C193.035 203.325 190.551 179.489 181.301 187.798C172.051 196.107 183.007 204.369 178.732 206.551C174.457 208.733 170.254 207.428 157.781 212.103C145.308 216.778 146.45 226.036 141.272 228.754C136.095 231.472 123.495 226.5 123.495 226.5" stroke="#161424" stroke-width="2"/>
</g>
<path d="M235.287 67.309C250.654 62.8687 261.812 61.2062 268.834 62.3498C276.239 63.5559 279.256 67.9826 277.561 75.1804C273.212 93.6601 238.038 126.79 191.55 154.098C143.393 182.385 97.6899 198.592 62.4998 201.708L61.6284 201.781C48.5644 202.803 42.4396 200.137 44.3391 193.441C46.0715 187.333 55.1662 177.931 71.7046 164.992C72.1396 164.652 72.7681 164.728 73.1084 165.163C73.4487 165.598 73.372 166.227 72.937 166.567L71.8447 167.425C56.3506 179.647 47.7981 188.575 46.2631 193.986C44.9013 198.787 49.1737 198.367 61.6284 197.264C96.4556 194.181 137.507 172.143 185.43 143.993C231.406 116.986 269.474 92.8982 273.645 75.1804C275.071 69.1194 274.781 65.3449 268.512 64.3238C261.859 63.2402 250.945 64.8663 235.842 69.2304C235.312 69.3837 234.757 69.0779 234.604 68.5473C234.451 68.0167 234.757 67.4623 235.287 67.309Z" fill="#2FFD61"/>
<defs>
<linearGradient id="paint0_linear_167_2141" x1="33.433" y1="60.1955" x2="286.86" y2="103.427" gradientUnits="userSpaceOnUse">
<stop stop-color="#0058FF"/>
<stop offset="1" stop-color="#F700FE"/>
</linearGradient>
</defs>
</svg>
