<svg width="138" height="138" viewBox="0 0 138 138" fill="none" xmlns="http://www.w3.org/2000/svg">
<circle cx="69" cy="69" r="69" fill="#2C254A"/>
<mask id="mask0_167_2180" style="mask-type:alpha" maskUnits="userSpaceOnUse" x="0" y="0" width="138" height="138">
<circle cx="69" cy="69" r="69" fill="white"/>
</mask>
<g mask="url(#mask0_167_2180)">
<circle opacity="0.542899" cx="132.515" cy="57.4517" r="81.1255" fill="#534572"/>
</g>
<mask id="mask1_167_2180" style="mask-type:alpha" maskUnits="userSpaceOnUse" x="0" y="0" width="138" height="138">
<circle cx="69" cy="69" r="69" fill="white"/>
</mask>
<g mask="url(#mask1_167_2180)">
<path opacity="0.112188" fill-rule="evenodd" clip-rule="evenodd" d="M2.60925 37.8498C1.55726 35.4433 2.17568 32.6331 4.14069 30.8905C6.3552 28.9267 9.66451 28.8506 11.967 30.7105L12.9031 31.4667C15.008 33.167 17.8671 33.5979 20.3797 32.5935L24.6382 30.891C25.7146 30.4607 26.7095 29.8495 27.5799 29.0837L30.4245 26.581C32.216 25.0047 34.845 24.8342 36.8251 26.166C38.7228 27.4422 41.2281 27.3439 43.02 25.9229L44.8706 24.4552C46.7884 22.9344 49.5132 22.979 51.3802 24.5618C52.7327 25.7084 54.5812 26.0759 56.2694 25.5338L58.2173 24.9083C60.0914 24.3065 62.1295 24.4907 63.8652 25.4189C65.8437 26.4769 68.2001 26.5615 70.2494 25.6482L72.0984 24.8241C74.1709 23.9005 75.5782 21.9242 75.7733 19.6637L75.8688 18.5572C76.0629 16.3087 77.7844 14.4924 80.0193 14.1784C81.0806 14.0292 82.1613 14.2363 83.0922 14.7673L87.1282 17.0691C88.6367 17.9295 90.388 18.2651 92.1077 18.0234L94.4176 17.6988C96.1894 17.4498 97.6326 16.1502 98.0654 14.4141C98.4981 12.6781 99.9413 11.3785 101.713 11.1295L103.624 10.8609C104.949 10.6747 106.299 10.8588 107.526 11.3928L109.262 12.1483C110.517 12.6946 111.898 12.8829 113.254 12.6924L113.518 12.6553C115.266 12.4096 117.041 12.8574 118.463 13.9029L119.582 14.7251C120.333 15.2778 120.83 16.1103 120.96 17.0343C121.165 18.4903 120.428 19.9168 119.123 20.5929L117.081 21.6504C116.038 22.1905 114.792 22.1664 113.771 21.5863C112.826 21.0493 111.683 20.9865 110.685 21.4166L104.607 24.0344L97.7976 26.3229C96.5792 26.7324 95.2632 26.75 94.0343 26.3735C92.7935 25.9933 91.4643 26.0151 90.2366 26.4358L85.8606 27.9352C84.4941 28.4034 83.3722 29.3997 82.7456 30.7013C81.9628 32.3275 80.4191 33.4551 78.6318 33.7063L70.0102 34.918L64.6735 35.668L58.3205 36.5609C57.3399 36.6987 56.408 37.0742 55.6058 37.6548C54.3036 38.5973 52.6806 38.9849 51.093 38.7325L48.712 38.354C47.752 38.2013 46.866 37.7453 46.1839 37.0527C44.6294 35.4744 42.1643 35.2445 40.3448 36.5083L36.6566 39.0702C36.0147 39.5161 35.3221 39.8842 34.5935 40.1669L29.6667 42.0785C28.5714 42.5034 27.4308 42.8006 26.2674 42.9641C25.4666 43.0766 24.6761 43.2526 23.9031 43.4903L15.4528 46.0892C14.1811 46.4803 12.8418 46.6014 11.5206 46.4448C8.15362 46.0458 5.25054 43.8918 3.89247 40.7852L2.60925 37.8498Z" fill="white"/>
<path opacity="0.112188" fill-rule="evenodd" clip-rule="evenodd" d="M133.441 93.4204C134.493 95.8269 133.874 98.6371 131.909 100.38C129.695 102.343 126.386 102.42 124.083 100.56L123.147 99.8035C121.042 98.1032 118.183 97.6723 115.67 98.6767L111.412 100.379C110.335 100.809 109.341 101.421 108.47 102.187L105.626 104.689C103.834 106.265 101.205 106.436 99.225 105.104C97.3273 103.828 94.822 103.926 93.0302 105.347L91.1795 106.815C89.2617 108.336 86.5369 108.291 84.6699 106.708C83.3174 105.562 81.469 105.194 79.7807 105.736L77.8328 106.362C75.9587 106.964 73.9207 106.779 72.1849 105.851C70.2064 104.793 67.8501 104.709 65.8007 105.622L63.9517 106.446C61.8792 107.37 60.4719 109.346 60.2768 111.607L60.1813 112.713C59.9873 114.961 58.2657 116.778 56.0308 117.092C54.9696 117.241 53.8888 117.034 52.9579 116.503L48.9219 114.201C47.4134 113.341 45.6621 113.005 43.9424 113.247L41.6325 113.571C39.8607 113.82 38.4175 115.12 37.9848 116.856C37.552 118.592 36.1088 119.892 34.337 120.141L32.4262 120.409C31.1013 120.595 29.7507 120.411 28.5239 119.877L26.7883 119.122C25.5334 118.576 24.1518 118.387 22.7964 118.578L22.5321 118.615C20.7841 118.861 19.0093 118.413 17.587 117.367L16.4685 116.545C15.7167 115.992 15.2197 115.16 15.0898 114.236C14.8852 112.78 15.6218 111.353 16.9273 110.677L18.9695 109.62C20.0124 109.08 21.2577 109.104 22.2789 109.684C23.2243 110.221 24.3668 110.284 25.3654 109.854L31.4427 107.236L38.2525 104.947C39.4709 104.538 40.7869 104.52 42.0158 104.897C43.2566 105.277 44.5858 105.255 45.8135 104.834L50.1895 103.335C51.556 102.867 52.678 101.871 53.3045 100.569C54.0874 98.9427 55.631 97.8151 57.4183 97.5639L66.0399 96.3522L71.3766 95.6022L77.7296 94.7093C78.7102 94.5715 79.6422 94.196 80.4443 93.6154C81.7466 92.6729 83.3695 92.2853 84.9572 92.5377L87.3381 92.9162C88.2982 93.0689 89.1841 93.5249 89.8662 94.2175C91.4207 95.7958 93.8858 96.0257 95.7053 94.7619L99.3936 92.2C100.035 91.7541 100.728 91.386 101.457 91.1033L106.383 89.1917C107.479 88.7668 108.619 88.4696 109.783 88.3061C110.583 88.1936 111.374 88.0176 112.147 87.7799L120.597 85.181C121.869 84.7899 123.208 84.6688 124.53 84.8254C127.897 85.2245 130.8 87.3784 132.158 90.485L133.441 93.4204Z" fill="white"/>
<path opacity="0.112188" fill-rule="evenodd" clip-rule="evenodd" d="M-3.70715 93.6338C-5.41362 90.3634 -4.45113 86.3358 -1.45046 84.1903C0.990051 82.4453 4.24261 82.3465 6.78459 83.94L8.59831 85.077C11.3074 86.7753 14.6385 87.1594 17.6629 86.1222L23.5479 84.1041C24.9288 83.6305 26.2344 82.961 27.4249 82.1161L31.1607 79.4646C33.5078 77.7987 36.5877 77.5799 39.1467 78.8972C41.5953 80.1576 44.5305 80.0153 46.8457 78.5239L49.7373 76.6611C52.129 75.1204 55.2049 75.1377 57.5791 76.7052C59.3195 77.8543 61.4736 78.1896 63.4809 77.6238L66.4995 76.773C68.7853 76.1288 71.2201 76.2592 73.424 77.144C75.9267 78.1487 78.7155 78.1766 81.2377 77.222L84.5496 75.9686C86.7782 75.1252 88.3735 73.1389 88.7164 70.7809C89.1355 67.8983 91.4065 65.6381 94.291 65.2327L94.4726 65.2071C95.7063 65.0338 96.964 65.2027 98.1083 65.6954L103.138 67.8615C105.053 68.6859 107.157 68.9685 109.221 68.6784L113.044 68.141C114.92 67.8774 116.491 66.5865 117.114 64.7971C117.736 63.0078 119.307 61.7169 121.183 61.4532L124.48 60.9899C126.046 60.7699 127.641 60.906 129.146 61.3882L131.28 62.0716C132.919 62.5965 134.655 62.7447 136.359 62.5052L137.611 62.3293C139.294 62.0927 141.009 62.4187 142.488 63.2566L144.457 64.3724C145.301 64.8504 145.874 65.6934 146.009 66.6538C146.205 68.0434 145.449 69.3925 144.161 69.9513L140.795 71.413C139.5 71.9752 138.03 71.9785 136.732 71.4222C135.529 70.9064 134.175 70.8702 132.946 71.3211L125.036 74.2234L116.262 76.7984C114.734 77.2466 113.119 77.3056 111.563 76.9699C109.993 76.631 108.362 76.6944 106.822 77.1541L100.833 78.9426C99.2818 79.4057 97.951 80.4145 97.0862 81.7827C96.0346 83.4465 94.3045 84.5637 92.3553 84.8377L80.8325 86.4571L74.0487 87.4105L65.9141 88.5537C64.7001 88.7244 63.5318 89.1336 62.4767 89.7578C60.7805 90.7613 58.8092 91.1994 56.8476 91.0088L53.665 90.6995C52.5005 90.5863 51.3942 90.1366 50.481 89.4054C48.5532 87.8616 45.8785 87.6504 43.7323 88.8725L38.4788 91.8639C37.6328 92.3457 36.7417 92.7435 35.8182 93.0518L30.9803 94.6667C28.5874 95.4654 26.1267 96.0439 23.6286 96.395L10.958 99.8323C9.58702 100.204 8.16396 100.347 6.74635 100.255L4.74677 100.126C1.49093 99.9145 -1.41867 98.0195 -2.92802 95.1269L-3.70715 93.6338Z" fill="white"/>
<path opacity="0.112188" fill-rule="evenodd" clip-rule="evenodd" d="M139.757 37.6363C141.464 40.9066 140.501 44.9343 137.501 47.0798C135.06 48.8247 131.808 48.9236 129.266 47.33L127.452 46.193C124.743 44.4947 121.412 44.1106 118.387 45.1478L112.502 47.166C111.121 47.6395 109.816 48.309 108.625 49.1539L104.889 51.8055C102.542 53.4713 99.4624 53.6901 96.9034 52.3728C94.4548 51.1124 91.5196 51.2547 89.2044 52.7461L86.3128 54.6089C83.9212 56.1496 80.8452 56.1323 78.471 54.5648C76.7307 53.4157 74.5765 53.0805 72.5692 53.6462L69.5506 54.497C67.2648 55.1412 64.83 55.0108 62.6261 54.126C60.1234 53.1213 57.3347 53.0935 54.8124 54.048L51.5005 55.3014C49.2719 56.1448 47.6766 58.1311 47.3337 60.4891C46.9147 63.3717 44.6436 65.632 41.7591 66.0374L41.5775 66.0629C40.3438 66.2363 39.0861 66.0674 37.9418 65.5746L32.9119 63.4086C30.9975 62.5841 28.8934 62.3016 26.8293 62.5916L23.006 63.129C21.1299 63.3926 19.5589 64.6835 18.9365 66.4729C18.3141 68.2622 16.7431 69.5531 14.867 69.8168L11.5701 70.2801C10.0046 70.5002 8.40957 70.364 6.90396 69.8818L4.76998 69.1984C3.13114 68.6735 1.39497 68.5253 -0.309123 68.7648L-1.56082 68.9407C-3.24411 69.1773 -4.95841 68.8513 -6.43738 68.0134L-8.4069 66.8976C-9.25066 66.4196 -9.8243 65.5766 -9.95927 64.6163C-10.1546 63.2266 -9.3985 61.8775 -8.11128 61.3187L-4.74443 59.8571C-3.44941 59.2949 -1.97988 59.2915 -0.682325 59.8479C0.520652 60.3636 1.87533 60.3998 3.10412 59.9489L11.0145 57.0466L19.7884 54.4716C21.3156 54.0234 22.9308 53.9645 24.4867 54.3001C26.0574 54.639 27.6883 54.5756 29.228 54.1159L35.2174 52.3275C36.7683 51.8644 38.0991 50.8555 38.9639 49.4873C40.0156 47.8235 41.7457 46.7063 43.6948 46.4323L55.2176 44.8129L62.0014 43.8595L70.136 42.7163C71.3501 42.5457 72.5183 42.1364 73.5735 41.5122C75.2696 40.5087 77.2409 40.0706 79.2025 40.2613L82.3852 40.5706C83.5496 40.6837 84.6559 41.1334 85.5691 41.8647C87.4969 43.4085 90.1716 43.6197 92.3178 42.3975L97.5713 39.4061C98.4173 38.9243 99.3085 38.5265 100.232 38.2182L105.07 36.6033C107.463 35.8046 109.923 35.2261 112.422 34.875L125.092 31.4377C126.463 31.0658 127.886 30.9229 129.304 31.0148L131.303 31.1444C134.559 31.3555 137.469 33.2505 138.978 36.1431L139.757 37.6363Z" fill="white"/>
</g>
</svg>
