<svg width="775" height="1010" viewBox="0 0 775 1010" fill="none" xmlns="http://www.w3.org/2000/svg">
<path opacity="0.1" fill-rule="evenodd" clip-rule="evenodd" d="M29.741 21.5634L7.02201 296.756C3.02677 320.234 1.10598 343.86 1.19186 367.376L0.690545 373.468L1.25487 373.166C3.73547 513.53 77.6451 649.138 208.069 724.446L604.872 953.539C802.705 1067.76 1055.67 999.976 1169.89 802.143L1251.04 661.593L1378.89 558.139C1548.48 420.913 1580.56 178.093 1459.83 2.59994L1460.18 2.60743L1197.62 -368.968L1197.57 -368.371C1096.17 -505.913 914.836 -571.994 741.166 -517.756L319.942 -386.202C139.225 -329.762 23.9163 -160.202 29.741 21.5634ZM1157.5 143.732C1181.1 193.463 1206.24 246.423 1188.8 275.571C1186.21 279.912 1183.26 284.924 1179.97 290.519C1154.97 333.006 1110.17 409.132 1049.68 480.828C1018.02 518.352 892.93 641.044 860.104 644.649C793.876 651.922 427.477 520.319 389.902 504.022C352.326 487.724 337.065 457.888 355.107 322.359C369.541 213.937 375.739 9.78704 377.034 -78.7351C380.052 -96.1984 403.83 -131.936 474.797 -135.179C563.507 -139.233 825.476 -180.84 884.584 -204.565C943.693 -228.291 1006.39 -184.749 1032.7 -116.155C1047.02 -78.8424 1057.99 -57.2903 1078.19 -17.6441C1095.12 15.5925 1118.53 61.5456 1155.81 140.162C1156.37 141.35 1156.94 142.54 1157.5 143.732Z" fill="url(#paint0_linear_165_4208)"/>
<defs>
<linearGradient id="paint0_linear_165_4208" x1="1382.48" y1="-133.942" x2="81.9308" y2="616.932" gradientUnits="userSpaceOnUse">
<stop stop-color="#0058FF"/>
<stop offset="0.234375" stop-color="#F700FE"/>
<stop offset="1" stop-color="#F700FE" stop-opacity="0"/>
</linearGradient>
</defs>
</svg>
