<svg width="56" height="80" viewBox="0 0 56 80" fill="none" xmlns="http://www.w3.org/2000/svg">
<circle r="36.7319" transform="matrix(-1 0 0 1 40.2789 39.8845)" fill="#210080"/>
<mask id="mask0_165_5306" style="mask-type:luminance" maskUnits="userSpaceOnUse" x="3" y="3" width="75" height="74">
<circle r="36.7319" transform="matrix(-1 0 0 1 40.2789 39.8845)" fill="white"/>
</mask>
<g mask="url(#mask0_165_5306)">
<circle r="43.5914" transform="matrix(-1 0 0 1 17.9301 34.3524)" fill="white" fill-opacity="0.1"/>
<path d="M10.5315 6.45386C10.5315 6.45386 13.4367 16.3395 21.6496 20.5891C29.8624 24.8387 34.031 16.9016 44.2571 23.9045C54.4832 30.9075 53.1204 36.0879 59.3484 39.8842C65.5763 43.6805 78.0337 39.8842 78.0337 39.8842L90.3613 44.5941" stroke="#161424" stroke-width="2"/>
<path d="M89.0339 69.4568C89.0339 69.4568 85.4424 57.2357 75.2893 51.9822C65.1362 46.7286 59.9828 56.5408 47.3409 47.8835C34.6989 39.2261 36.3836 32.8219 28.6843 28.1287C20.9851 23.4355 5.58471 28.1287 5.58471 28.1287L-9.65527 22.3061" stroke="#161424" stroke-width="2"/>
<path d="M82.8377 84.061C82.8377 84.061 79.2462 71.84 69.093 66.5864C58.9399 61.3329 53.7865 71.1451 41.1446 62.4877C28.5026 53.8304 30.1873 47.4261 22.4881 42.7329C14.7888 38.0397 -0.611579 42.7329 -0.611579 42.7329L-15.8516 36.9104" stroke="#161424" stroke-width="2"/>
<path d="M-2.74485 43.1858C-2.74485 43.1858 0.16033 53.0714 8.37319 57.321C16.586 61.5706 20.7546 53.6335 30.9807 60.6365C41.2068 67.6394 39.8441 72.8198 46.072 76.6161C52.2999 80.4125 64.7573 76.6161 64.7573 76.6161L77.085 81.326" stroke="#161424" stroke-width="2"/>
<path d="M-25.7581 -17.8865C-25.7581 -17.8865 -22.8529 -8.00084 -14.6401 -3.75125C-6.42722 0.498343 -2.25863 -7.43874 7.96747 -0.435793C14.4737 4.01977 18.8975 8.71478 25.4098 10.2481C29.1331 11.1248 41.2662 11.5589 45.3597 15.2359C49.4531 18.913 54.8799 24.5584 56.7718 25.524C58.6637 26.4897 60.5234 25.912 66.0435 27.9809C71.5637 30.0499 71.0582 34.1473 73.3495 35.35C75.6407 36.5526 81.2168 34.3524 81.2168 34.3524" stroke="#161424" stroke-width="2"/>
<path d="M-50.098 33.0071C-50.098 33.0071 -47.1928 42.8927 -38.9799 47.1423C-30.7671 51.3919 -26.5985 43.4548 -16.3724 50.4578C-9.86612 54.9133 -5.44239 59.6083 1.06994 61.1417C4.79324 62.0183 11.5594 59.7607 13.8249 61.1417C20.0528 64.938 13.1932 65.374 19.6475 70.182C26.1018 74.99 46.7183 85.0408 49.0096 86.2435C51.3009 87.4462 56.877 85.2459 56.877 85.2459" stroke="#161424" stroke-width="2"/>
</g>
</svg>
