<svg width="731" height="1508" viewBox="0 0 731 1508" fill="none" xmlns="http://www.w3.org/2000/svg">
<path opacity="0.1" fill-rule="evenodd" clip-rule="evenodd" d="M599.563 1170.56L692.733 910.623C702.669 888.978 710.639 866.654 716.642 843.917L718.703 838.162L718.08 838.308C752.013 702.085 715.72 551.968 609.23 445.471L285.243 121.483C123.713 -40.0467 -138.179 -40.0472 -299.708 121.483L-414.468 236.241L-564.738 303.08C-764.064 391.737 -857.902 617.979 -786.701 818.741L-787.04 818.643L-629.596 1245.51L-629.398 1244.95C-567.049 1404.05 -408.997 1514.81 -227.207 1507.37L213.713 1489.32C402.88 1481.58 558.145 1347.64 599.563 1170.56ZM-458.151 760.665C-468.076 706.521 -478.646 648.86 -454.264 625.217C-450.633 621.696 -446.487 617.618 -441.859 613.066C-406.713 578.497 -343.741 516.559 -266.753 462.962C-226.46 434.912 -73.8799 348.775 -41.2396 353.789C24.6142 363.905 344.467 585.854 376.544 611.322C408.622 636.79 415.64 669.559 363.135 795.8C321.131 896.792 262.306 1092.38 238.145 1177.55C230.71 1193.64 198.492 1222.01 129.103 1206.77C42.3675 1187.73 -221.444 1160.11 -284.679 1167.73C-347.914 1175.35 -397.206 1117.06 -404.868 1044C-409.036 1004.25 -414.063 980.593 -423.308 937.07C-431.059 900.584 -441.776 850.139 -457.439 764.552C-457.676 763.259 -457.913 761.963 -458.151 760.665Z" fill="url(#paint0_linear_165_4205)"/>
<defs>
<linearGradient id="paint0_linear_165_4205" x1="-747.334" y1="970.649" x2="703.244" y2="581.968" gradientUnits="userSpaceOnUse">
<stop stop-color="#0058FF"/>
<stop offset="0.234375" stop-color="#F700FE"/>
<stop offset="1" stop-color="#F700FE" stop-opacity="0"/>
</linearGradient>
</defs>
</svg>
