<svg width="858" height="679" viewBox="0 0 858 679" fill="none" xmlns="http://www.w3.org/2000/svg">
<g clip-path="url(#clip0_167_3355)">
<path d="M362.428 377.212C360.386 383.519 363.846 390.288 370.155 392.326L695.86 497.561C706.705 501.066 718.366 495.279 722.135 484.522L809.982 233.774C813.044 225.033 808.068 215.526 799.14 213.061L461.799 119.917C453.543 117.638 444.956 122.264 442.318 130.413L362.428 377.212Z" fill="#1C1A2E" stroke="black" stroke-width="2"/>
<path d="M460.893 169.348C462.044 165.807 465.766 163.786 469.362 164.75L497.621 172.321C501.493 173.359 503.704 177.43 502.467 181.243L437.259 382.268C436.07 385.933 432.144 387.948 428.473 386.777L400.541 377.866C396.844 376.686 394.812 372.724 396.011 369.034L460.893 169.348Z" stroke="black" stroke-width="2"/>
<path d="M493.005 260.715C494.153 257.09 497.985 255.044 501.636 256.107L720.864 319.951C724.714 321.072 726.837 325.193 725.516 328.979L681.348 455.5C680.101 459.073 676.241 461.007 672.633 459.868L458.684 392.344C454.995 391.18 452.95 387.244 454.117 383.556L493.005 260.715Z" stroke="black" stroke-width="2"/>
<path d="M518.436 186.16C519.61 182.586 523.399 180.58 527.015 181.617L749.429 245.382C753.348 246.505 755.481 250.726 754.062 254.547L736.411 302.09C735.139 305.516 731.445 307.387 727.93 306.385L507.259 243.48C503.436 242.391 501.286 238.34 502.528 234.563L518.436 186.16Z" fill="url(#paint0_linear_167_3355)" stroke="black" stroke-width="2"/>
<path fill-rule="evenodd" clip-rule="evenodd" d="M178.173 429.361C175.247 428.332 175.616 424.081 178.675 423.572L353.427 394.452C361.125 393.17 369.018 393.744 376.449 396.128L698.892 499.57C703.484 501.043 703.536 507.521 698.968 509.067L565.063 554.38C554.686 557.892 543.433 557.825 533.099 554.19L178.173 429.361Z" fill="#373451" stroke="black" stroke-width="2"/>
<path fill-rule="evenodd" clip-rule="evenodd" d="M298.898 461.08C296.947 460.398 297.186 457.566 299.224 457.221L336.713 450.874C341.475 450.067 346.363 450.463 350.933 452.025L473.564 493.936C475.479 494.59 475.321 497.35 473.344 497.782L437.242 505.674C432.904 506.622 428.388 506.348 424.197 504.883L298.898 461.08Z" fill="#1C1A2E" stroke="black" stroke-width="2"/>
<path d="M179.464 429.321V429.321C177.609 436.245 181.371 443.435 188.117 445.858L528.707 568.178C538.642 571.745 549.501 571.788 559.463 568.298L691.63 522.002C694.125 521.128 696.028 519.076 696.712 516.522L698.844 508.566" stroke="black" stroke-width="2" stroke-linecap="round"/>
<path fill-rule="evenodd" clip-rule="evenodd" d="M281.594 420.169C279.617 419.509 279.841 416.643 281.897 416.299L365.977 402.242L662.61 498.347C664.475 498.951 664.448 501.598 662.571 502.164L594.563 522.674C592.585 523.271 590.47 523.24 588.51 522.586L281.594 420.169Z" stroke="black" stroke-width="2"/>
<path d="M332.374 419.888L591.423 504.529" stroke="black" stroke-width="2" stroke-linecap="round"/>
<path d="M367.674 416.022L626.723 500.663" stroke="black" stroke-width="2" stroke-linecap="round"/>
<path d="M365.991 436.51L410.775 425.667" stroke="black" stroke-width="2" stroke-linecap="round"/>
<path d="M405.889 451.008L450.673 440.165" stroke="black" stroke-width="2" stroke-linecap="round"/>
<path d="M444.01 465.03L488.794 454.187" stroke="black" stroke-width="2" stroke-linecap="round"/>
<path d="M490.187 477.403L534.971 466.56" stroke="black" stroke-width="2" stroke-linecap="round"/>
<path d="M529.261 487.872L574.045 477.029" stroke="black" stroke-width="2" stroke-linecap="round"/>
<path fill-rule="evenodd" clip-rule="evenodd" d="M587.918 155.114L585.009 164.547C584.515 166.148 585.428 167.844 587.037 168.312L653.769 187.73C655.282 188.171 656.879 187.365 657.423 185.885L661.298 175.346" fill="url(#paint1_linear_167_3355)"/>
<path d="M587.918 155.114L585.009 164.547C584.515 166.148 585.428 167.844 587.037 168.312L653.769 187.73C655.282 188.171 656.879 187.365 657.423 185.885L661.298 175.346" stroke="black" stroke-width="2"/>
<path opacity="0.143438" fill-rule="evenodd" clip-rule="evenodd" d="M343.907 389.08L341.724 391.896L339.54 389.08L336.724 386.896L339.54 384.712L341.724 381.896L343.907 384.712L346.724 386.896L343.907 389.08Z" fill="#979797"/>
<path opacity="0.143438" fill-rule="evenodd" clip-rule="evenodd" d="M720.908 250.08L718.724 252.896L716.541 250.08L713.724 247.896L716.541 245.712L718.724 242.896L720.908 245.712L723.724 247.896L720.908 250.08Z" fill="#979797"/>
<path opacity="0.143438" fill-rule="evenodd" clip-rule="evenodd" d="M663.908 566.08L661.724 568.896L659.541 566.08L656.724 563.896L659.541 561.712L661.724 558.896L663.908 561.712L666.724 563.896L663.908 566.08Z" fill="#979797"/>
<path opacity="0.0904018" fill-rule="evenodd" clip-rule="evenodd" d="M127.507 347.411L123 343.917L127.507 340.424L131 335.917L134.494 340.424L139 343.917L134.494 347.411L131 351.917L127.507 347.411Z" fill="#979797"/>
<path opacity="0.0904018" fill-rule="evenodd" clip-rule="evenodd" d="M297.507 68.4109L293 64.9172L297.507 61.4235L301 56.9172L304.494 61.4235L309 64.9172L304.494 68.4109L301 72.9172L297.507 68.4109Z" fill="#979797"/>
<path opacity="0.0904018" fill-rule="evenodd" clip-rule="evenodd" d="M504.507 208.411L500 204.917L504.507 201.424L508 196.917L511.494 201.424L516 204.917L511.494 208.411L508 212.917L504.507 208.411Z" fill="#979797"/>
<path opacity="0.0904018" fill-rule="evenodd" clip-rule="evenodd" d="M447.507 524.411L443 520.917L447.507 517.424L451 512.917L454.494 517.424L459 520.917L454.494 524.411L451 528.917L447.507 524.411Z" fill="#979797"/>
<path opacity="0.0904018" fill-rule="evenodd" clip-rule="evenodd" d="M227.507 617.411L223 613.917L227.507 610.424L231 605.917L234.494 610.424L239 613.917L234.494 617.411L231 621.917L227.507 617.411Z" fill="#979797"/>
<path fill-rule="evenodd" clip-rule="evenodd" d="M351.183 587.88L346.677 584.386L351.183 580.893L354.677 576.386L358.171 580.893L362.677 584.386L358.171 587.88L354.677 592.386L351.183 587.88Z" fill="#2FFD61"/>
<path fill-rule="evenodd" clip-rule="evenodd" d="M528.507 324.411L524 320.917L528.507 317.424L532 312.917L535.494 317.424L540 320.917L535.494 324.411L532 328.917L528.507 324.411Z" fill="#979797"/>
<path fill-rule="evenodd" clip-rule="evenodd" d="M772.603 500.647L768.096 497.153L772.603 493.659L776.096 489.153L779.59 493.659L784.096 497.153L779.59 500.647L776.096 505.153L772.603 500.647Z" fill="#210080"/>
<path fill-rule="evenodd" clip-rule="evenodd" d="M326.507 220.411L322 216.917L326.507 213.424L330 208.917L333.494 213.424L338 216.917L333.494 220.411L330 224.917L326.507 220.411Z" fill="#F700FE"/>
<path fill-rule="evenodd" clip-rule="evenodd" d="M696.289 127.194L691.783 123.7L696.289 120.206L699.783 115.7L703.276 120.206L707.783 123.7L703.276 127.194L699.783 131.7L696.289 127.194Z" fill="#2FFD61"/>
<path fill-rule="evenodd" clip-rule="evenodd" d="M646.507 397.411L642 393.917L646.507 390.424L650 385.917L653.494 390.424L658 393.917L653.494 397.411L650 401.917L646.507 397.411Z" fill="#979797"/>
<path fill-rule="evenodd" clip-rule="evenodd" d="M54.7031 284.831C50.4258 277.831 50.2409 269.071 54.2191 261.896C57.4821 256.011 63.1788 251.869 69.7831 250.579L160.558 232.849C173.457 230.33 186.621 235.705 194.07 246.531L354.414 479.569C356.651 482.82 357.474 486.839 356.695 490.707C353.594 506.1 342.553 518.689 327.696 523.77L247.686 551.136C233.054 556.14 216.909 550.313 208.847 537.117L54.7031 284.831Z" fill="#1C1A2E" stroke="black" stroke-width="2"/>
<path fill-rule="evenodd" clip-rule="evenodd" d="M62.7148 278.144C54.7457 265.055 61.5649 247.979 76.3585 243.98L168.501 219.073C178.141 216.467 188.362 220.38 193.797 228.758L349.657 468.996C358.863 483.187 352.281 502.252 336.28 507.74L245.381 538.918C233.833 542.879 221.086 538.272 214.737 527.845L62.7148 278.144Z" fill="#373451" stroke="black" stroke-width="2"/>
<path fill-rule="evenodd" clip-rule="evenodd" d="M90.7827 241.039L92.6729 244.294C95.2029 248.649 100.368 250.729 105.211 249.344L150.614 236.353C154.598 235.213 156.254 230.473 153.847 227.099L151.422 223.7" fill="#2E2B46"/>
<path d="M90.7827 241.039L92.6729 244.294C95.2029 248.649 100.368 250.729 105.211 249.344L150.614 236.353C154.598 235.213 156.254 230.473 153.847 227.099L151.422 223.7" stroke="black" stroke-width="2" stroke-linecap="round"/>
<path fill-rule="evenodd" clip-rule="evenodd" d="M289.181 528.95C289.28 528.001 289.918 527.194 290.819 526.879L301.761 523.047C303.566 522.415 305.414 523.878 305.214 525.78C305.107 526.805 304.405 527.67 303.424 527.987L292.393 531.555C290.695 532.104 288.994 530.724 289.181 528.95Z" fill="#373451" stroke="black" stroke-width="2"/>
<path fill-rule="evenodd" clip-rule="evenodd" d="M202.079 468.628C199.725 464.779 201.574 459.741 205.858 458.328L214.229 455.567C219.78 453.736 225.87 455.835 229.115 460.697L232.975 466.482C235.897 470.862 233.865 476.821 228.876 478.503L222.254 480.736C216.061 482.824 209.247 480.349 205.838 474.774L202.079 468.628Z" fill="#0058FF" fill-opacity="0.1"/>
<path fill-rule="evenodd" clip-rule="evenodd" d="M224.247 498.625C221.844 494.764 223.703 489.672 228.03 488.269L236.533 485.509C242.033 483.725 248.051 485.788 251.3 490.571L255.083 496.142C258.065 500.534 256.022 506.559 250.983 508.23L244.242 510.465C238.102 512.501 231.367 510.066 227.949 504.574L224.247 498.625Z" fill="#161424"/>
<path fill-rule="evenodd" clip-rule="evenodd" d="M239.476 454.851C237.122 451.002 238.97 445.964 243.255 444.551L251.626 441.79C257.177 439.959 263.267 442.058 266.512 446.92L270.372 452.705C273.294 457.085 271.262 463.044 266.273 464.726L259.651 466.959C253.458 469.047 246.644 466.572 243.235 460.997L239.476 454.851Z" fill="#0058FF"/>
<path fill-rule="evenodd" clip-rule="evenodd" d="M274.822 442.721C272.468 438.872 274.317 433.835 278.601 432.421L286.972 429.66C292.523 427.829 298.614 429.928 301.858 434.791L305.718 440.576C308.64 444.956 306.608 450.915 301.619 452.597L294.997 454.83C288.804 456.917 281.991 454.443 278.581 448.867L274.822 442.721Z" fill="#FFEC6A"/>
<path fill-rule="evenodd" clip-rule="evenodd" d="M260.247 485.625C257.844 481.764 259.703 476.672 264.03 475.269L272.533 472.509C278.033 470.725 284.051 472.788 287.3 477.571L291.083 483.142C294.065 487.534 292.022 493.559 286.983 495.23L280.242 497.465C274.102 499.501 267.367 497.066 263.949 491.574L260.247 485.625Z" fill="#0058FF" fill-opacity="0.1"/>
<path fill-rule="evenodd" clip-rule="evenodd" d="M295.247 474.625C292.844 470.764 294.703 465.672 299.03 464.269L307.533 461.509C313.033 459.725 319.051 461.788 322.3 466.571L326.083 472.142C329.065 476.534 327.022 482.559 321.983 484.23L315.242 486.465C309.102 488.501 302.367 486.066 298.949 480.574L295.247 474.625Z" fill="#F700FE"/>
<path fill-rule="evenodd" clip-rule="evenodd" d="M124.026 309.991C121.862 306.607 123.569 302.095 127.43 300.989L188.18 283.6C193.696 282.021 199.595 284.245 202.695 289.073L264.761 385.708C267.547 390.047 265.562 395.849 260.702 397.572L204.682 417.428C198.984 419.448 192.645 417.272 189.388 412.18L124.026 309.991Z" fill="#161424"/>
<path fill-rule="evenodd" clip-rule="evenodd" d="M129.026 285.991C126.862 282.607 128.569 278.095 132.43 276.989L193.18 259.6C198.696 258.021 204.595 260.245 207.695 265.073L269.761 361.708C272.547 366.047 270.562 371.849 265.702 373.572L209.682 393.428C203.984 395.448 197.645 393.272 194.388 388.18L129.026 285.991Z" fill="#FFEC6A"/>
<circle cx="215.783" cy="307.7" r="34" fill="#1C1A2E"/>
<mask id="mask0_167_3355" style="mask-type:alpha" maskUnits="userSpaceOnUse" x="181" y="273" width="69" height="69">
<circle cx="215.783" cy="307.7" r="34" fill="white"/>
</mask>
<g mask="url(#mask0_167_3355)">
<circle cx="236.783" cy="302.7" r="40" fill="#373451"/>
<path d="M242.783 276.7C242.783 276.7 240.09 286.031 232.477 290.042C224.864 294.053 220.999 286.562 211.52 293.172C202.041 299.782 203.304 304.671 197.531 308.255C191.758 311.838 180.21 308.255 180.21 308.255L168.783 312.7" stroke="#161424" stroke-width="2"/>
<path d="M170.783 334.7C170.783 334.7 174.094 323.296 183.456 318.393C192.818 313.491 197.57 322.647 209.227 314.568C220.884 306.49 219.331 300.513 226.43 296.134C233.53 291.754 247.73 296.134 247.73 296.134L261.783 290.7" stroke="#161424" stroke-width="2"/>
<path d="M176.783 348.7C176.783 348.7 180.094 337.296 189.456 332.393C198.818 327.491 203.57 336.647 215.227 328.568C226.884 320.49 225.331 314.513 232.43 310.134C239.53 305.754 253.73 310.134 253.73 310.134L267.783 304.7" stroke="#161424" stroke-width="2"/>
<path d="M255.783 310.7C255.783 310.7 253.09 320.031 245.477 324.042C237.864 328.053 233.999 320.562 224.52 327.172C215.041 333.782 216.304 338.671 210.531 342.255C204.758 345.838 193.21 342.255 193.21 342.255L181.783 346.7" stroke="#161424" stroke-width="2"/>
<path d="M276.783 254.7C276.783 254.7 274.094 263.911 266.494 267.871C258.893 271.831 255.035 264.435 245.571 270.96C239.55 275.112 235.456 279.486 229.429 280.915C225.984 281.732 214.755 282.136 210.967 285.563C207.178 288.989 202.156 294.249 200.405 295.149C198.654 296.048 196.933 295.51 191.825 297.438C186.716 299.366 187.184 303.184 185.064 304.304C182.943 305.425 177.783 303.375 177.783 303.375" stroke="#161424" stroke-width="2"/>
<path d="M299.783 300.7C299.783 300.7 297.094 309.911 289.494 313.871C281.893 317.831 278.035 310.435 268.571 316.96C262.55 321.112 258.456 325.486 252.429 326.915C248.984 327.732 242.722 325.628 240.625 326.915C234.862 330.452 241.21 330.859 235.237 335.339C229.264 339.819 210.184 349.184 208.064 350.304C205.943 351.425 200.783 349.375 200.783 349.375" stroke="#161424" stroke-width="2"/>
</g>
<g opacity="0.4">
<circle cx="290.864" cy="144.5" r="31.2163" fill="url(#paint2_linear_167_3355)"/>
<mask id="mask1_167_3355" style="mask-type:alpha" maskUnits="userSpaceOnUse" x="259" y="113" width="64" height="63">
<circle cx="290.864" cy="144.5" r="31.2163" fill="white"/>
</mask>
<g mask="url(#mask1_167_3355)">
<circle opacity="0.480911" cx="309.817" cy="142.269" r="36.7906" fill="white" fill-opacity="0.18"/>
</g>
</g>
<path d="M533.477 203.334L659.369 241.944" stroke="black" stroke-width="2" stroke-linecap="round"/>
<path d="M607.93 241.943L686.369 265.943" stroke="black" stroke-width="2" stroke-linecap="round"/>
<path d="M568.693 228.943L586.724 235.037" stroke="black" stroke-width="2" stroke-linecap="round"/>
<path d="M526.477 232.334L652.369 270.944" stroke="black" stroke-width="2" stroke-linecap="round"/>
<path d="M312.314 350.7L349.017 308.751C351.751 305.627 356.756 306.157 358.775 309.784L383.765 354.683C385.634 358.041 390.134 358.801 393.002 356.242L551.653 214.7" stroke="#4E479D" stroke-width="11" stroke-linecap="round"/>
</g>
<defs>
<linearGradient id="paint0_linear_167_3355" x1="464.089" y1="142.529" x2="835.504" y2="318.793" gradientUnits="userSpaceOnUse">
<stop stop-color="#0058FF"/>
<stop offset="1" stop-color="#F700FE"/>
</linearGradient>
<linearGradient id="paint1_linear_167_3355" x1="566.55" y1="127.771" x2="687.26" y2="196.335" gradientUnits="userSpaceOnUse">
<stop stop-color="#0058FF"/>
<stop offset="1" stop-color="#F700FE"/>
</linearGradient>
<linearGradient id="paint2_linear_167_3355" x1="232.875" y1="117.783" x2="365.887" y2="175.716" gradientUnits="userSpaceOnUse">
<stop stop-color="#0058FF"/>
<stop offset="1" stop-color="#F700FE"/>
</linearGradient>
<clipPath id="clip0_167_3355">
<rect width="846" height="652" fill="white" transform="translate(12 26.002)"/>
</clipPath>
</defs>
</svg>
