<svg width="574" height="700" viewBox="0 0 574 700" fill="none" xmlns="http://www.w3.org/2000/svg">
<path fill-rule="evenodd" clip-rule="evenodd" d="M353.942 77.8583C353.942 77.8583 348.387 47.7139 350.488 39.082C352.59 30.4501 364.523 34.3897 364.523 34.3897C364.523 34.3897 362.282 14.2468 361.024 7.52836C360.547 4.97759 368.523 1.06187 370.265 7.52836C373.448 19.343 374.819 34.3897 374.819 34.3897C374.819 34.3897 384.914 18.5516 387.828 15.8045C389.539 14.1922 396.665 18.5391 394.686 22.0896C387.828 34.3897 385.366 39.082 385.366 39.082C385.366 39.082 393.339 48.7552 393.11 54.8609C392.972 58.5533 389.983 64.7671 388.862 69.1262C384.4 86.4773 374.819 86.1939 374.819 86.1939L353.942 77.8583Z" fill="#403D5E"/>
<path d="M350.488 39.082C348.387 47.7139 353.942 77.8583 353.942 77.8583L374.819 86.1939C370.674 82.6826 370.056 32.2872 370.265 7.52836C368.523 1.06187 360.547 4.97759 361.024 7.52836C362.282 14.2468 364.523 34.3897 364.523 34.3897C364.523 34.3897 352.59 30.4501 350.488 39.082Z" fill="white" fill-opacity="0.05"/>
<path d="M353.31 40.5884C353.31 40.5884 364.158 56.9349 367.606 58.9342C371.055 60.9336 377.561 64.5756 376.313 54.9918C375.065 45.4079 364.523 34.3896 364.523 34.3896" stroke="black" stroke-width="2" stroke-linecap="round"/>
<path d="M373.448 44.7996C373.448 44.7996 376.543 42.3513 378.566 41.3807C380.589 40.4102 385.366 39.082 385.366 39.082" stroke="black" stroke-width="2"/>
<path d="M375.566 60.1777L392.939 55.5806" stroke="black" stroke-width="2"/>
<path d="M376.47 52.1344C376.47 52.1344 380.347 49.6877 382.736 48.9635C385.125 48.2393 390.606 47.8486 390.606 47.8486" stroke="black" stroke-width="2"/>
<path d="M344.329 90.3088L346.951 83.7666" stroke="black" stroke-width="2"/>
<path d="M381.931 102.234L382.74 93.2222" stroke="black" stroke-width="2"/>
<path fill-rule="evenodd" clip-rule="evenodd" d="M220.648 148.203L172.047 84.7399C166.292 77.2251 155.7 75.4512 147.811 80.6808L42.7438 150.326C32.9835 156.796 30.4003 169.999 37.0025 179.67L84.9588 249.919" fill="#12101E"/>
<path d="M220.648 148.203L172.047 84.7399C166.292 77.2251 155.7 75.4512 147.811 80.6808L42.7438 150.326C32.9835 156.796 30.4003 169.999 37.0025 179.67L84.9588 249.919" stroke="black" stroke-width="2" stroke-linecap="round"/>
<path d="M223.081 138.726L223.276 138.59L223.389 138.379L236.67 113.598L258.641 108.276C265.441 106.629 272.555 109.316 276.568 115.047L420.327 320.356C425.73 328.072 423.829 338.709 416.09 344.077L219.103 480.686C214.448 483.915 208.491 484.612 203.216 482.546L175.31 471.617L52.653 277.849C47.7957 270.176 49.8271 260.04 57.2662 254.831L223.081 138.726Z" fill="#12101E" stroke="black" stroke-width="2"/>
<circle cx="350.308" cy="238.049" r="7.15474" fill="#403D5E"/>
<circle cx="350.976" cy="237.498" r="5.20345" fill="#161424"/>
<rect x="246.754" y="105.516" width="270" height="270" rx="17" transform="rotate(55 246.754 105.516)" fill="#12101E" stroke="black" stroke-width="2"/>
<path opacity="0.394996" fill-rule="evenodd" clip-rule="evenodd" d="M129.506 388.843L130 303.022L217.746 407.695L231.562 436.609L230.691 441.903L226.766 447.636L214.848 456.268L149.259 374.301L129.506 388.843Z" fill="#0B0A13"/>
<ellipse cx="135.5" cy="198.242" rx="55.5" ry="38.5" fill="#0058FF"/>
<path fill-rule="evenodd" clip-rule="evenodd" d="M191.953 189.845C191.953 189.845 197.206 166.612 176.096 142.941C154.985 119.269 123.051 113.201 98.4051 127.103C73.7594 141.005 65.7155 176.913 80.1832 207.667C94.6509 238.421 126.013 236.645 126.013 236.645" fill="#0058FF"/>
<path d="M191.953 189.845C191.953 189.845 197.206 166.612 176.096 142.941C154.985 119.269 123.051 113.201 98.4051 127.103C73.7594 141.005 65.7155 176.913 80.1832 207.667C94.6509 238.421 126.013 236.645 126.013 236.645" stroke="black" stroke-width="2" stroke-linecap="round"/>
<mask id="mask0_167_2052" style="mask-type:alpha" maskUnits="userSpaceOnUse" x="72" y="118" width="122" height="120">
<path fill-rule="evenodd" clip-rule="evenodd" d="M191.953 189.845C191.953 189.845 197.206 166.612 176.096 142.941C154.985 119.269 123.051 113.201 98.4051 127.103C73.7594 141.005 65.7155 176.913 80.1832 207.667C94.6509 238.421 126.013 236.645 126.013 236.645" fill="white"/>
<path d="M191.953 189.845C191.953 189.845 197.206 166.612 176.096 142.941C154.985 119.269 123.051 113.201 98.4051 127.103C73.7594 141.005 65.7155 176.913 80.1832 207.667C94.6509 238.421 126.013 236.645 126.013 236.645" stroke="white" stroke-width="2" stroke-linecap="round"/>
</mask>
<g mask="url(#mask0_167_2052)">
<path opacity="0.629534" fill-rule="evenodd" clip-rule="evenodd" d="M112.067 255.31C64.7571 237.637 54.415 181.454 35.4785 172.571C12.7477 161.907 5.23264 166.238 -1.82724 186.029C-1.95196 186.379 54.0785 124.404 92.1536 127.721C99.4734 128.358 102.421 161.28 108.227 164.917C144.835 187.852 124.688 260.025 112.067 255.31Z" fill="#1D1B30"/>
</g>
<path fill-rule="evenodd" clip-rule="evenodd" d="M173.025 203.325C174.92 201.926 177.605 202.385 178.917 204.343C180.059 206.049 179.573 208.361 177.841 209.462L147.963 228.464C146.07 229.668 143.55 228.921 142.618 226.881C141.708 224.888 142.498 222.531 144.422 221.482C148.831 219.078 156.319 214.947 159.604 212.857C162.762 210.846 169.072 206.243 173.025 203.325Z" fill="#1C1A2E" stroke="black" stroke-width="2" stroke-linecap="round"/>
<path d="M184.001 163.363C182.703 160.033 179.078 154.806 173.871 149.306C168.64 143.782 161.734 137.899 153.786 133.283C137.888 124.051 117.645 119.821 98.4394 134.006C79.254 148.176 76.5185 169.185 79.9086 187.243C81.6039 196.274 84.8349 204.615 88.3464 211.089C90.1024 214.327 91.9364 217.113 93.6958 219.292C95.4405 221.452 97.1649 223.084 98.7179 223.933C104.568 227.131 113.754 227.648 124.603 224.822C135.488 221.986 148.18 215.755 161.158 205.252C174.032 194.833 181.06 187.676 184.196 181.456C185.783 178.309 186.381 175.393 186.242 172.429C186.105 169.488 185.245 166.551 184.001 163.363Z" fill="#1C1A2E" stroke="black" stroke-width="2"/>
<mask id="mask1_167_2052" style="mask-type:alpha" maskUnits="userSpaceOnUse" x="77" y="123" width="111" height="105">
<path d="M184.001 163.363C182.703 160.033 179.078 154.806 173.871 149.306C168.64 143.782 161.734 137.899 153.786 133.283C137.888 124.051 117.645 119.821 98.4394 134.006C79.254 148.176 76.5185 169.185 79.9086 187.243C81.6039 196.274 84.8349 204.615 88.3464 211.089C90.1024 214.327 91.9364 217.113 93.6958 219.292C95.4405 221.452 97.1649 223.084 98.7179 223.933C104.568 227.131 113.754 227.648 124.603 224.822C135.488 221.986 148.18 215.755 161.158 205.252C174.032 194.833 181.06 187.676 184.196 181.456C185.783 178.309 186.381 175.393 186.242 172.429C186.105 169.488 185.245 166.551 184.001 163.363Z" fill="white" stroke="white" stroke-width="2"/>
</mask>
<g mask="url(#mask1_167_2052)">
<ellipse opacity="0.727097" cx="101.644" cy="196.273" rx="51.6454" ry="62.156" transform="rotate(-16 101.644 196.273)" fill="#12101E"/>
</g>
<path fill-rule="evenodd" clip-rule="evenodd" d="M105.274 172.752C103.366 182.554 102.83 191.899 102.703 197.715C102.661 199.64 100.323 200.404 99.3334 198.753C95.6179 192.554 90.4467 181.395 92.6669 169.99C94.9045 158.495 103.722 151.518 109.297 148.165C110.877 147.214 112.541 148.872 111.844 150.58C109.933 155.262 107.16 163.064 105.274 172.752Z" fill="white"/>
<path d="M473.167 624.03C473.167 624.03 480.433 628.524 483.295 637.735C486.157 646.946 490.545 660.572 489.944 674.072C489.343 687.572 483.342 690.673 480.436 692.228C477.53 693.782 470.325 695.03 470.325 695.03" stroke="#2FFD61" stroke-width="2" stroke-linecap="round"/>
<path fill-rule="evenodd" clip-rule="evenodd" d="M534.341 591.407C534.341 591.407 568.558 613.984 569.57 628.936C570.581 643.889 558.938 658.4 541.012 656.918C523.085 655.435 508.07 624.215 508.07 624.215" fill="#100F1B"/>
<path d="M534.341 591.407C534.341 591.407 568.558 613.984 569.57 628.936C570.581 643.889 558.938 658.4 541.012 656.918C523.085 655.435 508.07 624.215 508.07 624.215" stroke="#050505" stroke-width="2"/>
<path fill-rule="evenodd" clip-rule="evenodd" d="M444.146 658.251C444.146 658.251 445.536 691.2 464.053 694.548C482.571 697.896 483.199 683.004 484.438 675.181C485.678 667.357 474.786 632.204 474.786 632.204" fill="#100F1B"/>
<path d="M444.146 658.251C444.146 658.251 445.536 691.2 464.053 694.548C482.571 697.896 483.199 683.004 484.438 675.181C485.678 667.357 474.786 632.204 474.786 632.204" stroke="#050505" stroke-width="2" stroke-linecap="round"/>
<path d="M449.696 450.784C435.17 432.785 416.828 416.628 399.193 401.094C398.132 400.16 397.074 399.227 396.019 398.297C377.389 381.867 359.889 366.077 348.664 349.355C337.358 332.514 316.367 300.415 298.199 272.52C289.115 258.574 280.738 245.681 274.633 236.274C271.58 231.571 269.095 227.739 267.373 225.084C266.686 224.025 266.121 223.154 265.69 222.488C266.387 222.485 267.261 222.481 268.279 222.473C271.003 222.453 274.753 222.41 278.852 222.321C287.032 222.143 296.671 221.778 302.321 221.024C325.535 217.926 341.504 211.691 348.291 207.818C355.907 203.472 359.441 198.544 361.905 192.326C363.098 189.317 364.041 186.002 365.081 182.351L365.145 182.127C366.213 178.374 367.399 174.232 369.081 169.583C372.487 160.166 376.264 146.88 379.114 134.762C380.539 128.701 381.736 122.92 382.538 118.049C383.336 113.207 383.76 109.182 383.601 106.678C383.442 104.175 382.784 102.41 381.51 101.276C380.254 100.159 378.589 99.8306 376.854 99.7321C375.814 99.6731 374.615 99.6959 373.361 99.7197C372.568 99.7348 371.752 99.7503 370.941 99.7458C368.777 99.7337 366.437 99.5888 363.974 98.98C359.726 97.9301 356.055 95.7825 352.884 93.9273C351.798 93.2923 350.772 92.6916 349.8 92.1809C348.869 91.6913 347.969 91.2777 347.127 91.0301C346.289 90.7838 345.422 90.6754 344.598 90.8952C342.824 91.3683 341.925 93.1174 341.504 95.6691C339.645 106.951 332.992 121.574 326.742 133.455C323.626 139.378 320.627 144.588 318.407 148.317C317.297 150.182 316.383 151.676 315.746 152.702C315.432 153.209 315.186 153.601 315.017 153.869C314.955 153.874 314.887 153.88 314.814 153.886C314.356 153.925 313.683 153.982 312.82 154.058C311.094 154.211 308.607 154.437 305.561 154.734C299.47 155.327 291.144 156.2 282.206 157.321C273.269 158.442 263.711 159.812 255.158 161.399C246.624 162.982 239.023 164.794 234.038 166.815C214.253 174.835 201.743 188.862 190.793 202.047C179.994 215.05 171.322 220.83 139.318 237.233C134.869 239.513 130.989 241.473 127.568 243.2C118.721 247.668 112.949 250.583 108.374 253.47C101.957 257.518 97.8602 261.528 90.9197 269.571C83.7963 277.825 80.5199 290.386 79.0699 303.819C77.6164 317.283 77.9812 331.821 78.2915 344.163C78.8379 365.899 68.9505 380.439 59.4027 391.527C57.5323 393.699 55.6818 395.731 53.9208 397.665C53.4293 398.205 52.9448 398.737 52.4688 399.262C50.2961 401.66 48.2976 403.92 46.6717 406.08C43.4523 410.358 41.4787 414.522 42.8312 418.847C43.297 420.337 44.4822 421.499 45.9022 422.471C47.3345 423.451 49.1493 424.334 51.0788 425.207C51.7309 425.502 52.3977 425.797 53.0728 426.095C56.4582 427.592 60.0502 429.181 63.0269 431.336C75.2155 440.16 77.6848 446.484 78.6605 449.328C78.7036 449.453 78.7458 449.578 78.787 449.7C78.863 449.926 78.9351 450.139 79.0009 450.321C79.1013 450.598 79.2202 450.898 79.3772 451.15C79.5373 451.408 79.8105 451.735 80.2677 451.874C80.7174 452.01 81.1308 451.899 81.4257 451.773C81.9678 451.542 82.6315 451.023 83.4247 450.38C83.6819 450.172 83.9622 449.942 84.2707 449.69C84.9793 449.109 85.8365 448.406 86.9031 447.562C93.1506 442.62 105.175 429.544 115.484 414.648C120.645 407.189 125.399 399.242 128.793 391.594C132.178 383.964 134.25 376.54 133.946 370.159C133.369 358.089 133.603 336.603 133.794 324.89C133.824 323.041 136.116 322.251 137.281 323.7C146.085 334.649 164.933 358.286 183.234 382.527C201.559 406.8 219.259 431.578 225.833 444.851C239.303 472.045 254.476 513.209 266.927 546.988C268.944 552.458 270.888 557.734 272.743 562.726C274.484 567.412 278.327 572.305 283.614 577.269C288.915 582.247 295.744 587.364 303.561 592.488C319.197 602.735 338.882 613.063 358.451 622.394C391.915 638.35 425.139 651.436 437.341 656.242C439.41 657.057 440.875 657.634 441.634 657.947C447.397 660.319 452.989 657.965 457.699 654.516C461.376 651.825 464.709 648.32 467.365 645.527C468.111 644.743 468.803 644.016 469.434 643.378C472.618 640.161 473.735 635.98 473.82 632.048C473.905 628.121 472.965 624.349 471.926 621.795C471.821 621.538 471.631 621.353 471.553 621.277C471.44 621.169 471.304 621.056 471.158 620.943C470.863 620.715 470.462 620.436 469.974 620.113C468.993 619.464 467.598 618.598 465.854 617.543C462.725 615.651 458.436 613.13 453.321 610.123L451.51 609.058C439.671 602.096 423.88 592.781 407.762 582.662C391.641 572.54 375.213 561.628 362.098 551.473C355.539 546.396 349.826 541.521 345.399 537.041C340.954 532.543 337.878 528.514 336.499 525.135C330.72 510.967 326.177 492.005 323.787 475.962C322.592 467.942 321.94 460.685 321.936 455.146C321.934 452.373 322.094 450.064 322.417 448.318C322.578 447.446 322.776 446.741 323 446.2C323.228 445.65 323.459 445.33 323.653 445.162C324.048 444.818 324.628 444.663 325.652 444.965C326.706 445.277 328.063 446.035 329.76 447.285C333.143 449.777 337.574 453.993 343.181 459.618C345.652 462.096 348.343 464.839 351.262 467.814C361.553 478.306 374.676 491.683 390.934 506.481C411.746 525.425 440.488 555.35 464.699 580.942C470.177 586.732 475.424 592.301 480.293 597.469C486.177 603.715 491.509 609.375 496.03 614.131C500.162 618.477 503.624 622.078 506.219 624.687C507.515 625.991 508.601 627.054 509.449 627.842C510.264 628.599 510.938 629.179 511.378 629.434C517.492 632.976 522.957 633.335 527.754 631.787C532.501 630.255 536.479 626.891 539.749 623.196C546.538 615.524 546.444 605.83 541.226 595.94C538.666 591.091 523.465 564.322 505.076 534.025C486.693 503.737 465.078 469.844 449.696 450.784Z" fill="url(#paint0_linear_167_2052)" stroke="#050505" stroke-width="2"/>
<path opacity="0.3" d="M91.8383 270.224C105.67 254.196 107.924 254.529 139.936 238.123L195.921 315.841C212.572 338.956 225.373 364.612 233.829 391.817L238.559 407.032C243.716 423.626 258.805 435.143 276.171 435.742L305.171 437.742L323.158 444.407C317.495 449.334 324.099 496.984 335.735 525.513C374.559 562.044 455.543 636.621 468.885 642.675C462.987 648.633 452.713 661.36 442.176 657.022C431.639 652.684 287.136 598.16 273.842 562.377C260.547 526.595 242.572 476.065 226.891 444.407C213.642 417.66 155.836 344.978 138.221 323.073C136.473 320.899 133.001 322.084 132.956 324.873C132.765 336.579 132.53 358.099 133.108 370.207C115.146 348.98 89.8534 343.983 79.4527 344.138C78.8316 319.43 78.0065 286.252 91.8383 270.224Z" fill="#210080"/>
<path opacity="0.1" fill-rule="evenodd" clip-rule="evenodd" d="M329.654 385.232C329.654 385.232 353.514 389.087 418.154 463.782C482.793 538.476 537.423 624.214 537.423 624.214C537.423 624.214 535.502 630.119 531.343 632.203C527.184 634.287 515.915 634.993 515.915 634.993L323.573 440.031C323.573 440.031 303.981 414.398 313.909 400.584C323.837 386.77 329.654 385.232 329.654 385.232Z" fill="#1D1B30"/>
<path opacity="0.3" d="M284.5 210.742C295.473 221.616 370 233.742 341.436 172.492C333.475 162.304 325.587 148.992 290.913 156.994C268.5 158.742 271 164.242 284.5 210.742Z" fill="#210080"/>
<path opacity="0.3" fill-rule="evenodd" clip-rule="evenodd" d="M259.787 325.609C211.383 300.555 232.441 241.197 217.134 223.243C198.76 201.691 181.909 203.819 189.236 180.584C196.562 157.349 277.152 215.124 302.634 254.388C328.545 294.313 422.871 410.025 259.787 325.609Z" fill="#210080"/>
<path fill-rule="evenodd" clip-rule="evenodd" d="M293.703 265.457C250.61 236.954 247.175 218.144 250.75 212.564C255.309 205.447 308.944 211.989 317.345 223.032C338.511 250.856 319.318 282.399 293.703 265.457Z" fill="#1D1B30"/>
<path fill-rule="evenodd" clip-rule="evenodd" d="M316.037 303.738C314.95 302.726 313.392 302.4 311.99 302.891L301.446 306.584C300.06 307.069 299.504 308.73 300.317 309.952C302.214 312.803 301.142 316.674 298.049 318.144L262.643 334.966C260.361 336.05 257.63 335.362 256.133 333.326C255.457 332.406 254.172 332.192 253.233 332.842L227.234 350.861C226.4 351.439 226.166 352.569 226.7 353.431C227.931 355.417 227.541 358.003 225.777 359.536L203.922 378.541C201.424 380.713 197.769 380.91 195.053 379.017C193.883 378.202 192.292 378.363 191.309 379.396L182.744 388.392C182.46 388.691 182.224 389.032 182.044 389.402L180.978 391.597H185.38L191.563 399.209L228.25 367.162C228.25 367.162 232.784 359.144 240.795 353.355C248.805 347.565 266.951 339.19 266.951 339.19L297.048 323.408L326.414 313.394L316.037 303.738Z" fill="#171527"/>
<path fill-rule="evenodd" clip-rule="evenodd" d="M392.326 395.293H375.333L396.876 416.516L421.103 420.095L392.326 395.293Z" fill="#F700FE"/>
<path fill-rule="evenodd" clip-rule="evenodd" d="M185.528 243.25C189.657 240.651 195.106 241.815 197.812 245.875L221.133 280.866C223.651 284.645 222.524 289.759 218.65 292.128L185.332 312.506C181.627 314.771 176.792 313.668 174.437 310.02L151.929 275.157C149.211 270.947 150.455 265.328 154.696 262.659L185.528 243.25Z" fill="#11101D"/>
<path fill-rule="evenodd" clip-rule="evenodd" d="M180.528 237.25C184.657 234.651 190.106 235.815 192.812 239.875L216.133 274.866C218.651 278.645 217.524 283.759 213.65 286.128L180.332 306.506C176.627 308.771 171.792 307.668 169.437 304.02L146.929 269.157C144.211 264.947 145.455 259.328 149.696 256.659L180.528 237.25Z" fill="#1D1B30" stroke="black" stroke-width="2" stroke-linecap="round"/>
<circle cx="29" cy="167.742" r="13" fill="#161424" stroke="black" stroke-width="2"/>
<circle cx="29" cy="167.242" r="7.5" fill="#403D5E"/>
<path d="M197.507 397.845C197.507 397.845 219.05 373.677 229.237 364.304C236.324 357.784 243.047 352.075 249.824 347.328C274.603 329.971 323.736 313.394 323.736 313.394" stroke="black" stroke-width="2"/>
<path d="M211.787 416.516C211.787 416.516 234.282 387.041 260.329 368.297C286.375 349.554 335.573 332.085 335.573 332.085" stroke="black" stroke-width="2"/>
<path d="M236.018 357.867C233.983 355.069 234.73 351.133 237.649 349.276L261.173 334.308C263.976 332.524 267.696 333.359 269.469 336.169L281.312 354.947C283.056 357.712 282.265 361.365 279.533 363.161L257.48 377.657C254.803 379.417 251.217 378.763 249.332 376.173L236.018 357.867Z" fill="#161424" stroke="black" stroke-width="2"/>
<path d="M334.894 301.713C336.327 301.248 337.883 301.919 338.529 303.28L349.949 327.324C350.729 328.967 349.88 330.92 348.147 331.471L324.444 338.996C323.063 339.434 321.566 338.824 320.887 337.545L308.382 314.012C307.507 312.365 308.331 310.326 310.106 309.751L334.894 301.713Z" fill="#161424" stroke="black" stroke-width="2"/>
<path fill-rule="evenodd" clip-rule="evenodd" d="M181.545 377.646C180.209 379.105 180.14 381.321 181.382 382.86L229.796 442.857C231.235 444.642 233.877 444.853 235.582 443.321L259.023 422.256C260.608 420.832 260.798 418.416 259.457 416.761L208.971 354.501C207.432 352.603 204.565 352.517 202.914 354.319L181.545 377.646Z" fill="#161424"/>
<path d="M176.282 379.322C175.28 380.415 175.228 382.077 176.16 383.232L224.574 443.229C225.654 444.568 227.635 444.726 228.914 443.577L252.355 422.512C253.543 421.444 253.686 419.632 252.68 418.391L202.194 356.131C201.04 354.708 198.89 354.643 197.652 355.994L176.282 379.322Z" fill="#2FFD61" stroke="black" stroke-width="2"/>
<path fill-rule="evenodd" clip-rule="evenodd" d="M81 294.742L82.8243 294.679C84.4489 294.623 85.8222 295.872 85.9215 297.494L86.9236 313.881C87.0062 315.232 86.174 316.471 84.8922 316.906L78 319.242" fill="#F700FE"/>
<path d="M81 294.742L82.8243 294.679C84.4489 294.623 85.8222 295.872 85.9215 297.494L86.9236 313.881C87.0062 315.232 86.174 316.471 84.8922 316.906L78 319.242C78.1667 311.908 79 296.742 81 294.742Z" stroke="black" stroke-width="2"/>
<path fill-rule="evenodd" clip-rule="evenodd" d="M272.316 159.66L272.905 161.387C273.43 162.926 272.634 164.602 271.11 165.168L255.72 170.884C254.451 171.355 253.024 170.919 252.236 169.818L248 163.901" fill="#F700FE"/>
<path d="M272.316 159.66L272.905 161.387C273.43 162.926 272.634 164.602 271.11 165.168L255.72 170.884C254.451 171.355 253.024 170.919 252.236 169.818L248 163.901C255.066 161.932 269.821 158.326 272.316 159.66Z" stroke="black" stroke-width="2"/>
<path fill-rule="evenodd" clip-rule="evenodd" d="M383.65 491.688C380.973 489.359 379.575 485.89 380.182 482.394C381.797 473.092 386.274 454.759 397.162 447.826C407.831 441.034 421.059 440.16 427.671 440.208C430.364 440.227 432.85 441.478 434.654 443.478C437.706 446.861 442.649 452.408 446.391 456.945C447.025 457.713 447.716 458.563 448.443 459.468C454.279 466.724 448.481 478.507 440.055 482.472C437.124 483.85 434.296 485.644 431.846 487.977C427.286 492.319 423.477 497.974 420.548 503.197C416.748 509.973 407.388 512.344 401.527 507.245L383.65 491.688Z" fill="#161424" stroke="black" stroke-width="2"/>
<path fill-rule="evenodd" clip-rule="evenodd" d="M272.534 579.245C269.857 576.916 268.46 573.447 269.064 569.95C270.691 560.537 275.228 541.844 286.31 534.788C297.171 527.873 310.644 527.003 317.334 527.057C320.027 527.079 322.512 528.33 324.316 530.329C327.41 533.758 332.454 539.418 336.269 544.042C336.975 544.898 337.751 545.854 338.569 546.874C344.399 554.135 338.615 565.913 330.153 569.801C327.067 571.218 324.081 573.083 321.508 575.534C316.819 579.998 312.914 585.83 309.926 591.187C306.143 597.972 296.781 600.344 290.921 595.244L272.534 579.245Z" fill="#161424" stroke="black" stroke-width="2"/>
<rect x="211.095" y="220.631" width="26" height="17" rx="2" transform="rotate(-30 211.095 220.631)" fill="#161424" stroke="black" stroke-width="2"/>
<path fill-rule="evenodd" clip-rule="evenodd" d="M44.5708 430.742L22.0121 441.122L7 456.282L10.2288 461.729C10.2288 461.729 20.4436 453.516 29.252 455.184C38.0605 456.852 55.2587 468.651 55.2587 468.651C55.2587 468.651 54.6556 469.333 59.1519 464.883C63.6481 460.434 70 449.64 70 449.64L44.5708 430.742Z" fill="#403D5E"/>
<path d="M43 431.742L34.0193 435.416C34.0193 435.416 23.5226 439.491 19.9455 442.431C10.7102 450.021 6.61422 456.29 6.61422 456.29C6.61422 456.29 4.94979 459.909 7.79566 461.584C11.0364 463.491 11.8468 462.468 11.8468 462.468L28.5064 451.103" stroke="black" stroke-width="2" stroke-linecap="round"/>
<path d="M37.5 486.977C37.5 486.977 53.1358 473.558 59.1467 466.42C65.1577 459.282 69 449.742 69 449.742" stroke="black" stroke-width="2" stroke-linecap="round"/>
<path d="M439.225 657.022C439.225 657.022 451.233 649.203 456.898 641.515C462.563 633.827 467.137 617.701 467.137 617.701" stroke="black" stroke-width="2"/>
<path d="M502.208 620.219C502.208 620.219 521.356 625.744 529.77 615.916C538.183 606.088 537.347 589.089 537.347 589.089" stroke="black" stroke-width="2"/>
<path d="M77.8365 448.003L77.7177 448.077C74.1756 450.264 69.6494 450.027 66.3541 447.484L45.4555 431.352C42.1742 428.82 42.3408 423.816 45.7832 421.507V421.507" stroke="black" stroke-width="2"/>
<path d="M290.092 593.813C290.092 593.813 285.708 586.164 293.703 576.858C301.697 567.551 335.573 548.118 335.573 548.118" stroke="#2FFD61" stroke-width="2" stroke-linecap="round"/>
<path d="M447.075 460.51C447.075 460.51 439.926 455.351 429.835 462.328C419.743 469.306 396.876 500.966 396.876 500.966" stroke="#2FFD61" stroke-width="2" stroke-linecap="round"/>
<path d="M435.075 449.51C435.075 449.51 427.926 444.351 417.835 451.328C407.743 458.306 384.876 489.966 384.876 489.966" stroke="#2FFD61" stroke-width="2" stroke-linecap="round"/>
<path d="M278.092 582.813C278.092 582.813 273.708 575.164 281.703 565.858C289.697 556.551 323.573 537.118 323.573 537.118" stroke="#2FFD61" stroke-width="2" stroke-linecap="round"/>
<path fill-rule="evenodd" clip-rule="evenodd" d="M340.636 215.997C339.215 216.484 338.106 215.329 338.898 214.054C340.217 211.931 342.755 208.738 347.599 204.686C353.021 200.149 358.761 196.689 362.58 194.603C364.162 193.739 365.756 195.261 364.965 196.88C363.127 200.64 360.264 205.76 357.269 208.265C353.682 211.266 345.239 214.418 340.636 215.997Z" fill="#1C1A2E" stroke="black" stroke-width="2"/>
<path fill-rule="evenodd" clip-rule="evenodd" d="M133.152 388.574C132.676 389.594 131.132 389.128 131.252 388.009C131.52 385.508 131.859 382.103 132.259 377.607C132.907 370.328 133.396 363.76 133.68 359.716C133.754 358.665 135.117 358.456 135.468 359.449C136.872 363.416 138.7 369.538 138.332 373.674C137.983 377.596 135.276 384.03 133.152 388.574Z" fill="#1C1A2E" stroke="black" stroke-width="2"/>
<path d="M314.937 153.363C314.937 153.363 332.815 159.001 340.509 172.117C348.202 185.232 347.973 204.615 347.973 204.615" stroke="black" stroke-width="2"/>
<path d="M77.978 358.75C77.978 358.75 88.6968 354.522 98.7704 355.551C108.844 356.581 117.517 367.294 117.517 367.294" stroke="black" stroke-width="2" stroke-linecap="round"/>
<circle cx="191.5" cy="263.242" r="5.5" fill="#47809D"/>
<circle cx="242.667" cy="420.075" r="3.66667" fill="#403D5E"/>
<circle cx="200.5" cy="277.242" r="5.5" fill="#57556D"/>
<path d="M14.8129 457.717C15.641 456.278 17.48 455.785 18.9165 456.617L21.0467 457.851C22.4778 458.68 22.9682 460.51 22.1433 461.943L14.1871 475.767C13.359 477.205 11.52 477.698 10.0835 476.866L7.95329 475.633C6.52225 474.804 6.03176 472.973 6.85669 471.54L14.8129 457.717Z" fill="#403D5E" stroke="black" stroke-width="2"/>
<path d="M21.8129 462.717C22.641 461.278 24.48 460.785 25.9165 461.617L28.0467 462.851C29.4778 463.68 29.9682 465.51 29.1433 466.943L21.1871 480.767C20.359 482.205 18.52 482.698 17.0835 481.866L14.9533 480.633C13.5222 479.804 13.0318 477.973 13.8567 476.54L21.8129 462.717Z" fill="#403D5E" stroke="black" stroke-width="2"/>
<path d="M29.7597 466.573C30.5875 465.184 32.3667 464.701 33.7829 465.481L36.5011 466.977C37.9724 467.786 38.4925 469.646 37.6548 471.101L29.7154 484.896C28.8953 486.321 27.0813 486.82 25.6475 486.016L22.7292 484.378C21.2572 483.553 20.7559 481.676 21.6202 480.226L29.7597 466.573Z" fill="#403D5E" stroke="black" stroke-width="2"/>
<path d="M37.8129 470.717C38.641 469.278 40.48 468.785 41.9165 469.617L44.0467 470.851C45.4778 471.68 45.9682 473.51 45.1433 474.943L37.1871 488.767C36.359 490.205 34.52 490.698 33.0835 489.866L30.9533 488.633C29.5222 487.804 29.0318 485.973 29.8567 484.54L37.8129 470.717Z" fill="#403D5E" stroke="black" stroke-width="2"/>
<path fill-rule="evenodd" clip-rule="evenodd" d="M186.348 382.063C185.644 381.286 185.661 380.096 186.386 379.338L196.962 368.29C197.782 367.432 199.165 367.474 199.932 368.379L207.098 376.832C213.082 383.892 212.544 394.388 205.868 400.799C205.118 401.519 203.922 401.477 203.224 400.706L186.348 382.063Z" fill="#12101E"/>
<path d="M390.886 394.114H375.356C374.448 394.114 374.01 395.227 374.675 395.846L396.648 416.304C396.796 416.442 396.983 416.532 397.183 416.562L421.103 420.095" stroke="black" stroke-width="2"/>
<path fill-rule="evenodd" clip-rule="evenodd" d="M152.088 266.539C150.531 264.228 151.164 261.091 153.494 259.564L166.279 251.186C168.601 249.664 171.717 250.325 173.221 252.658L192.385 282.372C193.87 284.674 193.225 287.742 190.94 289.253L178.776 297.293C176.486 298.806 173.405 298.191 171.872 295.915L152.088 266.539Z" fill="#403D5E"/>
<path fill-rule="evenodd" clip-rule="evenodd" d="M324.375 315.563C323.108 312.844 324.504 309.63 327.356 308.699L328.77 308.237C331.101 307.475 333.641 308.518 334.765 310.697L339.109 319.116C340.499 321.81 339.19 325.111 336.332 326.122L334.572 326.745C332.144 327.603 329.461 326.477 328.373 324.142L324.375 315.563Z" fill="#403D5E"/>
<ellipse cx="334.957" cy="323.038" rx="5" ry="3.5" transform="rotate(-24 334.957 323.038)" fill="#161424"/>
<path d="M163.683 262.197L179.834 286.543" stroke="#1D1B30" stroke-width="6" stroke-linecap="round"/>
<path d="M304.06 424.489C304.06 424.489 311.171 398.556 325.374 386.837C339.576 375.118 360.06 372.015 360.06 372.015" stroke="black" stroke-width="2" stroke-linecap="round"/>
<path d="M265.614 451.568C265.614 451.568 283.892 438.452 299.296 438.31C314.701 438.168 329.653 446.935 329.653 446.935" stroke="black" stroke-width="2" stroke-linecap="round"/>
<path d="M335.573 324.337C335.573 324.337 364.455 374.841 384.876 351.898C403.112 331.408 351.445 301.915 377.676 282.742C398.444 267.561 407.077 248.978 395.261 229.47C380.249 204.686 352.259 236.719 352.259 236.719" stroke="#7B2CFE" stroke-width="4" stroke-linecap="round"/>
<path d="M335.573 324.337C335.573 324.337 364.455 374.841 384.876 351.898C403.112 331.408 351.445 301.915 377.676 282.742C398.444 267.561 407.077 248.978 395.261 229.47C380.249 204.686 352.259 236.719 352.259 236.719" stroke="black" stroke-opacity="0.6" stroke-width="4" stroke-linecap="round"/>
<path fill-rule="evenodd" clip-rule="evenodd" d="M353.942 77.8583C353.942 77.8583 348.387 47.7139 350.488 39.082C352.59 30.4501 364.523 34.3897 364.523 34.3897C364.523 34.3897 362.282 14.2468 361.024 7.52836C360.547 4.97759 368.523 1.06187 370.265 7.52836C373.448 19.343 374.819 34.3897 374.819 34.3897C374.819 34.3897 384.914 18.5516 387.828 15.8045C389.539 14.1922 396.665 18.5391 394.686 22.0896C387.828 34.3897 385.366 39.082 385.366 39.082C385.366 39.082 393.339 48.7552 393.11 54.8609C392.972 58.5533 389.983 64.7671 388.862 69.1262C384.4 86.4773 374.819 86.1939 374.819 86.1939L353.942 77.8583Z" stroke="black" stroke-width="2"/>
<path fill-rule="evenodd" clip-rule="evenodd" d="M352.875 77.3384C346.644 78.6725 346.38 82.4278 347.324 84.8645C348.268 87.3012 351.315 88.9227 357.89 91.3206C364.464 93.7185 372.836 95.9711 378.973 94.7356C385.109 93.5 386.079 90.0031 380.85 85.8729C375.621 81.7428 359.105 76.0043 352.875 77.3384Z" fill="#27253E" stroke="black" stroke-width="2"/>
<path d="M525 648.205C525 648.205 547.202 665.229 562.824 651.685C578.446 638.141 565.192 619 565.192 619" stroke="#2FFD61" stroke-width="2"/>
<defs>
<linearGradient id="paint0_linear_167_2052" x1="-90.9999" y1="157.241" x2="678" y2="273.241" gradientUnits="userSpaceOnUse">
<stop stop-color="#0058FF"/>
<stop offset="1" stop-color="#F700FE"/>
</linearGradient>
</defs>
</svg>
