<svg width="255" height="188" viewBox="0 0 255 188" fill="none" xmlns="http://www.w3.org/2000/svg">
<circle r="83" transform="matrix(-1 0 0 1 125 91)" fill="white"/>
<circle r="83" transform="matrix(-1 0 0 1 125 91)" fill="#210080"/>
<circle r="83" transform="matrix(-1 0 0 1 125 91)" fill="url(#paint0_linear_167_2304)" fill-opacity="0.6"/>
<mask id="mask0_167_2304" style="mask-type:alpha" maskUnits="userSpaceOnUse" x="42" y="8" width="166" height="166">
<circle r="83" transform="matrix(-1 0 0 1 125 91)" fill="white"/>
<circle r="83" transform="matrix(-1 0 0 1 125 91)" stroke="white"/>
</mask>
<g mask="url(#mask0_167_2304)">
<circle r="98.5" transform="matrix(-1 0 0 1 74.5 78.5)" fill="white" fill-opacity="0.15"/>
<path d="M57.7825 15.4602C57.7825 15.4602 64.3471 37.798 82.9051 47.4004C101.463 57.0029 110.882 39.0681 133.989 54.8921C157.097 70.7161 154.017 82.4218 168.09 91.0001C182.163 99.5783 210.312 91.0001 210.312 91.0001L238.167 101.643" stroke="#161424" stroke-width="2"/>
<path d="M235.167 157.823C235.167 157.823 227.052 130.208 204.11 118.337C181.168 106.466 169.523 128.637 140.957 109.075C112.391 89.5128 116.198 75.0417 98.8004 64.4369C81.403 53.832 46.604 64.4369 46.604 64.4369L12.1675 51.2801" stroke="#161424" stroke-width="2"/>
<path d="M221.167 190.823C221.167 190.823 213.052 163.208 190.11 151.337C167.168 139.466 155.523 161.637 126.957 142.075C98.391 122.513 102.198 108.042 84.8004 97.4369C67.403 86.832 32.604 97.4369 32.604 97.4369L-1.83252 84.2801" stroke="#161424" stroke-width="2"/>
<path d="M27.7825 98.4602C27.7825 98.4602 34.3471 120.798 52.9051 130.4C71.463 140.003 80.8824 122.068 103.989 137.892C127.097 153.716 124.017 165.422 138.09 174C152.163 182.578 180.312 174 180.312 174L208.167 184.643" stroke="#161424" stroke-width="2"/>
<path d="M-24.2176 -39.5398C-24.2176 -39.5398 -17.653 -17.202 0.904907 -7.59958C19.4628 2.00288 28.8823 -15.9319 51.9893 -0.107914C66.691 9.95996 76.6869 20.5689 91.4023 24.0336C99.8156 26.0146 115.105 20.9132 120.224 24.0336C134.296 32.6119 118.796 33.5971 133.381 44.4614C147.965 55.3257 150.449 31.4893 159.699 39.798C168.949 48.1068 157.993 56.3695 162.268 58.5514C166.543 60.7333 170.746 59.428 183.219 64.1031C195.692 68.7781 194.55 78.0366 199.728 80.7542C204.905 83.4718 217.505 78.5001 217.505 78.5001" stroke="#161424" stroke-width="2"/>
<path d="M-79.2176 75.4602C-79.2176 75.4602 -72.653 97.798 -54.0951 107.4C-35.5372 117.003 -26.1177 99.0681 -3.01067 114.892C11.691 124.96 21.6869 135.569 36.4023 139.034C44.8156 141.015 60.1045 135.913 65.2236 139.034C79.2964 147.612 63.7964 148.597 78.3805 159.461C92.9647 170.326 95.4493 146.489 104.699 154.798C113.949 163.107 102.993 171.369 107.268 173.551C111.543 175.733 115.746 174.428 128.219 179.103C140.692 183.778 139.55 193.037 144.728 195.754C149.905 198.472 162.505 193.5 162.505 193.5" stroke="#161424" stroke-width="2"/>
</g>
<path d="M50.7128 34.309C35.3459 29.8687 24.1879 28.2062 17.1664 29.3498C9.76108 30.5559 6.74434 34.9826 8.43858 42.1804C12.7884 60.6601 47.9619 93.7904 94.4501 121.098C142.607 149.385 188.31 165.592 223.5 168.708L224.372 168.781C237.436 169.803 243.56 167.137 241.661 160.441C239.928 154.333 230.834 144.931 214.295 131.992C213.86 131.652 213.232 131.728 212.892 132.163C212.551 132.598 212.628 133.227 213.063 133.567L214.155 134.425C229.649 146.647 238.202 155.575 239.737 160.986C241.099 165.787 236.826 165.367 224.372 164.264C189.544 161.181 148.493 139.143 100.57 110.993C54.5937 83.9861 16.526 59.8982 12.3554 42.1804C10.9288 36.1194 11.2187 32.3449 17.4879 31.3238C24.1407 30.2402 35.0548 31.8663 50.1577 36.2304C50.6882 36.3837 51.2426 36.0779 51.396 35.5473C51.5493 35.0167 51.2434 34.4623 50.7128 34.309Z" fill="#2FFD61"/>
<defs>
<linearGradient id="paint0_linear_167_2304" x1="-44.567" y1="19.1955" x2="208.86" y2="62.4275" gradientUnits="userSpaceOnUse">
<stop stop-color="#0058FF"/>
<stop offset="1" stop-color="#F700FE"/>
</linearGradient>
</defs>
</svg>
