<svg width="203" height="203" viewBox="0 0 203 203" fill="none" xmlns="http://www.w3.org/2000/svg">
<circle r="93.2071" transform="matrix(-1 0 0 1 102.207 101.207)" fill="#210080"/>
<mask id="mask0_167_2317" style="mask-type:alpha" maskUnits="userSpaceOnUse" x="8" y="8" width="188" height="187">
<circle r="93.2071" transform="matrix(-1 0 0 1 102.207 101.207)" fill="white"/>
</mask>
<g mask="url(#mask0_167_2317)">
<circle r="110.613" transform="matrix(-1 0 0 1 45.4964 87.1696)" fill="white" fill-opacity="0.1"/>
<path d="M26.7236 16.3771C26.7236 16.3771 34.0955 41.4619 54.9356 52.2452C75.7757 63.0285 86.3535 42.8882 112.302 60.6582C138.251 78.4281 134.793 91.5734 150.596 101.207C166.4 110.84 198.01 101.207 198.01 101.207L229.292 113.158" stroke="#161424" stroke-width="2"/>
<path d="M225.922 176.247C225.922 176.247 216.809 145.236 191.045 131.905C165.282 118.574 152.205 143.473 120.126 121.505C88.0473 99.5367 92.3221 83.286 72.7853 71.377C53.2485 59.468 14.17 71.377 14.17 71.377L-24.5015 56.6022" stroke="#161424" stroke-width="2"/>
<path d="M210.201 213.305C210.201 213.305 201.087 182.294 175.324 168.963C149.56 155.633 136.483 180.531 104.404 158.563C72.3254 136.595 76.6002 120.344 57.0634 108.435C37.5266 96.5262 -1.55193 108.435 -1.55193 108.435L-40.2234 93.6605" stroke="#161424" stroke-width="2"/>
<path d="M-6.96586 109.584C-6.96586 109.584 0.406038 134.669 21.2462 145.452C42.0863 156.236 52.6641 136.095 78.6128 153.865C104.562 171.635 101.104 184.78 116.907 194.414C132.71 204.047 164.321 194.414 164.321 194.414L195.602 206.365" stroke="#161424" stroke-width="2"/>
<path d="M-65.3614 -45.3864C-65.3614 -45.3864 -57.9895 -20.3016 -37.1494 -9.51822C-16.3093 1.26512 -5.73148 -18.8752 20.2172 -1.10525C36.7269 10.2007 47.9521 22.1143 64.4771 26.0052C73.925 28.2297 104.713 29.3312 115.1 38.6618C125.487 47.9923 139.257 62.3175 144.058 64.7678C148.859 67.2181 153.578 65.7522 167.585 71.0022C181.593 76.2522 180.31 86.6493 186.124 89.7011C191.938 92.7529 206.087 87.1697 206.087 87.1697" stroke="#161424" stroke-width="2"/>
<path d="M-127.125 83.7557C-127.125 83.7557 -119.753 108.841 -98.9128 119.624C-78.0727 130.407 -67.4949 110.267 -41.5462 128.037C-25.0366 139.343 -13.8114 151.256 2.71368 155.147C12.1616 157.372 29.3307 151.643 35.0793 155.147C50.8827 164.78 33.4766 165.887 49.8543 178.087C66.2319 190.287 118.546 215.791 124.361 218.843C130.175 221.895 144.324 216.312 144.324 216.312" stroke="#161424" stroke-width="2"/>
</g>
</svg>
