<svg width="614" height="726" viewBox="0 0 614 726" fill="none" xmlns="http://www.w3.org/2000/svg">
<g clip-path="url(#clip0_167_2792)">
<path d="M471.476 435.467L426.521 277.009L384.498 316.029L412.734 416.189L471.476 435.467Z" fill="#151728"/>
<path d="M489.5 461L431 290L391 260L411.5 437L489.5 461Z" fill="#151728"/>
<path d="M-5.32364 598.353L-31.1808 605.281C-44.3346 608.806 -48.1569 637.241 -39.7115 668.76C-31.2586 700.307 -13.7381 722.994 -0.584202 719.469L25.2729 712.541C38.4268 709.016 42.249 680.58 33.8036 649.062C25.3301 617.551 7.83021 594.828 -5.32364 598.353Z" fill="#151728"/>
<path d="M-31.6308 605.402L-57.4879 612.33C-70.6417 615.855 -74.464 644.29 -66.0186 675.809C-57.5657 707.356 -40.0452 730.042 -26.8913 726.518L-1.03422 719.589C12.1196 716.065 15.9419 687.629 7.49651 656.11C-0.977031 624.599 -18.4769 601.877 -31.6308 605.402Z" fill="#0C0E19"/>
<path d="M-36.7572 606.777L-62.6143 613.705C-75.7681 617.23 -79.5905 645.665 -71.1451 677.184C-62.6922 708.731 -45.1716 731.417 -32.0177 727.893L-6.16069 720.964C6.99317 717.44 10.8154 689.004 2.37004 657.485C-6.07533 625.967 -23.6034 603.252 -36.7572 606.777Z" fill="#151728"/>
<path d="M175.903 549.794L150.046 556.723C136.892 560.247 133.07 588.683 141.515 620.201C149.968 651.748 167.489 674.435 180.642 670.91L206.499 663.982C219.653 660.457 223.476 632.022 215.03 600.503C206.585 568.985 189.057 546.27 175.903 549.794Z" fill="#151728"/>
<path d="M149.595 556.843L123.738 563.771C110.584 567.296 106.762 595.732 115.207 627.25C123.66 658.797 141.181 681.484 154.335 677.959L180.192 671.031C193.346 667.506 197.168 639.07 188.723 607.552C180.277 576.033 162.749 553.318 149.595 556.843Z" fill="#0C0E19"/>
<path d="M144.497 558.211L118.64 565.14C105.486 568.664 101.663 597.1 110.109 628.618C118.562 660.165 136.082 682.852 149.236 679.327L175.093 672.399C188.247 668.874 192.069 640.439 183.624 608.92C175.15 577.409 157.651 554.687 144.497 558.211Z" fill="#151728"/>
<path d="M148.225 652.455C141.515 648.819 134.519 637.018 130.783 623.076C127.047 609.133 127.206 595.415 131.199 588.911C130.806 588.684 130.449 588.478 130.063 588.28C125.872 595.169 125.672 608.958 129.544 623.408C133.416 637.857 140.476 649.672 147.558 653.57C147.8 653.234 147.999 652.848 148.225 652.455Z" fill="#1B1970"/>
<path d="M148.395 618.387C151.18 628.781 151.763 638.617 150.455 645.79C145.743 640.26 141.322 631.422 138.537 621.029C135.752 610.635 135.169 600.799 136.478 593.625C141.19 599.155 145.611 607.994 148.395 618.387Z" fill="#1B1970"/>
<path d="M144.113 619.535C145.456 624.548 144.853 629.057 142.769 629.616C140.684 630.174 137.908 626.571 136.564 621.557C135.221 616.544 135.824 612.035 137.908 611.476C139.993 610.918 142.769 614.521 144.113 619.535Z" fill="#10215B"/>
<path d="M217.132 639.999L227.056 677.038L310.599 654.653L269.255 500.356L190.261 529.462L199.858 616.431L217.132 639.999Z" fill="#0C0E19"/>
<mask id="mask0_167_2792" style="mask-type:alpha" maskUnits="userSpaceOnUse" x="225" y="520" width="113" height="155">
<path d="M282.752 521.098L242.08 531.997C225.686 536.389 220.935 571.836 231.464 611.129C241.992 650.421 263.83 678.744 280.223 674.351L320.896 663.453C337.289 659.06 342.04 623.613 331.512 584.321C320.983 545.028 299.145 516.706 282.752 521.098Z" fill="#151728"/>
</mask>
<g mask="url(#mask0_167_2792)">
<path d="M282.752 521.098L242.08 531.997C225.686 536.389 220.935 571.836 231.464 611.129C241.992 650.421 263.83 678.744 280.223 674.351L320.896 663.453C337.289 659.06 342.04 623.613 331.512 584.321C320.983 545.028 299.145 516.706 282.752 521.098Z" fill="#151728"/>
<path d="M277.5 674.5C308.3 662.5 300 605.167 292 578L328 562.5L351.5 614.5L346 679L277.5 674.5Z" fill="black" fill-opacity="0.25"/>
</g>
<path d="M279.178 598.346C282.65 611.303 283.401 623.57 281.747 632.496C280.381 640.017 277.299 645.19 272.736 646.412C262.765 649.084 249.524 631.892 243.124 608.007C236.724 584.121 239.623 562.605 249.566 559.941C254.129 558.718 259.356 561.664 264.328 567.487C270.231 574.419 275.706 585.39 279.178 598.346Z" fill="#2300B0" fill-opacity="0.15"/>
<path d="M279.178 598.345C282.65 611.302 283.401 623.569 281.747 632.495C275.852 625.591 270.369 614.593 266.897 601.636C263.425 588.679 262.674 576.412 264.328 567.486C270.231 574.418 275.706 585.389 279.178 598.345Z" fill="#1B1970"/>
<path d="M559.559 502.751L571.812 499.468C571.812 499.468 563.085 475.572 547.088 469.051L559.559 502.751Z" fill="#151728"/>
<mask id="mask1_167_2792" style="mask-type:alpha" maskUnits="userSpaceOnUse" x="447" y="453" width="112" height="155">
<path d="M503.903 453.45L463.23 464.349C446.837 468.741 442.086 504.188 452.615 543.481C463.143 582.773 484.981 611.096 501.374 606.703L542.047 595.805C558.44 591.412 563.191 555.965 552.663 516.673C542.134 477.38 520.324 449.05 503.903 453.45Z" fill="#151728"/>
</mask>
<g mask="url(#mask1_167_2792)">
<path d="M503.903 453.45L463.23 464.349C446.837 468.741 442.086 504.188 452.615 543.481C463.143 582.773 484.981 611.096 501.374 606.703L542.047 595.805C558.44 591.412 563.191 555.965 552.663 516.673C542.134 477.38 520.324 449.05 503.903 453.45Z" fill="#151728"/>
<path d="M499 607C526.6 598.6 524.833 560.166 520.5 542L545.5 492L582 523.5L579 614.5L499 607Z" fill="black" fill-opacity="0.25"/>
</g>
<path d="M495.035 532.117C496.703 538.342 495.949 543.978 493.357 544.672C490.766 545.366 487.303 540.89 485.627 534.637C483.959 528.413 484.713 522.777 487.304 522.082C489.903 521.416 493.367 525.892 495.035 532.117Z" fill="#10215B"/>
<path d="M70.6269 678.319L67.1627 665.391L60.459 667.187L63.8025 679.665L32.2832 685.967L33.6212 692.763L227.503 654.035L226.144 647.275L70.6269 678.319Z" fill="#0C0E19"/>
<mask id="mask2_167_2792" style="mask-type:alpha" maskUnits="userSpaceOnUse" x="-217" y="39" width="780" height="671">
<path d="M537.629 438.257L537.6 438.265L495.016 432.679C435.474 406.731 495.016 432.679 472.711 422.869C435.474 406.731 495.016 432.679 459.2 416.884C435.474 406.731 435.474 406.731 435.474 406.731L414.157 338.663C407.278 316.697 420.312 293.471 442.645 287.899L480.015 278.574C485.287 277.258 488.2 271.608 486.213 266.551L483.03 258.447L482.941 258.229L477.901 245.391L477.82 245.201L446.037 155.807L446.007 155.695L445.637 154.767L420.94 91.8899C420.94 91.8899 419.448 88.5763 416.621 83.6583C416.388 83.2379 416.154 82.8174 415.885 82.3763C414.705 80.3377 413.316 78.0835 411.713 75.7055C411.466 75.3489 411.212 74.9641 410.966 74.6075C410.32 73.6635 409.647 72.7269 408.966 71.7623L408.936 71.6496C408.798 71.4751 408.676 71.3569 408.531 71.1542C408.437 71.0285 408.351 70.9309 408.256 70.8052C407.496 69.7711 406.708 68.7446 405.884 67.6974C405.126 66.7835 404.36 65.8415 403.574 64.9352C403.17 64.4398 402.73 63.9238 402.269 63.4434C401.829 62.9274 401.396 62.4395 400.935 61.9592C400.632 61.6177 400.294 61.2556 399.927 60.901C399.589 60.5389 399.222 60.1843 398.891 59.8504C398.135 59.0567 397.358 58.2988 396.533 57.5841C396.202 57.2502 395.878 56.9444 395.527 56.6461C394.686 55.8751 393.797 55.1474 392.915 54.4478C392.441 54.0314 391.918 53.6582 391.424 53.2775C390.929 52.8967 390.407 52.5236 389.884 52.1504C389.504 51.8597 389.104 51.6047 388.704 51.3497C388.066 50.8865 387.38 50.4666 386.694 50.0466C386.23 49.7786 385.758 49.4824 385.294 49.2143C384.829 48.9463 384.329 48.6576 383.837 48.3971C383.13 48.0129 382.403 47.6644 381.711 47.3365C380.285 46.6319 378.853 46.0194 377.464 45.4557C376.067 44.8638 374.694 44.3564 373.363 43.8977C371.336 43.2033 369.338 42.6215 367.42 42.1091C366.12 41.7632 364.87 41.4942 363.656 41.2458C362.123 40.9321 360.669 40.6878 359.258 40.4922C358.627 40.3897 358.031 40.3078 357.408 40.2334C356.188 40.077 355.041 39.962 353.936 39.8957C353.108 39.8459 352.336 39.7811 351.607 39.7651C350.878 39.7491 350.141 39.7048 349.477 39.7019C348.932 39.6969 348.451 39.705 347.998 39.7055C347.574 39.6985 347.157 39.7197 346.74 39.7409C343.926 39.8306 341.963 40.0546 341.096 40.1965C340.976 40.1985 340.891 40.2212 340.807 40.2438C340.658 40.2534 340.574 40.276 340.574 40.276C340.574 40.276 340.489 40.2987 340.341 40.3083C340.2 40.346 339.995 40.3706 339.706 40.4179C338.444 40.6655 335.82 41.127 332.104 41.7908C330.891 41.9951 329.593 42.222 328.19 42.5073C326.081 42.8611 323.726 43.311 321.187 43.7498C318.945 44.1695 316.554 44.5988 314.051 45.0582C313.508 45.1735 312.986 45.253 312.436 45.34C309.672 45.8392 306.738 46.3837 303.713 46.9227C301.555 47.3197 299.341 47.7319 297.063 48.1309C294.785 48.53 292.45 48.9442 290.096 49.394C286.556 50.0407 282.903 50.7175 279.158 51.3888C277.282 51.7104 275.414 52.0601 273.517 52.4174C271.62 52.7747 269.716 53.1038 267.791 53.4686C263.962 54.1626 260.076 54.8716 256.191 55.5807C253.723 56.0607 251.22 56.5202 248.744 56.9721C247.362 57.2217 245.952 57.4788 244.57 57.7284C240.72 58.4581 236.87 59.1878 233.069 59.8742C228.006 60.8082 223.063 61.7401 218.261 62.6343C213.467 63.5567 208.841 64.4338 204.441 65.2506C201.142 65.8932 197.983 66.498 194.993 67.0576C192.984 67.4451 191.059 67.8099 189.226 68.1803C188.648 68.2749 188.077 68.3977 187.534 68.5129C185.412 68.9305 183.403 69.318 181.514 69.7035C180.738 69.8509 179.97 70.0265 179.223 70.1664C173.33 71.3831 169.024 72.3256 166.939 72.8841L165.953 73.1482C165.608 73.2106 165.249 73.337 164.891 73.4633L164.553 73.5538C164.243 73.6368 163.912 73.7556 163.582 73.8743C163.3 73.9498 162.998 74.0609 162.696 74.1721C161.95 74.4322 161.177 74.6999 160.411 74.9957C158.822 75.6025 157.177 76.2243 155.52 76.91C154.677 77.2567 153.841 77.6315 152.97 77.9856C151.256 78.6864 149.508 79.4868 147.76 80.2872C144.967 81.5791 142.153 82.9068 139.403 84.2475C137.109 85.3754 134.843 86.4957 132.718 87.5783C131.715 88.1186 130.705 88.6308 129.744 89.0996C128.552 89.7209 127.416 90.3271 126.358 90.8825C125.537 91.3137 124.725 91.773 123.981 92.1533C123.21 92.5411 122.502 92.9421 121.843 93.2998C121.366 93.5483 120.918 93.7893 120.497 94.0227C120.077 94.2561 119.712 94.4744 119.341 94.6646C118.779 94.9358 118.31 95.2124 117.918 95.4383C117.385 95.7019 116.992 95.9278 116.762 96.0802C116.608 96.1819 116.503 96.2402 116.503 96.2402C116.503 96.2402 116.474 96.2478 116.446 96.2553C116.446 96.2553 116.418 96.2628 116.397 96.2985C116.285 96.3287 116.046 96.453 115.739 96.6562C115.71 96.6638 115.69 96.6995 115.69 96.6995C115.556 96.7654 115.423 96.8313 115.269 96.9329C114.8 97.2096 114.19 97.524 113.482 97.925C113.398 97.9476 113.349 97.9909 113.272 98.0417C112.936 98.2525 112.564 98.4426 112.144 98.676C109.39 100.229 105.403 102.475 100.372 105.332C99.0341 106.083 97.5906 106.893 96.0983 107.745C89.8344 111.295 82.3448 115.566 73.8527 120.378C37.5588 140.971 -16.5486 171.922 -67.0381 201.39C-126.962 236.436 -181.7 269.427 -195.449 280.87C-206.639 290.147 -212.214 306.857 -214.661 324.992L-214.653 325.02C-214.683 325.36 -214.728 325.644 -214.785 325.991C-218.725 357.145 -213.707 392.209 -212.238 401.294C-212.161 401.696 -212.106 402.014 -212.059 402.303L-212.044 402.359C-211.932 403.114 -211.847 403.544 -211.847 403.544L-191.942 481.774L-188.496 495.311L-188.435 495.536L-183.391 515.377L-183.036 516.701L-182.973 517.047L-182.709 518.032L-166.175 583.007L-165.949 583.852L-165.75 584.704L-165.552 585.557L-165.446 585.951L-151.677 640.043L-151.549 640.522L-151.267 641.684L-150.815 643.374L-137.043 697.587L-133.961 709.652L-70.115 697.133L-69.7413 697.063C-69.7413 697.063 -73.4908 684.422 -75.7811 676.1L-76.3245 674.072C-77.3585 670.213 -78.2289 666.401 -78.9359 662.636C-79.4934 659.766 -79.9514 656.931 -80.338 654.136C-81.7559 643.437 -81.8371 633.556 -80.7106 625.254C-80.6865 625.006 -80.6549 624.787 -80.6232 624.567L-80.6609 624.426L-80.6553 624.334C-80.6423 624.27 -80.6217 624.234 -80.6011 624.199C-80.5206 623.935 -80.4965 623.688 -80.4442 623.432C-80.3789 623.113 -80.3341 622.829 -80.2969 622.517L-80.2763 622.481C-78.1959 610.754 -73.4796 602.668 -66.3816 600.766C-60.2131 599.113 -53.2253 602.433 -46.4453 609.371C-44.9126 610.923 -43.4267 612.638 -41.9518 614.537L-41.9216 614.65C-41.8427 614.719 -41.7993 614.768 -41.7203 614.837C-41.6695 614.914 -41.5906 614.983 -41.504 615.081C-41.3159 615.333 -41.1202 615.612 -40.9245 615.892C-38.8777 618.574 -36.9167 621.61 -35.0081 624.903C-29.5005 634.416 -24.6271 646.182 -21.1177 659.279L-20.9893 659.758C-18.5345 669.033 -17.0247 678.047 -16.361 686.382L-1.85205 683.521L6.57991 681.866L11.7123 680.853L38.1424 675.612L61.5415 671.003L68.3302 669.637L122.488 658.929L127.797 657.899L155.087 652.489L188.004 645.993L193.08 644.995L212.545 641.138L217.247 640.21C217.247 640.21 217.224 640.126 217.187 639.985C217.187 639.985 216.764 638.408 216.13 635.589C215.969 634.877 215.793 634.109 215.595 633.257C215.397 632.404 215.212 631.488 215.004 630.487C214.775 629.521 214.56 628.492 214.35 627.371C214.135 626.342 213.905 625.257 213.695 624.136C213.485 623.014 213.26 621.837 213.056 620.624C212.829 619.326 212.587 617.972 212.344 616.618C212.252 616.16 212.187 615.694 212.115 615.2C211.976 614.453 211.856 613.67 211.737 612.886C211.379 610.537 211.019 608.067 210.68 605.562C209.647 597.99 208.845 589.812 208.559 581.647C208.343 575.094 208.459 568.542 209.077 562.399C209.524 557.871 210.272 553.565 211.379 549.585C211.411 549.366 211.479 549.166 211.567 548.931C214.586 538.341 220.145 530.361 229.551 527.72L229.776 527.659C230.396 527.493 231.023 527.356 231.63 527.253C231.799 527.208 231.968 527.163 232.144 527.146C232.744 527.015 233.33 526.949 233.916 526.882C234.438 526.803 234.975 526.78 235.512 526.757C235.54 526.749 235.568 526.741 235.604 526.762C235.985 526.72 236.374 526.707 236.742 526.729C238.057 526.678 239.346 526.756 240.608 526.961C241.36 527.061 242.119 527.19 242.885 527.347C243.006 527.345 243.105 527.379 243.205 527.412C243.843 527.543 244.49 527.702 245.116 527.897C246.842 528.37 248.558 529.027 250.248 529.812C251.075 530.194 251.909 530.605 252.731 531.079C252.937 531.174 253.152 531.298 253.33 531.401C254.751 532.198 256.095 533.045 257.406 533.992C257.949 534.33 258.443 534.71 258.938 535.091C259.496 535.485 260.034 535.914 260.536 536.323C261.374 536.974 262.2 537.689 262.997 538.411C264.332 539.563 265.598 540.793 266.835 542.032C267.699 542.887 268.534 543.75 269.32 544.657C269.702 545.067 270.091 545.507 270.445 545.925C270.603 546.064 270.725 546.182 270.826 546.336C271.417 546.963 271.987 547.625 272.501 548.302C272.587 548.4 272.666 548.469 272.724 548.575C273.345 549.314 273.973 550.081 274.538 550.836C274.574 550.856 274.581 550.885 274.581 550.885C275.578 552.127 276.519 553.384 277.431 554.649C278.148 555.635 278.829 556.599 279.51 557.564C280.047 558.326 280.555 559.095 281.055 559.837C281.556 560.578 282.021 561.299 282.486 562.02C282.768 562.397 283.014 562.753 283.268 563.138C285.434 566.603 287.221 569.777 288.629 572.328C290.848 576.443 292.067 579.075 292.067 579.075L316.6 572.501C317.927 572.72 319.253 572.938 320.6 573.12C323.21 573.508 325.86 573.824 328.532 574.104C355.875 576.891 384.608 574.838 384.608 574.838C385.217 575.308 385.826 575.779 386.505 576.171C393.671 580.832 404.68 582.259 433.558 576.242C433.558 576.242 433.558 576.242 433.587 576.235C435.363 575.879 437.188 575.481 439.126 575.052C441.945 574.418 444.897 573.717 448.046 572.964C452.386 571.922 457.02 570.74 462.013 569.433C463.767 568.993 465.542 568.518 467.373 568.027C469.936 567.34 472.379 566.655 474.694 565.944L474.778 565.922C481.578 563.919 487.5 561.909 492.608 559.907C507.33 554.12 515.675 548.534 520.388 544.04C526.5 538.237 526.533 534.303 526.533 534.303C534.647 527.631 544.537 519.245 551.81 513.04C557.799 507.903 562.018 504.267 562.018 504.267L544.561 439.117L537.629 438.257ZM-102.921 310.719L-97.2583 335.798C-96.7445 338.166 -97.9061 340.591 -100.095 341.66L-141.552 361.463C-144.576 362.907 -148.185 361.157 -148.904 357.909L-156.732 323.175L-102.921 310.719ZM-155.748 365.267C-162.891 367 -169.796 361.846 -170.038 354.636L-170.671 335.937C-170.816 331.115 -167.891 326.709 -163.422 324.908L-154.77 363.284C-154.619 363.847 -154.588 364.413 -154.642 365.001L-155.748 365.267ZM330.987 125.502C334.944 123.597 339.639 125.569 341.025 129.726L351.943 162.363C352.213 163.257 352.334 164.16 352.299 165.045L350.354 165.445C345.229 166.487 340.109 163.602 338.364 158.666L327.304 127.304L330.987 125.502ZM361 162.14L348.265 124.073C347.131 120.633 348.688 116.865 351.943 115.268L409.178 87.3132C409.606 87.1079 410.049 86.959 410.5 86.8382C416.619 98.6328 423.369 117.292 430.226 136.798C432.335 142.754 428.667 149.231 422.457 150.503L361.421 163.144C361.253 162.857 361.099 162.506 361 162.14ZM229.699 453.687C224.795 455.212 219.646 452.335 218.318 447.378L208.341 410.141L234.329 401.337C239.026 399.715 244.101 402.431 245.392 407.248L255.694 445.695L229.699 453.687ZM1.46566 467.415L13.1941 511.186C14.4545 515.89 11.7704 520.745 7.11182 522.174L-35.3916 535.254C-40.2755 536.743 -45.4519 533.874 -46.7727 528.945L-57.9502 487.23C-59.1653 482.695 -56.7121 477.992 -52.3036 476.419L-10.3304 461.247C-5.34546 459.459 0.0920626 462.289 1.46566 467.415ZM52.079 503.756L42.6827 468.688C41.4148 463.956 44.2905 459.14 49.0527 457.985L73.7463 452.123L83.754 489.472C85.0144 494.176 82.3304 499.031 77.6718 500.46L54.3303 507.65C53.2658 506.607 52.4866 505.277 52.079 503.756ZM89.7899 490.028C89.6526 489.854 89.551 489.7 89.47 489.51C89.3176 489.279 89.2009 489.069 89.1048 488.823C88.9956 488.641 88.9503 488.472 88.8693 488.282C88.7582 487.98 88.6393 487.65 88.5488 487.312L78.8279 451.033C79.1247 451.014 79.4215 450.995 79.7258 451.004C83.5108 451.046 86.8986 453.55 87.9457 457.345C87.9532 457.373 87.9532 457.373 87.9608 457.401L97.4326 492.75C97.5458 493.173 97.6232 493.575 97.6726 493.984C97.3119 493.99 96.9232 494.004 96.5474 493.954C96.2431 493.944 95.9313 493.907 95.6119 493.842C95.3 493.805 95.0088 493.732 94.7382 493.623C94.3473 493.517 93.9489 493.382 93.5787 493.24C93.293 493.075 93.0148 492.938 92.7291 492.773C92.4434 492.608 92.1502 492.415 91.8851 492.214C91.3267 491.82 90.8302 491.319 90.3901 490.803C90.3825 490.775 90.3543 490.783 90.3468 490.755C90.138 490.539 89.9499 490.287 89.7899 490.028ZM125.81 479.23L117.629 448.697C116.346 443.909 118.936 438.928 123.583 437.23L146.866 428.696C148.406 428.133 150.031 428 151.569 428.221L161.569 465.542C162.83 470.246 160.146 475.101 155.487 476.531L129.5 484.55C127.746 483.3 126.406 481.455 125.81 479.23ZM4.75104 459.621C4.66047 459.283 4.60561 458.966 4.54323 458.62C4.51103 458.388 4.47879 458.155 4.47477 457.914C4.45767 457.738 4.44051 457.561 4.45159 457.377C4.44752 457.137 4.44349 456.896 4.47514 456.676C4.50479 456.336 4.54193 456.025 4.6073 455.705C4.79934 454.507 5.25452 453.388 5.8882 452.373C6.92872 450.736 8.49194 449.472 10.4183 448.774L27.5098 442.595L45.6533 510.308L29.3983 515.327C28.9758 515.44 28.5532 515.554 28.1156 515.611C27.9466 515.656 27.7983 515.665 27.6218 515.683C27.586 515.662 27.586 515.662 27.5578 515.669C27.4094 515.679 27.2404 515.724 27.0845 515.706C26.9361 515.715 26.7877 515.725 26.6318 515.706C26.5473 515.729 26.4835 515.716 26.3915 515.71C25.9951 515.696 25.5911 515.653 25.2079 515.575C24.9881 515.543 24.7682 515.511 24.569 515.444C24.3773 515.405 24.1782 515.337 23.979 515.27C23.7798 515.203 23.5806 515.135 23.3814 515.068C23.1822 515 22.9755 514.905 22.7969 514.802C22.4192 514.631 22.062 514.425 21.6973 514.191C20.9961 513.714 20.3643 513.159 19.8225 512.489C19.6062 512.245 19.4181 511.994 19.23 511.742C19.0851 511.54 18.9684 511.329 18.8517 511.119C18.7501 510.965 18.669 510.776 18.5599 510.594C18.4713 510.376 18.3471 510.137 18.2868 509.912C18.1756 509.61 18.0719 509.336 17.9889 509.026L4.75104 459.621ZM192.354 465.173L182.263 427.514C181.086 423.12 183.528 418.601 187.818 417.15L203.417 411.823C203.425 411.851 203.425 411.851 203.425 411.851L213.531 449.566C213.614 449.876 213.676 450.222 213.731 450.539C213.776 450.708 213.786 450.856 213.767 451.012C213.813 451.181 213.802 451.366 213.819 451.542C213.836 451.719 213.825 451.903 213.834 452.051C213.833 452.384 213.803 452.724 213.773 453.064C213.684 453.631 213.566 454.206 213.377 454.74C213.297 455.003 213.188 455.273 213.072 455.516C212.739 456.299 212.298 457.021 211.75 457.681C211.591 457.875 211.403 458.076 211.216 458.277C211.118 458.364 211.049 458.443 210.951 458.529C209.983 459.423 208.814 460.128 207.449 460.555L192.635 465.097L192.354 465.173ZM228.126 190.709C225.412 191.286 222.729 190.737 220.521 189.366C219.398 188.671 218.443 187.81 217.647 186.755C216.859 185.728 216.258 184.501 215.896 183.149L215.594 182.022C215.915 181.755 216.3 181.501 216.7 181.303L248.762 165.648C252.719 163.742 257.414 165.715 258.799 169.872L262.583 181.175C262.85 181.948 262.977 182.76 262.969 183.517L244.916 187.237L228.126 190.709ZM271.64 180.952L266.039 164.218C264.906 160.778 266.463 157.01 269.746 155.406L311.658 134.938L320.327 159.514C322.443 165.498 318.803 171.967 312.593 173.239L271.921 181.661C271.804 181.451 271.708 181.205 271.64 180.952ZM-96.1856 309.156L-76.1188 304.504C-69.8692 303.04 -63.6661 306.812 -62.233 312.949L-61.6856 315.218L-59.9582 322.453L-70.4204 327.46L-84.0403 333.977C-87.0646 335.422 -90.6451 333.664 -91.3928 330.423L-96.1856 309.156ZM329.397 432.558L318.469 391.772L364.41 380.368L375.233 420.759L329.397 432.558ZM363.484 377.024L317.543 388.428L314.592 377.415C313.686 374.035 315.594 370.565 318.893 369.47L351.442 358.786C355.015 357.587 358.842 359.701 359.816 363.335L363.484 377.024Z" fill="url(#paint0_linear_167_2792)"/>
</mask>
<g mask="url(#mask2_167_2792)">
<path d="M537.629 438.257L537.6 438.265L495.016 432.679C435.474 406.731 495.016 432.679 472.711 422.869C435.474 406.731 495.016 432.679 459.2 416.884C435.474 406.731 435.474 406.731 435.474 406.731L414.157 338.663C407.278 316.697 420.312 293.471 442.645 287.899L480.015 278.574C485.287 277.258 488.2 271.608 486.213 266.551L483.03 258.447L482.941 258.229L477.901 245.391L477.82 245.201L446.037 155.807L446.007 155.695L445.637 154.767L420.94 91.8899C420.94 91.8899 419.448 88.5763 416.621 83.6583C416.388 83.2379 416.154 82.8174 415.885 82.3763C414.705 80.3377 413.316 78.0835 411.713 75.7055C411.466 75.3489 411.212 74.9641 410.966 74.6075C410.32 73.6635 409.647 72.7269 408.966 71.7623L408.936 71.6496C408.798 71.4751 408.676 71.3569 408.531 71.1542C408.437 71.0285 408.351 70.9309 408.256 70.8052C407.496 69.7711 406.708 68.7446 405.884 67.6974C405.126 66.7835 404.36 65.8415 403.574 64.9352C403.17 64.4398 402.73 63.9238 402.269 63.4434C401.829 62.9274 401.396 62.4395 400.935 61.9592C400.632 61.6177 400.294 61.2556 399.927 60.901C399.589 60.5389 399.222 60.1843 398.891 59.8504C398.135 59.0567 397.358 58.2988 396.533 57.5841C396.202 57.2502 395.878 56.9444 395.527 56.6461C394.686 55.8751 393.797 55.1474 392.915 54.4478C392.441 54.0314 391.918 53.6582 391.424 53.2775C390.929 52.8967 390.407 52.5236 389.884 52.1504C389.504 51.8597 389.104 51.6047 388.704 51.3497C388.066 50.8865 387.38 50.4666 386.694 50.0466C386.23 49.7786 385.758 49.4824 385.294 49.2143C384.829 48.9463 384.329 48.6576 383.837 48.3971C383.13 48.0129 382.403 47.6644 381.711 47.3365C380.285 46.6319 378.853 46.0194 377.464 45.4557C376.067 44.8638 374.694 44.3564 373.363 43.8977C371.336 43.2033 369.338 42.6215 367.42 42.1091C366.12 41.7632 364.87 41.4942 363.656 41.2458C362.123 40.9321 360.669 40.6878 359.258 40.4922C358.627 40.3897 358.031 40.3078 357.408 40.2334C356.188 40.077 355.041 39.962 353.936 39.8957C353.108 39.8459 352.336 39.7811 351.607 39.7651C350.878 39.7491 350.141 39.7048 349.477 39.7019C348.932 39.6969 348.451 39.705 347.998 39.7055C347.574 39.6985 347.157 39.7197 346.74 39.7409C343.926 39.8306 341.963 40.0546 341.096 40.1965C340.976 40.1985 340.891 40.2212 340.807 40.2438C340.658 40.2534 340.574 40.276 340.574 40.276C340.574 40.276 340.489 40.2987 340.341 40.3083C340.2 40.346 339.995 40.3706 339.706 40.4179C338.444 40.6655 335.82 41.127 332.104 41.7908C330.891 41.9951 329.593 42.222 328.19 42.5073C326.081 42.8611 323.726 43.311 321.187 43.7498C318.945 44.1695 316.554 44.5988 314.051 45.0582C313.508 45.1735 312.986 45.253 312.436 45.34C309.672 45.8392 306.738 46.3837 303.713 46.9227C301.555 47.3197 299.341 47.7319 297.063 48.1309C294.785 48.53 292.45 48.9442 290.096 49.394C286.556 50.0407 282.903 50.7175 279.158 51.3888C277.282 51.7104 275.414 52.0601 273.517 52.4174C271.62 52.7747 269.716 53.1038 267.791 53.4686C263.962 54.1626 260.076 54.8716 256.191 55.5807C253.723 56.0607 251.22 56.5202 248.744 56.9721C247.362 57.2217 245.952 57.4788 244.57 57.7284C240.72 58.4581 236.87 59.1878 233.069 59.8742C228.006 60.8082 223.063 61.7401 218.261 62.6343C213.467 63.5567 208.841 64.4338 204.441 65.2506C201.142 65.8932 197.983 66.498 194.993 67.0576C192.984 67.4451 191.059 67.8099 189.226 68.1803C188.648 68.2749 188.077 68.3977 187.534 68.5129C185.412 68.9305 183.403 69.318 181.514 69.7035C180.738 69.8509 179.97 70.0265 179.223 70.1664C173.33 71.3831 169.024 72.3256 166.939 72.8841L165.953 73.1482C165.608 73.2106 165.249 73.337 164.891 73.4633L164.553 73.5538C164.243 73.6368 163.912 73.7556 163.582 73.8743C163.3 73.9498 162.998 74.0609 162.696 74.1721C161.95 74.4322 161.177 74.6999 160.411 74.9957C158.822 75.6025 157.177 76.2243 155.52 76.91C154.677 77.2567 153.841 77.6315 152.97 77.9856C151.256 78.6864 149.508 79.4868 147.76 80.2872C144.967 81.5791 142.153 82.9068 139.403 84.2475C137.109 85.3754 134.843 86.4957 132.718 87.5783C131.715 88.1186 130.705 88.6308 129.744 89.0996C128.552 89.7209 127.416 90.3271 126.358 90.8825C125.537 91.3137 124.725 91.773 123.981 92.1533C123.21 92.5411 122.502 92.9421 121.843 93.2998C121.366 93.5483 120.918 93.7893 120.497 94.0227C120.077 94.2561 119.712 94.4744 119.341 94.6646C118.779 94.9358 118.31 95.2124 117.918 95.4383C117.385 95.7019 116.992 95.9278 116.762 96.0802C116.608 96.1819 116.503 96.2402 116.503 96.2402C116.503 96.2402 116.474 96.2478 116.446 96.2553C116.446 96.2553 116.418 96.2628 116.397 96.2985C116.285 96.3287 116.046 96.453 115.739 96.6562C115.71 96.6638 115.69 96.6995 115.69 96.6995C115.556 96.7654 115.423 96.8313 115.269 96.9329C114.8 97.2096 114.19 97.524 113.482 97.925C113.398 97.9476 113.349 97.9909 113.272 98.0417C112.936 98.2525 112.564 98.4426 112.144 98.676C109.39 100.229 105.403 102.475 100.372 105.332C99.0341 106.083 97.5906 106.893 96.0983 107.745C89.8344 111.295 82.3448 115.566 73.8527 120.378C37.5588 140.971 -16.5486 171.922 -67.0381 201.39C-126.962 236.436 -181.7 269.427 -195.449 280.87C-206.639 290.147 -212.214 306.857 -214.661 324.992L-214.653 325.02C-214.683 325.36 -214.728 325.644 -214.785 325.991C-218.725 357.145 -213.707 392.209 -212.238 401.294C-212.161 401.696 -212.106 402.014 -212.059 402.303L-212.044 402.359C-211.932 403.114 -211.847 403.544 -211.847 403.544L-191.942 481.774L-188.496 495.311L-188.435 495.536L-183.391 515.377L-183.036 516.701L-182.973 517.047L-182.709 518.032L-166.175 583.007L-165.949 583.852L-165.75 584.704L-165.552 585.557L-165.446 585.951L-151.677 640.043L-151.549 640.522L-151.267 641.684L-150.815 643.374L-137.043 697.587L-133.961 709.652L-70.115 697.133L-69.7413 697.063C-69.7413 697.063 -73.4908 684.422 -75.7811 676.1L-76.3245 674.072C-77.3585 670.213 -78.2289 666.401 -78.9359 662.636C-79.4934 659.766 -79.9514 656.931 -80.338 654.136C-81.7559 643.437 -81.8371 633.556 -80.7106 625.254C-80.6865 625.006 -80.6549 624.787 -80.6232 624.567L-80.6609 624.426L-80.6553 624.334C-80.6423 624.27 -80.6217 624.234 -80.6011 624.199C-80.5206 623.935 -80.4965 623.688 -80.4442 623.432C-80.3789 623.113 -80.3341 622.829 -80.2969 622.517L-80.2763 622.481C-78.1959 610.754 -73.4796 602.668 -66.3816 600.766C-60.2131 599.113 -53.2253 602.433 -46.4453 609.371C-44.9126 610.923 -43.4267 612.638 -41.9518 614.537L-41.9216 614.65C-41.8427 614.719 -41.7993 614.768 -41.7203 614.837C-41.6695 614.914 -41.5906 614.983 -41.504 615.081C-41.3159 615.333 -41.1202 615.612 -40.9245 615.892C-38.8777 618.574 -36.9167 621.61 -35.0081 624.903C-29.5005 634.416 -24.6271 646.182 -21.1177 659.279L-20.9893 659.758C-18.5345 669.033 -17.0247 678.047 -16.361 686.382L-1.85205 683.521L6.57991 681.866L11.7123 680.853L38.1424 675.612L61.5415 671.003L68.3302 669.637L122.488 658.929L127.797 657.899L155.087 652.489L188.004 645.993L193.08 644.995L212.545 641.138L217.247 640.21C217.247 640.21 217.224 640.126 217.187 639.985C217.187 639.985 216.764 638.408 216.13 635.589C215.969 634.877 215.793 634.109 215.595 633.257C215.397 632.404 215.212 631.488 215.004 630.487C214.775 629.521 214.56 628.492 214.35 627.371C214.135 626.342 213.905 625.257 213.695 624.136C213.485 623.014 213.26 621.837 213.056 620.624C212.829 619.326 212.587 617.972 212.344 616.618C212.252 616.16 212.187 615.694 212.115 615.2C211.976 614.453 211.856 613.67 211.737 612.886C211.379 610.537 211.019 608.067 210.68 605.562C209.647 597.99 208.845 589.812 208.559 581.647C208.343 575.094 208.459 568.542 209.077 562.399C209.524 557.871 210.272 553.565 211.379 549.585C211.411 549.366 211.479 549.166 211.567 548.931C214.586 538.341 220.145 530.361 229.551 527.72L229.776 527.659C230.396 527.493 231.023 527.356 231.63 527.253C231.799 527.208 231.968 527.163 232.144 527.146C232.744 527.015 233.33 526.949 233.916 526.882C234.438 526.803 234.975 526.78 235.512 526.757C235.54 526.749 235.568 526.741 235.604 526.762C235.985 526.72 236.374 526.707 236.742 526.729C238.057 526.678 239.346 526.756 240.608 526.961C241.36 527.061 242.119 527.19 242.885 527.347C243.006 527.345 243.105 527.379 243.205 527.412C243.843 527.543 244.49 527.702 245.116 527.897C246.842 528.37 248.558 529.027 250.248 529.812C251.075 530.194 251.909 530.605 252.731 531.079C252.937 531.174 253.152 531.298 253.33 531.401C254.751 532.198 256.095 533.045 257.406 533.992C257.949 534.33 258.443 534.71 258.938 535.091C259.496 535.485 260.034 535.914 260.536 536.323C261.374 536.974 262.2 537.689 262.997 538.411C264.332 539.563 265.598 540.793 266.835 542.032C267.699 542.887 268.534 543.75 269.32 544.657C269.702 545.067 270.091 545.507 270.445 545.925C270.603 546.064 270.725 546.182 270.826 546.336C271.417 546.963 271.987 547.625 272.501 548.302C272.587 548.4 272.666 548.469 272.724 548.575C273.345 549.314 273.973 550.081 274.538 550.836C274.574 550.856 274.581 550.885 274.581 550.885C275.578 552.127 276.519 553.384 277.431 554.649C278.148 555.635 278.829 556.599 279.51 557.564C280.047 558.326 280.555 559.095 281.055 559.837C281.556 560.578 282.021 561.299 282.486 562.02C282.768 562.397 283.014 562.753 283.268 563.138C285.434 566.603 287.221 569.777 288.629 572.328C290.848 576.443 292.067 579.075 292.067 579.075L316.6 572.501C317.927 572.72 319.253 572.938 320.6 573.12C323.21 573.508 325.86 573.824 328.532 574.104C355.875 576.891 384.608 574.838 384.608 574.838C385.217 575.308 385.826 575.779 386.505 576.171C393.671 580.832 404.68 582.259 433.558 576.242C433.558 576.242 433.558 576.242 433.587 576.235C435.363 575.879 437.188 575.481 439.126 575.052C441.945 574.418 444.897 573.717 448.046 572.964C452.386 571.922 457.02 570.74 462.013 569.433C463.767 568.993 465.542 568.518 467.373 568.027C469.936 567.34 472.379 566.655 474.694 565.944L474.778 565.922C481.578 563.919 487.5 561.909 492.608 559.907C507.33 554.12 515.675 548.534 520.388 544.04C526.5 538.237 526.533 534.303 526.533 534.303C534.647 527.631 544.537 519.245 551.81 513.04C557.799 507.903 562.018 504.267 562.018 504.267L544.561 439.117L537.629 438.257ZM-102.921 310.719L-97.2583 335.798C-96.7445 338.166 -97.9061 340.591 -100.095 341.66L-141.552 361.463C-144.576 362.907 -148.185 361.157 -148.904 357.909L-156.732 323.175L-102.921 310.719ZM-155.748 365.267C-162.891 367 -169.796 361.846 -170.038 354.636L-170.671 335.937C-170.816 331.115 -167.891 326.709 -163.422 324.908L-154.77 363.284C-154.619 363.847 -154.588 364.413 -154.642 365.001L-155.748 365.267ZM330.987 125.502C334.944 123.597 339.639 125.569 341.025 129.726L351.943 162.363C352.213 163.257 352.334 164.16 352.299 165.045L350.354 165.445C345.229 166.487 340.109 163.602 338.364 158.666L327.304 127.304L330.987 125.502ZM361 162.14L348.265 124.073C347.131 120.633 348.688 116.865 351.943 115.268L409.178 87.3132C409.606 87.1079 410.049 86.959 410.5 86.8382C416.619 98.6328 423.369 117.292 430.226 136.798C432.335 142.754 428.667 149.231 422.457 150.503L361.421 163.144C361.253 162.857 361.099 162.506 361 162.14ZM229.699 453.687C224.795 455.212 219.646 452.335 218.318 447.378L208.341 410.141L234.329 401.337C239.026 399.715 244.101 402.431 245.392 407.248L255.694 445.695L229.699 453.687ZM1.46566 467.415L13.1941 511.186C14.4545 515.89 11.7704 520.745 7.11182 522.174L-35.3916 535.254C-40.2755 536.743 -45.4519 533.874 -46.7727 528.945L-57.9502 487.23C-59.1653 482.695 -56.7121 477.992 -52.3036 476.419L-10.3304 461.247C-5.34546 459.459 0.0920626 462.289 1.46566 467.415ZM52.079 503.756L42.6827 468.688C41.4148 463.956 44.2905 459.14 49.0527 457.985L73.7463 452.123L83.754 489.472C85.0144 494.176 82.3304 499.031 77.6718 500.46L54.3303 507.65C53.2658 506.607 52.4866 505.277 52.079 503.756ZM89.7899 490.028C89.6526 489.854 89.551 489.7 89.47 489.51C89.3176 489.279 89.2009 489.069 89.1048 488.823C88.9956 488.641 88.9503 488.472 88.8693 488.282C88.7582 487.98 88.6393 487.65 88.5488 487.312L78.8279 451.033C79.1247 451.014 79.4215 450.995 79.7258 451.004C83.5108 451.046 86.8986 453.55 87.9457 457.345C87.9532 457.373 87.9532 457.373 87.9608 457.401L97.4326 492.75C97.5458 493.173 97.6232 493.575 97.6726 493.984C97.3119 493.99 96.9232 494.004 96.5474 493.954C96.2431 493.944 95.9313 493.907 95.6119 493.842C95.3 493.805 95.0088 493.732 94.7382 493.623C94.3473 493.517 93.9489 493.382 93.5787 493.24C93.293 493.075 93.0148 492.938 92.7291 492.773C92.4434 492.608 92.1502 492.415 91.8851 492.214C91.3267 491.82 90.8302 491.319 90.3901 490.803C90.3825 490.775 90.3543 490.783 90.3468 490.755C90.138 490.539 89.9499 490.287 89.7899 490.028ZM125.81 479.23L117.629 448.697C116.346 443.909 118.936 438.928 123.583 437.23L146.866 428.696C148.406 428.133 150.031 428 151.569 428.221L161.569 465.542C162.83 470.246 160.146 475.101 155.487 476.531L129.5 484.55C127.746 483.3 126.406 481.455 125.81 479.23ZM4.75104 459.621C4.66047 459.283 4.60561 458.966 4.54323 458.62C4.51103 458.388 4.47879 458.155 4.47477 457.914C4.45767 457.738 4.44051 457.561 4.45159 457.377C4.44752 457.137 4.44349 456.896 4.47514 456.676C4.50479 456.336 4.54193 456.025 4.6073 455.705C4.79934 454.507 5.25452 453.388 5.8882 452.373C6.92872 450.736 8.49194 449.472 10.4183 448.774L27.5098 442.595L45.6533 510.308L29.3983 515.327C28.9758 515.44 28.5532 515.554 28.1156 515.611C27.9466 515.656 27.7983 515.665 27.6218 515.683C27.586 515.662 27.586 515.662 27.5578 515.669C27.4094 515.679 27.2404 515.724 27.0845 515.706C26.9361 515.715 26.7877 515.725 26.6318 515.706C26.5473 515.729 26.4835 515.716 26.3915 515.71C25.9951 515.696 25.5911 515.653 25.2079 515.575C24.9881 515.543 24.7682 515.511 24.569 515.444C24.3773 515.405 24.1782 515.337 23.979 515.27C23.7798 515.203 23.5806 515.135 23.3814 515.068C23.1822 515 22.9755 514.905 22.7969 514.802C22.4192 514.631 22.062 514.425 21.6973 514.191C20.9961 513.714 20.3643 513.159 19.8225 512.489C19.6062 512.245 19.4181 511.994 19.23 511.742C19.0851 511.54 18.9684 511.329 18.8517 511.119C18.7501 510.965 18.669 510.776 18.5599 510.594C18.4713 510.376 18.3471 510.137 18.2868 509.912C18.1756 509.61 18.0719 509.336 17.9889 509.026L4.75104 459.621ZM192.354 465.173L182.263 427.514C181.086 423.12 183.528 418.601 187.818 417.15L203.417 411.823C203.425 411.851 203.425 411.851 203.425 411.851L213.531 449.566C213.614 449.876 213.676 450.222 213.731 450.539C213.776 450.708 213.786 450.856 213.767 451.012C213.813 451.181 213.802 451.366 213.819 451.542C213.836 451.719 213.825 451.903 213.834 452.051C213.833 452.384 213.803 452.724 213.773 453.064C213.684 453.631 213.566 454.206 213.377 454.74C213.297 455.003 213.188 455.273 213.072 455.516C212.739 456.299 212.298 457.021 211.75 457.681C211.591 457.875 211.403 458.076 211.216 458.277C211.118 458.364 211.049 458.443 210.951 458.529C209.983 459.423 208.814 460.128 207.449 460.555L192.635 465.097L192.354 465.173ZM228.126 190.709C225.412 191.286 222.729 190.737 220.521 189.366C219.398 188.671 218.443 187.81 217.647 186.755C216.859 185.728 216.258 184.501 215.896 183.149L215.594 182.022C215.915 181.755 216.3 181.501 216.7 181.303L248.762 165.648C252.719 163.742 257.414 165.715 258.799 169.872L262.583 181.175C262.85 181.948 262.977 182.76 262.969 183.517L244.916 187.237L228.126 190.709ZM271.64 180.952L266.039 164.218C264.906 160.778 266.463 157.01 269.746 155.406L311.658 134.938L320.327 159.514C322.443 165.498 318.803 171.967 312.593 173.239L271.921 181.661C271.804 181.451 271.708 181.205 271.64 180.952ZM-96.1856 309.156L-76.1188 304.504C-69.8692 303.04 -63.6661 306.812 -62.233 312.949L-61.6856 315.218L-59.9582 322.453L-70.4204 327.46L-84.0403 333.977C-87.0646 335.422 -90.6451 333.664 -91.3928 330.423L-96.1856 309.156ZM329.397 432.558L318.469 391.772L364.41 380.368L375.233 420.759L329.397 432.558ZM363.484 377.024L317.543 388.428L314.592 377.415C313.686 374.035 315.594 370.565 318.893 369.47L351.442 358.786C355.015 357.587 358.842 359.701 359.816 363.335L363.484 377.024Z" fill="url(#paint1_linear_167_2792)"/>
<path d="M-192.441 446.108L215.58 253.039C222.976 249.547 230.791 246.94 238.77 245.285L466.731 198.543" stroke="white" stroke-opacity="0.15" stroke-width="25"/>
<g filter="url(#filter0_f_167_2792)">
<rect x="117.001" y="71.3726" width="77.4" height="612.445" transform="rotate(-16.0295 117.001 71.3726)" fill="white" fill-opacity="0.25"/>
</g>
<path d="M73.8163 428.947L72.164 429.54L65.1737 431.957L28.0553 444.74L45.6253 510.313L29.3701 515.332C28.9476 515.446 28.5251 515.559 28.0875 515.616C27.9185 515.661 27.7701 515.67 27.5936 515.688C27.5578 515.667 27.5579 515.667 27.5297 515.674C27.3813 515.684 27.2123 515.729 27.0564 515.711C26.908 515.72 26.7596 515.73 26.6037 515.711C26.5192 515.734 26.4553 515.721 26.3632 515.715C25.9669 515.701 25.563 515.658 25.1797 515.58C24.9599 515.548 24.7401 515.516 24.5409 515.449C24.3493 515.41 24.15 515.342 23.9508 515.275C23.7517 515.208 23.5525 515.14 23.3533 515.073C23.1541 515.005 22.9474 514.91 22.7688 514.807C22.3911 514.636 22.0339 514.43 21.6692 514.196C20.968 513.719 20.3363 513.164 19.7945 512.494C19.5782 512.25 19.39 511.999 19.2019 511.747C19.057 511.545 18.9403 511.334 18.8236 511.124C18.7219 510.97 18.641 510.781 18.5318 510.599C18.4433 510.381 18.319 510.142 18.2586 509.917C18.1474 509.615 18.0438 509.341 17.9607 509.031L4.72285 459.626C4.63229 459.288 4.57749 458.971 4.51508 458.625C4.48288 458.393 4.45061 458.16 4.44656 457.919C4.42945 457.743 4.41236 457.566 4.42341 457.382C4.41936 457.142 4.41533 456.901 4.44701 456.681C4.47665 456.341 4.51386 456.03 4.57922 455.71C4.77126 454.512 5.22638 453.393 5.86006 452.378L3.87734 453.091L2.2456 453.649L-63.6435 476.345L-65.2957 476.939L-72.1809 479.297L-113.413 493.515C-113.413 493.515 -113.443 493.402 -113.455 493.134C-113.517 492.788 -113.584 492.202 -113.683 491.383C-113.726 490.882 -113.793 490.296 -113.854 489.618C-114.297 485.148 -114.844 477.022 -114.609 466.182C-114.481 461.589 -114.248 456.485 -113.761 450.981C-111.927 429.207 -106.737 400.918 -93.8016 370.553C-93.4551 369.706 -93.0806 368.85 -92.6853 367.96C-91.4321 365.088 -90.0944 362.194 -88.7003 359.284C-88.3106 358.485 -87.9002 357.651 -87.5105 356.852C-87.1001 356.018 -86.6897 355.183 -86.2512 354.341C-83.8131 349.582 -81.1985 344.806 -78.3509 339.998C-77.8355 339.105 -77.3124 338.24 -76.7687 337.34C-74.7797 334.06 -72.678 330.749 -70.4485 327.465L-84.0685 333.982C-87.0928 335.427 -90.6732 333.669 -91.4209 330.428L-96.2137 309.161L-76.1469 304.509C-69.8974 303.045 -63.6942 306.817 -62.2611 312.954L-61.7137 315.223C-55.4799 306.941 -48.5021 298.732 -40.7447 290.615C-38.8536 288.659 -36.9344 286.696 -34.9437 284.774C-23.9644 273.922 -11.4596 263.357 2.70827 253.251L-5.66164 222.014L-40.9527 240.829C-41.0015 240.872 -41.086 240.895 -41.1348 240.938L-56.8243 249.308L-100.542 272.615C-100.542 272.615 -100.695 270.241 -100.188 265.939C-100.121 265.287 -100.013 264.563 -99.9121 263.812C-98.0349 251.777 -91.2743 228.561 -66.9536 201.365C-126.877 236.41 -181.615 269.402 -195.364 280.845C-206.554 290.122 -212.13 306.832 -214.576 324.967L-214.569 324.995C-214.598 325.335 -214.643 325.618 -214.701 325.966C-218.64 357.12 -213.622 392.183 -212.154 401.269C-212.076 401.671 -212.021 401.988 -211.974 402.278L-211.959 402.334C-211.847 403.089 -211.762 403.519 -211.762 403.519L-191.857 481.749L-188.411 495.286L-188.351 495.511L-183.306 515.352L-182.951 516.676L-182.889 517.021L-182.625 518.007L-166.091 582.981L-165.864 583.826L-165.666 584.679L-165.468 585.532L-165.362 585.926L-151.593 640.018L-151.464 640.497L-151.183 641.659L-150.73 643.349L-136.959 697.562L-133.877 709.627L-70.115 697.13L-69.7413 697.061C-69.7413 697.061 -73.4907 684.42 -75.781 676.098L-76.3244 674.07C-77.3584 670.211 -78.2288 666.399 -78.9359 662.633C-79.4934 659.764 -79.9514 656.928 -80.338 654.133C-81.7558 643.434 -81.8371 633.554 -80.7106 625.252C-80.6865 625.004 -80.6549 624.784 -80.6232 624.564L-80.6609 624.423C-80.6272 624.324 -80.5784 624.281 -80.6011 624.196C-80.5206 623.933 -80.4965 623.685 -80.4442 623.429C-80.3789 623.11 -80.3341 622.826 -80.2969 622.515L-80.2763 622.479C-78.1959 610.751 -73.4796 602.665 -66.3816 600.763C-60.2131 599.11 -53.2253 602.43 -46.4454 609.369C-44.9126 610.92 -43.4267 612.635 -41.9517 614.534L-41.9216 614.647C-41.8426 614.716 -41.7994 614.765 -41.7204 614.835C-41.6696 614.912 -41.5905 614.981 -41.504 615.079C-41.3159 615.33 -41.1202 615.61 -40.9245 615.889C-38.8776 618.571 -36.9167 621.608 -35.0081 624.9C-29.5005 634.413 -24.6271 646.179 -21.1177 659.277L-20.9893 659.756C-18.5345 669.03 -17.0247 678.045 -16.3611 686.38L-1.85209 683.519C-3.20374 676.334 -4.36849 666.804 -4.38056 655.154C-4.41265 650.303 -4.20281 645.114 -3.73049 639.554L-3.7456 639.497C-3.5165 636.296 -3.16922 632.973 -2.72437 629.563C-1.67833 621.524 -0.0619662 612.91 2.2525 603.746C2.41894 603.128 2.5778 602.482 2.73667 601.836C2.75731 601.8 2.75728 601.8 2.77789 601.764C2.94433 601.146 3.10331 600.5 3.29036 599.846C3.3165 599.718 3.37077 599.583 3.41753 599.419C8.09487 582.286 15.3584 563.314 26.2041 542.838C26.5808 542.103 26.9856 541.36 27.3905 540.618C30.2505 535.293 33.3847 529.864 36.7723 524.368C37.2259 523.582 37.6947 522.853 38.1634 522.123C38.6246 521.366 39.0857 520.608 39.5545 519.879C41.5661 516.683 43.6624 513.465 45.8788 510.245C47.7351 507.483 49.6477 504.706 51.6523 501.935L42.739 468.67C41.4711 463.938 44.3468 459.123 49.109 457.967L73.8027 452.105L78.1575 468.358C79.2886 467.058 80.4197 465.759 81.5789 464.452C81.8078 464.179 82.0442 463.935 82.273 463.662L78.8843 451.015C79.1811 450.996 79.4778 450.977 79.7821 450.986C83.5671 451.029 86.955 453.532 88.002 457.327C90.5308 454.597 93.1084 451.823 95.7498 449.062L95.6923 422.934L95.6811 421.428L73.8163 428.947ZM-155.748 365.264C-162.891 366.997 -169.796 361.844 -170.038 354.633L-170.671 335.934C-170.816 331.113 -167.891 326.706 -163.422 324.905L-154.77 363.282C-154.619 363.845 -154.588 364.41 -154.642 364.998L-155.748 365.264ZM-102.921 310.717L-97.2582 335.796C-96.7444 338.164 -97.9061 340.588 -100.095 341.658L-141.552 361.461C-144.576 362.905 -148.185 361.155 -148.904 357.906L-156.732 323.173L-102.921 310.717ZM-57.9502 487.227C-59.1653 482.692 -56.7121 477.99 -52.3036 476.416L-10.3305 461.245C-5.34548 459.456 0.0921069 462.286 1.46571 467.412L13.1941 511.183C14.4545 515.887 11.7704 520.742 7.11186 522.172L-35.3916 535.251C-40.2755 536.741 -45.4519 533.871 -46.7727 528.942L-57.9502 487.227Z" fill="white" fill-opacity="0.15"/>
<path d="M316.516 572.521L303.704 575.743L303.668 575.722L286.65 565.278L283.22 563.178L283.184 563.158C282.93 562.773 282.684 562.417 282.401 562.039C281.937 561.319 281.472 560.598 280.971 559.856C280.471 559.115 279.963 558.346 279.426 557.584C278.773 556.611 278.092 555.647 277.347 554.669C276.435 553.404 275.494 552.147 274.497 550.904C274.497 550.904 274.489 550.876 274.454 550.856C273.889 550.101 273.261 549.334 272.64 548.594C272.582 548.489 272.503 548.42 272.416 548.322C271.875 547.652 271.305 546.99 270.742 546.356C270.641 546.202 270.518 546.084 270.36 545.945C270.007 545.526 269.617 545.087 269.236 544.676C268.421 543.777 267.586 542.914 266.751 542.051C265.514 540.813 264.248 539.582 262.913 538.431C262.116 537.708 261.298 537.022 260.452 536.343C259.95 535.934 259.412 535.505 258.854 535.111C258.359 534.73 257.865 534.349 257.321 534.012C256.011 533.065 254.667 532.217 253.246 531.421C253.067 531.318 252.853 531.194 252.646 531.098C251.825 530.624 250.991 530.214 250.164 529.832C248.474 529.047 246.758 528.389 245.031 527.916C244.406 527.722 243.759 527.563 243.121 527.432C243.021 527.398 242.921 527.365 242.801 527.367C242.055 527.174 241.296 527.045 240.524 526.981C239.262 526.775 237.973 526.698 236.658 526.749C236.29 526.726 235.901 526.74 235.52 526.782C235.484 526.761 235.456 526.769 235.428 526.776C234.891 526.799 234.353 526.823 233.831 526.902C233.245 526.969 232.659 527.035 232.06 527.165C231.884 527.182 231.715 527.228 231.546 527.273C230.939 527.375 230.312 527.513 229.692 527.679L229.467 527.74L210.923 458.534C211.021 458.447 211.09 458.368 211.188 458.282C211.375 458.081 211.563 457.879 211.722 457.686C212.27 457.026 212.711 456.304 213.044 455.52C213.16 455.278 213.269 455.007 213.349 454.744C213.538 454.21 213.656 453.636 213.746 453.068C213.775 452.728 213.805 452.388 213.806 452.056C213.797 451.907 213.808 451.723 213.791 451.547C213.774 451.37 213.785 451.186 213.739 451.017C213.758 450.861 213.748 450.713 213.703 450.544C213.648 450.226 213.586 449.881 213.503 449.571L190.688 364.423L195.729 363.072L218.318 447.375C219.647 452.332 224.795 455.209 229.699 453.684L255.694 445.692L252.351 433.214L275.11 427.116L304.668 530.895L316.516 572.521Z" fill="white" fill-opacity="0.15"/>
</g>
<path d="M343.424 542.697C349.28 541.128 352.768 533.889 350.701 526.175C348.634 518.46 341.993 513.935 336.138 515.504C330.282 517.073 326.793 524.313 328.86 532.027C330.927 539.741 337.568 544.266 343.424 542.697Z" fill="#FFEC6A" stroke="black" stroke-width="2"/>
<path d="M536.366 490.999C542.222 489.43 545.711 482.19 543.644 474.476C541.577 466.762 534.936 462.237 529.08 463.806C523.224 465.375 519.736 472.614 521.803 480.329C523.87 488.043 530.51 492.568 536.366 490.999Z" fill="#FFEC6A" stroke="black" stroke-width="2"/>
<path d="M482.529 451.43L482.528 451.43C451.21 456.778 420.682 464.958 390.886 475.985C386.893 477.487 384.67 481.748 385.748 485.875L407.219 566.005C408.268 569.92 412.019 572.473 416.036 572.07C448.291 568.813 479.198 560.532 508.76 547.225L508.76 547.225C512.465 545.558 514.412 541.481 513.363 537.564L491.891 457.43C490.779 453.283 486.725 450.709 482.529 451.43Z" fill="#373451" stroke="black" stroke-width="2"/>
<path d="M501.276 572.983L439.534 589.527C436.154 590.433 432.69 588.433 431.784 585.053L431.218 582.94C430.313 579.56 432.313 576.096 435.693 575.19L497.434 558.647C500.814 557.741 504.278 559.741 505.184 563.121L505.75 565.234C506.656 568.614 504.628 572.085 501.276 572.983Z" fill="#373451"/>
<path d="M293.725 266.323L299.839 283.973C300.671 286.414 303.225 287.861 305.771 287.285L435.287 258.407C438.272 257.749 439.992 254.624 439.012 251.761L432.986 234.443C432.121 232.011 429.609 230.588 427.054 231.13L297.483 259.668C294.464 260.335 292.735 263.427 293.725 266.323Z" fill="white" fill-opacity="0.05"/>
<path d="M304.041 295.089L306.463 299.36C306.784 299.953 308.941 299.963 311.481 299.369L440.603 269.267C443.577 268.575 445.822 267.355 445.44 266.66L443.039 262.473C442.684 261.888 440.562 261.878 438.021 262.464L308.911 292.473C305.904 293.173 303.657 294.385 304.041 295.089Z" fill="white" fill-opacity="0.05"/>
<path d="M-208.44 416.057L199.58 222.988C206.976 219.497 214.791 216.889 222.77 215.234L450.731 168.492" stroke="black" stroke-width="2"/>
<path d="M309.562 574.173L291.93 578.898C291.93 578.898 264.115 518.244 229.639 527.482C190.6 537.943 217.131 639.997 217.131 639.997L212.428 640.925C212.392 640.905 212.392 640.905 212.392 640.905C212.392 640.905 179.309 526.447 230.459 512.742C279.794 499.583 309.562 574.173 309.562 574.173Z" fill="#151728"/>
<path d="M10.5609 213.383L-40.9171 240.852C-42.9782 241.947 -44.063 244.321 -43.5437 246.597L-31.1162 301.653C-30.3891 304.93 -26.788 306.651 -23.7918 305.215L28.2885 280.331C30.4849 279.29 31.6748 276.858 31.1253 274.469L18.1031 216.856C17.3458 213.467 13.5963 211.754 10.5609 213.383Z" fill="#151728"/>
<path d="M98.4752 170.805L112.508 232.977C113.235 236.254 116.836 237.976 119.832 236.54L194.788 200.697C197.061 199.605 198.221 197.06 197.572 194.637L180.266 130.051C179.398 126.812 175.742 125.225 172.784 126.803L101.074 165.067C99.0125 166.163 97.9559 168.529 98.4752 170.805Z" fill="#151728"/>
<path d="M85.2294 173.54L26.4323 204.902C24.3711 205.998 23.2864 208.372 23.8057 210.648L36.9829 269.065C37.71 272.341 41.311 274.063 44.3072 272.627L103.769 244.196C105.966 243.154 107.155 240.722 106.606 238.334L92.7564 176.957C92.0142 173.624 88.2648 171.911 85.2294 173.54Z" fill="#151728"/>
<path d="M410.498 86.8316C410.047 86.9523 409.604 87.1013 409.176 87.3065L351.941 115.261C348.686 116.858 347.13 120.626 348.263 124.066L360.999 162.133C361.097 162.499 361.251 162.85 361.419 163.138L352.298 165.038C352.332 164.153 352.211 163.25 351.941 162.356L341.023 129.719C339.637 125.562 334.943 123.59 330.985 125.496L327.302 127.298L320.149 107.025C317.974 100.936 321.825 94.3498 328.2 93.2452L399.1 80.7987C403.628 80.0081 408.086 82.2249 410.219 86.2421C410.328 86.4241 410.409 86.6138 410.498 86.8316Z" fill="#151728"/>
<path opacity="0.4" d="M430.228 136.798C432.337 142.753 428.669 149.231 422.459 150.502L361.423 163.144C361.255 162.856 361.101 162.505 361.003 162.139L348.267 124.072C347.134 120.632 348.69 116.864 351.945 115.267L409.18 87.3125C409.608 87.1072 410.051 86.9583 410.502 86.8375C416.621 98.6321 423.371 117.291 430.228 136.798Z" fill="#00376A"/>
<path opacity="0.4" d="M351.945 162.361C352.215 163.255 352.336 164.158 352.302 165.043L350.356 165.443C345.231 166.485 340.111 163.6 338.366 158.664L327.306 127.302L330.989 125.5C334.947 123.595 339.641 125.567 341.027 129.724L351.945 162.361Z" fill="#00376A"/>
<path d="M311.628 134.939L269.716 155.407C266.433 157.011 264.876 160.779 266.009 164.219L271.61 180.953C271.678 181.206 271.774 181.452 271.891 181.662L262.939 183.518C262.947 182.761 262.82 181.949 262.553 181.176L258.769 169.872C257.384 165.715 252.689 163.743 248.732 165.649L216.67 181.304C216.27 181.502 215.885 181.756 215.564 182.023L200.854 127.126C200.477 125.717 200.404 124.318 200.587 122.971C200.655 122.439 200.767 121.957 200.908 121.466C201.048 120.976 201.224 120.506 201.436 120.057C201.593 119.743 201.73 119.465 201.916 119.143C203.408 116.6 205.971 114.675 209.138 114.099L236.241 109.342L289.989 99.9216C295.031 99.0233 299.975 101.925 301.69 106.749L311.628 134.939Z" fill="#151728"/>
<path d="M311.628 134.939L269.716 155.407C266.433 157.011 264.876 160.779 266.009 164.219L271.61 180.953C271.678 181.206 271.774 181.452 271.891 181.662L262.939 183.518C262.947 182.761 262.82 181.949 262.553 181.176L258.769 169.872C257.384 165.715 252.689 163.743 248.732 165.649L216.67 181.304C216.27 181.502 215.885 181.756 215.564 182.023L200.854 127.126C200.477 125.717 200.404 124.318 200.587 122.971C200.655 122.439 200.767 121.957 200.908 121.466C201.048 120.976 201.224 120.506 201.436 120.057C201.593 119.743 201.73 119.465 201.916 119.143C203.408 116.6 205.971 114.675 209.138 114.099L236.241 109.342L289.989 99.9216C295.031 99.0233 299.975 101.925 301.69 106.749L311.628 134.939Z" fill="#151728"/>
<path opacity="0.4" d="M320.3 159.519C322.416 165.502 318.776 171.972 312.566 173.244L271.894 181.666C271.777 181.456 271.681 181.21 271.613 180.957L266.013 164.223C264.88 160.783 266.436 157.015 269.719 155.411L311.632 134.943L320.3 159.519Z" fill="#00376A"/>
<path opacity="0.4" d="M262.584 181.172C262.852 181.945 262.979 182.757 262.97 183.514L244.918 187.234L228.128 190.706C225.414 191.282 222.731 190.733 220.522 189.363C218.313 187.992 216.622 185.849 215.898 183.145L215.596 182.019C215.917 181.752 216.301 181.498 216.701 181.3L248.763 165.645C252.721 163.739 257.415 165.711 258.801 169.868L262.584 181.172Z" fill="#00376A"/>
<path d="M147.895 414.497L151.57 428.214C150.031 427.992 148.407 428.126 146.867 428.689L123.584 437.222C118.937 438.92 116.347 443.901 117.63 448.69L125.811 479.222C126.407 481.447 127.747 483.292 129.501 484.543L99.9589 493.606C99.1778 493.845 98.4228 493.957 97.6733 493.977C97.624 493.567 97.5466 493.166 97.4334 492.743L87.9616 457.394C87.954 457.366 87.9541 457.366 87.9465 457.337C86.8995 453.543 83.5116 451.039 79.7266 450.996C79.4223 450.987 79.1255 451.007 78.8287 451.026L75.5985 438.97C75.2438 437.647 75.1859 436.304 75.4549 435.054C75.9827 431.954 78.1584 429.258 81.2733 428.152L95.6367 422.945L136.07 408.337C141.055 406.548 146.521 409.371 147.895 414.497Z" fill="#151728"/>
<path d="M69.8817 437.696L73.7459 452.117L49.0522 457.979C44.29 459.134 41.4143 463.95 42.6823 468.682L52.0786 503.75C52.4862 505.271 53.2654 506.602 54.3298 507.645L45.8219 510.256L45.6248 510.309L27.4812 442.596L58.0856 431.528C60.5114 430.667 63.0475 430.893 65.1733 431.954C67.3986 433.048 69.1798 435.076 69.8817 437.696Z" fill="#151728"/>
<path d="M203.388 411.823L187.789 417.15C183.499 418.602 181.056 423.12 182.234 427.514L192.325 465.173C187.516 466.492 182.523 463.633 181.225 458.789L171.217 421.44C169.98 416.82 172.559 412.024 177.11 410.532L191.825 405.623C196.727 403.978 202.045 406.809 203.388 411.823Z" fill="#151728"/>
<path d="M252.476 342.761L275.948 430.359C277.201 435.035 274.517 439.89 269.858 441.319L255.693 445.688L245.391 407.241C244.101 402.424 239.026 399.709 234.328 401.33L208.34 410.135L195.668 362.843C194.475 358.392 196.803 353.784 201.089 352.092L240.462 336.681C245.486 334.701 251.08 337.55 252.476 342.761Z" fill="#151728"/>
<path d="M159.332 377.076L170.734 420.597C172.084 425.639 172.579 420.527 177.545 418.895L190.033 409.245C194.577 407.726 196.844 410.38 202.94 411.002L191.327 366.692C189.93 361.481 184.309 358.64 179.285 360.62L164.773 366.29C160.495 368.01 158.147 372.654 159.332 377.076Z" fill="#151728"/>
<path d="M394.565 304.469L409.516 360.267C410.21 362.859 408.656 365.509 406.078 366.14L363.482 377.017L359.815 363.327C358.841 359.694 355.014 357.58 351.441 358.779L318.892 369.462C315.593 370.558 313.685 374.027 314.59 377.407L317.541 388.421L284.343 396.682C281.822 397.297 279.271 395.777 278.599 393.27L263.504 336.937C262.81 334.346 264.392 331.688 266.978 331.085L388.828 301.086C391.35 300.47 393.893 301.962 394.565 304.469Z" fill="#151728"/>
<path d="M285.439 399.982L318.468 391.766L329.396 432.551L296.322 441.051C293.78 441.702 291.201 440.19 290.522 437.655L281.993 405.826C281.299 403.235 282.861 400.613 285.439 399.982Z" fill="#151728"/>
<path d="M413.882 372.829L422.214 403.925C422.893 406.46 421.367 409.102 418.797 409.761L376.203 420.758L365.381 380.367L408.117 369.452C410.631 368.809 413.21 370.322 413.882 372.829Z" fill="#151728"/>
<path opacity="0.4" d="M1.46677 467.411L13.1952 511.182C14.4556 515.886 11.7715 520.741 7.11293 522.17L-35.3905 535.25C-40.2744 536.739 -45.4508 533.87 -46.7716 528.941L-57.9491 487.226C-59.1642 482.691 -56.711 477.988 -52.3025 476.414L-10.3294 461.243C-5.34442 459.455 0.0931737 462.285 1.46677 467.411Z" fill="#00376A"/>
<path opacity="0.4" d="M27.5103 442.591L45.6538 510.304L29.3987 515.323C28.9762 515.437 28.5537 515.55 28.1161 515.607C27.9471 515.652 27.7988 515.661 27.6222 515.679C27.5865 515.658 27.5864 515.658 27.5583 515.665C27.4099 515.675 27.2409 515.72 27.085 515.702C26.9366 515.711 26.7882 515.721 26.6323 515.702C26.5478 515.725 26.4839 515.712 26.3919 515.706C25.9955 515.692 25.5916 515.649 25.2083 515.571C24.9885 515.539 24.7687 515.507 24.5695 515.44C24.3778 515.401 24.1787 515.333 23.9795 515.266C23.7803 515.199 23.5811 515.131 23.3819 515.064C23.1827 514.996 22.976 514.901 22.7974 514.798C22.4197 514.627 22.0625 514.421 21.6978 514.187C20.9966 513.71 20.3648 513.155 19.823 512.485C19.6067 512.241 19.4186 511.99 19.2304 511.738C19.0856 511.536 18.9689 511.325 18.8522 511.115C18.7506 510.961 18.6695 510.772 18.5604 510.59C18.4718 510.372 18.3476 510.133 18.2872 509.908C18.176 509.606 18.0724 509.332 17.9894 509.022L4.75151 459.617C4.66094 459.279 4.60606 458.962 4.54366 458.616C4.51144 458.384 4.47926 458.151 4.47522 457.91C4.4581 457.734 4.44102 457.557 4.45207 457.373C4.44802 457.133 4.4439 456.892 4.47557 456.672C4.50522 456.332 4.54243 456.021 4.60779 455.701C4.79983 454.503 5.25495 453.384 5.88863 452.369C6.92917 450.732 8.49236 449.468 10.4188 448.77L27.5103 442.591Z" fill="#00376A"/>
<path opacity="0.4" d="M73.7465 452.12L83.7541 489.469C85.0145 494.173 82.3305 499.028 77.6719 500.457L54.3304 507.647C53.266 506.604 52.4867 505.273 52.0792 503.752L42.6829 468.685C41.4149 463.953 44.2906 459.137 49.0528 457.982L73.7465 452.12Z" fill="#00376A"/>
<path opacity="0.4" d="M87.9465 457.341C87.9541 457.369 87.954 457.369 87.9616 457.397L97.4334 492.746C97.5466 493.169 97.624 493.571 97.6734 493.98C97.3127 493.986 96.9239 494 96.5482 493.949C96.2439 493.94 95.932 493.903 95.6126 493.838C95.3008 493.801 95.0096 493.728 94.739 493.619C94.3481 493.513 93.9497 493.378 93.5795 493.235C93.2938 493.07 93.0156 492.934 92.7299 492.769C92.4442 492.604 92.151 492.411 91.8859 492.21C91.3275 491.816 90.831 491.315 90.3909 490.799C90.3833 490.771 90.3551 490.779 90.3476 490.751C90.1388 490.535 89.9507 490.283 89.7907 490.024C89.6534 489.85 89.5518 489.696 89.4708 489.506C89.3184 489.275 89.2017 489.065 89.1056 488.819C88.9964 488.637 88.9511 488.468 88.8701 488.278C88.7589 487.976 88.6401 487.646 88.5496 487.308L78.8287 451.029C79.1255 451.01 79.4223 450.991 79.7266 451C83.5116 451.042 86.8995 453.546 87.9465 457.341Z" fill="#00376A"/>
<path opacity="0.4" d="M151.57 428.219L161.57 465.54C162.83 470.244 160.146 475.099 155.487 476.529L129.5 484.548C127.746 483.298 126.407 481.453 125.81 479.228L117.629 448.695C116.346 443.906 118.936 438.926 123.583 437.228L146.867 428.694C148.406 428.131 150.031 427.998 151.57 428.219Z" fill="#00376A"/>
<path opacity="0.4" d="M245.391 407.244L255.693 445.691L229.699 453.683C224.794 455.209 219.646 452.331 218.318 447.374L208.34 410.138L234.328 401.333C239.026 399.712 244.101 402.427 245.391 407.244Z" fill="#00376A"/>
<path opacity="0.4" d="M364.383 380.371L375.205 420.762L329.398 432.553L318.47 391.768L364.383 380.371Z" fill="#00376A"/>
<path opacity="0.4" d="M359.817 363.332L363.485 377.021L317.544 388.425L314.593 377.412C313.687 374.032 315.595 370.562 318.894 369.467L351.443 358.783C355.016 357.584 358.843 359.698 359.817 363.332Z" fill="#00376A"/>
<path opacity="0.4" d="M203.39 411.826C203.398 411.854 203.398 411.854 203.398 411.854L213.503 449.57C213.586 449.879 213.649 450.225 213.704 450.542C213.749 450.711 213.759 450.86 213.74 451.016C213.785 451.185 213.774 451.369 213.791 451.545C213.808 451.722 213.797 451.906 213.807 452.054C213.805 452.387 213.776 452.727 213.746 453.067C213.657 453.634 213.539 454.209 213.35 454.743C213.27 455.006 213.161 455.277 213.045 455.519C212.711 456.303 212.271 457.025 211.723 457.685C211.564 457.878 211.376 458.079 211.188 458.281C211.091 458.367 211.021 458.446 210.924 458.533C209.956 459.426 208.786 460.132 207.421 460.558L192.608 465.101L192.326 465.176L182.236 427.517C181.058 423.123 183.501 418.605 187.791 417.153L203.39 411.826Z" fill="#00376A"/>
<path d="M364.383 380.371L375.206 420.762M329.399 432.553L318.47 391.768" stroke="#210080"/>
<path d="M363.485 377.02L359.817 363.331C358.843 359.698 355.016 357.583 351.443 358.782L318.894 369.466C315.595 370.561 313.687 374.031 314.593 377.411L317.544 388.424" stroke="#210080"/>
<path d="M255.694 445.691L245.392 407.243C244.101 402.427 239.027 399.711 234.329 401.332L208.341 410.137" stroke="#210080"/>
<path d="M203.398 411.854C203.398 411.854 203.398 411.854 203.39 411.826L187.791 417.153C183.501 418.605 181.058 423.123 182.236 427.517L192.326 465.176L192.608 465.101" stroke="#210080"/>
<path d="M151.57 428.217C150.031 427.996 148.406 428.129 146.867 428.693L123.583 437.226C118.936 438.924 116.346 443.905 117.629 448.693L125.81 479.226C126.407 481.451 127.746 483.296 129.5 484.546" stroke="#210080"/>
<path d="M97.6738 493.98C97.6245 493.57 97.5471 493.168 97.4339 492.746L87.9621 457.397C87.9545 457.368 87.9545 457.368 87.947 457.34C86.9 453.545 83.5121 451.042 79.7271 450.999C79.4228 450.99 79.126 451.009 78.8292 451.029" stroke="#210080"/>
<path d="M73.7474 452.12L49.0538 457.982C44.2916 459.137 41.4159 463.953 42.6838 468.685L52.0802 503.752C52.4877 505.273 53.2669 506.604 54.3313 507.647" stroke="#210080"/>
<path d="M27.5107 442.59L45.6543 510.303" stroke="#210080"/>
<path d="M262.969 183.514C262.978 182.757 262.851 181.946 262.583 181.172L258.8 169.869C257.414 165.712 252.72 163.739 248.762 165.645L216.7 181.3C216.3 181.498 215.916 181.752 215.595 182.019" stroke="#210080"/>
<path d="M352.3 165.04C352.335 164.155 352.214 163.252 351.944 162.358L341.025 129.721C339.64 125.564 334.945 123.592 330.988 125.497L327.304 127.299" stroke="#210080"/>
<path d="M271.893 181.666C271.776 181.456 271.68 181.21 271.612 180.956L266.011 164.223C264.878 160.783 266.435 157.015 269.718 155.411L311.63 134.942" stroke="#210080"/>
<path d="M361.421 163.142C361.254 162.855 361.099 162.504 361.001 162.138L348.265 124.07C347.132 120.631 348.689 116.863 351.944 115.266L409.179 87.3109C409.607 87.1056 410.05 86.9567 410.5 86.8359" stroke="#210080"/>
<path d="M404.029 513.69L491.443 490.985" stroke="black" stroke-width="2" stroke-linecap="round"/>
<path d="M399.488 498.932L486.902 476.227" stroke="black" stroke-width="2" stroke-linecap="round"/>
<path d="M409.706 529.583L497.12 506.878" stroke="black" stroke-width="2" stroke-linecap="round"/>
<path d="M414.246 545.477L501.661 522.772" stroke="black" stroke-width="2" stroke-linecap="round"/>
<path d="M447.293 472.123L467.699 545.457" stroke="black" stroke-width="2" stroke-linecap="round"/>
<path d="M459.664 468.083L480.07 541.417" stroke="black" stroke-width="2" stroke-linecap="round"/>
<path d="M433.984 477.14L454.39 550.473" stroke="black" stroke-width="2" stroke-linecap="round"/>
<path d="M420.656 481.196L441.062 554.529" stroke="black" stroke-width="2" stroke-linecap="round"/>
<path d="M258.148 560.803C253.04 576.507 250.201 614.614 279.718 641.406" stroke="#2FFD61" stroke-width="2"/>
<path d="M250.605 560.803C245.496 576.507 242.658 614.614 272.175 641.406" stroke="#2FFD61" stroke-width="2"/>
<path d="M382 476L351.5 437C374.3 420.6 403 418.5 414.5 419.5L483 447C432.2 451.8 394.5 468.334 382 476Z" fill="white" fill-opacity="0.1"/>
<path d="M348 442L373.901 480.851C374.629 481.943 375.173 483.147 375.511 484.415L397 565" stroke="white" stroke-opacity="0.15" stroke-width="5" stroke-linecap="round"/>
</g>
<defs>
<filter id="filter0_f_167_2792" x="57.001" y="-10" width="363.507" height="730.006" filterUnits="userSpaceOnUse" color-interpolation-filters="sRGB">
<feFlood flood-opacity="0" result="BackgroundImageFix"/>
<feBlend mode="normal" in="SourceGraphic" in2="BackgroundImageFix" result="shape"/>
<feGaussianBlur stdDeviation="30" result="effect1_foregroundBlur_167_2792"/>
</filter>
<linearGradient id="paint0_linear_167_2792" x1="632.616" y1="15.2571" x2="-355.133" y2="528.109" gradientUnits="userSpaceOnUse">
<stop stop-color="#0058FF"/>
<stop offset="1" stop-color="#F700FE"/>
</linearGradient>
<linearGradient id="paint1_linear_167_2792" x1="632.616" y1="15.2571" x2="-355.133" y2="528.109" gradientUnits="userSpaceOnUse">
<stop stop-color="#0058FF"/>
<stop offset="1" stop-color="#F700FE"/>
</linearGradient>
<clipPath id="clip0_167_2792">
<rect width="968" height="726" fill="white" transform="translate(-354)"/>
</clipPath>
</defs>
</svg>
