<svg width="81" height="82" viewBox="0 0 81 82" fill="none" xmlns="http://www.w3.org/2000/svg">
<g opacity="0.3">
<circle cx="40.4995" cy="41.498" r="40.5" fill="#2C254A"/>
<mask id="mask0_165_3943" style="mask-type:luminance" maskUnits="userSpaceOnUse" x="-1" y="0" width="82" height="82">
<circle cx="40.4995" cy="41.498" r="40.5" fill="white"/>
</mask>
<g mask="url(#mask0_165_3943)">
<circle opacity="0.542899" cx="77.7802" cy="34.7197" r="47.6172" fill="#534572"/>
</g>
<mask id="mask1_165_3943" style="mask-type:luminance" maskUnits="userSpaceOnUse" x="-1" y="0" width="82" height="82">
<circle cx="40.4995" cy="41.498" r="40.5" fill="white"/>
</mask>
<g mask="url(#mask1_165_3943)">
<path opacity="0.112188" fill-rule="evenodd" clip-rule="evenodd" d="M1.53081 23.2145C0.913344 21.802 1.27633 20.1525 2.4297 19.1297C3.72952 17.977 5.67195 17.9324 7.02339 19.024L7.57285 19.4679C8.80834 20.4659 10.4865 20.7188 11.9613 20.1292L14.4609 19.13C15.0927 18.8774 15.6766 18.5186 16.1875 18.0692L17.8571 16.6002C18.9087 15.675 20.4518 15.5749 21.6141 16.3566C22.7279 17.1057 24.1984 17.048 25.2502 16.2139L26.3364 15.3525C27.4621 14.4598 29.0614 14.4859 30.1572 15.415C30.9511 16.088 32.0361 16.3037 33.027 15.9855L34.1703 15.6184C35.2703 15.2651 36.4666 15.3733 37.4854 15.9181C38.6467 16.5391 40.0298 16.5888 41.2326 16.0527L42.3179 15.569C43.5344 15.0269 44.3604 13.8669 44.4749 12.54L44.531 11.8906C44.6449 10.5708 45.6554 9.50474 46.9671 9.32038C47.5901 9.23283 48.2244 9.3544 48.7708 9.66604L51.1398 11.0171C52.0252 11.5221 53.0531 11.7191 54.0625 11.5773L55.4183 11.3867C56.4583 11.2405 57.3054 10.4778 57.5594 9.45877C57.8134 8.43978 58.6605 7.67698 59.7005 7.53083L60.822 7.3732C61.5997 7.2639 62.3925 7.37196 63.1125 7.68539L64.1312 8.12883C64.8678 8.44946 65.6788 8.55999 66.4743 8.44819L66.6294 8.42639C67.6554 8.28219 68.6972 8.54502 69.532 9.1587L70.1885 9.64132C70.6298 9.9657 70.9215 10.4544 70.9977 10.9967C71.1178 11.8513 70.6855 12.6886 69.9192 13.0854L68.7205 13.7062C68.1084 14.0232 67.3774 14.009 66.778 13.6685C66.2231 13.3533 65.5526 13.3165 64.9664 13.5689L61.3993 15.1054L57.4022 16.4487C56.6871 16.689 55.9147 16.6994 55.1933 16.4784C54.4651 16.2552 53.6849 16.268 52.9643 16.5149L50.3958 17.395C49.5937 17.6699 48.9351 18.2546 48.5674 19.0186C48.1079 19.9732 47.2018 20.635 46.1527 20.7824L41.0923 21.4937L37.9598 21.9339L34.2309 22.458C33.6553 22.5388 33.1083 22.7593 32.6375 23.1C31.8731 23.6533 30.9205 23.8807 29.9886 23.7326L28.5911 23.5104C28.0276 23.4208 27.5076 23.1532 27.1072 22.7466C26.1948 21.8202 24.7479 21.6853 23.68 22.4271L21.5151 23.9308C21.1383 24.1925 20.7319 24.4086 20.3042 24.5745L17.4124 25.6965C16.7695 25.946 16.1 26.1204 15.4171 26.2164C14.9471 26.2824 14.4831 26.3857 14.0294 26.5252L9.06943 28.0506C8.32301 28.2802 7.53686 28.3513 6.76137 28.2594C4.78512 28.0252 3.08114 26.7609 2.28401 24.9374L1.53081 23.2145Z" fill="white"/>
<path opacity="0.112188" fill-rule="evenodd" clip-rule="evenodd" d="M78.3239 55.832C78.9414 57.2445 78.5784 58.894 77.425 59.9168C76.1252 61.0694 74.1828 61.1141 72.8314 60.0224L72.2819 59.5786C71.0464 58.5806 69.3682 58.3277 67.8935 58.9172L65.3939 59.9165C64.7621 60.169 64.1781 60.5278 63.6672 60.9773L61.9976 62.4463C60.946 63.3715 59.4029 63.4715 58.2407 62.6899C57.1268 61.9408 55.6563 61.9985 54.6046 62.8325L53.5183 63.694C52.3927 64.5867 50.7934 64.5605 49.6975 63.6315C48.9036 62.9585 47.8187 62.7428 46.8277 63.061L45.6844 63.4281C44.5844 63.7813 43.3882 63.6732 42.3694 63.1284C41.208 62.5074 39.825 62.4577 38.6221 62.9938L37.5368 63.4775C36.3204 64.0196 35.4943 65.1796 35.3798 66.5064L35.3238 67.1559C35.2099 68.4756 34.1994 69.5417 32.8876 69.7261C32.2647 69.8136 31.6303 69.6921 31.0839 69.3804L28.715 68.0293C27.8295 67.5243 26.8016 67.3274 25.7922 67.4692L24.4364 67.6598C23.3964 67.8059 22.5493 68.5687 22.2953 69.5877C22.0413 70.6067 21.1942 71.3695 20.1543 71.5156L19.0327 71.6733C18.255 71.7826 17.4623 71.6745 16.7422 71.3611L15.7235 70.9176C14.9869 70.597 14.176 70.4865 13.3804 70.5983L13.2253 70.6201C12.1993 70.7643 11.1576 70.5015 10.3227 69.8878L9.66624 69.4051C9.22497 69.0808 8.93321 68.5921 8.85699 68.0498C8.73689 67.1952 9.16925 66.3579 9.93555 65.961L11.1342 65.3403C11.7464 65.0233 12.4773 65.0375 13.0767 65.3779C13.6316 65.6931 14.3022 65.73 14.8883 65.4775L18.4555 63.941L22.4525 62.5978C23.1676 62.3574 23.9401 62.347 24.6614 62.5681C25.3897 62.7912 26.1699 62.7784 26.8905 62.5315L29.459 61.6514C30.2611 61.3766 30.9196 60.7918 31.2874 60.0279C31.7469 59.0733 32.6529 58.4115 33.702 58.264L38.7625 57.5528L41.8949 57.1126L45.6238 56.5885C46.1994 56.5076 46.7464 56.2872 47.2172 55.9464C47.9816 55.3932 48.9342 55.1657 49.8661 55.3139L51.2636 55.5361C51.8271 55.6256 52.3471 55.8933 52.7475 56.2998C53.6599 57.2262 55.1068 57.3612 56.1748 56.6194L58.3396 55.1156C58.7164 54.8539 59.1229 54.6379 59.5506 54.4719L62.4424 53.3499C63.0853 53.1005 63.7548 52.9261 64.4376 52.8301C64.9076 52.764 65.3717 52.6608 65.8253 52.5212L70.7853 50.9958C71.5317 50.7663 72.3179 50.6952 73.0934 50.7871C75.0696 51.0213 76.7736 52.2856 77.5707 54.109L78.3239 55.832Z" fill="white"/>
<path opacity="0.112188" fill-rule="evenodd" clip-rule="evenodd" d="M-2.17708 55.9574C-3.1787 54.0379 -2.61376 51.6738 -0.8525 50.4145C0.579976 49.3903 2.48909 49.3322 3.98111 50.2676L5.0457 50.935C6.63579 51.9318 8.591 52.1572 10.3662 51.5485L13.8205 50.3639C14.631 50.0859 15.3973 49.693 16.0961 49.1971L18.2889 47.6407C19.6665 46.6629 21.4742 46.5345 22.9763 47.3077C24.4135 48.0475 26.1363 47.964 27.4952 47.0886L29.1925 45.9952C30.5963 45.0909 32.4017 45.101 33.7953 46.0211C34.8168 46.6955 36.0812 46.8923 37.2594 46.5603L39.0312 46.0609C40.3728 45.6828 41.802 45.7593 43.0956 46.2786C44.5645 46.8684 46.2014 46.8847 47.6819 46.3244L49.6258 45.5887C50.9339 45.0937 51.8703 43.9278 52.0715 42.5438C52.3175 40.8518 53.6505 39.5251 55.3436 39.2872L55.4501 39.2722C56.1743 39.1704 56.9125 39.2696 57.5841 39.5588L60.5365 40.8302C61.6602 41.3141 62.8952 41.48 64.1067 41.3097L66.3509 40.9943C67.452 40.8395 68.3741 40.0818 68.7395 39.0316C69.1048 37.9813 70.0269 37.2236 71.1281 37.0688L73.0632 36.7969C73.9821 36.6677 74.9183 36.7476 75.802 37.0307L77.0546 37.4318C78.0165 37.7399 79.0356 37.8269 80.0358 37.6863L80.7705 37.583C81.7585 37.4442 82.7647 37.6355 83.6328 38.1273L84.7888 38.7823C85.2841 39.0628 85.6208 39.5577 85.7 40.1213C85.8146 40.937 85.3709 41.7289 84.6153 42.0569L82.6391 42.9148C81.879 43.2447 81.0165 43.2467 80.2549 42.9202C79.5488 42.6174 78.7536 42.5962 78.0324 42.8608L73.3893 44.5644L68.2394 46.0758C67.343 46.3389 66.395 46.3735 65.4818 46.1764C64.5598 45.9775 63.6025 46.0147 62.6988 46.2846L59.1833 47.3343C58.273 47.6061 57.4918 48.1983 56.9842 49.0013C56.367 49.9779 55.3515 50.6337 54.2074 50.7945L47.444 51.745L43.4622 52.3046L38.6876 52.9757C37.975 53.0758 37.2893 53.316 36.6699 53.6824C35.6744 54.2714 34.5173 54.5285 33.366 54.4167L31.4978 54.2351C30.8144 54.1687 30.165 53.9048 29.629 53.4755C28.4975 52.5694 26.9275 52.4454 25.6678 53.1627L22.5843 54.9186C22.0877 55.2014 21.5646 55.4349 21.0226 55.6158L18.1829 56.5637C16.7784 57.0325 15.3341 57.3721 13.8678 57.5782L6.43076 59.5957C5.62602 59.814 4.79075 59.8979 3.95867 59.8439L2.78501 59.7678C0.873967 59.644 -0.833842 58.5316 -1.71976 56.8338L-2.17708 55.9574Z" fill="white"/>
<path opacity="0.112188" fill-rule="evenodd" clip-rule="evenodd" d="M82.0315 23.0891C83.0332 25.0086 82.4682 27.3727 80.707 28.632C79.2745 29.6562 77.3654 29.7142 75.8733 28.7789L74.8088 28.1115C73.2187 27.1147 71.2635 26.8893 69.4882 27.498L66.034 28.6826C65.2235 28.9605 64.4571 29.3535 63.7584 29.8494L61.5656 31.4058C60.188 32.3836 58.3802 32.512 56.8782 31.7388C55.441 30.999 53.7181 31.0825 52.3592 31.9579L50.662 33.0513C49.2582 33.9556 47.4527 33.9455 46.0592 33.0254C45.0377 32.351 43.7733 32.1542 42.5951 32.4862L40.8233 32.9856C39.4816 33.3637 38.0525 33.2872 36.7589 32.7679C35.29 32.1781 33.6531 32.1618 32.1726 32.7221L30.2287 33.4578C28.9206 33.9528 27.9842 35.1187 27.783 36.5027C27.537 38.1947 26.204 39.5213 24.5109 39.7593L24.4043 39.7743C23.6802 39.876 22.942 39.7769 22.2703 39.4877L19.318 38.2163C18.1943 37.7324 16.9593 37.5665 15.7477 37.7368L13.5036 38.0522C12.4024 38.207 11.4803 38.9647 11.115 40.0149C10.7497 41.0652 9.82757 41.8229 8.72639 41.9777L6.79128 42.2496C5.87237 42.3788 4.93616 42.2989 4.05244 42.0158L2.79988 41.6147C1.83795 41.3066 0.818897 41.2196 -0.181331 41.3602L-0.916022 41.4635C-1.90404 41.6023 -2.91026 41.411 -3.77835 40.9192L-4.93438 40.2642C-5.42962 39.9837 -5.76633 39.4888 -5.84555 38.9252C-5.96018 38.1095 -5.5164 37.3176 -4.76086 36.9896L-2.78467 36.1317C-2.02454 35.8017 -1.16199 35.7998 -0.400384 36.1263C0.30571 36.4291 1.10085 36.4503 1.82209 36.1857L6.46512 34.4821L11.615 32.9707C12.5115 32.7076 13.4595 32.673 14.3727 32.8701C15.2947 33.069 16.2519 33.0318 17.1557 32.7619L20.6712 31.7122C21.5815 31.4404 22.3626 30.8482 22.8702 30.0452C23.4875 29.0686 24.503 28.4128 25.6471 28.252L32.4105 27.3015L36.3922 26.7419L41.1669 26.0708C41.8795 25.9707 42.5652 25.7305 43.1845 25.3641C44.1801 24.7751 45.3372 24.518 46.4885 24.6298L48.3566 24.8114C49.0401 24.8778 49.6894 25.1417 50.2254 25.571C51.357 26.4771 52.9269 26.6011 54.1867 25.8837L57.2702 24.1279C57.7668 23.8451 58.2898 23.6116 58.8319 23.4307L61.6715 22.4828C63.076 22.014 64.5204 21.6744 65.9866 21.4683L73.4237 19.4508C74.2284 19.2325 75.0637 19.1486 75.8958 19.2026L77.0695 19.2786C78.9805 19.4025 80.6883 20.5149 81.5742 22.2127L82.0315 23.0891Z" fill="white"/>
</g>
</g>
</svg>
