<svg width="303" height="196" viewBox="0 0 303 196" fill="none" xmlns="http://www.w3.org/2000/svg">
<circle cx="153.99" cy="94.7348" r="78.7368" fill="white"/>
<circle cx="153.99" cy="94.7348" r="78.7368" fill="#210080"/>
<circle cx="153.99" cy="94.7348" r="78.7368" fill="url(#paint0_linear_165_4191)" fill-opacity="0.6"/>
<mask id="mask0_165_4191" style="mask-type:luminance" maskUnits="userSpaceOnUse" x="75" y="15" width="158" height="159">
<circle cx="153.99" cy="94.7348" r="78.7368" fill="white"/>
<circle cx="153.99" cy="94.7348" r="78.7368" stroke="white"/>
</mask>
<g mask="url(#mask0_165_4191)">
<circle cx="201.896" cy="82.8766" r="93.4406" fill="white" fill-opacity="0.15"/>
<path d="M217.755 23.0752C217.755 23.0752 211.528 44.2656 193.923 53.3748C176.319 62.4841 167.383 45.4705 145.463 60.4817C123.543 75.4929 126.464 86.5973 113.114 94.735C99.7638 102.873 73.0607 94.735 73.0607 94.735L46.6357 104.831" stroke="#161424" stroke-width="2"/>
<path d="M49.4816 158.125C49.4816 158.125 57.1802 131.928 78.9439 120.667C100.708 109.406 111.754 130.439 138.853 111.881C165.952 93.3239 162.341 79.5961 178.844 69.5359C195.348 59.4758 228.36 69.5359 228.36 69.5359L261.027 57.0549" stroke="#161424" stroke-width="2"/>
<path d="M62.7628 189.43C62.7628 189.43 70.4614 163.234 92.2252 151.972C113.989 140.711 125.036 161.744 152.134 143.187C179.233 124.629 175.622 110.901 192.126 100.841C208.629 90.781 241.641 100.841 241.641 100.841L274.309 88.3601" stroke="#161424" stroke-width="2"/>
<path d="M246.215 101.812C246.215 101.812 239.987 123.002 222.383 132.111C204.778 141.22 195.842 124.207 173.922 139.218C152.002 154.229 154.923 165.334 141.573 173.471C128.223 181.609 101.52 173.471 101.52 173.471L75.0952 183.567" stroke="#161424" stroke-width="2"/>
<path d="M295.543 -29.1001C295.543 -29.1001 289.316 -7.90971 271.711 1.19953C254.107 10.3088 245.171 -6.70481 223.251 8.30639C209.304 17.8571 199.822 27.9211 185.862 31.2079C177.881 33.0871 163.377 28.2478 158.521 31.2079C145.171 39.3456 159.875 40.2801 146.04 50.5864C132.205 60.8927 129.848 38.2806 121.074 46.1626C112.299 54.0446 122.691 61.8828 118.636 63.9527C114.581 66.0226 110.594 64.7843 98.7615 69.2192C86.9288 73.6541 88.0124 82.4371 83.1009 85.0151C78.1894 87.5931 66.2368 82.8767 66.2368 82.8767" stroke="#161424" stroke-width="2"/>
<path d="M347.718 79.9932C347.718 79.9932 341.491 101.184 323.886 110.293C306.281 119.402 297.346 102.388 275.426 117.4C261.479 126.95 251.997 137.014 238.037 140.301C230.056 142.18 215.552 137.341 210.696 140.301C197.346 148.439 212.05 149.373 198.215 159.68C184.38 169.986 182.023 147.374 173.248 155.256C164.474 163.138 174.866 170.976 170.811 173.046C166.755 175.116 162.769 173.878 150.936 178.312C139.104 182.747 140.187 191.53 135.276 194.108C130.364 196.686 118.412 191.97 118.412 191.97" stroke="#161424" stroke-width="2"/>
</g>
<path d="M224.462 40.9557C239.039 36.7435 249.624 35.1664 256.285 36.2513C263.31 37.3954 266.172 41.5947 264.565 48.4228C260.438 65.9533 227.071 97.3819 182.971 123.287C137.288 150.121 93.9321 165.496 60.5496 168.452L59.7229 168.521C47.3299 169.49 41.5197 166.961 43.3216 160.609C44.9651 154.815 53.5927 145.895 69.2816 133.621C69.6942 133.299 70.2904 133.371 70.6133 133.784C70.9361 134.197 70.8633 134.793 70.4507 135.116L69.4145 135.93C54.7162 147.523 46.603 155.993 45.1469 161.126C43.855 165.681 47.9079 165.282 59.7229 164.236C92.7612 161.311 131.704 140.405 177.165 113.701C220.78 88.0812 256.893 65.2306 260.849 48.4228C262.202 42.6731 261.927 39.0925 255.98 38.1239C249.669 37.096 239.316 38.6386 224.988 42.7784C224.485 42.9239 223.959 42.6338 223.814 42.1304C223.668 41.6271 223.958 41.1012 224.462 40.9557Z" fill="#2FFD61"/>
<defs>
<linearGradient id="paint0_linear_165_4191" x1="32.9756" y1="34.2076" x2="273.385" y2="75.219" gradientUnits="userSpaceOnUse">
<stop stop-color="#0058FF"/>
<stop offset="1" stop-color="#F700FE"/>
</linearGradient>
</defs>
</svg>
