<svg width="744" height="836" viewBox="0 0 744 836" fill="none" xmlns="http://www.w3.org/2000/svg">
<path fill-rule="evenodd" clip-rule="evenodd" d="M264.82 626.818L268.313 622.312L271.807 626.818L276.313 630.312L271.807 633.805L268.313 638.312L264.82 633.805L260.313 630.312L264.82 626.818Z" fill="#F700FE"/>
<path opacity="0.0608491" fill-rule="evenodd" clip-rule="evenodd" d="M346.82 104.818L350.314 100.312L353.807 104.818L358.314 108.312L353.807 111.805L350.314 116.312L346.82 111.805L342.314 108.312L346.82 104.818Z" fill="#2FFD61"/>
<path opacity="0.5" fill-rule="evenodd" clip-rule="evenodd" d="M335.82 678.818L339.314 674.312L342.807 678.818L347.314 682.312L342.807 685.805L339.314 690.312L335.82 685.805L331.314 682.312L335.82 678.818Z" fill="#2FFD61"/>
<path opacity="0.0904018" fill-rule="evenodd" clip-rule="evenodd" d="M728.821 8.81782L732.314 4.31152L735.808 8.81782L740.314 12.3115L735.808 15.8052L732.314 20.3115L728.821 15.8052L724.314 12.3115L728.821 8.81782Z" fill="#2FFD61"/>
<path fill-rule="evenodd" clip-rule="evenodd" d="M501.82 815.818L505.314 811.312L508.807 815.818L513.314 819.312L508.807 822.806L505.314 827.312L501.82 822.806L497.314 819.312L501.82 815.818Z" fill="#0058FF"/>
<path opacity="0.5" fill-rule="evenodd" clip-rule="evenodd" d="M7.81954 820.818L11.3132 816.312L14.807 820.818L19.3132 824.312L14.807 827.805L11.3132 832.312L7.81954 827.805L3.31324 824.312L7.81954 820.818Z" fill="#F700FE"/>
<path opacity="0.4" fill-rule="evenodd" clip-rule="evenodd" d="M475.888 10.128L478.072 7.31152L480.255 10.128L483.072 12.3115L480.255 14.4951L478.072 17.3115L475.888 14.4951L473.072 12.3115L475.888 10.128Z" fill="#FFEC6A"/>
</svg>
