<svg width="375" height="2995" viewBox="0 0 375 2995" fill="none" xmlns="http://www.w3.org/2000/svg">
<!-- <path opacity="0.1" fill-rule="evenodd" clip-rule="evenodd" d="M337.813 72.1272L272.977 27.1999C267.739 22.858 262.168 19.0082 256.338 15.6706L254.903 14.6764L254.897 14.8591C219.817 -4.57582 175.712 -5.66032 138.452 15.8496L25.099 81.2942C-31.4153 113.923 -50.7786 186.187 -18.1501 242.702L5.03079 282.852L12.3633 329.258C22.0894 390.814 77.5791 433.435 138.24 428.631L138.188 428.718L267.617 416.835L267.475 416.738C315.986 411.297 358.235 375.875 369.622 325.163L397.241 202.164C409.091 149.394 383.613 96.6484 337.813 72.1272ZM146.507 333.68C130.833 332.415 114.141 331.068 109.42 322.593C108.717 321.33 107.898 319.885 106.984 318.271C100.044 306.018 87.6093 284.062 78.5124 258.856C73.7513 245.664 61.2647 197.193 65.0614 188.557C72.7216 171.134 157.613 99.286 167.012 92.3177C176.412 85.3495 185.973 85.8357 216.925 109.657C241.686 128.715 291.306 159.407 313.021 172.371C316.911 175.613 322.356 186.6 313.021 204.62C301.354 227.145 274.229 297.898 271.656 315.91C269.083 333.922 249.356 343.213 228.628 339.926C217.352 338.137 210.452 337.775 197.759 337.108C187.119 336.549 172.407 335.776 147.632 333.77C147.258 333.74 146.883 333.71 146.507 333.68Z" fill="url(#paint0_linear_165_4706)"/> -->
<path opacity="0.1" fill-rule="evenodd" clip-rule="evenodd" d="M265.17 2632.16L223.129 2603.03C219.733 2600.22 216.121 2597.72 212.341 2595.56L211.41 2594.91L211.406 2595.03C188.66 2582.43 160.061 2581.72 135.901 2595.67L62.4002 2638.11C25.7551 2659.26 13.1995 2706.12 34.3565 2742.77L49.3875 2768.8L54.142 2798.89C60.4487 2838.81 96.4294 2866.44 135.763 2863.33L135.729 2863.38L219.654 2855.68L219.562 2855.62C251.017 2852.09 278.412 2829.12 285.796 2796.24L303.705 2716.48C311.389 2682.26 294.868 2648.06 265.17 2632.16ZM141.124 2801.76C130.96 2800.94 120.137 2800.07 117.076 2794.57C116.62 2793.75 116.089 2792.81 115.496 2791.77C110.996 2783.82 102.933 2769.59 97.0344 2753.24C93.9473 2744.69 85.8507 2713.26 88.3126 2707.66C93.2796 2696.36 148.325 2649.77 154.42 2645.26C160.514 2640.74 166.714 2641.05 186.784 2656.5C202.84 2668.86 235.015 2688.76 249.095 2697.16C251.617 2699.27 255.148 2706.39 249.095 2718.07C241.53 2732.68 223.941 2778.56 222.273 2790.24C220.604 2801.92 207.813 2807.94 194.372 2805.81C187.061 2804.65 182.587 2804.41 174.357 2803.98C167.457 2803.62 157.917 2803.12 141.853 2801.82C141.611 2801.8 141.367 2801.78 141.124 2801.76Z" fill="url(#paint1_linear_165_4706)"/>
<path opacity="0.1" fill-rule="evenodd" clip-rule="evenodd" d="M465.506 1266.72L508.247 1205.04C512.377 1200.05 516.04 1194.76 519.215 1189.21L520.161 1187.84L519.987 1187.84C538.476 1154.47 539.508 1112.51 519.045 1077.06L456.785 969.223C425.744 915.459 356.996 897.038 303.232 928.079L265.036 950.131L220.888 957.107C162.327 966.36 121.781 1019.15 126.351 1076.86L126.269 1076.81L137.573 1199.94L137.665 1199.8C142.841 1245.95 176.54 1286.15 224.784 1296.98L341.797 1323.26C391.999 1334.53 442.178 1310.29 465.506 1266.72ZM216.682 1084.72C217.885 1069.81 219.166 1053.93 227.229 1049.44C228.43 1048.77 229.805 1047.99 231.34 1047.12C242.997 1040.52 263.885 1028.69 287.864 1020.04C300.414 1015.51 346.526 1003.63 354.742 1007.24C371.317 1014.53 439.669 1095.29 446.298 1104.23C452.927 1113.17 452.464 1122.27 429.802 1151.71C411.672 1175.27 382.473 1222.48 370.14 1243.13C367.056 1246.83 356.604 1252.01 339.461 1243.13C318.032 1232.03 250.722 1206.23 233.587 1203.78C216.451 1201.33 207.612 1182.57 210.74 1162.85C212.441 1152.12 212.786 1145.56 213.42 1133.48C213.952 1123.36 214.687 1109.36 216.595 1085.79C216.624 1085.44 216.653 1085.08 216.682 1084.72Z" fill="url(#paint2_linear_165_4706)"/>
<path opacity="0.381766" fill-rule="evenodd" clip-rule="evenodd" d="M-9.43851 123.414C-46.4477 139.701 -62.5236 179.091 -56.908 207.965C-51.2925 236.838 -28.4855 271.021 34.1026 276.47C96.6908 281.92 114.438 247.421 114.438 224.857C114.438 202.293 53.1029 241.43 36.9604 204.657C22.4469 171.594 36.9346 113.575 1.42385 120.114C-2.30314 120.801 -5.94346 121.876 -9.43851 123.414Z" fill="#1C1A2E"/>
<path opacity="0.143438" fill-rule="evenodd" clip-rule="evenodd" d="M21.2357 1484.55L20.8313 1485.07L20.4268 1484.55L19.9051 1484.15L20.4268 1483.74L20.8313 1483.22L21.2357 1483.74L21.7574 1484.15L21.2357 1484.55Z" fill="#979797"/>
<path opacity="0.143438" fill-rule="evenodd" clip-rule="evenodd" d="M21.2357 576.619L20.8313 577.141L20.4268 576.619L19.9051 576.215L20.4268 575.81L20.8313 575.289L21.2357 575.81L21.7574 576.215L21.2357 576.619Z" fill="#979797"/>
<path opacity="0.143438" fill-rule="evenodd" clip-rule="evenodd" d="M91.0678 1458.8L90.6633 1459.32L90.2588 1458.8L89.7371 1458.4L90.2588 1457.99L90.6633 1457.47L91.0678 1457.99L91.5895 1458.4L91.0678 1458.8Z" fill="#979797"/>
<path opacity="0.143438" fill-rule="evenodd" clip-rule="evenodd" d="M91.0678 550.872L90.6633 551.394L90.2588 550.872L89.7371 550.468L90.2588 550.063L90.6633 549.542L91.0678 550.063L91.5895 550.468L91.0678 550.872Z" fill="#979797"/>
<path opacity="0.143438" fill-rule="evenodd" clip-rule="evenodd" d="M80.5092 1517.34L80.1047 1517.86L79.7002 1517.34L79.1786 1516.93L79.7002 1516.53L80.1047 1516.01L80.5092 1516.53L81.0309 1516.93L80.5092 1517.34Z" fill="#979797"/>
<path opacity="0.143438" fill-rule="evenodd" clip-rule="evenodd" d="M80.5092 609.405L80.1047 609.927L79.7002 609.405L79.1786 609.001L79.7002 608.597L80.1047 608.075L80.5092 608.597L81.0309 609.001L80.5092 609.405Z" fill="#979797"/>
<path opacity="0.0904018" fill-rule="evenodd" clip-rule="evenodd" d="M12.64 1425.15L11.8052 1424.5L12.64 1423.86L13.2871 1423.02L13.9343 1423.86L14.769 1424.5L13.9343 1425.15L13.2871 1425.99L12.64 1425.15Z" fill="#979797"/>
<path opacity="0.0904018" fill-rule="evenodd" clip-rule="evenodd" d="M50.9837 1451.08L50.149 1450.44L50.9837 1449.79L51.6309 1448.96L52.278 1449.79L53.1127 1450.44L52.278 1451.08L51.6309 1451.92L50.9837 1451.08Z" fill="#979797"/>
<path opacity="0.0904018" fill-rule="evenodd" clip-rule="evenodd" d="M50.9837 543.154L50.149 542.507L50.9837 541.86L51.6309 541.025L52.278 541.86L53.1127 542.507L52.278 543.154L51.6309 543.989L50.9837 543.154Z" fill="#979797"/>
<path opacity="0.0904018" fill-rule="evenodd" clip-rule="evenodd" d="M40.4251 1509.62L39.5904 1508.97L40.4251 1508.32L41.0723 1507.49L41.7194 1508.32L42.5541 1508.97L41.7194 1509.62L41.0723 1510.45L40.4251 1509.62Z" fill="#979797"/>
<path opacity="0.0904018" fill-rule="evenodd" clip-rule="evenodd" d="M40.4251 601.688L39.5904 601.04L40.4251 600.393L41.0723 599.559L41.7194 600.393L42.5541 601.04L41.7194 601.688L41.0723 602.522L40.4251 601.688Z" fill="#979797"/>
<path opacity="0.0904018" fill-rule="evenodd" clip-rule="evenodd" d="M-0.325859 1526.84L-1.16057 1526.2L-0.325859 1525.55L0.321289 1524.72L0.968437 1525.55L1.80315 1526.2L0.968437 1526.84L0.321289 1527.68L-0.325859 1526.84Z" fill="#979797"/>
<path opacity="0.0904018" fill-rule="evenodd" clip-rule="evenodd" d="M-0.325859 618.914L-1.16057 618.267L-0.325859 617.62L0.321289 616.785L0.968437 617.62L1.80315 618.267L0.968437 618.914L0.321289 619.749L-0.325859 618.914Z" fill="#979797"/>
<path fill-rule="evenodd" clip-rule="evenodd" d="M55.429 1472.57L54.5943 1471.92L55.429 1471.28L56.0762 1470.44L56.7233 1471.28L57.558 1471.92L56.7233 1472.57L56.0762 1473.41L55.429 1472.57Z" fill="#979797"/>
<path fill-rule="evenodd" clip-rule="evenodd" d="M55.429 564.641L54.5943 563.994L55.429 563.346L56.0762 562.512L56.7233 563.346L57.558 563.994L56.7233 564.641L56.0762 565.475L55.429 564.641Z" fill="#979797"/>
<path fill-rule="evenodd" clip-rule="evenodd" d="M44.8704 1531.11L44.0357 1530.46L44.8704 1529.81L45.5176 1528.98L46.1647 1529.81L46.9994 1530.46L46.1647 1531.11L45.5176 1531.94L44.8704 1531.11Z" fill="#979797"/>
<path fill-rule="evenodd" clip-rule="evenodd" d="M44.8704 623.174L44.0357 622.527L44.8704 621.88L45.5176 621.045L46.1647 621.88L46.9994 622.527L46.1647 623.174L45.5176 624.009L44.8704 623.174Z" fill="#979797"/>
<path fill-rule="evenodd" clip-rule="evenodd" d="M18.012 1453.31L17.1773 1452.66L18.012 1452.01L18.6592 1451.18L19.3063 1452.01L20.141 1452.66L19.3063 1453.31L18.6592 1454.14L18.012 1453.31Z" fill="#F700FE"/>
<path fill-rule="evenodd" clip-rule="evenodd" d="M18.012 545.377L17.1773 544.729L18.012 544.082L18.6592 543.248L19.3063 544.082L20.141 544.729L19.3063 545.377L18.6592 546.211L18.012 545.377Z" fill="#F700FE"/>
<path fill-rule="evenodd" clip-rule="evenodd" d="M87.845 1427.56L87.0103 1426.91L87.845 1426.27L88.4922 1425.43L89.1393 1426.27L89.974 1426.91L89.1393 1427.56L88.4922 1428.39L87.845 1427.56Z" fill="#F700FE"/>
<path fill-rule="evenodd" clip-rule="evenodd" d="M77.2864 1486.09L76.4517 1485.45L77.2864 1484.8L77.9336 1483.96L78.5807 1484.8L79.4155 1485.45L78.5807 1486.09L77.9336 1486.93L77.2864 1486.09Z" fill="#979797"/>
<path fill-rule="evenodd" clip-rule="evenodd" d="M77.2864 578.163L76.4517 577.516L77.2864 576.868L77.9336 576.034L78.5807 576.868L79.4155 577.516L78.5807 578.163L77.9336 578.997L77.2864 578.163Z" fill="#979797"/>
<path opacity="0.143438" fill-rule="evenodd" clip-rule="evenodd" d="M259.074 1594.76L258.669 1595.29L258.265 1594.76L257.743 1594.36L258.265 1593.95L258.669 1593.43L259.074 1593.95L259.595 1594.36L259.074 1594.76Z" fill="#979797"/>
<path opacity="0.143438" fill-rule="evenodd" clip-rule="evenodd" d="M259.074 686.833L258.669 687.354L258.265 686.833L257.743 686.428L258.265 686.024L258.669 685.502L259.074 686.024L259.595 686.428L259.074 686.833Z" fill="#979797"/>
<path opacity="0.143438" fill-rule="evenodd" clip-rule="evenodd" d="M328.906 1569.02L328.501 1569.54L328.097 1569.02L327.575 1568.61L328.097 1568.21L328.501 1567.69L328.906 1568.21L329.427 1568.61L328.906 1569.02Z" fill="#979797"/>
<path opacity="0.143438" fill-rule="evenodd" clip-rule="evenodd" d="M328.906 661.086L328.501 661.607L328.097 661.086L327.575 660.681L328.097 660.277L328.501 659.755L328.906 660.277L329.427 660.681L328.906 661.086Z" fill="#979797"/>
<path opacity="0.143438" fill-rule="evenodd" clip-rule="evenodd" d="M318.349 1627.55L317.945 1628.07L317.54 1627.55L317.018 1627.15L317.54 1626.74L317.945 1626.22L318.349 1626.74L318.871 1627.15L318.349 1627.55Z" fill="#2FFD61"/>
<path opacity="0.143438" fill-rule="evenodd" clip-rule="evenodd" d="M318.349 719.619L317.945 720.141L317.54 719.619L317.018 719.215L317.54 718.81L317.945 718.289L318.349 718.81L318.871 719.215L318.349 719.619Z" fill="#2FFD61"/>
<path opacity="0.0904018" fill-rule="evenodd" clip-rule="evenodd" d="M218.99 1587.05L218.155 1586.4L218.99 1585.75L219.637 1584.92L220.284 1585.75L221.119 1586.4L220.284 1587.05L219.637 1587.88L218.99 1587.05Z" fill="#979797"/>
<path opacity="0.0904018" fill-rule="evenodd" clip-rule="evenodd" d="M218.99 679.114L218.155 678.467L218.99 677.82L219.637 676.985L220.284 677.82L221.119 678.467L220.284 679.114L219.637 679.949L218.99 679.114Z" fill="#979797"/>
<path opacity="0.0904018" fill-rule="evenodd" clip-rule="evenodd" d="M250.479 1535.37L249.644 1534.72L250.479 1534.07L251.126 1533.24L251.773 1534.07L252.608 1534.72L251.773 1535.37L251.126 1536.2L250.479 1535.37Z" fill="#979797"/>
<path opacity="0.0904018" fill-rule="evenodd" clip-rule="evenodd" d="M250.479 627.435L249.644 626.788L250.479 626.14L251.126 625.306L251.773 626.14L252.608 626.788L251.773 627.435L251.126 628.269L250.479 627.435Z" fill="#979797"/>
<path opacity="0.0904018" fill-rule="evenodd" clip-rule="evenodd" d="M288.822 1561.3L287.987 1560.65L288.822 1560L289.469 1559.17L290.116 1560L290.951 1560.65L290.116 1561.3L289.469 1562.13L288.822 1561.3Z" fill="#979797"/>
<path opacity="0.0904018" fill-rule="evenodd" clip-rule="evenodd" d="M288.822 653.367L287.987 652.72L288.822 652.073L289.469 651.238L290.116 652.073L290.951 652.72L290.116 653.367L289.469 654.202L288.822 653.367Z" fill="#979797"/>
<path opacity="0.0904018" fill-rule="evenodd" clip-rule="evenodd" d="M278.263 1619.83L277.428 1619.18L278.263 1618.54L278.91 1617.7L279.557 1618.54L280.392 1619.18L279.557 1619.83L278.91 1620.67L278.263 1619.83Z" fill="#979797"/>
<path opacity="0.0904018" fill-rule="evenodd" clip-rule="evenodd" d="M278.263 711.901L277.428 711.253L278.263 710.606L278.91 709.772L279.557 710.606L280.392 711.253L279.557 711.901L278.91 712.735L278.263 711.901Z" fill="#979797"/>
<path opacity="0.0904018" fill-rule="evenodd" clip-rule="evenodd" d="M237.513 1637.06L236.678 1636.41L237.513 1635.76L238.16 1634.93L238.807 1635.76L239.642 1636.41L238.807 1637.06L238.16 1637.89L237.513 1637.06Z" fill="#979797"/>
<path opacity="0.0904018" fill-rule="evenodd" clip-rule="evenodd" d="M237.513 729.127L236.678 728.48L237.513 727.833L238.16 726.998L238.807 727.833L239.642 728.48L238.807 729.127L238.16 729.962L237.513 729.127Z" fill="#979797"/>
<path fill-rule="evenodd" clip-rule="evenodd" d="M223.435 1608.53L222.6 1607.88L223.435 1607.24L224.082 1606.4L224.729 1607.24L225.564 1607.88L224.729 1608.53L224.082 1609.37L223.435 1608.53Z" fill="#979797"/>
<path fill-rule="evenodd" clip-rule="evenodd" d="M223.435 700.601L222.6 699.954L223.435 699.307L224.082 698.472L224.729 699.307L225.564 699.954L224.729 700.601L224.082 701.436L223.435 700.601Z" fill="#979797"/>
<path fill-rule="evenodd" clip-rule="evenodd" d="M293.268 1582.78L292.433 1582.14L293.268 1581.49L293.915 1580.66L294.562 1581.49L295.397 1582.14L294.562 1582.78L293.915 1583.62L293.268 1582.78Z" fill="#979797"/>
<path fill-rule="evenodd" clip-rule="evenodd" d="M293.268 674.854L292.433 674.207L293.268 673.56L293.915 672.725L294.562 673.56L295.397 674.207L294.562 674.854L293.915 675.689L293.268 674.854Z" fill="#979797"/>
<path fill-rule="evenodd" clip-rule="evenodd" d="M282.709 1641.32L281.875 1640.67L282.709 1640.02L283.356 1639.19L284.004 1640.02L284.838 1640.67L284.004 1641.32L283.356 1642.15L282.709 1641.32Z" fill="#979797"/>
<path fill-rule="evenodd" clip-rule="evenodd" d="M282.709 733.387L281.875 732.74L282.709 732.093L283.356 731.258L284.004 732.093L284.838 732.74L284.004 733.387L283.356 734.222L282.709 733.387Z" fill="#979797"/>
<path fill-rule="evenodd" clip-rule="evenodd" d="M206.023 1703L205.188 1702.35L206.023 1701.71L206.67 1700.87L207.317 1701.71L208.152 1702.35L207.317 1703L206.67 1703.84L206.023 1703Z" fill="#979797"/>
<path fill-rule="evenodd" clip-rule="evenodd" d="M206.023 795.07L205.188 794.423L206.023 793.776L206.67 792.941L207.317 793.776L208.152 794.423L207.317 795.07L206.67 795.905L206.023 795.07Z" fill="#979797"/>
<path fill-rule="evenodd" clip-rule="evenodd" d="M75.804 1679.48L74.9693 1678.83L75.804 1678.18L76.4512 1677.35L77.0983 1678.18L77.933 1678.83L77.0983 1679.48L76.4512 1680.31L75.804 1679.48Z" fill="#979797"/>
<path fill-rule="evenodd" clip-rule="evenodd" d="M75.804 771.546L74.9693 770.898L75.804 770.251L76.4512 769.417L77.0983 770.251L77.933 770.898L77.0983 771.546L76.4512 772.38L75.804 771.546Z" fill="#979797"/>
<path fill-rule="evenodd" clip-rule="evenodd" d="M255.851 1563.52L255.016 1562.87L255.851 1562.23L256.498 1561.39L257.145 1562.23L257.98 1562.87L257.145 1563.52L256.498 1564.36L255.851 1563.52Z" fill="#979797"/>
<path fill-rule="evenodd" clip-rule="evenodd" d="M255.851 655.59L255.016 654.943L255.851 654.296L256.498 653.461L257.145 654.296L257.98 654.943L257.145 655.59L256.498 656.425L255.851 655.59Z" fill="#979797"/>
<path fill-rule="evenodd" clip-rule="evenodd" d="M325.683 1537.77L324.848 1537.13L325.683 1536.48L326.33 1535.64L326.977 1536.48L327.812 1537.13L326.977 1537.77L326.33 1538.61L325.683 1537.77Z" fill="#979797"/>
<path fill-rule="evenodd" clip-rule="evenodd" d="M325.683 629.842L324.848 629.195L325.683 628.548L326.33 627.713L326.977 628.548L327.812 629.195L326.977 629.842L326.33 630.677L325.683 629.842Z" fill="#979797"/>
<path fill-rule="evenodd" clip-rule="evenodd" d="M315.125 1596.31L314.291 1595.66L315.125 1595.01L315.772 1594.18L316.42 1595.01L317.254 1595.66L316.42 1596.31L315.772 1597.14L315.125 1596.31Z" fill="#979797"/>
<path fill-rule="evenodd" clip-rule="evenodd" d="M315.125 688.376L314.291 687.729L315.125 687.082L315.772 686.247L316.42 687.082L317.254 687.729L316.42 688.376L315.772 689.211L315.125 688.376Z" fill="#979797"/>
<path opacity="0.143438" fill-rule="evenodd" clip-rule="evenodd" d="M69.8312 1752.49L70.3529 1752.89L69.8312 1753.3L69.4268 1753.82L69.0223 1753.3L68.5006 1752.89L69.0223 1752.49L69.4268 1751.97L69.8312 1752.49Z" fill="#210080"/>
<path opacity="0.143438" fill-rule="evenodd" clip-rule="evenodd" d="M44.0832 1682.66L44.6049 1683.06L44.0832 1683.47L43.6787 1683.99L43.2742 1683.47L42.7525 1683.06L43.2742 1682.66L43.6787 1682.14L44.0832 1682.66Z" fill="#210080"/>
<path opacity="0.143438" fill-rule="evenodd" clip-rule="evenodd" d="M44.0832 774.727L44.6049 775.131L44.0832 775.536L43.6787 776.057L43.2742 775.536L42.7525 775.131L43.2742 774.727L43.6787 774.205L44.0832 774.727Z" fill="#210080"/>
<path opacity="0.143438" fill-rule="evenodd" clip-rule="evenodd" d="M102.617 1693.22L103.139 1693.62L102.617 1694.02L102.213 1694.55L101.808 1694.02L101.287 1693.62L101.808 1693.22L102.213 1692.69L102.617 1693.22Z" fill="#210080"/>
<path opacity="0.143438" fill-rule="evenodd" clip-rule="evenodd" d="M102.617 785.285L103.139 785.69L102.617 786.094L102.213 786.616L101.808 786.094L101.287 785.69L101.808 785.285L102.213 784.764L102.617 785.285Z" fill="#210080"/>
<path opacity="0.0904018" fill-rule="evenodd" clip-rule="evenodd" d="M62.112 1792.57L61.4648 1793.41L60.8177 1792.57L59.9829 1791.93L60.8177 1791.28L61.4648 1790.45L62.112 1791.28L62.9467 1791.93L62.112 1792.57Z" fill="#210080"/>
<path opacity="0.0904018" fill-rule="evenodd" clip-rule="evenodd" d="M10.4323 1761.09L9.78512 1761.92L9.13797 1761.09L8.30326 1760.44L9.13797 1759.79L9.78512 1758.96L10.4323 1759.79L11.267 1760.44L10.4323 1761.09Z" fill="#210080"/>
<path opacity="0.0904018" fill-rule="evenodd" clip-rule="evenodd" d="M36.3649 1722.74L35.7177 1723.58L35.0706 1722.74L34.2359 1722.1L35.0706 1721.45L35.7177 1720.61L36.3649 1721.45L37.1996 1722.1L36.3649 1722.74Z" fill="#210080"/>
<path opacity="0.0904018" fill-rule="evenodd" clip-rule="evenodd" d="M36.3649 814.811L35.7177 815.646L35.0706 814.811L34.2359 814.164L35.0706 813.517L35.7177 812.682L36.3649 813.517L37.1996 814.164L36.3649 814.811Z" fill="#210080"/>
<path opacity="0.0904018" fill-rule="evenodd" clip-rule="evenodd" d="M94.8991 1733.3L94.2519 1734.14L93.6048 1733.3L92.7701 1732.65L93.6048 1732.01L94.2519 1731.17L94.8991 1732.01L95.7338 1732.65L94.8991 1733.3Z" fill="#210080"/>
<path opacity="0.0904018" fill-rule="evenodd" clip-rule="evenodd" d="M94.8991 825.37L94.2519 826.205L93.6048 825.37L92.7701 824.723L93.6048 824.076L94.2519 823.241L94.8991 824.076L95.7338 824.723L94.8991 825.37Z" fill="#210080"/>
<path opacity="0.0904018" fill-rule="evenodd" clip-rule="evenodd" d="M112.125 1774.05L111.478 1774.89L110.83 1774.05L109.996 1773.4L110.83 1772.76L111.478 1771.92L112.125 1772.76L112.959 1773.4L112.125 1774.05Z" fill="#210080"/>
<path fill-rule="evenodd" clip-rule="evenodd" d="M83.5993 1788.13L82.9521 1788.96L82.305 1788.13L81.4703 1787.48L82.305 1786.83L82.9521 1786L83.5993 1786.83L84.434 1787.48L83.5993 1788.13Z" fill="#210080"/>
<path fill-rule="evenodd" clip-rule="evenodd" d="M57.8522 1718.3L57.205 1719.13L56.5579 1718.3L55.7232 1717.65L56.5579 1717L57.205 1716.17L57.8522 1717L58.6869 1717.65L57.8522 1718.3Z" fill="#210080"/>
<path fill-rule="evenodd" clip-rule="evenodd" d="M57.8522 810.366L57.205 811.201L56.5579 810.366L55.7232 809.719L56.5579 809.072L57.205 808.237L57.8522 809.072L58.6869 809.719L57.8522 810.366Z" fill="#210080"/>
<path fill-rule="evenodd" clip-rule="evenodd" d="M116.385 1728.86L115.738 1729.69L115.091 1728.86L114.256 1728.21L115.091 1727.56L115.738 1726.73L116.385 1727.56L117.22 1728.21L116.385 1728.86Z" fill="#210080"/>
<path fill-rule="evenodd" clip-rule="evenodd" d="M116.385 820.924L115.738 821.759L115.091 820.924L114.256 820.277L115.091 819.63L115.738 818.795L116.385 819.63L117.22 820.277L116.385 820.924Z" fill="#210080"/>
<path fill-rule="evenodd" clip-rule="evenodd" d="M38.5875 1755.71L37.9404 1756.55L37.2932 1755.71L36.4585 1755.07L37.2932 1754.42L37.9404 1753.58L38.5875 1754.42L39.4223 1755.07L38.5875 1755.71Z" fill="#210080"/>
<path fill-rule="evenodd" clip-rule="evenodd" d="M12.8405 1685.88L12.1933 1686.72L11.5462 1685.88L10.7115 1685.23L11.5462 1684.59L12.1933 1683.75L12.8405 1684.59L13.6752 1685.23L12.8405 1685.88Z" fill="#210080"/>
<path fill-rule="evenodd" clip-rule="evenodd" d="M12.8405 777.95L12.1933 778.785L11.5462 777.95L10.7115 777.303L11.5462 776.656L12.1933 775.821L12.8405 776.656L13.6752 777.303L12.8405 777.95Z" fill="#210080"/>
<path fill-rule="evenodd" clip-rule="evenodd" d="M71.3747 1696.44L70.7275 1697.27L70.0804 1696.44L69.2456 1695.79L70.0804 1695.14L70.7275 1694.31L71.3747 1695.14L72.2094 1695.79L71.3747 1696.44Z" fill="#210080"/>
<path fill-rule="evenodd" clip-rule="evenodd" d="M71.3747 788.508L70.7275 789.343L70.0804 788.508L69.2456 787.861L70.0804 787.214L70.7275 786.379L71.3747 787.214L72.2094 787.861L71.3747 788.508Z" fill="#210080"/>
<g opacity="0.156157">
<path opacity="0.143438" fill-rule="evenodd" clip-rule="evenodd" d="M19.8971 2410.98L19.5306 2411.46L19.1641 2410.98L18.6914 2410.62L19.1641 2410.25L19.5306 2409.78L19.8971 2410.25L20.3699 2410.62L19.8971 2410.98Z" fill="#210080"/>
<path opacity="0.143438" fill-rule="evenodd" clip-rule="evenodd" d="M64.6413 2394.49L64.2748 2394.96L63.9083 2394.49L63.4355 2394.12L63.9083 2393.75L64.2748 2393.28L64.6413 2393.75L65.114 2394.12L64.6413 2394.49Z" fill="#210080"/>
<path opacity="0.143438" fill-rule="evenodd" clip-rule="evenodd" d="M57.8757 2431.99L57.5092 2432.46L57.1427 2431.99L56.6699 2431.62L57.1427 2431.26L57.5092 2430.79L57.8757 2431.26L58.3484 2431.62L57.8757 2431.99Z" fill="#210080"/>
<path opacity="0.0904018" fill-rule="evenodd" clip-rule="evenodd" d="M14.1109 2372.99L13.3545 2372.4L14.1109 2371.82L14.6973 2371.06L15.2837 2371.82L16.04 2372.4L15.2837 2372.99L14.6973 2373.75L14.1109 2372.99Z" fill="#210080"/>
<path opacity="0.0904018" fill-rule="evenodd" clip-rule="evenodd" d="M38.6782 2389.61L37.9219 2389.02L38.6782 2388.43L39.2646 2387.68L39.8511 2388.43L40.6074 2389.02L39.8511 2389.61L39.2646 2390.36L38.6782 2389.61Z" fill="#210080"/>
<path opacity="0.0904018" fill-rule="evenodd" clip-rule="evenodd" d="M31.9136 2427.11L31.1572 2426.52L31.9136 2425.94L32.5 2425.18L33.0864 2425.94L33.8428 2426.52L33.0864 2427.11L32.5 2427.87L31.9136 2427.11Z" fill="#210080"/>
<path opacity="0.0904018" fill-rule="evenodd" clip-rule="evenodd" d="M5.80227 2438.15L5.0459 2437.56L5.80227 2436.98L6.38867 2436.22L6.97508 2436.98L7.73144 2437.56L6.97508 2438.15L6.38867 2438.9L5.80227 2438.15Z" fill="#210080"/>
<path fill-rule="evenodd" clip-rule="evenodd" d="M41.5269 2403.37L40.7705 2402.79L41.5269 2402.2L42.1133 2401.44L42.6997 2402.2L43.4561 2402.79L42.6997 2403.37L42.1133 2404.13L41.5269 2403.37Z" fill="#210080"/>
<path fill-rule="evenodd" clip-rule="evenodd" d="M34.7622 2440.88L34.0059 2440.29L34.7622 2439.7L35.3486 2438.95L35.935 2439.7L36.6914 2440.29L35.935 2440.88L35.3486 2441.63L34.7622 2440.88Z" fill="#210080"/>
<path fill-rule="evenodd" clip-rule="evenodd" d="M17.5523 2391.03L16.7959 2390.44L17.5523 2389.86L18.1387 2389.1L18.7251 2389.86L19.4814 2390.44L18.7251 2391.03L18.1387 2391.79L17.5523 2391.03Z" fill="#210080"/>
<path fill-rule="evenodd" clip-rule="evenodd" d="M62.2964 2374.53L61.54 2373.95L62.2964 2373.36L62.8828 2372.6L63.4692 2373.36L64.2256 2373.95L63.4692 2374.53L62.8828 2375.29L62.2964 2374.53Z" fill="#210080"/>
<path fill-rule="evenodd" clip-rule="evenodd" d="M55.5318 2412.04L54.7754 2411.45L55.5318 2410.86L56.1182 2410.11L56.7046 2410.86L57.4609 2411.45L56.7046 2412.04L56.1182 2412.79L55.5318 2412.04Z" fill="#210080"/>
</g>
<g opacity="0.156157">
<path opacity="0.143438" fill-rule="evenodd" clip-rule="evenodd" d="M239.399 2411.72L239.033 2412.2L238.666 2411.72L238.193 2411.36L238.666 2410.99L239.033 2410.52L239.399 2410.99L239.872 2411.36L239.399 2411.72Z" fill="#979797"/>
<path opacity="0.143438" fill-rule="evenodd" clip-rule="evenodd" d="M284.142 2395.23L283.776 2395.7L283.409 2395.23L282.937 2394.86L283.409 2394.5L283.776 2394.02L284.142 2394.5L284.615 2394.86L284.142 2395.23Z" fill="#979797"/>
<path opacity="0.143438" fill-rule="evenodd" clip-rule="evenodd" d="M277.379 2432.73L277.012 2433.21L276.646 2432.73L276.173 2432.37L276.646 2432L277.012 2431.53L277.379 2432L277.851 2432.37L277.379 2432.73Z" fill="#979797"/>
<path opacity="0.0904018" fill-rule="evenodd" clip-rule="evenodd" d="M213.436 2406.84L212.68 2406.26L213.436 2405.67L214.022 2404.91L214.609 2405.67L215.365 2406.26L214.609 2406.84L214.022 2407.6L213.436 2406.84Z" fill="#979797"/>
<path opacity="0.0904018" fill-rule="evenodd" clip-rule="evenodd" d="M233.613 2373.73L232.856 2373.14L233.613 2372.56L234.199 2371.8L234.786 2372.56L235.542 2373.14L234.786 2373.73L234.199 2374.49L233.613 2373.73Z" fill="#979797"/>
<path opacity="0.0904018" fill-rule="evenodd" clip-rule="evenodd" d="M258.18 2390.35L257.424 2389.76L258.18 2389.17L258.767 2388.42L259.353 2389.17L260.109 2389.76L259.353 2390.35L258.767 2391.1L258.18 2390.35Z" fill="#979797"/>
<path opacity="0.0904018" fill-rule="evenodd" clip-rule="evenodd" d="M251.416 2427.85L250.659 2427.26L251.416 2426.68L252.002 2425.92L252.588 2426.68L253.345 2427.26L252.588 2427.85L252.002 2428.61L251.416 2427.85Z" fill="#979797"/>
<path opacity="0.0904018" fill-rule="evenodd" clip-rule="evenodd" d="M225.305 2438.89L224.549 2438.3L225.305 2437.72L225.892 2436.96L226.478 2437.72L227.234 2438.3L226.478 2438.89L225.892 2439.65L225.305 2438.89Z" fill="#979797"/>
<path fill-rule="evenodd" clip-rule="evenodd" d="M216.285 2420.61L215.528 2420.02L216.285 2419.44L216.871 2418.68L217.458 2419.44L218.214 2420.02L217.458 2420.61L216.871 2421.37L216.285 2420.61Z" fill="#979797"/>
<path fill-rule="evenodd" clip-rule="evenodd" d="M261.029 2404.11L260.272 2403.53L261.029 2402.94L261.615 2402.19L262.202 2402.94L262.958 2403.53L262.202 2404.11L261.615 2404.87L261.029 2404.11Z" fill="#979797"/>
<path fill-rule="evenodd" clip-rule="evenodd" d="M254.264 2441.62L253.508 2441.03L254.264 2440.45L254.851 2439.69L255.437 2440.45L256.193 2441.03L255.437 2441.62L254.851 2442.38L254.264 2441.62Z" fill="#979797"/>
<path fill-rule="evenodd" clip-rule="evenodd" d="M237.054 2391.77L236.298 2391.18L237.054 2390.6L237.641 2389.84L238.227 2390.6L238.983 2391.18L238.227 2391.77L237.641 2392.53L237.054 2391.77Z" fill="#979797"/>
<path fill-rule="evenodd" clip-rule="evenodd" d="M281.798 2375.27L281.042 2374.69L281.798 2374.1L282.385 2373.34L282.971 2374.1L283.728 2374.69L282.971 2375.27L282.385 2376.03L281.798 2375.27Z" fill="#979797"/>
<path fill-rule="evenodd" clip-rule="evenodd" d="M275.034 2412.78L274.277 2412.19L275.034 2411.61L275.62 2410.85L276.207 2411.61L276.963 2412.19L276.207 2412.78L275.62 2413.53L275.034 2412.78Z" fill="#979797"/>
</g>
<g opacity="0.156157">
<path opacity="0.143438" fill-rule="evenodd" clip-rule="evenodd" d="M293.116 2504.16L292.749 2504.63L292.383 2504.16L291.91 2503.79L292.383 2503.42L292.749 2502.95L293.116 2503.42L293.589 2503.79L293.116 2504.16Z" fill="#F700FE"/>
<path opacity="0.143438" fill-rule="evenodd" clip-rule="evenodd" d="M337.86 2487.66L337.494 2488.13L337.127 2487.66L336.654 2487.29L337.127 2486.93L337.494 2486.45L337.86 2486.93L338.333 2487.29L337.86 2487.66Z" fill="#F700FE"/>
<path opacity="0.143438" fill-rule="evenodd" clip-rule="evenodd" d="M331.095 2525.16L330.729 2525.64L330.362 2525.16L329.89 2524.8L330.362 2524.43L330.729 2523.96L331.095 2524.43L331.568 2524.8L331.095 2525.16Z" fill="#F700FE"/>
<path opacity="0.0904018" fill-rule="evenodd" clip-rule="evenodd" d="M267.153 2499.28L266.396 2498.69L267.153 2498.1L267.739 2497.35L268.326 2498.1L269.082 2498.69L268.326 2499.28L267.739 2500.03L267.153 2499.28Z" fill="#F700FE"/>
<path opacity="0.0904018" fill-rule="evenodd" clip-rule="evenodd" d="M287.33 2466.16L286.573 2465.58L287.33 2464.99L287.916 2464.23L288.502 2464.99L289.259 2465.58L288.502 2466.16L287.916 2466.92L287.33 2466.16Z" fill="#F700FE"/>
<path opacity="0.0904018" fill-rule="evenodd" clip-rule="evenodd" d="M311.897 2482.78L311.141 2482.19L311.897 2481.6L312.483 2480.85L313.07 2481.6L313.826 2482.19L313.07 2482.78L312.483 2483.53L311.897 2482.78Z" fill="#F700FE"/>
<path opacity="0.0904018" fill-rule="evenodd" clip-rule="evenodd" d="M305.132 2520.28L304.376 2519.7L305.132 2519.11L305.719 2518.35L306.305 2519.11L307.062 2519.7L306.305 2520.28L305.719 2521.04L305.132 2520.28Z" fill="#F700FE"/>
<path opacity="0.0904018" fill-rule="evenodd" clip-rule="evenodd" d="M279.021 2531.32L278.265 2530.73L279.021 2530.15L279.607 2529.39L280.194 2530.15L280.95 2530.73L280.194 2531.32L279.607 2532.08L279.021 2531.32Z" fill="#F700FE"/>
<path fill-rule="evenodd" clip-rule="evenodd" d="M270.001 2513.04L269.245 2512.46L270.001 2511.87L270.588 2511.11L271.174 2511.87L271.931 2512.46L271.174 2513.04L270.588 2513.8L270.001 2513.04Z" fill="#F700FE"/>
<path fill-rule="evenodd" clip-rule="evenodd" d="M314.746 2496.55L313.989 2495.96L314.746 2495.37L315.332 2494.62L315.918 2495.37L316.675 2495.96L315.918 2496.55L315.332 2497.3L314.746 2496.55Z" fill="#F700FE"/>
<path fill-rule="evenodd" clip-rule="evenodd" d="M307.981 2534.05L307.225 2533.46L307.981 2532.88L308.567 2532.12L309.154 2532.88L309.91 2533.46L309.154 2534.05L308.567 2534.81L307.981 2534.05Z" fill="#F700FE"/>
<path fill-rule="evenodd" clip-rule="evenodd" d="M290.771 2484.2L290.015 2483.62L290.771 2483.03L291.357 2482.27L291.944 2483.03L292.7 2483.62L291.944 2484.2L291.357 2484.96L290.771 2484.2Z" fill="#F700FE"/>
<path fill-rule="evenodd" clip-rule="evenodd" d="M335.516 2467.7L334.76 2467.12L335.516 2466.53L336.103 2465.78L336.689 2466.53L337.445 2467.12L336.689 2467.7L336.103 2468.46L335.516 2467.7Z" fill="#F700FE"/>
<path fill-rule="evenodd" clip-rule="evenodd" d="M328.751 2505.21L327.994 2504.62L328.751 2504.04L329.337 2503.28L329.923 2504.04L330.68 2504.62L329.923 2505.21L329.337 2505.97L328.751 2505.21Z" fill="#F700FE"/>
</g>
<path opacity="0.143438" fill-rule="evenodd" clip-rule="evenodd" d="M211.533 1799.21L211.128 1799.73L210.724 1799.21L210.202 1798.8L210.724 1798.4L211.128 1797.88L211.533 1798.4L212.054 1798.8L211.533 1799.21Z" fill="#979797"/>
<path opacity="0.143438" fill-rule="evenodd" clip-rule="evenodd" d="M281.366 1773.46L280.961 1773.98L280.557 1773.46L280.035 1773.06L280.557 1772.65L280.961 1772.13L281.366 1772.65L281.887 1773.06L281.366 1773.46Z" fill="#979797"/>
<path opacity="0.143438" fill-rule="evenodd" clip-rule="evenodd" d="M323.368 2364.75L322.963 2365.27L322.559 2364.75L322.037 2364.35L322.559 2363.94L322.963 2363.42L323.368 2363.94L323.889 2364.35L323.368 2364.75Z" fill="#979797"/>
<path opacity="0.0904018" fill-rule="evenodd" clip-rule="evenodd" d="M171.449 1791.49L170.614 1790.84L171.449 1790.2L172.096 1789.36L172.743 1790.2L173.578 1790.84L172.743 1791.49L172.096 1792.33L171.449 1791.49Z" fill="#979797"/>
<path opacity="0.0904018" fill-rule="evenodd" clip-rule="evenodd" d="M255.497 1739.88L254.663 1739.23L255.497 1738.59L256.145 1737.75L256.792 1738.59L257.626 1739.23L256.792 1739.88L256.145 1740.72L255.497 1739.88Z" fill="#979797"/>
<path opacity="0.0904018" fill-rule="evenodd" clip-rule="evenodd" d="M255.497 831.95L254.663 831.303L255.497 830.656L256.145 829.821L256.792 830.656L257.626 831.303L256.792 831.95L256.145 832.785L255.497 831.95Z" fill="#979797"/>
<path opacity="0.0904018" fill-rule="evenodd" clip-rule="evenodd" d="M241.281 1765.74L240.446 1765.1L241.281 1764.45L241.928 1763.61L242.575 1764.45L243.41 1765.1L242.575 1765.74L241.928 1766.58L241.281 1765.74Z" fill="#979797"/>
<path opacity="0.0904018" fill-rule="evenodd" clip-rule="evenodd" d="M283.283 2357.03L282.448 2356.39L283.283 2355.74L283.93 2354.91L284.577 2355.74L285.412 2356.39L284.577 2357.03L283.93 2357.87L283.283 2357.03Z" fill="#979797"/>
<path opacity="0.0904018" fill-rule="evenodd" clip-rule="evenodd" d="M242.533 2374.26L241.698 2373.61L242.533 2372.97L243.18 2372.13L243.827 2372.97L244.662 2373.61L243.827 2374.26L243.18 2375.1L242.533 2374.26Z" fill="#979797"/>
<path opacity="0.0904018" fill-rule="evenodd" clip-rule="evenodd" d="M165.474 1668.01L164.639 1667.36L165.474 1666.72L166.121 1665.88L166.768 1666.72L167.603 1667.36L166.768 1668.01L166.121 1668.84L165.474 1668.01Z" fill="#979797"/>
<path opacity="0.0904018" fill-rule="evenodd" clip-rule="evenodd" d="M165.474 760.079L164.639 759.432L165.474 758.785L166.121 757.95L166.768 758.785L167.603 759.432L166.768 760.079L166.121 760.914L165.474 760.079Z" fill="#979797"/>
<path opacity="0.0904018" fill-rule="evenodd" clip-rule="evenodd" d="M29.3284 1688.39L28.4937 1687.74L29.3284 1687.09L29.9756 1686.26L30.6227 1687.09L31.4574 1687.74L30.6227 1688.39L29.9756 1689.22L29.3284 1688.39Z" fill="#979797"/>
<path opacity="0.0904018" fill-rule="evenodd" clip-rule="evenodd" d="M29.3284 780.455L28.4937 779.808L29.3284 779.16L29.9756 778.326L30.6227 779.16L31.4574 779.808L30.6227 780.455L29.9756 781.289L29.3284 780.455Z" fill="#979797"/>
<path fill-rule="evenodd" clip-rule="evenodd" d="M245.727 1787.23L244.892 1786.58L245.727 1785.94L246.374 1785.1L247.021 1785.94L247.856 1786.58L247.021 1787.23L246.374 1788.06L245.727 1787.23Z" fill="#979797"/>
<path fill-rule="evenodd" clip-rule="evenodd" d="M287.729 2378.52L286.894 2377.87L287.729 2377.23L288.376 2376.39L289.023 2377.23L289.858 2377.87L289.023 2378.52L288.376 2379.36L287.729 2378.52Z" fill="#979797"/>
<path fill-rule="evenodd" clip-rule="evenodd" d="M208.309 1767.97L207.474 1767.32L208.309 1766.67L208.956 1765.84L209.603 1766.67L210.438 1767.32L209.603 1767.97L208.956 1768.8L208.309 1767.97Z" fill="#979797"/>
<path fill-rule="evenodd" clip-rule="evenodd" d="M330.702 1742.29L329.868 1741.64L330.702 1740.99L331.35 1740.16L331.997 1740.99L332.831 1741.64L331.997 1742.29L331.35 1743.12L330.702 1742.29Z" fill="#979797"/>
<path fill-rule="evenodd" clip-rule="evenodd" d="M330.702 834.358L329.868 833.71L330.702 833.063L331.35 832.229L331.997 833.063L332.831 833.71L331.997 834.358L331.35 835.192L330.702 834.358Z" fill="#979797"/>
<path fill-rule="evenodd" clip-rule="evenodd" d="M267.583 1800.75L266.749 1800.1L267.583 1799.46L268.23 1798.62L268.878 1799.46L269.712 1800.1L268.878 1800.75L268.23 1801.59L267.583 1800.75Z" fill="#979797"/>
<path fill-rule="evenodd" clip-rule="evenodd" d="M250.125 1679.12L249.291 1678.48L250.125 1677.83L250.772 1676.99L251.42 1677.83L252.254 1678.48L251.42 1679.12L250.772 1679.96L250.125 1679.12Z" fill="#979797"/>
<path fill-rule="evenodd" clip-rule="evenodd" d="M250.125 771.193L249.291 770.546L250.125 769.899L250.772 769.064L251.42 769.899L252.254 770.546L251.42 771.193L250.772 772.028L250.125 771.193Z" fill="#979797"/>
<path opacity="0.143438" fill-rule="evenodd" clip-rule="evenodd" d="M259.074 1477.14L258.669 1477.66L258.265 1477.14L257.743 1476.74L258.265 1476.33L258.669 1475.81L259.074 1476.33L259.595 1476.74L259.074 1477.14Z" fill="#F700FE"/>
<path opacity="0.143438" fill-rule="evenodd" clip-rule="evenodd" d="M259.074 569.21L258.669 569.732L258.265 569.21L257.743 568.806L258.265 568.401L258.669 567.88L259.074 568.401L259.595 568.806L259.074 569.21Z" fill="#F700FE"/>
<path opacity="0.143438" fill-rule="evenodd" clip-rule="evenodd" d="M328.908 1451.39L328.503 1451.92L328.099 1451.39L327.577 1450.99L328.099 1450.58L328.503 1450.06L328.908 1450.58L329.429 1450.99L328.908 1451.39Z" fill="#F700FE"/>
<path opacity="0.143438" fill-rule="evenodd" clip-rule="evenodd" d="M328.908 543.463L328.503 543.985L328.099 543.463L327.577 543.059L328.099 542.654L328.503 542.132L328.908 542.654L329.429 543.059L328.908 543.463Z" fill="#F700FE"/>
<path opacity="0.143438" fill-rule="evenodd" clip-rule="evenodd" d="M318.349 1509.93L317.945 1510.45L317.54 1509.93L317.018 1509.52L317.54 1509.12L317.945 1508.6L318.349 1509.12L318.871 1509.52L318.349 1509.93Z" fill="#F700FE"/>
<path opacity="0.143438" fill-rule="evenodd" clip-rule="evenodd" d="M318.349 601.996L317.945 602.518L317.54 601.996L317.018 601.592L317.54 601.187L317.945 600.666L318.349 601.187L318.871 601.592L318.349 601.996Z" fill="#F700FE"/>
<path opacity="0.0904018" fill-rule="evenodd" clip-rule="evenodd" d="M218.99 1469.42L218.155 1468.78L218.99 1468.13L219.637 1467.29L220.284 1468.13L221.119 1468.78L220.284 1469.42L219.637 1470.26L218.99 1469.42Z" fill="#F700FE"/>
<path opacity="0.0904018" fill-rule="evenodd" clip-rule="evenodd" d="M218.99 561.492L218.155 560.845L218.99 560.198L219.637 559.363L220.284 560.198L221.119 560.845L220.284 561.492L219.637 562.327L218.99 561.492Z" fill="#F700FE"/>
<path opacity="0.0904018" fill-rule="evenodd" clip-rule="evenodd" d="M250.479 1417.74L249.644 1417.1L250.479 1416.45L251.126 1415.61L251.773 1416.45L252.608 1417.1L251.773 1417.74L251.126 1418.58L250.479 1417.74Z" fill="#F700FE"/>
<path opacity="0.0904018" fill-rule="evenodd" clip-rule="evenodd" d="M288.823 1443.68L287.988 1443.03L288.823 1442.38L289.47 1441.55L290.117 1442.38L290.952 1443.03L290.117 1443.68L289.47 1444.51L288.823 1443.68Z" fill="#F700FE"/>
<path opacity="0.0904018" fill-rule="evenodd" clip-rule="evenodd" d="M288.823 535.745L287.988 535.098L288.823 534.45L289.47 533.616L290.117 534.45L290.952 535.098L290.117 535.745L289.47 536.579L288.823 535.745Z" fill="#F700FE"/>
<path opacity="0.0904018" fill-rule="evenodd" clip-rule="evenodd" d="M278.264 1502.21L277.429 1501.56L278.264 1500.91L278.911 1500.08L279.558 1500.91L280.393 1501.56L279.558 1502.21L278.911 1503.04L278.264 1502.21Z" fill="#F700FE"/>
<path opacity="0.0904018" fill-rule="evenodd" clip-rule="evenodd" d="M278.264 594.278L277.429 593.631L278.264 592.984L278.911 592.149L279.558 592.984L280.393 593.631L279.558 594.278L278.911 595.113L278.264 594.278Z" fill="#F700FE"/>
<path opacity="0.0904018" fill-rule="evenodd" clip-rule="evenodd" d="M237.513 1519.44L236.678 1518.79L237.513 1518.14L238.16 1517.31L238.807 1518.14L239.642 1518.79L238.807 1519.44L238.16 1520.27L237.513 1519.44Z" fill="#F700FE"/>
<path opacity="0.0904018" fill-rule="evenodd" clip-rule="evenodd" d="M237.513 611.505L236.678 610.857L237.513 610.21L238.16 609.376L238.807 610.21L239.642 610.857L238.807 611.505L238.16 612.339L237.513 611.505Z" fill="#F700FE"/>
<path fill-rule="evenodd" clip-rule="evenodd" d="M223.435 1490.91L222.6 1490.26L223.435 1489.62L224.082 1488.78L224.729 1489.62L225.564 1490.26L224.729 1490.91L224.082 1491.74L223.435 1490.91Z" fill="#F700FE"/>
<path fill-rule="evenodd" clip-rule="evenodd" d="M223.435 582.979L222.6 582.332L223.435 581.685L224.082 580.85L224.729 581.685L225.564 582.332L224.729 582.979L224.082 583.814L223.435 582.979Z" fill="#F700FE"/>
<path fill-rule="evenodd" clip-rule="evenodd" d="M293.268 1465.16L292.433 1464.52L293.268 1463.87L293.915 1463.03L294.562 1463.87L295.397 1464.52L294.562 1465.16L293.915 1466L293.268 1465.16Z" fill="#2FFD61"/>
<path fill-rule="evenodd" clip-rule="evenodd" d="M293.268 557.232L292.433 556.584L293.268 555.937L293.915 555.103L294.562 555.937L295.397 556.584L294.562 557.232L293.915 558.066L293.268 557.232Z" fill="#2FFD61"/>
<path fill-rule="evenodd" clip-rule="evenodd" d="M301.992 1523.7L301.157 1523.05L301.992 1522.4L302.639 1521.57L303.286 1522.4L304.121 1523.05L303.286 1523.7L302.639 1524.53L301.992 1523.7Z" fill="#0058FF"/>
<path fill-rule="evenodd" clip-rule="evenodd" d="M301.992 615.765L301.157 615.118L301.992 614.471L302.639 613.636L303.286 614.471L304.121 615.118L303.286 615.765L302.639 616.6L301.992 615.765Z" fill="#0058FF"/>
<path fill-rule="evenodd" clip-rule="evenodd" d="M255.851 1445.9L255.016 1445.25L255.851 1444.6L256.498 1443.77L257.145 1444.6L257.98 1445.25L257.145 1445.9L256.498 1446.73L255.851 1445.9Z" fill="#0058FF"/>
<path fill-rule="evenodd" clip-rule="evenodd" d="M255.851 537.967L255.016 537.32L255.851 536.673L256.498 535.838L257.145 536.673L257.98 537.32L257.145 537.967L256.498 538.802L255.851 537.967Z" fill="#0058FF"/>
<path fill-rule="evenodd" clip-rule="evenodd" d="M325.684 1420.15L324.849 1419.5L325.684 1418.86L326.331 1418.02L326.978 1418.86L327.813 1419.5L326.978 1420.15L326.331 1420.99L325.684 1420.15Z" fill="#F700FE"/>
<path fill-rule="evenodd" clip-rule="evenodd" d="M315.125 1478.68L314.291 1478.04L315.125 1477.39L315.772 1476.56L316.42 1477.39L317.254 1478.04L316.42 1478.68L315.772 1479.52L315.125 1478.68Z" fill="#979797"/>
<path fill-rule="evenodd" clip-rule="evenodd" d="M315.125 570.754L314.291 570.106L315.125 569.459L315.772 568.625L316.42 569.459L317.254 570.106L316.42 570.754L315.772 571.588L315.125 570.754Z" fill="#979797"/>
<g opacity="0.392787">
<path opacity="0.143438" fill-rule="evenodd" clip-rule="evenodd" d="M41.4252 2590.72L41.0207 2591.24L40.6163 2590.72L40.0946 2590.31L40.6163 2589.91L41.0207 2589.39L41.4252 2589.91L41.9469 2590.31L41.4252 2590.72Z" fill="#F700FE"/>
<path opacity="0.143438" fill-rule="evenodd" clip-rule="evenodd" d="M111.258 2564.97L110.854 2565.49L110.449 2564.97L109.928 2564.57L110.449 2564.16L110.854 2563.64L111.258 2564.16L111.78 2564.57L111.258 2564.97Z" fill="#F700FE"/>
<path opacity="0.143438" fill-rule="evenodd" clip-rule="evenodd" d="M100.7 2623.5L100.295 2624.03L99.8907 2623.5L99.369 2623.1L99.8907 2622.7L100.295 2622.17L100.7 2622.7L101.221 2623.1L100.7 2623.5Z" fill="#F700FE"/>
<path opacity="0.0904018" fill-rule="evenodd" clip-rule="evenodd" d="M1.34113 2583L0.506422 2582.35L1.34113 2581.71L1.98828 2580.87L2.63543 2581.71L3.47014 2582.35L2.63543 2583L1.98828 2583.83L1.34113 2583Z" fill="#F700FE"/>
<path opacity="0.0904018" fill-rule="evenodd" clip-rule="evenodd" d="M32.8304 2531.32L31.9957 2530.67L32.8304 2530.03L33.4775 2529.19L34.1247 2530.03L34.9594 2530.67L34.1247 2531.32L33.4775 2532.15L32.8304 2531.32Z" fill="#F700FE"/>
<path opacity="0.0904018" fill-rule="evenodd" clip-rule="evenodd" d="M71.1741 2557.25L70.3394 2556.61L71.1741 2555.96L71.8213 2555.12L72.4684 2555.96L73.3031 2556.61L72.4684 2557.25L71.8213 2558.09L71.1741 2557.25Z" fill="#F700FE"/>
<path opacity="0.0904018" fill-rule="evenodd" clip-rule="evenodd" d="M60.6155 2615.79L59.7808 2615.14L60.6155 2614.49L61.2627 2613.66L61.9098 2614.49L62.7446 2615.14L61.9098 2615.79L61.2627 2616.62L60.6155 2615.79Z" fill="#F700FE"/>
<path opacity="0.0904018" fill-rule="evenodd" clip-rule="evenodd" d="M19.8646 2633.01L19.0299 2632.37L19.8646 2631.72L20.5117 2630.88L21.1589 2631.72L21.9936 2632.37L21.1589 2633.01L20.5117 2633.85L19.8646 2633.01Z" fill="#F700FE"/>
<path fill-rule="evenodd" clip-rule="evenodd" d="M5.78645 2604.49L4.95173 2603.84L5.78645 2603.19L6.43359 2602.36L7.08074 2603.19L7.91545 2603.84L7.08074 2604.49L6.43359 2605.32L5.78645 2604.49Z" fill="#FFEC6A"/>
<path fill-rule="evenodd" clip-rule="evenodd" d="M75.6195 2578.74L74.7847 2578.09L75.6195 2577.45L76.2666 2576.61L76.9137 2577.45L77.7485 2578.09L76.9137 2578.74L76.2666 2579.57L75.6195 2578.74Z" fill="#FFEC6A"/>
<path fill-rule="evenodd" clip-rule="evenodd" d="M50.8167 2625.07L49.982 2624.42L50.8167 2623.77L51.4639 2622.94L52.111 2623.77L52.9457 2624.42L52.111 2625.07L51.4639 2625.9L50.8167 2625.07Z" fill="#F700FE"/>
<path fill-rule="evenodd" clip-rule="evenodd" d="M38.2025 2559.48L37.3677 2558.83L38.2025 2558.18L38.8496 2557.35L39.4968 2558.18L40.3315 2558.83L39.4968 2559.48L38.8496 2560.31L38.2025 2559.48Z" fill="#F700FE"/>
<path fill-rule="evenodd" clip-rule="evenodd" d="M108.035 2533.73L107.201 2533.08L108.035 2532.43L108.683 2531.6L109.33 2532.43L110.164 2533.08L109.33 2533.73L108.683 2534.56L108.035 2533.73Z" fill="#F700FE"/>
<path fill-rule="evenodd" clip-rule="evenodd" d="M97.4769 2592.26L96.6422 2591.61L97.4769 2590.97L98.124 2590.13L98.7712 2590.97L99.6059 2591.61L98.7712 2592.26L98.124 2593.1L97.4769 2592.26Z" fill="#FFEC6A"/>
</g>
<path fill-rule="evenodd" clip-rule="evenodd" d="M104.269 2660.7L103.434 2660.06L104.269 2659.41L104.916 2658.58L105.563 2659.41L106.398 2660.06L105.563 2660.7L104.916 2661.54L104.269 2660.7Z" fill="#2FFD61"/>
<path opacity="0.143438" fill-rule="evenodd" clip-rule="evenodd" d="M43.8334 1594.76L43.4289 1595.29L43.0245 1594.76L42.5028 1594.36L43.0245 1593.95L43.4289 1593.43L43.8334 1593.95L44.3551 1594.36L43.8334 1594.76Z" fill="#FFEC6A"/>
<path opacity="0.143438" fill-rule="evenodd" clip-rule="evenodd" d="M113.666 1569.02L113.262 1569.54L112.857 1569.02L112.336 1568.61L112.857 1568.21L113.262 1567.69L113.666 1568.21L114.188 1568.61L113.666 1569.02Z" fill="#FFEC6A"/>
<path opacity="0.143438" fill-rule="evenodd" clip-rule="evenodd" d="M103.108 1627.55L102.703 1628.07L102.299 1627.55L101.777 1627.15L102.299 1626.74L102.703 1626.22L103.108 1626.74L103.63 1627.15L103.108 1627.55Z" fill="#FFEC6A"/>
<path opacity="0.0904018" fill-rule="evenodd" clip-rule="evenodd" d="M3.74934 1587.05L2.91462 1586.4L3.74934 1585.75L4.39648 1584.92L5.04363 1585.75L5.87834 1586.4L5.04363 1587.05L4.39648 1587.88L3.74934 1587.05Z" fill="#FFEC6A"/>
<path opacity="0.0904018" fill-rule="evenodd" clip-rule="evenodd" d="M35.2386 1535.37L34.4039 1534.72L35.2386 1534.07L35.8857 1533.24L36.5329 1534.07L37.3676 1534.72L36.5329 1535.37L35.8857 1536.2L35.2386 1535.37Z" fill="#FFEC6A"/>
<path opacity="0.0904018" fill-rule="evenodd" clip-rule="evenodd" d="M73.5823 1561.3L72.7476 1560.65L73.5823 1560L74.2295 1559.17L74.8766 1560L75.7114 1560.65L74.8766 1561.3L74.2295 1562.13L73.5823 1561.3Z" fill="#FFEC6A"/>
<path opacity="0.0904018" fill-rule="evenodd" clip-rule="evenodd" d="M63.0238 1619.83L62.189 1619.18L63.0238 1618.54L63.6709 1617.7L64.318 1618.54L65.1528 1619.18L64.318 1619.83L63.6709 1620.67L63.0238 1619.83Z" fill="#FFEC6A"/>
<path opacity="0.0904018" fill-rule="evenodd" clip-rule="evenodd" d="M22.2728 1637.06L21.4381 1636.41L22.2728 1635.76L22.9199 1634.93L23.5671 1635.76L24.4018 1636.41L23.5671 1637.06L22.9199 1637.89L22.2728 1637.06Z" fill="#FFEC6A"/>
<path fill-rule="evenodd" clip-rule="evenodd" d="M19.0833 1587.38L18.2486 1586.73L19.0833 1586.08L19.7305 1585.25L20.3776 1586.08L21.2123 1586.73L20.3776 1587.38L19.7305 1588.21L19.0833 1587.38Z" fill="#FFEC6A"/>
<path fill-rule="evenodd" clip-rule="evenodd" d="M78.0277 1582.78L77.1929 1582.14L78.0277 1581.49L78.6748 1580.66L79.322 1581.49L80.1567 1582.14L79.322 1582.78L78.6748 1583.62L78.0277 1582.78Z" fill="#FFEC6A"/>
<path fill-rule="evenodd" clip-rule="evenodd" d="M67.4691 1641.32L66.6344 1640.67L67.4691 1640.02L68.1162 1639.19L68.7634 1640.02L69.5981 1640.67L68.7634 1641.32L68.1162 1642.15L67.4691 1641.32Z" fill="#0058FF"/>
<path fill-rule="evenodd" clip-rule="evenodd" d="M40.6107 1563.52L39.776 1562.87L40.6107 1562.23L41.2578 1561.39L41.905 1562.23L42.7397 1562.87L41.905 1563.52L41.2578 1564.36L40.6107 1563.52Z" fill="#979797"/>
<path fill-rule="evenodd" clip-rule="evenodd" d="M110.444 1537.77L109.609 1537.13L110.444 1536.48L111.091 1535.64L111.738 1536.48L112.573 1537.13L111.738 1537.77L111.091 1538.61L110.444 1537.77Z" fill="#FFEC6A"/>
<path fill-rule="evenodd" clip-rule="evenodd" d="M99.8851 1608.18L99.0504 1607.53L99.8851 1606.89L100.532 1606.05L101.179 1606.89L102.014 1607.53L101.179 1608.18L100.532 1609.01L99.8851 1608.18Z" fill="#0058FF"/>
<path opacity="0.143438" fill-rule="evenodd" clip-rule="evenodd" d="M43.8334 686.833L43.4289 687.354L43.0245 686.833L42.5028 686.428L43.0245 686.024L43.4289 685.502L43.8334 686.024L44.3551 686.428L43.8334 686.833Z" fill="#FFEC6A"/>
<path opacity="0.143438" fill-rule="evenodd" clip-rule="evenodd" d="M113.666 661.086L113.262 661.607L112.857 661.086L112.336 660.681L112.857 660.277L113.262 659.755L113.666 660.277L114.188 660.681L113.666 661.086Z" fill="#FFEC6A"/>
<path opacity="0.143438" fill-rule="evenodd" clip-rule="evenodd" d="M103.108 719.619L102.703 720.141L102.299 719.619L101.777 719.215L102.299 718.81L102.703 718.289L103.108 718.81L103.63 719.215L103.108 719.619Z" fill="#FFEC6A"/>
<path opacity="0.0904018" fill-rule="evenodd" clip-rule="evenodd" d="M3.74934 679.114L2.91462 678.467L3.74934 677.82L4.39648 676.985L5.04363 677.82L5.87834 678.467L5.04363 679.114L4.39648 679.949L3.74934 679.114Z" fill="#FFEC6A"/>
<path opacity="0.0904018" fill-rule="evenodd" clip-rule="evenodd" d="M35.2386 627.435L34.4039 626.788L35.2386 626.14L35.8857 625.306L36.5329 626.14L37.3676 626.788L36.5329 627.435L35.8857 628.269L35.2386 627.435Z" fill="#FFEC6A"/>
<path opacity="0.0904018" fill-rule="evenodd" clip-rule="evenodd" d="M73.5823 653.367L72.7476 652.72L73.5823 652.073L74.2295 651.238L74.8766 652.073L75.7114 652.72L74.8766 653.367L74.2295 654.202L73.5823 653.367Z" fill="#FFEC6A"/>
<path opacity="0.0904018" fill-rule="evenodd" clip-rule="evenodd" d="M63.0238 711.901L62.189 711.253L63.0238 710.606L63.6709 709.772L64.318 710.606L65.1528 711.253L64.318 711.901L63.6709 712.735L63.0238 711.901Z" fill="#FFEC6A"/>
<path opacity="0.0904018" fill-rule="evenodd" clip-rule="evenodd" d="M22.2728 729.128L21.4381 728.48L22.2728 727.833L22.9199 726.999L23.5671 727.833L24.4018 728.48L23.5671 729.128L22.9199 729.962L22.2728 729.128Z" fill="#FFEC6A"/>
<path fill-rule="evenodd" clip-rule="evenodd" d="M19.0833 679.445L18.2486 678.798L19.0833 678.151L19.7305 677.316L20.3776 678.151L21.2123 678.798L20.3776 679.445L19.7305 680.28L19.0833 679.445Z" fill="#FFEC6A"/>
<path fill-rule="evenodd" clip-rule="evenodd" d="M78.0277 674.854L77.1929 674.207L78.0277 673.56L78.6748 672.725L79.322 673.56L80.1567 674.207L79.322 674.854L78.6748 675.689L78.0277 674.854Z" fill="#FFEC6A"/>
<path fill-rule="evenodd" clip-rule="evenodd" d="M67.4691 733.388L66.6344 732.741L67.4691 732.094L68.1162 731.259L68.7634 732.094L69.5981 732.741L68.7634 733.388L68.1162 734.223L67.4691 733.388Z" fill="#0058FF"/>
<path fill-rule="evenodd" clip-rule="evenodd" d="M40.6107 655.59L39.776 654.943L40.6107 654.296L41.2578 653.461L41.905 654.296L42.7397 654.943L41.905 655.59L41.2578 656.425L40.6107 655.59Z" fill="#979797"/>
<path fill-rule="evenodd" clip-rule="evenodd" d="M110.444 629.843L109.609 629.196L110.444 628.549L111.091 627.714L111.738 628.549L112.573 629.196L111.738 629.843L111.091 630.678L110.444 629.843Z" fill="#FFEC6A"/>
<path fill-rule="evenodd" clip-rule="evenodd" d="M99.8851 700.249L99.0504 699.602L99.8851 698.955L100.532 698.12L101.179 698.955L102.014 699.602L101.179 700.249L100.532 701.084L99.8851 700.249Z" fill="#0058FF"/>
<path opacity="0.143438" fill-rule="evenodd" clip-rule="evenodd" d="M88.6596 1304.65L88.2551 1305.17L87.8506 1304.65L87.3289 1304.24L87.8506 1303.84L88.2551 1303.32L88.6596 1303.84L89.1813 1304.24L88.6596 1304.65Z" fill="#979797"/>
<path fill-rule="evenodd" clip-rule="evenodd" d="M105.671 373.201L106.505 373.848L105.671 374.495L105.023 375.33L104.376 374.495L103.542 373.848L104.376 373.201L105.023 372.366L105.671 373.201Z" fill="#F700FE"/>
<path opacity="0.0608491" fill-rule="evenodd" clip-rule="evenodd" d="M114.005 391.791L114.839 392.439L114.005 393.086L113.357 393.92L112.71 393.086L111.876 392.439L112.71 391.791L113.357 390.957L114.005 391.791Z" fill="#979797"/>
<path opacity="0.0904018" fill-rule="evenodd" clip-rule="evenodd" d="M7.68133 389.754L8.51604 390.401L7.68133 391.048L7.03418 391.883L6.38703 391.048L5.55232 390.401L6.38703 389.754L7.03418 388.919L7.68133 389.754Z" fill="#979797"/>
<path opacity="0.143438" fill-rule="evenodd" clip-rule="evenodd" d="M131.545 415.699L132.067 416.103L131.545 416.508L131.141 417.029L130.736 416.508L130.214 416.103L130.736 415.699L131.141 415.177L131.545 415.699Z" fill="#979797"/>
<path opacity="0.361561" fill-rule="evenodd" clip-rule="evenodd" d="M435.291 126.986C439.691 86.7921 413.616 53.1747 385.803 43.6012C357.99 34.0278 316.984 36.6879 280.97 88.166C244.957 139.644 255.548 183.545 285.501 183.545C315.454 183.545 301.816 122.141 341.734 126.548C377.624 130.51 420.626 172.066 432.718 138.043C433.987 134.472 434.876 130.782 435.291 126.986Z" fill="#1C1A2E"/>
<circle cx="332.525" cy="140.879" r="6.18097" fill="#1C1A2E"/>
<mask id="mask0_165_4706" style="mask-type:luminance" maskUnits="userSpaceOnUse" x="326" y="134" width="13" height="14">
<circle cx="332.525" cy="140.879" r="6.18097" fill="white"/>
</mask>
<g mask="url(#mask0_165_4706)">
<circle cx="337.469" cy="138.928" r="7.22197" fill="#2C2855"/>
<circle opacity="0.540783" cx="330.638" cy="134.959" r="1.17113" fill="#161424"/>
<circle opacity="0.540783" cx="335.062" cy="146.28" r="1.17113" fill="#161424"/>
<circle opacity="0.540783" cx="331.484" cy="139.448" r="1.49644" fill="#161424"/>
<circle opacity="0.540783" cx="330.052" cy="144.523" r="1.49644" fill="#161424"/>
<circle opacity="0.540783" cx="336.298" cy="139.318" r="1.49644" fill="#161424"/>
<circle opacity="0.540783" cx="333.045" cy="143.092" r="0.45544" fill="#161424"/>
<circle opacity="0.540783" cx="335.778" cy="142.441" r="0.45544" fill="#161424"/>
<circle opacity="0.540783" cx="334.607" cy="137.106" r="0.45544" fill="#161424"/>
<circle opacity="0.540783" cx="327.709" cy="139.578" r="0.45544" fill="#161424"/>
<circle opacity="0.540783" cx="337.078" cy="143.872" r="0.45544" fill="#161424"/>
<circle opacity="0.540783" cx="329.532" cy="141.27" r="0.715691" fill="#161424"/>
<circle opacity="0.540783" cx="337.339" cy="136.846" r="0.715691" fill="#161424"/>
<circle opacity="0.540783" cx="333.696" cy="141.01" r="0.715691" fill="#161424"/>
<circle opacity="0.540783" cx="332.134" cy="146.995" r="0.715691" fill="#161424"/>
<circle opacity="0.540783" cx="326.799" cy="142.311" r="0.715691" fill="#161424"/>
</g>
<circle cx="22.2312" cy="1616.83" r="9.35424" fill="#1C1A2F"/>
<mask id="mask1_165_4706" style="mask-type:luminance" maskUnits="userSpaceOnUse" x="12" y="1607" width="20" height="20">
<circle cx="22.2312" cy="1616.83" r="9.35424" fill="white"/>
</mask>
<g mask="url(#mask1_165_4706)">
<circle cx="30.8418" cy="1615.26" r="10.9981" fill="#26233F"/>
</g>
<path opacity="0.112188" fill-rule="evenodd" clip-rule="evenodd" d="M13.261 1612.53C13.1188 1612.21 13.2024 1611.83 13.4681 1611.59C13.7675 1611.33 14.215 1611.32 14.5263 1611.57L14.6529 1611.67C14.9375 1611.9 15.3241 1611.96 15.6638 1611.82L16.2396 1611.59C16.3851 1611.53 16.5197 1611.45 16.6373 1611.35L17.0219 1611.01C17.2642 1610.8 17.6197 1610.77 17.8874 1610.95C18.144 1611.13 18.4827 1611.11 18.725 1610.92L18.9752 1610.72C19.2345 1610.52 19.6029 1610.52 19.8554 1610.74C20.0383 1610.89 20.2882 1610.94 20.5165 1610.87L20.7798 1610.78C21.0332 1610.7 21.3088 1610.73 21.5435 1610.85C21.811 1611 22.1296 1611.01 22.4067 1610.88L22.6567 1610.77C22.9369 1610.65 23.1272 1610.38 23.1536 1610.07L23.1665 1609.92C23.1927 1609.62 23.4255 1609.38 23.7277 1609.33C23.8712 1609.31 24.0173 1609.34 24.1432 1609.41L24.6889 1609.72C24.8928 1609.84 25.1296 1609.89 25.3622 1609.85L25.6745 1609.81C25.914 1609.78 26.1092 1609.6 26.1677 1609.36C26.2262 1609.13 26.4213 1608.95 26.6609 1608.92L26.9193 1608.88C27.0984 1608.86 27.281 1608.88 27.4469 1608.96L27.6816 1609.06C27.8513 1609.13 28.0381 1609.16 28.2213 1609.13L28.2571 1609.13C28.4934 1609.09 28.7334 1609.15 28.9257 1609.3L29.0769 1609.41C29.1786 1609.48 29.2458 1609.59 29.2633 1609.72C29.291 1609.92 29.1914 1610.11 29.0149 1610.2L28.7388 1610.34C28.5977 1610.42 28.4294 1610.41 28.2913 1610.33C28.1635 1610.26 28.009 1610.25 27.874 1610.31L27.0522 1610.67L26.1315 1610.97C25.9668 1611.03 25.7888 1611.03 25.6227 1610.98C25.4549 1610.93 25.2752 1610.93 25.1092 1610.99L24.5175 1611.19C24.3327 1611.26 24.181 1611.39 24.0963 1611.57C23.9905 1611.79 23.7817 1611.94 23.5401 1611.97L22.3744 1612.14L21.6528 1612.24L20.7938 1612.36C20.6612 1612.38 20.5352 1612.43 20.4267 1612.51C20.2506 1612.63 20.0312 1612.69 19.8165 1612.65L19.4946 1612.6C19.3648 1612.58 19.245 1612.52 19.1528 1612.43C18.9426 1612.21 18.6093 1612.18 18.3633 1612.35L17.8646 1612.7C17.7778 1612.76 17.6842 1612.81 17.5856 1612.85L16.9195 1613.11C16.7714 1613.16 16.6172 1613.2 16.4599 1613.22C16.3516 1613.24 16.2447 1613.26 16.1402 1613.3L14.9976 1613.65C14.8257 1613.7 14.6446 1613.72 14.4659 1613.7C14.0107 1613.64 13.6182 1613.35 13.4345 1612.93L13.261 1612.53Z" fill="white"/>
<path opacity="0.112188" fill-rule="evenodd" clip-rule="evenodd" d="M30.9515 1620.05C31.0938 1620.37 31.0101 1620.75 30.7444 1620.99C30.445 1621.25 29.9976 1621.26 29.6863 1621.01L29.5597 1620.91C29.2751 1620.68 28.8885 1620.62 28.5488 1620.76L27.973 1620.99C27.8274 1621.05 27.6929 1621.13 27.5752 1621.23L27.1906 1621.57C26.9484 1621.78 26.5929 1621.81 26.3252 1621.63C26.0686 1621.45 25.7298 1621.47 25.4876 1621.66L25.2373 1621.86C24.978 1622.06 24.6096 1622.06 24.3572 1621.84C24.1743 1621.69 23.9244 1621.64 23.6961 1621.71L23.4327 1621.8C23.1793 1621.88 22.9038 1621.85 22.6691 1621.73C22.4016 1621.58 22.083 1621.57 21.8059 1621.7L21.5559 1621.81C21.2756 1621.93 21.0854 1622.2 21.059 1622.51L21.0461 1622.66C21.0198 1622.96 20.7871 1623.21 20.4849 1623.25C20.3414 1623.27 20.1953 1623.24 20.0694 1623.17L19.5237 1622.86C19.3197 1622.74 19.0829 1622.69 18.8504 1622.73L18.5381 1622.77C18.2985 1622.81 18.1034 1622.98 18.0449 1623.22C17.9863 1623.45 17.7912 1623.63 17.5516 1623.66L17.2933 1623.7C17.1141 1623.72 16.9315 1623.7 16.7657 1623.62L16.531 1623.52C16.3613 1623.45 16.1745 1623.42 15.9912 1623.45L15.9555 1623.45C15.7191 1623.49 15.4792 1623.43 15.2869 1623.28L15.1356 1623.17C15.034 1623.1 14.9668 1622.99 14.9492 1622.86C14.9216 1622.66 15.0212 1622.47 15.1977 1622.38L15.4738 1622.24C15.6148 1622.16 15.7832 1622.17 15.9213 1622.25C16.0491 1622.32 16.2036 1622.33 16.3386 1622.27L17.1603 1621.91L18.0811 1621.61C18.2458 1621.55 18.4237 1621.55 18.5899 1621.6C18.7577 1621.65 18.9374 1621.65 19.1034 1621.59L19.6951 1621.39C19.8798 1621.32 20.0315 1621.19 20.1162 1621.01C20.2221 1620.79 20.4308 1620.64 20.6725 1620.61L21.8382 1620.44L22.5598 1620.34L23.4188 1620.22C23.5514 1620.2 23.6774 1620.15 23.7858 1620.07C23.9619 1619.95 24.1813 1619.89 24.396 1619.93L24.7179 1619.98C24.8478 1620 24.9675 1620.06 25.0598 1620.15C25.2699 1620.37 25.6033 1620.4 25.8493 1620.23L26.348 1619.88C26.4348 1619.82 26.5284 1619.77 26.6269 1619.73L27.2931 1619.48C27.4412 1619.42 27.5954 1619.38 27.7527 1619.36C27.861 1619.34 27.9679 1619.32 28.0724 1619.28L29.2149 1618.93C29.3869 1618.88 29.568 1618.86 29.7466 1618.88C30.2019 1618.94 30.5944 1619.23 30.778 1619.65L30.9515 1620.05Z" fill="white"/>
<path opacity="0.112188" fill-rule="evenodd" clip-rule="evenodd" d="M12.4075 1620.08C12.1768 1619.63 12.3069 1619.09 12.7127 1618.8C13.0427 1618.56 13.4824 1618.55 13.8261 1618.77L14.0714 1618.92C14.4377 1619.15 14.8881 1619.2 15.297 1619.06L16.0927 1618.79C16.2794 1618.72 16.456 1618.63 16.6169 1618.52L17.122 1618.16C17.4394 1617.93 17.8558 1617.91 18.2018 1618.08C18.5329 1618.25 18.9298 1618.23 19.2428 1618.03L19.6338 1617.78C19.9572 1617.57 20.3731 1617.57 20.6941 1617.79C20.9294 1617.94 21.2207 1617.99 21.4921 1617.91L21.9002 1617.8C22.2093 1617.71 22.5385 1617.73 22.8365 1617.85C23.1749 1617.98 23.5519 1617.99 23.893 1617.86L24.3408 1617.69C24.6421 1617.57 24.8578 1617.3 24.9042 1616.99C24.9608 1616.6 25.2679 1616.29 25.6579 1616.24L25.6825 1616.23C25.8493 1616.21 26.0193 1616.23 26.174 1616.3L26.8541 1616.59C27.113 1616.7 27.3975 1616.74 27.6766 1616.7L28.1935 1616.63C28.4472 1616.59 28.6596 1616.42 28.7438 1616.18C28.8279 1615.93 29.0403 1615.76 29.294 1615.72L29.7398 1615.66C29.9514 1615.63 30.1671 1615.65 30.3707 1615.72L30.6592 1615.81C30.8808 1615.88 31.1156 1615.9 31.346 1615.87L31.5152 1615.84C31.7428 1615.81 31.9746 1615.86 32.1746 1615.97L32.4409 1616.12C32.555 1616.18 32.6325 1616.3 32.6508 1616.43C32.6772 1616.62 32.5749 1616.8 32.4009 1616.87L31.9457 1617.07C31.7706 1617.15 31.5719 1617.15 31.3964 1617.07C31.2338 1617 31.0506 1617 30.8845 1617.06L29.8149 1617.45L28.6286 1617.8C28.4221 1617.86 28.2037 1617.87 27.9933 1617.82C27.7809 1617.78 27.5604 1617.79 27.3522 1617.85L26.5424 1618.09C26.3327 1618.15 26.1528 1618.29 26.0359 1618.47C25.8937 1618.7 25.6597 1618.85 25.3962 1618.89L23.8382 1619.11L22.9209 1619.23L21.8211 1619.39C21.6569 1619.41 21.4989 1619.47 21.3563 1619.55C21.1269 1619.69 20.8604 1619.75 20.5952 1619.72L20.1648 1619.68C20.0074 1619.66 19.8578 1619.6 19.7343 1619.5C19.4737 1619.3 19.112 1619.27 18.8218 1619.43L18.1115 1619.84C17.9971 1619.9 17.8766 1619.96 17.7518 1620L17.0976 1620.22C16.7741 1620.32 16.4414 1620.4 16.1036 1620.45L14.3904 1620.91C14.2051 1620.96 14.0126 1620.98 13.821 1620.97L13.5506 1620.95C13.1104 1620.93 12.717 1620.67 12.5129 1620.28L12.4075 1620.08Z" fill="white"/>
<path opacity="0.112188" fill-rule="evenodd" clip-rule="evenodd" d="M31.8055 1612.5C32.0362 1612.95 31.9061 1613.49 31.5004 1613.78C31.1704 1614.02 30.7306 1614.03 30.3869 1613.82L30.1417 1613.66C29.7754 1613.43 29.325 1613.38 28.916 1613.52L28.1203 1613.79C27.9336 1613.86 27.7571 1613.95 27.5961 1614.06L27.091 1614.42C26.7736 1614.65 26.3572 1614.68 26.0112 1614.5C25.6801 1614.33 25.2833 1614.35 24.9702 1614.55L24.5793 1614.8C24.2559 1615.01 23.84 1615.01 23.519 1614.79C23.2836 1614.64 22.9924 1614.59 22.721 1614.67L22.3128 1614.78C22.0038 1614.87 21.6746 1614.85 21.3766 1614.73C21.0382 1614.6 20.6611 1614.59 20.3201 1614.72L19.8723 1614.89C19.5709 1615.01 19.3552 1615.28 19.3089 1615.59C19.2522 1615.98 18.9451 1616.29 18.5551 1616.34L18.5306 1616.35C18.3638 1616.37 18.1937 1616.35 18.039 1616.28L17.3589 1615.99C17.1001 1615.88 16.8156 1615.84 16.5365 1615.88L16.0195 1615.95C15.7658 1615.99 15.5534 1616.16 15.4693 1616.4C15.3851 1616.65 15.1727 1616.82 14.919 1616.86L14.4733 1616.92C14.2616 1616.95 14.0459 1616.93 13.8424 1616.86L13.5538 1616.77C13.3322 1616.7 13.0975 1616.68 12.8671 1616.71L12.6978 1616.74C12.4702 1616.77 12.2384 1616.72 12.0385 1616.61L11.7722 1616.46C11.6581 1616.4 11.5805 1616.28 11.5623 1616.15C11.5359 1615.96 11.6381 1615.78 11.8121 1615.71L12.2674 1615.51C12.4425 1615.43 12.6412 1615.43 12.8166 1615.51C12.9793 1615.58 13.1624 1615.58 13.3286 1615.52L14.3981 1615.13L15.5845 1614.78C15.791 1614.72 16.0093 1614.71 16.2197 1614.76C16.4321 1614.8 16.6526 1614.79 16.8608 1614.73L17.6706 1614.49C17.8803 1614.43 18.0603 1614.29 18.1772 1614.11C18.3194 1613.88 18.5533 1613.73 18.8169 1613.69L20.3749 1613.47L21.2921 1613.35L22.392 1613.19C22.5561 1613.17 22.7141 1613.11 22.8568 1613.03C23.0861 1612.89 23.3526 1612.83 23.6179 1612.86L24.0482 1612.9C24.2056 1612.92 24.3552 1612.98 24.4787 1613.08C24.7394 1613.28 25.101 1613.31 25.3912 1613.15L26.1015 1612.74C26.2159 1612.68 26.3364 1612.62 26.4613 1612.58L27.1154 1612.36C27.4389 1612.26 27.7717 1612.18 28.1094 1612.13L29.8226 1611.67C30.008 1611.62 30.2004 1611.6 30.3921 1611.61L30.6624 1611.63C31.1027 1611.66 31.4961 1611.91 31.7001 1612.3L31.8055 1612.5Z" fill="white"/>
<circle cx="22.2312" cy="708.898" r="9.35424" fill="#1C1A2F"/>
<mask id="mask2_165_4706" style="mask-type:luminance" maskUnits="userSpaceOnUse" x="12" y="699" width="20" height="20">
<circle cx="22.2312" cy="708.898" r="9.35424" fill="white"/>
</mask>
<g mask="url(#mask2_165_4706)">
<circle cx="30.8418" cy="707.332" r="10.9981" fill="#26233F"/>
</g>
<path opacity="0.112188" fill-rule="evenodd" clip-rule="evenodd" d="M13.261 704.602C13.1188 704.277 13.2024 703.897 13.4681 703.661C13.7675 703.396 14.215 703.385 14.5263 703.637L14.6529 703.739C14.9375 703.969 15.3241 704.027 15.6638 703.892L16.2396 703.661C16.3851 703.603 16.5197 703.52 16.6373 703.417L17.0219 703.079C17.2642 702.865 17.6197 702.842 17.8874 703.022C18.144 703.195 18.4827 703.182 18.725 702.99L18.9752 702.791C19.2345 702.586 19.6029 702.592 19.8554 702.806C20.0383 702.961 20.2882 703.01 20.5165 702.937L20.7798 702.852C21.0332 702.771 21.3088 702.796 21.5435 702.921C21.811 703.064 22.1296 703.076 22.4067 702.952L22.6567 702.841C22.9369 702.716 23.1272 702.449 23.1536 702.143L23.1665 701.994C23.1927 701.69 23.4255 701.444 23.7277 701.402C23.8712 701.381 24.0173 701.409 24.1432 701.481L24.6889 701.792C24.8928 701.909 25.1296 701.954 25.3622 701.921L25.6745 701.878C25.914 701.844 26.1092 701.668 26.1677 701.433C26.2262 701.199 26.4213 701.023 26.6609 700.989L26.9193 700.953C27.0984 700.928 27.281 700.953 27.4469 701.025L27.6816 701.127C27.8513 701.201 28.0381 701.226 28.2213 701.201L28.2571 701.196C28.4934 701.162 28.7334 701.223 28.9257 701.364L29.0769 701.476C29.1786 701.55 29.2458 701.663 29.2633 701.788C29.291 701.985 29.1914 702.177 29.0149 702.269L28.7388 702.412C28.5977 702.485 28.4294 702.482 28.2913 702.403C28.1635 702.331 28.009 702.322 27.874 702.38L27.0522 702.734L26.1315 703.044C25.9668 703.099 25.7888 703.101 25.6227 703.051C25.4549 702.999 25.2752 703.002 25.1092 703.059L24.5175 703.262C24.3327 703.325 24.181 703.46 24.0963 703.636C23.9905 703.856 23.7817 704.008 23.5401 704.042L22.3744 704.206L21.6528 704.307L20.7938 704.428C20.6612 704.447 20.5352 704.497 20.4267 704.576C20.2506 704.703 20.0312 704.756 19.8165 704.722L19.4946 704.67C19.3648 704.65 19.245 704.588 19.1528 704.494C18.9426 704.281 18.6093 704.25 18.3633 704.421L17.8646 704.767C17.7778 704.828 17.6842 704.877 17.5856 704.916L16.9195 705.174C16.7714 705.231 16.6172 705.272 16.4599 705.294C16.3516 705.309 16.2447 705.333 16.1402 705.365L14.9976 705.716C14.8257 705.769 14.6446 705.786 14.4659 705.764C14.0107 705.71 13.6182 705.419 13.4345 704.999L13.261 704.602Z" fill="white"/>
<path opacity="0.112188" fill-rule="evenodd" clip-rule="evenodd" d="M30.9515 712.116C31.0938 712.441 31.0101 712.821 30.7444 713.057C30.445 713.322 29.9976 713.333 29.6863 713.081L29.5597 712.979C29.2751 712.749 28.8885 712.691 28.5488 712.826L27.973 713.057C27.8274 713.115 27.6929 713.197 27.5752 713.301L27.1906 713.639C26.9484 713.853 26.5929 713.876 26.3252 713.696C26.0686 713.523 25.7298 713.536 25.4876 713.728L25.2373 713.927C24.978 714.132 24.6096 714.126 24.3572 713.912C24.1743 713.757 23.9244 713.708 23.6961 713.781L23.4327 713.866C23.1793 713.947 22.9038 713.922 22.6691 713.797C22.4016 713.653 22.083 713.642 21.8059 713.766L21.5559 713.877C21.2756 714.002 21.0854 714.269 21.059 714.575L21.0461 714.724C21.0198 715.028 20.7871 715.274 20.4849 715.316C20.3414 715.337 20.1953 715.309 20.0694 715.237L19.5237 714.925C19.3197 714.809 19.0829 714.764 18.8504 714.796L18.5381 714.84C18.2985 714.874 18.1034 715.05 18.0449 715.284C17.9863 715.519 17.7912 715.695 17.5516 715.729L17.2933 715.765C17.1141 715.79 16.9315 715.765 16.7657 715.693L16.531 715.591C16.3613 715.517 16.1745 715.492 15.9912 715.517L15.9555 715.522C15.7191 715.556 15.4792 715.495 15.2869 715.354L15.1356 715.242C15.034 715.168 14.9668 715.055 14.9492 714.93C14.9216 714.733 15.0212 714.54 15.1977 714.449L15.4738 714.306C15.6148 714.233 15.7832 714.236 15.9213 714.315C16.0491 714.387 16.2036 714.396 16.3386 714.338L17.1603 713.984L18.0811 713.674C18.2458 713.619 18.4237 713.617 18.5899 713.667C18.7577 713.719 18.9374 713.716 19.1034 713.659L19.6951 713.456C19.8798 713.393 20.0315 713.258 20.1162 713.082C20.2221 712.862 20.4308 712.71 20.6725 712.676L21.8382 712.512L22.5598 712.411L23.4188 712.29C23.5514 712.271 23.6774 712.221 23.7858 712.142C23.9619 712.015 24.1813 711.962 24.396 711.996L24.7179 712.048C24.8478 712.068 24.9675 712.13 25.0598 712.223C25.2699 712.437 25.6033 712.468 25.8493 712.297L26.348 711.951C26.4348 711.89 26.5284 711.841 26.6269 711.802L27.2931 711.544C27.4412 711.487 27.5954 711.446 27.7527 711.424C27.861 711.409 27.9679 711.385 28.0724 711.353L29.2149 711.002C29.3869 710.949 29.568 710.932 29.7466 710.954C30.2019 711.008 30.5944 711.299 30.778 711.719L30.9515 712.116Z" fill="white"/>
<path opacity="0.112188" fill-rule="evenodd" clip-rule="evenodd" d="M12.4075 712.145C12.1768 711.703 12.3069 711.158 12.7127 710.868C13.0427 710.632 13.4824 710.619 13.8261 710.834L14.0714 710.988C14.4377 711.217 14.8881 711.269 15.297 711.129L16.0927 710.856C16.2794 710.792 16.456 710.702 16.6169 710.587L17.122 710.229C17.4394 710.004 17.8558 709.974 18.2018 710.152C18.5329 710.323 18.9298 710.303 19.2428 710.102L19.6338 709.85C19.9572 709.641 20.3731 709.644 20.6941 709.856C20.9294 710.011 21.2207 710.056 21.4921 709.98L21.9002 709.865C22.2093 709.778 22.5385 709.795 22.8365 709.915C23.1749 710.051 23.5519 710.055 23.893 709.926L24.3408 709.756C24.6421 709.642 24.8578 709.374 24.9042 709.055C24.9608 708.665 25.2679 708.359 25.6579 708.305L25.6825 708.301C25.8493 708.278 26.0193 708.301 26.174 708.367L26.8541 708.66C27.113 708.771 27.3975 708.81 27.6766 708.77L28.1935 708.698C28.4472 708.662 28.6596 708.488 28.7438 708.246C28.8279 708.004 29.0403 707.829 29.294 707.794L29.7398 707.731C29.9514 707.701 30.1671 707.72 30.3707 707.785L30.6592 707.877C30.8808 707.948 31.1156 707.968 31.346 707.936L31.5152 707.912C31.7428 707.88 31.9746 707.924 32.1746 708.037L32.4409 708.188C32.555 708.253 32.6325 708.367 32.6508 708.497C32.6772 708.685 32.5749 708.867 32.4009 708.943L31.9457 709.14C31.7706 709.216 31.5719 709.217 31.3964 709.141C31.2338 709.072 31.0506 709.067 30.8845 709.128L29.8149 709.52L28.6286 709.868C28.4221 709.929 28.2037 709.937 27.9933 709.892C27.7809 709.846 27.5604 709.854 27.3522 709.916L26.5424 710.158C26.3327 710.221 26.1528 710.357 26.0359 710.542C25.8937 710.767 25.6597 710.918 25.3962 710.955L23.8382 711.174L22.9209 711.303L21.8211 711.458C21.6569 711.481 21.4989 711.536 21.3563 711.621C21.1269 711.756 20.8604 711.816 20.5952 711.79L20.1648 711.748C20.0074 711.733 19.8578 711.672 19.7343 711.573C19.4737 711.364 19.112 711.336 18.8218 711.501L18.1115 711.905C17.9971 711.971 17.8766 712.024 17.7518 712.066L17.0976 712.284C16.7741 712.392 16.4414 712.471 16.1036 712.518L14.3904 712.983C14.2051 713.033 14.0126 713.052 13.821 713.04L13.5506 713.022C13.1104 712.994 12.717 712.738 12.5129 712.347L12.4075 712.145Z" fill="white"/>
<path opacity="0.112188" fill-rule="evenodd" clip-rule="evenodd" d="M31.8055 704.573C32.0362 705.015 31.9061 705.56 31.5004 705.85C31.1704 706.086 30.7306 706.099 30.3869 705.884L30.1417 705.73C29.7754 705.501 29.325 705.449 28.916 705.589L28.1203 705.862C27.9336 705.926 27.7571 706.016 27.5961 706.131L27.091 706.489C26.7736 706.714 26.3572 706.744 26.0112 706.566C25.6801 706.395 25.2833 706.415 24.9702 706.616L24.5793 706.868C24.2559 707.076 23.84 707.074 23.519 706.862C23.2836 706.707 22.9924 706.661 22.721 706.738L22.3128 706.853C22.0038 706.94 21.6746 706.922 21.3766 706.803C21.0382 706.667 20.6611 706.663 20.3201 706.792L19.8723 706.962C19.5709 707.076 19.3552 707.344 19.3089 707.663C19.2522 708.053 18.9451 708.359 18.5551 708.413L18.5306 708.417C18.3638 708.44 18.1937 708.417 18.039 708.351L17.3589 708.058C17.1001 707.946 16.8156 707.908 16.5365 707.947L16.0195 708.02C15.7658 708.056 15.5534 708.23 15.4693 708.472C15.3851 708.714 15.1727 708.889 14.919 708.924L14.4733 708.987C14.2616 709.017 14.0459 708.998 13.8424 708.933L13.5538 708.841C13.3322 708.77 13.0975 708.75 12.8671 708.782L12.6978 708.806C12.4702 708.838 12.2384 708.794 12.0385 708.681L11.7722 708.53C11.6581 708.465 11.5805 708.351 11.5623 708.221C11.5359 708.033 11.6381 707.851 11.8121 707.775L12.2674 707.578C12.4425 707.502 12.6412 707.501 12.8166 707.576C12.9793 707.646 13.1624 707.651 13.3286 707.59L14.3981 707.198L15.5845 706.85C15.791 706.789 16.0093 706.781 16.2197 706.826C16.4321 706.872 16.6526 706.864 16.8608 706.801L17.6706 706.56C17.8803 706.497 18.0603 706.361 18.1772 706.176C18.3194 705.951 18.5533 705.8 18.8169 705.763L20.3749 705.544L21.2921 705.415L22.392 705.26C22.5561 705.237 22.7141 705.182 22.8568 705.097C23.0861 704.962 23.3526 704.902 23.6179 704.928L24.0482 704.97C24.2056 704.985 24.3552 705.046 24.4787 705.145C24.7394 705.354 25.101 705.382 25.3912 705.217L26.1015 704.813C26.2159 704.747 26.3364 704.694 26.4613 704.652L27.1154 704.434C27.4389 704.326 27.7717 704.247 28.1094 704.2L29.8226 703.735C30.008 703.685 30.2004 703.666 30.3921 703.678L30.6624 703.695C31.1027 703.724 31.4961 703.98 31.7001 704.371L31.8055 704.573Z" fill="white"/>
<circle cx="47.7005" cy="73.1531" r="4.44558" fill="#1C1A2E"/>
<mask id="mask3_165_4706" style="mask-type:luminance" maskUnits="userSpaceOnUse" x="43" y="68" width="10" height="10">
<circle cx="47.7005" cy="73.1531" r="4.44558" fill="white"/>
</mask>
<g mask="url(#mask3_165_4706)">
<circle opacity="0.480911" cx="50.3865" cy="72.5047" r="5.27913" fill="#2B2941"/>
</g>
<path fill-rule="evenodd" clip-rule="evenodd" d="M163.047 62.7262L162.212 62.0791L163.047 61.4319L163.694 60.5972L164.341 61.4319L165.176 62.0791L164.341 62.7262L163.694 63.5609L163.047 62.7262Z" fill="#979797"/>
<path opacity="0.0608491" fill-rule="evenodd" clip-rule="evenodd" d="M119.518 56.4284L118.683 55.7812L119.518 55.1341L120.165 54.2994L120.812 55.1341L121.647 55.7812L120.812 56.4284L120.165 57.2631L119.518 56.4284Z" fill="#979797"/>
<path opacity="0.0904018" fill-rule="evenodd" clip-rule="evenodd" d="M225.843 58.4664L225.008 57.8193L225.843 57.1722L226.49 56.3374L227.137 57.1722L227.972 57.8193L227.137 58.4664L226.49 59.3012L225.843 58.4664Z" fill="#979797"/>
<path opacity="0.143438" fill-rule="evenodd" clip-rule="evenodd" d="M101.978 32.5209L101.457 32.1164L101.978 31.712L102.383 31.1903L102.787 31.712L103.309 32.1164L102.787 32.5209L102.383 33.0426L101.978 32.5209Z" fill="#979797"/>
<path fill-rule="evenodd" clip-rule="evenodd" d="M267.521 469.867L266.686 469.22L267.521 468.573L268.168 467.738L268.815 468.573L269.65 469.22L268.815 469.867L268.168 470.702L267.521 469.867Z" fill="#2FFD61"/>
<path fill-rule="evenodd" clip-rule="evenodd" d="M241.958 516.36L241.124 515.713L241.958 515.066L242.605 514.231L243.253 515.066L244.087 515.713L243.253 516.36L242.605 517.195L241.958 516.36Z" fill="#2FFD61"/>
<path opacity="0.0608491" fill-rule="evenodd" clip-rule="evenodd" d="M228.622 475.424L227.788 474.777L228.622 474.13L229.27 473.295L229.917 474.13L230.751 474.777L229.917 475.424L229.27 476.259L228.622 475.424Z" fill="#979797"/>
<path opacity="0.0904018" fill-rule="evenodd" clip-rule="evenodd" d="M334.946 477.462L334.111 476.814L334.946 476.167L335.593 475.333L336.24 476.167L337.075 476.814L336.24 477.462L335.593 478.296L334.946 477.462Z" fill="#979797"/>
<path opacity="0.143438" fill-rule="evenodd" clip-rule="evenodd" d="M211.082 451.517L210.56 451.112L211.082 450.708L211.486 450.186L211.891 450.708L212.412 451.112L211.891 451.517L211.486 452.038L211.082 451.517Z" fill="#979797"/>
<path fill-rule="evenodd" clip-rule="evenodd" d="M295.491 922.02L294.656 921.373L295.491 920.726L296.138 919.891L296.785 920.726L297.62 921.373L296.785 922.02L296.138 922.855L295.491 922.02Z" fill="#F700FE"/>
<path opacity="0.0608491" fill-rule="evenodd" clip-rule="evenodd" d="M251.96 915.722L251.126 915.075L251.96 914.428L252.607 913.593L253.255 914.428L254.089 915.075L253.255 915.722L252.607 916.557L251.96 915.722Z" fill="#F700FE"/>
<path opacity="0.0904018" fill-rule="evenodd" clip-rule="evenodd" d="M358.284 917.76L357.45 917.113L358.284 916.466L358.932 915.631L359.579 916.466L360.414 917.113L359.579 917.76L358.932 918.595L358.284 917.76Z" fill="#F700FE"/>
<path opacity="0.143438" fill-rule="evenodd" clip-rule="evenodd" d="M234.421 891.815L233.899 891.41L234.421 891.006L234.825 890.484L235.23 891.006L235.751 891.41L235.23 891.815L234.825 892.337L234.421 891.815Z" fill="#F700FE"/>
<path fill-rule="evenodd" clip-rule="evenodd" d="M224.572 986.871L225.407 987.519L224.572 988.166L223.925 989L223.278 988.166L222.443 987.519L223.278 986.871L223.925 986.037L224.572 986.871Z" fill="#0058FF"/>
<path opacity="0.0608491" fill-rule="evenodd" clip-rule="evenodd" d="M263.841 899.442L264.676 900.089L263.841 900.736L263.194 901.571L262.547 900.736L261.712 900.089L262.547 899.442L263.194 898.607L263.841 899.442Z" fill="#0058FF"/>
<path opacity="0.0904018" fill-rule="evenodd" clip-rule="evenodd" d="M47.6755 974.461L48.5102 975.108L47.6755 975.755L47.0283 976.59L46.3812 975.755L45.5465 975.108L46.3812 974.461L47.0283 973.626L47.6755 974.461Z" fill="#0058FF"/>
<path opacity="0.143438" fill-rule="evenodd" clip-rule="evenodd" d="M281.381 923.349L281.903 923.754L281.381 924.158L280.977 924.68L280.572 924.158L280.05 923.754L280.572 923.349L280.977 922.828L281.381 923.349Z" fill="#0058FF"/>
<path fill-rule="evenodd" clip-rule="evenodd" d="M67.7309 986.257L66.6844 986.113L67.0837 985.136L67.2268 984.089L68.2046 984.488L69.2511 984.632L68.8518 985.609L68.7087 986.656L67.7309 986.257Z" fill="#979797"/>
<path opacity="0.0904018" fill-rule="evenodd" clip-rule="evenodd" d="M78.4897 946.169L77.4432 946.026L77.8425 945.048L77.9856 944.001L78.9634 944.401L80.0099 944.544L79.6106 945.521L79.4675 946.568L78.4897 946.169Z" fill="#979797"/>
<path fill-rule="evenodd" clip-rule="evenodd" d="M137.487 973.33L136.652 972.683L137.487 972.035L138.134 971.201L138.781 972.035L139.616 972.683L138.781 973.33L138.134 974.164L137.487 973.33Z" fill="#979797"/>
<path opacity="0.0608491" fill-rule="evenodd" clip-rule="evenodd" d="M97.2913 923.873L96.4566 923.226L97.2913 922.578L97.9385 921.744L98.5856 922.578L99.4203 923.226L98.5856 923.873L97.9385 924.707L97.2913 923.873Z" fill="#979797"/>
<path opacity="0.0904018" fill-rule="evenodd" clip-rule="evenodd" d="M158.418 997.78L157.584 997.133L158.418 996.486L159.065 995.651L159.713 996.486L160.547 997.133L159.713 997.78L159.065 998.615L158.418 997.78Z" fill="#979797"/>
<path opacity="0.143438" fill-rule="evenodd" clip-rule="evenodd" d="M79.7518 899.965L79.2301 899.561L79.7518 899.156L80.1562 898.635L80.5607 899.156L81.0824 899.561L80.5607 899.965L80.1562 900.487L79.7518 899.965Z" fill="#979797"/>
<path fill-rule="evenodd" clip-rule="evenodd" d="M253.849 610.757L253.014 610.11L253.849 609.463L254.496 608.628L255.143 609.463L255.978 610.11L255.143 610.757L254.496 611.592L253.849 610.757Z" fill="#FFEC6A"/>
<path opacity="0.0608491" fill-rule="evenodd" clip-rule="evenodd" d="M210.32 604.46L209.485 603.812L210.32 603.165L210.967 602.331L211.614 603.165L212.449 603.812L211.614 604.46L210.967 605.294L210.32 604.46Z" fill="#FFEC6A"/>
<path opacity="0.0904018" fill-rule="evenodd" clip-rule="evenodd" d="M316.643 606.497L315.808 605.85L316.643 605.203L317.29 604.368L317.937 605.203L318.772 605.85L317.937 606.497L317.29 607.332L316.643 606.497Z" fill="#FFEC6A"/>
<path opacity="0.143438" fill-rule="evenodd" clip-rule="evenodd" d="M192.779 580.552L192.257 580.148L192.779 579.743L193.184 579.222L193.588 579.743L194.11 580.148L193.588 580.552L193.184 581.074L192.779 580.552Z" fill="#FFEC6A"/>
<path fill-rule="evenodd" clip-rule="evenodd" d="M196.433 466.81L197.268 467.458L196.433 468.105L195.786 468.939L195.139 468.105L194.304 467.458L195.139 466.81L195.786 465.976L196.433 466.81Z" fill="#F700FE"/>
<path opacity="0.0608491" fill-rule="evenodd" clip-rule="evenodd" d="M288.309 494.04L289.144 494.687L288.309 495.334L287.662 496.169L287.015 495.334L286.18 494.687L287.015 494.04L287.662 493.205L288.309 494.04Z" fill="#979797"/>
<path opacity="0.0904018" fill-rule="evenodd" clip-rule="evenodd" d="M181.985 492.002L182.82 492.649L181.985 493.297L181.338 494.131L180.691 493.297L179.856 492.649L180.691 492.002L181.338 491.168L181.985 492.002Z" fill="#979797"/>
<path opacity="0.0904018" fill-rule="evenodd" clip-rule="evenodd" d="M306.091 564.799L306.926 565.446L306.091 566.093L305.444 566.928L304.797 566.093L303.962 565.446L304.797 564.799L305.444 563.964L306.091 564.799Z" fill="#979797"/>
<path opacity="0.0904018" fill-rule="evenodd" clip-rule="evenodd" d="M151.978 457.179L152.813 457.826L151.978 458.473L151.331 459.308L150.684 458.473L149.849 457.826L150.684 457.179L151.331 456.344L151.978 457.179Z" fill="#979797"/>
<path opacity="0.0904018" fill-rule="evenodd" clip-rule="evenodd" d="M160.869 401.794L161.704 402.441L160.869 403.088L160.222 403.923L159.575 403.088L158.74 402.441L159.575 401.794L160.222 400.959L160.869 401.794Z" fill="#979797"/>
<path opacity="0.143438" fill-rule="evenodd" clip-rule="evenodd" d="M305.849 517.947L306.37 518.352L305.849 518.756L305.444 519.278L305.04 518.756L304.518 518.352L305.04 517.947L305.444 517.426L305.849 517.947Z" fill="#979797"/>
<path fill-rule="evenodd" clip-rule="evenodd" d="M1.01336 461.994L1.84807 462.642L1.01336 463.289L0.366211 464.123L-0.280937 463.289L-1.11565 462.642L-0.280937 461.994L0.366211 461.16L1.01336 461.994Z" fill="#979797"/>
<path opacity="0.0608491" fill-rule="evenodd" clip-rule="evenodd" d="M44.5427 468.292L45.3774 468.939L44.5427 469.587L43.8955 470.421L43.2484 469.587L42.4136 468.939L43.2484 468.292L43.8955 467.458L44.5427 468.292Z" fill="#979797"/>
<path opacity="0.143438" fill-rule="evenodd" clip-rule="evenodd" d="M62.0822 492.2L62.6039 492.605L62.0822 493.009L61.6777 493.531L61.2733 493.009L60.7516 492.605L61.2733 492.2L61.6777 491.679L62.0822 492.2Z" fill="#979797"/>
<path fill-rule="evenodd" clip-rule="evenodd" d="M26.0202 281.393L26.8549 282.04L26.0202 282.687L25.373 283.522L24.7259 282.687L23.8912 282.04L24.7259 281.393L25.373 280.558L26.0202 281.393Z" fill="#979797"/>
<path opacity="0.0608491" fill-rule="evenodd" clip-rule="evenodd" d="M69.5495 287.691L70.3842 288.338L69.5495 288.985L68.9023 289.82L68.2552 288.985L67.4205 288.338L68.2552 287.691L68.9023 286.856L69.5495 287.691Z" fill="#979797"/>
<path opacity="0.143438" fill-rule="evenodd" clip-rule="evenodd" d="M87.089 311.598L87.6107 312.003L87.089 312.407L86.6846 312.929L86.2801 312.407L85.7584 312.003L86.2801 311.598L86.6846 311.077L87.089 311.598Z" fill="#979797"/>
<path opacity="0.167015" fill-rule="evenodd" clip-rule="evenodd" d="M4.67512 59.9479L3.84041 59.3007L4.67512 58.6536L5.32227 57.8189L5.96941 58.6536L6.80413 59.3007L5.96941 59.9479L5.32227 60.7826L4.67512 59.9479Z" fill="#979797"/>
<path fill-rule="evenodd" clip-rule="evenodd" d="M60.0599 96.069L59.2252 95.4218L60.0599 94.7747L60.707 93.94L61.3542 94.7747L62.1889 95.4218L61.3542 96.069L60.707 96.9037L60.0599 96.069Z" fill="#979797"/>
<path fill-rule="evenodd" clip-rule="evenodd" d="M333.123 101.726L332.601 101.322L333.123 100.918L333.527 100.396L333.932 100.918L334.454 101.322L333.932 101.726L333.527 102.248L333.123 101.726Z" fill="#F700FE"/>
<path fill-rule="evenodd" clip-rule="evenodd" d="M340.93 237.017L340.408 236.613L340.93 236.209L341.334 235.687L341.738 236.209L342.26 236.613L341.738 237.017L341.334 237.539L340.93 237.017Z" fill="#979797"/>
<path fill-rule="evenodd" clip-rule="evenodd" d="M3.25081 116.247L2.72911 115.843L3.25081 115.438L3.65527 114.916L4.05974 115.438L4.58144 115.843L4.05974 116.247L3.65527 116.769L3.25081 116.247Z" fill="#979797"/>
<path fill-rule="evenodd" clip-rule="evenodd" d="M70.6756 246.094L70.1539 245.689L70.6756 245.285L71.0801 244.763L71.4845 245.285L72.0062 245.689L71.4845 246.094L71.0801 246.615L70.6756 246.094Z" fill="#979797"/>
<path fill-rule="evenodd" clip-rule="evenodd" d="M258.316 124.953L257.795 124.548L258.316 124.144L258.721 123.622L259.125 124.144L259.647 124.548L259.125 124.953L258.721 125.474L258.316 124.953Z" fill="#FFEC6A"/>
<path fill-rule="evenodd" clip-rule="evenodd" d="M269.615 275.546L269.093 275.141L269.615 274.737L270.02 274.215L270.424 274.737L270.946 275.141L270.424 275.546L270.02 276.067L269.615 275.546Z" fill="#979797"/>
<path fill-rule="evenodd" clip-rule="evenodd" d="M264.587 52.8246L264.065 52.4201L264.587 52.0157L264.991 51.494L265.396 52.0157L265.917 52.4201L265.396 52.8246L264.991 53.3463L264.587 52.8246Z" fill="#979797"/>
<path fill-rule="evenodd" clip-rule="evenodd" d="M305.736 227.2L305.214 226.796L305.736 226.391L306.141 225.869L306.545 226.391L307.067 226.796L306.545 227.2L306.141 227.722L305.736 227.2Z" fill="#979797"/>
<path opacity="0.143438" fill-rule="evenodd" clip-rule="evenodd" d="M293.511 244.057L292.989 243.652L293.511 243.248L293.915 242.726L294.32 243.248L294.841 243.652L294.32 244.057L293.915 244.578L293.511 244.057Z" fill="#979797"/>
<path opacity="0.143438" fill-rule="evenodd" clip-rule="evenodd" d="M324.63 169.964L324.108 169.56L324.63 169.155L325.034 168.634L325.439 169.155L325.96 169.56L325.439 169.964L325.034 170.486L324.63 169.964Z" fill="#979797"/>
<path opacity="0.143438" fill-rule="evenodd" clip-rule="evenodd" d="M335.929 320.557L335.407 320.153L335.929 319.748L336.333 319.226L336.737 319.748L337.259 320.153L336.737 320.557L336.333 321.079L335.929 320.557Z" fill="#979797"/>
<path d="M27.2483 101.712C29.5672 91.6048 42.3238 69.9754 74.7994 64.3161" stroke="url(#paint3_linear_165_4706)" stroke-opacity="0.2" stroke-width="6" stroke-linecap="round"/>
<path d="M27.2483 101.712C29.5672 91.6048 42.3238 69.9754 74.7994 64.3161" stroke="url(#paint4_linear_165_4706)" stroke-width="6" stroke-linecap="round"/>
<path fill-rule="evenodd" clip-rule="evenodd" d="M254.572 2653.38L253.737 2652.74L254.572 2652.09L255.219 2651.25L255.866 2652.09L256.701 2652.74L255.866 2653.38L255.219 2654.22L254.572 2653.38Z" fill="#0058FF"/>
<path fill-rule="evenodd" clip-rule="evenodd" d="M312.955 2726.94L312.207 2726.36L312.955 2725.78L313.534 2725.03L314.114 2725.78L314.861 2726.36L314.114 2726.94L313.534 2727.68L312.955 2726.94Z" fill="#0058FF"/>
<circle cx="83.1183" cy="223.562" r="8.52069" fill="#1C1A2E"/>
<mask id="mask4_165_4706" style="mask-type:luminance" maskUnits="userSpaceOnUse" x="74" y="215" width="18" height="18">
<circle cx="83.1183" cy="223.562" r="8.52069" fill="white"/>
</mask>
<g mask="url(#mask4_165_4706)">
<circle opacity="0.480911" cx="90.8981" cy="222.265" r="10.0026" fill="#2B2941"/>
</g>
<circle cx="42.2358" cy="121.499" r="1.03756" fill="#161424" stroke="black" stroke-width="2"/>
<circle cx="42.1431" cy="121.5" r="1.59325" fill="#161424" stroke="black" stroke-width="2"/>
<circle cx="42.1433" cy="121.499" r="1.29663" fill="#403D5E"/>
<path fill-rule="evenodd" clip-rule="evenodd" d="M116.185 175.163L115.35 174.516L116.185 173.869L116.832 173.034L117.479 173.869L118.314 174.516L117.479 175.163L116.832 175.998L116.185 175.163Z" fill="#979797"/>
<path fill-rule="evenodd" clip-rule="evenodd" d="M294.595 89.3158L294.073 88.9114L294.595 88.5069L294.999 87.9852L295.403 88.5069L295.925 88.9114L295.403 89.3158L294.999 89.8375L294.595 89.3158Z" fill="#0058FF"/>
<path opacity="0.143438" fill-rule="evenodd" clip-rule="evenodd" d="M282.211 111.431L281.689 111.026L282.211 110.622L282.615 110.1L283.02 110.622L283.541 111.026L283.02 111.431L282.615 111.952L282.211 111.431Z" fill="#979797"/>
<path fill-rule="evenodd" clip-rule="evenodd" d="M216.686 189.328L215.851 188.681L216.686 188.033L217.333 187.199L217.98 188.033L218.815 188.681L217.98 189.328L217.333 190.162L216.686 189.328Z" fill="#0058FF"/>
<path opacity="0.143438" fill-rule="evenodd" clip-rule="evenodd" d="M209.971 188.487L209.449 188.083L209.971 187.678L210.375 187.157L210.779 187.678L211.301 188.083L210.779 188.487L210.375 189.009L209.971 188.487Z" fill="#979797"/>
<path fill-rule="evenodd" clip-rule="evenodd" d="M266.266 367.711L267.101 368.358L266.266 369.006L265.619 369.84L264.972 369.006L264.137 368.358L264.972 367.711L265.619 366.877L266.266 367.711Z" fill="#FFEC6A"/>
<path opacity="0.0608491" fill-rule="evenodd" clip-rule="evenodd" d="M309.797 374.009L310.631 374.656L309.797 375.303L309.149 376.138L308.502 375.303L307.668 374.656L308.502 374.009L309.149 373.174L309.797 374.009Z" fill="#979797"/>
<path opacity="0.0904018" fill-rule="evenodd" clip-rule="evenodd" d="M203.472 371.972L204.307 372.619L203.472 373.266L202.825 374.101L202.178 373.266L201.343 372.619L202.178 371.972L202.825 371.137L203.472 371.972Z" fill="#979797"/>
<path opacity="0.143438" fill-rule="evenodd" clip-rule="evenodd" d="M327.336 397.917L327.858 398.321L327.336 398.726L326.932 399.247L326.527 398.726L326.005 398.321L326.527 397.917L326.932 397.395L327.336 397.917Z" fill="#979797"/>
<circle cx="125.381" cy="2639.06" r="10.6265" fill="#1C1A2E"/>
<mask id="mask5_165_4706" style="mask-type:luminance" maskUnits="userSpaceOnUse" x="114" y="2628" width="23" height="22">
<circle cx="125.381" cy="2639.06" r="10.6265" fill="white"/>
</mask>
<g mask="url(#mask5_165_4706)">
<circle cx="133.883" cy="2635.71" r="12.4163" fill="#2C2855"/>
<circle opacity="0.540783" cx="122.137" cy="2628.88" r="2.01345" fill="#161424"/>
<circle opacity="0.540783" cx="129.744" cy="2648.35" r="2.01345" fill="#161424"/>
<circle opacity="0.540783" cx="123.591" cy="2636.6" r="2.57274" fill="#161424"/>
<circle opacity="0.540783" cx="121.131" cy="2645.33" r="2.57274" fill="#161424"/>
<circle opacity="0.540783" cx="131.87" cy="2636.38" r="2.57274" fill="#161424"/>
<circle opacity="0.540783" cx="126.276" cy="2642.87" r="0.783009" fill="#161424"/>
<circle opacity="0.540783" cx="130.974" cy="2641.75" r="0.783009" fill="#161424"/>
<circle opacity="0.540783" cx="128.961" cy="2632.57" r="0.783009" fill="#161424"/>
<circle opacity="0.540783" cx="117.104" cy="2636.82" r="0.783009" fill="#161424"/>
<circle opacity="0.540783" cx="133.212" cy="2644.21" r="0.783009" fill="#161424"/>
<circle opacity="0.540783" cx="120.236" cy="2639.73" r="1.23044" fill="#161424"/>
<circle opacity="0.540783" cx="133.659" cy="2632.13" r="1.23044" fill="#161424"/>
<circle opacity="0.540783" cx="127.395" cy="2639.29" r="1.23044" fill="#161424"/>
<circle opacity="0.540783" cx="124.711" cy="2649.58" r="1.23044" fill="#161424"/>
<circle opacity="0.540783" cx="115.538" cy="2641.52" r="1.23044" fill="#161424"/>
</g>
<circle cx="215.753" cy="2739.07" r="8.38177" fill="#1C1A2E"/>
<mask id="mask6_165_4706" style="mask-type:luminance" maskUnits="userSpaceOnUse" x="207" y="2730" width="18" height="18">
<circle cx="215.753" cy="2739.07" r="8.38177" fill="white"/>
</mask>
<g mask="url(#mask6_165_4706)">
<circle opacity="0.480911" cx="221" cy="2738.45" r="9.94909" fill="#2B2941"/>
<circle opacity="0.480911" cx="209.007" cy="2729.05" r="8.94909" stroke="black" stroke-width="2"/>
<circle opacity="0.480911" cx="209.142" cy="2730.41" r="10.5846" stroke="black" stroke-width="2"/>
<circle opacity="0.480911" cx="210.846" cy="2732.39" r="10.5164" stroke="black" stroke-width="2"/>
<circle opacity="0.480911" cx="212.073" cy="2734.7" r="10.5164" stroke="black" stroke-width="2"/>
<circle opacity="0.480911" cx="213.3" cy="2735.93" r="10.5164" stroke="black" stroke-width="2"/>
<circle opacity="0.480911" cx="208.666" cy="2728.57" r="7.10919" stroke="black" stroke-width="2"/>
<circle opacity="0.480911" cx="207.439" cy="2726.66" r="7.10919" stroke="black" stroke-width="2"/>
</g>
<path fill-rule="evenodd" clip-rule="evenodd" d="M185.919 2741.54L185.085 2740.89L185.919 2740.24L186.566 2739.41L187.214 2740.24L188.048 2740.89L187.214 2741.54L186.566 2742.37L185.919 2741.54Z" fill="#2FFD61"/>
<path fill-rule="evenodd" clip-rule="evenodd" d="M210.304 2692.6L209.469 2691.96L210.304 2691.31L210.951 2690.47L211.598 2691.31L212.433 2691.96L211.598 2692.6L210.951 2693.44L210.304 2692.6Z" fill="#F700FE"/>
<defs>
<linearGradient id="paint0_linear_165_4706" x1="183.067" y1="429" x2="183.067" y2="1.7833e-05" gradientUnits="userSpaceOnUse">
<stop stop-color="#0058FF"/>
<stop offset="0.234375" stop-color="#F700FE"/>
<stop offset="1" stop-color="#F700FE" stop-opacity="0"/>
</linearGradient>
<linearGradient id="paint1_linear_165_4706" x1="164.83" y1="2863.57" x2="164.83" y2="2585.39" gradientUnits="userSpaceOnUse">
<stop stop-color="#0058FF"/>
<stop offset="0.234375" stop-color="#F700FE"/>
<stop offset="1" stop-color="#F700FE" stop-opacity="0"/>
</linearGradient>
<linearGradient id="paint2_linear_165_4706" x1="126" y1="1119.5" x2="534.123" y2="1119.5" gradientUnits="userSpaceOnUse">
<stop stop-color="#0058FF"/>
<stop offset="0.234375" stop-color="#F700FE"/>
<stop offset="1" stop-color="#F700FE" stop-opacity="0"/>
</linearGradient>
<linearGradient id="paint3_linear_165_4706" x1="25.6807" y1="102.132" x2="51.9733" y2="52.6701" gradientUnits="userSpaceOnUse">
<stop stop-color="#2FFD61"/>
<stop offset="1" stop-color="#2FFD61" stop-opacity="0"/>
</linearGradient>
<linearGradient id="paint4_linear_165_4706" x1="27.2483" y1="101.712" x2="38.9547" y2="83.1588" gradientUnits="userSpaceOnUse">
<stop stop-color="#2FFD61"/>
<stop offset="1" stop-color="#2FFD61" stop-opacity="0"/>
</linearGradient>
</defs>
</svg>
