<svg width="375" height="429" viewBox="0 0 375 429" fill="none" xmlns="http://www.w3.org/2000/svg">
<path opacity="0.1" fill-rule="evenodd" clip-rule="evenodd" d="M337.813 72.1272L272.977 27.1999C267.739 22.858 262.168 19.0082 256.338 15.6706L254.903 14.6764L254.897 14.8591C219.817 -4.57582 175.712 -5.66032 138.452 15.8496L25.099 81.2942C-31.4153 113.923 -50.7786 186.187 -18.1501 242.702L5.03079 282.852L12.3633 329.258C22.0894 390.814 77.5791 433.435 138.24 428.631L138.188 428.718L267.617 416.835L267.475 416.738C315.986 411.297 358.235 375.875 369.622 325.163L397.241 202.164C409.091 149.394 383.613 96.6484 337.813 72.1272ZM146.507 333.68C130.833 332.415 114.141 331.068 109.42 322.593C108.717 321.33 107.898 319.885 106.984 318.271C100.044 306.018 87.6093 284.062 78.5124 258.856C73.7513 245.664 61.2647 197.193 65.0614 188.557C72.7216 171.134 157.613 99.286 167.012 92.3177C176.412 85.3495 185.973 85.8357 216.925 109.657C241.686 128.715 291.306 159.407 313.021 172.371C316.911 175.613 322.356 186.6 313.021 204.62C301.354 227.145 274.229 297.898 271.656 315.91C269.083 333.922 249.356 343.213 228.628 339.926C217.352 338.137 210.452 337.775 197.759 337.108C187.119 336.549 172.407 335.776 147.632 333.77C147.258 333.74 146.883 333.71 146.507 333.68Z" fill="url(#paint0_linear_165_4707)"/>
<defs>
<linearGradient id="paint0_linear_165_4707" x1="183.067" y1="429" x2="183.067" y2="1.7833e-05" gradientUnits="userSpaceOnUse">
<stop stop-color="#0058FF"/>
<stop offset="0.234375" stop-color="#F700FE"/>
<stop offset="1" stop-color="#F700FE" stop-opacity="0"/>
</linearGradient>
</defs>
</svg>
