<svg width="553" height="595" viewBox="0 0 553 595" fill="none" xmlns="http://www.w3.org/2000/svg">
<path fill-rule="evenodd" clip-rule="evenodd" d="M545.141 114.211C549.473 107.137 549.66 98.2786 545.631 91.028L532.185 66.831L335.919 28.5827C326.94 26.8329 317.778 30.5702 312.585 38.1009L17.5589 465.926L14.8218 491.368C13.5287 503.388 20.6912 514.714 32.1054 518.697L227.893 587.028C241.222 591.68 255.99 586.409 263.363 574.37L545.141 114.211Z" fill="#1C1A2E" stroke="black" stroke-width="2"/>
<path fill-rule="evenodd" clip-rule="evenodd" d="M536.217 91.2784C544.187 78.1887 537.368 61.1124 522.574 57.1137L331.135 5.37009C321.495 2.76446 311.275 6.67717 305.84 15.0544L18.1287 458.481C8.92078 472.672 15.5031 491.739 31.5051 497.227L224.783 563.514C236.33 567.474 249.077 562.868 255.425 552.441L536.217 91.2784Z" fill="url(#paint0_linear_165_4040)" stroke="black" stroke-width="2"/>
<path fill-rule="evenodd" clip-rule="evenodd" d="M477.281 46.5873L470.877 57.4443C468.341 61.7453 463.225 63.7981 458.419 62.4437L367.982 36.9587C363.966 35.8268 362.302 31.0423 364.751 27.6632L372.433 17.0601" fill="#2E2B46"/>
<path d="M477.281 46.5873L470.877 57.4443C468.341 61.7453 463.225 63.7981 458.419 62.4437L367.982 36.9587C363.966 35.8268 362.302 31.0423 364.751 27.6632L372.433 17.0601" stroke="black" stroke-width="2" stroke-linecap="round"/>
<path fill-rule="evenodd" clip-rule="evenodd" d="M135.668 542.053C135.496 540.42 134.398 539.032 132.847 538.489L114.008 531.891C110.9 530.803 107.718 533.321 108.062 536.596C108.247 538.361 109.456 539.85 111.144 540.396L130.137 546.539C133.06 547.484 135.989 545.109 135.668 542.053Z" fill="#373451" stroke="black" stroke-width="2"/>
<path fill-rule="evenodd" clip-rule="evenodd" d="M283.839 436.97C286.193 433.121 284.344 428.083 280.06 426.67L250.847 417.034C245.296 415.203 239.206 417.303 235.961 422.165L220.03 446.041C217.108 450.42 219.14 456.38 224.129 458.062L252.351 467.576C258.544 469.664 265.358 467.19 268.767 461.614L283.839 436.97Z" fill="#0058FF" fill-opacity="0.2"/>
<path fill-rule="evenodd" clip-rule="evenodd" d="M244.096 490.825C246.499 486.963 244.64 481.872 240.314 480.468L210.853 470.909C205.353 469.124 199.335 471.187 196.086 475.97L180.18 499.394C177.197 503.785 179.241 509.811 184.28 511.482L212.74 520.92C218.88 522.956 225.615 520.521 229.033 515.029L244.096 490.825Z" fill="#161424"/>
<path fill-rule="evenodd" clip-rule="evenodd" d="M216.636 412.213C218.99 408.364 217.141 403.326 212.857 401.913L183.644 392.278C178.093 390.447 172.003 392.546 168.758 397.408L152.827 421.284C149.905 425.663 151.937 431.623 156.926 433.305L185.148 442.819C191.341 444.907 198.155 442.433 201.564 436.857L216.636 412.213Z" fill="#0058FF"/>
<path fill-rule="evenodd" clip-rule="evenodd" d="M153.12 390.417C155.474 386.568 153.625 381.531 149.341 380.117L120.128 370.482C114.577 368.651 108.486 370.75 105.242 375.612L89.3112 399.488C86.389 403.867 88.4211 409.827 93.4101 411.509L121.632 421.024C127.825 423.111 134.639 420.637 138.048 415.061L153.12 390.417Z" fill="#2FFD61"/>
<path fill-rule="evenodd" clip-rule="evenodd" d="M179.409 467.464C181.812 463.603 179.953 458.511 175.627 457.108L146.166 447.548C140.666 445.763 134.648 447.826 131.399 452.61L115.493 476.033C112.51 480.425 114.554 486.45 119.593 488.121L148.053 497.56C154.193 499.596 160.928 497.161 164.346 491.669L179.409 467.464Z" fill="#0058FF" fill-opacity="0.2"/>
<path fill-rule="evenodd" clip-rule="evenodd" d="M116.513 447.698C118.916 443.836 117.056 438.745 112.73 437.341L83.2698 427.782C77.7695 425.997 71.7515 428.06 68.5029 432.844L52.5962 456.267C49.6139 460.658 51.6575 466.684 56.6961 468.355L85.1563 477.793C91.296 479.829 98.0314 477.394 101.449 471.902L116.513 447.698Z" fill="#F700FE"/>
<path fill-rule="evenodd" clip-rule="evenodd" d="M472.768 131.604C474.922 128.223 473.218 123.721 469.365 122.613L326.913 81.6757C321.386 80.0871 315.471 82.3196 312.372 87.1644L173.87 303.668C171.096 308.003 173.078 313.791 177.927 315.516L313.008 363.585C318.717 365.617 325.074 363.434 328.33 358.322L472.768 131.604Z" fill="#161424"/>
<path fill-rule="evenodd" clip-rule="evenodd" d="M426.285 78.0585C428.44 74.6773 426.735 70.1753 422.882 69.068L280.431 28.1302C274.903 26.5417 268.989 28.7742 265.889 33.619L127.387 250.122C124.614 254.457 126.596 260.245 131.444 261.97L266.525 310.039C272.235 312.071 278.591 309.888 281.848 304.777L426.285 78.0585Z" fill="#211F34"/>
<path d="M257.528 172.157L259.936 182.449L300.278 160.548" stroke="#161424" stroke-width="2" stroke-linecap="round" stroke-linejoin="round"/>
<path d="M302.931 192.461C294.221 202.007 283.414 207.934 273.017 209.831C262.621 211.729 252.695 209.596 245.597 203.119C238.498 196.642 235.466 186.953 236.406 176.427C237.345 165.9 242.259 154.597 250.969 145.05C259.679 135.504 270.486 129.577 280.883 127.679C291.279 125.782 301.205 127.915 308.304 134.392C315.402 140.869 318.434 150.558 317.495 161.084C316.555 171.611 311.641 182.914 302.931 192.461Z" stroke="#161424" stroke-width="2"/>
<path d="M251.241 153.79L253.649 164.082L293.991 142.182" stroke="#2FFD61" stroke-width="2" stroke-linecap="round" stroke-linejoin="round"/>
<path d="M296.644 174.094C287.934 183.64 277.127 189.567 266.73 191.465C256.334 193.362 246.408 191.229 239.309 184.752C232.211 178.276 229.179 168.586 230.118 158.06C231.058 147.533 235.972 136.23 244.682 126.684C253.392 117.137 264.199 111.21 274.596 109.313C284.992 107.415 294.918 109.548 302.016 116.025C309.115 122.502 312.147 132.191 311.207 142.717C310.268 153.245 305.354 164.548 296.644 174.094Z" stroke="#2FFD61" stroke-width="2"/>
<defs>
<linearGradient id="paint0_linear_165_4040" x1="79.7022" y1="-35.1064" x2="517.045" y2="749.658" gradientUnits="userSpaceOnUse">
<stop stop-color="#0058FF"/>
<stop offset="1" stop-color="#F700FE"/>
</linearGradient>
</defs>
</svg>
