<svg width="867" height="1537" viewBox="0 0 867 1537" fill="none" xmlns="http://www.w3.org/2000/svg">
<path opacity="0.1" fill-rule="evenodd" clip-rule="evenodd" d="M569.692 155.725L315.388 48.1322C294.335 36.9989 272.492 27.7898 250.128 20.5215L244.498 18.1411L244.608 18.7715C110.501 -22.7432 -41.4138 5.07879 -153.713 105.431L-495.35 410.75C-665.68 562.972 -680.36 824.452 -528.138 994.782L-419.992 1115.79L-361.682 1269.57C-284.336 1473.56 -63.7089 1579.93 140.728 1520.09L140.611 1520.42L575.636 1387.15L575.082 1386.92C737.427 1333.59 856.874 1181.99 859.634 1000.07L866.325 558.835C869.197 369.532 744.172 207.004 569.692 155.725ZM101.159 1188.8C46.5434 1195.68 -11.6195 1203 -33.8582 1177.33C-37.1706 1173.51 -41.0095 1169.14 -45.2953 1164.26C-77.8394 1127.23 -136.151 1060.89 -185.348 981.018C-211.096 939.216 -288.545 782.048 -281.709 749.74C-267.919 684.557 -28.3898 377.647 -1.16429 347.048C26.0612 316.448 59.1725 311.277 182.272 370.776C280.751 418.375 472.736 488.07 556.419 516.967C572.064 525.292 598.579 559.049 579.478 627.475C555.603 713.007 513.246 974.855 517.308 1038.42C521.371 1101.98 460.414 1147.93 387.033 1151.48C347.115 1153.42 323.212 1157.11 279.24 1163.9C242.377 1169.6 191.41 1177.47 105.08 1188.31C103.775 1188.47 102.468 1188.64 101.159 1188.8Z" fill="url(#paint0_linear_165_3908)"/>
<defs>
<linearGradient id="paint0_linear_165_3908" x1="294.604" y1="1489.3" x2="-12.1607" y2="19.2159" gradientUnits="userSpaceOnUse">
<stop stop-color="#0058FF"/>
<stop offset="0.234375" stop-color="#F700FE"/>
<stop offset="1" stop-color="#F700FE" stop-opacity="0"/>
</linearGradient>
</defs>
</svg>
