<svg width="1036" height="651" viewBox="0 0 1036 651" fill="none" xmlns="http://www.w3.org/2000/svg">
<path opacity="0.1" fill-rule="evenodd" clip-rule="evenodd" d="M-265.838 398.26L-38.874 555.531C-20.5386 570.73 -1.0379 584.207 19.37 595.89L24.3955 599.371L24.4163 598.731C147.215 666.765 301.61 670.561 432.04 595.264L828.842 366.17C1026.68 251.951 1094.46 -1.01623 980.239 -198.849L899.093 -339.4L873.425 -501.849C839.378 -717.33 645.131 -866.526 432.782 -849.711L432.965 -850.014L-20.1102 -808.416L-19.6154 -808.079C-189.431 -789.033 -337.327 -665.033 -377.189 -487.512L-473.872 -56.944C-515.353 127.781 -426.164 312.421 -265.838 398.26ZM403.844 -517.325C458.713 -512.899 517.145 -508.185 533.671 -478.515C536.132 -474.095 538.998 -469.035 542.198 -463.387C566.492 -420.492 610.021 -343.635 641.866 -255.398C658.532 -209.218 702.242 -39.5432 688.952 -9.31276C662.137 51.6791 364.966 303.188 332.064 327.581C299.162 351.974 265.692 350.272 157.342 266.883C70.6626 200.171 -103.037 92.7286 -179.053 47.3464C-192.667 36.0009 -211.728 -2.46044 -179.053 -65.5416C-138.209 -144.393 -43.2569 -392.068 -34.2494 -455.12C-25.242 -518.173 43.8152 -550.7 116.375 -539.19C155.846 -532.929 180 -531.661 224.432 -529.327C261.681 -527.371 313.181 -524.666 399.905 -517.644C401.216 -517.537 402.529 -517.432 403.844 -517.325Z" fill="url(#paint0_linear_165_3898)"/>
<defs>
<linearGradient id="paint0_linear_165_3898" x1="275.862" y1="-851.002" x2="275.862" y2="650.747" gradientUnits="userSpaceOnUse">
<stop stop-color="#0058FF"/>
<stop offset="0.234375" stop-color="#F700FE"/>
<stop offset="1" stop-color="#F700FE" stop-opacity="0"/>
</linearGradient>
</defs>
</svg>
