<svg width="852" height="1824" viewBox="0 0 852 1824" fill="none" xmlns="http://www.w3.org/2000/svg">
<path d="M1426.56 1668.07C1426.56 1668.07 1453.26 1634.18 1498.69 1648.05C1544.12 1661.92 1543.5 1708.98 1574.38 1748.55C1637.12 1828.96 1781.23 1885.87 1874.68 1677.22C1927.67 1558.91 2088.52 1378.62 2087.59 1245.7C2086.37 1070.82 2010.16 833.403 1827.66 823.958C1444.71 842.782 1657.44 1496.96 1471.74 1570.88C1310.9 1634.91 1246.42 1413.41 1068.08 1473.81C977.857 1504.36 867.795 1534.38 763.642 1419.95C659.489 1305.51 809.546 1088.08 683.327 1015.81C557.108 943.549 568.936 1119.21 433.311 1114.32C297.687 1109.44 239.879 887.632 80.5993 994.092C15.1885 1037.81 15.841 1066.58 35.2133 1099.24C54.5856 1131.9 129.675 1159.8 162.129 1094.93C217.197 984.853 -83.6388 751.615 26.8986 558.55C170.725 307.343 778.321 218.716 966.65 231.708C1018.04 235.253 1068.61 261.861 1064.12 292.011C1055.94 347.003 1003.9 341.996 964.485 321.244C904.136 289.475 876.79 185.3 874.309 114.569C870.207 -2.36146 1002.65 2.44881 1002.65 2.44881" stroke="#7B2CFE" stroke-width="4" stroke-linecap="round"/>
<path d="M1426.56 1668.07C1426.56 1668.07 1453.26 1634.18 1498.69 1648.05C1544.12 1661.92 1543.5 1708.98 1574.38 1748.55C1637.12 1828.96 1781.23 1885.87 1874.68 1677.22C1927.67 1558.91 2088.52 1378.62 2087.59 1245.7C2086.37 1070.82 2010.16 833.403 1827.66 823.958C1444.71 842.782 1657.44 1496.96 1471.74 1570.88C1310.9 1634.91 1246.42 1413.41 1068.08 1473.81C977.857 1504.36 867.795 1534.38 763.642 1419.95C659.489 1305.51 809.546 1088.08 683.327 1015.81C557.108 943.549 568.936 1119.21 433.311 1114.32C297.687 1109.44 239.879 887.632 80.5993 994.092C15.1885 1037.81 15.841 1066.58 35.2133 1099.24C54.5856 1131.9 129.675 1159.8 162.129 1094.93C217.197 984.853 -83.6388 751.615 26.8986 558.55C170.725 307.343 778.321 218.716 966.65 231.708C1018.04 235.253 1068.61 261.861 1064.12 292.011C1055.94 347.003 1003.9 341.996 964.485 321.244C904.136 289.475 876.79 185.3 874.309 114.569C870.207 -2.36146 1002.65 2.44881 1002.65 2.44881" stroke="black" stroke-opacity="0.6" stroke-width="4" stroke-linecap="round"/>
</svg>
