<svg width="1521" height="1488" viewBox="0 0 1521 1488" fill="none" xmlns="http://www.w3.org/2000/svg">
<path opacity="0.1" fill-rule="evenodd" clip-rule="evenodd" d="M1302.04 253.126L1075.08 95.8544C1056.74 80.6552 1037.24 67.1785 1016.83 55.4952L1011.81 52.0148L1011.79 52.6545C888.987 -15.3791 734.591 -19.1756 604.161 56.1216L207.36 285.216C9.5264 399.435 -58.2564 652.402 55.9625 850.235L137.109 990.785L162.777 1153.23C196.824 1368.72 391.07 1517.91 603.42 1501.1L603.237 1501.4L1056.31 1459.8L1055.82 1459.47C1225.63 1440.42 1373.53 1316.42 1413.39 1138.9L1510.07 708.33C1551.55 523.604 1462.37 338.964 1302.04 253.126ZM632.358 1168.71C577.489 1164.28 519.057 1159.57 502.531 1129.9C500.069 1125.48 497.203 1120.42 494.004 1114.77C469.71 1071.88 426.18 995.02 394.336 906.784C377.67 860.604 333.959 690.929 347.25 660.698C374.065 599.707 671.236 348.197 704.138 323.805C737.04 299.412 770.509 301.113 878.859 384.503C965.539 451.215 1139.24 558.657 1215.25 604.039C1228.87 615.385 1247.93 653.846 1215.25 716.927C1174.41 795.779 1079.46 1043.45 1070.45 1106.51C1061.44 1169.56 992.386 1202.09 919.826 1190.58C880.356 1184.31 856.202 1183.05 811.77 1180.71C774.521 1178.76 723.02 1176.05 636.296 1169.03C634.986 1168.92 633.673 1168.82 632.358 1168.71Z" fill="url(#paint0_linear_167_1533)"/>
<defs>
<linearGradient id="paint0_linear_167_1533" x1="760.34" y1="1502.39" x2="760.34" y2="0.638994" gradientUnits="userSpaceOnUse">
<stop stop-color="#0058FF"/>
<stop offset="0.234375" stop-color="#F700FE"/>
<stop offset="1" stop-color="#F700FE" stop-opacity="0"/>
</linearGradient>
</defs>
</svg>
