<svg width="854" height="710" viewBox="0 0 854 710" fill="none" xmlns="http://www.w3.org/2000/svg">
<g clip-path="url(#clip0_167_3125)">
<path d="M579.215 382.514C581.257 388.822 577.796 395.59 571.488 397.628L245.783 502.864C234.937 506.368 223.276 500.581 219.508 489.824L131.661 239.076C128.598 230.335 133.575 220.828 142.502 218.363L479.844 125.22C488.1 122.94 496.687 127.566 499.325 135.715L579.215 382.514Z" fill="#1C1A2E" stroke="black" stroke-width="2"/>
<path fill-rule="evenodd" clip-rule="evenodd" d="M763.469 434.663C766.395 433.634 766.027 429.384 762.967 428.874L588.216 399.755C580.518 398.472 572.625 399.047 565.194 401.43L242.75 504.872C238.158 506.345 238.107 512.823 242.675 514.369L376.58 559.682C386.956 563.194 398.21 563.127 408.544 559.492L763.469 434.663Z" fill="#373451" stroke="black" stroke-width="2"/>
<path fill-rule="evenodd" clip-rule="evenodd" d="M642.744 466.383C644.696 465.701 644.456 462.868 642.418 462.523L604.929 456.176C600.167 455.37 595.28 455.766 590.71 457.328L468.079 499.238C466.164 499.893 466.321 502.652 468.299 503.085L504.4 510.976C508.738 511.925 513.254 511.651 517.446 510.186L642.744 466.383Z" fill="#1C1A2E" stroke="black" stroke-width="2"/>
<path d="M762.178 434.623V434.623C764.034 441.547 760.271 448.737 753.525 451.16L412.935 573.48C403.001 577.048 392.142 577.09 382.179 573.601L250.013 527.304C247.517 526.43 245.614 524.379 244.93 521.824L242.798 513.868" stroke="black" stroke-width="2" stroke-linecap="round"/>
<path fill-rule="evenodd" clip-rule="evenodd" d="M660.048 425.472C662.026 424.812 661.801 421.946 659.745 421.602L575.666 407.545L279.032 503.649C277.168 504.253 277.195 506.901 279.071 507.467L347.079 527.977C349.057 528.573 351.172 528.543 353.132 527.889L660.048 425.472Z" stroke="black" stroke-width="2"/>
<path d="M609.269 425.191L350.22 509.831" stroke="black" stroke-width="2" stroke-linecap="round"/>
<path d="M573.969 421.324L314.92 505.965" stroke="black" stroke-width="2" stroke-linecap="round"/>
<path d="M575.651 441.813L530.867 430.97" stroke="black" stroke-width="2" stroke-linecap="round"/>
<path d="M535.754 456.31L490.97 445.467" stroke="black" stroke-width="2" stroke-linecap="round"/>
<path d="M497.633 470.332L452.849 459.489" stroke="black" stroke-width="2" stroke-linecap="round"/>
<path d="M451.455 482.705L406.671 471.862" stroke="black" stroke-width="2" stroke-linecap="round"/>
<path d="M412.382 493.175L367.598 482.332" stroke="black" stroke-width="2" stroke-linecap="round"/>
<path d="M353.724 160.416L356.634 169.85C357.128 171.451 356.214 173.146 354.605 173.614L287.874 193.033C286.36 193.473 284.764 192.667 284.22 191.188L280.345 180.648" stroke="black" stroke-width="2"/>
<path opacity="0.143438" fill-rule="evenodd" clip-rule="evenodd" d="M695.095 557.382L692.911 560.198L690.728 557.382L687.911 555.198L690.728 553.015L692.911 550.198L695.095 553.015L697.911 555.198L695.095 557.382Z" fill="#979797"/>
<path opacity="0.143438" fill-rule="evenodd" clip-rule="evenodd" d="M123.095 493.382L120.911 496.198L118.728 493.382L115.911 491.198L118.728 489.015L120.911 486.198L123.095 489.015L125.911 491.198L123.095 493.382Z" fill="#979797"/>
<path opacity="0.143438" fill-rule="evenodd" clip-rule="evenodd" d="M791.095 200.382L788.911 203.198L786.728 200.382L783.911 198.198L786.728 196.015L788.911 193.198L791.095 196.015L793.911 198.198L791.095 200.382Z" fill="#979797"/>
<path opacity="0.143438" fill-rule="evenodd" clip-rule="evenodd" d="M36.095 402.382L33.9114 405.198L31.7278 402.382L28.9114 400.198L31.7278 398.015L33.9114 395.198L36.095 398.015L38.9114 400.198L36.095 402.382Z" fill="#979797"/>
<circle cx="651.956" cy="161.192" r="73.7071" fill="#210080"/>
<mask id="mask0_167_3125" style="mask-type:alpha" maskUnits="userSpaceOnUse" x="578" y="87" width="148" height="148">
<circle cx="651.956" cy="161.192" r="73.7071" fill="white"/>
</mask>
<g mask="url(#mask0_167_3125)">
<circle cx="696.802" cy="150.092" r="87.4717" fill="white" fill-opacity="0.2"/>
<path d="M711.647 94.1099C711.647 94.1099 705.818 113.947 689.338 122.474C672.857 131.001 664.493 115.075 643.973 129.127C623.453 143.179 626.187 153.574 613.69 161.192C601.193 168.81 576.196 161.192 576.196 161.192L551.459 170.643" stroke="#161424" stroke-width="2"/>
<path d="M554.123 220.533C554.123 220.533 561.33 196.01 581.703 185.468C602.077 174.926 612.418 194.616 637.785 177.244C663.153 159.872 659.773 147.021 675.222 137.603C690.672 128.186 721.574 137.603 721.574 137.603L752.155 125.92" stroke="#161424" stroke-width="2"/>
<path d="M566.555 249.839C566.555 249.839 573.762 225.315 594.136 214.774C614.509 204.232 624.85 223.921 650.218 206.549C675.585 189.177 672.205 176.326 687.654 166.909C703.104 157.491 734.007 166.909 734.007 166.909L764.588 155.225" stroke="#161424" stroke-width="2"/>
<path d="M738.288 167.817C738.288 167.817 732.459 187.654 715.979 196.181C699.499 204.708 691.134 188.782 670.614 202.834C650.094 216.886 652.828 227.281 640.331 234.899C627.834 242.517 602.837 234.899 602.837 234.899L578.1 244.35" stroke="#161424" stroke-width="2"/>
<path d="M784.466 45.2678C784.466 45.2678 778.637 65.1046 762.157 73.6319C745.677 82.1593 737.312 66.2325 716.792 80.2848C703.736 89.2255 694.859 98.6466 681.792 101.723C674.32 103.483 649.974 104.354 641.76 111.732C633.546 119.111 622.656 130.439 618.86 132.376C615.063 134.314 611.332 133.155 600.255 137.307C589.178 141.458 590.192 149.68 585.595 152.093C580.997 154.507 569.808 150.092 569.808 150.092" stroke="#161424" stroke-width="2"/>
<path d="M833.309 147.392C833.309 147.392 827.479 167.229 810.999 175.756C794.519 184.284 786.154 168.357 765.634 182.409C752.578 191.35 743.702 200.771 730.634 203.848C723.162 205.607 709.585 201.077 705.039 203.848C692.542 211.466 706.307 212.34 693.355 221.988C680.404 231.636 639.034 251.804 634.437 254.218C629.839 256.631 618.65 252.216 618.65 252.216" stroke="#161424" stroke-width="2"/>
</g>
<path fill-rule="evenodd" clip-rule="evenodd" d="M170.724 640.713L166.218 637.219L170.724 633.726L174.218 629.219L177.711 633.726L182.218 637.219L177.711 640.713L174.218 645.219L170.724 640.713Z" fill="#2FFD61"/>
<path fill-rule="evenodd" clip-rule="evenodd" d="M315.694 117.713L311.188 114.219L315.694 110.726L319.188 106.219L322.682 110.726L327.188 114.219L322.682 117.713L319.188 122.219L315.694 117.713Z" fill="#F700FE"/>
<path opacity="0.0904018" fill-rule="evenodd" clip-rule="evenodd" d="M636.694 318.713L632.188 315.219L636.694 311.726L640.188 307.219L643.682 311.726L648.188 315.219L643.682 318.713L640.188 323.219L636.694 318.713Z" fill="#979797"/>
<path fill-rule="evenodd" clip-rule="evenodd" d="M182.724 53.7132L178.218 50.2195L182.724 46.7258L186.218 42.2195L189.711 46.7258L194.218 50.2195L189.711 53.7132L186.218 58.2195L182.724 53.7132Z" fill="#979797"/>
<path fill-rule="evenodd" clip-rule="evenodd" d="M621.724 636.713L617.218 633.219L621.724 629.726L625.218 625.219L628.711 629.726L633.218 633.219L628.711 636.713L625.218 641.219L621.724 636.713Z" fill="#FFEC6A"/>
<path fill-rule="evenodd" clip-rule="evenodd" d="M803.694 86.7132L799.188 83.2195L803.694 79.7258L807.188 75.2195L810.682 79.7258L815.188 83.2195L810.682 86.7132L807.188 91.2195L803.694 86.7132Z" fill="#2FFD61"/>
<path fill-rule="evenodd" clip-rule="evenodd" d="M711.694 343.713L707.188 340.219L711.694 336.726L715.188 332.219L718.682 336.726L723.188 340.219L718.682 343.713L715.188 348.219L711.694 343.713Z" fill="#F700FE"/>
<path fill-rule="evenodd" clip-rule="evenodd" d="M393.938 188.138C391.803 182.13 395.207 175.571 401.349 173.858L469.629 154.822C475.29 153.244 481.191 156.394 483.03 161.976L552.41 372.564C554.31 378.33 551.178 384.545 545.414 386.45L483.134 407.03C477.456 408.906 471.32 405.903 469.317 400.269L393.938 188.138Z" fill="#373451" stroke="black" stroke-width="2"/>
<path fill-rule="evenodd" clip-rule="evenodd" d="M161.946 261.16C159.809 255.144 163.225 248.577 169.379 246.875L267.776 219.661C273.431 218.097 279.319 221.247 281.156 226.821L350.491 437.275C352.411 443.101 349.194 449.372 343.342 451.211L251.033 480.226C245.388 482.001 239.351 478.991 237.37 473.416L161.946 261.16Z" fill="#12101E"/>
<path fill-rule="evenodd" clip-rule="evenodd" d="M185.66 273.277C183.763 267.401 187.073 261.116 192.99 259.355L254.566 241.031C260.244 239.341 266.241 242.452 268.129 248.068L281.766 288.619C283.755 294.535 280.43 300.919 274.442 302.679L212.301 320.944C206.58 322.625 200.562 319.443 198.73 313.77L185.66 273.277Z" fill="url(#paint0_linear_167_3125)"/>
<path fill-rule="evenodd" clip-rule="evenodd" d="M214.66 349.277C212.763 343.401 216.073 337.116 221.99 335.355L283.566 317.031C289.244 315.341 295.241 318.452 297.129 324.068L310.766 364.619C312.755 370.535 309.43 376.919 303.442 378.679L241.301 396.944C235.58 398.625 229.562 395.443 227.73 389.77L214.66 349.277Z" fill="url(#paint1_linear_167_3125)" fill-opacity="0.1"/>
<path fill-rule="evenodd" clip-rule="evenodd" d="M322.66 292.277C320.763 286.401 324.073 280.116 329.99 278.355L391.566 260.031C397.244 258.341 403.241 261.452 405.129 267.068L418.766 307.619C420.755 313.535 417.43 319.919 411.442 321.679L349.301 339.944C343.58 341.625 337.562 338.443 335.73 332.77L322.66 292.277Z" fill="#2FFD61" fill-opacity="0.1"/>
<path fill-rule="evenodd" clip-rule="evenodd" d="M348.66 365.277C346.763 359.401 350.073 353.116 355.99 351.355L417.566 333.031C423.244 331.341 429.241 334.452 431.129 340.068L444.766 380.619C446.755 386.535 443.43 392.919 437.442 394.679L375.301 412.944C369.58 414.625 363.562 411.443 361.73 405.77L348.66 365.277Z" fill="#2FFD61"/>
<path fill-rule="evenodd" clip-rule="evenodd" d="M296.66 220.277C294.763 214.401 298.073 208.116 303.99 206.355L365.566 188.031C371.244 186.341 377.241 189.452 379.129 195.068L392.766 235.619C394.755 241.535 391.43 247.919 385.442 249.679L323.301 267.944C317.58 269.625 311.562 266.443 309.73 260.77L296.66 220.277Z" fill="#373451"/>
<path d="M413.765 184.893L422.531 182.831" stroke="#2FFD61" stroke-width="2" stroke-linecap="round"/>
<path d="M427.531 241.893L442.853 237.769" stroke="black" stroke-width="2" stroke-linecap="round"/>
<path d="M445.531 296.893L460.853 292.769" stroke="black" stroke-width="2" stroke-linecap="round"/>
<path d="M419.531 218.893L434.853 214.769" stroke="#47809D" stroke-width="2" stroke-linecap="round"/>
<path d="M439.531 273.893L454.853 269.769" stroke="#4E479D" stroke-width="2" stroke-linecap="round"/>
<path d="M457.531 328.893L472.853 324.769" stroke="#47809D" stroke-width="2" stroke-linecap="round"/>
<path d="M422.531 191.893L437.853 187.769" stroke="#2FFD61" stroke-width="2" stroke-linecap="round"/>
<path d="M442.531 246.893L457.853 242.769" stroke="black" stroke-width="2" stroke-linecap="round"/>
<path d="M460.531 301.893L475.853 297.769" stroke="black" stroke-width="2" stroke-linecap="round"/>
<path d="M434.531 223.893L449.853 219.769" stroke="black" stroke-width="2" stroke-linecap="round"/>
<path d="M454.531 278.893L469.853 274.769" stroke="black" stroke-width="2" stroke-linecap="round"/>
<path d="M472.531 339.893L487.853 335.769" stroke="#2FFD61" stroke-width="2" stroke-linecap="round"/>
<path d="M444.531 184.893L459.853 180.769" stroke="#47809D" stroke-width="2" stroke-linecap="round"/>
<path d="M464.531 239.893L479.853 235.769" stroke="#47809D" stroke-width="2" stroke-linecap="round"/>
<path d="M482.531 294.893L497.853 290.769" stroke="#4E479D" stroke-width="2" stroke-linecap="round"/>
<path d="M415.531 205.893L430.853 201.769" stroke="#2FFD61" stroke-width="2" stroke-linecap="round"/>
<path d="M435.531 260.893L450.853 256.769" stroke="black" stroke-width="2" stroke-linecap="round"/>
<path d="M453.531 315.893L468.853 311.769" stroke="black" stroke-width="2" stroke-linecap="round"/>
<path d="M431.531 179.893L468.087 169.537" stroke="#4E479D" stroke-width="2" stroke-linecap="round"/>
<path d="M451.531 234.893L488.087 224.537" stroke="#4E479D" stroke-width="2" stroke-linecap="round"/>
<path d="M469.531 289.893L506.087 279.537" stroke="black" stroke-width="2" stroke-linecap="round"/>
<path d="M443.531 211.893L480.087 201.537" stroke="#4E479D" stroke-width="2" stroke-linecap="round"/>
<path d="M463.531 266.893L500.087 256.537" stroke="black" stroke-width="2" stroke-linecap="round"/>
<path d="M481.531 321.893L518.087 311.537" stroke="black" stroke-width="2" stroke-linecap="round"/>
<path d="M408.782 180.769L407.214 191.893" stroke="#2FFD61" stroke-width="2" stroke-linecap="round"/>
<path d="M451.782 190.769L450.214 201.893" stroke="#2FFD61" stroke-width="2" stroke-linecap="round"/>
<path d="M507.782 324.769L506.214 335.893" stroke="#2FFD61" stroke-width="2" stroke-linecap="round"/>
<path d="M435.558 196.331L439.957 197.436C440.577 197.592 440.894 198.283 440.607 198.855L438.362 203.331" stroke="#2FFD61" stroke-width="2" stroke-linecap="round"/>
<path d="M491.558 330.331L495.957 331.436C496.577 331.592 496.894 332.283 496.607 332.855L494.362 337.331" stroke="#2FFD61" stroke-width="2" stroke-linecap="round"/>
<circle cx="129.97" cy="535.002" r="28" fill="#1C1A2E"/>
<mask id="mask1_167_3125" style="mask-type:alpha" maskUnits="userSpaceOnUse" x="101" y="507" width="57" height="57">
<circle cx="129.97" cy="535.002" r="28" fill="white"/>
</mask>
<g mask="url(#mask1_167_3125)">
<circle opacity="0.480911" cx="146.97" cy="533.002" r="33" fill="#2B2941"/>
</g>
<circle cx="65.4702" cy="151.502" r="48.5" fill="#1C1A2E"/>
<mask id="mask2_167_3125" style="mask-type:alpha" maskUnits="userSpaceOnUse" x="16" y="103" width="98" height="98">
<circle cx="65.4702" cy="151.502" r="48.5" fill="white"/>
</mask>
<g mask="url(#mask2_167_3125)">
<circle cx="94.9702" cy="148.002" r="57" fill="#2B2941"/>
</g>
<path d="M573.626 186.991C562.18 194.945 554.925 201.578 551.84 206.956C548.588 212.627 549.924 217.099 555.723 219.908C570.612 227.119 612.345 221.532 656.357 205.094C701.948 188.065 738.02 166.058 759.462 143.969L759.99 143.419C767.859 135.145 769.421 129.537 763.848 127.143C758.766 124.959 747.409 125.944 729.572 130.021C729.102 130.129 728.809 130.596 728.916 131.065C729.023 131.534 729.491 131.828 729.96 131.72L731.14 131.453C747.919 127.688 758.657 126.809 763.16 128.744C767.156 130.461 764.524 133.12 756.935 140.938C735.714 162.799 698.254 178.456 652.885 195.402C609.358 211.66 572.15 224.173 557.875 217.259C552.992 214.894 550.598 212.624 553.352 207.823C556.275 202.728 563.371 196.239 574.621 188.422C575.016 188.148 575.114 187.605 574.839 187.209C574.564 186.814 574.021 186.716 573.626 186.991Z" fill="#FFEC6A"/>
</g>
<defs>
<linearGradient id="paint0_linear_167_3125" x1="139.654" y1="258.597" x2="339.314" y2="296.269" gradientUnits="userSpaceOnUse">
<stop stop-color="#0058FF"/>
<stop offset="1" stop-color="#F700FE"/>
</linearGradient>
<linearGradient id="paint1_linear_167_3125" x1="211.202" y1="356.984" x2="314.41" y2="356.984" gradientUnits="userSpaceOnUse">
<stop stop-color="#0058FF"/>
<stop offset="1" stop-color="#F700FE"/>
</linearGradient>
<clipPath id="clip0_167_3125">
<rect width="854" height="709" fill="white" transform="translate(0 0.00195312)"/>
</clipPath>
</defs>
</svg>
