<svg width="311" height="251" viewBox="0 0 311 251" fill="none" xmlns="http://www.w3.org/2000/svg">
<g clip-path="url(#clip0_165_6306)">
<path d="M221.519 143.568C222.337 146.098 220.95 148.812 218.42 149.629L90.7342 190.885C86.4266 192.276 81.7952 189.978 80.2984 185.706L45.8599 87.4053C44.6388 83.9197 46.6231 80.1285 50.1833 79.1454L182.431 42.6305C185.723 41.7215 189.147 43.5663 190.199 46.8158L221.519 143.568Z" fill="#1C1A2E" stroke="black"/>
<path fill-rule="evenodd" clip-rule="evenodd" d="M293.649 164.045C294.796 163.642 294.651 161.976 293.452 161.776L224.944 150.36C221.926 149.857 218.832 150.083 215.919 151.017L89.5119 191.569C87.7118 192.147 87.6916 194.686 89.4823 195.292L141.977 213.056C146.045 214.433 150.457 214.407 154.508 212.982L293.649 164.045Z" fill="#373451" stroke="black"/>
<path fill-rule="evenodd" clip-rule="evenodd" d="M246.321 176.48C247.086 176.213 246.992 175.102 246.193 174.967L231.496 172.479C229.63 172.163 227.714 172.318 225.922 172.93L177.847 189.36C177.096 189.617 177.158 190.699 177.933 190.868L192.086 193.962C193.787 194.334 195.557 194.226 197.201 193.652L246.321 176.48Z" fill="#1C1A2E" stroke="black"/>
<path d="M293.143 164.03V164.03C293.87 166.744 292.395 169.563 289.751 170.512L156.23 218.465C152.335 219.864 148.078 219.881 144.173 218.513L92.3595 200.363C91.3811 200.02 90.6353 199.216 90.367 198.215L89.5312 195.096" stroke="black" stroke-linecap="round"/>
<path fill-rule="evenodd" clip-rule="evenodd" d="M253.105 160.442C253.88 160.183 253.792 159.06 252.986 158.925L220.024 153.414L103.736 191.09C103.005 191.327 103.015 192.364 103.751 192.586L130.412 200.627C131.188 200.861 132.016 200.849 132.785 200.592L253.105 160.442Z" stroke="black"/>
<path d="M233.198 160.332L131.643 193.513" stroke="black" stroke-linecap="round"/>
<path d="M219.359 158.816L117.805 191.997" stroke="black" stroke-linecap="round"/>
<path d="M220.019 166.848L202.462 162.597" stroke="black" stroke-linecap="round"/>
<path d="M204.378 172.532L186.822 168.281" stroke="black" stroke-linecap="round"/>
<path d="M189.433 178.028L171.877 173.778" stroke="black" stroke-linecap="round"/>
<path d="M171.33 182.879L153.774 178.628" stroke="black" stroke-linecap="round"/>
<path d="M156.013 186.983L138.456 182.733" stroke="black" stroke-linecap="round"/>
<path d="M133.017 56.5324L134.158 60.2306C134.351 60.8584 133.993 61.523 133.363 61.7065L107.202 69.3192C106.609 69.4918 105.983 69.1758 105.769 68.5958L104.25 64.464" stroke="black"/>
<path opacity="0.143438" fill-rule="evenodd" clip-rule="evenodd" d="M266.844 212.154L265.988 213.258L265.132 212.154L264.028 211.298L265.132 210.442L265.988 209.338L266.844 210.442L267.948 211.298L266.844 212.154Z" fill="#979797"/>
<path opacity="0.143438" fill-rule="evenodd" clip-rule="evenodd" d="M42.6042 187.064L41.7481 188.168L40.8921 187.064L39.788 186.208L40.8921 185.352L41.7481 184.248L42.6042 185.352L43.7083 186.208L42.6042 187.064Z" fill="#979797"/>
<path opacity="0.143438" fill-rule="evenodd" clip-rule="evenodd" d="M304.479 72.1999L303.623 73.304L302.767 72.1999L301.663 71.3439L302.767 70.4879L303.623 69.3837L304.479 70.4879L305.583 71.3439L304.479 72.1999Z" fill="#979797"/>
<path opacity="0.143438" fill-rule="evenodd" clip-rule="evenodd" d="M8.49747 151.39L7.64145 152.494L6.78542 151.39L5.6813 150.534L6.78542 149.678L7.64145 148.574L8.49747 149.678L9.60159 150.534L8.49747 151.39Z" fill="#979797"/>
<circle cx="249.932" cy="56.8366" r="28.8953" fill="#210080"/>
<mask id="mask0_165_6306" style="mask-type:luminance" maskUnits="userSpaceOnUse" x="221" y="27" width="58" height="59">
<circle cx="249.932" cy="56.8366" r="28.8953" fill="white"/>
</mask>
<g mask="url(#mask0_165_6306)">
<circle cx="267.514" cy="52.4846" r="34.2914" fill="white" fill-opacity="0.2"/>
<path d="M273.334 30.5383C273.334 30.5383 271.048 38.3149 264.588 41.6579C258.127 45.0008 254.848 38.7571 246.803 44.266C238.759 49.7749 239.831 53.8501 234.932 56.8365C230.032 59.8229 220.233 56.8365 220.233 56.8365L210.535 60.5415" stroke="#161424"/>
<path d="M211.58 80.0999C211.58 80.0999 214.405 70.4862 222.392 66.3534C230.379 62.2207 234.433 69.9395 244.378 63.1292C254.323 56.3188 252.997 51.2809 259.054 47.589C265.111 43.897 277.226 47.589 277.226 47.589L289.214 43.0086" stroke="#161424"/>
<path d="M216.453 91.5884C216.453 91.5884 219.279 81.9747 227.266 77.842C235.253 73.7092 239.307 81.428 249.251 74.6177C259.196 67.8073 257.871 62.7694 263.928 59.0775C269.984 55.3856 282.099 59.0775 282.099 59.0775L294.088 54.4972" stroke="#161424"/>
<path d="M283.778 59.4338C283.778 59.4338 281.492 67.2104 275.032 70.5533C268.571 73.8963 265.292 67.6525 257.247 73.1614C249.203 78.6703 250.275 82.7455 245.376 85.7319C240.477 88.7183 230.677 85.7319 230.677 85.7319L220.979 89.437" stroke="#161424"/>
<path d="M301.881 11.3911C301.881 11.3911 299.595 19.1676 293.135 22.5106C286.674 25.8535 283.395 19.6098 275.35 25.1187C270.232 28.6237 266.752 32.317 261.629 33.5233C258.7 34.2129 249.156 34.5544 245.935 37.4469C242.715 40.3395 238.446 44.7805 236.958 45.5401C235.47 46.2997 234.007 45.8453 229.664 47.4729C225.322 49.1004 225.72 52.3236 223.917 53.2697C222.115 54.2158 217.728 52.485 217.728 52.485" stroke="#161424"/>
<path d="M321.029 51.4265C321.029 51.4265 318.743 59.203 312.282 62.546C305.822 65.889 302.543 59.6452 294.498 65.1541C289.38 68.6591 285.9 72.3524 280.777 73.5587C277.848 74.2483 272.525 72.4723 270.743 73.5587C265.844 76.5451 271.24 76.888 266.163 80.6703C261.086 84.4525 244.868 92.359 243.065 93.3051C241.263 94.2512 236.876 92.5204 236.876 92.5204" stroke="#161424"/>
</g>
<path fill-rule="evenodd" clip-rule="evenodd" d="M67.0657 233.807L65.2991 232.437L67.0657 231.068L68.4353 229.301L69.8049 231.068L71.5715 232.437L69.8049 233.807L68.4353 235.573L67.0657 233.807Z" fill="#2FFD61"/>
<path fill-rule="evenodd" clip-rule="evenodd" d="M118.109 39.7913L116.342 38.4217L118.109 37.0521L119.478 35.2855L120.848 37.0521L122.614 38.4217L120.848 39.7913L119.478 41.5579L118.109 39.7913Z" fill="#F700FE"/>
<path opacity="0.0904018" fill-rule="evenodd" clip-rule="evenodd" d="M243.95 118.589L242.183 117.22L243.95 115.85L245.319 114.083L246.689 115.85L248.456 117.22L246.689 118.589L245.319 120.356L243.95 118.589Z" fill="#979797"/>
<path fill-rule="evenodd" clip-rule="evenodd" d="M71.0657 27.8069L69.2991 26.4372L71.0657 25.0676L72.4353 23.301L73.8049 25.0676L75.5715 26.4372L73.8049 27.8069L72.4353 29.5735L71.0657 27.8069Z" fill="#979797"/>
<path fill-rule="evenodd" clip-rule="evenodd" d="M238.066 233.807L236.299 232.437L238.066 231.068L239.435 229.301L240.805 231.068L242.572 232.437L240.805 233.807L239.435 235.573L238.066 233.807Z" fill="#FFEC6A"/>
<path fill-rule="evenodd" clip-rule="evenodd" d="M290.066 18.8069L288.299 17.4372L290.066 16.0676L291.435 14.301L292.805 16.0676L294.572 17.4372L292.805 18.8069L291.435 20.5735L290.066 18.8069Z" fill="#2FFD61"/>
<path fill-rule="evenodd" clip-rule="evenodd" d="M273.352 128.39L271.585 127.021L273.352 125.651L274.721 123.884L276.091 125.651L277.857 127.021L276.091 128.39L274.721 130.157L273.352 128.39Z" fill="#F700FE"/>
<path fill-rule="evenodd" clip-rule="evenodd" d="M148.782 67.4C147.945 65.0447 149.28 62.4735 151.688 61.8022L178.455 54.3394C180.674 53.7207 182.988 54.9557 183.709 57.144L210.908 139.7C211.653 141.961 210.425 144.397 208.165 145.144L183.749 153.212C181.524 153.948 179.118 152.77 178.333 150.561L148.782 67.4Z" fill="#373451" stroke="black"/>
<path fill-rule="evenodd" clip-rule="evenodd" d="M57.8346 96.0267C56.9965 93.6681 58.3359 91.0938 60.7485 90.4265L99.3226 79.7577C101.54 79.1445 103.848 80.3797 104.568 82.5646L131.75 165.069C132.502 167.353 131.241 169.811 128.947 170.532L92.7591 181.907C90.5461 182.602 88.1793 181.423 87.4026 179.237L57.8346 96.0267Z" fill="#12101E"/>
<path fill-rule="evenodd" clip-rule="evenodd" d="M67.1311 100.777C66.3876 98.4735 67.6851 96.0094 70.005 95.3191L94.1441 88.1356C96.3703 87.4732 98.7212 88.6928 99.4615 90.8943L104.807 106.792C105.587 109.111 104.284 111.613 101.936 112.303L77.5751 119.464C75.3326 120.123 72.9732 118.876 72.2552 116.651L67.1311 100.777Z" fill="url(#paint0_linear_165_6306)"/>
<path fill-rule="evenodd" clip-rule="evenodd" d="M78.5 130.571C77.7565 128.268 79.054 125.804 81.3739 125.113L105.513 117.93C107.739 117.267 110.09 118.487 110.83 120.688L116.176 136.586C116.956 138.905 115.653 141.408 113.305 142.098L88.944 149.258C86.7015 149.917 84.3421 148.67 83.6241 146.445L78.5 130.571Z" fill="url(#paint1_linear_165_6306)" fill-opacity="0.1"/>
<path fill-rule="evenodd" clip-rule="evenodd" d="M120.839 108.226C120.096 105.922 121.393 103.458 123.713 102.768L147.852 95.5845C150.078 94.922 152.429 96.1417 153.17 98.3432L158.515 114.24C159.295 116.56 157.992 119.062 155.644 119.752L131.283 126.913C129.041 127.572 126.681 126.324 125.963 124.1L120.839 108.226Z" fill="#2FFD61" fill-opacity="0.1"/>
<path fill-rule="evenodd" clip-rule="evenodd" d="M131.032 136.844C130.288 134.54 131.586 132.076 133.906 131.386L158.045 124.202C160.271 123.54 162.622 124.759 163.362 126.961L168.708 142.858C169.488 145.177 168.184 147.68 165.837 148.37L141.476 155.53C139.233 156.19 136.874 154.942 136.156 152.718L131.032 136.844Z" fill="#2FFD61"/>
<path fill-rule="evenodd" clip-rule="evenodd" d="M110.646 79.9992C109.903 77.6958 111.2 75.2317 113.52 74.5414L137.659 67.3579C139.885 66.6955 142.236 67.9151 142.977 70.1166L148.323 86.0139C149.102 88.333 147.799 90.8357 145.451 91.5257L121.09 98.6861C118.848 99.3453 116.488 98.0979 115.77 95.8735L110.646 79.9992Z" fill="#373451"/>
<path d="M156.555 66.1282L159.992 65.3198" stroke="#2FFD61" stroke-linecap="round"/>
<path d="M161.952 88.4737L167.958 86.8571" stroke="black" stroke-linecap="round"/>
<path d="M169.008 110.035L175.015 108.418" stroke="black" stroke-linecap="round"/>
<path d="M158.815 79.4568L164.822 77.8401" stroke="#47809D" stroke-linecap="round"/>
<path d="M166.656 101.019L172.663 99.4019" stroke="#4E479D" stroke-linecap="round"/>
<path d="M173.712 122.58L179.719 120.963" stroke="#47809D" stroke-linecap="round"/>
<path d="M159.992 68.8723L165.998 67.2556" stroke="#2FFD61" stroke-linecap="round"/>
<path d="M167.832 90.4336L173.839 88.8169" stroke="black" stroke-linecap="round"/>
<path d="M174.889 111.995L180.895 110.379" stroke="black" stroke-linecap="round"/>
<path d="M164.696 81.4172L170.703 79.8005" stroke="black" stroke-linecap="round"/>
<path d="M172.537 102.978L178.543 101.362" stroke="black" stroke-linecap="round"/>
<path d="M179.593 126.892L185.6 125.276" stroke="#2FFD61" stroke-linecap="round"/>
<path d="M168.616 66.1278L174.623 64.5112" stroke="#47809D" stroke-linecap="round"/>
<path d="M176.457 87.6897L182.463 86.073" stroke="#47809D" stroke-linecap="round"/>
<path d="M183.513 109.251L189.52 107.634" stroke="#4E479D" stroke-linecap="round"/>
<path d="M157.247 74.3607L163.254 72.744" stroke="#2FFD61" stroke-linecap="round"/>
<path d="M165.088 95.9219L171.095 94.3052" stroke="black" stroke-linecap="round"/>
<path d="M172.144 117.484L178.151 115.867" stroke="black" stroke-linecap="round"/>
<path d="M163.52 64.1679L177.851 60.108" stroke="#4E479D" stroke-linecap="round"/>
<path d="M171.36 85.7292L185.691 81.6692" stroke="#4E479D" stroke-linecap="round"/>
<path d="M178.417 107.291L192.748 103.231" stroke="black" stroke-linecap="round"/>
<path d="M168.224 76.7128L182.555 72.6528" stroke="#4E479D" stroke-linecap="round"/>
<path d="M176.064 98.274L190.395 94.2141" stroke="black" stroke-linecap="round"/>
<path d="M183.121 119.836L197.452 115.776" stroke="black" stroke-linecap="round"/>
<path d="M154.602 64.5112L153.987 68.872" stroke="#2FFD61" stroke-linecap="round"/>
<path d="M171.459 68.4314L170.844 72.7923" stroke="#2FFD61" stroke-linecap="round"/>
<path d="M193.413 120.963L192.798 125.324" stroke="#2FFD61" stroke-linecap="round"/>
<path d="M165.099 70.6121L166.823 71.0454C167.067 71.1065 167.191 71.3772 167.078 71.6014L166.198 73.3563" stroke="#2FFD61" stroke-linecap="round"/>
<path d="M187.052 123.144L188.777 123.577C189.02 123.638 189.144 123.909 189.032 124.133L188.152 125.888" stroke="#2FFD61" stroke-linecap="round"/>
<circle cx="45.2996" cy="203.381" r="10.9768" fill="#1C1A2E"/>
<mask id="mask1_165_6306" style="mask-type:luminance" maskUnits="userSpaceOnUse" x="34" y="192" width="23" height="23">
<circle cx="45.2996" cy="203.381" r="10.9768" fill="white"/>
</mask>
<g mask="url(#mask1_165_6306)">
<circle opacity="0.480911" cx="51.9638" cy="202.597" r="12.9369" fill="#2B2941"/>
</g>
<circle cx="36.0136" cy="49.0153" r="19.0134" fill="#1C1A2E"/>
<mask id="mask2_165_6306" style="mask-type:luminance" maskUnits="userSpaceOnUse" x="17" y="30" width="39" height="39">
<circle cx="36.0136" cy="49.0153" r="19.0134" fill="white"/>
</mask>
<g mask="url(#mask2_165_6306)">
<circle cx="47.5788" cy="47.6432" r="22.3456" fill="#2B2941"/>
</g>
<path d="M219.225 66.9508C214.738 70.0689 211.894 72.6694 210.685 74.7775C209.41 77.0008 209.934 78.7541 212.207 79.8552C218.044 82.6823 234.404 80.492 251.658 74.0475C269.531 67.3716 283.673 58.7443 292.078 50.0848L292.285 49.8694C295.37 46.6255 295.983 44.4273 293.798 43.4886C291.805 42.6325 287.353 43.0188 280.361 44.617C280.177 44.6591 280.062 44.8422 280.104 45.0262C280.146 45.2101 280.329 45.3251 280.513 45.2831L280.975 45.1783C287.553 43.7024 291.763 43.3579 293.528 44.1164C295.094 44.7893 294.063 45.8317 291.088 48.8965C282.769 57.4667 268.083 63.6049 250.297 70.2482C233.233 76.6218 218.647 81.5272 213.051 78.8167C211.136 77.8895 210.198 76.9996 211.278 75.1174C212.423 73.12 215.205 70.5764 219.615 67.5118C219.77 67.4042 219.809 67.1913 219.701 67.0364C219.593 66.8814 219.38 66.8431 219.225 66.9508Z" fill="#FFEC6A"/>
</g>
<defs>
<linearGradient id="paint0_linear_165_6306" x1="49.0954" y1="95.0222" x2="127.368" y2="109.791" gradientUnits="userSpaceOnUse">
<stop stop-color="#0058FF"/>
<stop offset="1" stop-color="#F700FE"/>
</linearGradient>
<linearGradient id="paint1_linear_165_6306" x1="77.1445" y1="133.592" x2="117.605" y2="133.592" gradientUnits="userSpaceOnUse">
<stop stop-color="#0058FF"/>
<stop offset="1" stop-color="#F700FE"/>
</linearGradient>
<clipPath id="clip0_165_6306">
<rect width="311" height="250" fill="white" transform="translate(0 0.00195312)"/>
</clipPath>
</defs>
</svg>
