<svg width="390" height="382" viewBox="0 0 390 382" fill="none" xmlns="http://www.w3.org/2000/svg">
<g opacity="0.156157">
<path opacity="0.143438" fill-rule="evenodd" clip-rule="evenodd" d="M144.903 216.063L142.924 218.615L140.945 216.063L138.393 214.084L140.945 212.105L142.924 209.553L144.903 212.105L147.455 214.084L144.903 216.063Z" fill="#F700FE"/>
<path opacity="0.143438" fill-rule="evenodd" clip-rule="evenodd" d="M386.46 127L384.482 129.552L382.503 127L379.951 125.021L382.503 123.043L384.482 120.491L386.46 123.043L389.013 125.021L386.46 127Z" fill="#F700FE"/>
<path opacity="0.143438" fill-rule="evenodd" clip-rule="evenodd" d="M349.939 329.473L347.96 332.025L345.981 329.473L343.429 327.495L345.981 325.516L347.96 322.964L349.939 325.516L352.491 327.495L349.939 329.473Z" fill="#F700FE"/>
<path opacity="0.0904018" fill-rule="evenodd" clip-rule="evenodd" d="M4.73949 189.712L0.656158 186.546L4.73949 183.38L7.90527 179.297L11.0711 183.38L15.1544 186.546L11.0711 189.712L7.90527 193.795L4.73949 189.712Z" fill="#F700FE"/>
<path opacity="0.0904018" fill-rule="evenodd" clip-rule="evenodd" d="M113.665 10.9462L109.582 7.78037L113.665 4.61458L116.831 0.53125L119.997 4.61458L124.08 7.78037L119.997 10.9462L116.831 15.0295L113.665 10.9462Z" fill="#F700FE"/>
<path opacity="0.0904018" fill-rule="evenodd" clip-rule="evenodd" d="M246.298 100.649L242.214 97.4835L246.298 94.3177L249.463 90.2344L252.629 94.3177L256.712 97.4835L252.629 100.649L249.463 104.733L246.298 100.649Z" fill="#F700FE"/>
<path opacity="0.0904018" fill-rule="evenodd" clip-rule="evenodd" d="M209.776 303.122L205.692 299.957L209.776 296.791L212.941 292.708L216.107 296.791L220.191 299.957L216.107 303.122L212.941 307.206L209.776 303.122Z" fill="#F700FE"/>
<path opacity="0.0904018" fill-rule="evenodd" clip-rule="evenodd" d="M68.8132 362.711L64.7299 359.545L68.8132 356.379L71.979 352.296L75.1448 356.379L79.2281 359.545L75.1448 362.711L71.979 366.794L68.8132 362.711Z" fill="#F700FE"/>
<path fill-rule="evenodd" clip-rule="evenodd" d="M20.1172 264.037L16.0338 260.872L20.1172 257.706L23.283 253.623L26.4487 257.706L30.5321 260.872L26.4487 264.037L23.283 268.121L20.1172 264.037Z" fill="#F700FE"/>
<path fill-rule="evenodd" clip-rule="evenodd" d="M261.675 174.975L257.592 171.809L261.675 168.643L264.841 164.56L268.007 168.643L272.09 171.809L268.007 174.975L264.841 179.058L261.675 174.975Z" fill="#F700FE"/>
<path fill-rule="evenodd" clip-rule="evenodd" d="M225.153 377.448L221.07 374.282L225.153 371.117L228.319 367.033L231.485 371.117L235.568 374.282L231.485 377.448L228.319 381.531L225.153 377.448Z" fill="#F700FE"/>
<path fill-rule="evenodd" clip-rule="evenodd" d="M132.246 108.338L128.163 105.172L132.246 102.007L135.412 97.9233L138.578 102.007L142.661 105.172L138.578 108.338L135.412 112.422L132.246 108.338Z" fill="#F700FE"/>
<path fill-rule="evenodd" clip-rule="evenodd" d="M373.804 19.2757L369.721 16.11L373.804 12.9442L376.97 8.86084L380.136 12.9442L384.219 16.11L380.136 19.2757L376.97 23.3591L373.804 19.2757Z" fill="#F700FE"/>
<path fill-rule="evenodd" clip-rule="evenodd" d="M337.282 221.749L333.199 218.583L337.282 215.417L340.448 211.334L343.614 215.417L347.697 218.583L343.614 221.749L340.448 225.832L337.282 221.749Z" fill="#F700FE"/>
</g>
</svg>
