<svg width="311" height="251" viewBox="0 0 311 251" fill="none" xmlns="http://www.w3.org/2000/svg">
<g clip-path="url(#clip0_165_6802)">
<path d="M130.09 132.168C129.302 134.603 130.638 137.216 133.073 138.003L258.815 178.63C263.002 179.983 267.504 177.749 268.959 173.596L302.873 76.7922C304.055 73.4177 302.134 69.7474 298.688 68.7957L168.453 32.8366C165.266 31.9566 161.951 33.7426 160.932 36.8885L130.09 132.168Z" fill="#1C1A2E" stroke="black" stroke-width="0.772122"/>
<path d="M168.104 51.9222C168.548 50.555 169.985 49.7749 171.373 50.1469L182.283 53.0701C183.778 53.4707 184.632 55.0423 184.154 56.5143L158.98 134.122C158.521 135.537 157.005 136.315 155.588 135.863L144.804 132.423C143.377 131.967 142.593 130.438 143.056 129.013L168.104 51.9222Z" stroke="black" stroke-width="0.772122"/>
<path d="M180.501 87.1945C180.944 85.7949 182.423 85.005 183.833 85.4154L268.468 110.063C269.954 110.496 270.774 112.087 270.264 113.548L253.212 162.393C252.731 163.773 251.241 164.519 249.848 164.08L167.251 138.011C165.826 137.562 165.037 136.042 165.488 134.619L180.501 87.1945Z" stroke="black" stroke-width="0.772122"/>
<path d="M190.319 58.4117C190.772 57.032 192.235 56.2574 193.631 56.6577L279.496 81.2749C281.009 81.7086 281.833 83.338 281.285 84.8133L274.471 103.168C273.979 104.491 272.553 105.213 271.196 104.826L186.004 80.5409C184.528 80.1201 183.698 78.5562 184.177 77.0982L190.319 58.4117Z" fill="url(#paint0_linear_165_6802)" stroke="black" stroke-width="0.772122"/>
<path fill-rule="evenodd" clip-rule="evenodd" d="M58.9567 152.301C57.8271 151.904 57.9695 150.263 59.1506 150.066L126.615 138.824C129.587 138.329 132.634 138.551 135.503 139.471L259.986 179.406C261.759 179.974 261.779 182.476 260.015 183.072L208.32 200.566C204.314 201.922 199.969 201.896 195.98 200.493L58.9567 152.301Z" fill="#373451" stroke="black" stroke-width="0.772122"/>
<path fill-rule="evenodd" clip-rule="evenodd" d="M105.563 164.547C104.81 164.284 104.902 163.19 105.689 163.057L120.162 160.607C122.001 160.296 123.888 160.449 125.652 161.052L172.995 177.232C173.734 177.484 173.673 178.55 172.91 178.717L158.973 181.763C157.298 182.129 155.554 182.024 153.936 181.458L105.563 164.547Z" fill="#1C1A2E" stroke="black" stroke-width="0.772122"/>
<path d="M59.4549 152.285V152.285C58.7386 154.958 60.1911 157.734 62.7956 158.67L194.284 205.893C198.119 207.27 202.312 207.286 206.158 205.939L257.182 188.066C258.145 187.728 258.88 186.937 259.144 185.95L259.967 182.879" stroke="black" stroke-width="0.772122" stroke-linecap="round"/>
<path fill-rule="evenodd" clip-rule="evenodd" d="M98.8832 148.753C98.1198 148.498 98.2066 147.392 99.0003 147.259L131.46 141.832L245.979 178.934C246.698 179.168 246.688 180.19 245.964 180.408L219.708 188.326C218.945 188.557 218.128 188.545 217.372 188.292L98.8832 148.753Z" stroke="black" stroke-width="0.772122"/>
<path d="M118.488 148.644L218.496 181.32" stroke="black" stroke-width="0.772122" stroke-linecap="round"/>
<path d="M132.116 147.151L232.124 179.828" stroke="black" stroke-width="0.772122" stroke-linecap="round"/>
<path d="M131.466 155.061L148.755 150.875" stroke="black" stroke-width="0.772122" stroke-linecap="round"/>
<path d="M146.868 160.657L164.157 156.471" stroke="black" stroke-width="0.772122" stroke-linecap="round"/>
<path d="M161.586 166.071L178.875 161.884" stroke="black" stroke-width="0.772122" stroke-linecap="round"/>
<path d="M179.413 170.848L196.703 166.662" stroke="black" stroke-width="0.772122" stroke-linecap="round"/>
<path d="M194.498 174.89L211.787 170.704" stroke="black" stroke-width="0.772122" stroke-linecap="round"/>
<path fill-rule="evenodd" clip-rule="evenodd" d="M217.143 46.424L216.02 50.066C215.829 50.6841 216.182 51.3386 216.803 51.5194L242.565 59.0161C243.15 59.1861 243.766 58.8749 243.976 58.3038L245.472 54.2349" fill="url(#paint1_linear_165_6802)"/>
<path d="M217.143 46.424L216.02 50.066C215.829 50.6841 216.182 51.3386 216.803 51.5194L242.565 59.0161C243.15 59.1861 243.766 58.8749 243.976 58.3038L245.472 54.2349" stroke="black" stroke-width="0.772122"/>
<path opacity="0.143438" fill-rule="evenodd" clip-rule="evenodd" d="M122.939 136.749L122.096 137.837L121.253 136.749L120.166 135.906L121.253 135.063L122.096 133.976L122.939 135.063L124.026 135.906L122.939 136.749Z" fill="#979797"/>
<path opacity="0.143438" fill-rule="evenodd" clip-rule="evenodd" d="M268.485 83.0879L267.642 84.1752L266.799 83.0879L265.711 82.2449L266.799 81.4019L267.642 80.3146L268.485 81.4019L269.572 82.2449L268.485 83.0879Z" fill="#979797"/>
<path opacity="0.143438" fill-rule="evenodd" clip-rule="evenodd" d="M246.479 205.083L245.636 206.17L244.793 205.083L243.706 204.24L244.793 203.397L245.636 202.309L246.479 203.397L247.566 204.24L246.479 205.083Z" fill="#979797"/>
<path opacity="0.0904018" fill-rule="evenodd" clip-rule="evenodd" d="M39.3951 120.663L37.6554 119.314L39.3951 117.965L40.7439 116.225L42.0927 117.965L43.8324 119.314L42.0927 120.663L40.7439 122.402L39.3951 120.663Z" fill="#979797"/>
<path opacity="0.0904018" fill-rule="evenodd" clip-rule="evenodd" d="M105.026 12.9519L103.287 11.6031L105.026 10.2543L106.375 8.51464L107.724 10.2543L109.463 11.6031L107.724 12.9519L106.375 14.6916L105.026 12.9519Z" fill="#979797"/>
<path opacity="0.0904018" fill-rule="evenodd" clip-rule="evenodd" d="M184.94 67.0012L183.201 65.6524L184.94 64.3037L186.289 62.564L187.638 64.3037L189.378 65.6524L187.638 67.0012L186.289 68.7409L184.94 67.0012Z" fill="#979797"/>
<path opacity="0.0904018" fill-rule="evenodd" clip-rule="evenodd" d="M162.935 188.995L161.195 187.646L162.935 186.297L164.283 184.558L165.632 186.297L167.372 187.646L165.632 188.995L164.283 190.735L162.935 188.995Z" fill="#979797"/>
<path opacity="0.0904018" fill-rule="evenodd" clip-rule="evenodd" d="M78.0016 224.9L76.2619 223.551L78.0016 222.202L79.3503 220.463L80.6991 222.202L82.4388 223.551L80.6991 224.9L79.3503 226.64L78.0016 224.9Z" fill="#979797"/>
<path fill-rule="evenodd" clip-rule="evenodd" d="M125.749 213.5L124.009 212.151L125.749 210.802L127.097 209.063L128.446 210.802L130.186 212.151L128.446 213.5L127.097 215.24L125.749 213.5Z" fill="#2FFD61"/>
<path fill-rule="evenodd" clip-rule="evenodd" d="M194.205 111.784L192.466 110.436L194.205 109.087L195.554 107.347L196.903 109.087L198.643 110.436L196.903 111.784L195.554 113.524L194.205 111.784Z" fill="#979797"/>
<path fill-rule="evenodd" clip-rule="evenodd" d="M288.441 179.822L286.702 178.473L288.441 177.124L289.79 175.385L291.139 177.124L292.879 178.473L291.139 179.822L289.79 181.561L288.441 179.822Z" fill="#210080"/>
<path fill-rule="evenodd" clip-rule="evenodd" d="M116.222 71.6343L114.482 70.2855L116.222 68.9367L117.57 67.197L118.919 68.9367L120.659 70.2855L118.919 71.6343L117.57 73.374L116.222 71.6343Z" fill="#F700FE"/>
<path fill-rule="evenodd" clip-rule="evenodd" d="M258.981 35.6467L257.241 34.298L258.981 32.9492L260.329 31.2095L261.678 32.9492L263.418 34.298L261.678 35.6467L260.329 37.3864L258.981 35.6467Z" fill="#2FFD61"/>
<path fill-rule="evenodd" clip-rule="evenodd" d="M239.761 139.967L238.021 138.618L239.761 137.269L241.11 135.53L242.459 137.269L244.198 138.618L242.459 139.967L241.11 141.707L239.761 139.967Z" fill="#979797"/>
<path fill-rule="evenodd" clip-rule="evenodd" d="M11.2896 96.5016C9.6383 93.7989 9.56693 90.4172 11.1028 87.6473C12.3625 85.3753 14.5618 83.7761 17.1114 83.2781L52.1561 76.4333C57.1357 75.4607 62.2178 77.5356 65.0938 81.7155L126.996 171.682C127.86 172.937 128.178 174.489 127.877 175.982C126.68 181.925 122.417 186.785 116.681 188.747L85.7927 199.311C80.1439 201.243 73.911 198.994 70.7984 193.899L11.2896 96.5016Z" fill="#1C1A2E" stroke="black" stroke-width="0.772122"/>
<path fill-rule="evenodd" clip-rule="evenodd" d="M14.3822 93.9209C11.3056 88.8676 13.9383 82.2755 19.6495 80.7317L55.2219 71.1159C58.9438 70.1098 62.8896 71.6205 64.988 74.8549L125.159 167.601C128.714 173.08 126.172 180.44 119.995 182.559L84.9024 194.596C80.4444 196.125 75.523 194.346 73.0722 190.321L14.3822 93.9209Z" fill="#373451" stroke="black" stroke-width="0.772122"/>
<path fill-rule="evenodd" clip-rule="evenodd" d="M25.218 79.5951L25.9478 80.8514C26.9245 82.5328 28.9185 83.3361 30.788 82.8012L48.3164 77.7859C49.8547 77.3457 50.4941 75.5157 49.5647 74.2134L48.6283 72.9011" fill="#2E2B46"/>
<path d="M25.218 79.5951L25.9478 80.8514C26.9245 82.5328 28.9185 83.3361 30.788 82.8012L48.3164 77.7859C49.8547 77.3457 50.4941 75.5157 49.5647 74.2134L48.6283 72.9011" stroke="black" stroke-width="0.772122" stroke-linecap="round"/>
<path fill-rule="evenodd" clip-rule="evenodd" d="M101.811 190.746C101.85 190.38 102.096 190.069 102.444 189.947L106.668 188.467C107.365 188.223 108.079 188.788 108.001 189.522C107.96 189.918 107.689 190.252 107.31 190.375L103.052 191.752C102.396 191.964 101.739 191.431 101.811 190.746Z" fill="#373451" stroke="black" stroke-width="0.772122"/>
<path fill-rule="evenodd" clip-rule="evenodd" d="M68.1847 167.459C67.276 165.973 67.9896 164.028 69.6437 163.482L72.8753 162.416C75.0183 161.709 77.3696 162.52 78.6221 164.397L80.1124 166.63C81.2405 168.321 80.456 170.622 78.53 171.271L75.9734 172.133C73.5826 172.939 70.9522 171.984 69.6358 169.831L68.1847 167.459Z" fill="#0058FF" fill-opacity="0.1"/>
<path fill-rule="evenodd" clip-rule="evenodd" d="M76.7427 179.041C75.8149 177.55 76.5329 175.584 78.203 175.042L81.4858 173.977C83.6093 173.288 85.9325 174.085 87.1867 175.931L88.6472 178.082C89.7986 179.778 89.0096 182.104 87.0644 182.749L84.4621 183.612C82.0918 184.398 79.4915 183.458 78.172 181.337L76.7427 179.041Z" fill="#161424"/>
<path fill-rule="evenodd" clip-rule="evenodd" d="M82.6232 162.141C81.7145 160.655 82.428 158.71 84.0821 158.164L87.3137 157.098C89.4568 156.391 91.8081 157.202 93.0606 159.079L94.5509 161.312C95.679 163.003 94.8945 165.304 92.9684 165.953L90.4119 166.815C88.0211 167.621 85.3906 166.666 84.0743 164.513L82.6232 162.141Z" fill="#0058FF"/>
<path fill-rule="evenodd" clip-rule="evenodd" d="M96.2687 157.457C95.36 155.971 96.0735 154.027 97.7276 153.481L100.959 152.415C103.102 151.708 105.454 152.519 106.706 154.396L108.196 156.629C109.325 158.32 108.54 160.621 106.614 161.27L104.057 162.132C101.667 162.938 99.0361 161.983 97.7198 159.83L96.2687 157.457Z" fill="#FFEC6A"/>
<path fill-rule="evenodd" clip-rule="evenodd" d="M90.6414 174.022C89.7136 172.531 90.4316 170.565 92.1017 170.023L95.3845 168.958C97.5079 168.269 99.8312 169.066 101.085 170.912L102.546 173.063C103.697 174.758 102.908 177.085 100.963 177.73L98.3608 178.593C95.9905 179.379 93.3902 178.439 92.0707 176.318L90.6414 174.022Z" fill="#0058FF" fill-opacity="0.1"/>
<path fill-rule="evenodd" clip-rule="evenodd" d="M104.154 169.776C103.226 168.285 103.944 166.319 105.614 165.777L108.897 164.712C111.02 164.023 113.344 164.819 114.598 166.666L116.058 168.817C117.21 170.512 116.421 172.838 114.476 173.484L111.873 174.347C109.503 175.133 106.903 174.193 105.583 172.072L104.154 169.776Z" fill="#F700FE"/>
<path fill-rule="evenodd" clip-rule="evenodd" d="M38.0526 106.216C37.2172 104.91 37.8759 103.168 39.3665 102.741L62.8197 96.0278C64.9493 95.4183 67.2266 96.2769 68.4236 98.1407L92.3848 135.448C93.4605 137.123 92.6941 139.363 90.8179 140.028L69.1907 147.693C66.9908 148.473 64.5437 147.633 63.2861 145.667L38.0526 106.216Z" fill="#161424"/>
<path fill-rule="evenodd" clip-rule="evenodd" d="M39.9828 96.951C39.1473 95.6449 39.8061 93.9027 41.2967 93.476L64.7499 86.7627C66.8794 86.1531 69.1568 87.0118 70.3538 88.8755L94.3149 126.183C95.3907 127.858 94.6243 130.098 92.7481 130.763L71.1209 138.428C68.921 139.208 66.4739 138.368 65.2163 136.402L39.9828 96.951Z" fill="#FFEC6A"/>
<circle cx="73.4762" cy="105.33" r="13.1261" fill="#1C1A2E"/>
<mask id="mask0_165_6802" style="mask-type:luminance" maskUnits="userSpaceOnUse" x="60" y="92" width="27" height="27">
<circle cx="73.4762" cy="105.33" r="13.1261" fill="white"/>
</mask>
<g mask="url(#mask0_165_6802)">
<circle cx="81.5838" cy="103.401" r="15.4424" fill="#373451"/>
<path d="M83.8996 93.3621C83.8996 93.3621 82.8599 96.9644 79.9208 98.5129C76.9817 100.061 75.4899 97.1692 71.8303 99.721C68.1707 102.273 68.6584 104.161 66.4296 105.544C64.2008 106.927 59.7427 105.544 59.7427 105.544L55.3311 107.26" stroke="#161424" stroke-width="0.772122"/>
<path d="M56.1028 115.754C56.1028 115.754 57.3813 111.351 60.9957 109.458C64.61 107.566 66.4445 111.101 70.9448 107.982C75.4451 104.863 74.8454 102.555 77.5862 100.865C80.327 99.1739 85.8092 100.865 85.8092 100.865L91.2344 98.767" stroke="#161424" stroke-width="0.772122"/>
<path d="M58.4195 121.16C58.4195 121.16 59.698 116.757 63.3123 114.864C66.9266 112.972 68.7611 116.507 73.2615 113.388C77.7618 110.269 77.162 107.961 79.9028 106.271C82.6436 104.58 88.1259 106.271 88.1259 106.271L93.551 104.173" stroke="#161424" stroke-width="0.772122"/>
<path d="M88.9186 106.489C88.9186 106.489 87.8789 110.091 84.9398 111.639C82.0007 113.188 80.5089 110.296 76.8493 112.848C73.1897 115.399 73.6774 117.287 71.4486 118.67C69.2199 120.054 64.7618 118.67 64.7618 118.67L60.3501 120.387" stroke="#161424" stroke-width="0.772122"/>
<path d="M97.0259 84.8699C97.0259 84.8699 95.988 88.4259 93.0537 89.9546C90.1194 91.4832 88.63 88.6281 84.9765 91.1472C82.6519 92.75 81.0714 94.4388 78.7447 94.9904C77.4144 95.3058 73.0795 95.4619 71.617 96.7846C70.1544 98.1073 68.2156 100.138 67.5396 100.485C66.8637 100.833 66.1993 100.625 64.227 101.369C62.2548 102.113 62.4354 103.587 61.6168 104.02C60.7981 104.453 58.8059 103.661 58.8059 103.661" stroke="#161424" stroke-width="0.772122"/>
<path d="M105.906 102.627C105.906 102.627 104.868 106.183 101.933 107.712C98.999 109.241 97.5097 106.385 93.8561 108.905C91.5315 110.507 89.951 112.196 87.6243 112.748C86.294 113.063 83.8766 112.251 83.0672 112.748C80.8421 114.113 83.2929 114.27 80.9869 116C78.6809 117.729 71.315 121.345 70.4964 121.777C69.6778 122.21 67.6855 121.418 67.6855 121.418" stroke="#161424" stroke-width="0.772122"/>
</g>
<g opacity="0.4">
<circle cx="102.462" cy="42.3273" r="12.0514" fill="url(#paint2_linear_165_6802)"/>
<mask id="mask1_165_6802" style="mask-type:luminance" maskUnits="userSpaceOnUse" x="90" y="30" width="25" height="25">
<circle cx="102.462" cy="42.3273" r="12.0514" fill="white"/>
</mask>
<g mask="url(#mask1_165_6802)">
<circle opacity="0.480911" cx="109.779" cy="41.4664" r="14.2034" fill="white" fill-opacity="0.18"/>
</g>
</g>
<path d="M196.124 65.041L244.726 79.9469" stroke="black" stroke-width="0.772122" stroke-linecap="round"/>
<path d="M224.868 79.947L255.15 89.2125" stroke="black" stroke-width="0.772122" stroke-linecap="round"/>
<path d="M209.721 74.928L216.682 77.2806" stroke="black" stroke-width="0.772122" stroke-linecap="round"/>
<path d="M193.422 76.2358L242.024 91.1417" stroke="black" stroke-width="0.772122" stroke-linecap="round"/>
<path d="M110.743 121.932L124.913 105.738C125.968 104.531 127.9 104.736 128.68 106.137L138.327 123.47C139.049 124.767 140.786 125.06 141.893 124.072L203.142 69.4282" stroke="#4E479D" stroke-width="4.24667" stroke-linecap="round"/>
</g>
<defs>
<linearGradient id="paint0_linear_165_6802" x1="169.337" y1="41.5674" x2="312.726" y2="109.616" gradientUnits="userSpaceOnUse">
<stop stop-color="#0058FF"/>
<stop offset="1" stop-color="#F700FE"/>
</linearGradient>
<linearGradient id="paint1_linear_165_6802" x1="208.893" y1="35.8682" x2="255.495" y2="62.3378" gradientUnits="userSpaceOnUse">
<stop stop-color="#0058FF"/>
<stop offset="1" stop-color="#F700FE"/>
</linearGradient>
<linearGradient id="paint2_linear_165_6802" x1="80.0747" y1="32.0131" x2="131.425" y2="54.3786" gradientUnits="userSpaceOnUse">
<stop stop-color="#0058FF"/>
<stop offset="1" stop-color="#F700FE"/>
</linearGradient>
<clipPath id="clip0_165_6802">
<rect width="311" height="250" fill="white" transform="translate(0 0.00195312)"/>
</clipPath>
</defs>
</svg>
