<svg width="20" height="20" viewBox="0 0 20 20" fill="none" xmlns="http://www.w3.org/2000/svg">
<path fill-rule="evenodd" clip-rule="evenodd" d="M10 0C7.28424 0 6.94353 0.0115294 5.87718 0.0602353C4.81271 0.108706 4.08565 0.277647 3.44965 0.524941C2.792 0.780471 2.23435 1.12235 1.67835 1.67835C1.12259 2.23435 0.780471 2.792 0.524941 3.44965C0.277882 4.08565 0.108706 4.81247 0.0602353 5.87694C0.0115294 6.94353 0 7.284 0 10C0 12.7158 0.0115294 13.0565 0.0602353 14.1231C0.108706 15.1873 0.277882 15.9144 0.524941 16.5504C0.780471 17.208 1.12259 17.7656 1.67835 18.3216C2.23435 18.8774 2.792 19.2193 3.44965 19.4751C4.08565 19.7221 4.81271 19.8913 5.87718 19.9398C6.94353 19.9885 7.28424 20 10 20C12.7158 20 13.0562 19.9885 14.1228 19.9398C15.1875 19.8913 15.9144 19.7221 16.5504 19.4751C17.208 19.2193 17.7656 18.8774 18.3216 18.3216C18.8774 17.7656 19.2195 17.208 19.4751 16.5504C19.7221 15.9144 19.8913 15.1873 19.9398 14.1231C19.9885 13.0565 20 12.7158 20 10C20 7.28424 19.9885 6.94353 19.9398 5.87694C19.8913 4.81247 19.7221 4.08565 19.4751 3.44965C19.2195 2.792 18.8774 2.23435 18.3216 1.67835C17.7656 1.12235 17.208 0.780471 16.5504 0.524941C15.9144 0.277647 15.1875 0.108706 14.1228 0.0602353C13.0562 0.0115294 12.7158 0 10 0Z" fill="white"/>
<circle cx="10" cy="10" r="5" fill="#12101E"/>
<circle cx="15.5" cy="4.5" r="1.5" fill="#12101E"/>
</svg>
