<svg width="796" height="547" viewBox="0 0 796 547" fill="none" xmlns="http://www.w3.org/2000/svg">
<g clip-path="url(#clip0_167_2244)">
<path opacity="0.565453" fill-rule="evenodd" clip-rule="evenodd" d="M57.7842 22.0167L177.118 98.8219L164.845 125.936L8.03236 14.9107L57.7842 22.0167Z" fill="url(#paint0_linear_167_2244)"/>
<path fill-rule="evenodd" clip-rule="evenodd" d="M62.7842 37.0164L169.845 105.599L169.845 140.936L13.0324 29.9104L62.7842 37.0164Z" fill="url(#paint1_linear_167_2244)"/>
<path fill-rule="evenodd" clip-rule="evenodd" d="M84.7842 37.0164L191.845 105.599L191.845 140.936L35.0324 29.9104L84.7842 37.0164Z" fill="url(#paint2_linear_167_2244)"/>
<path fill-rule="evenodd" clip-rule="evenodd" d="M78.7842 55.0164L185.845 123.599L185.845 158.936L29.0324 47.9104L78.7842 55.0164Z" fill="url(#paint3_linear_167_2244)"/>
<path fill-rule="evenodd" clip-rule="evenodd" d="M104.784 29.0164L211.845 97.5993L211.845 132.936L55.0324 21.9104L104.784 29.0164Z" fill="url(#paint4_linear_167_2244)"/>
<g opacity="0.302362" filter="url(#filter0_f_167_2244)">
<ellipse cx="177.118" cy="119.52" rx="31.1182" ry="33.0786" fill="#4E479D"/>
</g>
<path opacity="0.180362" fill-rule="evenodd" clip-rule="evenodd" d="M98.412 31.7864L191.572 94.8377L170.72 102.655L74.1744 38.5673L98.412 31.7864Z" fill="url(#paint5_linear_167_2244)"/>
<path fill-rule="evenodd" clip-rule="evenodd" d="M669.591 234.453C663.951 231.564 657.52 230.603 651.282 231.715L497 259.221L668.545 345L687.008 249.039C687.596 245.983 686.095 242.905 683.325 241.486L669.591 234.453Z" fill="url(#paint6_linear_167_2244)"/>
<path fill-rule="evenodd" clip-rule="evenodd" d="M666.101 226.92L648.13 218.317C646.574 217.572 644.801 217.408 643.134 217.855C636.471 219.64 635.849 228.85 642.21 231.516L725.816 266.55C726.367 266.781 726.979 266.823 727.556 266.668C729.894 266.042 730.288 262.892 728.177 261.709L666.101 226.92Z" fill="#35334F" stroke="black" stroke-width="2"/>
<path d="M231.811 96.2598C219.741 94.4652 202.967 92.0148 188.074 92.5592C180.627 92.8315 173.583 93.8537 167.803 96.1209C162.012 98.3927 157.417 101.946 155.031 107.31C152.654 112.655 152.883 119.007 154.73 125.699C156.579 132.4 160.079 139.552 164.395 146.59C173.028 160.67 185.026 174.455 194.018 183.522C211.967 201.619 340.387 321.89 472.47 406.876C604.516 491.838 659.635 505.938 682.526 509.049C688.46 509.856 698.715 509.073 709.218 505.878C719.726 502.681 730.639 497.022 737.751 487.945C744.656 479.132 747.819 466.611 748.283 454.025C748.747 441.426 746.514 428.612 742.475 419.112C741.477 416.764 740.434 414.241 739.325 411.556C731.481 392.571 720.281 365.461 697.414 334.298C671.309 298.722 630.025 257.889 561.199 217.692C423.623 137.344 256.065 99.8661 231.811 96.2598Z" fill="url(#paint7_linear_167_2244)" stroke="black" stroke-width="2"/>
<mask id="mask0_167_2244" style="mask-type:alpha" maskUnits="userSpaceOnUse" x="152" y="91" width="598" height="420">
<path d="M231.811 96.2598C219.741 94.4652 202.967 92.0148 188.074 92.5592C180.627 92.8315 173.583 93.8537 167.803 96.1209C162.012 98.3927 157.417 101.946 155.031 107.31C152.654 112.655 152.883 119.007 154.73 125.699C156.579 132.4 160.079 139.552 164.395 146.59C173.028 160.67 185.026 174.455 194.018 183.522C211.967 201.619 340.387 321.89 472.47 406.876C604.516 491.838 659.635 505.938 682.526 509.049C688.46 509.856 698.715 509.073 709.218 505.878C719.726 502.681 730.639 497.022 737.751 487.945C744.656 479.132 747.819 466.611 748.283 454.025C748.747 441.426 746.514 428.612 742.475 419.112C741.477 416.764 740.434 414.241 739.325 411.556C731.481 392.571 720.281 365.461 697.414 334.298C671.309 298.722 630.025 257.889 561.199 217.692C423.623 137.344 256.065 99.8661 231.811 96.2598Z" fill="white" stroke="white" stroke-width="2"/>
</mask>
<g mask="url(#mask0_167_2244)">
<path fill-rule="evenodd" clip-rule="evenodd" d="M455.586 172.667C433.15 168.254 402.241 161.841 387.787 165.039C373.48 168.205 370.029 184.477 377.337 197.178C392.404 223.36 420.278 270.213 455.586 322.402C470.038 343.762 519.122 366.508 554.737 382.512C609.593 407.161 657.607 426.95 677.515 430.876C710.348 437.351 760.372 382.512 760.372 382.512L598.997 215.028C598.997 215.028 478.022 177.081 455.586 172.667Z" fill="#151323"/>
<mask id="mask1_167_2244" style="mask-type:alpha" maskUnits="userSpaceOnUse" x="373" y="164" width="388" height="268">
<path fill-rule="evenodd" clip-rule="evenodd" d="M455.586 172.667C433.15 168.254 402.241 161.841 387.787 165.039C373.48 168.205 370.029 184.477 377.337 197.178C392.404 223.36 420.278 270.213 455.586 322.402C470.038 343.762 519.122 366.508 554.737 382.512C609.593 407.161 657.607 426.95 677.515 430.876C710.348 437.351 760.372 382.512 760.372 382.512L598.997 215.028C598.997 215.028 478.022 177.081 455.586 172.667Z" fill="white"/>
</mask>
<g mask="url(#mask1_167_2244)">
<path fill-rule="evenodd" clip-rule="evenodd" d="M402.486 198.241C399.657 197.933 396.838 197.816 393.992 197.816L343.247 197.816C340.425 197.816 337.677 198.712 335.398 200.375C330.004 204.31 328.347 211.585 331.626 217.401C343.864 239.105 375.091 293.069 416.586 354.401C431.038 375.762 480.122 398.508 515.736 414.511C570.593 439.161 618.607 458.949 638.515 462.876C671.348 469.351 721.372 414.511 721.372 414.511C721.372 414.511 620.453 287.573 559.997 247.027C506.879 211.404 422.25 200.39 402.486 198.241Z" fill="#12101E"/>
<path fill-rule="evenodd" clip-rule="evenodd" d="M558.584 384.175C558.584 384.175 532.222 308.544 543.243 270.584C554.265 232.624 591.098 236.525 591.098 236.525L613.549 247.911C613.549 247.911 552.321 228.682 552.321 295.002C552.321 361.323 601.727 405.597 601.727 405.597L558.584 384.175Z" fill="#2A293E"/>
</g>
<path opacity="0.11556" fill-rule="evenodd" clip-rule="evenodd" d="M106.796 110.905C107.908 112.44 109.157 113.847 110.461 115.222L279.471 293.393C283.788 297.945 287.47 303.004 290.541 308.474C301.934 328.761 333.803 384.165 376.587 447.402C391.038 468.762 440.122 491.508 475.737 507.512C530.593 532.161 578.607 551.95 598.515 555.876C612.851 558.703 662.529 564.225 679.035 532.495C687.733 515.777 687.627 452.951 687.627 452.951L495.747 366.977C495.747 366.977 370.528 309.814 324.318 276.816C238.463 215.508 188.77 147.868 154.296 124.756C86.3959 79.2321 101.051 102.978 106.796 110.905Z" fill="#151323"/>
<path opacity="0.11556" fill-rule="evenodd" clip-rule="evenodd" d="M145.628 101.337C109.1 76.847 117.7 97.016 139.058 135.459C139.67 136.56 140.31 137.657 140.978 138.749C162.039 173.124 232.497 235.865 253.779 254.442C257.852 257.998 262.291 260.991 266.964 263.711C288.532 276.267 354.901 318.355 399.586 384.402C414.038 405.762 463.122 428.508 498.736 444.512C553.593 469.161 601.607 488.95 621.515 492.876C635.851 495.704 736.1 537.482 752.607 505.752C761.304 489.034 783.082 405.597 783.082 405.597L518.747 303.977C518.747 303.977 460.834 338.173 437.504 326.481C396.436 305.9 365.542 265.762 344.062 224.377C311.489 161.616 180.102 124.45 145.628 101.337Z" fill="#151323"/>
<path opacity="0.11556" fill-rule="evenodd" clip-rule="evenodd" d="M184.059 -67.6631C147.531 -92.153 156.131 -71.984 177.489 -33.5408C178.1 -32.4398 178.74 -31.3429 179.409 -30.2513C200.469 4.12405 270.928 66.8649 292.21 85.4424C296.283 88.9979 300.722 91.9913 305.394 94.7114C326.963 107.267 393.332 149.355 438.017 215.402C452.468 236.762 501.552 259.508 537.167 275.512C592.023 300.161 640.038 319.95 659.946 323.876C674.281 326.704 723.959 332.225 740.466 300.495C749.163 283.777 821.513 236.597 821.513 236.597L557.177 134.977C557.177 134.977 499.265 169.173 475.935 157.481C434.867 136.9 403.972 96.7623 382.493 55.3769C349.919 -7.38448 218.533 -44.5502 184.059 -67.6631Z" fill="#151323"/>
<path fill-rule="evenodd" clip-rule="evenodd" d="M140.09 135.083C159.774 154.93 162.703 146.694 169.233 119.514C171.358 110.671 176.404 102.383 186.472 96.7205C216.548 79.8056 301.403 89.7845 212.176 50.0752C189.996 40.2046 132.204 68.1143 120.649 86.9874C112.069 101.004 124.771 119.636 140.09 135.083Z" fill="#181627"/>
<path opacity="0.736072" fill-rule="evenodd" clip-rule="evenodd" d="M800.906 327.665C800.237 325.184 799.205 322.815 797.843 320.635C788.279 305.329 764.733 311.035 763.237 329.022L757.616 396.595C757.103 402.754 755.251 408.751 751.576 413.72C745 422.612 732.615 436.929 716.457 444.56C691.913 456.152 682.439 448.912 678.381 449.585C654.162 453.603 673.08 499.693 678.381 538.377C686.547 597.96 695.209 649.165 702.429 668.129C714.336 699.404 787.352 712.766 787.352 712.766L843.87 487.159L800.906 327.665Z" fill="#151323"/>
</g>
<path fill-rule="evenodd" clip-rule="evenodd" d="M376.715 318.386C371.982 315.903 366.655 314.776 361.322 315.129L223.896 324.244L273.71 369.909L525.621 401.511C533.709 402.525 536.709 391.238 529.184 388.103L434.072 348.482L376.715 318.386Z" fill="url(#paint8_linear_167_2244)"/>
<path fill-rule="evenodd" clip-rule="evenodd" d="M226.058 322.991L206.577 306.305C204.889 304.86 202.74 304.065 200.518 304.065C191.637 304.065 187.794 315.311 194.817 320.746L287.112 392.172C287.721 392.643 288.469 392.899 289.238 392.899C292.353 392.899 293.893 389.114 291.662 386.939L226.058 322.991Z" fill="#35334F" stroke="black" stroke-width="2"/>
<path fill-rule="evenodd" clip-rule="evenodd" d="M350.198 264.152C350.992 264.362 351.646 263.583 351.309 262.834C348.263 256.076 337.214 231.924 329.231 219.149C321.268 206.404 298.562 191.625 292.036 187.543C291.323 187.096 290.449 187.678 290.586 188.509C292.03 197.271 298.402 231.58 311.416 244.265C323.933 256.465 343.962 262.5 350.198 264.152Z" fill="#181627"/>
<mask id="mask2_167_2244" style="mask-type:alpha" maskUnits="userSpaceOnUse" x="290" y="187" width="62" height="78">
<path fill-rule="evenodd" clip-rule="evenodd" d="M350.198 264.152C350.992 264.362 351.646 263.583 351.309 262.834C348.263 256.076 337.214 231.924 329.231 219.149C321.268 206.404 298.562 191.625 292.036 187.543C291.323 187.096 290.449 187.678 290.586 188.509C292.03 197.271 298.402 231.58 311.416 244.265C323.933 256.465 343.962 262.5 350.198 264.152Z" fill="white"/>
</mask>
<g mask="url(#mask2_167_2244)">
<path fill-rule="evenodd" clip-rule="evenodd" d="M360.478 272.6C360.478 272.6 327.474 256.562 314.697 255.773C301.92 254.985 295.597 242.143 295.597 242.143L290.697 232.398C290.697 232.398 266.056 189.729 276.584 189.729C287.111 189.729 309.665 226.033 325.974 242.143C342.284 258.254 360.478 272.6 360.478 272.6Z" fill="#201E33"/>
<path fill-rule="evenodd" clip-rule="evenodd" d="M328.697 207.803C328.697 207.803 323.596 213.64 310.819 212.852C298.042 212.064 285.597 205.143 285.597 205.143L280.697 195.398C280.697 195.398 297.55 204.671 308.078 204.671C318.605 204.671 328.697 197.434 328.697 197.434V207.803Z" fill="#3B3857"/>
<path fill-rule="evenodd" clip-rule="evenodd" d="M338.697 230.803C338.697 230.803 333.596 236.64 320.819 235.852C308.042 235.064 295.597 228.143 295.597 228.143L290.697 218.398C290.697 218.398 307.55 227.671 318.078 227.671C328.605 227.671 338.697 220.434 338.697 220.434V230.803Z" fill="#3B3857"/>
</g>
<path fill-rule="evenodd" clip-rule="evenodd" d="M106.496 162.848L113.08 167.386L114.725 168.683L178.56 165.407C179.112 165.379 179.582 165.803 179.61 166.355C179.639 166.906 179.214 167.376 178.663 167.404L117.108 170.564L127.855 179.041L194.24 182.519C194.791 182.547 195.215 183.018 195.186 183.569C195.157 184.121 194.687 184.545 194.135 184.516L130.575 181.187L133.1 183.178C134.838 184.55 134.031 187.34 131.829 187.571C131.238 187.634 130.644 187.48 130.157 187.139L102.875 168.065C100.467 166.381 101.44 162.611 104.362 162.304C105.116 162.225 105.873 162.418 106.496 162.848Z" fill="#363451"/>
<path d="M113.08 167.386L113.699 166.601L113.674 166.581L113.648 166.563L113.08 167.386ZM106.496 162.848L107.064 162.024V162.024L106.496 162.848ZM114.725 168.683L114.105 169.469L114.401 169.701L114.776 169.682L114.725 168.683ZM178.56 165.407L178.612 166.406H178.612L178.56 165.407ZM179.61 166.355L180.609 166.303V166.303L179.61 166.355ZM178.663 167.404L178.612 166.406L178.663 167.404ZM117.108 170.564L117.057 169.565L114.401 169.701L116.489 171.349L117.108 170.564ZM127.855 179.041L127.236 179.827L127.486 180.023L127.803 180.04L127.855 179.041ZM194.24 182.519L194.188 183.517L194.24 182.519ZM195.186 183.569L196.185 183.622V183.622L195.186 183.569ZM194.135 184.516L194.188 183.517L194.135 184.516ZM130.575 181.187L130.627 180.188L127.486 180.023L129.956 181.972L130.575 181.187ZM133.1 183.178L132.481 183.964L133.1 183.178ZM131.829 187.571L131.725 186.577L131.829 187.571ZM130.157 187.139L130.73 186.32H130.73L130.157 187.139ZM102.875 168.065L102.302 168.884H102.302L102.875 168.065ZM104.362 162.304L104.467 163.299L104.362 162.304ZM113.648 166.563L107.064 162.024L105.929 163.671L112.512 168.209L113.648 166.563ZM115.344 167.898L113.699 166.601L112.461 168.171L114.105 169.469L115.344 167.898ZM114.776 169.682L178.612 166.406L178.509 164.408L114.673 167.685L114.776 169.682ZM178.612 166.406L178.612 166.406L180.609 166.303C180.552 165.2 179.612 164.352 178.509 164.408L178.612 166.406ZM178.612 166.406V166.406L178.714 168.403C179.817 168.347 180.666 167.406 180.609 166.303L178.612 166.406ZM178.612 166.406L117.057 169.565L117.16 171.562L178.714 168.403L178.612 166.406ZM128.475 178.256L117.728 169.779L116.489 171.349L127.236 179.827L128.475 178.256ZM127.803 180.04L194.188 183.517L194.292 181.52L127.908 178.043L127.803 180.04ZM194.188 183.517V183.517L196.185 183.622C196.243 182.519 195.395 181.578 194.292 181.52L194.188 183.517ZM194.188 183.517V183.517L194.083 185.514C195.186 185.572 196.127 184.725 196.185 183.622L194.188 183.517ZM194.188 183.517L130.627 180.188L130.523 182.185L194.083 185.514L194.188 183.517ZM133.719 182.393L131.194 180.402L129.956 181.972L132.481 183.964L133.719 182.393ZM131.934 188.566C135.028 188.241 136.162 184.32 133.719 182.393L132.481 183.964C133.515 184.779 133.035 186.439 131.725 186.577L131.934 188.566ZM129.584 187.959C130.268 188.438 131.103 188.653 131.934 188.566L131.725 186.577C131.373 186.614 131.019 186.523 130.73 186.32L129.584 187.959ZM102.302 168.884L129.584 187.959L130.73 186.32L103.448 167.245L102.302 168.884ZM104.258 161.31C100.415 161.713 99.1352 166.67 102.302 168.884L103.448 167.245C101.798 166.092 102.465 163.509 104.467 163.299L104.258 161.31ZM107.064 162.024C106.244 161.459 105.248 161.205 104.258 161.31L104.467 163.299C104.983 163.244 105.502 163.376 105.929 163.671L107.064 162.024Z" fill="black"/>
<path d="M273.71 369.909L529.231 400.757" stroke="black" stroke-width="2" stroke-linecap="round"/>
<path d="M687.63 251.272L677.324 307.457" stroke="black" stroke-width="2" stroke-linecap="round"/>
<path d="M642.694 232.067L598.972 241.031" stroke="black" stroke-width="2" stroke-linecap="round"/>
<path fill-rule="evenodd" clip-rule="evenodd" d="M228.415 324.047L369.477 314.588L436.663 348.482L251.82 346.645L228.415 324.047Z" fill="white" fill-opacity="0.2"/>
<path d="M226.058 322.991L369.477 314.588" stroke="black" stroke-width="2" stroke-linecap="round"/>
<path fill-rule="evenodd" clip-rule="evenodd" d="M262.451 122.049C266.674 123.008 269.908 118.476 267.698 114.752L227.809 47.508C226.23 44.8462 223.603 42.9728 220.572 42.3471L205.439 39.2234C203.981 38.9224 202.717 40.2635 203.103 41.7014L219.943 104.339C220.272 105.56 221.047 106.61 222.137 107.25C225.242 109.071 232.229 112.977 239.62 115.811C245.109 117.915 254.835 120.317 262.451 122.049Z" fill="#232137"/>
<path d="M216.058 94.8377L202.638 40.1049C202.463 39.3912 203.091 38.7389 203.811 38.8874L224.904 43.2412C225.176 43.2974 225.413 43.4643 225.557 43.7019L261.323 102.655" stroke="black" stroke-width="2"/>
<path d="M171.569 157.752C171.569 157.752 161.981 123.665 173.492 106.938C185.003 90.2121 215.931 94.0357 215.931 94.0357" stroke="black" stroke-width="2"/>
<path d="M606 448C606 450.581 605.266 452.876 604.131 454.498C602.993 456.123 601.517 457 600 457C598.483 457 597.007 456.123 595.869 454.498C594.734 452.876 594 450.581 594 448C594 445.419 594.734 443.124 595.869 441.502C597.007 439.877 598.483 439 600 439C601.517 439 602.993 439.877 604.131 441.502C605.266 443.124 606 445.419 606 448Z" fill="#181627" stroke="black" stroke-width="2"/>
<path d="M585 438C585 440.581 584.266 442.876 583.131 444.498C581.993 446.123 580.517 447 579 447C577.483 447 576.007 446.123 574.869 444.498C573.734 442.876 573 440.581 573 438C573 435.419 573.734 433.124 574.869 431.502C576.007 429.877 577.483 429 579 429C580.517 429 581.993 429.877 583.131 431.502C584.266 433.124 585 435.419 585 438Z" fill="#181627" stroke="black" stroke-width="2"/>
<path d="M173.263 117.52C173.263 117.52 224.704 116.689 304.697 181.673C384.69 246.657 335.025 255.102 425.293 320C515.562 384.899 677.324 446 677.324 446" stroke="black" stroke-width="2"/>
<path fill-rule="evenodd" clip-rule="evenodd" d="M575.794 287.993C574.489 296.953 574.042 305.53 573.902 311.38C573.853 313.436 571.34 314.051 570.554 312.151C567.899 305.73 564.85 295.581 566.358 285.231C567.93 274.445 573.837 267.636 578.007 264.067C579.41 262.867 581.185 264.261 580.649 266.027C579.221 270.73 577.185 278.446 575.794 287.993Z" fill="white"/>
</g>
<defs>
<filter id="filter0_f_167_2244" x="126.972" y="67.4134" width="100.292" height="104.213" filterUnits="userSpaceOnUse" color-interpolation-filters="sRGB">
<feFlood flood-opacity="0" result="BackgroundImageFix"/>
<feBlend mode="normal" in="SourceGraphic" in2="BackgroundImageFix" result="shape"/>
<feGaussianBlur stdDeviation="9.51399" result="effect1_foregroundBlur_167_2244"/>
</filter>
<linearGradient id="paint0_linear_167_2244" x1="190.311" y1="134.522" x2="198.813" y2="96.1135" gradientUnits="userSpaceOnUse">
<stop stop-color="#4E479D"/>
<stop offset="1" stop-color="#161424"/>
</linearGradient>
<linearGradient id="paint1_linear_167_2244" x1="339.38" y1="168.346" x2="250.447" y2="253.861" gradientUnits="userSpaceOnUse">
<stop stop-color="#4E479D"/>
<stop offset="1" stop-color="#161424"/>
</linearGradient>
<linearGradient id="paint2_linear_167_2244" x1="361.38" y1="168.346" x2="272.447" y2="253.861" gradientUnits="userSpaceOnUse">
<stop stop-color="#4E479D"/>
<stop offset="1" stop-color="#161424"/>
</linearGradient>
<linearGradient id="paint3_linear_167_2244" x1="242.068" y1="182.524" x2="112.866" y2="95.3764" gradientUnits="userSpaceOnUse">
<stop stop-color="#4E479D"/>
<stop offset="1" stop-color="#161424"/>
</linearGradient>
<linearGradient id="paint4_linear_167_2244" x1="268.068" y1="156.524" x2="138.866" y2="69.3764" gradientUnits="userSpaceOnUse">
<stop stop-color="#4E479D"/>
<stop offset="1" stop-color="#161424"/>
</linearGradient>
<linearGradient id="paint5_linear_167_2244" x1="218.539" y1="126.56" x2="131.911" y2="68.1286" gradientUnits="userSpaceOnUse">
<stop stop-color="#4E479D"/>
<stop offset="1" stop-color="#161424"/>
</linearGradient>
<linearGradient id="paint6_linear_167_2244" x1="497" y1="287.5" x2="688" y2="287.5" gradientUnits="userSpaceOnUse">
<stop stop-color="#0058FF"/>
<stop offset="1" stop-color="#F700FE"/>
</linearGradient>
<linearGradient id="paint7_linear_167_2244" x1="154.296" y1="300.913" x2="747.343" y2="300.913" gradientUnits="userSpaceOnUse">
<stop stop-color="#0058FF"/>
<stop offset="1" stop-color="#F700FE"/>
</linearGradient>
<linearGradient id="paint8_linear_167_2244" x1="223.896" y1="361.258" x2="576.771" y2="361.258" gradientUnits="userSpaceOnUse">
<stop stop-color="#0058FF"/>
<stop offset="1" stop-color="#F700FE"/>
</linearGradient>
<clipPath id="clip0_167_2244">
<rect width="796" height="547" fill="white"/>
</clipPath>
</defs>
</svg>
