<svg width="480" height="478" viewBox="0 0 480 478" fill="none" xmlns="http://www.w3.org/2000/svg">
<g clip-path="url(#clip0_167_2154)">
<path d="M227.463 332.435C233.027 336.04 240.461 334.449 244.063 328.883L364.772 142.335C370.964 132.765 368.392 120.004 358.977 113.58L219.668 18.5229C212.017 13.3026 201.546 15.6486 196.855 23.6342L81.6415 219.732C77.3027 227.117 79.5489 236.609 86.7372 241.266L227.463 332.435Z" fill="#12101E" stroke="black" stroke-width="2"/>
<path fill-rule="evenodd" clip-rule="evenodd" d="M234.555 460.786C232.804 463.346 228.794 461.89 229.093 458.803L239.954 346.818C240.707 339.05 243.305 331.575 247.531 325.014L367.118 139.356C369.729 135.302 376 136.929 376.311 141.742L381.822 227.059C382.528 237.991 379.55 248.844 373.365 257.885L234.555 460.786Z" fill="#373451" stroke="black" stroke-width="2"/>
<path fill-rule="evenodd" clip-rule="evenodd" d="M275.792 388.337C274.628 390.045 271.954 389.081 272.148 387.023L274.112 366.213C274.566 361.405 276.213 356.786 278.905 352.776L325.255 283.717C326.383 282.036 329.008 282.903 328.914 284.925L327.957 305.458C327.75 309.893 326.317 314.185 323.816 317.854L275.792 388.337Z" fill="#1C1A2E" stroke="black" stroke-width="2"/>
<path d="M232.633 463.036V463.036C236.841 465.466 242.209 464.264 244.979 460.271L381.832 263.038C387.85 254.365 390.701 243.887 389.909 233.361L383.28 145.297C383.081 142.66 381.593 140.291 379.303 138.969L375.646 136.858" stroke="black" stroke-width="2" stroke-linecap="round"/>
<path fill-rule="evenodd" clip-rule="evenodd" d="M245.987 392.397C244.838 394.136 242.127 393.178 242.327 391.103L247.626 336.16L361.477 160.519C362.543 158.874 365.094 159.586 365.155 161.545L366.556 206.592C366.621 208.658 366.044 210.692 364.905 212.416L245.987 392.397Z" stroke="black" stroke-width="2"/>
<path d="M253.285 361.258L354.156 206.487" stroke="black" stroke-width="2" stroke-linecap="round"/>
<path d="M256.947 337.466L357.818 182.695" stroke="black" stroke-width="2" stroke-linecap="round"/>
<path d="M270.067 342.163L270.824 310.936" stroke="black" stroke-width="2" stroke-linecap="round"/>
<path d="M286.559 318.582L287.317 287.355" stroke="black" stroke-width="2" stroke-linecap="round"/>
<path d="M302.429 296.081L303.187 264.854" stroke="black" stroke-width="2" stroke-linecap="round"/>
<path d="M318.633 268.015L319.39 236.789" stroke="black" stroke-width="2" stroke-linecap="round"/>
<path d="M332.343 244.268L333.101 213.041" stroke="black" stroke-width="2" stroke-linecap="round"/>
<path fill-rule="evenodd" clip-rule="evenodd" d="M236.279 304.985C235.375 306.374 233.515 306.766 232.127 305.861L109.439 225.848C106.698 224.06 105.895 220.405 107.635 217.632L132.471 178.07C133.359 176.656 135.231 176.239 136.636 177.143L260.429 256.873C263.225 258.674 264.023 262.406 262.207 265.192L236.279 304.985Z" fill="#161424"/>
<path fill-rule="evenodd" clip-rule="evenodd" d="M169.057 178.039C168.164 179.406 166.341 179.808 164.956 178.942L145.543 166.815C142.751 165.07 141.886 161.401 143.605 158.593L168.426 118.059C169.292 116.646 171.139 116.202 172.552 117.068L193.234 129.744C196.118 131.511 196.972 135.31 195.122 138.141L169.057 178.039Z" fill="#FFEC6A" fill-opacity="0.1"/>
<path fill-rule="evenodd" clip-rule="evenodd" d="M243.057 226.039C242.164 227.406 240.341 227.808 238.956 226.942L219.543 214.815C216.751 213.07 215.886 209.401 217.605 206.593L242.426 166.059C243.292 164.646 245.139 164.202 246.552 165.068L267.234 177.744C270.118 179.511 270.972 183.31 269.122 186.141L243.057 226.039Z" fill="#161424"/>
<path fill-rule="evenodd" clip-rule="evenodd" d="M205.057 120.039C204.164 121.406 202.341 121.808 200.956 120.942L181.543 108.815C178.751 107.07 177.886 103.401 179.605 100.593L204.426 60.0594C205.292 58.646 207.139 58.2022 208.552 59.0682L229.234 71.7436C232.118 73.5105 232.972 77.3099 231.122 80.1408L205.057 120.039Z" fill="#0058FF" fill-opacity="0.1"/>
<path fill-rule="evenodd" clip-rule="evenodd" d="M279.057 167.039C278.164 168.406 276.341 168.808 274.956 167.942L255.543 155.815C252.751 154.07 251.886 150.401 253.605 147.593L278.426 107.059C279.292 105.646 281.139 105.202 282.552 106.068L303.234 118.744C306.118 120.511 306.972 124.31 305.122 127.141L279.057 167.039Z" fill="#F700FE" fill-opacity="0.1"/>
<path fill-rule="evenodd" clip-rule="evenodd" d="M233.416 287.967C232.587 289.402 230.752 289.894 229.317 289.065L223.719 285.833C222.284 285.005 221.793 283.17 222.621 281.735L235.201 259.945C236.03 258.511 237.865 258.019 239.3 258.847L244.898 262.08C246.333 262.908 246.824 264.743 245.996 266.178L233.416 287.967Z" fill="#2FFD61"/>
<circle cx="241" cy="116" r="15" transform="rotate(-90 241 116)" fill="#0058FF"/>
<circle cx="310" cy="166" r="15" transform="rotate(-90 310 166)" fill="#F700FE"/>
<circle cx="206" cy="172" r="15" transform="rotate(-90 206 172)" fill="#FFEC6A"/>
<circle cx="275" cy="222" r="15" transform="rotate(-90 275 222)" fill="#1C1A2E"/>
<path d="M124.5 147.822L129.357 150.876C130.776 151.769 132.651 151.325 133.52 149.891L157.046 111.051C157.864 109.7 157.495 107.946 156.201 107.04L154.676 105.971L151.149 103.5" stroke="black" stroke-width="2"/>
</g>
<defs>
<clipPath id="clip0_167_2154">
<rect width="480" height="478" fill="white"/>
</clipPath>
</defs>
</svg>
