<svg width="306" height="232" viewBox="0 0 306 232" fill="none" xmlns="http://www.w3.org/2000/svg">
<g clip-path="url(#clip0_165_6046)">
<path opacity="0.565453" fill-rule="evenodd" clip-rule="evenodd" d="M-7.49216 9.33811L43.1212 41.9136L37.9159 53.4137L-28.5935 6.3242L-7.49216 9.33811Z" fill="url(#paint0_linear_165_6046)"/>
<path fill-rule="evenodd" clip-rule="evenodd" d="M-5.37106 15.6997L40.037 44.7879L40.037 59.7753L-26.4724 12.6858L-5.37106 15.6997Z" fill="url(#paint1_linear_165_6046)"/>
<path fill-rule="evenodd" clip-rule="evenodd" d="M3.95975 15.6997L49.3678 44.7879L49.3678 59.7753L-17.1416 12.6858L3.95975 15.6997Z" fill="url(#paint2_linear_165_6046)"/>
<path fill-rule="evenodd" clip-rule="evenodd" d="M1.41507 23.3345L46.8231 52.4227L46.8231 67.4101L-19.6862 20.3206L1.41507 23.3345Z" fill="url(#paint3_linear_165_6046)"/>
<path fill-rule="evenodd" clip-rule="evenodd" d="M12.4422 12.3067L57.8502 41.3948L57.8502 56.3823L-8.65914 9.29278L12.4422 12.3067Z" fill="url(#paint4_linear_165_6046)"/>
<g opacity="0.302362" filter="url(#filter0_f_165_6046)">
<ellipse cx="43.1218" cy="50.6923" rx="13.1982" ry="14.0297" fill="#4E479D"/>
</g>
<path opacity="0.180362" fill-rule="evenodd" clip-rule="evenodd" d="M9.73973 13.4816L49.2517 40.2236L40.4078 43.5391L-0.540228 16.3576L9.73973 13.4816Z" fill="url(#paint5_linear_165_6046)"/>
<path fill-rule="evenodd" clip-rule="evenodd" d="M251.994 99.4387C249.602 98.2136 246.875 97.8057 244.229 98.2774L178.793 109.944L251.551 146.325L259.381 105.625C259.631 104.329 258.994 103.023 257.819 102.422L251.994 99.4387Z" fill="url(#paint6_linear_165_6046)"/>
<path fill-rule="evenodd" clip-rule="evenodd" d="M250.514 96.2441L242.892 92.5955C242.232 92.2793 241.48 92.2097 240.773 92.3992C237.947 93.1564 237.683 97.0627 240.381 98.1933L275.841 113.053C276.075 113.15 276.334 113.168 276.579 113.102C277.571 112.837 277.738 111.501 276.842 110.999L250.514 96.2441Z" fill="#35334F" stroke="black" stroke-width="0.848263"/>
<path d="M66.3184 40.8266C61.1992 40.0655 54.0847 39.0262 47.7682 39.2571C44.6099 39.3726 41.6221 39.8061 39.1707 40.7677C36.7144 41.7312 34.7655 43.2385 33.7538 45.5132C32.7454 47.7805 32.8428 50.4746 33.6261 53.3128C34.4103 56.1548 35.8946 59.1881 37.7251 62.1734C41.3867 68.145 46.4757 73.9918 50.2893 77.8371C57.9019 85.5129 112.369 136.523 168.39 172.569C224.395 208.604 247.772 214.584 257.481 215.904C259.998 216.246 264.347 215.914 268.802 214.559C273.259 213.203 277.887 210.803 280.904 206.953C283.832 203.215 285.174 197.904 285.371 192.566C285.568 187.223 284.621 181.788 282.907 177.758C282.484 176.762 282.042 175.693 281.571 174.554C278.245 166.502 273.494 155.003 263.796 141.786C252.724 126.697 235.214 109.379 206.022 92.3299C147.672 58.2517 76.6055 42.3562 66.3184 40.8266Z" fill="url(#paint7_linear_165_6046)" stroke="black" stroke-width="0.848263"/>
<mask id="mask0_165_6046" style="mask-type:luminance" maskUnits="userSpaceOnUse" x="32" y="38" width="254" height="179">
<path d="M66.3184 40.8266C61.1992 40.0655 54.0847 39.0262 47.7682 39.2571C44.6099 39.3726 41.6221 39.8061 39.1707 40.7677C36.7144 41.7312 34.7655 43.2385 33.7538 45.5132C32.7454 47.7805 32.8428 50.4746 33.6261 53.3128C34.4103 56.1548 35.8946 59.1881 37.7251 62.1734C41.3867 68.145 46.4757 73.9918 50.2893 77.8371C57.9019 85.5129 112.369 136.523 168.39 172.569C224.395 208.604 247.772 214.584 257.481 215.904C259.998 216.246 264.347 215.914 268.802 214.559C273.259 213.203 277.887 210.803 280.904 206.953C283.832 203.215 285.174 197.904 285.371 192.566C285.568 187.223 284.621 181.788 282.907 177.758C282.484 176.762 282.042 175.693 281.571 174.554C278.245 166.502 273.494 155.003 263.796 141.786C252.724 126.697 235.214 109.379 206.022 92.3299C147.672 58.2517 76.6055 42.3562 66.3184 40.8266Z" fill="white" stroke="white" stroke-width="0.848263"/>
</mask>
<g mask="url(#mask0_165_6046)">
<path fill-rule="evenodd" clip-rule="evenodd" d="M161.229 73.2337C151.713 71.3618 138.603 68.642 132.473 69.9983C126.405 71.3409 124.941 78.2427 128.041 83.6294C134.431 94.7343 146.253 114.606 161.229 136.741C167.358 145.8 188.176 155.448 203.281 162.235C226.548 172.69 246.912 181.083 255.356 182.748C269.281 185.495 290.498 162.235 290.498 162.235L222.054 91.2001C222.054 91.2001 170.745 75.1057 161.229 73.2337Z" fill="#151323"/>
<mask id="mask1_165_6046" style="mask-type:luminance" maskUnits="userSpaceOnUse" x="126" y="69" width="165" height="114">
<path fill-rule="evenodd" clip-rule="evenodd" d="M161.229 73.2337C151.713 71.3618 138.603 68.642 132.473 69.9983C126.405 71.3409 124.941 78.2427 128.041 83.6294C134.431 94.7343 146.253 114.606 161.229 136.741C167.358 145.8 188.176 155.448 203.281 162.235C226.548 172.69 246.912 181.083 255.356 182.748C269.281 185.495 290.498 162.235 290.498 162.235L222.054 91.2001C222.054 91.2001 170.745 75.1057 161.229 73.2337Z" fill="white"/>
</mask>
<g mask="url(#mask1_165_6046)">
<path fill-rule="evenodd" clip-rule="evenodd" d="M138.707 84.0805C137.507 83.95 136.312 83.9004 135.105 83.9004L113.582 83.9004C112.385 83.9004 111.22 84.2804 110.253 84.9856C107.965 86.6545 107.262 89.7402 108.653 92.2069C113.844 101.412 127.088 124.3 144.688 150.313C150.817 159.373 171.635 169.02 186.74 175.808C210.007 186.262 230.371 194.655 238.815 196.32C252.74 199.067 273.957 175.808 273.957 175.808C273.957 175.808 231.154 121.969 205.513 104.772C182.984 89.6634 147.09 84.992 138.707 84.0805Z" fill="#12101E"/>
<path fill-rule="evenodd" clip-rule="evenodd" d="M204.913 162.941C204.913 162.941 193.732 130.863 198.407 114.763C203.081 98.6634 218.703 100.318 218.703 100.318L228.226 105.147C228.226 105.147 202.257 96.9915 202.257 125.12C202.257 153.249 223.212 172.027 223.212 172.027L204.913 162.941Z" fill="#2A293E"/>
</g>
<path opacity="0.11556" fill-rule="evenodd" clip-rule="evenodd" d="M13.2949 47.0383C13.7666 47.6891 14.2963 48.2859 14.8495 48.8691L86.5319 124.437C88.363 126.368 89.9243 128.513 91.2271 130.833C96.0593 139.438 109.576 162.936 127.722 189.757C133.851 198.817 154.669 208.464 169.774 215.252C193.04 225.706 213.405 234.099 221.849 235.765C227.929 236.964 248.999 239.306 256 225.848C259.689 218.757 259.644 192.111 259.644 192.111L178.261 155.647C178.261 155.647 125.152 131.402 105.553 117.406C69.139 91.4037 48.0628 62.7156 33.4413 52.9127C4.64256 33.6047 10.8583 43.6762 13.2949 47.0383Z" fill="#151323"/>
<path opacity="0.11556" fill-rule="evenodd" clip-rule="evenodd" d="M29.7651 42.98C14.2725 32.593 17.92 41.1474 26.9787 57.4523C27.2381 57.9193 27.5094 58.3845 27.7931 58.8475C36.7255 73.4272 66.6091 100.038 75.6355 107.917C77.363 109.425 79.2457 110.694 81.2275 111.848C90.3754 117.173 118.525 135.024 137.477 163.037C143.606 172.096 164.424 181.744 179.53 188.531C202.796 198.986 223.16 207.379 231.604 209.044C237.684 210.243 280.203 227.963 287.204 214.505C290.893 207.414 300.13 172.026 300.13 172.026L188.017 128.926C188.017 128.926 163.454 143.43 153.559 138.471C136.141 129.742 123.037 112.718 113.927 95.1652C100.112 68.5461 44.3866 52.7829 29.7651 42.98Z" fill="#151323"/>
<path opacity="0.11556" fill-rule="evenodd" clip-rule="evenodd" d="M46.0647 -28.6982C30.5721 -39.0852 34.2196 -30.5308 43.2782 -14.2259C43.5377 -13.7589 43.809 -13.2937 44.0927 -12.8307C53.025 1.74897 82.9087 28.3594 91.935 36.2387C93.6625 37.7467 95.5453 39.0163 97.5271 40.1699C106.675 45.4951 134.824 63.346 153.777 91.3586C159.906 100.418 180.724 110.066 195.829 116.853C219.095 127.308 239.46 135.701 247.904 137.366C253.984 138.565 275.054 140.907 282.055 127.449C285.743 120.359 316.429 100.348 316.429 100.348L204.316 57.248C204.316 57.248 179.754 71.7514 169.859 66.7926C152.44 58.0635 139.337 41.0398 130.227 23.4869C116.412 -3.13216 60.6862 -18.8953 46.0647 -28.6982Z" fill="#151323"/>
<path fill-rule="evenodd" clip-rule="evenodd" d="M27.4161 57.2926C35.7647 65.7106 37.0072 62.2173 39.7767 50.6894C40.6778 46.9387 42.818 43.4234 47.0881 41.022C59.8445 33.8479 95.8342 38.0802 57.9899 21.2382C48.583 17.0518 24.0712 28.8892 19.1708 36.8939C15.5313 42.8388 20.9187 50.7411 27.4161 57.2926Z" fill="#181627"/>
<path opacity="0.736072" fill-rule="evenodd" clip-rule="evenodd" d="M307.689 138.973C307.405 137.92 306.967 136.916 306.39 135.991C302.333 129.499 292.347 131.92 291.712 139.548L289.328 168.208C289.111 170.82 288.325 173.364 286.766 175.471C283.977 179.243 278.724 185.315 271.871 188.552C261.461 193.468 257.443 190.397 255.722 190.683C245.45 192.387 253.474 211.935 255.722 228.342C259.185 253.613 262.859 275.331 265.922 283.374C270.972 296.639 301.94 302.306 301.94 302.306L325.911 206.619L307.689 138.973Z" fill="#151323"/>
</g>
<path fill-rule="evenodd" clip-rule="evenodd" d="M127.777 135.037C125.77 133.984 123.51 133.506 121.248 133.656L62.9614 137.522L84.0893 156.89L190.932 170.293C194.363 170.724 195.635 165.936 192.444 164.607L152.104 147.802L127.777 135.037Z" fill="url(#paint8_linear_165_6046)"/>
<path fill-rule="evenodd" clip-rule="evenodd" d="M63.8786 136.991L55.6161 129.914C54.9002 129.3 53.9887 128.963 53.0462 128.963C49.2798 128.963 47.6497 133.733 50.6283 136.038L89.7737 166.332C90.0318 166.532 90.3489 166.641 90.6752 166.641C91.9965 166.641 92.6495 165.035 91.7033 164.113L63.8786 136.991Z" fill="#35334F" stroke="black" stroke-width="0.848263"/>
<path fill-rule="evenodd" clip-rule="evenodd" d="M116.53 112.035C116.867 112.124 117.145 111.794 117.001 111.476C115.71 108.61 111.023 98.3662 107.638 92.9479C104.26 87.5424 94.6301 81.2743 91.8623 79.5426C91.5596 79.3532 91.1889 79.6002 91.247 79.9524C91.8597 83.6686 94.5622 98.2204 100.082 103.6C105.391 108.775 113.886 111.334 116.53 112.035Z" fill="#181627"/>
<mask id="mask2_165_6046" style="mask-type:luminance" maskUnits="userSpaceOnUse" x="91" y="79" width="27" height="34">
<path fill-rule="evenodd" clip-rule="evenodd" d="M116.53 112.035C116.867 112.124 117.145 111.794 117.001 111.476C115.71 108.61 111.023 98.3662 107.638 92.9479C104.26 87.5424 94.6301 81.2743 91.8623 79.5426C91.5596 79.3532 91.1889 79.6002 91.247 79.9524C91.8597 83.6686 94.5622 98.2204 100.082 103.6C105.391 108.775 113.886 111.334 116.53 112.035Z" fill="white"/>
</mask>
<g mask="url(#mask2_165_6046)">
<path fill-rule="evenodd" clip-rule="evenodd" d="M120.891 115.618C120.891 115.618 106.892 108.816 101.473 108.482C96.0542 108.147 93.3725 102.701 93.3725 102.701L91.2941 98.5675C91.2941 98.5675 80.8432 80.4703 85.3083 80.4703C89.7734 80.4703 99.339 95.8676 106.256 102.701C113.174 109.534 120.891 115.618 120.891 115.618Z" fill="#201E33"/>
<path fill-rule="evenodd" clip-rule="evenodd" d="M107.411 88.1356C107.411 88.1356 105.247 90.6115 99.8283 90.2771C94.4093 89.9427 89.131 87.0076 89.131 87.0076L87.0526 82.8744C87.0526 82.8744 94.2006 86.8072 98.6657 86.8072C103.131 86.8072 107.411 83.738 107.411 83.738V88.1356Z" fill="#3B3857"/>
<path fill-rule="evenodd" clip-rule="evenodd" d="M111.652 97.8904C111.652 97.8904 109.489 100.366 104.07 100.032C98.6505 99.6976 93.3722 96.7625 93.3722 96.7625L91.2938 92.6293C91.2938 92.6293 98.4418 96.5621 102.907 96.5621C107.372 96.5621 111.652 93.4929 111.652 93.4929V97.8904Z" fill="#3B3857"/>
</g>
<path fill-rule="evenodd" clip-rule="evenodd" d="M13.1684 69.069L15.9607 70.9939L16.6582 71.5441L43.7328 70.1545C43.9667 70.1425 44.1661 70.3224 44.1781 70.5563C44.1901 70.7902 44.0102 70.9896 43.7763 71.0016L17.6691 72.3416L22.2273 75.9372L50.383 77.412C50.6169 77.4242 50.7966 77.6238 50.7843 77.8577C50.7721 78.0916 50.5725 78.2713 50.3386 78.2591L23.3807 76.8471L24.4517 77.6919C25.1891 78.2736 24.8468 79.4569 23.9128 79.5551C23.662 79.5815 23.4101 79.5164 23.2034 79.3719L11.6323 71.2817C10.6109 70.5676 11.0238 68.9687 12.2632 68.8384C12.5828 68.8048 12.9038 68.8866 13.1684 69.069Z" fill="#363451"/>
<path d="M15.9607 70.9939L16.2234 70.6609L16.2127 70.6525L16.2014 70.6447L15.9607 70.9939ZM13.1684 69.069L13.4091 68.7198L13.4091 68.7198L13.1684 69.069ZM16.6582 71.5441L16.3955 71.8771L16.5207 71.9758L16.6799 71.9677L16.6582 71.5441ZM43.7328 70.1545L43.7545 70.5781L43.7328 70.1545ZM44.1781 70.5563L43.7545 70.578V70.5781L44.1781 70.5563ZM43.7763 71.0016L43.798 71.4252L43.7763 71.0016ZM17.6691 72.3416L17.6474 71.918L16.5207 71.9758L17.4065 72.6746L17.6691 72.3416ZM22.2273 75.9372L21.9646 76.2702L22.0705 76.3537L22.2051 76.3608L22.2273 75.9372ZM50.383 77.412L50.4052 76.9884H50.4052L50.383 77.412ZM50.7843 77.8577L51.2079 77.8799V77.8799L50.7843 77.8577ZM50.3386 78.2591L50.3608 77.8355H50.3608L50.3386 78.2591ZM23.3807 76.8471L23.4029 76.4235L22.0705 76.3537L23.118 77.1801L23.3807 76.8471ZM24.4517 77.6919L24.7144 77.3589L24.4517 77.6919ZM23.9128 79.5551L23.8684 79.1333L23.9128 79.5551ZM23.2034 79.3719L23.4465 79.0243L23.4465 79.0243L23.2034 79.3719ZM11.6323 71.2817L11.3892 71.6293H11.3892L11.6323 71.2817ZM12.2632 68.8384L12.3075 69.2602L12.2632 68.8384ZM16.2014 70.6447L13.4091 68.7198L12.9277 69.4182L15.72 71.3431L16.2014 70.6447ZM16.9208 71.2111L16.2234 70.6609L15.698 71.3269L16.3955 71.8771L16.9208 71.2111ZM16.6799 71.9677L43.7545 70.5781L43.7111 69.7309L16.6364 71.1205L16.6799 71.9677ZM43.7545 70.5781L43.7545 70.578L44.6017 70.5346C44.5777 70.0667 44.1789 69.7069 43.7111 69.7309L43.7545 70.5781ZM43.7545 70.5781L43.7545 70.5781L43.798 71.4252C44.2659 71.4012 44.6257 71.0024 44.6017 70.5346L43.7545 70.5781ZM43.7545 70.5781L17.6474 71.918L17.6909 72.7652L43.798 71.4252L43.7545 70.5781ZM22.49 75.6042L17.9318 72.0086L17.4065 72.6746L21.9646 76.2702L22.49 75.6042ZM22.2051 76.3608L50.3608 77.8355L50.4052 76.9884L22.2495 75.5137L22.2051 76.3608ZM50.3608 77.8355V77.8355L51.2079 77.8799C51.2324 77.412 50.873 77.0129 50.4052 76.9884L50.3608 77.8355ZM50.3608 77.8355L50.3608 77.8355L50.3164 78.6826C50.7843 78.7071 51.1834 78.3477 51.2079 77.8799L50.3608 77.8355ZM50.3608 77.8355L23.4029 76.4235L23.3585 77.2706L50.3164 78.6826L50.3608 77.8355ZM24.7144 77.3589L23.6434 76.5141L23.118 77.1801L24.1891 78.0249L24.7144 77.3589ZM23.9571 79.9769C25.2695 79.839 25.7505 78.1763 24.7144 77.3589L24.1891 78.0249C24.6277 78.371 24.4241 79.0749 23.8684 79.1333L23.9571 79.9769ZM22.9604 79.7195C23.2508 79.9226 23.6047 80.014 23.9571 79.9769L23.8684 79.1333C23.7192 79.149 23.5694 79.1103 23.4465 79.0243L22.9604 79.7195ZM11.3892 71.6293L22.9604 79.7195L23.4465 79.0243L11.8753 70.9341L11.3892 71.6293ZM12.2189 68.4166C10.5892 68.5879 10.0462 70.6903 11.3892 71.6293L11.8753 70.9341C11.1756 70.4448 11.4585 69.3495 12.3075 69.2602L12.2189 68.4166ZM13.4091 68.7198C13.0613 68.48 12.6391 68.3725 12.2189 68.4166L12.3075 69.2602C12.5265 69.2372 12.7464 69.2933 12.9277 69.4182L13.4091 68.7198Z" fill="black"/>
<path d="M84.0891 156.89L192.464 169.974" stroke="black" stroke-width="0.848263" stroke-linecap="round"/>
<path d="M259.646 106.572L255.274 130.402" stroke="black" stroke-width="0.848263" stroke-linecap="round"/>
<path d="M240.587 98.4268L222.043 102.229" stroke="black" stroke-width="0.848263" stroke-linecap="round"/>
<path fill-rule="evenodd" clip-rule="evenodd" d="M64.8777 137.439L124.707 133.427L153.202 147.802L74.8046 147.023L64.8777 137.439Z" fill="white" fill-opacity="0.2"/>
<path d="M63.8784 136.991L124.707 133.427" stroke="black" stroke-width="0.848263" stroke-linecap="round"/>
<path fill-rule="evenodd" clip-rule="evenodd" d="M79.3139 51.7644C81.105 52.1716 82.4766 50.2493 81.5395 48.6695L64.6214 20.1494C63.9517 19.0205 62.8375 18.2259 61.5519 17.9605L55.1334 16.6357C54.5149 16.508 53.9788 17.0768 54.1428 17.6867L61.2852 44.2532C61.4244 44.7711 61.7532 45.2163 62.2157 45.4877C63.5323 46.2602 66.4959 47.917 69.6307 49.1187C71.9588 50.0112 76.0837 51.0302 79.3139 51.7644Z" fill="#232137"/>
<path d="M59.6374 40.2234L53.9453 17.0095C53.8711 16.7068 54.1377 16.4301 54.443 16.4932L63.3891 18.3397C63.5045 18.3636 63.6048 18.4344 63.6659 18.5351L78.8354 43.5389" stroke="black" stroke-width="0.848263"/>
<path d="M40.768 66.9081C40.768 66.9081 36.7013 52.4504 41.5834 45.3562C46.4655 38.2621 59.5831 39.8838 59.5831 39.8838" stroke="black" stroke-width="0.848263"/>
<path d="M225.024 190.011C225.024 191.106 224.712 192.079 224.231 192.767C223.748 193.456 223.122 193.828 222.479 193.828C221.835 193.828 221.21 193.456 220.727 192.767C220.245 192.079 219.934 191.106 219.934 190.011C219.934 188.916 220.245 187.943 220.727 187.255C221.21 186.566 221.835 186.194 222.479 186.194C223.122 186.194 223.748 186.566 224.231 187.255C224.712 187.943 225.024 188.916 225.024 190.011Z" fill="#181627" stroke="black" stroke-width="0.848263"/>
<path d="M216.117 185.77C216.117 186.864 215.806 187.838 215.324 188.525C214.842 189.215 214.216 189.587 213.572 189.587C212.929 189.587 212.303 189.215 211.82 188.525C211.339 187.838 211.027 186.864 211.027 185.77C211.027 184.675 211.339 183.702 211.82 183.014C212.303 182.324 212.929 181.952 213.572 181.952C214.216 181.952 214.842 182.324 215.324 183.014C215.806 183.702 216.117 184.675 216.117 185.77Z" fill="#181627" stroke="black" stroke-width="0.848263"/>
<path d="M41.4863 49.8438C41.4863 49.8438 63.3041 49.4911 97.2318 77.053C131.16 104.615 110.095 108.196 148.38 135.722C186.666 163.247 255.275 189.163 255.275 189.163" stroke="black" stroke-width="0.848263"/>
<path fill-rule="evenodd" clip-rule="evenodd" d="M212.213 122.147C211.659 125.947 211.469 129.585 211.41 132.066C211.389 132.938 210.323 133.199 209.99 132.393C208.864 129.67 207.571 125.365 208.21 120.975C208.877 116.401 211.382 113.513 213.151 111.999C213.746 111.49 214.499 112.081 214.271 112.831C213.666 114.825 212.803 118.098 212.213 122.147Z" fill="white"/>
<circle cx="242.392" cy="39.3918" r="11.3918" fill="#1C1A2E"/>
<mask id="mask3_165_6046" style="mask-type:luminance" maskUnits="userSpaceOnUse" x="231" y="28" width="23" height="23">
<circle cx="242.392" cy="39.3918" r="11.3918" fill="white"/>
</mask>
<g mask="url(#mask3_165_6046)">
<circle opacity="0.480911" cx="249.523" cy="38.5581" r="13.522" fill="#2B2941"/>
<circle opacity="0.480911" cx="233.223" cy="25.7769" r="13.022" stroke="black"/>
<circle opacity="0.480911" cx="233.408" cy="27.6295" r="15.2448" stroke="black"/>
<circle opacity="0.480911" cx="235.723" cy="30.3152" r="15.1521" stroke="black"/>
<circle opacity="0.480911" cx="237.39" cy="33.4642" r="15.1521" stroke="black"/>
<circle opacity="0.480911" cx="239.057" cy="35.1316" r="15.1521" stroke="black"/>
<circle opacity="0.480911" cx="232.76" cy="25.1288" r="10.5213" stroke="black"/>
<circle opacity="0.480911" cx="231.092" cy="22.5355" r="10.5213" stroke="black"/>
</g>
</g>
<defs>
<filter id="filter0_f_165_6046" x="21.8532" y="28.5922" width="42.5372" height="44.2003" filterUnits="userSpaceOnUse" color-interpolation-filters="sRGB">
<feFlood flood-opacity="0" result="BackgroundImageFix"/>
<feBlend mode="normal" in="SourceGraphic" in2="BackgroundImageFix" result="shape"/>
<feGaussianBlur stdDeviation="4.03518" result="effect1_foregroundBlur_165_6046"/>
</filter>
<linearGradient id="paint0_linear_165_6046" x1="48.7165" y1="57.0551" x2="52.3226" y2="40.7649" gradientUnits="userSpaceOnUse">
<stop stop-color="#4E479D"/>
<stop offset="1" stop-color="#161424"/>
</linearGradient>
<linearGradient id="paint1_linear_165_6046" x1="111.942" y1="71.4009" x2="74.2227" y2="107.67" gradientUnits="userSpaceOnUse">
<stop stop-color="#4E479D"/>
<stop offset="1" stop-color="#161424"/>
</linearGradient>
<linearGradient id="paint2_linear_165_6046" x1="121.273" y1="71.4009" x2="83.5535" y2="107.67" gradientUnits="userSpaceOnUse">
<stop stop-color="#4E479D"/>
<stop offset="1" stop-color="#161424"/>
</linearGradient>
<linearGradient id="paint3_linear_165_6046" x1="70.6691" y1="77.4146" x2="15.8705" y2="40.4525" gradientUnits="userSpaceOnUse">
<stop stop-color="#4E479D"/>
<stop offset="1" stop-color="#161424"/>
</linearGradient>
<linearGradient id="paint4_linear_165_6046" x1="81.6962" y1="66.3868" x2="26.8976" y2="29.4246" gradientUnits="userSpaceOnUse">
<stop stop-color="#4E479D"/>
<stop offset="1" stop-color="#161424"/>
</linearGradient>
<linearGradient id="paint5_linear_165_6046" x1="60.6895" y1="53.6781" x2="23.9478" y2="28.8955" gradientUnits="userSpaceOnUse">
<stop stop-color="#4E479D"/>
<stop offset="1" stop-color="#161424"/>
</linearGradient>
<linearGradient id="paint6_linear_165_6046" x1="178.793" y1="121.938" x2="259.802" y2="121.938" gradientUnits="userSpaceOnUse">
<stop stop-color="#0058FF"/>
<stop offset="1" stop-color="#F700FE"/>
</linearGradient>
<linearGradient id="paint7_linear_165_6046" x1="33.4421" y1="127.627" x2="284.972" y2="127.627" gradientUnits="userSpaceOnUse">
<stop stop-color="#0058FF"/>
<stop offset="1" stop-color="#F700FE"/>
</linearGradient>
<linearGradient id="paint8_linear_165_6046" x1="62.9614" y1="153.221" x2="212.627" y2="153.221" gradientUnits="userSpaceOnUse">
<stop stop-color="#0058FF"/>
<stop offset="1" stop-color="#F700FE"/>
</linearGradient>
<clipPath id="clip0_165_6046">
<rect width="337.609" height="232" fill="white" transform="translate(-32)"/>
</clipPath>
</defs>
</svg>
