<svg width="375" height="4780" viewBox="0 0 375 4780" fill="none" xmlns="http://www.w3.org/2000/svg">
<!-- <path opacity="0.1" fill-rule="evenodd" clip-rule="evenodd" d="M337.813 72.1272L272.977 27.1999C267.739 22.858 262.168 19.0082 256.338 15.6706L254.903 14.6764L254.897 14.8591C219.817 -4.57582 175.712 -5.66032 138.452 15.8496L25.099 81.2942C-31.4153 113.923 -50.7786 186.187 -18.1501 242.702L5.03079 282.852L12.3633 329.258C22.0894 390.814 77.5791 433.435 138.24 428.631L138.188 428.718L267.617 416.835L267.475 416.738C315.986 411.297 358.235 375.875 369.622 325.163L397.241 202.164C409.091 149.394 383.613 96.6484 337.813 72.1272ZM146.507 333.68C130.833 332.415 114.141 331.068 109.42 322.593C108.717 321.33 107.898 319.885 106.984 318.271C100.044 306.018 87.6093 284.062 78.5124 258.856C73.7513 245.664 61.2647 197.193 65.0614 188.557C72.7216 171.134 157.613 99.286 167.012 92.3177C176.412 85.3495 185.973 85.8357 216.925 109.657C241.686 128.715 291.306 159.407 313.021 172.371C316.911 175.613 322.356 186.6 313.021 204.62C301.354 227.145 274.229 297.898 271.656 315.91C269.083 333.922 249.356 343.213 228.628 339.926C217.352 338.137 210.452 337.775 197.759 337.108C187.119 336.549 172.407 335.776 147.632 333.77C147.258 333.74 146.883 333.71 146.507 333.68Z" fill="url(#paint0_linear_165_5552)"/> -->
<path opacity="0.1" fill-rule="evenodd" clip-rule="evenodd" d="M265.17 2632.16L223.129 2603.03C219.733 2600.22 216.121 2597.72 212.341 2595.56L211.41 2594.91L211.406 2595.03C188.66 2582.43 160.061 2581.72 135.901 2595.67L62.4002 2638.11C25.7551 2659.26 13.1995 2706.12 34.3565 2742.77L49.3875 2768.8L54.142 2798.89C60.4487 2838.81 96.4294 2866.44 135.763 2863.33L135.729 2863.38L219.654 2855.68L219.562 2855.62C251.017 2852.09 278.412 2829.12 285.796 2796.24L303.705 2716.48C311.389 2682.26 294.868 2648.06 265.17 2632.16ZM141.124 2801.76C130.96 2800.94 120.137 2800.07 117.076 2794.57C116.62 2793.75 116.089 2792.81 115.496 2791.77C110.996 2783.82 102.933 2769.59 97.0344 2753.24C93.9473 2744.69 85.8507 2713.26 88.3126 2707.66C93.2796 2696.36 148.325 2649.77 154.42 2645.26C160.514 2640.74 166.714 2641.05 186.784 2656.5C202.84 2668.86 235.015 2688.76 249.095 2697.16C251.617 2699.27 255.148 2706.39 249.095 2718.07C241.53 2732.68 223.941 2778.56 222.273 2790.24C220.604 2801.92 207.813 2807.94 194.372 2805.81C187.061 2804.65 182.587 2804.41 174.357 2803.98C167.457 2803.62 157.917 2803.12 141.853 2801.82C141.611 2801.8 141.367 2801.78 141.124 2801.76Z" fill="url(#paint1_linear_165_5552)"/>
<!-- <path opacity="0.1" fill-rule="evenodd" clip-rule="evenodd" d="M465.506 1266.72L508.247 1205.04C512.377 1200.05 516.04 1194.76 519.215 1189.21L520.161 1187.84L519.987 1187.84C538.476 1154.47 539.508 1112.51 519.045 1077.06L456.785 969.223C425.744 915.459 356.996 897.038 303.232 928.079L265.036 950.131L220.888 957.107C162.327 966.36 121.781 1019.15 126.351 1076.86L126.269 1076.81L137.573 1199.94L137.665 1199.8C142.841 1245.95 176.54 1286.15 224.784 1296.98L341.797 1323.26C391.999 1334.53 442.178 1310.29 465.506 1266.72ZM216.682 1084.72C217.885 1069.81 219.166 1053.93 227.229 1049.44C228.43 1048.77 229.805 1047.99 231.34 1047.12C242.997 1040.52 263.885 1028.69 287.864 1020.04C300.414 1015.51 346.526 1003.63 354.742 1007.24C371.317 1014.53 439.669 1095.29 446.298 1104.23C452.927 1113.17 452.464 1122.27 429.802 1151.71C411.672 1175.27 382.473 1222.48 370.14 1243.13C367.056 1246.83 356.604 1252.01 339.461 1243.13C318.032 1232.03 250.722 1206.23 233.587 1203.78C216.451 1201.33 207.612 1182.57 210.74 1162.85C212.441 1152.12 212.786 1145.56 213.42 1133.48C213.952 1123.36 214.687 1109.36 216.595 1085.79C216.624 1085.44 216.653 1085.08 216.682 1084.72Z" fill="url(#paint2_linear_165_5552)"/> -->
<path opacity="0.1" fill-rule="evenodd" clip-rule="evenodd" d="M158.506 4719.72L201.247 4658.04C205.377 4653.05 209.04 4647.76 212.215 4642.21L213.161 4640.84L212.987 4640.84C231.476 4607.47 232.508 4565.51 212.045 4530.06L149.785 4422.22C118.744 4368.46 49.9964 4350.04 -3.76765 4381.08L-41.9644 4403.13L-86.1123 4410.11C-144.673 4419.36 -185.219 4472.15 -180.649 4529.86L-180.731 4529.81L-169.427 4652.94L-169.335 4652.8C-164.159 4698.95 -130.46 4739.15 -82.2162 4749.98L34.7972 4776.26C84.9992 4787.53 135.178 4763.29 158.506 4719.72ZM-90.3184 4537.72C-89.1155 4522.81 -87.8344 4506.93 -79.771 4502.44C-78.5701 4501.77 -77.195 4500.99 -75.6598 4500.12C-64.0026 4493.52 -43.1154 4481.69 -19.1358 4473.04C-6.58566 4468.51 39.5261 4456.63 47.7417 4460.24C64.3171 4467.53 132.669 4548.29 139.298 4557.23C145.927 4566.17 145.464 4575.27 122.802 4604.71C104.672 4628.27 75.4729 4675.48 63.1396 4696.13C60.0563 4699.83 49.6039 4705.01 32.4606 4696.13C11.0316 4685.03 -56.2779 4659.23 -73.4133 4656.78C-90.5487 4654.33 -99.3884 4635.57 -96.2605 4615.85C-94.559 4605.12 -94.2142 4598.56 -93.58 4586.48C-93.0484 4576.36 -92.3133 4562.36 -90.4049 4538.79C-90.3761 4538.44 -90.3473 4538.08 -90.3184 4537.72Z" fill="url(#paint3_linear_165_5552)"/>
<path opacity="0.381766" fill-rule="evenodd" clip-rule="evenodd" d="M-9.43851 123.414C-46.4477 139.701 -62.5236 179.091 -56.908 207.965C-51.2925 236.838 -28.4855 271.021 34.1026 276.47C96.6908 281.92 114.438 247.421 114.438 224.857C114.438 202.293 53.1029 241.43 36.9604 204.657C22.4469 171.594 36.9346 113.575 1.42385 120.114C-2.30314 120.801 -5.94346 121.876 -9.43851 123.414Z" fill="#1C1A2E"/>
<path opacity="0.143438" fill-rule="evenodd" clip-rule="evenodd" d="M21.2355 1484.55L20.831 1485.07L20.4266 1484.55L19.9049 1484.15L20.4266 1483.74L20.831 1483.22L21.2355 1483.74L21.7572 1484.15L21.2355 1484.55Z" fill="#979797"/>
<path opacity="0.143438" fill-rule="evenodd" clip-rule="evenodd" d="M91.0678 1458.8L90.6633 1459.32L90.2588 1458.8L89.7371 1458.4L90.2588 1457.99L90.6633 1457.47L91.0678 1457.99L91.5895 1458.4L91.0678 1458.8Z" fill="#979797"/>
<path opacity="0.143438" fill-rule="evenodd" clip-rule="evenodd" d="M80.5094 1517.34L80.105 1517.86L79.7005 1517.34L79.1788 1516.93L79.7005 1516.53L80.105 1516.01L80.5094 1516.53L81.0311 1516.93L80.5094 1517.34Z" fill="#979797"/>
<path opacity="0.0904018" fill-rule="evenodd" clip-rule="evenodd" d="M12.6402 1425.15L11.8055 1424.5L12.6402 1423.86L13.2874 1423.02L13.9345 1423.86L14.7692 1424.5L13.9345 1425.15L13.2874 1425.99L12.6402 1425.15Z" fill="#979797"/>
<path opacity="0.0904018" fill-rule="evenodd" clip-rule="evenodd" d="M50.9835 1451.08L50.1488 1450.44L50.9835 1449.79L51.6306 1448.96L52.2778 1449.79L53.1125 1450.44L52.2778 1451.08L51.6306 1451.92L50.9835 1451.08Z" fill="#979797"/>
<path opacity="0.0904018" fill-rule="evenodd" clip-rule="evenodd" d="M40.4251 1509.62L39.5904 1508.97L40.4251 1508.32L41.0723 1507.49L41.7194 1508.32L42.5541 1508.97L41.7194 1509.62L41.0723 1510.45L40.4251 1509.62Z" fill="#979797"/>
<path opacity="0.0904018" fill-rule="evenodd" clip-rule="evenodd" d="M-0.326103 1526.84L-1.16081 1526.2L-0.326103 1525.55L0.321045 1524.72L0.968193 1525.55L1.8029 1526.2L0.968193 1526.84L0.321045 1527.68L-0.326103 1526.84Z" fill="#979797"/>
<path fill-rule="evenodd" clip-rule="evenodd" d="M55.4293 1472.57L54.5946 1471.92L55.4293 1471.28L56.0764 1470.44L56.7236 1471.28L57.5583 1471.92L56.7236 1472.57L56.0764 1473.41L55.4293 1472.57Z" fill="#979797"/>
<path fill-rule="evenodd" clip-rule="evenodd" d="M44.8709 1531.11L44.0362 1530.46L44.8709 1529.81L45.5181 1528.98L46.1652 1529.81L46.9999 1530.46L46.1652 1531.11L45.5181 1531.94L44.8709 1531.11Z" fill="#979797"/>
<path fill-rule="evenodd" clip-rule="evenodd" d="M18.012 1453.31L17.1773 1452.66L18.012 1452.01L18.6592 1451.18L19.3063 1452.01L20.141 1452.66L19.3063 1453.31L18.6592 1454.14L18.012 1453.31Z" fill="#F700FE"/>
<path fill-rule="evenodd" clip-rule="evenodd" d="M87.8448 1427.56L87.0101 1426.91L87.8448 1426.27L88.4919 1425.43L89.1391 1426.27L89.9738 1426.91L89.1391 1427.56L88.4919 1428.39L87.8448 1427.56Z" fill="#F700FE"/>
<path fill-rule="evenodd" clip-rule="evenodd" d="M77.2864 1486.09L76.4517 1485.45L77.2864 1484.8L77.9336 1483.96L78.5807 1484.8L79.4155 1485.45L78.5807 1486.09L77.9336 1486.93L77.2864 1486.09Z" fill="#979797"/>
<path opacity="0.143438" fill-rule="evenodd" clip-rule="evenodd" d="M259.074 1594.76L258.67 1595.29L258.265 1594.76L257.743 1594.36L258.265 1593.95L258.67 1593.43L259.074 1593.95L259.596 1594.36L259.074 1594.76Z" fill="#979797"/>
<path opacity="0.143438" fill-rule="evenodd" clip-rule="evenodd" d="M328.907 1569.02L328.502 1569.54L328.098 1569.02L327.576 1568.61L328.098 1568.21L328.502 1567.69L328.907 1568.21L329.428 1568.61L328.907 1569.02Z" fill="#979797"/>
<path opacity="0.143438" fill-rule="evenodd" clip-rule="evenodd" d="M318.349 1627.55L317.944 1628.07L317.54 1627.55L317.018 1627.15L317.54 1626.74L317.944 1626.22L318.349 1626.74L318.87 1627.15L318.349 1627.55Z" fill="#2FFD61"/>
<path opacity="0.0904018" fill-rule="evenodd" clip-rule="evenodd" d="M218.99 1587.05L218.155 1586.4L218.99 1585.75L219.637 1584.92L220.284 1585.75L221.119 1586.4L220.284 1587.05L219.637 1587.88L218.99 1587.05Z" fill="#979797"/>
<path opacity="0.0904018" fill-rule="evenodd" clip-rule="evenodd" d="M250.479 1535.37L249.644 1534.72L250.479 1534.07L251.126 1533.24L251.773 1534.07L252.608 1534.72L251.773 1535.37L251.126 1536.2L250.479 1535.37Z" fill="#979797"/>
<path opacity="0.0904018" fill-rule="evenodd" clip-rule="evenodd" d="M288.822 1561.3L287.987 1560.65L288.822 1560L289.469 1559.17L290.116 1560L290.951 1560.65L290.116 1561.3L289.469 1562.13L288.822 1561.3Z" fill="#979797"/>
<path opacity="0.0904018" fill-rule="evenodd" clip-rule="evenodd" d="M278.263 1619.83L277.429 1619.18L278.263 1618.54L278.911 1617.7L279.558 1618.54L280.393 1619.18L279.558 1619.83L278.911 1620.67L278.263 1619.83Z" fill="#979797"/>
<path opacity="0.0904018" fill-rule="evenodd" clip-rule="evenodd" d="M237.513 1637.06L236.678 1636.41L237.513 1635.76L238.16 1634.93L238.807 1635.76L239.642 1636.41L238.807 1637.06L238.16 1637.89L237.513 1637.06Z" fill="#979797"/>
<path fill-rule="evenodd" clip-rule="evenodd" d="M223.435 1608.53L222.6 1607.88L223.435 1607.24L224.082 1606.4L224.729 1607.24L225.564 1607.88L224.729 1608.53L224.082 1609.37L223.435 1608.53Z" fill="#979797"/>
<path fill-rule="evenodd" clip-rule="evenodd" d="M293.268 1582.78L292.433 1582.14L293.268 1581.49L293.915 1580.66L294.562 1581.49L295.397 1582.14L294.562 1582.78L293.915 1583.62L293.268 1582.78Z" fill="#979797"/>
<path fill-rule="evenodd" clip-rule="evenodd" d="M282.709 1641.32L281.875 1640.67L282.709 1640.02L283.356 1639.19L284.004 1640.02L284.838 1640.67L284.004 1641.32L283.356 1642.15L282.709 1641.32Z" fill="#979797"/>
<path fill-rule="evenodd" clip-rule="evenodd" d="M206.023 1703L205.189 1702.35L206.023 1701.71L206.67 1700.87L207.318 1701.71L208.152 1702.35L207.318 1703L206.67 1703.84L206.023 1703Z" fill="#979797"/>
<path fill-rule="evenodd" clip-rule="evenodd" d="M75.8045 1679.48L74.9698 1678.83L75.8045 1678.18L76.4517 1677.35L77.0988 1678.18L77.9335 1678.83L77.0988 1679.48L76.4517 1680.31L75.8045 1679.48Z" fill="#979797"/>
<path fill-rule="evenodd" clip-rule="evenodd" d="M255.85 1563.52L255.016 1562.87L255.85 1562.23L256.498 1561.39L257.145 1562.23L257.979 1562.87L257.145 1563.52L256.498 1564.36L255.85 1563.52Z" fill="#979797"/>
<path fill-rule="evenodd" clip-rule="evenodd" d="M325.683 1537.77L324.849 1537.13L325.683 1536.48L326.331 1535.64L326.978 1536.48L327.812 1537.13L326.978 1537.77L326.331 1538.61L325.683 1537.77Z" fill="#979797"/>
<path fill-rule="evenodd" clip-rule="evenodd" d="M315.125 1596.31L314.291 1595.66L315.125 1595.01L315.772 1594.18L316.42 1595.01L317.254 1595.66L316.42 1596.31L315.772 1597.14L315.125 1596.31Z" fill="#979797"/>
<path opacity="0.143438" fill-rule="evenodd" clip-rule="evenodd" d="M69.8315 1752.49L70.3532 1752.89L69.8315 1753.3L69.427 1753.82L69.0225 1753.3L68.5008 1752.89L69.0225 1752.49L69.427 1751.97L69.8315 1752.49Z" fill="#210080"/>
<path opacity="0.143438" fill-rule="evenodd" clip-rule="evenodd" d="M44.0839 1682.66L44.6056 1683.06L44.0839 1683.47L43.6794 1683.99L43.275 1683.47L42.7533 1683.06L43.275 1682.66L43.6794 1682.14L44.0839 1682.66Z" fill="#210080"/>
<path opacity="0.143438" fill-rule="evenodd" clip-rule="evenodd" d="M102.618 1693.22L103.139 1693.62L102.618 1694.02L102.213 1694.55L101.809 1694.02L101.287 1693.62L101.809 1693.22L102.213 1692.69L102.618 1693.22Z" fill="#210080"/>
<path opacity="0.0904018" fill-rule="evenodd" clip-rule="evenodd" d="M62.1127 1792.57L61.4655 1793.41L60.8184 1792.57L59.9837 1791.93L60.8184 1791.28L61.4655 1790.45L62.1127 1791.28L62.9474 1791.93L62.1127 1792.57Z" fill="#210080"/>
<path opacity="0.0904018" fill-rule="evenodd" clip-rule="evenodd" d="M10.433 1761.09L9.78585 1761.92L9.1387 1761.09L8.30399 1760.44L9.1387 1759.79L9.78585 1758.96L10.433 1759.79L11.2677 1760.44L10.433 1761.09Z" fill="#210080"/>
<path opacity="0.0904018" fill-rule="evenodd" clip-rule="evenodd" d="M36.3656 1722.74L35.7185 1723.58L35.0713 1722.74L34.2366 1722.1L35.0713 1721.45L35.7185 1720.61L36.3656 1721.45L37.2003 1722.1L36.3656 1722.74Z" fill="#210080"/>
<path opacity="0.0904018" fill-rule="evenodd" clip-rule="evenodd" d="M94.8993 1733.3L94.2522 1734.14L93.605 1733.3L92.7703 1732.65L93.605 1732.01L94.2522 1731.17L94.8993 1732.01L95.734 1732.65L94.8993 1733.3Z" fill="#210080"/>
<path opacity="0.0904018" fill-rule="evenodd" clip-rule="evenodd" d="M112.125 1774.05L111.478 1774.89L110.831 1774.05L109.996 1773.4L110.831 1772.76L111.478 1771.92L112.125 1772.76L112.96 1773.4L112.125 1774.05Z" fill="#210080"/>
<path fill-rule="evenodd" clip-rule="evenodd" d="M83.6 1788.13L82.9528 1788.96L82.3057 1788.13L81.471 1787.48L82.3057 1786.83L82.9528 1786L83.6 1786.83L84.4347 1787.48L83.6 1788.13Z" fill="#210080"/>
<path fill-rule="evenodd" clip-rule="evenodd" d="M57.8527 1718.3L57.2055 1719.13L56.5584 1718.3L55.7237 1717.65L56.5584 1717L57.2055 1716.17L57.8527 1717L58.6874 1717.65L57.8527 1718.3Z" fill="#210080"/>
<path fill-rule="evenodd" clip-rule="evenodd" d="M116.386 1728.85L115.739 1729.69L115.092 1728.85L114.257 1728.21L115.092 1727.56L115.739 1726.73L116.386 1727.56L117.221 1728.21L116.386 1728.85Z" fill="#210080"/>
<path fill-rule="evenodd" clip-rule="evenodd" d="M38.5885 1755.71L37.9414 1756.55L37.2942 1755.71L36.4595 1755.07L37.2942 1754.42L37.9414 1753.58L38.5885 1754.42L39.4232 1755.07L38.5885 1755.71Z" fill="#210080"/>
<path fill-rule="evenodd" clip-rule="evenodd" d="M12.8412 1685.88L12.1941 1686.72L11.5469 1685.88L10.7122 1685.23L11.5469 1684.59L12.1941 1683.75L12.8412 1684.59L13.6759 1685.23L12.8412 1685.88Z" fill="#210080"/>
<path fill-rule="evenodd" clip-rule="evenodd" d="M71.3747 1696.44L70.7275 1697.27L70.0804 1696.44L69.2456 1695.79L70.0804 1695.14L70.7275 1694.31L71.3747 1695.14L72.2094 1695.79L71.3747 1696.44Z" fill="#210080"/>
<g opacity="0.156157">
<path opacity="0.143438" fill-rule="evenodd" clip-rule="evenodd" d="M19.8971 2410.98L19.5306 2411.46L19.1641 2410.98L18.6914 2410.62L19.1641 2410.25L19.5306 2409.78L19.8971 2410.25L20.3699 2410.62L19.8971 2410.98Z" fill="#210080"/>
<path opacity="0.143438" fill-rule="evenodd" clip-rule="evenodd" d="M64.6418 2394.49L64.2753 2394.96L63.9088 2394.49L63.436 2394.12L63.9088 2393.75L64.2753 2393.28L64.6418 2393.75L65.1145 2394.12L64.6418 2394.49Z" fill="#210080"/>
<path opacity="0.143438" fill-rule="evenodd" clip-rule="evenodd" d="M57.8764 2431.99L57.5099 2432.46L57.1434 2431.99L56.6707 2431.62L57.1434 2431.26L57.5099 2430.79L57.8764 2431.26L58.3491 2431.62L57.8764 2431.99Z" fill="#210080"/>
<path opacity="0.0904018" fill-rule="evenodd" clip-rule="evenodd" d="M14.1109 2372.99L13.3545 2372.4L14.1109 2371.82L14.6973 2371.06L15.2837 2371.82L16.04 2372.4L15.2837 2372.99L14.6973 2373.75L14.1109 2372.99Z" fill="#210080"/>
<path opacity="0.0904018" fill-rule="evenodd" clip-rule="evenodd" d="M38.6787 2389.61L37.9224 2389.02L38.6787 2388.43L39.2651 2387.68L39.8515 2388.43L40.6079 2389.02L39.8515 2389.61L39.2651 2390.36L38.6787 2389.61Z" fill="#210080"/>
<path opacity="0.0904018" fill-rule="evenodd" clip-rule="evenodd" d="M31.9138 2427.11L31.1575 2426.52L31.9138 2425.94L32.5002 2425.18L33.0867 2425.94L33.843 2426.52L33.0867 2427.11L32.5002 2427.87L31.9138 2427.11Z" fill="#210080"/>
<path opacity="0.0904018" fill-rule="evenodd" clip-rule="evenodd" d="M5.80324 2438.15L5.04688 2437.56L5.80324 2436.98L6.38965 2436.22L6.97605 2436.98L7.73242 2437.56L6.97605 2438.15L6.38965 2438.9L5.80324 2438.15Z" fill="#210080"/>
<path fill-rule="evenodd" clip-rule="evenodd" d="M41.5274 2403.37L40.771 2402.79L41.5274 2402.2L42.1138 2401.44L42.7002 2402.2L43.4565 2402.79L42.7002 2403.37L42.1138 2404.13L41.5274 2403.37Z" fill="#210080"/>
<path fill-rule="evenodd" clip-rule="evenodd" d="M34.7625 2440.88L34.0061 2440.29L34.7625 2439.7L35.3489 2438.95L35.9353 2439.7L36.6916 2440.29L35.9353 2440.88L35.3489 2441.63L34.7625 2440.88Z" fill="#210080"/>
<path fill-rule="evenodd" clip-rule="evenodd" d="M17.553 2391.03L16.7966 2390.44L17.553 2389.86L18.1394 2389.1L18.7258 2389.86L19.4822 2390.44L18.7258 2391.03L18.1394 2391.79L17.553 2391.03Z" fill="#210080"/>
<path fill-rule="evenodd" clip-rule="evenodd" d="M62.2974 2374.53L61.541 2373.95L62.2974 2373.36L62.8838 2372.6L63.4702 2373.36L64.2266 2373.95L63.4702 2374.53L62.8838 2375.29L62.2974 2374.53Z" fill="#210080"/>
<path fill-rule="evenodd" clip-rule="evenodd" d="M55.5325 2412.04L54.7761 2411.45L55.5325 2410.86L56.1189 2410.11L56.7053 2410.86L57.4617 2411.45L56.7053 2412.04L56.1189 2412.79L55.5325 2412.04Z" fill="#210080"/>
</g>
<g opacity="0.156157">
<path opacity="0.143438" fill-rule="evenodd" clip-rule="evenodd" d="M239.399 2411.72L239.033 2412.2L238.666 2411.72L238.194 2411.36L238.666 2410.99L239.033 2410.52L239.399 2410.99L239.872 2411.36L239.399 2411.72Z" fill="#979797"/>
<path opacity="0.143438" fill-rule="evenodd" clip-rule="evenodd" d="M284.143 2395.23L283.776 2395.7L283.41 2395.23L282.937 2394.86L283.41 2394.5L283.776 2394.02L284.143 2394.5L284.615 2394.86L284.143 2395.23Z" fill="#979797"/>
<path opacity="0.143438" fill-rule="evenodd" clip-rule="evenodd" d="M277.379 2432.73L277.012 2433.21L276.646 2432.73L276.173 2432.37L276.646 2432L277.012 2431.53L277.379 2432L277.852 2432.37L277.379 2432.73Z" fill="#979797"/>
<path opacity="0.0904018" fill-rule="evenodd" clip-rule="evenodd" d="M213.437 2406.84L212.68 2406.26L213.437 2405.67L214.023 2404.91L214.61 2405.67L215.366 2406.26L214.61 2406.84L214.023 2407.6L213.437 2406.84Z" fill="#979797"/>
<path opacity="0.0904018" fill-rule="evenodd" clip-rule="evenodd" d="M233.613 2373.73L232.857 2373.14L233.613 2372.56L234.2 2371.8L234.786 2372.56L235.542 2373.14L234.786 2373.73L234.2 2374.49L233.613 2373.73Z" fill="#979797"/>
<path opacity="0.0904018" fill-rule="evenodd" clip-rule="evenodd" d="M258.181 2390.35L257.425 2389.76L258.181 2389.17L258.768 2388.42L259.354 2389.17L260.11 2389.76L259.354 2390.35L258.768 2391.1L258.181 2390.35Z" fill="#979797"/>
<path opacity="0.0904018" fill-rule="evenodd" clip-rule="evenodd" d="M251.416 2427.85L250.66 2427.26L251.416 2426.68L252.002 2425.92L252.589 2426.68L253.345 2427.26L252.589 2427.85L252.002 2428.61L251.416 2427.85Z" fill="#979797"/>
<path opacity="0.0904018" fill-rule="evenodd" clip-rule="evenodd" d="M225.305 2438.89L224.549 2438.3L225.305 2437.72L225.892 2436.96L226.478 2437.72L227.235 2438.3L226.478 2438.89L225.892 2439.65L225.305 2438.89Z" fill="#979797"/>
<path fill-rule="evenodd" clip-rule="evenodd" d="M216.285 2420.61L215.529 2420.02L216.285 2419.44L216.872 2418.68L217.458 2419.44L218.214 2420.02L217.458 2420.61L216.872 2421.37L216.285 2420.61Z" fill="#979797"/>
<path fill-rule="evenodd" clip-rule="evenodd" d="M261.029 2404.11L260.273 2403.53L261.029 2402.94L261.616 2402.19L262.202 2402.94L262.958 2403.53L262.202 2404.11L261.616 2404.87L261.029 2404.11Z" fill="#979797"/>
<path fill-rule="evenodd" clip-rule="evenodd" d="M254.264 2441.62L253.508 2441.03L254.264 2440.45L254.851 2439.69L255.437 2440.45L256.194 2441.03L255.437 2441.62L254.851 2442.38L254.264 2441.62Z" fill="#979797"/>
<path fill-rule="evenodd" clip-rule="evenodd" d="M237.055 2391.77L236.299 2391.18L237.055 2390.6L237.641 2389.84L238.228 2390.6L238.984 2391.18L238.228 2391.77L237.641 2392.53L237.055 2391.77Z" fill="#979797"/>
<path fill-rule="evenodd" clip-rule="evenodd" d="M281.798 2375.27L281.042 2374.69L281.798 2374.1L282.385 2373.34L282.971 2374.1L283.728 2374.69L282.971 2375.27L282.385 2376.03L281.798 2375.27Z" fill="#979797"/>
<path fill-rule="evenodd" clip-rule="evenodd" d="M275.034 2412.78L274.278 2412.19L275.034 2411.61L275.621 2410.85L276.207 2411.61L276.964 2412.19L276.207 2412.78L275.621 2413.53L275.034 2412.78Z" fill="#979797"/>
</g>
<g opacity="0.156157">
<path opacity="0.143438" fill-rule="evenodd" clip-rule="evenodd" d="M293.116 2504.16L292.749 2504.63L292.383 2504.16L291.91 2503.79L292.383 2503.42L292.749 2502.95L293.116 2503.42L293.589 2503.79L293.116 2504.16Z" fill="#F700FE"/>
<path opacity="0.143438" fill-rule="evenodd" clip-rule="evenodd" d="M337.86 2487.66L337.494 2488.13L337.127 2487.66L336.654 2487.29L337.127 2486.93L337.494 2486.45L337.86 2486.93L338.333 2487.29L337.86 2487.66Z" fill="#F700FE"/>
<path opacity="0.143438" fill-rule="evenodd" clip-rule="evenodd" d="M331.095 2525.16L330.729 2525.64L330.362 2525.16L329.889 2524.8L330.362 2524.43L330.729 2523.96L331.095 2524.43L331.568 2524.8L331.095 2525.16Z" fill="#F700FE"/>
<path opacity="0.0904018" fill-rule="evenodd" clip-rule="evenodd" d="M267.153 2499.28L266.396 2498.69L267.153 2498.1L267.739 2497.35L268.326 2498.1L269.082 2498.69L268.326 2499.28L267.739 2500.03L267.153 2499.28Z" fill="#F700FE"/>
<path opacity="0.0904018" fill-rule="evenodd" clip-rule="evenodd" d="M287.33 2466.16L286.573 2465.58L287.33 2464.99L287.916 2464.23L288.502 2464.99L289.259 2465.58L288.502 2466.16L287.916 2466.92L287.33 2466.16Z" fill="#F700FE"/>
<path opacity="0.0904018" fill-rule="evenodd" clip-rule="evenodd" d="M311.897 2482.78L311.141 2482.19L311.897 2481.6L312.484 2480.85L313.07 2481.6L313.827 2482.19L313.07 2482.78L312.484 2483.53L311.897 2482.78Z" fill="#F700FE"/>
<path opacity="0.0904018" fill-rule="evenodd" clip-rule="evenodd" d="M305.133 2520.28L304.376 2519.7L305.133 2519.11L305.719 2518.35L306.305 2519.11L307.062 2519.7L306.305 2520.28L305.719 2521.04L305.133 2520.28Z" fill="#F700FE"/>
<path opacity="0.0904018" fill-rule="evenodd" clip-rule="evenodd" d="M279.022 2531.32L278.265 2530.73L279.022 2530.15L279.608 2529.39L280.194 2530.15L280.951 2530.73L280.194 2531.32L279.608 2532.08L279.022 2531.32Z" fill="#F700FE"/>
<path fill-rule="evenodd" clip-rule="evenodd" d="M270.001 2513.04L269.245 2512.46L270.001 2511.87L270.588 2511.11L271.174 2511.87L271.931 2512.46L271.174 2513.04L270.588 2513.8L270.001 2513.04Z" fill="#F700FE"/>
<path fill-rule="evenodd" clip-rule="evenodd" d="M314.746 2496.55L313.989 2495.96L314.746 2495.37L315.332 2494.62L315.918 2495.37L316.675 2495.96L315.918 2496.55L315.332 2497.3L314.746 2496.55Z" fill="#F700FE"/>
<path fill-rule="evenodd" clip-rule="evenodd" d="M307.98 2534.05L307.224 2533.46L307.98 2532.88L308.567 2532.12L309.153 2532.88L309.91 2533.46L309.153 2534.05L308.567 2534.81L307.98 2534.05Z" fill="#F700FE"/>
<path fill-rule="evenodd" clip-rule="evenodd" d="M290.772 2484.2L290.015 2483.62L290.772 2483.03L291.358 2482.27L291.944 2483.03L292.701 2483.62L291.944 2484.2L291.358 2484.96L290.772 2484.2Z" fill="#F700FE"/>
<path fill-rule="evenodd" clip-rule="evenodd" d="M335.516 2467.7L334.759 2467.12L335.516 2466.53L336.102 2465.78L336.688 2466.53L337.445 2467.12L336.688 2467.7L336.102 2468.46L335.516 2467.7Z" fill="#F700FE"/>
<path fill-rule="evenodd" clip-rule="evenodd" d="M328.751 2505.21L327.994 2504.62L328.751 2504.04L329.337 2503.28L329.923 2504.04L330.68 2504.62L329.923 2505.21L329.337 2505.97L328.751 2505.21Z" fill="#F700FE"/>
</g>
<path opacity="0.143438" fill-rule="evenodd" clip-rule="evenodd" d="M211.533 1799.21L211.129 1799.73L210.724 1799.21L210.202 1798.8L210.724 1798.4L211.129 1797.88L211.533 1798.4L212.055 1798.8L211.533 1799.21Z" fill="#979797"/>
<path opacity="0.143438" fill-rule="evenodd" clip-rule="evenodd" d="M281.366 1773.46L280.961 1773.98L280.557 1773.46L280.035 1773.06L280.557 1772.65L280.961 1772.13L281.366 1772.65L281.887 1773.06L281.366 1773.46Z" fill="#979797"/>
<path opacity="0.143438" fill-rule="evenodd" clip-rule="evenodd" d="M323.368 2364.75L322.963 2365.27L322.559 2364.75L322.037 2364.35L322.559 2363.94L322.963 2363.42L323.368 2363.94L323.89 2364.35L323.368 2364.75Z" fill="#979797"/>
<path opacity="0.0904018" fill-rule="evenodd" clip-rule="evenodd" d="M171.449 1791.49L170.614 1790.84L171.449 1790.2L172.096 1789.36L172.743 1790.2L173.578 1790.84L172.743 1791.49L172.096 1792.33L171.449 1791.49Z" fill="#979797"/>
<path opacity="0.0904018" fill-rule="evenodd" clip-rule="evenodd" d="M255.498 1739.88L254.663 1739.23L255.498 1738.59L256.145 1737.75L256.792 1738.59L257.627 1739.23L256.792 1739.88L256.145 1740.72L255.498 1739.88Z" fill="#979797"/>
<path opacity="0.0904018" fill-rule="evenodd" clip-rule="evenodd" d="M241.281 1765.74L240.446 1765.1L241.281 1764.45L241.928 1763.61L242.575 1764.45L243.41 1765.1L242.575 1765.74L241.928 1766.58L241.281 1765.74Z" fill="#979797"/>
<path opacity="0.0904018" fill-rule="evenodd" clip-rule="evenodd" d="M283.283 2357.03L282.449 2356.39L283.283 2355.74L283.93 2354.91L284.578 2355.74L285.412 2356.39L284.578 2357.03L283.93 2357.87L283.283 2357.03Z" fill="#979797"/>
<path opacity="0.0904018" fill-rule="evenodd" clip-rule="evenodd" d="M242.533 2374.26L241.698 2373.61L242.533 2372.97L243.18 2372.13L243.827 2372.97L244.662 2373.61L243.827 2374.26L243.18 2375.1L242.533 2374.26Z" fill="#979797"/>
<path opacity="0.0904018" fill-rule="evenodd" clip-rule="evenodd" d="M165.475 1668.01L164.64 1667.36L165.475 1666.72L166.122 1665.88L166.769 1666.72L167.604 1667.36L166.769 1668.01L166.122 1668.84L165.475 1668.01Z" fill="#979797"/>
<path opacity="0.0904018" fill-rule="evenodd" clip-rule="evenodd" d="M29.3289 1688.39L28.4942 1687.74L29.3289 1687.09L29.9761 1686.26L30.6232 1687.09L31.4579 1687.74L30.6232 1688.39L29.9761 1689.22L29.3289 1688.39Z" fill="#979797"/>
<path fill-rule="evenodd" clip-rule="evenodd" d="M245.727 1787.23L244.892 1786.58L245.727 1785.94L246.374 1785.1L247.021 1785.94L247.856 1786.58L247.021 1787.23L246.374 1788.06L245.727 1787.23Z" fill="#979797"/>
<path fill-rule="evenodd" clip-rule="evenodd" d="M287.729 2378.52L286.894 2377.87L287.729 2377.23L288.376 2376.39L289.023 2377.23L289.858 2377.87L289.023 2378.52L288.376 2379.36L287.729 2378.52Z" fill="#979797"/>
<path fill-rule="evenodd" clip-rule="evenodd" d="M208.309 1767.97L207.475 1767.32L208.309 1766.67L208.957 1765.84L209.604 1766.67L210.438 1767.32L209.604 1767.97L208.957 1768.8L208.309 1767.97Z" fill="#979797"/>
<path fill-rule="evenodd" clip-rule="evenodd" d="M330.702 1742.29L329.868 1741.64L330.702 1740.99L331.35 1740.16L331.997 1740.99L332.831 1741.64L331.997 1742.29L331.35 1743.12L330.702 1742.29Z" fill="#979797"/>
<path fill-rule="evenodd" clip-rule="evenodd" d="M267.584 1800.75L266.749 1800.1L267.584 1799.46L268.231 1798.62L268.878 1799.46L269.713 1800.1L268.878 1800.75L268.231 1801.59L267.584 1800.75Z" fill="#979797"/>
<path fill-rule="evenodd" clip-rule="evenodd" d="M250.126 1679.12L249.292 1678.48L250.126 1677.83L250.773 1676.99L251.421 1677.83L252.255 1678.48L251.421 1679.12L250.773 1679.96L250.126 1679.12Z" fill="#979797"/>
<path opacity="0.143438" fill-rule="evenodd" clip-rule="evenodd" d="M259.074 1477.14L258.669 1477.66L258.265 1477.14L257.743 1476.74L258.265 1476.33L258.669 1475.81L259.074 1476.33L259.595 1476.74L259.074 1477.14Z" fill="#F700FE"/>
<path opacity="0.143438" fill-rule="evenodd" clip-rule="evenodd" d="M328.906 1451.39L328.502 1451.92L328.097 1451.39L327.576 1450.99L328.097 1450.58L328.502 1450.06L328.906 1450.58L329.428 1450.99L328.906 1451.39Z" fill="#F700FE"/>
<path opacity="0.143438" fill-rule="evenodd" clip-rule="evenodd" d="M318.348 1509.93L317.944 1510.45L317.539 1509.93L317.018 1509.52L317.539 1509.12L317.944 1508.6L318.348 1509.12L318.87 1509.52L318.348 1509.93Z" fill="#F700FE"/>
<path opacity="0.0904018" fill-rule="evenodd" clip-rule="evenodd" d="M218.989 1469.42L218.155 1468.78L218.989 1468.13L219.636 1467.29L220.284 1468.13L221.118 1468.78L220.284 1469.42L219.636 1470.26L218.989 1469.42Z" fill="#F700FE"/>
<path opacity="0.0904018" fill-rule="evenodd" clip-rule="evenodd" d="M250.479 1417.74L249.644 1417.1L250.479 1416.45L251.126 1415.61L251.773 1416.45L252.608 1417.1L251.773 1417.74L251.126 1418.58L250.479 1417.74Z" fill="#F700FE"/>
<path opacity="0.0904018" fill-rule="evenodd" clip-rule="evenodd" d="M288.822 1443.68L287.987 1443.03L288.822 1442.38L289.469 1441.55L290.116 1442.38L290.951 1443.03L290.116 1443.68L289.469 1444.51L288.822 1443.68Z" fill="#F700FE"/>
<path opacity="0.0904018" fill-rule="evenodd" clip-rule="evenodd" d="M278.264 1502.21L277.429 1501.56L278.264 1500.91L278.911 1500.08L279.558 1500.91L280.393 1501.56L279.558 1502.21L278.911 1503.04L278.264 1502.21Z" fill="#F700FE"/>
<path opacity="0.0904018" fill-rule="evenodd" clip-rule="evenodd" d="M237.512 1519.44L236.678 1518.79L237.512 1518.14L238.159 1517.31L238.807 1518.14L239.641 1518.79L238.807 1519.44L238.159 1520.27L237.512 1519.44Z" fill="#F700FE"/>
<path fill-rule="evenodd" clip-rule="evenodd" d="M223.435 1490.91L222.6 1490.26L223.435 1489.62L224.082 1488.78L224.729 1489.62L225.564 1490.26L224.729 1490.91L224.082 1491.74L223.435 1490.91Z" fill="#F700FE"/>
<path fill-rule="evenodd" clip-rule="evenodd" d="M293.268 1465.16L292.433 1464.52L293.268 1463.87L293.915 1463.03L294.562 1463.87L295.397 1464.52L294.562 1465.16L293.915 1466L293.268 1465.16Z" fill="#2FFD61"/>
<path fill-rule="evenodd" clip-rule="evenodd" d="M301.991 1523.7L301.156 1523.05L301.991 1522.4L302.638 1521.57L303.285 1522.4L304.12 1523.05L303.285 1523.7L302.638 1524.53L301.991 1523.7Z" fill="#0058FF"/>
<path fill-rule="evenodd" clip-rule="evenodd" d="M255.85 1445.9L255.015 1445.25L255.85 1444.6L256.497 1443.77L257.144 1444.6L257.979 1445.25L257.144 1445.9L256.497 1446.73L255.85 1445.9Z" fill="#0058FF"/>
<path fill-rule="evenodd" clip-rule="evenodd" d="M325.683 1420.15L324.849 1419.5L325.683 1418.86L326.331 1418.02L326.978 1418.86L327.812 1419.5L326.978 1420.15L326.331 1420.99L325.683 1420.15Z" fill="#F700FE"/>
<path fill-rule="evenodd" clip-rule="evenodd" d="M315.125 1478.68L314.29 1478.04L315.125 1477.39L315.772 1476.56L316.419 1477.39L317.254 1478.04L316.419 1478.68L315.772 1479.52L315.125 1478.68Z" fill="#979797"/>
<g opacity="0.392787">
<path opacity="0.143438" fill-rule="evenodd" clip-rule="evenodd" d="M41.4259 2590.72L41.0215 2591.24L40.617 2590.72L40.0953 2590.31L40.617 2589.91L41.0215 2589.39L41.4259 2589.91L41.9476 2590.31L41.4259 2590.72Z" fill="#F700FE"/>
<path opacity="0.143438" fill-rule="evenodd" clip-rule="evenodd" d="M111.259 2564.97L110.854 2565.49L110.45 2564.97L109.928 2564.57L110.45 2564.16L110.854 2563.64L111.259 2564.16L111.78 2564.57L111.259 2564.97Z" fill="#F700FE"/>
<path opacity="0.143438" fill-rule="evenodd" clip-rule="evenodd" d="M100.7 2623.5L100.296 2624.03L99.8914 2623.5L99.3697 2623.1L99.8914 2622.7L100.296 2622.17L100.7 2622.7L101.222 2623.1L100.7 2623.5Z" fill="#F700FE"/>
<path opacity="0.0904018" fill-rule="evenodd" clip-rule="evenodd" d="M1.34113 2583L0.506422 2582.35L1.34113 2581.71L1.98828 2580.87L2.63543 2581.71L3.47014 2582.35L2.63543 2583L1.98828 2583.83L1.34113 2583Z" fill="#F700FE"/>
<path opacity="0.0904018" fill-rule="evenodd" clip-rule="evenodd" d="M32.8311 2531.32L31.9964 2530.67L32.8311 2530.03L33.4783 2529.19L34.1254 2530.03L34.9601 2530.67L34.1254 2531.32L33.4783 2532.15L32.8311 2531.32Z" fill="#F700FE"/>
<path opacity="0.0904018" fill-rule="evenodd" clip-rule="evenodd" d="M71.1744 2557.25L70.3397 2556.61L71.1744 2555.96L71.8215 2555.12L72.4687 2555.96L73.3034 2556.61L72.4687 2557.25L71.8215 2558.09L71.1744 2557.25Z" fill="#F700FE"/>
<path opacity="0.0904018" fill-rule="evenodd" clip-rule="evenodd" d="M60.616 2615.79L59.7813 2615.14L60.616 2614.49L61.2632 2613.66L61.9103 2614.49L62.745 2615.14L61.9103 2615.79L61.2632 2616.62L60.616 2615.79Z" fill="#F700FE"/>
<path opacity="0.0904018" fill-rule="evenodd" clip-rule="evenodd" d="M19.8646 2633.01L19.0299 2632.37L19.8646 2631.72L20.5117 2630.88L21.1589 2631.72L21.9936 2632.37L21.1589 2633.01L20.5117 2633.85L19.8646 2633.01Z" fill="#F700FE"/>
<path fill-rule="evenodd" clip-rule="evenodd" d="M5.78693 2604.49L4.95222 2603.84L5.78693 2603.19L6.43408 2602.36L7.08123 2603.19L7.91594 2603.84L7.08123 2604.49L6.43408 2605.32L5.78693 2604.49Z" fill="#FFEC6A"/>
<path fill-rule="evenodd" clip-rule="evenodd" d="M75.6197 2578.74L74.785 2578.09L75.6197 2577.45L76.2668 2576.61L76.914 2577.45L77.7487 2578.09L76.914 2578.74L76.2668 2579.57L75.6197 2578.74Z" fill="#FFEC6A"/>
<path fill-rule="evenodd" clip-rule="evenodd" d="M50.8165 2625.07L49.9818 2624.42L50.8165 2623.77L51.4636 2622.94L52.1108 2623.77L52.9455 2624.42L52.1108 2625.07L51.4636 2625.9L50.8165 2625.07Z" fill="#F700FE"/>
<path fill-rule="evenodd" clip-rule="evenodd" d="M38.2029 2559.48L37.3682 2558.83L38.2029 2558.18L38.8501 2557.35L39.4972 2558.18L40.332 2558.83L39.4972 2559.48L38.8501 2560.31L38.2029 2559.48Z" fill="#F700FE"/>
<path fill-rule="evenodd" clip-rule="evenodd" d="M108.035 2533.73L107.201 2533.08L108.035 2532.43L108.682 2531.6L109.33 2532.43L110.164 2533.08L109.33 2533.73L108.682 2534.56L108.035 2533.73Z" fill="#F700FE"/>
<path fill-rule="evenodd" clip-rule="evenodd" d="M97.4774 2592.26L96.6427 2591.61L97.4774 2590.97L98.1245 2590.13L98.7717 2590.97L99.6064 2591.61L98.7717 2592.26L98.1245 2593.1L97.4774 2592.26Z" fill="#FFEC6A"/>
</g>
<path fill-rule="evenodd" clip-rule="evenodd" d="M104.268 2660.7L103.434 2660.06L104.268 2659.41L104.916 2658.58L105.563 2659.41L106.397 2660.06L105.563 2660.7L104.916 2661.54L104.268 2660.7Z" fill="#2FFD61"/>
<path opacity="0.143438" fill-rule="evenodd" clip-rule="evenodd" d="M43.8334 1594.76L43.4289 1595.29L43.0245 1594.76L42.5028 1594.36L43.0245 1593.95L43.4289 1593.43L43.8334 1593.95L44.3551 1594.36L43.8334 1594.76Z" fill="#FFEC6A"/>
<path opacity="0.143438" fill-rule="evenodd" clip-rule="evenodd" d="M113.666 1569.02L113.262 1569.54L112.857 1569.02L112.336 1568.61L112.857 1568.21L113.262 1567.69L113.666 1568.21L114.188 1568.61L113.666 1569.02Z" fill="#FFEC6A"/>
<path opacity="0.143438" fill-rule="evenodd" clip-rule="evenodd" d="M103.108 1627.55L102.703 1628.07L102.299 1627.55L101.777 1627.15L102.299 1626.74L102.703 1626.22L103.108 1626.74L103.63 1627.15L103.108 1627.55Z" fill="#FFEC6A"/>
<path opacity="0.0904018" fill-rule="evenodd" clip-rule="evenodd" d="M3.74909 1587.05L2.91438 1586.4L3.74909 1585.75L4.39624 1584.92L5.04339 1585.75L5.8781 1586.4L5.04339 1587.05L4.39624 1587.88L3.74909 1587.05Z" fill="#FFEC6A"/>
<path opacity="0.0904018" fill-rule="evenodd" clip-rule="evenodd" d="M35.2386 1535.37L34.4039 1534.72L35.2386 1534.07L35.8857 1533.24L36.5329 1534.07L37.3676 1534.72L36.5329 1535.37L35.8857 1536.2L35.2386 1535.37Z" fill="#FFEC6A"/>
<path opacity="0.0904018" fill-rule="evenodd" clip-rule="evenodd" d="M73.5819 1561.3L72.7471 1560.65L73.5819 1560L74.229 1559.17L74.8762 1560L75.7109 1560.65L74.8762 1561.3L74.229 1562.13L73.5819 1561.3Z" fill="#FFEC6A"/>
<path opacity="0.0904018" fill-rule="evenodd" clip-rule="evenodd" d="M63.0235 1619.83L62.1888 1619.18L63.0235 1618.54L63.6707 1617.7L64.3178 1618.54L65.1525 1619.18L64.3178 1619.83L63.6707 1620.67L63.0235 1619.83Z" fill="#FFEC6A"/>
<path opacity="0.0904018" fill-rule="evenodd" clip-rule="evenodd" d="M22.2725 1637.06L21.4378 1636.41L22.2725 1635.76L22.9197 1634.93L23.5668 1635.76L24.4015 1636.41L23.5668 1637.06L22.9197 1637.89L22.2725 1637.06Z" fill="#FFEC6A"/>
<path fill-rule="evenodd" clip-rule="evenodd" d="M19.0831 1587.38L18.2484 1586.73L19.0831 1586.08L19.7302 1585.25L20.3774 1586.08L21.2121 1586.73L20.3774 1587.38L19.7302 1588.21L19.0831 1587.38Z" fill="#FFEC6A"/>
<path fill-rule="evenodd" clip-rule="evenodd" d="M78.0277 1582.78L77.1929 1582.14L78.0277 1581.49L78.6748 1580.66L79.322 1581.49L80.1567 1582.14L79.322 1582.78L78.6748 1583.62L78.0277 1582.78Z" fill="#FFEC6A"/>
<path fill-rule="evenodd" clip-rule="evenodd" d="M67.4693 1641.32L66.6346 1640.67L67.4693 1640.02L68.1165 1639.19L68.7636 1640.02L69.5983 1640.67L68.7636 1641.32L68.1165 1642.15L67.4693 1641.32Z" fill="#0058FF"/>
<path fill-rule="evenodd" clip-rule="evenodd" d="M40.6104 1563.52L39.7757 1562.87L40.6104 1562.23L41.2576 1561.39L41.9047 1562.23L42.7394 1562.87L41.9047 1563.52L41.2576 1564.36L40.6104 1563.52Z" fill="#979797"/>
<path fill-rule="evenodd" clip-rule="evenodd" d="M110.443 1537.77L109.608 1537.13L110.443 1536.48L111.09 1535.64L111.737 1536.48L112.572 1537.13L111.737 1537.77L111.09 1538.61L110.443 1537.77Z" fill="#FFEC6A"/>
<path fill-rule="evenodd" clip-rule="evenodd" d="M99.8848 1608.18L99.0501 1607.53L99.8848 1606.89L100.532 1606.05L101.179 1606.89L102.014 1607.53L101.179 1608.18L100.532 1609.01L99.8848 1608.18Z" fill="#0058FF"/>
<path opacity="0.143438" fill-rule="evenodd" clip-rule="evenodd" d="M88.6601 1304.65L88.2556 1305.17L87.8511 1304.65L87.3294 1304.24L87.8511 1303.84L88.2556 1303.32L88.6601 1303.84L89.1818 1304.24L88.6601 1304.65Z" fill="#979797"/>
<path fill-rule="evenodd" clip-rule="evenodd" d="M105.671 373.201L106.505 373.848L105.671 374.495L105.023 375.33L104.376 374.495L103.542 373.848L104.376 373.201L105.023 372.366L105.671 373.201Z" fill="#F700FE"/>
<path opacity="0.0608491" fill-rule="evenodd" clip-rule="evenodd" d="M114.005 391.791L114.84 392.439L114.005 393.086L113.358 393.92L112.711 393.086L111.876 392.439L112.711 391.791L113.358 390.957L114.005 391.791Z" fill="#979797"/>
<path opacity="0.0904018" fill-rule="evenodd" clip-rule="evenodd" d="M7.68182 389.754L8.51653 390.401L7.68182 391.048L7.03467 391.883L6.38752 391.048L5.55281 390.401L6.38752 389.754L7.03467 388.919L7.68182 389.754Z" fill="#979797"/>
<path opacity="0.143438" fill-rule="evenodd" clip-rule="evenodd" d="M131.545 415.699L132.066 416.103L131.545 416.508L131.14 417.029L130.736 416.508L130.214 416.103L130.736 415.699L131.14 415.177L131.545 415.699Z" fill="#979797"/>
<path opacity="0.361561" fill-rule="evenodd" clip-rule="evenodd" d="M435.291 126.986C439.691 86.7921 413.616 53.1747 385.803 43.6012C357.99 34.0278 316.984 36.6879 280.97 88.166C244.957 139.644 255.548 183.545 285.501 183.545C315.454 183.545 301.816 122.141 341.734 126.548C377.624 130.51 420.626 172.066 432.718 138.043C433.987 134.472 434.876 130.782 435.291 126.986Z" fill="#1C1A2E"/>
<circle cx="332.525" cy="140.879" r="6.18097" fill="#1C1A2E"/>
<mask id="mask0_165_5552" style="mask-type:luminance" maskUnits="userSpaceOnUse" x="326" y="134" width="13" height="14">
<circle cx="332.525" cy="140.879" r="6.18097" fill="white"/>
</mask>
<g mask="url(#mask0_165_5552)">
<circle cx="337.469" cy="138.928" r="7.22197" fill="#2C2855"/>
<circle opacity="0.540783" cx="330.638" cy="134.959" r="1.17113" fill="#161424"/>
<circle opacity="0.540783" cx="335.062" cy="146.28" r="1.17113" fill="#161424"/>
<circle opacity="0.540783" cx="331.484" cy="139.448" r="1.49644" fill="#161424"/>
<circle opacity="0.540783" cx="330.052" cy="144.523" r="1.49644" fill="#161424"/>
<circle opacity="0.540783" cx="336.298" cy="139.318" r="1.49644" fill="#161424"/>
<circle opacity="0.540783" cx="333.045" cy="143.092" r="0.45544" fill="#161424"/>
<circle opacity="0.540783" cx="335.778" cy="142.441" r="0.45544" fill="#161424"/>
<circle opacity="0.540783" cx="334.607" cy="137.106" r="0.45544" fill="#161424"/>
<circle opacity="0.540783" cx="327.71" cy="139.578" r="0.45544" fill="#161424"/>
<circle opacity="0.540783" cx="337.079" cy="143.872" r="0.45544" fill="#161424"/>
<circle opacity="0.540783" cx="329.532" cy="141.27" r="0.715691" fill="#161424"/>
<circle opacity="0.540783" cx="337.339" cy="136.846" r="0.715691" fill="#161424"/>
<circle opacity="0.540783" cx="333.696" cy="141.01" r="0.715691" fill="#161424"/>
<circle opacity="0.540783" cx="332.134" cy="146.995" r="0.715691" fill="#161424"/>
<circle opacity="0.540783" cx="326.799" cy="142.311" r="0.715691" fill="#161424"/>
</g>
<circle cx="22.2309" cy="1616.83" r="9.35424" fill="#1C1A2F"/>
<mask id="mask1_165_5552" style="mask-type:luminance" maskUnits="userSpaceOnUse" x="12" y="1607" width="20" height="20">
<circle cx="22.2309" cy="1616.83" r="9.35424" fill="white"/>
</mask>
<g mask="url(#mask1_165_5552)">
<circle cx="30.8416" cy="1615.26" r="10.9981" fill="#26233F"/>
</g>
<path opacity="0.112188" fill-rule="evenodd" clip-rule="evenodd" d="M13.261 1612.53C13.1188 1612.21 13.2024 1611.83 13.4681 1611.59C13.7675 1611.33 14.215 1611.32 14.5263 1611.57L14.6529 1611.67C14.9375 1611.9 15.3241 1611.96 15.6638 1611.82L16.2396 1611.59C16.3851 1611.53 16.5197 1611.45 16.6373 1611.35L17.0219 1611.01C17.2642 1610.8 17.6197 1610.77 17.8874 1610.95C18.144 1611.13 18.4827 1611.11 18.725 1610.92L18.9752 1610.72C19.2345 1610.52 19.6029 1610.52 19.8554 1610.74C20.0383 1610.89 20.2882 1610.94 20.5165 1610.87L20.7798 1610.78C21.0332 1610.7 21.3088 1610.73 21.5435 1610.85C21.811 1611 22.1296 1611.01 22.4067 1610.88L22.6567 1610.77C22.9369 1610.65 23.1272 1610.38 23.1536 1610.07L23.1665 1609.92C23.1927 1609.62 23.4255 1609.38 23.7277 1609.33C23.8712 1609.31 24.0173 1609.34 24.1432 1609.41L24.6889 1609.72C24.8928 1609.84 25.1296 1609.89 25.3622 1609.85L25.6745 1609.81C25.914 1609.78 26.1092 1609.6 26.1677 1609.36C26.2262 1609.13 26.4213 1608.95 26.6609 1608.92L26.9193 1608.88C27.0984 1608.86 27.281 1608.88 27.4469 1608.96L27.6816 1609.06C27.8513 1609.13 28.0381 1609.16 28.2213 1609.13L28.2571 1609.13C28.4934 1609.09 28.7334 1609.15 28.9257 1609.3L29.0769 1609.41C29.1786 1609.48 29.2458 1609.59 29.2633 1609.72C29.291 1609.92 29.1914 1610.11 29.0149 1610.2L28.7388 1610.34C28.5977 1610.42 28.4294 1610.41 28.2913 1610.33C28.1635 1610.26 28.009 1610.25 27.874 1610.31L27.0522 1610.67L26.1315 1610.97C25.9668 1611.03 25.7888 1611.03 25.6227 1610.98C25.4549 1610.93 25.2752 1610.93 25.1092 1610.99L24.5175 1611.19C24.3327 1611.26 24.181 1611.39 24.0963 1611.57C23.9905 1611.79 23.7817 1611.94 23.5401 1611.97L22.3744 1612.14L21.6528 1612.24L20.7938 1612.36C20.6612 1612.38 20.5352 1612.43 20.4267 1612.51C20.2506 1612.63 20.0312 1612.69 19.8165 1612.65L19.4946 1612.6C19.3648 1612.58 19.245 1612.52 19.1528 1612.43C18.9426 1612.21 18.6093 1612.18 18.3633 1612.35L17.8646 1612.7C17.7778 1612.76 17.6842 1612.81 17.5856 1612.85L16.9195 1613.11C16.7714 1613.16 16.6172 1613.2 16.4599 1613.22C16.3516 1613.24 16.2447 1613.26 16.1402 1613.3L14.9976 1613.65C14.8257 1613.7 14.6446 1613.72 14.4659 1613.7C14.0107 1613.64 13.6182 1613.35 13.4345 1612.93L13.261 1612.53Z" fill="white"/>
<path opacity="0.112188" fill-rule="evenodd" clip-rule="evenodd" d="M30.9508 1620.05C31.093 1620.37 31.0094 1620.75 30.7437 1620.99C30.4443 1621.25 29.9968 1621.26 29.6855 1621.01L29.5589 1620.91C29.2743 1620.68 28.8878 1620.62 28.548 1620.76L27.9722 1620.99C27.8267 1621.05 27.6922 1621.13 27.5745 1621.23L27.1899 1621.57C26.9476 1621.78 26.5922 1621.81 26.3244 1621.63C26.0679 1621.45 25.7291 1621.47 25.4868 1621.66L25.2366 1621.86C24.9773 1622.06 24.6089 1622.06 24.3564 1621.84C24.1736 1621.69 23.9236 1621.64 23.6954 1621.71L23.432 1621.8C23.1786 1621.88 22.903 1621.85 22.6683 1621.73C22.4008 1621.58 22.0822 1621.57 21.8051 1621.7L21.5551 1621.81C21.2749 1621.93 21.0846 1622.2 21.0582 1622.51L21.0453 1622.66C21.0191 1622.96 20.7863 1623.21 20.4841 1623.25C20.3406 1623.27 20.1945 1623.24 20.0686 1623.17L19.5229 1622.86C19.319 1622.74 19.0822 1622.69 18.8497 1622.73L18.5373 1622.77C18.2978 1622.81 18.1026 1622.98 18.0441 1623.22C17.9856 1623.45 17.7905 1623.63 17.5509 1623.66L17.2925 1623.7C17.1134 1623.72 16.9308 1623.7 16.7649 1623.62L16.5302 1623.52C16.3606 1623.45 16.1738 1623.42 15.9905 1623.45L15.9548 1623.45C15.7184 1623.49 15.4784 1623.43 15.2861 1623.28L15.1349 1623.17C15.0333 1623.1 14.966 1622.99 14.9485 1622.86C14.9208 1622.66 15.0204 1622.47 15.1969 1622.38L15.4731 1622.24C15.6141 1622.16 15.7825 1622.17 15.9205 1622.25C16.0484 1622.32 16.2028 1622.33 16.3379 1622.27L17.1596 1621.91L18.0803 1621.61C18.2451 1621.55 18.423 1621.55 18.5892 1621.6C18.7569 1621.65 18.9367 1621.65 19.1027 1621.59L19.6943 1621.39C19.8791 1621.32 20.0308 1621.19 20.1155 1621.01C20.2214 1620.79 20.4301 1620.64 20.6717 1620.61L21.8375 1620.44L22.5591 1620.34L23.418 1620.22C23.5506 1620.2 23.6766 1620.15 23.7851 1620.07C23.9612 1619.95 24.1806 1619.89 24.3953 1619.93L24.7172 1619.98C24.847 1620 24.9668 1620.06 25.059 1620.15C25.2692 1620.37 25.6025 1620.4 25.8485 1620.23L26.3472 1619.88C26.434 1619.82 26.5277 1619.77 26.6262 1619.73L27.2923 1619.48C27.4404 1619.42 27.5947 1619.38 27.752 1619.36C27.8602 1619.34 27.9671 1619.32 28.0716 1619.28L29.2142 1618.93C29.3861 1618.88 29.5672 1618.86 29.7459 1618.88C30.2011 1618.94 30.5937 1619.23 30.7773 1619.65L30.9508 1620.05Z" fill="white"/>
<path opacity="0.112188" fill-rule="evenodd" clip-rule="evenodd" d="M12.4073 1620.08C12.1766 1619.63 12.3067 1619.09 12.7124 1618.8C13.0424 1618.56 13.4822 1618.55 13.8259 1618.77L14.0711 1618.92C14.4374 1619.15 14.8878 1619.2 15.2968 1619.06L16.0925 1618.79C16.2792 1618.72 16.4557 1618.63 16.6167 1618.52L17.1218 1618.16C17.4391 1617.93 17.8556 1617.91 18.2016 1618.08C18.5327 1618.25 18.9295 1618.23 19.2426 1618.03L19.6335 1617.78C19.9569 1617.57 20.3728 1617.57 20.6938 1617.79C20.9291 1617.94 21.2204 1617.99 21.4918 1617.91L21.9 1617.8C22.209 1617.71 22.5382 1617.73 22.8362 1617.85C23.1746 1617.98 23.5517 1617.99 23.8927 1617.86L24.3405 1617.69C24.6419 1617.57 24.8576 1617.3 24.9039 1616.99C24.9606 1616.6 25.2676 1616.29 25.6577 1616.24L25.6822 1616.23C25.849 1616.21 26.0191 1616.23 26.1738 1616.3L26.8539 1616.59C27.1127 1616.7 27.3972 1616.74 27.6763 1616.7L28.1933 1616.63C28.4469 1616.59 28.6594 1616.42 28.7435 1616.18C28.8277 1615.93 29.0401 1615.76 29.2938 1615.72L29.7395 1615.66C29.9512 1615.63 30.1669 1615.65 30.3704 1615.72L30.659 1615.81C30.8806 1615.88 31.1153 1615.9 31.3457 1615.87L31.515 1615.84C31.7426 1615.81 31.9744 1615.86 32.1743 1615.97L32.4406 1616.12C32.5547 1616.18 32.6323 1616.3 32.6505 1616.43C32.6769 1616.62 32.5747 1616.8 32.4007 1616.87L31.9454 1617.07C31.7703 1617.15 31.5716 1617.15 31.3962 1617.07C31.2335 1617 31.0504 1617 30.8842 1617.06L29.8147 1617.45L28.6283 1617.8C28.4218 1617.86 28.2035 1617.87 27.9931 1617.82C27.7807 1617.78 27.5602 1617.79 27.352 1617.85L26.5422 1618.09C26.3325 1618.15 26.1525 1618.29 26.0356 1618.47C25.8934 1618.7 25.6595 1618.85 25.3959 1618.89L23.8379 1619.11L22.9207 1619.23L21.8208 1619.39C21.6567 1619.41 21.4987 1619.47 21.356 1619.55C21.1267 1619.69 20.8602 1619.75 20.5949 1619.72L20.1646 1619.68C20.0072 1619.66 19.8576 1619.6 19.7341 1619.5C19.4734 1619.3 19.1118 1619.27 18.8216 1619.43L18.1113 1619.84C17.9969 1619.9 17.8764 1619.96 17.7515 1620L17.0974 1620.22C16.7739 1620.32 16.4411 1620.4 16.1034 1620.45L14.3902 1620.91C14.2048 1620.96 14.0124 1620.98 13.8207 1620.97L13.5504 1620.95C13.1101 1620.93 12.7167 1620.67 12.5126 1620.28L12.4073 1620.08Z" fill="white"/>
<path opacity="0.112188" fill-rule="evenodd" clip-rule="evenodd" d="M31.805 1612.5C32.0357 1612.95 31.9056 1613.49 31.4999 1613.78C31.1699 1614.02 30.7301 1614.03 30.3864 1613.82L30.1412 1613.66C29.7749 1613.43 29.3245 1613.38 28.9155 1613.52L28.1198 1613.79C27.9331 1613.86 27.7566 1613.95 27.5956 1614.06L27.0905 1614.42C26.7732 1614.65 26.3567 1614.68 26.0107 1614.5C25.6796 1614.33 25.2828 1614.35 24.9697 1614.55L24.5788 1614.8C24.2554 1615.01 23.8395 1615.01 23.5185 1614.79C23.2832 1614.64 22.9919 1614.59 22.7205 1614.67L22.3123 1614.78C22.0033 1614.87 21.6741 1614.85 21.3761 1614.73C21.0377 1614.6 20.6606 1614.59 20.3196 1614.72L19.8718 1614.89C19.5705 1615.01 19.3547 1615.28 19.3084 1615.59C19.2517 1615.98 18.9447 1616.29 18.5546 1616.34L18.5301 1616.35C18.3633 1616.37 18.1932 1616.35 18.0385 1616.28L17.3584 1615.99C17.0996 1615.88 16.8151 1615.84 16.536 1615.88L16.019 1615.95C15.7654 1615.99 15.5529 1616.16 15.4688 1616.4C15.3846 1616.65 15.1722 1616.82 14.9185 1616.86L14.4728 1616.92C14.2611 1616.95 14.0454 1616.93 13.8419 1616.86L13.5533 1616.77C13.3317 1616.7 13.097 1616.68 12.8666 1616.71L12.6973 1616.74C12.4697 1616.77 12.2379 1616.72 12.038 1616.61L11.7717 1616.46C11.6576 1616.4 11.58 1616.28 11.5618 1616.15C11.5354 1615.96 11.6376 1615.78 11.8116 1615.71L12.2669 1615.51C12.442 1615.43 12.6407 1615.43 12.8161 1615.51C12.9788 1615.58 13.1619 1615.58 13.3281 1615.52L14.3976 1615.13L15.584 1614.78C15.7905 1614.72 16.0089 1614.71 16.2192 1614.76C16.4316 1614.8 16.6521 1614.79 16.8603 1614.73L17.6701 1614.49C17.8798 1614.43 18.0598 1614.29 18.1767 1614.11C18.3189 1613.88 18.5528 1613.73 18.8164 1613.69L20.3744 1613.47L21.2916 1613.35L22.3915 1613.19C22.5556 1613.17 22.7136 1613.11 22.8563 1613.03C23.0856 1612.89 23.3522 1612.83 23.6174 1612.86L24.0477 1612.9C24.2051 1612.92 24.3547 1612.98 24.4782 1613.08C24.7389 1613.28 25.1005 1613.31 25.3907 1613.15L26.101 1612.74C26.2154 1612.68 26.3359 1612.62 26.4608 1612.58L27.1149 1612.36C27.4384 1612.26 27.7712 1612.18 28.1089 1612.13L29.8221 1611.67C30.0075 1611.62 30.1999 1611.6 30.3916 1611.61L30.6619 1611.63C31.1022 1611.66 31.4956 1611.91 31.6997 1612.3L31.805 1612.5Z" fill="white"/>
<circle cx="47.7005" cy="73.1531" r="4.44558" fill="#1C1A2E"/>
<mask id="mask2_165_5552" style="mask-type:luminance" maskUnits="userSpaceOnUse" x="43" y="68" width="10" height="10">
<circle cx="47.7005" cy="73.1531" r="4.44558" fill="white"/>
</mask>
<g mask="url(#mask2_165_5552)">
<circle opacity="0.480911" cx="50.3865" cy="72.5047" r="5.27913" fill="#2B2941"/>
</g>
<!-- <circle cx="52.2236" cy="676.851" r="27.2783" fill="#1C1A2E"/>
<mask id="mask3_165_5552" style="mask-type:luminance" maskUnits="userSpaceOnUse" x="24" y="649" width="56" height="56">
<circle cx="52.2236" cy="676.851" r="27.2783" fill="white"/>
</mask> -->
<!-- <g mask="url(#mask3_165_5552)">
<circle opacity="0.480911" cx="69.4514" cy="674.863" r="32.3584" fill="#2B2941"/>
<circle opacity="0.480911" cx="30.1355" cy="644.382" r="31.3584" stroke="black" stroke-width="2"/>
<circle opacity="0.480911" cx="30.5772" cy="648.579" r="36.6595" stroke="black" stroke-width="2"/>
<circle opacity="0.480911" cx="36.2104" cy="655.095" r="36.549" stroke="black" stroke-width="2"/>
<circle opacity="0.480911" cx="40.4064" cy="662.605" r="36.549" stroke="black" stroke-width="2"/>
<circle opacity="0.480911" cx="44.3823" cy="666.58" r="36.549" stroke="black" stroke-width="2"/>
<circle opacity="0.480911" cx="29.1417" cy="642.726" r="25.2843" stroke="black" stroke-width="2"/>
<circle opacity="0.480911" cx="24.9457" cy="636.32" r="25.2843" stroke="black" stroke-width="2"/>
</g> -->
<path fill-rule="evenodd" clip-rule="evenodd" d="M163.048 62.7262L162.213 62.0791L163.048 61.4319L163.695 60.5972L164.342 61.4319L165.177 62.0791L164.342 62.7262L163.695 63.5609L163.048 62.7262Z" fill="#979797"/>
<path opacity="0.0608491" fill-rule="evenodd" clip-rule="evenodd" d="M119.518 56.4284L118.684 55.7812L119.518 55.1341L120.166 54.2994L120.813 55.1341L121.647 55.7812L120.813 56.4284L120.166 57.2631L119.518 56.4284Z" fill="#979797"/>
<path opacity="0.0904018" fill-rule="evenodd" clip-rule="evenodd" d="M225.843 58.4664L225.008 57.8193L225.843 57.1722L226.49 56.3374L227.137 57.1722L227.972 57.8193L227.137 58.4664L226.49 59.3012L225.843 58.4664Z" fill="#979797"/>
<path opacity="0.143438" fill-rule="evenodd" clip-rule="evenodd" d="M101.979 32.5209L101.457 32.1164L101.979 31.712L102.383 31.1903L102.788 31.712L103.309 32.1164L102.788 32.5209L102.383 33.0426L101.979 32.5209Z" fill="#979797"/>
<path fill-rule="evenodd" clip-rule="evenodd" d="M267.521 469.867L266.686 469.22L267.521 468.573L268.168 467.738L268.815 468.573L269.65 469.22L268.815 469.867L268.168 470.702L267.521 469.867Z" fill="#2FFD61"/>
<path fill-rule="evenodd" clip-rule="evenodd" d="M241.959 516.36L241.124 515.713L241.959 515.066L242.606 514.231L243.253 515.066L244.088 515.713L243.253 516.36L242.606 517.195L241.959 516.36Z" fill="#2FFD61"/>
<path opacity="0.0608491" fill-rule="evenodd" clip-rule="evenodd" d="M228.622 475.424L227.787 474.777L228.622 474.13L229.269 473.295L229.916 474.13L230.751 474.777L229.916 475.424L229.269 476.259L228.622 475.424Z" fill="#979797"/>
<path opacity="0.0904018" fill-rule="evenodd" clip-rule="evenodd" d="M334.945 477.462L334.11 476.814L334.945 476.167L335.592 475.333L336.239 476.167L337.074 476.814L336.239 477.462L335.592 478.296L334.945 477.462Z" fill="#979797"/>
<path opacity="0.143438" fill-rule="evenodd" clip-rule="evenodd" d="M211.082 451.517L210.56 451.112L211.082 450.708L211.486 450.186L211.891 450.708L212.412 451.112L211.891 451.517L211.486 452.038L211.082 451.517Z" fill="#979797"/>
<path fill-rule="evenodd" clip-rule="evenodd" d="M295.491 922.02L294.656 921.373L295.491 920.726L296.138 919.891L296.785 920.726L297.62 921.373L296.785 922.02L296.138 922.855L295.491 922.02Z" fill="#F700FE"/>
<path opacity="0.0608491" fill-rule="evenodd" clip-rule="evenodd" d="M251.961 915.722L251.126 915.075L251.961 914.428L252.608 913.593L253.255 914.428L254.09 915.075L253.255 915.722L252.608 916.557L251.961 915.722Z" fill="#F700FE"/>
<path opacity="0.0904018" fill-rule="evenodd" clip-rule="evenodd" d="M358.285 917.76L357.45 917.113L358.285 916.466L358.932 915.631L359.579 916.466L360.414 917.113L359.579 917.76L358.932 918.595L358.285 917.76Z" fill="#F700FE"/>
<path opacity="0.143438" fill-rule="evenodd" clip-rule="evenodd" d="M234.421 891.815L233.9 891.41L234.421 891.006L234.826 890.484L235.23 891.006L235.752 891.41L235.23 891.815L234.826 892.337L234.421 891.815Z" fill="#F700FE"/>
<path fill-rule="evenodd" clip-rule="evenodd" d="M224.572 986.871L225.407 987.519L224.572 988.166L223.925 989L223.278 988.166L222.443 987.519L223.278 986.871L223.925 986.037L224.572 986.871Z" fill="#0058FF"/>
<path opacity="0.0608491" fill-rule="evenodd" clip-rule="evenodd" d="M263.842 899.442L264.676 900.089L263.842 900.736L263.195 901.571L262.547 900.736L261.713 900.089L262.547 899.442L263.195 898.607L263.842 899.442Z" fill="#0058FF"/>
<path opacity="0.0904018" fill-rule="evenodd" clip-rule="evenodd" d="M47.6757 974.461L48.5104 975.108L47.6757 975.755L47.0286 976.59L46.3814 975.755L45.5467 975.108L46.3814 974.461L47.0286 973.626L47.6757 974.461Z" fill="#0058FF"/>
<path opacity="0.143438" fill-rule="evenodd" clip-rule="evenodd" d="M281.381 923.349L281.903 923.754L281.381 924.158L280.977 924.68L280.572 924.158L280.051 923.754L280.572 923.349L280.977 922.828L281.381 923.349Z" fill="#0058FF"/>
<path fill-rule="evenodd" clip-rule="evenodd" d="M67.7309 986.257L66.6844 986.113L67.0837 985.136L67.2268 984.089L68.2046 984.488L69.2511 984.632L68.8518 985.609L68.7087 986.656L67.7309 986.257Z" fill="#979797"/>
<path opacity="0.0904018" fill-rule="evenodd" clip-rule="evenodd" d="M78.4899 946.169L77.4435 946.026L77.8428 945.048L77.9859 944.001L78.9637 944.401L80.0101 944.544L79.6108 945.521L79.4677 946.568L78.4899 946.169Z" fill="#979797"/>
<path fill-rule="evenodd" clip-rule="evenodd" d="M137.487 973.33L136.652 972.683L137.487 972.035L138.134 971.201L138.781 972.035L139.616 972.683L138.781 973.33L138.134 974.164L137.487 973.33Z" fill="#979797"/>
<path opacity="0.0608491" fill-rule="evenodd" clip-rule="evenodd" d="M97.2918 923.873L96.4571 923.226L97.2918 922.578L97.939 921.744L98.5861 922.578L99.4208 923.226L98.5861 923.873L97.939 924.707L97.2918 923.873Z" fill="#979797"/>
<path opacity="0.0904018" fill-rule="evenodd" clip-rule="evenodd" d="M158.418 997.78L157.584 997.133L158.418 996.486L159.065 995.651L159.713 996.486L160.547 997.133L159.713 997.78L159.065 998.615L158.418 997.78Z" fill="#979797"/>
<path opacity="0.143438" fill-rule="evenodd" clip-rule="evenodd" d="M79.752 899.965L79.2303 899.561L79.752 899.156L80.1565 898.635L80.561 899.156L81.0827 899.561L80.561 899.965L80.1565 900.487L79.752 899.965Z" fill="#979797"/>
<path fill-rule="evenodd" clip-rule="evenodd" d="M253.848 610.757L253.014 610.11L253.848 609.463L254.496 608.628L255.143 609.463L255.977 610.11L255.143 610.757L254.496 611.592L253.848 610.757Z" fill="#FFEC6A"/>
<path opacity="0.0608491" fill-rule="evenodd" clip-rule="evenodd" d="M210.319 604.46L209.484 603.812L210.319 603.165L210.966 602.331L211.613 603.165L212.448 603.812L211.613 604.46L210.966 605.294L210.319 604.46Z" fill="#FFEC6A"/>
<path opacity="0.0904018" fill-rule="evenodd" clip-rule="evenodd" d="M316.642 606.497L315.808 605.85L316.642 605.203L317.29 604.368L317.937 605.203L318.771 605.85L317.937 606.497L317.29 607.332L316.642 606.497Z" fill="#FFEC6A"/>
<path opacity="0.143438" fill-rule="evenodd" clip-rule="evenodd" d="M192.779 580.552L192.257 580.148L192.779 579.743L193.184 579.222L193.588 579.743L194.11 580.148L193.588 580.552L193.184 581.074L192.779 580.552Z" fill="#FFEC6A"/>
<path fill-rule="evenodd" clip-rule="evenodd" d="M196.434 466.81L197.268 467.458L196.434 468.105L195.786 468.939L195.139 468.105L194.305 467.458L195.139 466.81L195.786 465.976L196.434 466.81Z" fill="#F700FE"/>
<path opacity="0.0608491" fill-rule="evenodd" clip-rule="evenodd" d="M288.309 494.04L289.144 494.687L288.309 495.334L287.662 496.169L287.015 495.334L286.18 494.687L287.015 494.04L287.662 493.205L288.309 494.04Z" fill="#979797"/>
<path opacity="0.0904018" fill-rule="evenodd" clip-rule="evenodd" d="M181.986 492.002L182.82 492.649L181.986 493.297L181.338 494.131L180.691 493.297L179.857 492.649L180.691 492.002L181.338 491.168L181.986 492.002Z" fill="#979797"/>
<path opacity="0.0904018" fill-rule="evenodd" clip-rule="evenodd" d="M306.091 564.799L306.926 565.446L306.091 566.093L305.444 566.928L304.797 566.093L303.962 565.446L304.797 564.799L305.444 563.964L306.091 564.799Z" fill="#979797"/>
<path opacity="0.0904018" fill-rule="evenodd" clip-rule="evenodd" d="M151.978 457.179L152.813 457.826L151.978 458.473L151.331 459.308L150.684 458.473L149.849 457.826L150.684 457.179L151.331 456.344L151.978 457.179Z" fill="#979797"/>
<path opacity="0.0904018" fill-rule="evenodd" clip-rule="evenodd" d="M160.869 401.794L161.704 402.441L160.869 403.088L160.222 403.923L159.575 403.088L158.74 402.441L159.575 401.794L160.222 400.959L160.869 401.794Z" fill="#979797"/>
<path opacity="0.143438" fill-rule="evenodd" clip-rule="evenodd" d="M305.848 517.947L306.37 518.352L305.848 518.756L305.444 519.278L305.039 518.756L304.518 518.352L305.039 517.947L305.444 517.426L305.848 517.947Z" fill="#979797"/>
<path fill-rule="evenodd" clip-rule="evenodd" d="M1.0136 461.994L1.84831 462.642L1.0136 463.289L0.366455 464.123L-0.280693 463.289L-1.1154 462.642L-0.280693 461.994L0.366455 461.16L1.0136 461.994Z" fill="#979797"/>
<path opacity="0.0608491" fill-rule="evenodd" clip-rule="evenodd" d="M44.5427 468.292L45.3774 468.939L44.5427 469.587L43.8955 470.421L43.2484 469.587L42.4136 468.939L43.2484 468.292L43.8955 467.458L44.5427 468.292Z" fill="#979797"/>
<path opacity="0.143438" fill-rule="evenodd" clip-rule="evenodd" d="M62.0824 492.2L62.6041 492.605L62.0824 493.009L61.678 493.531L61.2735 493.009L60.7518 492.605L61.2735 492.2L61.678 491.679L62.0824 492.2Z" fill="#979797"/>
<path fill-rule="evenodd" clip-rule="evenodd" d="M26.0197 281.393L26.8544 282.04L26.0197 282.687L25.3726 283.522L24.7254 282.687L23.8907 282.04L24.7254 281.393L25.3726 280.558L26.0197 281.393Z" fill="#979797"/>
<path opacity="0.0608491" fill-rule="evenodd" clip-rule="evenodd" d="M69.5492 287.691L70.384 288.338L69.5492 288.985L68.9021 289.82L68.255 288.985L67.4202 288.338L68.255 287.691L68.9021 286.856L69.5492 287.691Z" fill="#979797"/>
<path opacity="0.143438" fill-rule="evenodd" clip-rule="evenodd" d="M87.0888 311.598L87.6105 312.003L87.0888 312.407L86.6843 312.929L86.2799 312.407L85.7582 312.003L86.2799 311.598L86.6843 311.077L87.0888 311.598Z" fill="#979797"/>
<path opacity="0.167015" fill-rule="evenodd" clip-rule="evenodd" d="M4.67536 59.9479L3.84065 59.3007L4.67536 58.6536L5.32251 57.8189L5.96966 58.6536L6.80437 59.3007L5.96966 59.9479L5.32251 60.7826L4.67536 59.9479Z" fill="#979797"/>
<path fill-rule="evenodd" clip-rule="evenodd" d="M60.0599 96.069L59.2252 95.4218L60.0599 94.7747L60.707 93.94L61.3542 94.7747L62.1889 95.4218L61.3542 96.069L60.707 96.9037L60.0599 96.069Z" fill="#979797"/>
<path fill-rule="evenodd" clip-rule="evenodd" d="M333.123 101.726L332.601 101.322L333.123 100.918L333.527 100.396L333.932 100.918L334.454 101.322L333.932 101.726L333.527 102.248L333.123 101.726Z" fill="#F700FE"/>
<path fill-rule="evenodd" clip-rule="evenodd" d="M340.93 237.017L340.408 236.613L340.93 236.209L341.334 235.687L341.739 236.209L342.261 236.613L341.739 237.017L341.334 237.539L340.93 237.017Z" fill="#979797"/>
<path fill-rule="evenodd" clip-rule="evenodd" d="M3.25105 116.247L2.72936 115.843L3.25105 115.438L3.65552 114.916L4.05999 115.438L4.58168 115.843L4.05999 116.247L3.65552 116.769L3.25105 116.247Z" fill="#979797"/>
<path fill-rule="evenodd" clip-rule="evenodd" d="M70.6756 246.094L70.1539 245.689L70.6756 245.285L71.0801 244.763L71.4845 245.285L72.0062 245.689L71.4845 246.094L71.0801 246.615L70.6756 246.094Z" fill="#979797"/>
<path fill-rule="evenodd" clip-rule="evenodd" d="M258.316 124.953L257.794 124.548L258.316 124.144L258.72 123.622L259.125 124.144L259.647 124.548L259.125 124.953L258.72 125.474L258.316 124.953Z" fill="#FFEC6A"/>
<path fill-rule="evenodd" clip-rule="evenodd" d="M269.615 275.546L269.094 275.141L269.615 274.737L270.02 274.215L270.424 274.737L270.946 275.141L270.424 275.546L270.02 276.067L269.615 275.546Z" fill="#979797"/>
<path fill-rule="evenodd" clip-rule="evenodd" d="M264.587 52.8246L264.065 52.4201L264.587 52.0157L264.991 51.494L265.396 52.0157L265.918 52.4201L265.396 52.8246L264.991 53.3463L264.587 52.8246Z" fill="#979797"/>
<path fill-rule="evenodd" clip-rule="evenodd" d="M305.736 227.2L305.214 226.796L305.736 226.391L306.14 225.869L306.545 226.391L307.066 226.796L306.545 227.2L306.14 227.722L305.736 227.2Z" fill="#979797"/>
<path opacity="0.143438" fill-rule="evenodd" clip-rule="evenodd" d="M293.51 244.057L292.989 243.652L293.51 243.248L293.915 242.726L294.319 243.248L294.841 243.652L294.319 244.057L293.915 244.578L293.51 244.057Z" fill="#979797"/>
<path opacity="0.143438" fill-rule="evenodd" clip-rule="evenodd" d="M324.629 169.964L324.108 169.56L324.629 169.155L325.034 168.634L325.438 169.155L325.96 169.56L325.438 169.964L325.034 170.486L324.629 169.964Z" fill="#979797"/>
<path opacity="0.143438" fill-rule="evenodd" clip-rule="evenodd" d="M335.929 320.557L335.407 320.153L335.929 319.748L336.333 319.226L336.737 319.748L337.259 320.153L336.737 320.557L336.333 321.079L335.929 320.557Z" fill="#979797"/>
<!-- <path d="M114.929 556.296C114.929 556.296 115.517 565.809 105.986 570.209C96.4538 574.61 89.6268 566.769 78.7096 564.796C56.5277 560.787 24.3892 572.623 39.7013 620.74C48.3834 648.023 48.408 701.389 68.1303 723.143C94.0788 751.765 141.597 779.651 173.076 754.348C233.441 694.889 102.057 618.455 121.79 578.952C138.881 544.736 182.121 588.252 202.633 552.058C213.009 533.748 226.735 528.477 260.754 531.995C294.773 535.514 302.045 593.408 333.494 586.734C364.943 580.061 337.131 552.871 360.211 533.716C383.291 514.561 468.833 542.583 479.419 501.609C483.767 484.782 479.424 480.14 471.422 477.612C463.42 475.084 446.932 481.539 451.132 497C458.259 523.233 545.743 480.784 555.943 528.848C564.359 568.507 508.655 661.433 475.693 687.01C466.699 693.989 454.444 697.049 450.745 691.423C443.997 681.163 453.314 674.329 462.868 671.945C477.495 668.296 503.164 673.093 513.986 684.377C531.878 703.031 503.51 730.066 503.51 730.066" stroke="#7B2CFE" stroke-width="4" stroke-linecap="round"/> -->
<!-- <path d="M114.929 556.296C114.929 556.296 115.517 565.809 105.986 570.209C96.4538 574.61 89.6268 566.769 78.7096 564.796C56.5277 560.787 24.3892 572.623 39.7013 620.74C48.3834 648.023 48.408 701.389 68.1303 723.143C94.0788 751.765 141.597 779.651 173.076 754.348C233.441 694.889 102.057 618.455 121.79 578.952C138.881 544.736 182.121 588.252 202.633 552.058C213.009 533.748 226.735 528.477 260.754 531.995C294.773 535.514 302.045 593.408 333.494 586.734C364.943 580.061 337.131 552.871 360.211 533.716C383.291 514.561 468.833 542.583 479.419 501.609C483.767 484.782 479.424 480.14 471.422 477.612C463.42 475.084 446.932 481.539 451.132 497C458.259 523.233 545.743 480.784 555.943 528.848C564.359 568.507 508.655 661.433 475.693 687.01C466.699 693.989 454.444 697.049 450.745 691.423C443.997 681.163 453.314 674.329 462.868 671.945C477.495 668.296 503.164 673.093 513.986 684.377C531.878 703.031 503.51 730.066 503.51 730.066" stroke="black" stroke-opacity="0.6" stroke-width="4" stroke-linecap="round"/> -->
<path d="M27.2483 101.712C29.5672 91.6048 42.3238 69.9754 74.7994 64.3161" stroke="url(#paint4_linear_165_5552)" stroke-opacity="0.2" stroke-width="6" stroke-linecap="round"/>
<path d="M27.2483 101.712C29.5672 91.6048 42.3238 69.9754 74.7994 64.3161" stroke="url(#paint5_linear_165_5552)" stroke-width="6" stroke-linecap="round"/>
<path fill-rule="evenodd" clip-rule="evenodd" d="M254.572 2653.38L253.737 2652.74L254.572 2652.09L255.219 2651.25L255.866 2652.09L256.701 2652.74L255.866 2653.38L255.219 2654.22L254.572 2653.38Z" fill="#0058FF"/>
<path fill-rule="evenodd" clip-rule="evenodd" d="M312.955 2726.94L312.207 2726.36L312.955 2725.78L313.534 2725.03L314.114 2725.78L314.861 2726.36L314.114 2726.94L313.534 2727.68L312.955 2726.94Z" fill="#0058FF"/>
<circle cx="83.1181" cy="223.562" r="8.52069" fill="#1C1A2E"/>
<mask id="mask4_165_5552" style="mask-type:luminance" maskUnits="userSpaceOnUse" x="74" y="215" width="18" height="18">
<circle cx="83.1181" cy="223.562" r="8.52069" fill="white"/>
</mask>
<g mask="url(#mask4_165_5552)">
<circle opacity="0.480911" cx="90.8976" cy="222.265" r="10.0026" fill="#2B2941"/>
</g>
<circle cx="42.236" cy="121.499" r="1.03756" fill="#161424" stroke="black" stroke-width="2"/>
<circle cx="42.1435" cy="121.5" r="1.59325" fill="#161424" stroke="black" stroke-width="2"/>
<circle cx="42.1436" cy="121.499" r="1.29663" fill="#403D5E"/>
<path fill-rule="evenodd" clip-rule="evenodd" d="M116.185 175.163L115.351 174.516L116.185 173.869L116.833 173.034L117.48 173.869L118.314 174.516L117.48 175.163L116.833 175.998L116.185 175.163Z" fill="#979797"/>
<path fill-rule="evenodd" clip-rule="evenodd" d="M294.595 89.3158L294.073 88.9114L294.595 88.5069L294.999 87.9852L295.403 88.5069L295.925 88.9114L295.403 89.3158L294.999 89.8375L294.595 89.3158Z" fill="#0058FF"/>
<path opacity="0.143438" fill-rule="evenodd" clip-rule="evenodd" d="M282.211 111.431L281.69 111.026L282.211 110.622L282.616 110.1L283.02 110.622L283.542 111.026L283.02 111.431L282.616 111.952L282.211 111.431Z" fill="#979797"/>
<path fill-rule="evenodd" clip-rule="evenodd" d="M216.686 189.328L215.851 188.681L216.686 188.033L217.333 187.199L217.98 188.033L218.815 188.681L217.98 189.328L217.333 190.162L216.686 189.328Z" fill="#0058FF"/>
<path opacity="0.143438" fill-rule="evenodd" clip-rule="evenodd" d="M209.971 188.487L209.449 188.083L209.971 187.678L210.375 187.157L210.779 187.678L211.301 188.083L210.779 188.487L210.375 189.009L209.971 188.487Z" fill="#979797"/>
<path fill-rule="evenodd" clip-rule="evenodd" d="M266.267 367.711L267.101 368.358L266.267 369.006L265.619 369.84L264.972 369.006L264.138 368.358L264.972 367.711L265.619 366.877L266.267 367.711Z" fill="#FFEC6A"/>
<path opacity="0.0608491" fill-rule="evenodd" clip-rule="evenodd" d="M309.796 374.009L310.631 374.656L309.796 375.303L309.149 376.138L308.502 375.303L307.667 374.656L308.502 374.009L309.149 373.174L309.796 374.009Z" fill="#979797"/>
<path opacity="0.0904018" fill-rule="evenodd" clip-rule="evenodd" d="M203.473 371.972L204.307 372.619L203.473 373.266L202.825 374.101L202.178 373.266L201.344 372.619L202.178 371.972L202.825 371.137L203.473 371.972Z" fill="#979797"/>
<path opacity="0.143438" fill-rule="evenodd" clip-rule="evenodd" d="M327.336 397.917L327.858 398.321L327.336 398.726L326.931 399.247L326.527 398.726L326.005 398.321L326.527 397.917L326.931 397.395L327.336 397.917Z" fill="#979797"/>
<circle cx="125.381" cy="2639.06" r="10.6265" fill="#1C1A2E"/>
<mask id="mask5_165_5552" style="mask-type:luminance" maskUnits="userSpaceOnUse" x="114" y="2628" width="23" height="22">
<circle cx="125.381" cy="2639.06" r="10.6265" fill="white"/>
</mask>
<g mask="url(#mask5_165_5552)">
<circle cx="133.882" cy="2635.71" r="12.4163" fill="#2C2855"/>
<circle opacity="0.540783" cx="122.137" cy="2628.88" r="2.01345" fill="#161424"/>
<circle opacity="0.540783" cx="129.743" cy="2648.35" r="2.01345" fill="#161424"/>
<circle opacity="0.540783" cx="123.591" cy="2636.6" r="2.57274" fill="#161424"/>
<circle opacity="0.540783" cx="121.131" cy="2645.33" r="2.57274" fill="#161424"/>
<circle opacity="0.540783" cx="131.869" cy="2636.38" r="2.57274" fill="#161424"/>
<circle opacity="0.540783" cx="126.276" cy="2642.87" r="0.783009" fill="#161424"/>
<circle opacity="0.540783" cx="130.974" cy="2641.75" r="0.783009" fill="#161424"/>
<circle opacity="0.540783" cx="128.961" cy="2632.57" r="0.783009" fill="#161424"/>
<circle opacity="0.540783" cx="117.104" cy="2636.82" r="0.783009" fill="#161424"/>
<circle opacity="0.540783" cx="133.211" cy="2644.21" r="0.783009" fill="#161424"/>
<circle opacity="0.540783" cx="120.236" cy="2639.73" r="1.23044" fill="#161424"/>
<circle opacity="0.540783" cx="133.659" cy="2632.13" r="1.23044" fill="#161424"/>
<circle opacity="0.540783" cx="127.395" cy="2639.29" r="1.23044" fill="#161424"/>
<circle opacity="0.540783" cx="124.71" cy="2649.58" r="1.23044" fill="#161424"/>
<circle opacity="0.540783" cx="115.538" cy="2641.52" r="1.23044" fill="#161424"/>
</g>
<circle cx="215.753" cy="2739.07" r="8.38177" fill="#1C1A2E"/>
<mask id="mask6_165_5552" style="mask-type:luminance" maskUnits="userSpaceOnUse" x="207" y="2730" width="18" height="18">
<circle cx="215.753" cy="2739.07" r="8.38177" fill="white"/>
</mask>
<g mask="url(#mask6_165_5552)">
<circle opacity="0.480911" cx="221" cy="2738.45" r="9.94909" fill="#2B2941"/>
<circle opacity="0.480911" cx="209.006" cy="2729.05" r="8.94909" stroke="black" stroke-width="2"/>
<circle opacity="0.480911" cx="209.142" cy="2730.41" r="10.5846" stroke="black" stroke-width="2"/>
<circle opacity="0.480911" cx="210.846" cy="2732.39" r="10.5164" stroke="black" stroke-width="2"/>
<circle opacity="0.480911" cx="212.073" cy="2734.7" r="10.5164" stroke="black" stroke-width="2"/>
<circle opacity="0.480911" cx="213.3" cy="2735.93" r="10.5164" stroke="black" stroke-width="2"/>
<circle opacity="0.480911" cx="208.666" cy="2728.57" r="7.10919" stroke="black" stroke-width="2"/>
<circle opacity="0.480911" cx="207.439" cy="2726.66" r="7.10919" stroke="black" stroke-width="2"/>
</g>
<path fill-rule="evenodd" clip-rule="evenodd" d="M185.92 2741.54L185.085 2740.89L185.92 2740.24L186.567 2739.41L187.214 2740.24L188.049 2740.89L187.214 2741.54L186.567 2742.37L185.92 2741.54Z" fill="#2FFD61"/>
<path fill-rule="evenodd" clip-rule="evenodd" d="M210.304 2692.6L209.469 2691.96L210.304 2691.31L210.951 2690.47L211.598 2691.31L212.433 2691.96L211.598 2692.6L210.951 2693.44L210.304 2692.6Z" fill="#F700FE"/>
<defs>
<linearGradient id="paint0_linear_165_5552" x1="183.067" y1="429" x2="183.067" y2="1.7833e-05" gradientUnits="userSpaceOnUse">
<stop stop-color="#0058FF"/>
<stop offset="0.234375" stop-color="#F700FE"/>
<stop offset="1" stop-color="#F700FE" stop-opacity="0"/>
</linearGradient>
<linearGradient id="paint1_linear_165_5552" x1="164.83" y1="2863.57" x2="164.83" y2="2585.39" gradientUnits="userSpaceOnUse">
<stop stop-color="#0058FF"/>
<stop offset="0.234375" stop-color="#F700FE"/>
<stop offset="1" stop-color="#F700FE" stop-opacity="0"/>
</linearGradient>
<linearGradient id="paint2_linear_165_5552" x1="126" y1="1119.5" x2="534.123" y2="1119.5" gradientUnits="userSpaceOnUse">
<stop stop-color="#0058FF"/>
<stop offset="0.234375" stop-color="#F700FE"/>
<stop offset="1" stop-color="#F700FE" stop-opacity="0"/>
</linearGradient>
<linearGradient id="paint3_linear_165_5552" x1="-181" y1="4572.5" x2="227.123" y2="4572.5" gradientUnits="userSpaceOnUse">
<stop stop-color="#0058FF"/>
<stop offset="0.234375" stop-color="#F700FE"/>
<stop offset="1" stop-color="#F700FE" stop-opacity="0"/>
</linearGradient>
<linearGradient id="paint4_linear_165_5552" x1="25.6807" y1="102.132" x2="51.9733" y2="52.6701" gradientUnits="userSpaceOnUse">
<stop stop-color="#2FFD61"/>
<stop offset="1" stop-color="#2FFD61" stop-opacity="0"/>
</linearGradient>
<linearGradient id="paint5_linear_165_5552" x1="27.2483" y1="101.712" x2="38.9547" y2="83.1588" gradientUnits="userSpaceOnUse">
<stop stop-color="#2FFD61"/>
<stop offset="1" stop-color="#2FFD61" stop-opacity="0"/>
</linearGradient>
</defs>
</svg>
