<svg width="342" height="292" viewBox="0 0 342 292" fill="none" xmlns="http://www.w3.org/2000/svg">
<path d="M81.9293 81.2964C81.9293 81.2964 82.5174 90.8086 72.9856 95.2091C63.4538 99.6096 56.6268 91.7688 45.7096 89.7958C23.5277 85.7868 -8.61079 97.6226 6.70128 145.74C15.3834 173.023 15.408 226.389 35.1303 248.143C61.0788 276.765 108.597 304.651 140.076 279.348C200.441 219.889 69.0569 143.455 88.7896 103.952C105.881 69.7359 149.121 113.252 169.633 77.0581C180.009 58.7485 193.735 53.4768 227.754 56.9955C261.773 60.5142 269.045 118.408 300.494 111.734C331.943 105.061 304.131 77.8706 327.211 58.7157C350.291 39.5609 435.833 67.5833 446.419 26.6085C450.767 9.7816 446.424 5.14011 438.422 2.61202C430.42 0.0839363 413.932 6.53941 418.132 21.9998C425.259 48.2333 512.743 5.78358 522.943 53.8482C531.359 93.5074 475.655 186.433 442.693 212.01C433.699 218.989 421.444 222.049 417.745 216.423C410.997 206.163 420.314 199.329 429.868 196.945C444.495 193.296 470.164 198.093 480.986 209.377C498.878 228.031 470.51 255.066 470.51 255.066" stroke="#7B2CFE" stroke-width="4" stroke-linecap="round"/>
<path d="M81.9293 81.2964C81.9293 81.2964 82.5174 90.8086 72.9856 95.2091C63.4538 99.6096 56.6268 91.7688 45.7096 89.7958C23.5277 85.7868 -8.61079 97.6226 6.70128 145.74C15.3834 173.023 15.408 226.389 35.1303 248.143C61.0788 276.765 108.597 304.651 140.076 279.348C200.441 219.889 69.0569 143.455 88.7896 103.952C105.881 69.7359 149.121 113.252 169.633 77.0581C180.009 58.7485 193.735 53.4768 227.754 56.9955C261.773 60.5142 269.045 118.408 300.494 111.734C331.943 105.061 304.131 77.8706 327.211 58.7157C350.291 39.5609 435.833 67.5833 446.419 26.6085C450.767 9.7816 446.424 5.14011 438.422 2.61202C430.42 0.0839363 413.932 6.53941 418.132 21.9998C425.259 48.2333 512.743 5.78358 522.943 53.8482C531.359 93.5074 475.655 186.433 442.693 212.01C433.699 218.989 421.444 222.049 417.745 216.423C410.997 206.163 420.314 199.329 429.868 196.945C444.495 193.296 470.164 198.093 480.986 209.377C498.878 228.031 470.51 255.066 470.51 255.066" stroke="black" stroke-opacity="0.6" stroke-width="4" stroke-linecap="round"/>
</svg>
