<svg width="249" height="414" viewBox="0 0 249 414" fill="none" xmlns="http://www.w3.org/2000/svg">
<path opacity="0.1" fill-rule="evenodd" clip-rule="evenodd" d="M339.506 353.719L382.247 292.038C386.377 287.055 390.04 281.755 393.215 276.209L394.161 274.843L393.987 274.838C412.476 241.465 413.508 199.506 393.045 164.06L330.785 56.223C299.744 2.45891 230.996 -15.9621 177.232 15.0786L139.036 37.1314L94.8877 44.107C36.3275 53.3598 -4.21881 106.149 0.35072 163.858L0.268545 163.809L11.5733 286.939L11.6649 286.804C16.8411 332.954 50.5398 373.147 98.7838 383.98L215.797 410.255C265.999 421.528 316.178 397.29 339.506 353.719ZM90.6816 171.723C91.8845 156.811 93.1656 140.932 101.229 136.44C102.43 135.771 103.805 134.993 105.34 134.123C116.997 127.521 137.885 115.691 161.864 107.037C174.414 102.507 220.526 90.6284 228.742 94.2404C245.317 101.528 313.669 182.288 320.298 191.23C326.927 200.172 326.464 209.268 303.802 238.713C285.672 262.27 256.473 309.475 244.14 330.134C241.056 333.834 230.604 339.014 213.461 330.134C192.032 319.034 124.722 293.229 107.587 290.781C90.4513 288.333 81.6116 269.566 84.7395 249.847C86.441 239.12 86.7858 232.556 87.42 220.481C87.9516 210.358 88.6867 196.362 90.5951 172.793C90.6239 172.437 90.6527 172.08 90.6816 171.723Z" fill="url(#paint0_linear_165_5559)"/>
<defs>
<linearGradient id="paint0_linear_165_5559" x1="3.04075e-06" y1="206.504" x2="408.123" y2="206.504" gradientUnits="userSpaceOnUse">
<stop stop-color="#0058FF"/>
<stop offset="0.234375" stop-color="#F700FE"/>
<stop offset="1" stop-color="#F700FE" stop-opacity="0"/>
</linearGradient>
</defs>
</svg>
