<svg width="1920" height="1304" viewBox="0 0 1920 1304" fill="none" xmlns="http://www.w3.org/2000/svg">
<path d="M264.416 207.399C264.416 207.399 258.086 250.082 211.771 260.613C165.456 271.144 142.607 230 96.1466 211C1.74728 172.396 -151.595 194.61 -129.021 422.117C-116.221 551.116 -166.23 787.503 -99.3801 902.389C-11.4258 1053.55 172.671 1221.72 335.744 1139.24C658.724 932.625 149.075 470.607 273.5 314.189C381.269 178.709 547.279 338.894 672.042 197.868C735.158 126.526 815.755 45.7849 963 93.3443C1110.25 140.904 1088.06 404.156 1233.5 404.156C1378.94 404.156 1281.4 257.589 1401.53 194.443C1521.65 131.298 1682.03 295.062 1767.36 123.532C1802.4 53.0902 1787.54 28.4511 1754.5 9.7325C1721.46 -8.98608 1642.43 4.10863 1646.5 76.5316C1653.4 199.421 2050 237.119 2050 459.588C2050 643.152 1716.22 1002.37 1546.33 1084.67C1499.97 1107.13 1442.86 1109.16 1431.77 1080.77C1411.55 1028.98 1459.2 1007.47 1503.72 1005.89C1571.87 1003.48 1680.97 1048.85 1718.26 1109C1779.92 1208.44 1628.99 1301.52 1628.99 1301.52" stroke="#7B2CFE" stroke-width="4" stroke-linecap="round"/>
<path d="M264.416 207.399C264.416 207.399 258.086 250.082 211.771 260.613C165.456 271.144 142.607 230 96.1466 211C1.74728 172.396 -151.595 194.61 -129.021 422.117C-116.221 551.116 -166.23 787.503 -99.3801 902.389C-11.4258 1053.55 172.671 1221.72 335.744 1139.24C658.724 932.625 149.075 470.607 273.5 314.189C381.269 178.709 547.279 338.894 672.042 197.868C735.158 126.526 815.755 45.7849 963 93.3443C1110.25 140.904 1088.06 404.156 1233.5 404.156C1378.94 404.156 1281.4 257.589 1401.53 194.443C1521.65 131.298 1682.03 295.062 1767.36 123.532C1802.4 53.0902 1787.54 28.4511 1754.5 9.7325C1721.46 -8.98608 1642.43 4.10863 1646.5 76.5316C1653.4 199.421 2050 237.119 2050 459.588C2050 643.152 1716.22 1002.37 1546.33 1084.67C1499.97 1107.13 1442.86 1109.16 1431.77 1080.77C1411.55 1028.98 1459.2 1007.47 1503.72 1005.89C1571.87 1003.48 1680.97 1048.85 1718.26 1109C1779.92 1208.44 1628.99 1301.52 1628.99 1301.52" stroke="black" stroke-opacity="0.6" stroke-width="4" stroke-linecap="round"/>
</svg>
