<svg width="591" height="533" viewBox="0 0 591 533" fill="none" xmlns="http://www.w3.org/2000/svg">
<g clip-path="url(#clip0_167_2192)">
<path fill-rule="evenodd" clip-rule="evenodd" d="M373 430.35L450.119 489.291L535.922 326.559L373 430.35Z" fill="#1C1B2A"/>
<path fill-rule="evenodd" clip-rule="evenodd" d="M38.4042 248.258C36.2311 246.132 38.2355 242.494 41.1939 243.195L221.376 285.881C229.592 287.828 237.167 291.865 243.364 297.601L448.54 487.506C452.063 490.767 449.412 496.637 444.636 496.149L290.974 480.457C279.938 479.33 269.611 474.492 261.683 466.733L38.4042 248.258Z" fill="#373451" stroke="black" stroke-width="2"/>
<path d="M37.4766 245.597V245.597C35.9521 249.393 36.8493 253.733 39.7541 256.613L256.878 471.89C264.283 479.232 273.962 483.84 284.329 484.959L438.08 501.556C440.66 501.835 443.216 500.844 444.934 498.899L449.298 493.96" stroke="black" stroke-width="2" stroke-linecap="round"/>
<path fill-rule="evenodd" clip-rule="evenodd" d="M75.2148 271.184C73.7016 269.751 75.1165 267.248 77.1251 267.805L144.947 286.625L336.067 464.545C337.501 465.88 336.358 468.268 334.418 467.988L276.824 459.671C274.779 459.375 272.875 458.454 271.375 457.033L75.2148 271.184Z" stroke="black" stroke-width="2"/>
<path d="M113.075 288.131L280.377 444.657" stroke="black" stroke-width="2" stroke-linecap="round"/>
<path d="M141.345 297.727L308.647 454.253" stroke="black" stroke-width="2" stroke-linecap="round"/>
<path d="M132.783 312.739L170.757 320.389" stroke="black" stroke-width="2" stroke-linecap="round"/>
<path d="M158.031 337.961L196.005 345.61" stroke="black" stroke-width="2" stroke-linecap="round"/>
<path d="M182.094 362.188L220.068 369.838" stroke="black" stroke-width="2" stroke-linecap="round"/>
<path d="M212.882 388.022L250.856 395.671" stroke="black" stroke-width="2" stroke-linecap="round"/>
<path d="M238.933 409.881L276.907 417.531" stroke="black" stroke-width="2" stroke-linecap="round"/>
<path d="M157.095 268.881C152.579 273.734 152.854 281.331 157.711 285.845L364.92 478.434C373.268 486.193 386.283 485.877 394.244 477.72L546.306 321.937C552.775 315.309 552.283 304.59 545.234 298.583L324.988 110.904C318.469 105.349 308.731 105.912 302.897 112.183L157.095 268.881Z" fill="#12101E" stroke="black" stroke-width="2"/>
<rect x="317.739" y="128.573" width="40" height="207" rx="7" transform="rotate(43 317.739 128.573)" fill="#1C1B2A" stroke="black" stroke-width="2"/>
<path d="M355.114 171.532C357.699 168.76 362.021 168.549 364.864 171.056L515.469 303.886C518.455 306.52 518.646 311.111 515.889 313.984L380.315 455.211C377.692 457.943 373.374 458.094 370.567 455.553L223.842 322.72C220.946 320.098 220.756 315.613 223.42 312.756L355.114 171.532Z" fill="#1C1B2A" stroke="black" stroke-width="2"/>
<path fill-rule="evenodd" clip-rule="evenodd" d="M292.542 263.12C295.496 259.952 300.435 259.711 303.684 262.576L352.882 305.968C356.295 308.978 356.513 314.225 353.362 317.508L309.244 363.465C306.247 366.587 301.311 366.76 298.103 363.856L250.17 320.461C246.861 317.465 246.644 312.339 249.689 309.074L292.542 263.12Z" fill="#12101E"/>
<path d="M362.273 327.802C364.858 325.03 369.18 324.819 372.023 327.326L421.221 370.718C424.207 373.351 424.398 377.943 421.64 380.815L377.522 426.773C374.9 429.504 370.581 429.656 367.774 427.114L319.842 383.72C316.946 381.098 316.756 376.613 319.42 373.756L362.273 327.802Z" stroke="black" stroke-width="2"/>
<path fill-rule="evenodd" clip-rule="evenodd" d="M425.542 261.12C428.496 257.952 433.435 257.711 436.684 260.576L485.882 303.968C489.295 306.978 489.513 312.225 486.362 315.508L442.244 361.465C439.247 364.587 434.311 364.76 431.103 361.856L383.17 318.461C379.861 315.465 379.644 310.339 382.689 307.074L425.542 261.12Z" fill="url(#paint0_linear_167_2192)"/>
<path d="M528.957 339.422L449.295 493.959" stroke="black" stroke-width="2"/>
<path d="M163.038 20.7869L163.61 21.607L163.038 20.7869C162.427 21.2136 162.112 22.0331 162.466 22.8097L248.453 211.632C249.822 214.638 252.637 217.906 255.607 220.193C257.097 221.341 258.673 222.278 260.179 222.806C261.665 223.328 263.227 223.499 264.568 222.888C265.891 222.286 266.804 221.043 267.409 219.609C268.02 218.162 268.371 216.399 268.498 214.546C268.751 210.849 268.129 206.58 266.655 203.343L266.638 203.306L266.62 203.266L266.6 203.221L266.578 203.173L266.554 203.121L266.529 203.066L266.502 203.007L266.473 202.944L266.443 202.877L266.411 202.807L266.377 202.732L266.342 202.655L266.305 202.573L266.266 202.488L266.226 202.4L266.184 202.308L266.14 202.212L266.095 202.113L266.048 202.01L265.999 201.903L265.949 201.793L265.898 201.68L265.844 201.563L265.79 201.443L265.733 201.319L265.675 201.192L265.616 201.061L265.555 200.927L265.492 200.789L265.428 200.648L265.362 200.504L265.295 200.356L265.226 200.205L265.156 200.051L265.084 199.893L265.011 199.732L264.936 199.568L264.86 199.4L264.782 199.23L264.703 199.056L264.622 198.878L264.54 198.698L264.456 198.514L264.371 198.327L264.284 198.137L264.196 197.944L264.107 197.748L264.016 197.548L263.924 197.346L263.83 197.14L263.735 196.931L263.639 196.72L263.541 196.505L263.442 196.287L263.341 196.066L263.239 195.842L263.136 195.615L263.031 195.385L262.925 195.153L262.818 194.917L262.709 194.678L262.599 194.437L262.488 194.192L262.375 193.945L262.261 193.694L262.146 193.441L262.029 193.185L261.911 192.926L261.792 192.665L261.672 192.4L261.55 192.133L261.427 191.863L261.303 191.59L261.178 191.315L261.051 191.037L260.923 190.756L260.794 190.472L260.663 190.186L260.532 189.897L260.399 189.605L260.265 189.311L260.13 189.014L259.993 188.715L259.856 188.412L259.717 188.108L259.577 187.801L259.436 187.491L259.294 187.178L259.151 186.864L259.006 186.546L258.86 186.226L258.714 185.904L258.566 185.579L258.417 185.252L258.267 184.922L258.115 184.59L257.963 184.256L257.81 183.919L257.655 183.58L257.5 183.238L257.343 182.894L257.185 182.548L257.026 182.199L256.867 181.848L256.706 181.495L256.544 181.14L256.381 180.782L256.217 180.422L256.052 180.06L255.886 179.696L255.719 179.329L255.551 178.96L255.383 178.589L255.213 178.216L255.042 177.841L254.87 177.464L254.697 177.084L254.523 176.703L254.349 176.319L254.173 175.933L253.996 175.546L253.819 175.156L253.641 174.764L253.461 174.37L253.281 173.975L253.1 173.577L252.918 173.177L252.735 172.775L252.551 172.372L252.366 171.966L252.181 171.559L251.994 171.149L251.807 170.738L251.619 170.325L251.43 169.91L251.24 169.494L251.05 169.075L250.858 168.655L250.666 168.233L250.473 167.809L250.279 167.383L250.085 166.956L249.889 166.527L249.693 166.096L249.496 165.663L249.298 165.229L249.1 164.793L248.901 164.356L248.701 163.916L248.5 163.476L248.298 163.033L248.096 162.589L247.893 162.144L247.69 161.697L247.485 161.248L247.28 160.798L247.075 160.346L246.868 159.893L246.661 159.438L246.453 158.982L246.245 158.524L246.036 158.065L245.826 157.604L245.616 157.142L245.405 156.679L245.193 156.214L244.981 155.748L244.768 155.281L244.554 154.812L244.34 154.342L244.126 153.87L243.91 153.397L243.694 152.923L243.478 152.448L243.261 151.971L243.043 151.493L242.825 151.014L242.606 150.534L242.387 150.053L242.167 149.57L241.947 149.086L241.726 148.601L241.505 148.115L241.283 147.628L241.061 147.14L240.838 146.65L240.614 146.16L240.391 145.668L240.166 145.175L239.941 144.682L239.716 144.187L239.49 143.691L239.264 143.195L239.038 142.697L238.81 142.198L238.583 141.699L238.355 141.198L238.127 140.697L237.898 140.195L237.669 139.691L237.439 139.187L237.209 138.682L236.979 138.177L236.748 137.67L236.517 137.163L236.286 136.654L236.054 136.145L235.822 135.636L235.589 135.125L235.357 134.614L235.123 134.102L234.89 133.589L234.656 133.076L234.422 132.562L234.188 132.047L233.953 131.531L233.718 131.015L233.483 130.499L233.247 129.981L233.011 129.464L232.775 128.945L232.539 128.426L232.302 127.907L232.065 127.386L231.828 126.866L231.591 126.345L231.353 125.823L231.116 125.301L230.878 124.778L230.639 124.255L230.401 123.732L230.163 123.208L229.924 122.684L229.685 122.159L229.446 121.634L229.207 121.109L228.967 120.583L228.728 120.057L228.488 119.531L228.248 119.004L228.008 118.477L227.768 117.95L227.528 117.423L227.288 116.895L227.047 116.367L226.807 115.839L226.566 115.31L226.325 114.782L226.085 114.253L225.844 113.724L225.603 113.195L225.362 112.666L225.121 112.137L224.88 111.608L224.639 111.078L224.398 110.549L224.157 110.019L223.915 109.49L223.674 108.96L223.433 108.431L223.192 107.901L222.951 107.372L222.71 106.842L222.469 106.313L222.228 105.784L221.987 105.254L221.746 104.725L221.505 104.196L221.264 103.667L221.023 103.138L220.782 102.61L220.542 102.081L220.301 101.553L220.06 101.025L219.82 100.497L219.58 99.9693L219.34 99.4419L219.1 98.9148L218.86 98.3879L218.62 97.8613L218.38 97.3351L218.141 96.8091L217.901 96.2835L217.662 95.7583L217.423 95.2333L217.184 94.7088L216.946 94.1847L216.707 93.661L216.469 93.1377L216.231 92.6148L215.993 92.0924L215.755 91.5704L215.518 91.0489L215.28 90.528L215.043 90.0075L214.807 89.4876L214.57 88.9682L214.334 88.4493L214.098 87.931L213.862 87.4133L213.627 86.8962L213.391 86.3797L213.156 85.8639L212.922 85.3487L212.687 84.8341L212.453 84.3202L212.22 83.807L211.986 83.2945L211.753 82.7827L211.521 82.2717L211.288 81.7613L211.056 81.2518L210.824 80.743L210.593 80.235L210.362 79.7278L210.132 79.2215L209.901 78.7159L209.671 78.2113L209.442 77.7074L209.213 77.2045L208.984 76.7024L208.756 76.2013L208.528 75.7011L208.301 75.2018L208.074 74.7035L207.848 74.2061L207.622 73.7097L207.396 73.2143L207.171 72.7199L206.946 72.2265L206.722 71.7342L206.498 71.243L206.275 70.7528L206.052 70.2636L205.83 69.7756L205.608 69.2887L205.387 68.8029L205.166 68.3183L204.946 67.8348L204.727 67.3525L204.507 66.8714L204.289 66.3915L204.071 65.9128L203.853 65.4353L203.637 64.9591L203.42 64.4841L203.205 64.0104L202.989 63.538L202.775 63.0669L202.561 62.5971L202.348 62.1287L202.135 61.6616L201.923 61.1959L201.711 60.7315L201.501 60.2685L201.29 59.807L201.081 59.3468L200.872 58.8881L200.664 58.4309L200.456 57.9751L200.249 57.5208L200.043 57.068L199.838 56.6167L199.633 56.1669L199.429 55.7187L199.225 55.272L199.023 54.8269L198.821 54.3834L198.619 53.9414L198.419 53.5011L198.219 53.0624L198.02 52.6254L197.822 52.19L197.624 51.7563L197.427 51.3243L197.231 50.8939L197.036 50.4653L196.842 50.0384L196.648 49.6133L196.455 49.1899L196.263 48.7683L196.072 48.3485L195.882 47.9305L195.692 47.5143L195.504 47.1L195.316 46.6875L195.129 46.2768L194.943 45.868L194.757 45.4612L194.573 45.0562L194.389 44.6532L194.207 44.252L194.025 43.8529L193.844 43.4557L193.664 43.0605L193.485 42.6673L193.307 42.2761L193.13 41.8869L192.953 41.4998L192.778 41.1147L192.604 40.7316L192.43 40.3507L192.258 39.9719L192.086 39.5952L191.916 39.2206L191.746 38.8481L191.577 38.4778L191.41 38.1097L191.243 37.7438L191.077 37.38L190.913 37.0185L190.749 36.6592L190.587 36.3022L190.425 35.9474L190.264 35.5949L190.105 35.2447L189.947 34.8968L189.789 34.5512L189.633 34.2079L189.478 33.867L189.323 33.5285L189.17 33.1923L189.018 32.8585L188.867 32.5272L188.718 32.1982L188.569 31.8717L188.421 31.5476L188.275 31.226L188.13 30.9069L187.985 30.5903L187.842 30.2762L187.701 29.9646L187.56 29.6556L187.42 29.3491L187.282 29.0452L187.145 28.7439L187.009 28.4451L186.874 28.149L186.74 27.8555L186.608 27.5647L186.476 27.2765L186.346 26.9909L186.218 26.7081L186.09 26.428L185.964 26.1506L185.839 25.8759L185.715 25.6039L185.592 25.3348L185.471 25.0683L185.351 24.8047L185.232 24.5439L185.114 24.2859L184.998 24.0308L184.883 23.7785L184.77 23.529L184.658 23.2825L184.547 23.0388L184.437 22.798L184.329 22.5602L184.222 22.3253L184.116 22.0933L184.012 21.8643L183.909 21.6383L183.807 21.4153L183.707 21.1953L183.608 20.9783L183.511 20.7644L183.415 20.5535L183.32 20.3457L183.227 20.141L183.135 19.9393L183.045 19.7408L182.956 19.5454L182.868 19.3532L182.782 19.1641L182.697 18.9782L182.614 18.7955L182.532 18.6159L182.452 18.4396L182.373 18.2666L182.296 18.0967L182.22 17.9302L182.146 17.7669L182.073 17.6068L182.002 17.4501L181.932 17.2968L181.863 17.1467L181.797 17L181.731 16.8567L181.668 16.7167L181.605 16.5802L181.545 16.447L181.486 16.3173L181.428 16.191L181.372 16.0681L181.318 15.9487L181.265 15.8329L181.214 15.7204L181.164 15.6116L181.116 15.5062L181.07 15.4044L181.025 15.3061L180.982 15.2114L180.941 15.1203L180.901 15.0328L180.862 14.9489L180.826 14.8686L180.791 14.7919L180.758 14.719L180.726 14.6497L180.696 14.5841L180.668 14.5221C180.316 13.7478 179.492 13.4427 178.766 13.6247C173.132 15.0366 167.802 17.4636 163.038 20.7869Z" fill="#373451" stroke="black" stroke-width="2"/>
<path d="M248.68 213.065C248.68 213.065 255.044 212.2 258.901 210.444C262.758 208.688 267.073 204.689 267.073 204.689" stroke="black" stroke-width="2"/>
<path fill-rule="evenodd" clip-rule="evenodd" d="M173.511 44.6509L178.899 56.4821C178.899 56.4821 183.778 55.7412 187.648 53.9786C191.519 52.2161 195.184 48.8113 195.184 48.8113L189.893 37.191C189.893 37.191 184.807 40.8715 182.231 42.0445C179.655 43.2174 173.511 44.6509 173.511 44.6509Z" fill="#12101E"/>
<path d="M177.811 57.4419C177.811 57.4419 184.175 56.5774 188.032 54.8209C191.889 53.0645 196.204 49.0661 196.204 49.0661" stroke="black" stroke-width="2"/>
<path d="M172.009 44.7007C172.009 44.7007 178.373 43.8362 182.23 42.0797C186.087 40.3233 190.401 36.3249 190.401 36.3249" stroke="black" stroke-width="2"/>
<circle cx="210.5" cy="272.5" r="9.5" fill="#FFEC6A"/>
<circle cx="234.5" cy="248.5" r="9.5" fill="#F700FE"/>
<circle cx="295.5" cy="182.5" r="9.5" fill="#0058FF"/>
<circle cx="318.5" cy="157.5" r="9.5" fill="#2FFD61"/>
<circle cx="361.5" cy="252.5" r="23.5" fill="#12101E"/>
</g>
<defs>
<linearGradient id="paint0_linear_167_2192" x1="388.529" y1="201.869" x2="478.85" y2="381.163" gradientUnits="userSpaceOnUse">
<stop stop-color="#0058FF"/>
<stop offset="1" stop-color="#F700FE"/>
</linearGradient>
<clipPath id="clip0_167_2192">
<rect width="591" height="533" fill="white"/>
</clipPath>
</defs>
</svg>
