<svg width="608" height="596" viewBox="0 0 608 596" fill="none" xmlns="http://www.w3.org/2000/svg">
<path opacity="0.143438" fill-rule="evenodd" clip-rule="evenodd" d="M225.125 336.379L222.941 339.196L220.758 336.379L217.941 334.196L220.758 332.012L222.941 329.196L225.125 332.012L227.941 334.196L225.125 336.379Z" fill="#F700FE"/>
<path opacity="0.143438" fill-rule="evenodd" clip-rule="evenodd" d="M602.125 197.379L599.941 200.196L597.758 197.379L594.941 195.196L597.758 193.012L599.941 190.196L602.125 193.012L604.941 195.196L602.125 197.379Z" fill="#F700FE"/>
<path opacity="0.143438" fill-rule="evenodd" clip-rule="evenodd" d="M545.125 513.379L542.941 516.196L540.758 513.379L537.941 511.196L540.758 509.012L542.941 506.196L545.125 509.012L547.941 511.196L545.125 513.379Z" fill="#F700FE"/>
<path opacity="0.0904018" fill-rule="evenodd" clip-rule="evenodd" d="M8.72382 294.711L4.21753 291.217L8.72382 287.723L12.2175 283.217L15.7112 287.723L20.2175 291.217L15.7112 294.711L12.2175 299.217L8.72382 294.711Z" fill="#F700FE"/>
<path opacity="0.0904018" fill-rule="evenodd" clip-rule="evenodd" d="M178.724 15.7107L174.218 12.217L178.724 8.72332L182.218 4.21703L185.711 8.72332L190.218 12.217L185.711 15.7107L182.218 20.217L178.724 15.7107Z" fill="#F700FE"/>
<path opacity="0.0904018" fill-rule="evenodd" clip-rule="evenodd" d="M385.724 155.711L381.218 152.217L385.724 148.723L389.218 144.217L392.711 148.723L397.218 152.217L392.711 155.711L389.218 160.217L385.724 155.711Z" fill="#F700FE"/>
<path opacity="0.0904018" fill-rule="evenodd" clip-rule="evenodd" d="M328.724 471.711L324.218 468.217L328.724 464.723L332.218 460.217L335.711 464.723L340.218 468.217L335.711 471.711L332.218 476.217L328.724 471.711Z" fill="#F700FE"/>
<path opacity="0.0904018" fill-rule="evenodd" clip-rule="evenodd" d="M108.724 564.711L104.218 561.217L108.724 557.723L112.218 553.217L115.711 557.723L120.218 561.217L115.711 564.711L112.218 569.217L108.724 564.711Z" fill="#F700FE"/>
<path fill-rule="evenodd" clip-rule="evenodd" d="M32.7238 410.711L28.2175 407.217L32.7238 403.723L36.2175 399.217L39.7112 403.723L44.2175 407.217L39.7112 410.711L36.2175 415.217L32.7238 410.711Z" fill="#F700FE"/>
<path fill-rule="evenodd" clip-rule="evenodd" d="M409.724 271.711L405.218 268.217L409.724 264.723L413.218 260.217L416.711 264.723L421.218 268.217L416.711 271.711L413.218 276.217L409.724 271.711Z" fill="#2FFD61"/>
<path fill-rule="evenodd" clip-rule="evenodd" d="M456.82 587.711L452.313 584.217L456.82 580.723L460.313 576.217L463.807 580.723L468.313 584.217L463.807 587.711L460.313 592.217L456.82 587.711Z" fill="#0058FF"/>
<path fill-rule="evenodd" clip-rule="evenodd" d="M207.724 167.711L203.218 164.217L207.724 160.723L211.218 156.217L214.711 160.723L219.218 164.217L214.711 167.711L211.218 172.217L207.724 167.711Z" fill="#0058FF"/>
<path fill-rule="evenodd" clip-rule="evenodd" d="M584.724 28.7107L580.218 25.217L584.724 21.7233L588.218 17.217L591.711 21.7233L596.218 25.217L591.711 28.7107L588.218 33.217L584.724 28.7107Z" fill="#F700FE"/>
<path fill-rule="evenodd" clip-rule="evenodd" d="M527.724 344.711L523.218 341.217L527.724 337.723L531.218 333.217L534.711 337.723L539.218 341.217L534.711 344.711L531.218 349.217L527.724 344.711Z" fill="#979797"/>
</svg>
