<svg width="1374" height="922" viewBox="0 0 1374 922" fill="none" xmlns="http://www.w3.org/2000/svg">
<path opacity="0.143438" fill-rule="evenodd" clip-rule="evenodd" d="M994.125 332.38L991.941 335.196L989.758 332.38L986.941 330.196L989.758 328.013L991.941 325.196L994.125 328.013L996.941 330.196L994.125 332.38Z" fill="#979797"/>
<path opacity="0.143438" fill-rule="evenodd" clip-rule="evenodd" d="M1371.12 193.38L1368.94 196.196L1366.76 193.38L1363.94 191.196L1366.76 189.013L1368.94 186.196L1371.12 189.013L1373.94 191.196L1371.12 193.38Z" fill="#979797"/>
<path opacity="0.143438" fill-rule="evenodd" clip-rule="evenodd" d="M1314.12 509.38L1311.94 512.196L1309.76 509.38L1306.94 507.196L1309.76 505.013L1311.94 502.196L1314.12 505.013L1316.94 507.196L1314.12 509.38Z" fill="#2FFD61"/>
<path opacity="0.0904018" fill-rule="evenodd" clip-rule="evenodd" d="M777.724 290.711L773.218 287.217L777.724 283.723L781.218 279.217L784.711 283.723L789.218 287.217L784.711 290.711L781.218 295.217L777.724 290.711Z" fill="#979797"/>
<path opacity="0.0904018" fill-rule="evenodd" clip-rule="evenodd" d="M947.724 11.7107L943.218 8.21703L947.724 4.72332L951.218 0.217029L954.711 4.72332L959.218 8.21703L954.711 11.7107L951.218 16.217L947.724 11.7107Z" fill="#979797"/>
<path opacity="0.0904018" fill-rule="evenodd" clip-rule="evenodd" d="M1154.72 151.711L1150.22 148.217L1154.72 144.723L1158.22 140.217L1161.71 144.723L1166.22 148.217L1161.71 151.711L1158.22 156.217L1154.72 151.711Z" fill="#979797"/>
<path opacity="0.0904018" fill-rule="evenodd" clip-rule="evenodd" d="M1097.72 467.711L1093.22 464.217L1097.72 460.723L1101.22 456.217L1104.71 460.723L1109.22 464.217L1104.71 467.711L1101.22 472.217L1097.72 467.711Z" fill="#979797"/>
<path opacity="0.0904018" fill-rule="evenodd" clip-rule="evenodd" d="M877.724 560.711L873.218 557.217L877.724 553.723L881.218 549.217L884.711 553.723L889.218 557.217L884.711 560.711L881.218 565.217L877.724 560.711Z" fill="#979797"/>
<path fill-rule="evenodd" clip-rule="evenodd" d="M801.724 406.711L797.218 403.217L801.724 399.723L805.218 395.217L808.711 399.723L813.218 403.217L808.711 406.711L805.218 411.217L801.724 406.711Z" fill="#979797"/>
<path fill-rule="evenodd" clip-rule="evenodd" d="M1178.72 267.711L1174.22 264.217L1178.72 260.723L1182.22 256.217L1185.71 260.723L1190.22 264.217L1185.71 267.711L1182.22 272.217L1178.72 267.711Z" fill="#979797"/>
<path fill-rule="evenodd" clip-rule="evenodd" d="M1121.72 583.711L1117.22 580.217L1121.72 576.723L1125.22 572.217L1128.71 576.723L1133.22 580.217L1128.71 583.711L1125.22 588.217L1121.72 583.711Z" fill="#979797"/>
<path fill-rule="evenodd" clip-rule="evenodd" d="M707.724 916.711L703.218 913.217L707.724 909.723L711.218 905.217L714.711 909.723L719.218 913.217L714.711 916.711L711.218 921.217L707.724 916.711Z" fill="#979797"/>
<path fill-rule="evenodd" clip-rule="evenodd" d="M4.72407 789.711L0.217773 786.217L4.72407 782.723L8.21777 778.217L11.7115 782.723L16.2178 786.217L11.7115 789.711L8.21777 794.217L4.72407 789.711Z" fill="#979797"/>
<path fill-rule="evenodd" clip-rule="evenodd" d="M976.724 163.711L972.218 160.217L976.724 156.723L980.218 152.217L983.711 156.723L988.218 160.217L983.711 163.711L980.218 168.217L976.724 163.711Z" fill="#979797"/>
<path fill-rule="evenodd" clip-rule="evenodd" d="M1353.72 24.7107L1349.22 21.217L1353.72 17.7233L1357.22 13.217L1360.71 17.7233L1365.22 21.217L1360.71 24.7107L1357.22 29.217L1353.72 24.7107Z" fill="#979797"/>
<path fill-rule="evenodd" clip-rule="evenodd" d="M1296.72 340.711L1292.22 337.217L1296.72 333.723L1300.22 329.217L1303.71 333.723L1308.22 337.217L1303.71 340.711L1300.22 345.217L1296.72 340.711Z" fill="#979797"/>
</svg>
