<svg width="846" height="710" viewBox="0 0 846 710" fill="none" xmlns="http://www.w3.org/2000/svg">
<g clip-path="url(#clip0_167_3306)">
<path fill-rule="evenodd" clip-rule="evenodd" d="M651.149 347.504C659.879 349.603 666.802 356.24 669.268 364.873L675.17 385.539L578.986 528.287C573.453 536.498 563.579 540.65 553.841 538.861L108.963 457.13L94.8142 445.73C84.6244 437.52 81.4381 423.369 87.1255 411.584L162.091 256.239C168.733 242.477 184.071 235.207 198.928 238.779L651.149 347.504Z" fill="#1C1A2E" stroke="black" stroke-width="2.16489"/>
<path fill-rule="evenodd" clip-rule="evenodd" d="M656.384 366.399C672.503 370.318 680.353 388.608 672.091 402.992L590.391 545.215C585.007 554.588 574.19 559.416 563.617 557.164L120.643 462.821C102.733 459.006 93.1783 439.375 101.226 422.927L175.009 272.117C180.815 260.248 194.097 254.017 206.937 257.138L656.384 366.399Z" fill="#1C1A2E" stroke="black" stroke-width="2.16489"/>
<path fill-rule="evenodd" clip-rule="evenodd" d="M653.691 432.106L644.517 429.739C639.363 428.409 633.952 430.662 631.265 435.257L591.183 503.785C588.888 507.708 591.228 512.713 595.709 513.469L607.018 515.375" fill="#2E2B46"/>
<path d="M653.691 432.106L644.517 429.739C639.363 428.409 633.952 430.662 631.265 435.257L591.183 503.785C588.888 507.708 591.228 512.713 595.709 513.469L607.018 515.375" stroke="black" stroke-width="2.16489" stroke-linecap="round"/>
<path fill-rule="evenodd" clip-rule="evenodd" d="M134.977 336.768C135.883 337.887 136.062 339.428 135.438 340.725L127.852 356.487C126.601 359.088 123.068 359.499 121.252 357.257C120.274 356.048 120.099 354.376 120.807 352.992L128.77 337.416C129.996 335.019 133.282 334.676 134.977 336.768Z" fill="#373451" stroke="black" stroke-width="2.16489"/>
<path opacity="0.239676" fill-rule="evenodd" clip-rule="evenodd" d="M332.036 289.045L374.722 515.907L485.24 539.097L332.036 289.045Z" fill="#11101D"/>
<path opacity="0.143438" fill-rule="evenodd" clip-rule="evenodd" d="M783.587 250.458L781.223 253.506L778.86 250.458L775.811 248.094L778.86 245.73L781.223 242.682L783.587 245.73L786.636 248.094L783.587 250.458Z" fill="#979797"/>
<path opacity="0.143438" fill-rule="evenodd" clip-rule="evenodd" d="M721.888 592.51L719.524 595.558L717.161 592.51L714.112 590.146L717.161 587.782L719.524 584.734L721.888 587.782L724.936 590.146L721.888 592.51Z" fill="#979797"/>
<path opacity="0.0904018" fill-rule="evenodd" clip-rule="evenodd" d="M141.264 355.813L136.386 352.031L141.264 348.25L145.046 343.372L148.828 348.25L153.705 352.031L148.828 355.813L145.046 360.691L141.264 355.813Z" fill="#979797"/>
<path opacity="0.0904018" fill-rule="evenodd" clip-rule="evenodd" d="M325.28 53.8116L320.402 50.0299L325.28 46.2482L329.062 41.3703L332.843 46.2482L337.721 50.0299L332.843 53.8116L329.062 58.6894L325.28 53.8116Z" fill="#979797"/>
<path opacity="0.0904018" fill-rule="evenodd" clip-rule="evenodd" d="M249.508 648.073L244.63 644.291L249.508 640.509L253.29 635.631L257.072 640.509L261.95 644.291L257.072 648.073L253.29 652.95L249.508 648.073Z" fill="#979797"/>
<path fill-rule="evenodd" clip-rule="evenodd" d="M52.5039 258.393L47.6261 254.612L52.5039 250.83L56.2856 245.952L60.0674 250.83L64.9452 254.612L60.0674 258.393L56.2856 263.271L52.5039 258.393Z" fill="#F700FE"/>
<path fill-rule="evenodd" clip-rule="evenodd" d="M434.607 625.341L429.729 621.56L434.607 617.778L438.388 612.9L442.17 617.778L447.048 621.56L442.17 625.341L438.388 630.219L434.607 625.341Z" fill="#2FFD61"/>
<path fill-rule="evenodd" clip-rule="evenodd" d="M653.47 189.083L648.592 185.301L653.47 181.52L657.251 176.642L661.033 181.52L665.911 185.301L661.033 189.083L657.251 193.961L653.47 189.083Z" fill="#FFEC6A"/>
<circle cx="153.471" cy="135.307" r="36.8031" fill="#1C1A2E"/>
<mask id="mask0_167_3306" style="mask-type:alpha" maskUnits="userSpaceOnUse" x="116" y="98" width="75" height="75">
<circle cx="153.471" cy="135.307" r="36.8031" fill="white"/>
</mask>
<g mask="url(#mask0_167_3306)">
<circle cx="176.202" cy="133.142" r="43.2977" fill="#2B2941"/>
</g>
<path fill-rule="evenodd" clip-rule="evenodd" d="M264.432 176.264C259.743 168.607 259.541 159.018 263.902 151.17L274.341 132.383L443.292 99.458C453.011 97.564 462.928 101.609 468.549 109.761L725.333 482.129L727.277 500.195C728.676 513.206 720.923 525.465 708.568 529.777L545.714 586.614C531.286 591.649 515.3 585.944 507.32 572.912L264.432 176.264Z" fill="#1C1A2E" stroke="black" stroke-width="2.16489"/>
<path fill-rule="evenodd" clip-rule="evenodd" d="M274.092 159.201C265.465 145.032 272.846 126.548 288.86 122.22L447.198 79.423C457.632 76.6026 468.695 80.8379 474.579 89.9058L721.098 469.846C731.065 485.208 723.94 505.846 706.619 511.786L547.807 566.253C535.309 570.539 521.511 565.553 514.639 554.268L274.092 159.201Z" fill="#373451" stroke="black" stroke-width="2.16489"/>
<path fill-rule="evenodd" clip-rule="evenodd" d="M322.458 114.643L327.182 122.653C329.928 127.309 335.465 129.531 340.668 128.065L416.536 106.685C420.883 105.46 422.684 100.281 420.033 96.6236L414.341 88.7666" fill="#2E2B46"/>
<path d="M322.458 114.643L327.182 122.653C329.928 127.309 335.465 129.531 340.668 128.065L416.536 106.685C420.883 105.46 422.684 100.281 420.033 96.6236L414.341 88.7666" stroke="black" stroke-width="2.16489" stroke-linecap="round"/>
<path fill-rule="evenodd" clip-rule="evenodd" d="M621.829 548.843C621.98 547.412 622.942 546.195 624.301 545.719L640.811 539.938C643.534 538.984 646.323 541.19 646.022 544.06C645.859 545.607 644.8 546.913 643.321 547.391L626.677 552.774C624.115 553.602 621.548 551.521 621.829 548.843Z" fill="#373451" stroke="black" stroke-width="2.16489"/>
<path fill-rule="evenodd" clip-rule="evenodd" d="M321.413 188.872C319.06 184.609 321.279 179.265 325.96 177.925L466.339 137.715C472.033 136.084 478.139 138.193 481.613 142.991L507.344 178.537C510.851 183.382 508.507 190.239 502.769 191.924L362.325 233.161C354.051 235.59 345.2 231.948 341.032 224.4L321.413 188.872Z" fill="#1C1A2E" stroke="black" stroke-width="2.16489"/>
<path fill-rule="evenodd" clip-rule="evenodd" d="M450.592 393.921C448.044 389.755 450.044 384.302 454.682 382.772L476.666 375.521C482.675 373.539 489.267 375.811 492.779 381.074L504.442 398.553C507.605 403.294 505.405 409.745 500.005 411.565L479.444 418.497C472.741 420.757 465.365 418.079 461.675 412.044L450.592 393.921Z" fill="#FFEC6A" fill-opacity="0.1"/>
<path fill-rule="evenodd" clip-rule="evenodd" d="M485.239 440.338C482.691 436.172 484.692 430.719 489.33 429.189L511.313 421.938C517.322 419.956 523.915 422.228 527.426 427.491L539.089 444.97C542.252 449.711 540.053 456.162 534.652 457.982L514.091 464.914C507.388 467.174 500.013 464.496 496.322 458.461L485.239 440.338Z" fill="#F700FE"/>
<path fill-rule="evenodd" clip-rule="evenodd" d="M509.551 372.2C507.003 368.034 509.004 362.581 513.641 361.051L535.625 353.8C541.634 351.818 548.227 354.09 551.738 359.353L563.401 376.832C566.564 381.573 564.365 388.023 558.964 389.844L538.403 396.776C531.7 399.036 524.325 396.357 520.634 390.322L509.551 372.2Z" fill="#F700FE" fill-opacity="0.1"/>
<path fill-rule="evenodd" clip-rule="evenodd" d="M565.278 353.077C562.73 348.911 564.731 343.458 569.368 341.928L591.352 334.677C597.361 332.695 603.953 334.967 607.465 340.23L619.128 357.709C622.291 362.45 620.092 368.9 614.691 370.721L594.13 377.653C587.427 379.913 580.052 377.234 576.361 371.199L565.278 353.077Z" fill="#F700FE"/>
<path fill-rule="evenodd" clip-rule="evenodd" d="M542.033 419.7C539.485 415.534 541.486 410.081 546.124 408.551L568.108 401.3C574.116 399.318 580.709 401.59 584.221 406.853L595.884 424.332C599.047 429.073 596.847 435.523 591.447 437.344L570.886 444.276C564.182 446.536 556.807 443.857 553.116 437.822L542.033 419.7Z" fill="#2FFD61" fill-opacity="0.1"/>
<path fill-rule="evenodd" clip-rule="evenodd" d="M596.678 402.742C594.13 398.576 596.13 393.122 600.768 391.593L622.752 384.342C628.761 382.36 635.353 384.632 638.865 389.895L650.528 407.374C653.691 412.115 651.491 418.565 646.091 420.386L625.53 427.318C618.827 429.578 611.451 426.899 607.761 420.864L596.678 402.742Z" fill="#2FFD61" fill-opacity="0.1"/>
<path d="M385.113 197.548C385.113 207.33 376.475 215.408 365.629 215.408C354.783 215.408 346.145 207.33 346.145 197.548C346.145 187.766 354.783 179.687 365.629 179.687C376.475 179.687 385.113 187.766 385.113 197.548Z" fill="#FFEC6A" stroke="black" stroke-width="2.16489"/>
<path fill-rule="evenodd" clip-rule="evenodd" d="M509.172 501.507C506.654 497.317 508.704 491.874 513.361 490.386L666.095 441.599C672.458 439.567 679.373 442.287 682.645 448.11L691.467 463.81C694.115 468.522 691.846 474.483 686.734 476.241L541.083 526.327C532.87 529.151 523.8 525.848 519.326 518.404L509.172 501.507Z" fill="#161424"/>
<path fill-rule="evenodd" clip-rule="evenodd" d="M458.753 161.103C461.213 163.991 459.831 168.457 456.17 169.451L405.263 183.281C403.682 183.711 402 183.127 401.026 181.811C398.449 178.331 400.154 173.349 404.322 172.178L451.538 158.906C454.166 158.167 456.983 159.025 458.753 161.103Z" fill="#FFEC6A"/>
<path opacity="0.2" fill-rule="evenodd" clip-rule="evenodd" d="M488.724 173.497C491.18 176.381 489.819 180.84 486.171 181.861L415.522 201.632C413.93 202.078 412.228 201.494 411.244 200.166C408.67 196.689 410.358 191.71 414.516 190.517L481.448 171.303C484.094 170.543 486.939 171.401 488.724 173.497Z" fill="#FFEC6A"/>
<circle cx="262.05" cy="505.147" r="61.9107" transform="rotate(31.1186 262.05 505.147)" fill="#110042"/>
<mask id="mask1_167_3306" style="mask-type:alpha" maskUnits="userSpaceOnUse" x="200" y="443" width="124" height="125">
<circle cx="262.05" cy="505.147" r="61.9107" transform="rotate(31.1186 262.05 505.147)" fill="white"/>
</mask>
<g mask="url(#mask1_167_3306)">
<circle opacity="0.480911" cx="297.74" cy="521.207" r="73.4389" transform="rotate(31.1186 297.74 521.207)" fill="white" fill-opacity="0.13"/>
<circle opacity="0.480911" cx="257.458" cy="416.093" r="72.3565" transform="rotate(31.1186 257.458 416.093)" stroke="black" stroke-width="2.16489"/>
<circle opacity="0.480911" cx="253.334" cy="424.576" r="84.3117" transform="rotate(31.1186 253.334 424.576)" stroke="black" stroke-width="2.16489"/>
<circle opacity="0.480911" cx="256.356" cy="444.355" r="84.3117" transform="rotate(31.1186 256.356 444.355)" stroke="black" stroke-width="2.16489"/>
<circle opacity="0.480911" cx="255.571" cy="463.831" r="84.3117" transform="rotate(31.1186 255.571 463.831)" stroke="black" stroke-width="2.16489"/>
<circle opacity="0.480911" cx="259.199" cy="475.996" r="84.3117" transform="rotate(31.1186 259.199 475.996)" stroke="black" stroke-width="2.16489"/>
<circle opacity="0.480911" cx="257.03" cy="411.845" r="58.6934" transform="rotate(31.1186 257.03 411.845)" stroke="black" stroke-width="2.16489"/>
<circle opacity="0.480911" cx="256.49" cy="394.562" r="58.6934" transform="rotate(31.1186 256.49 394.562)" stroke="black" stroke-width="2.16489"/>
</g>
</g>
<defs>
<clipPath id="clip0_167_3306">
<rect width="829.151" height="709" fill="white" transform="translate(16 0.00195312)"/>
</clipPath>
</defs>
</svg>
