<svg width="311" height="251" viewBox="0 0 311 251" fill="none" xmlns="http://www.w3.org/2000/svg">
<g clip-path="url(#clip0_165_6705)">
<path fill-rule="evenodd" clip-rule="evenodd" d="M251.93 139.256C255.293 140.065 257.961 142.622 258.911 145.949L261.186 153.912L224.123 208.916C221.991 212.08 218.187 213.68 214.434 212.991L43.0109 181.498L37.559 177.105C33.6326 173.941 32.4048 168.489 34.5964 163.948L63.4826 104.089C66.0417 98.786 71.9519 95.9847 77.6769 97.3612L251.93 139.256Z" fill="#1C1A2E" stroke="black"/>
<path fill-rule="evenodd" clip-rule="evenodd" d="M253.947 146.537C260.158 148.047 263.183 155.095 259.999 160.637L228.518 215.44C226.443 219.051 222.275 220.911 218.201 220.044L47.5117 183.691C40.6106 182.221 36.9287 174.656 40.0296 168.318L68.4601 110.207C70.6977 105.634 75.8156 103.233 80.7629 104.436L253.947 146.537Z" fill="#1C1A2E" stroke="black"/>
<path fill-rule="evenodd" clip-rule="evenodd" d="M252.909 171.855L249.374 170.943C247.388 170.431 245.303 171.299 244.268 173.069L228.823 199.475C227.939 200.986 228.841 202.915 230.567 203.206L234.925 203.941" fill="#2E2B46"/>
<path d="M252.909 171.855L249.374 170.943C247.388 170.431 245.303 171.299 244.268 173.069L228.823 199.475C227.939 200.986 228.841 202.915 230.567 203.206L234.925 203.941" stroke="black" stroke-linecap="round"/>
<path fill-rule="evenodd" clip-rule="evenodd" d="M53.0346 135.12C53.3836 135.551 53.4529 136.145 53.2123 136.645L50.2893 142.718C49.8071 143.72 48.4459 143.879 47.7461 143.015C47.369 142.549 47.3018 141.905 47.5745 141.371L50.6429 135.37C51.1151 134.446 52.3817 134.314 53.0346 135.12Z" fill="#373451" stroke="black"/>
<path opacity="0.239676" fill-rule="evenodd" clip-rule="evenodd" d="M128.967 116.731L145.415 204.147L188.001 213.083L128.967 116.731Z" fill="#11101D"/>
<path opacity="0.143438" fill-rule="evenodd" clip-rule="evenodd" d="M302.961 101.862L302.05 103.036L301.139 101.862L299.965 100.951L301.139 100.04L302.05 98.8653L302.961 100.04L304.136 100.951L302.961 101.862Z" fill="#979797"/>
<path opacity="0.143438" fill-rule="evenodd" clip-rule="evenodd" d="M279.187 233.663L278.276 234.838L277.365 233.663L276.19 232.752L277.365 231.842L278.276 230.667L279.187 231.842L280.361 232.752L279.187 233.663Z" fill="#979797"/>
<path opacity="0.0904018" fill-rule="evenodd" clip-rule="evenodd" d="M55.4566 142.458L53.5771 141.001L55.4566 139.544L56.9138 137.664L58.371 139.544L60.2506 141.001L58.371 142.458L56.9138 144.337L55.4566 142.458Z" fill="#979797"/>
<path opacity="0.0904018" fill-rule="evenodd" clip-rule="evenodd" d="M126.363 26.0884L124.483 24.6312L126.363 23.174L127.82 21.2945L129.277 23.174L131.157 24.6312L129.277 26.0884L127.82 27.968L126.363 26.0884Z" fill="#979797"/>
<path fill-rule="evenodd" clip-rule="evenodd" d="M21.2554 104.92L19.3759 103.463L21.2554 102.006L22.7126 100.126L24.1699 102.006L26.0494 103.463L24.1699 104.92L22.7126 106.8L21.2554 104.92Z" fill="#F700FE"/>
<path fill-rule="evenodd" clip-rule="evenodd" d="M168.489 246.315L166.61 244.858L168.489 243.401L169.947 241.521L171.404 243.401L173.283 244.858L171.404 246.315L169.947 248.195L168.489 246.315Z" fill="#2FFD61"/>
<path fill-rule="evenodd" clip-rule="evenodd" d="M252.823 78.2127L250.944 76.7555L252.823 75.2983L254.28 73.4187L255.737 75.2983L257.617 76.7555L255.737 78.2127L254.28 80.0923L252.823 78.2127Z" fill="#FFEC6A"/>
<circle cx="60.1604" cy="57.4921" r="14.1812" fill="#1C1A2E"/>
<mask id="mask0_165_6705" style="mask-type:luminance" maskUnits="userSpaceOnUse" x="45" y="43" width="30" height="29">
<circle cx="60.1604" cy="57.4921" r="14.1812" fill="white"/>
</mask>
<g mask="url(#mask0_165_6705)">
<circle cx="68.9196" cy="56.6579" r="16.6838" fill="#2B2941"/>
</g>
<path fill-rule="evenodd" clip-rule="evenodd" d="M102.917 73.2726C101.11 70.3221 101.032 66.6273 102.713 63.6031L106.736 56.3642L171.837 43.6772C175.582 42.9474 179.403 44.5062 181.569 47.6472L280.515 191.131L281.264 198.092C281.803 203.105 278.815 207.829 274.055 209.491L211.303 231.391C205.743 233.332 199.583 231.133 196.508 226.112L102.917 73.2726Z" fill="#1C1A2E" stroke="black"/>
<path fill-rule="evenodd" clip-rule="evenodd" d="M106.639 66.6982C103.315 61.2385 106.159 54.1161 112.33 52.4483L173.342 35.9576C177.362 34.8708 181.625 36.5028 183.892 39.9969L278.883 186.398C282.723 192.317 279.978 200.27 273.303 202.559L212.109 223.546C207.293 225.198 201.976 223.277 199.329 218.928L106.639 66.6982Z" fill="#373451" stroke="black"/>
<path fill-rule="evenodd" clip-rule="evenodd" d="M125.276 49.5274L127.097 52.6141C128.155 54.408 130.288 55.2642 132.293 54.6993L161.527 46.4612C163.202 45.9891 163.896 43.9935 162.875 42.5841L160.681 39.5566" fill="#2E2B46"/>
<path d="M125.276 49.5274L127.097 52.6141C128.155 54.408 130.288 55.2642 132.293 54.6993L161.527 46.4612C163.202 45.9891 163.896 43.9935 162.875 42.5841L160.681 39.5566" stroke="black" stroke-linecap="round"/>
<path fill-rule="evenodd" clip-rule="evenodd" d="M240.632 216.838C240.69 216.286 241.061 215.818 241.584 215.634L247.946 213.406C248.995 213.039 250.07 213.889 249.954 214.995C249.891 215.591 249.483 216.094 248.913 216.279L242.5 218.353C241.513 218.672 240.524 217.87 240.632 216.838Z" fill="#373451" stroke="black"/>
<path fill-rule="evenodd" clip-rule="evenodd" d="M124.874 78.131C123.967 76.4886 124.822 74.4294 126.626 73.9128L180.717 58.4189C182.912 57.7904 185.264 58.6032 186.603 60.4521L196.518 74.1488C197.869 76.0156 196.966 78.6577 194.755 79.307L140.638 95.1968C137.45 96.1328 134.039 94.7296 132.433 91.8209L124.874 78.131Z" fill="#1C1A2E" stroke="black"/>
<path fill-rule="evenodd" clip-rule="evenodd" d="M174.649 157.143C173.668 155.537 174.439 153.436 176.226 152.847L184.697 150.053C187.012 149.289 189.552 150.164 190.905 152.192L195.399 158.928C196.618 160.754 195.771 163.24 193.69 163.942L185.767 166.613C183.184 167.483 180.342 166.451 178.92 164.126L174.649 157.143Z" fill="#FFEC6A" fill-opacity="0.1"/>
<path fill-rule="evenodd" clip-rule="evenodd" d="M188 175.028C187.019 173.422 187.79 171.321 189.577 170.732L198.048 167.937C200.363 167.174 202.903 168.049 204.256 170.077L208.75 176.812C209.969 178.639 209.122 181.125 207.041 181.826L199.118 184.497C196.535 185.368 193.693 184.336 192.271 182.011L188 175.028Z" fill="#F700FE"/>
<path fill-rule="evenodd" clip-rule="evenodd" d="M197.368 148.773C196.386 147.168 197.157 145.067 198.944 144.477L207.415 141.683C209.73 140.919 212.271 141.795 213.624 143.823L218.118 150.558C219.337 152.385 218.489 154.87 216.408 155.572L208.486 158.243C205.903 159.114 203.061 158.082 201.639 155.756L197.368 148.773Z" fill="#F700FE" fill-opacity="0.1"/>
<path fill-rule="evenodd" clip-rule="evenodd" d="M218.841 141.403C217.86 139.798 218.631 137.696 220.418 137.107L228.888 134.313C231.204 133.549 233.744 134.425 235.097 136.453L239.591 143.188C240.81 145.015 239.963 147.5 237.882 148.202L229.959 150.873C227.376 151.744 224.534 150.712 223.112 148.386L218.841 141.403Z" fill="#F700FE"/>
<path fill-rule="evenodd" clip-rule="evenodd" d="M209.884 167.075C208.902 165.469 209.673 163.368 211.46 162.779L219.931 159.985C222.246 159.221 224.787 160.097 226.14 162.125L230.634 168.86C231.853 170.686 231.005 173.172 228.924 173.874L221.002 176.545C218.419 177.415 215.577 176.383 214.155 174.058L209.884 167.075Z" fill="#2FFD61" fill-opacity="0.1"/>
<path fill-rule="evenodd" clip-rule="evenodd" d="M230.94 160.541C229.958 158.936 230.729 156.835 232.516 156.245L240.987 153.451C243.303 152.688 245.843 153.563 247.196 155.591L251.69 162.326C252.909 164.153 252.061 166.639 249.98 167.34L242.058 170.011C239.475 170.882 236.633 169.85 235.211 167.525L230.94 160.541Z" fill="#2FFD61" fill-opacity="0.1"/>
<path d="M149.336 81.4739C149.336 85.1911 146.052 88.2731 141.912 88.2731C137.771 88.2731 134.487 85.1911 134.487 81.4739C134.487 77.7568 137.771 74.6748 141.912 74.6748C146.052 74.6748 149.336 77.7568 149.336 81.4739Z" fill="#FFEC6A" stroke="black"/>
<path fill-rule="evenodd" clip-rule="evenodd" d="M197.222 198.598C196.251 196.984 197.041 194.886 198.836 194.313L257.688 175.514C260.14 174.731 262.805 175.779 264.065 178.023L267.465 184.072C268.485 185.888 267.611 188.185 265.641 188.863L209.518 208.162C206.353 209.25 202.858 207.978 201.134 205.109L197.222 198.598Z" fill="#161424"/>
<path fill-rule="evenodd" clip-rule="evenodd" d="M177.794 67.4309C178.742 68.5438 178.21 70.2644 176.799 70.6476L157.183 75.9767C156.574 76.1421 155.926 75.9171 155.55 75.41C154.558 74.0692 155.215 72.1496 156.821 71.6981L175.014 66.5842C176.027 66.2995 177.112 66.6302 177.794 67.4309Z" fill="#FFEC6A"/>
<path opacity="0.2" fill-rule="evenodd" clip-rule="evenodd" d="M189.343 72.2064C190.289 73.3178 189.765 75.0361 188.359 75.4295L161.136 83.0477C160.523 83.2194 159.867 82.9946 159.488 82.4826C158.496 81.1428 159.146 79.2246 160.749 78.7646L186.539 71.361C187.559 71.0683 188.655 71.399 189.343 72.2064Z" fill="#FFEC6A"/>
<circle cx="102" cy="200.003" r="23.8559" transform="rotate(31.1186 102 200.003)" fill="#110042"/>
<mask id="mask1_165_6705" style="mask-type:luminance" maskUnits="userSpaceOnUse" x="78" y="176" width="48" height="48">
<circle cx="102" cy="200.003" r="23.8559" transform="rotate(31.1186 102 200.003)" fill="white"/>
</mask>
<g mask="url(#mask1_165_6705)">
<circle opacity="0.480911" cx="115.753" cy="206.19" r="28.298" transform="rotate(31.1186 115.753 206.19)" fill="white" fill-opacity="0.13"/>
<circle opacity="0.480911" cx="100.23" cy="165.687" r="27.798" transform="rotate(31.1186 100.23 165.687)" stroke="black"/>
<circle opacity="0.480911" cx="98.6422" cy="168.957" r="32.4046" transform="rotate(31.1186 98.6422 168.957)" stroke="black"/>
<circle opacity="0.480911" cx="99.8062" cy="176.578" r="32.4046" transform="rotate(31.1186 99.8062 176.578)" stroke="black"/>
<circle opacity="0.480911" cx="99.5035" cy="184.081" r="32.4046" transform="rotate(31.1186 99.5035 184.081)" stroke="black"/>
<circle opacity="0.480911" cx="100.902" cy="188.77" r="32.4046" transform="rotate(31.1186 100.902 188.77)" stroke="black"/>
<circle opacity="0.480911" cx="100.065" cy="164.051" r="22.5332" transform="rotate(31.1186 100.065 164.051)" stroke="black"/>
<circle opacity="0.480911" cx="99.8581" cy="157.392" r="22.5332" transform="rotate(31.1186 99.8581 157.392)" stroke="black"/>
</g>
</g>
<defs>
<clipPath id="clip0_165_6705">
<rect width="311" height="250" fill="white" transform="translate(0 0.00195312)"/>
</clipPath>
</defs>
</svg>
