<svg width="1658" height="983" viewBox="0 0 1658 983" fill="none" xmlns="http://www.w3.org/2000/svg">
<path opacity="0.143438" fill-rule="evenodd" clip-rule="evenodd" d="M1275.22 723.476L1273.04 726.292L1270.85 723.476L1268.04 721.292L1270.85 719.109L1273.04 716.292L1275.22 719.109L1278.04 721.292L1275.22 723.476Z" fill="#979797"/>
<path opacity="0.143438" fill-rule="evenodd" clip-rule="evenodd" d="M1652.22 584.476L1650.04 587.292L1647.85 584.476L1645.04 582.292L1647.85 580.109L1650.04 577.292L1652.22 580.109L1655.04 582.292L1652.22 584.476Z" fill="#979797"/>
<path opacity="0.143438" fill-rule="evenodd" clip-rule="evenodd" d="M1595.22 900.476L1593.04 903.292L1590.85 900.476L1588.04 898.292L1590.85 896.109L1593.04 893.292L1595.22 896.109L1598.04 898.292L1595.22 900.476Z" fill="#979797"/>
<path opacity="0.0904018" fill-rule="evenodd" clip-rule="evenodd" d="M1058.82 681.807L1054.31 678.314L1058.82 674.82L1062.31 670.314L1065.81 674.82L1070.31 678.314L1065.81 681.807L1062.31 686.314L1058.82 681.807Z" fill="#979797"/>
<path opacity="0.0904018" fill-rule="evenodd" clip-rule="evenodd" d="M1228.82 402.807L1224.31 399.314L1228.82 395.82L1232.31 391.314L1235.81 395.82L1240.31 399.314L1235.81 402.807L1232.31 407.314L1228.82 402.807Z" fill="#979797"/>
<path opacity="0.0904018" fill-rule="evenodd" clip-rule="evenodd" d="M1435.82 542.807L1431.31 539.314L1435.82 535.82L1439.31 531.314L1442.81 535.82L1447.31 539.314L1442.81 542.807L1439.31 547.314L1435.82 542.807Z" fill="#979797"/>
<path opacity="0.0904018" fill-rule="evenodd" clip-rule="evenodd" d="M1378.82 858.807L1374.31 855.314L1378.82 851.82L1382.31 847.314L1385.81 851.82L1390.31 855.314L1385.81 858.807L1382.31 863.314L1378.82 858.807Z" fill="#979797"/>
<path opacity="0.0904018" fill-rule="evenodd" clip-rule="evenodd" d="M1158.82 951.807L1154.31 948.314L1158.82 944.82L1162.31 940.314L1165.81 944.82L1170.31 948.314L1165.81 951.807L1162.31 956.314L1158.82 951.807Z" fill="#979797"/>
<path opacity="0.0904018" fill-rule="evenodd" clip-rule="evenodd" d="M742.82 14.8074L738.314 11.3137L742.82 7.82L746.314 3.31371L749.807 7.82L754.314 11.3137L749.807 14.8074L746.314 19.3137L742.82 14.8074Z" fill="#979797"/>
<path opacity="0.0904018" fill-rule="evenodd" clip-rule="evenodd" d="M7.81977 124.807L3.31348 121.314L7.81977 117.82L11.3135 113.314L14.8072 117.82L19.3135 121.314L14.8072 124.807L11.3135 129.314L7.81977 124.807Z" fill="#979797"/>
<path fill-rule="evenodd" clip-rule="evenodd" d="M1459.82 658.807L1455.31 655.314L1459.82 651.82L1463.31 647.314L1466.81 651.82L1471.31 655.314L1466.81 658.807L1463.31 663.314L1459.82 658.807Z" fill="#979797"/>
<path fill-rule="evenodd" clip-rule="evenodd" d="M1402.82 974.807L1398.31 971.314L1402.82 967.82L1406.31 963.314L1409.81 967.82L1414.31 971.314L1409.81 974.807L1406.31 979.314L1402.82 974.807Z" fill="#979797"/>
<path fill-rule="evenodd" clip-rule="evenodd" d="M1257.82 554.807L1253.31 551.314L1257.82 547.82L1261.31 543.314L1264.81 547.82L1269.31 551.314L1264.81 554.807L1261.31 559.314L1257.82 554.807Z" fill="#979797"/>
<path fill-rule="evenodd" clip-rule="evenodd" d="M1634.82 415.807L1630.31 412.314L1634.82 408.82L1638.31 404.314L1641.81 408.82L1646.31 412.314L1641.81 415.807L1638.31 420.314L1634.82 415.807Z" fill="#979797"/>
<path fill-rule="evenodd" clip-rule="evenodd" d="M1577.82 731.807L1573.31 728.314L1577.82 724.82L1581.31 720.314L1584.81 724.82L1589.31 728.314L1584.81 731.807L1581.31 736.314L1577.82 731.807Z" fill="#979797"/>
<path fill-rule="evenodd" clip-rule="evenodd" d="M1199.82 74.8074L1195.31 71.3137L1199.82 67.82L1203.31 63.3137L1206.81 67.82L1211.31 71.3137L1206.81 74.8074L1203.31 79.3137L1199.82 74.8074Z" fill="#979797"/>
</svg>
