<svg width="595" height="607" viewBox="0 0 595 607" fill="none" xmlns="http://www.w3.org/2000/svg">
<path opacity="0.143438" fill-rule="evenodd" clip-rule="evenodd" d="M335.476 381.887L338.292 384.071L335.476 386.255L333.292 389.071L331.109 386.255L328.292 384.071L331.109 381.887L333.292 379.071L335.476 381.887Z" fill="#210080"/>
<path opacity="0.143438" fill-rule="evenodd" clip-rule="evenodd" d="M196.476 4.88746L199.292 7.07102L196.476 9.25459L194.292 12.071L192.109 9.25459L189.292 7.07102L192.109 4.88746L194.292 2.07102L196.476 4.88746Z" fill="#210080"/>
<path opacity="0.143438" fill-rule="evenodd" clip-rule="evenodd" d="M512.476 61.8875L515.292 64.071L512.476 66.2546L510.292 69.071L508.109 66.2546L505.292 64.071L508.109 61.8875L510.292 59.071L512.476 61.8875Z" fill="#210080"/>
<path opacity="0.0904018" fill-rule="evenodd" clip-rule="evenodd" d="M293.807 598.289L290.314 602.795L286.82 598.289L282.314 594.795L286.82 591.301L290.314 586.795L293.807 591.301L298.314 594.795L293.807 598.289Z" fill="#210080"/>
<path opacity="0.0904018" fill-rule="evenodd" clip-rule="evenodd" d="M14.8074 428.289L11.3137 432.795L7.82 428.289L3.31371 424.795L7.82 421.301L11.3137 416.795L14.8074 421.301L19.3137 424.795L14.8074 428.289Z" fill="#210080"/>
<path opacity="0.0904018" fill-rule="evenodd" clip-rule="evenodd" d="M154.807 221.288L151.314 225.794L147.82 221.288L143.314 217.794L147.82 214.301L151.314 209.794L154.807 214.301L159.314 217.794L154.807 221.288Z" fill="#210080"/>
<path opacity="0.0904018" fill-rule="evenodd" clip-rule="evenodd" d="M470.807 278.288L467.314 282.794L463.82 278.288L459.314 274.794L463.82 271.301L467.314 266.794L470.807 271.301L475.314 274.794L470.807 278.288Z" fill="#210080"/>
<path opacity="0.0904018" fill-rule="evenodd" clip-rule="evenodd" d="M563.807 498.288L560.314 502.794L556.82 498.288L552.314 494.794L556.82 491.301L560.314 486.794L563.807 491.301L568.314 494.794L563.807 498.288Z" fill="#210080"/>
<path fill-rule="evenodd" clip-rule="evenodd" d="M409.807 574.288L406.314 578.794L402.82 574.288L398.314 570.794L402.82 567.301L406.314 562.794L409.807 567.301L414.314 570.794L409.807 574.288Z" fill="#210080"/>
<path fill-rule="evenodd" clip-rule="evenodd" d="M270.807 197.288L267.314 201.794L263.82 197.288L259.314 193.794L263.82 190.301L267.314 185.794L270.807 190.301L275.314 193.794L270.807 197.288Z" fill="#210080"/>
<path fill-rule="evenodd" clip-rule="evenodd" d="M586.807 254.288L583.314 258.794L579.82 254.288L575.314 250.794L579.82 247.301L583.314 242.794L586.807 247.301L591.314 250.794L586.807 254.288Z" fill="#210080"/>
<path fill-rule="evenodd" clip-rule="evenodd" d="M166.807 399.289L163.314 403.795L159.82 399.289L155.314 395.795L159.82 392.301L163.314 387.795L166.807 392.301L171.314 395.795L166.807 399.289Z" fill="#210080"/>
<path fill-rule="evenodd" clip-rule="evenodd" d="M27.8074 22.2881L24.3137 26.7944L20.82 22.2881L16.3137 18.7944L20.82 15.3007L24.3137 10.7944L27.8074 15.3007L32.3137 18.7944L27.8074 22.2881Z" fill="#210080"/>
<path fill-rule="evenodd" clip-rule="evenodd" d="M343.807 79.2881L340.314 83.7944L336.82 79.2881L332.314 75.7944L336.82 72.3007L340.314 67.7944L343.807 72.3007L348.314 75.7944L343.807 79.2881Z" fill="#210080"/>
</svg>
