<svg width="1032" height="1520" viewBox="0 0 1032 1520" fill="none" xmlns="http://www.w3.org/2000/svg">
<path opacity="0.1" fill-rule="evenodd" clip-rule="evenodd" d="M1249.26 1301.56L1406.53 1074.6C1421.73 1056.26 1435.21 1036.76 1446.89 1016.35L1450.37 1011.33L1449.73 1011.31C1517.77 888.508 1521.56 734.113 1446.27 603.683L1217.17 206.881C1102.95 9.04793 849.986 -58.7349 652.153 55.484L511.602 136.63L349.153 162.298C133.672 196.346 -15.5238 390.592 1.29053 602.941L0.988153 602.758L42.5856 1055.83L42.9226 1055.34C61.9693 1225.15 185.969 1373.05 363.49 1412.91L794.058 1509.6C978.784 1551.08 1163.42 1461.89 1249.26 1301.56ZM333.677 631.879C338.103 577.011 342.817 518.579 372.487 502.052C376.907 499.591 381.966 496.725 387.615 493.526C430.51 469.232 507.367 425.702 595.604 393.858C641.784 377.191 811.459 333.481 841.689 346.771C902.681 373.587 1154.19 670.757 1178.58 703.659C1202.98 736.561 1201.27 770.031 1117.88 878.381C1051.17 965.061 943.731 1138.76 898.348 1214.78C887.003 1228.39 848.542 1247.45 785.46 1214.78C706.609 1173.93 458.934 1078.98 395.882 1069.97C332.829 1060.97 300.302 991.908 311.812 919.348C318.073 879.877 319.341 855.723 321.675 811.291C323.631 774.042 326.336 722.542 333.358 635.818C333.465 634.508 333.57 633.194 333.677 631.879Z" fill="url(#paint0_linear_167_1536)"/>
<defs>
<linearGradient id="paint0_linear_167_1536" x1="1.11889e-05" y1="759.862" x2="1501.75" y2="759.862" gradientUnits="userSpaceOnUse">
<stop stop-color="#0058FF"/>
<stop offset="0.234375" stop-color="#F700FE"/>
<stop offset="1" stop-color="#F700FE" stop-opacity="0"/>
</linearGradient>
</defs>
</svg>
