<svg width="1520" height="1332" viewBox="0 0 1520 1332" fill="none" xmlns="http://www.w3.org/2000/svg">
<path opacity="0.1" fill-rule="evenodd" clip-rule="evenodd" d="M1301.7 81.987L1074.74 -75.2842C1056.4 -90.4834 1036.9 -103.96 1016.49 -115.643L1011.47 -119.124L1011.45 -118.484C888.647 -186.518 734.252 -190.314 603.822 -115.017L207.02 114.077C9.18656 228.296 -58.5963 481.263 55.6226 679.096L136.769 819.647L162.437 982.096C196.484 1197.58 390.73 1346.77 603.08 1329.96L602.897 1330.26L1055.97 1288.66L1055.48 1288.33C1225.29 1269.28 1373.19 1145.28 1413.05 967.759L1509.73 537.191C1551.21 352.465 1462.03 167.826 1301.7 81.987ZM632.018 997.572C577.149 993.146 518.717 988.432 502.191 958.762C499.729 954.342 496.864 949.282 493.664 943.634C469.37 900.739 425.841 823.882 393.996 735.645C377.33 689.465 333.619 519.79 346.91 489.56C373.725 428.568 670.896 177.059 703.798 152.666C736.7 128.273 770.17 129.975 878.519 213.364C965.199 280.076 1138.9 387.518 1214.91 432.901C1228.53 444.246 1247.59 482.707 1214.91 545.789C1174.07 624.64 1079.12 872.315 1070.11 935.367C1061.1 998.42 992.047 1030.95 919.487 1019.44C880.016 1013.18 855.862 1011.91 811.43 1009.57C774.181 1007.62 722.681 1004.91 635.957 997.891C634.646 997.784 633.333 997.679 632.018 997.572Z" fill="url(#paint0_linear_167_1530)"/>
<defs>
<linearGradient id="paint0_linear_167_1530" x1="760" y1="1331.25" x2="760" y2="-170.5" gradientUnits="userSpaceOnUse">
<stop stop-color="#0058FF"/>
<stop offset="0.234375" stop-color="#F700FE"/>
<stop offset="1" stop-color="#F700FE" stop-opacity="0"/>
</linearGradient>
</defs>
</svg>
