<svg width="18" height="14" viewBox="0 0 18 14" fill="none" xmlns="http://www.w3.org/2000/svg">
<path fill-rule="evenodd" clip-rule="evenodd" d="M5.48303 14C11.9842 14 15.5394 8.61434 15.5394 3.94425C15.5394 3.79124 15.5354 3.63882 15.5295 3.48738C16.2196 2.98851 16.8191 2.366 17.2923 1.65752C16.6594 1.9387 15.9771 2.12839 15.2633 2.21377C15.9929 1.77642 16.5529 1.08392 16.8171 0.258704C16.1329 0.663521 15.3777 0.958113 14.5732 1.11665C13.9264 0.429662 13.0095 0 11.992 0C10.0399 0 8.45852 1.58279 8.45852 3.53392C8.45852 3.81135 8.4881 4.0811 8.54922 4.3398C5.61119 4.19211 3.00838 2.7858 1.26528 0.647352C0.961618 1.16949 0.786125 1.77642 0.786125 2.42358C0.786125 3.64986 1.40922 4.7322 2.35965 5.36555C1.77993 5.34761 1.23373 5.18828 0.758519 4.92346L0.756547 4.96842C0.756547 6.68017 1.97514 8.10915 3.59204 8.43332C3.29627 8.51417 2.98274 8.55755 2.66134 8.55755C2.4326 8.55755 2.21176 8.53507 1.99683 8.49386C2.44641 9.898 3.75176 10.9198 5.29767 10.9486C4.08894 11.8965 2.56472 12.4616 0.908378 12.4616C0.624434 12.4616 0.342463 12.4452 0.0664062 12.4125C1.63007 13.415 3.48753 14 5.48303 14Z" fill="white"/>
</svg>
