<svg width="1174" height="712" viewBox="0 0 1174 712" fill="none" xmlns="http://www.w3.org/2000/svg">
<g clip-path="url(#clip0_167_3038)">
<path fill-rule="evenodd" clip-rule="evenodd" d="M315.371 324.952C312.862 323.235 314.204 319.304 317.239 319.481L565.412 333.898C573.843 334.387 582.005 337.048 589.104 341.621L902.612 543.562C906.648 546.161 905.057 552.402 900.268 552.752L689.711 568.114C678.646 568.921 667.634 565.95 658.477 559.685L315.371 324.952Z" fill="#373451" stroke="black" stroke-width="2"/>
<path d="M316.286 323.598V323.598C315.187 328.817 317.322 334.186 321.704 337.226L653.457 567.423C661.868 573.26 671.985 576.123 682.207 575.561L891.887 564.029C894.512 563.884 896.899 562.459 898.272 560.216L903.381 551.865" stroke="black" stroke-width="2" stroke-linecap="round"/>
<path fill-rule="evenodd" clip-rule="evenodd" d="M368.491 346.557C366.752 345.408 367.711 342.698 369.785 342.898L463.551 351.935L750.822 538.149C752.466 539.215 751.755 541.765 749.796 541.826L671.064 544.281C668.998 544.346 666.963 543.769 665.239 542.63L368.491 346.557Z" stroke="black" stroke-width="2"/>
<path d="M422.971 361.088L673.191 524.17" stroke="black" stroke-width="2" stroke-linecap="round"/>
<path d="M461.438 367.006L711.658 530.088" stroke="black" stroke-width="2" stroke-linecap="round"/>
<path d="M453.843 388.22L504.329 389.442" stroke="black" stroke-width="2" stroke-linecap="round"/>
<path d="M491.966 414.885L542.452 416.107" stroke="black" stroke-width="2" stroke-linecap="round"/>
<path d="M528.344 440.542L578.83 441.764" stroke="black" stroke-width="2" stroke-linecap="round"/>
<path d="M573.718 466.739L624.204 467.96" stroke="black" stroke-width="2" stroke-linecap="round"/>
<path d="M612.111 488.905L662.597 490.127" stroke="black" stroke-width="2" stroke-linecap="round"/>
<path fill-rule="evenodd" clip-rule="evenodd" d="M788.228 484.781L900.778 542.906L974.228 314.906L788.228 484.781Z" fill="#1C1B2A"/>
<path d="M473.051 329.662C469.446 335.226 471.037 342.66 476.603 346.262L793.91 551.581C803.479 557.773 816.24 555.201 822.664 545.786L988.657 302.518C993.877 294.867 991.531 284.396 983.546 279.704L650.438 83.9946C643.054 79.6558 633.562 81.902 628.905 89.0903L473.051 329.662Z" fill="#12101E" stroke="black" stroke-width="2"/>
<path d="M645.363 115.366C647.391 112.243 651.509 111.255 654.733 113.116L688.201 132.439C691.672 134.443 692.755 138.948 690.573 142.311L549.854 359.232C547.757 362.465 543.442 363.395 540.2 361.314L507.615 340.399C504.35 338.303 503.412 333.95 505.526 330.696L645.363 115.366Z" fill="#1C1B2A" stroke="black" stroke-width="2"/>
<path d="M649.062 228.823C651.109 225.621 655.337 224.637 658.588 226.607L897.582 371.458C901.013 373.538 901.997 378.07 899.739 381.386L806.647 518.05C804.518 521.175 800.291 522.045 797.101 520.013L565.55 372.506C562.286 370.426 561.329 366.093 563.413 362.832L649.062 228.823Z" fill="#1C1B2A" stroke="black" stroke-width="2"/>
<path d="M700.065 154.32C702.124 151.174 706.301 150.217 709.525 152.152L951.393 297.386C954.889 299.485 955.858 304.116 953.497 307.441L916.224 359.922C914.108 362.9 910.057 363.751 906.922 361.875L666.919 218.253C663.506 216.211 662.478 211.74 664.656 208.413L700.065 154.32Z" fill="#1C1B2A" stroke="black" stroke-width="2"/>
<circle cx="890.214" cy="306.775" r="17.5" transform="rotate(30 890.214 306.775)" fill="#12101E"/>
<circle cx="834.214" cy="272.775" r="17.5" transform="rotate(30 834.214 272.775)" fill="#12101E"/>
<path opacity="0.2" fill-rule="evenodd" clip-rule="evenodd" d="M740.403 313.467C742.767 309.96 747.452 308.899 751.096 311.045L814.881 348.605C818.835 350.933 820.024 356.103 817.485 359.925L757.62 450.047C755.223 453.655 750.39 454.7 746.717 452.405L683.4 412.844C679.561 410.445 678.475 405.342 681.005 401.588L740.403 313.467Z" fill="#F700FE"/>
<path fill-rule="evenodd" clip-rule="evenodd" d="M830.204 368.863C832.546 365.389 837.173 364.31 840.81 366.391L858.734 376.643C862.752 378.941 863.987 384.159 861.426 388.014L801.729 477.881C799.289 481.555 794.337 482.561 790.657 480.131L772.864 468.381C769.152 465.93 768.152 460.922 770.638 457.233L830.204 368.863Z" fill="#12101E"/>
<path opacity="0.2" fill-rule="evenodd" clip-rule="evenodd" d="M652.403 258.467C654.767 254.96 659.452 253.899 663.096 256.045L726.881 293.605C730.835 295.933 732.024 301.103 729.485 304.925L669.62 395.047C667.223 398.655 662.39 399.7 658.717 397.405L595.4 357.844C591.561 355.445 590.475 350.342 593.005 346.588L652.403 258.467Z" fill="#FFEC6A"/>
<path d="M968.194 333.299L904.535 545.857" stroke="black" stroke-width="2"/>
<circle cx="652.426" cy="154.202" r="13.5" transform="rotate(30 652.426 154.202)" fill="#12101E"/>
<circle cx="631.145" cy="184.062" r="7" transform="rotate(30 631.145 184.062)" fill="#12101E"/>
<circle cx="613.779" cy="212.14" r="7" transform="rotate(30 613.779 212.14)" fill="#12101E"/>
<circle cx="596.547" cy="237.987" r="7" transform="rotate(30 596.547 237.987)" fill="#12101E"/>
<circle cx="579.315" cy="263.834" r="7" transform="rotate(30 579.315 263.834)" fill="#12101E"/>
<g opacity="0.6">
<circle cx="405.904" cy="176.46" r="67" transform="rotate(-15 405.904 176.46)" fill="url(#paint0_linear_167_3038)"/>
<mask id="mask0_167_3038" style="mask-type:alpha" maskUnits="userSpaceOnUse" x="338" y="109" width="135" height="135">
<circle cx="405.904" cy="176.46" r="67" transform="rotate(-15 405.904 176.46)" fill="white"/>
</mask>
<g mask="url(#mask0_167_3038)">
<circle cx="452.016" cy="141.846" r="78.5" transform="rotate(-15 452.016 141.846)" fill="white" fill-opacity="0.2"/>
<circle opacity="0.540783" cx="369.409" cy="119.464" r="12.5" transform="rotate(-15 369.409 119.464)" fill="#161424"/>
<circle opacity="0.540783" cx="447.608" cy="225.849" r="12.5" transform="rotate(-15 447.608 225.849)" fill="#161424"/>
<circle opacity="0.540783" cx="391.138" cy="163.852" r="16" transform="rotate(-15 391.138 163.852)" fill="#161424"/>
<circle opacity="0.540783" cx="389.918" cy="221.119" r="16" transform="rotate(-15 389.918 221.119)" fill="#161424"/>
<circle opacity="0.540783" cx="441.107" cy="149.428" r="16" transform="rotate(-15 441.107 149.428)" fill="#161424"/>
<circle opacity="0.540783" cx="417.653" cy="197.124" r="5" transform="rotate(-15 417.653 197.124)" fill="#161424"/>
<circle opacity="0.540783" cx="443.852" cy="182.856" r="5" transform="rotate(-15 443.852 182.856)" fill="#161424"/>
<circle opacity="0.540783" cx="417.509" cy="130.904" r="5" transform="rotate(-15 417.509 130.904)" fill="#161424"/>
<circle opacity="0.540783" cx="351.794" cy="175.43" r="5" transform="rotate(-15 351.794 175.43)" fill="#161424"/>
<circle opacity="0.540783" cx="461.517" cy="194.688" r="5" transform="rotate(-15 461.517 194.688)" fill="#161424"/>
<circle opacity="0.540783" cx="376.03" cy="188.606" r="8" transform="rotate(-15 376.03 188.606)" fill="#161424"/>
<circle opacity="0.540783" cx="444.744" cy="120.501" r="8" transform="rotate(-15 444.744 120.501)" fill="#161424"/>
<circle opacity="0.540783" cx="418.72" cy="174.061" r="8" transform="rotate(-15 418.72 174.061)" fill="#161424"/>
<circle opacity="0.540783" cx="419.122" cy="241.247" r="8" transform="rotate(-15 419.122 241.247)" fill="#161424"/>
<circle opacity="0.540783" cx="349.899" cy="206.996" r="8" transform="rotate(-15 349.899 206.996)" fill="#161424"/>
</g>
</g>
<path d="M1064.69 93.07C1061.18 90.676 1056.51 91.0605 1053.49 94.0734L882.657 264.909C879.902 267.664 877.421 272.119 876.083 276.336C875.412 278.451 875.011 280.563 875.029 282.419C875.046 284.253 875.478 285.998 876.655 287.175C877.819 288.338 879.519 288.807 881.328 288.862C883.153 288.918 885.228 288.558 887.32 287.914C891.497 286.628 895.95 284.143 898.92 281.173L898.952 281.141L898.986 281.107L899.024 281.069L899.065 281.028L899.108 280.985L899.155 280.938L899.204 280.888L899.257 280.836L899.313 280.78L899.371 280.722L899.433 280.66L899.497 280.596L899.564 280.529L899.635 280.458L899.708 280.385L899.784 280.309L899.863 280.23L899.944 280.148L900.029 280.064L900.117 279.976L900.207 279.886L900.3 279.793L900.396 279.697L900.495 279.598L900.596 279.496L900.701 279.392L900.808 279.285L900.918 279.175L901.031 279.062L901.146 278.947L901.264 278.829L901.385 278.708L901.508 278.585L901.635 278.458L901.764 278.329L901.895 278.198L902.029 278.064L902.166 277.927L902.306 277.787L902.448 277.645L902.593 277.5L902.74 277.353L902.89 277.203L903.043 277.05L903.198 276.895L903.356 276.737L903.516 276.577L903.679 276.414L903.844 276.249L904.012 276.081L904.182 275.911L904.355 275.738L904.53 275.563L904.708 275.385L904.889 275.204L905.071 275.022L905.256 274.836L905.444 274.649L905.634 274.459L905.827 274.266L906.021 274.072L906.219 273.874L906.418 273.675L906.62 273.473L906.825 273.268L907.031 273.062L907.24 272.853L907.452 272.641L907.665 272.428L907.881 272.212L908.099 271.994L908.32 271.773L908.543 271.55L908.768 271.325L908.995 271.098L909.225 270.868L909.456 270.637L909.69 270.403L909.926 270.167L910.165 269.928L910.405 269.688L910.648 269.445L910.893 269.2L911.14 268.953L911.389 268.704L911.64 268.453L911.894 268.199L912.149 267.944L912.407 267.686L912.666 267.427L912.928 267.165L913.192 266.901L913.458 266.635L913.725 266.367L913.995 266.098L914.267 265.826L914.541 265.552L914.817 265.276L915.095 264.998L915.375 264.718L915.657 264.436L915.94 264.152L916.226 263.867L916.514 263.579L916.803 263.29L917.095 262.998L917.388 262.705L917.683 262.409L917.981 262.112L918.28 261.813L918.58 261.513L918.883 261.21L919.188 260.905L919.494 260.599L919.802 260.291L920.112 259.981L920.424 259.669L920.737 259.356L921.052 259.041L921.369 258.724L921.688 258.405L922.008 258.084L922.331 257.762L922.655 257.438L922.98 257.113L923.307 256.785L923.636 256.457L923.967 256.126L924.299 255.794L924.633 255.46L924.969 255.124L925.306 254.787L925.645 254.448L925.985 254.108L926.327 253.766L926.671 253.422L927.016 253.077L927.362 252.731L927.711 252.382L928.06 252.033L928.412 251.681L928.764 251.329L929.119 250.974L929.474 250.619L929.832 250.261L930.19 249.903L930.551 249.542L930.912 249.181L931.275 248.818L931.64 248.453L932.006 248.087L932.373 247.72L932.741 247.351L933.112 246.981L933.483 246.61L933.856 246.237L934.23 245.863L934.605 245.488L934.982 245.111L935.36 244.733L935.74 244.353L936.12 243.973L936.502 243.591L936.886 243.207L937.27 242.823L937.656 242.437L938.043 242.05L938.431 241.662L938.821 241.272L939.211 240.882L939.603 240.49L939.996 240.097L940.39 239.703L940.786 239.307L941.182 238.911L941.58 238.513L941.978 238.114L942.378 237.715L942.779 237.314L943.181 236.911L943.585 236.508L943.989 236.104L944.394 235.699L944.801 235.292L945.208 234.885L945.616 234.477L946.026 234.067L946.436 233.657L946.848 233.245L947.26 232.833L947.674 232.419L948.088 232.005L948.503 231.59L948.92 231.173L949.337 230.756L949.755 230.338L950.174 229.919L950.594 229.499L951.015 229.078L951.436 228.657L951.859 228.234L952.282 227.811L952.706 227.386L953.132 226.961L953.557 226.535L953.984 226.109L954.412 225.681L954.84 225.253L955.269 224.824L955.699 224.394L956.129 223.963L956.561 223.532L956.993 223.1L957.426 222.667L957.859 222.234L958.293 221.8L958.728 221.365L959.164 220.929L959.6 220.493L960.037 220.056L960.475 219.618L960.913 219.18L961.351 218.741L961.791 218.302L962.231 217.862L962.672 217.421L963.113 216.98L963.554 216.538L963.997 216.096L964.44 215.653L964.883 215.21L965.327 214.766L965.771 214.322L966.216 213.877L966.662 213.431L967.108 212.985L967.554 212.539L968.001 212.092L968.448 211.645L968.896 211.197L969.344 210.749L969.793 210.3L970.242 209.851L970.691 209.402L971.141 208.952L971.591 208.502L972.041 208.052L972.492 207.601L972.943 207.15L973.395 206.698L973.847 206.246L974.299 205.794L974.751 205.342L975.204 204.889L975.657 204.436L976.11 203.983L976.564 203.529L977.017 203.076L977.471 202.622L977.926 202.167L978.38 201.713L978.834 201.258L979.289 200.804L979.744 200.349L980.199 199.894L980.655 199.438L981.11 198.983L981.565 198.527L982.021 198.072L982.477 197.616L982.933 197.16L983.389 196.704L983.845 196.248L984.301 195.792L984.757 195.336L985.213 194.88L985.669 194.424L986.125 193.967L986.582 193.511L987.038 193.055L987.494 192.599L987.95 192.143L988.407 191.686L988.863 191.23L989.319 190.774L989.775 190.318L990.231 189.862L990.687 189.406L991.142 188.951L991.598 188.495L992.053 188.04L992.509 187.584L992.964 187.129L993.419 186.674L993.874 186.219L994.329 185.764L994.783 185.31L995.238 184.855L995.692 184.401L996.146 183.947L996.599 183.494L997.053 183.04L997.506 182.587L997.959 182.134L998.412 181.681L998.864 181.229L999.316 180.777L999.768 180.325L1000.22 179.874L1000.67 179.423L1001.12 178.972L1001.57 178.521L1002.02 178.071L1002.47 177.622L1002.92 177.172L1003.37 176.723L1003.82 176.275L1004.27 175.827L1004.71 175.379L1005.16 174.932L1005.61 174.485L1006.05 174.039L1006.5 173.593L1006.95 173.148L1007.39 172.703L1007.83 172.259L1008.28 171.815L1008.72 171.371L1009.16 170.929L1009.61 170.486L1010.05 170.045L1010.49 169.604L1010.93 169.163L1011.37 168.723L1011.81 168.284L1012.25 167.845L1012.69 167.407L1013.12 166.97L1013.56 166.533L1014 166.097L1014.43 165.661L1014.87 165.227L1015.3 164.792L1015.73 164.359L1016.17 163.926L1016.6 163.494L1017.03 163.063L1017.46 162.633L1017.89 162.203L1018.32 161.774L1018.75 161.346L1019.17 160.919L1019.6 160.492L1020.03 160.066L1020.45 159.641L1020.88 159.217L1021.3 158.794L1021.72 158.372L1022.14 157.95L1022.56 157.529L1022.98 157.11L1023.4 156.691L1023.82 156.273L1024.24 155.856L1024.65 155.44L1025.07 155.024L1025.48 154.61L1025.9 154.197L1026.31 153.785L1026.72 153.373L1027.13 152.963L1027.54 152.554L1027.95 152.146L1028.35 151.738L1028.76 151.332L1029.17 150.927L1029.57 150.523L1029.97 150.12L1030.37 149.718L1030.78 149.317L1031.18 148.918L1031.57 148.519L1031.97 148.122L1032.37 147.725L1032.76 147.33L1033.16 146.936L1033.55 146.543L1033.94 146.152L1034.33 145.761L1034.72 145.372L1035.11 144.984L1035.5 144.597L1035.88 144.212L1036.27 143.827L1036.65 143.444L1037.03 143.063L1037.41 142.682L1037.79 142.303L1038.17 141.925L1038.54 141.549L1038.92 141.173L1039.29 140.799L1039.67 140.427L1040.04 140.056L1040.41 139.686L1040.78 139.317L1041.14 138.95L1041.51 138.585L1041.87 138.22L1042.24 137.858L1042.6 137.496L1042.96 137.136L1043.32 136.778L1043.67 136.421L1044.03 136.065L1044.38 135.711L1044.73 135.359L1045.09 135.008L1045.43 134.658L1045.78 134.31L1046.13 133.964L1046.47 133.619L1046.82 133.276L1047.16 132.934L1047.5 132.594L1047.84 132.256L1048.17 131.919L1048.51 131.583L1048.84 131.25L1049.18 130.918L1049.51 130.587L1049.83 130.259L1050.16 129.932L1050.49 129.607L1050.81 129.283L1051.13 128.961L1051.45 128.641L1051.77 128.322L1052.09 128.006L1052.4 127.691L1052.72 127.378L1053.03 127.066L1053.34 126.757L1053.64 126.449L1053.95 126.143L1054.25 125.839L1054.56 125.536L1054.86 125.236L1055.16 124.937L1055.45 124.64L1055.75 124.345L1056.04 124.052L1056.33 123.761L1056.62 123.472L1056.91 123.185L1057.19 122.899L1057.48 122.616L1057.76 122.334L1058.04 122.055L1058.32 121.777L1058.59 121.502L1058.86 121.228L1059.14 120.957L1059.41 120.687L1059.67 120.419L1059.94 120.154L1060.2 119.891L1060.46 119.629L1060.72 119.37L1060.98 119.113L1061.24 118.858L1061.49 118.605L1061.74 118.354L1061.99 118.105L1062.23 117.858L1062.48 117.614L1062.72 117.371L1062.96 117.131L1063.2 116.893L1063.44 116.658L1063.67 116.424L1063.9 116.193L1064.13 115.963L1064.36 115.737L1064.58 115.512L1064.8 115.29L1065.02 115.069L1065.24 114.852L1065.46 114.636L1065.67 114.423L1065.88 114.212L1066.09 114.003L1066.3 113.797L1066.5 113.593L1066.7 113.391L1066.9 113.192L1067.1 112.995L1067.29 112.801L1067.48 112.609L1067.67 112.419L1067.86 112.232L1068.05 112.047L1068.23 111.865L1068.41 111.685L1068.59 111.508L1068.76 111.333L1068.93 111.16L1069.1 110.99L1069.27 110.823L1069.43 110.658L1069.6 110.496L1069.76 110.336C1072.77 107.323 1073.15 102.645 1070.76 99.1435C1069.13 96.7595 1067.07 94.6999 1064.69 93.07Z" fill="#373451" stroke="black" stroke-width="2"/>
<path d="M880.544 265.608C880.544 265.608 884.294 272.186 887.853 275.745C891.412 279.304 897.515 282.578 897.515 282.578" stroke="black" stroke-width="2"/>
<path fill-rule="evenodd" clip-rule="evenodd" d="M1037.52 111.458L1026.63 122.35C1026.63 122.35 1029.42 127.395 1032.93 130.904C1036.43 134.412 1041.67 137.005 1041.67 137.005L1052.37 126.308C1052.37 126.308 1046.25 122.272 1043.92 119.937C1041.58 117.602 1037.52 111.458 1037.52 111.458Z" fill="#12101E"/>
<path d="M1024.79 121.358C1024.79 121.358 1028.54 127.937 1032.1 131.495C1035.66 135.054 1041.76 138.329 1041.76 138.329" stroke="black" stroke-width="2"/>
<path d="M1036.81 109.337C1036.81 109.337 1040.56 115.915 1044.12 119.474C1047.68 123.033 1053.79 126.307 1053.79 126.307" stroke="black" stroke-width="2"/>
<rect x="691.725" y="121.537" width="59" height="214" rx="6" transform="rotate(-6 691.725 121.537)" fill="#1C1B2A" stroke="black" stroke-width="2"/>
<rect x="699.157" y="127.761" width="46" height="33" rx="7" transform="rotate(-6 699.157 127.761)" fill="#FFEC6A"/>
<rect opacity="0.671456" x="703.443" y="168.536" width="46" height="33" rx="7" transform="rotate(-6 703.443 168.536)" fill="#FFEC6A"/>
<rect opacity="0.57301" x="707.728" y="209.312" width="46" height="33" rx="7" transform="rotate(-6 707.728 209.312)" fill="#FFEC6A"/>
<rect opacity="0.224493" x="712.014" y="250.087" width="46" height="33" rx="7" transform="rotate(-6 712.014 250.087)" fill="#FFEC6A"/>
<rect opacity="0.0807757" x="716.3" y="290.862" width="46" height="33" rx="7" transform="rotate(-6 716.3 290.862)" fill="#FFEC6A"/>
<rect x="791.326" y="119.858" width="59" height="214" rx="8" transform="rotate(16 791.326 119.858)" fill="#1C1B2A" stroke="black" stroke-width="2"/>
<rect x="795.257" y="128.386" width="46" height="33" rx="7" transform="rotate(16 795.257 128.386)" fill="#F700FE"/>
<rect opacity="0.671456" x="784.943" y="167.954" width="46" height="33" rx="7" transform="rotate(16 784.943 167.954)" fill="#FA44FF"/>
<rect opacity="0.57301" x="773.642" y="207.366" width="46" height="33" rx="7" transform="rotate(16 773.642 207.366)" fill="#FB7CFF"/>
<rect opacity="0.2" x="762.341" y="246.777" width="46" height="33" rx="7" transform="rotate(16 762.341 246.777)" fill="#FED8FF"/>
<rect opacity="0.0962147" x="751.04" y="286.189" width="46" height="33" rx="7" transform="rotate(16 751.04 286.189)" fill="#663D67"/>
</g>
<path opacity="0.0608491" fill-rule="evenodd" clip-rule="evenodd" d="M831.578 305.711L827.071 302.218L831.578 298.724L835.071 294.218L838.565 298.724L843.071 302.218L838.565 305.711L835.071 310.218L831.578 305.711Z" fill="#979797"/>
<path opacity="0.143438" fill-rule="evenodd" clip-rule="evenodd" d="M736.888 176.644L734.071 174.46L736.888 172.277L739.071 169.46L741.255 172.277L744.071 174.46L741.255 176.644L739.071 179.46L736.888 176.644Z" fill="#979797"/>
<path opacity="0.0608491" fill-rule="evenodd" clip-rule="evenodd" d="M272.577 203.711L268.071 200.218L272.577 196.724L276.071 192.218L279.565 196.724L284.071 200.218L279.565 203.711L276.071 208.218L272.577 203.711Z" fill="#979797"/>
<path opacity="0.143438" fill-rule="evenodd" clip-rule="evenodd" d="M177.887 74.6438L175.071 72.4602L177.887 70.2767L180.071 67.4602L182.255 70.2767L185.071 72.4602L182.255 74.6438L180.071 77.4602L177.887 74.6438Z" fill="#979797"/>
<path opacity="0.0904018" fill-rule="evenodd" clip-rule="evenodd" d="M1161.58 704.711L1157.07 701.218L1161.58 697.724L1165.07 693.218L1168.56 697.724L1173.07 701.218L1168.56 704.711L1165.07 709.218L1161.58 704.711Z" fill="#979797"/>
<path fill-rule="evenodd" clip-rule="evenodd" d="M314.577 574.711L310.071 571.218L314.577 567.724L318.071 563.218L321.565 567.724L326.071 571.218L321.565 574.711L318.071 579.218L314.577 574.711Z" fill="#2FFD61"/>
<path opacity="0.0608491" fill-rule="evenodd" clip-rule="evenodd" d="M97.5773 307.711L93.071 304.218L97.5773 300.724L101.071 296.218L104.565 300.724L109.071 304.218L104.565 307.711L101.071 312.218L97.5773 307.711Z" fill="#979797"/>
<path opacity="0.0904018" fill-rule="evenodd" clip-rule="evenodd" d="M427.577 706.711L423.071 703.218L427.577 699.724L431.071 695.218L434.565 699.724L439.071 703.218L434.565 706.711L431.071 711.218L427.577 706.711Z" fill="#979797"/>
<path opacity="0.143438" fill-rule="evenodd" clip-rule="evenodd" d="M2.88748 178.644L0.071045 176.46L2.88748 174.277L5.07104 171.46L7.25461 174.277L10.071 176.46L7.25461 178.644L5.07104 181.46L2.88748 178.644Z" fill="#979797"/>
<path fill-rule="evenodd" clip-rule="evenodd" d="M489.577 470.711L485.071 467.218L489.577 463.724L493.071 459.218L496.565 463.724L501.071 467.218L496.565 470.711L493.071 475.218L489.577 470.711Z" fill="#2FFD61"/>
<path opacity="0.0904018" fill-rule="evenodd" clip-rule="evenodd" d="M602.578 602.711L598.071 599.218L602.578 595.724L606.071 591.218L609.565 595.724L614.071 599.218L609.565 602.711L606.071 607.218L602.578 602.711Z" fill="#979797"/>
<path fill-rule="evenodd" clip-rule="evenodd" d="M1048.58 572.711L1044.07 569.218L1048.58 565.724L1052.07 561.218L1055.56 565.724L1060.07 569.218L1055.56 572.711L1052.07 577.218L1048.58 572.711Z" fill="#F700FE"/>
<path fill-rule="evenodd" clip-rule="evenodd" d="M554.36 84.3968L549.854 80.9031L554.36 77.4094L557.854 72.9031L561.347 77.4094L565.854 80.9031L561.347 84.3968L557.854 88.9031L554.36 84.3968Z" fill="#FFEC6A"/>
<path opacity="0.143438" fill-rule="evenodd" clip-rule="evenodd" d="M558.978 560.379L556.795 563.196L554.611 560.379L551.795 558.196L554.611 556.012L556.795 553.196L558.978 556.012L561.795 558.196L558.978 560.379Z" fill="#979797"/>
<path fill-rule="evenodd" clip-rule="evenodd" d="M1016.99 514.566L1012.48 511.072L1016.99 507.578L1020.48 503.072L1023.98 507.578L1028.48 511.072L1023.98 514.566L1020.48 519.072L1016.99 514.566Z" fill="#FFEC6A"/>
<path opacity="0.143438" fill-rule="evenodd" clip-rule="evenodd" d="M1060.98 456.38L1058.79 459.196L1056.61 456.38L1053.79 454.196L1056.61 452.013L1058.79 449.196L1060.98 452.013L1063.79 454.196L1060.98 456.38Z" fill="#979797"/>
<defs>
<linearGradient id="paint0_linear_167_3038" x1="267.242" y1="164.244" x2="517.907" y2="152.361" gradientUnits="userSpaceOnUse">
<stop stop-color="#0058FF"/>
<stop offset="1" stop-color="#F700FE"/>
</linearGradient>
<clipPath id="clip0_167_3038">
<rect width="817" height="661" fill="white" transform="translate(287)"/>
</clipPath>
</defs>
</svg>
