<svg width="311" height="251" viewBox="0 0 311 251" fill="none" xmlns="http://www.w3.org/2000/svg">
<g clip-path="url(#clip0_165_6193)">
<path fill-rule="evenodd" clip-rule="evenodd" d="M11.5916 131.209C10.6364 130.555 11.1473 129.059 12.3026 129.126L106.772 134.614C109.982 134.8 113.088 135.813 115.791 137.554L235.131 214.425C236.668 215.415 236.062 217.79 234.239 217.923L154.088 223.771C149.876 224.078 145.684 222.947 142.199 220.563L11.5916 131.209Z" fill="#373451" stroke="black"/>
<path d="M11.9395 130.693V130.693C11.5214 132.68 12.3339 134.724 14.0018 135.881L140.287 223.508C143.489 225.73 147.34 226.82 151.231 226.606L231.048 222.216C232.048 222.161 232.956 221.618 233.479 220.765L235.424 217.586" stroke="black" stroke-linecap="round"/>
<path fill-rule="evenodd" clip-rule="evenodd" d="M31.812 139.433C31.1501 138.996 31.515 137.964 32.3048 138.04L67.9977 141.48L177.35 212.364C177.977 212.77 177.706 213.741 176.96 213.764L146.99 214.699C146.203 214.723 145.429 214.504 144.773 214.07L31.812 139.433Z" stroke="black"/>
<path d="M52.5508 144.964L147.8 207.043" stroke="black" stroke-linecap="round"/>
<path d="M67.1934 147.217L162.442 209.296" stroke="black" stroke-linecap="round"/>
<path d="M64.3026 155.292L83.5206 155.757" stroke="black" stroke-linecap="round"/>
<path d="M78.8143 165.443L98.0323 165.908" stroke="black" stroke-linecap="round"/>
<path d="M92.662 175.209L111.88 175.674" stroke="black" stroke-linecap="round"/>
<path d="M109.934 185.181L129.152 185.646" stroke="black" stroke-linecap="round"/>
<path d="M124.549 193.619L143.767 194.084" stroke="black" stroke-linecap="round"/>
<path fill-rule="evenodd" clip-rule="evenodd" d="M191.589 192.05L234.433 214.175L262.392 127.385L191.589 192.05Z" fill="#1C1B2A"/>
<path d="M71.5137 132.937C70.1057 135.11 70.727 138.014 72.9012 139.42L193.687 217.577C197.384 219.97 202.315 218.976 204.797 215.339L267.984 122.736C270.01 119.767 269.099 115.703 266 113.882L139.199 39.3826C136.333 37.6986 132.649 38.5704 130.841 41.3603L71.5137 132.937Z" fill="#12101E" stroke="black"/>
<path d="M137.306 51.4926C138.044 50.3571 139.541 49.9976 140.714 50.6746L153.454 58.0299C154.716 58.7587 155.11 60.3966 154.316 61.6194L100.75 144.193C99.9873 145.368 98.4185 145.707 97.2396 144.95L84.8359 136.989C83.6484 136.226 83.3076 134.644 84.0761 133.46L137.306 51.4926Z" fill="#1C1B2A" stroke="black"/>
<path d="M138.715 94.6806C139.459 93.516 140.997 93.1583 142.179 93.8747L233.154 149.014C234.402 149.77 234.76 151.418 233.938 152.624L198.502 204.646C197.728 205.783 196.191 206.099 195.031 205.36L106.889 149.21C105.702 148.454 105.354 146.878 106.112 145.693L138.715 94.6806Z" fill="#1C1B2A" stroke="black"/>
<path d="M158.129 66.3209C158.878 65.1769 160.397 64.829 161.569 65.5328L253.639 120.818C254.91 121.581 255.262 123.265 254.404 124.474L240.215 144.451C239.446 145.534 237.973 145.844 236.833 145.161L145.473 90.4902C144.232 89.7477 143.859 88.122 144.65 86.9121L158.129 66.3209Z" fill="#1C1B2A" stroke="black"/>
<circle cx="230.411" cy="124.289" r="6.66157" transform="rotate(30 230.411 124.289)" fill="#12101E"/>
<circle cx="209.095" cy="111.347" r="6.66157" transform="rotate(30 209.095 111.347)" fill="#12101E"/>
<path opacity="0.2" fill-rule="evenodd" clip-rule="evenodd" d="M173.384 126.837C174.284 125.502 176.067 125.098 177.455 125.915L201.735 140.212C203.24 141.099 203.693 143.067 202.726 144.522L179.938 178.827C179.026 180.201 177.186 180.599 175.788 179.725L151.685 164.666C150.224 163.753 149.811 161.81 150.774 160.381L173.384 126.837Z" fill="#F700FE"/>
<path fill-rule="evenodd" clip-rule="evenodd" d="M207.568 147.924C208.46 146.601 210.221 146.191 211.605 146.983L218.428 150.886C219.958 151.76 220.428 153.747 219.453 155.214L196.729 189.423C195.8 190.821 193.915 191.204 192.514 190.279L185.741 185.807C184.328 184.874 183.948 182.967 184.894 181.563L207.568 147.924Z" fill="#12101E"/>
<path opacity="0.2" fill-rule="evenodd" clip-rule="evenodd" d="M139.886 105.9C140.786 104.566 142.569 104.162 143.957 104.978L168.237 119.276C169.742 120.162 170.195 122.13 169.228 123.585L146.44 157.891C145.528 159.264 143.688 159.662 142.29 158.789L118.187 143.729C116.726 142.816 116.313 140.874 117.276 139.445L139.886 105.9Z" fill="#FFEC6A"/>
<path d="M260.095 134.386L235.863 215.299" stroke="black"/>
<circle cx="139.895" cy="66.2108" r="5.13892" transform="rotate(30 139.895 66.2108)" fill="#12101E"/>
<circle cx="131.794" cy="77.5774" r="2.66463" transform="rotate(30 131.794 77.5774)" fill="#12101E"/>
<circle cx="125.183" cy="88.2659" r="2.66463" transform="rotate(30 125.183 88.2659)" fill="#12101E"/>
<circle cx="118.624" cy="98.1048" r="2.66463" transform="rotate(30 118.624 98.1048)" fill="#12101E"/>
<circle cx="112.065" cy="107.944" r="2.66463" transform="rotate(30 112.065 107.944)" fill="#12101E"/>
<g opacity="0.6">
<circle cx="46.0536" cy="74.6837" r="25.5043" transform="rotate(-15 46.0536 74.6837)" fill="url(#paint0_linear_165_6193)"/>
<mask id="mask0_165_6193" style="mask-type:luminance" maskUnits="userSpaceOnUse" x="20" y="49" width="52" height="52">
<circle cx="46.0536" cy="74.6837" r="25.5043" transform="rotate(-15 46.0536 74.6837)" fill="white"/>
</mask>
<g mask="url(#mask0_165_6193)">
<circle cx="63.607" cy="61.5074" r="29.8819" transform="rotate(-15 63.607 61.5074)" fill="white" fill-opacity="0.2"/>
<circle opacity="0.540783" cx="32.1614" cy="52.9874" r="4.75826" transform="rotate(-15 32.1614 52.9874)" fill="#161424"/>
<circle opacity="0.540783" cx="61.9287" cy="93.4841" r="4.75826" transform="rotate(-15 61.9287 93.4841)" fill="#161424"/>
<circle opacity="0.540783" cx="40.4328" cy="69.8843" r="6.09058" transform="rotate(-15 40.4328 69.8843)" fill="#161424"/>
<circle opacity="0.540783" cx="39.9684" cy="91.6838" r="6.09058" transform="rotate(-15 39.9684 91.6838)" fill="#161424"/>
<circle opacity="0.540783" cx="59.454" cy="64.3936" r="6.09058" transform="rotate(-15 59.454 64.3936)" fill="#161424"/>
<circle opacity="0.540783" cx="50.5259" cy="82.5495" r="1.9033" transform="rotate(-15 50.5259 82.5495)" fill="#161424"/>
<circle opacity="0.540783" cx="60.4993" cy="77.1184" r="1.9033" transform="rotate(-15 60.4993 77.1184)" fill="#161424"/>
<circle opacity="0.540783" cx="50.4712" cy="57.3423" r="1.9033" transform="rotate(-15 50.4712 57.3423)" fill="#161424"/>
<circle opacity="0.540783" cx="25.4558" cy="74.2916" r="1.9033" transform="rotate(-15 25.4558 74.2916)" fill="#161424"/>
<circle opacity="0.540783" cx="67.2232" cy="81.6221" r="1.9033" transform="rotate(-15 67.2232 81.6221)" fill="#161424"/>
<circle opacity="0.540783" cx="34.6816" cy="79.3072" r="3.04529" transform="rotate(-15 34.6816 79.3072)" fill="#161424"/>
<circle opacity="0.540783" cx="60.8386" cy="53.3821" r="3.04529" transform="rotate(-15 60.8386 53.3821)" fill="#161424"/>
<circle opacity="0.540783" cx="50.9321" cy="73.7707" r="3.04529" transform="rotate(-15 50.9321 73.7707)" fill="#161424"/>
<circle opacity="0.540783" cx="51.0854" cy="99.3454" r="3.04529" transform="rotate(-15 51.0854 99.3454)" fill="#161424"/>
<circle opacity="0.540783" cx="24.7348" cy="86.3074" r="3.04529" transform="rotate(-15 24.7348 86.3074)" fill="#161424"/>
</g>
</g>
<path d="M296.894 42.8417C295.515 41.8987 293.67 42.0495 292.481 43.2378L227.451 108.268C226.386 109.334 225.433 111.047 224.919 112.667C224.661 113.479 224.505 114.296 224.512 115.019C224.519 115.731 224.686 116.433 225.166 116.913C225.639 117.386 226.322 117.569 227.026 117.59C227.738 117.612 228.541 117.472 229.345 117.224C230.951 116.73 232.664 115.775 233.81 114.628L233.822 114.616L233.836 114.603L233.85 114.589L233.865 114.573L233.882 114.556L233.9 114.539L233.919 114.52L233.939 114.5L233.96 114.479L233.982 114.456L234.005 114.433L234.03 114.408L234.056 114.383L234.082 114.356L234.11 114.328L234.139 114.299L234.169 114.269L234.2 114.238L234.233 114.206L234.266 114.173L234.3 114.138L234.336 114.103L234.372 114.066L234.41 114.029L234.449 113.99L234.488 113.95L234.529 113.909L234.571 113.868L234.614 113.825L234.658 113.781L234.703 113.736L234.749 113.69L234.796 113.643L234.844 113.595L234.893 113.546L234.943 113.496L234.994 113.444L235.046 113.392L235.099 113.339L235.153 113.285L235.208 113.23L235.265 113.174L235.322 113.117L235.38 113.059L235.439 113L235.499 112.94L235.56 112.879L235.622 112.817L235.685 112.754L235.749 112.69L235.813 112.625L235.879 112.559L235.946 112.492L236.014 112.425L236.082 112.356L236.152 112.287L236.222 112.216L236.294 112.145L236.366 112.072L236.439 111.999L236.514 111.925L236.589 111.85L236.665 111.774L236.742 111.697L236.819 111.619L236.898 111.54L236.978 111.461L237.058 111.38L237.139 111.299L237.222 111.217L237.305 111.134L237.389 111.05L237.473 110.965L237.559 110.879L237.646 110.793L237.733 110.706L237.821 110.617L237.91 110.528L238 110.438L238.091 110.348L238.182 110.256L238.275 110.164L238.368 110.071L238.462 109.976L238.557 109.882L238.652 109.786L238.749 109.69L238.846 109.592L238.944 109.494L239.043 109.395L239.143 109.296L239.243 109.195L239.344 109.094L239.446 108.992L239.549 108.889L239.652 108.786L239.757 108.682L239.862 108.577L239.968 108.471L240.074 108.364L240.181 108.257L240.289 108.149L240.398 108.04L240.508 107.931L240.618 107.821L240.729 107.71L240.84 107.598L240.953 107.486L241.066 107.372L241.18 107.259L241.294 107.144L241.409 107.029L241.525 106.913L241.642 106.796L241.759 106.679L241.877 106.561L241.996 106.443L242.115 106.323L242.235 106.203L242.356 106.083L242.477 105.961L242.599 105.839L242.722 105.717L242.845 105.593L242.969 105.469L243.094 105.345L243.219 105.22L243.345 105.094L243.471 104.967L243.598 104.84L243.726 104.712L243.854 104.584L243.983 104.455L244.113 104.325L244.243 104.195L244.374 104.065L244.505 103.933L244.637 103.801L244.77 103.669L244.903 103.536L245.037 103.402L245.171 103.268L245.306 103.133L245.441 102.997L245.577 102.861L245.714 102.725L245.851 102.588L245.988 102.45L246.127 102.312L246.265 102.173L246.405 102.034L246.545 101.894L246.685 101.754L246.826 101.613L246.967 101.471L247.109 101.329L247.251 101.187L247.394 101.044L247.538 100.901L247.682 100.757L247.826 100.612L247.971 100.467L248.116 100.322L248.262 100.176L248.409 100.03L248.556 99.8829L248.703 99.7355L248.851 99.5878L248.999 99.4395L249.148 99.2908L249.297 99.1417L249.446 98.992L249.596 98.842L249.747 98.6915L249.898 98.5406L250.049 98.3892L250.201 98.2374L250.353 98.0852L250.506 97.9325L250.659 97.7795L250.812 97.626L250.966 97.4721L251.121 97.3178L251.275 97.1632L251.43 97.0081L251.586 96.8526L251.742 96.6967L251.898 96.5405L252.055 96.3839L252.212 96.2269L252.369 96.0695L252.527 95.9118L252.685 95.7537L252.843 95.5952L253.002 95.4364L253.161 95.2773L253.321 95.1177L253.481 94.9579L253.641 94.7977L253.801 94.6372L253.962 94.4764L254.123 94.3152L254.285 94.1537L254.447 93.9919L254.609 93.8298L254.771 93.6673L254.934 93.5046L255.097 93.3415L255.26 93.1782L255.424 93.0146L255.588 92.8507L255.752 92.6865L255.916 92.522L256.081 92.3573L256.246 92.1922L256.411 92.027L256.577 91.8614L256.743 91.6956L256.909 91.5295L257.075 91.3632L257.242 91.1967L257.409 91.0299L257.576 90.8629L257.743 90.6956L257.91 90.5281L258.078 90.3604L258.246 90.1924L258.414 90.0243L258.583 89.8559L258.751 89.6873L258.92 89.5185L259.089 89.3495L259.258 89.1804L259.427 89.011L259.597 88.8414L259.767 88.6717L259.937 88.5018L260.107 88.3317L260.277 88.1614L260.447 87.991L260.618 87.8204L260.789 87.6496L260.96 87.4787L261.131 87.3077L261.302 87.1365L261.473 86.9651L261.645 86.7936L261.816 86.622L261.988 86.4503L262.16 86.2784L262.332 86.1064L262.504 85.9343L262.676 85.7621L262.849 85.5898L263.021 85.4173L263.194 85.2448L263.366 85.0722L263.539 84.8995L263.712 84.7267L263.885 84.5538L264.058 84.3808L264.231 84.2078L264.404 84.0347L264.577 83.8615L264.75 83.6882L264.923 83.5149L265.097 83.3416L265.27 83.1682L265.444 82.9947L265.617 82.8213L265.791 82.6477L265.964 82.4742L266.138 82.3006L266.311 82.127L266.485 81.9533L266.659 81.7797L266.832 81.606L267.006 81.4324L267.18 81.2587L267.353 81.085L267.527 80.9113L267.701 80.7377L267.874 80.564L268.048 80.3904L268.222 80.2168L268.395 80.0432L268.569 79.8697L268.742 79.6961L268.916 79.5227L269.089 79.3492L269.263 79.1758L269.436 79.0025L269.609 78.8292L269.782 78.656L269.956 78.4828L270.129 78.3097L270.302 78.1367L270.475 77.9637L270.648 77.7909L270.82 77.6181L270.993 77.4454L271.166 77.2728L271.338 77.1002L271.511 76.9278L271.683 76.7555L271.855 76.5833L272.027 76.4112L272.199 76.2393L272.371 76.0674L272.543 75.8957L272.714 75.7241L272.886 75.5526L273.057 75.3813L273.228 75.2101L273.399 75.0391L273.57 74.8682L273.741 74.6975L273.911 74.5269L274.082 74.3565L274.252 74.1863L274.422 74.0162L274.592 73.8463L274.762 73.6766L274.931 73.5071L275.101 73.3378L275.27 73.1686L275.439 72.9997L275.608 72.8309L275.776 72.6624L275.944 72.494L276.113 72.3259L276.28 72.158L276.448 71.9903L276.616 71.8229L276.783 71.6556L276.95 71.4886L277.117 71.3219L277.283 71.1554L277.449 70.9891L277.615 70.8231L277.781 70.6573L277.947 70.4918L278.112 70.3266L278.277 70.1616L278.442 69.9969L278.606 69.8325L278.77 69.6683L278.934 69.5045L279.098 69.3409L279.261 69.1776L279.424 69.0146L279.586 68.852L279.749 68.6896L279.911 68.5275L280.073 68.3657L280.234 68.2043L280.395 68.0432L280.556 67.8824L280.716 67.7219L280.877 67.5618L281.036 67.402L281.196 67.2426L281.355 67.0835L281.514 66.9247L281.672 66.7663L281.83 66.6083L281.988 66.4506L282.145 66.2933L282.302 66.1364L282.459 65.9798L282.615 65.8236L282.771 65.6678L282.926 65.5124L283.081 65.3574L283.236 65.2028L283.39 65.0486L283.544 64.8948L283.697 64.7414L283.85 64.5884L284.003 64.4358L284.155 64.2837L284.306 64.132L284.458 63.9807L284.609 63.8298L284.759 63.6794L284.909 63.5294L285.059 63.3799L285.208 63.2308L285.356 63.0822L285.504 62.934L285.652 62.7863L285.799 62.6391L285.946 62.4923L286.092 62.346L286.238 62.2002L286.384 62.0549L286.528 61.9101L286.673 61.7657L286.817 61.6219L286.96 61.4785L287.103 61.3357L287.245 61.1934L287.387 61.0515L287.528 60.9102L287.669 60.7695L287.809 60.6292L287.949 60.4895L288.088 60.3503L288.227 60.2117L288.365 60.0736L288.502 59.936L288.639 59.799L288.776 59.6625L288.912 59.5266L289.047 59.3913L289.182 59.2566L289.316 59.1224L289.45 58.9888L289.583 58.8557L289.715 58.7233L289.847 58.5914L289.978 58.4601L290.109 58.3295L290.239 58.1994L290.368 58.0699L290.497 57.9411L290.626 57.8128L290.753 57.6852L290.88 57.5582L291.007 57.4318L291.132 57.3061L291.257 57.181L291.382 57.0565L291.506 56.9327L291.629 56.8095L291.751 56.687L291.873 56.5651L291.995 56.4439L292.115 56.3233L292.235 56.2034L292.354 56.0842L292.473 55.9657L292.591 55.8478L292.708 55.7306L292.824 55.6142L292.94 55.4984L293.055 55.3833L293.17 55.2689L293.283 55.1552L293.396 55.0422L293.508 54.93L293.62 54.8184L293.731 54.7076L293.841 54.5975L293.95 54.4881L294.059 54.3795L294.167 54.2716L294.274 54.1644L294.38 54.058L294.486 53.9524L294.591 53.8475L294.695 53.7433L294.798 53.64L294.901 53.5374L295.003 53.4355L295.104 53.3345L295.204 53.2342L295.304 53.1347L295.402 53.036L295.5 52.9381L295.597 52.841L295.694 52.7447L295.789 52.6491L295.884 52.5545L295.978 52.4606L296.071 52.3675L296.163 52.2753L296.255 52.1838L296.345 52.0933L296.435 52.0035L296.524 51.9146L296.612 51.8265L296.699 51.7393L296.786 51.6529L296.871 51.5674L296.956 51.4827L297.039 51.399L297.122 51.316L297.204 51.234L297.286 51.1528L297.366 51.0725L297.445 50.9931L297.524 50.9146L297.601 50.8369L297.678 50.7602L297.754 50.6844L297.829 50.6095L297.903 50.5354L297.976 50.4623L298.048 50.3902L298.12 50.3189L298.19 50.2486L298.259 50.1792L298.328 50.1107L298.395 50.0432L298.462 49.9766L298.527 49.9109L298.592 49.8462L298.656 49.7825L298.719 49.7197L298.781 49.6579L298.841 49.5971C300.03 48.4087 300.18 46.5642 299.237 45.1849C298.608 44.2651 297.814 43.4705 296.894 42.8417Z" fill="#373451" stroke="black"/>
<path d="M226.731 108.619C226.731 108.619 228.158 111.123 229.513 112.478C230.868 113.832 233.191 115.079 233.191 115.079" stroke="black"/>
<path fill-rule="evenodd" clip-rule="evenodd" d="M286.486 49.9401L282.34 54.0861C282.34 54.0861 283.401 56.0066 284.736 57.3422C286.072 58.6777 288.066 59.6647 288.066 59.6647L292.139 55.5926C292.139 55.5926 289.81 54.0562 288.921 53.1674C288.033 52.2786 286.486 49.9401 286.486 49.9401Z" fill="#12101E"/>
<path d="M281.641 53.7084C281.641 53.7084 283.069 56.2126 284.423 57.5673C285.778 58.9219 288.101 60.1684 288.101 60.1684" stroke="black"/>
<path d="M286.217 49.1324C286.217 49.1324 287.644 51.6366 288.999 52.9913C290.354 54.346 292.677 55.5925 292.677 55.5925" stroke="black"/>
<rect x="154.986" y="53.883" width="22.2203" height="81.2228" rx="2.16463" transform="rotate(-6 154.986 53.883)" fill="#1C1B2A" stroke="black"/>
<rect x="157.684" y="56.1458" width="17.5104" height="12.5618" rx="2.66463" transform="rotate(-6 157.684 56.1458)" fill="#FFEC6A"/>
<rect opacity="0.671456" x="159.315" y="71.6674" width="17.5104" height="12.5618" rx="2.66463" transform="rotate(-6 159.315 71.6674)" fill="#FFEC6A"/>
<rect opacity="0.57301" x="160.946" y="87.189" width="17.5104" height="12.5618" rx="2.66463" transform="rotate(-6 160.946 87.189)" fill="#FFEC6A"/>
<rect opacity="0.224493" x="162.578" y="102.711" width="17.5104" height="12.5618" rx="2.66463" transform="rotate(-6 162.578 102.711)" fill="#FFEC6A"/>
<rect opacity="0.0807757" x="164.209" y="118.232" width="17.5104" height="12.5618" rx="2.66463" transform="rotate(-6 164.209 118.232)" fill="#FFEC6A"/>
<rect x="192.85" y="53.2848" width="22.2203" height="81.2228" rx="2.92595" transform="rotate(16 192.85 53.2848)" fill="#1C1B2A" stroke="black"/>
<rect x="194.265" y="56.3837" width="17.5104" height="12.5618" rx="2.66463" transform="rotate(16 194.265 56.3837)" fill="#F700FE"/>
<rect opacity="0.671456" x="190.339" y="71.4458" width="17.5104" height="12.5618" rx="2.66463" transform="rotate(16 190.339 71.4458)" fill="#FA44FF"/>
<rect opacity="0.57301" x="186.037" y="86.4482" width="17.5104" height="12.5618" rx="2.66463" transform="rotate(16 186.037 86.4482)" fill="#FB7CFF"/>
<rect opacity="0.2" x="181.735" y="101.451" width="17.5104" height="12.5618" rx="2.66463" transform="rotate(16 181.735 101.451)" fill="#FED8FF"/>
<rect opacity="0.0962147" x="177.433" y="116.453" width="17.5104" height="12.5618" rx="2.66463" transform="rotate(16 177.433 116.453)" fill="#663D67"/>
</g>
<defs>
<linearGradient id="paint0_linear_165_6193" x1="-6.72956" y1="70.0333" x2="88.6887" y2="65.5101" gradientUnits="userSpaceOnUse">
<stop stop-color="#0058FF"/>
<stop offset="1" stop-color="#F700FE"/>
</linearGradient>
<clipPath id="clip0_165_6193">
<rect width="311" height="250" fill="white" transform="translate(0 0.00195312)"/>
</clipPath>
</defs>
</svg>
