<svg width="549" height="596" viewBox="0 0 549 596" fill="none" xmlns="http://www.w3.org/2000/svg">
<path opacity="0.143438" fill-rule="evenodd" clip-rule="evenodd" d="M166.125 336.379L163.941 339.196L161.758 336.379L158.941 334.196L161.758 332.012L163.941 329.196L166.125 332.012L168.941 334.196L166.125 336.379Z" fill="#979797"/>
<path opacity="0.143438" fill-rule="evenodd" clip-rule="evenodd" d="M543.125 197.379L540.941 200.196L538.758 197.379L535.941 195.196L538.758 193.012L540.941 190.196L543.125 193.012L545.941 195.196L543.125 197.379Z" fill="#979797"/>
<path opacity="0.143438" fill-rule="evenodd" clip-rule="evenodd" d="M486.125 513.379L483.941 516.196L481.758 513.379L478.941 511.196L481.758 509.012L483.941 506.196L486.125 509.012L488.941 511.196L486.125 513.379Z" fill="#979797"/>
<path opacity="0.0904018" fill-rule="evenodd" clip-rule="evenodd" d="M119.724 15.7107L115.217 12.217L119.724 8.72332L123.217 4.21703L126.711 8.72332L131.217 12.217L126.711 15.7107L123.217 20.217L119.724 15.7107Z" fill="#979797"/>
<path opacity="0.0904018" fill-rule="evenodd" clip-rule="evenodd" d="M326.724 155.711L322.218 152.217L326.724 148.723L330.218 144.217L333.711 148.723L338.218 152.217L333.711 155.711L330.218 160.217L326.724 155.711Z" fill="#979797"/>
<path opacity="0.0904018" fill-rule="evenodd" clip-rule="evenodd" d="M269.724 471.711L265.218 468.217L269.724 464.723L273.218 460.217L276.711 464.723L281.218 468.217L276.711 471.711L273.218 476.217L269.724 471.711Z" fill="#979797"/>
<path opacity="0.0904018" fill-rule="evenodd" clip-rule="evenodd" d="M49.7236 564.711L45.2173 561.217L49.7236 557.723L53.2173 553.217L56.711 557.723L61.2173 561.217L56.711 564.711L53.2173 569.217L49.7236 564.711Z" fill="#979797"/>
<path fill-rule="evenodd" clip-rule="evenodd" d="M350.724 271.711L346.218 268.217L350.724 264.723L354.218 260.217L357.711 264.723L362.218 268.217L357.711 271.711L354.218 276.217L350.724 271.711Z" fill="#979797"/>
<path fill-rule="evenodd" clip-rule="evenodd" d="M293.724 587.711L289.218 584.217L293.724 580.723L297.218 576.217L300.711 580.723L305.218 584.217L300.711 587.711L297.218 592.217L293.724 587.711Z" fill="#979797"/>
<path fill-rule="evenodd" clip-rule="evenodd" d="M148.724 167.711L144.217 164.217L148.724 160.723L152.217 156.217L155.711 160.723L160.217 164.217L155.711 167.711L152.217 172.217L148.724 167.711Z" fill="#F700FE"/>
<path fill-rule="evenodd" clip-rule="evenodd" d="M525.724 28.7107L521.218 25.217L525.724 21.7233L529.218 17.217L532.711 21.7233L537.218 25.217L532.711 28.7107L529.218 33.217L525.724 28.7107Z" fill="#F700FE"/>
<path fill-rule="evenodd" clip-rule="evenodd" d="M468.724 344.711L464.218 341.217L468.724 337.723L472.218 333.217L475.711 337.723L480.218 341.217L475.711 344.711L472.218 349.217L468.724 344.711Z" fill="#979797"/>
</svg>
