<svg width="468" height="721" viewBox="0 0 468 721" fill="none" xmlns="http://www.w3.org/2000/svg">
<path d="M297.946 361.517C232.604 346.637 177.021 317.019 173.796 295.363C170.572 273.707 220.928 268.214 286.27 283.095C351.612 297.975 407.196 327.593 410.42 349.249C413.644 370.905 363.288 376.397 297.946 361.517Z" fill="#2FFD61"/>
<path opacity="0.3" d="M297.946 361.517C232.604 346.637 177.021 317.019 173.796 295.363C170.572 273.707 220.928 268.214 286.27 283.095C351.612 297.975 407.196 327.593 410.42 349.249C413.644 370.905 363.288 376.397 297.946 361.517Z" fill="white"/>
<path opacity="0.5" d="M397.878 365.116C393.837 366.663 389.028 367.816 383.587 368.588C385.808 366.266 388.603 364.211 393.266 363.992C394.216 363.948 395.268 363.972 395.882 363.612C396.611 363.182 396.523 362.325 396.664 361.601C397.287 358.231 402.769 357.318 405.412 354.866C408.277 352.204 407.58 347.79 405 343.514C402.42 339.238 398.155 335.022 393.826 330.904C391.567 328.759 389.243 326.587 386.392 324.68C382 321.742 376.671 319.635 372.048 316.863C368.803 314.919 365.885 312.628 362.339 311.062C356.614 308.527 350.439 308.363 344.665 305.951C339.331 303.726 335.085 299.888 329.674 297.891C323.526 295.622 317.423 296.289 311.291 293.944C306.517 292.118 302.546 288.755 297.713 287.179C292.427 285.452 287.722 286.373 282.471 285.311C276.995 284.206 271.566 281.106 266.199 278.702C292.273 283.191 320.452 290.974 346.112 301.417C404.517 325.186 427.691 353.7 397.87 365.106L397.878 365.116Z" fill="#2FFD61"/>
<path opacity="0.5" d="M180.133 294.678C179.925 296.004 179.018 297.052 178.542 298.276C177.297 301.444 179.058 305.788 183.131 309.596C184.806 311.16 186.836 312.635 188.384 314.229C189.527 315.411 190.381 316.647 190.901 317.85C170.062 301.811 166.922 286.993 186.441 279.507C197.474 275.277 214.215 273.981 233.877 275.231C228.069 276.876 222.002 278.298 214.909 278.462C208.323 278.613 200.523 277.759 196.457 280.3C193.953 281.86 193.214 284.553 190.163 285.704C187.172 286.832 182.19 286.384 180.497 288.364C179.127 289.973 180.466 292.632 180.131 294.684L180.133 294.678Z" fill="#2FFD61"/>
<path opacity="0.5" d="M287.684 309.055C290.96 309.84 292.879 308.359 295.234 307.666C297.618 306.963 300.907 307.089 304.234 308.005C305.794 308.434 307.375 309.037 308.915 309.321C312.53 309.99 315.216 308.807 318.784 309.335C322.983 309.947 327.239 312.716 331.537 313.766C334.89 314.583 337.866 314.265 341.135 314.739C346.804 315.553 353.181 318.951 356.183 322.772C356.877 323.651 357.407 324.622 357.014 325.271C356.566 325.993 355.01 326.08 353.515 325.649C352.018 325.225 350.604 324.389 349.442 323.497C348.475 322.761 347.622 321.961 346.514 321.325C342.696 319.139 338.473 320.066 334.237 319.021C331.473 318.334 328.858 316.837 326.249 315.556C323.64 314.274 320.556 313.094 318.237 313.336C317.343 313.431 316.637 313.733 315.751 313.839C313.138 314.146 309.666 312.746 306.563 311.551C303.46 310.356 299.726 309.268 297.792 310.195C296.755 310.691 296.447 311.711 295.197 312.032C292.438 312.746 287.308 309.725 284.569 310.454C282.059 311.119 283.835 314.146 282.866 315.815C282.119 317.109 279.659 317.842 280.723 319.578C281.09 320.18 281.542 321.152 280.626 320.91C280.383 320.845 280.172 320.697 279.985 320.553C278.268 319.182 278.319 317.605 278.926 316.474C279.532 315.342 280.548 314.343 280.303 312.934C280.041 311.374 279.362 309.602 280.775 308.635C282.476 307.483 284.953 308.416 287.69 309.072L287.684 309.055Z" fill="#2FFD61"/>
<path opacity="0.5" d="M365.589 331.18C367.23 331.499 368.968 333.016 370.391 332.909C370.851 332.877 371.167 332.656 371.68 332.721C372.424 332.811 373.144 333.427 373.37 333.93C373.608 334.438 373.546 334.893 373.747 335.394C374.044 336.111 374.838 336.832 375.492 337.551C376.145 338.27 376.669 339.094 376.313 339.614C375.987 340.091 374.975 340.159 373.979 339.959C372.971 339.755 371.96 339.329 370.973 338.907C368.461 337.836 364.122 336.364 362.819 334.387C361.804 332.855 363.066 330.695 365.589 331.18Z" fill="#2FFD61"/>
<path opacity="0.5" d="M370.304 343.362C370.381 343.462 370.47 343.56 370.56 343.658C371.501 344.694 371.087 345.823 372.815 346.513C373.412 346.757 374.076 346.924 374.606 346.879C375.534 346.797 375.735 346.083 375.531 345.389C375.132 344.045 373.181 342.35 371.114 342.003C369.35 341.703 369.614 342.504 370.315 343.366L370.304 343.362Z" fill="#2FFD61"/>
<path opacity="0.2" d="M300.211 300.746C296.762 299.897 293.196 299.447 290.673 300.138C288.895 300.623 287.747 301.633 285.932 302.083C282.761 302.859 278.222 301.814 274.169 301.399C268.834 300.854 263.719 301.622 262.338 304.449C261.076 307.035 263.165 310.787 262.136 313.468C261.711 314.56 260.794 315.437 260.303 316.502C258.693 320.081 262.312 325.303 267.258 329.615C269.506 331.576 272.201 333.672 272.576 335.639C273.084 338.287 268.89 339.19 264.702 338.397C260.181 337.537 255.356 335.152 252.303 332.264C248.218 328.406 247.58 324.117 249.385 321.155C250.134 319.92 251.271 318.843 251.588 317.433C252.213 314.607 249.51 310.983 248.735 307.772C248.266 305.815 248.514 304.025 248.969 302.327C249.975 298.619 252.421 295.031 258.272 294.645C262.333 294.382 267.274 295.708 271.842 296.347C276.375 296.978 280.649 296.925 284.262 296.198C287.541 295.541 290.476 294.317 294.573 294.852C298.156 295.323 301.733 297.028 305.152 298.614C307.202 299.567 309.739 300.292 311.814 300.622C315.422 301.192 318.461 302.272 321.878 304.291C322.732 304.797 323.645 305.678 323.012 305.921C322.649 306.063 322.001 305.853 321.454 305.644C319.821 305.034 318.191 304.417 316.558 303.807C313.493 302.661 311.299 303.1 308.498 302.824C305.524 302.533 303.139 301.451 300.204 300.729L300.211 300.746Z" fill="#3B2CD9"/>
<path opacity="0.2" d="M347.753 310.874C348.714 311.135 349.666 311.455 350.555 311.9C352.863 313.046 354.419 314.842 356.697 316.031C359.111 317.297 361.819 317.645 364.418 318.34C368.166 319.338 371.931 321.182 374.81 323.427C377.644 325.627 379.614 328.168 382.707 330.226C385.004 331.76 387.871 332.983 389.708 334.715C392.144 337.013 391.981 339.407 393.382 341.799C394.839 344.276 397.999 346.787 398.67 349.177C399.284 351.352 397.924 352.907 396.118 354.027C395.174 354.611 394.456 355.205 393.015 355.387C391.55 355.566 389.798 355.361 388.383 355.609C385.429 356.123 384.676 358.324 383.97 360.304C383.264 362.284 382.069 364.368 378.759 364.448C376.82 364.496 374.519 363.826 372.466 363.67C368.264 363.346 365.775 365.135 362.811 366.27C359.855 367.416 354.931 367.663 351.139 365.197C350.178 364.572 349.401 363.836 348.794 363.093C346.596 360.445 346.375 357.655 348.221 356.036C350.067 354.418 353.939 354.044 357.98 355.079C362.895 356.34 368.42 359.554 372.404 358.958C377.248 358.225 375.038 352.383 379.81 351.572C383.211 350.993 387.736 352.232 389.194 349.768C390.417 347.71 386.735 344.368 386.294 341.748C386.064 340.363 386.733 339.137 385.806 337.667C384.649 335.835 381.582 334.434 379.417 332.789C375.717 329.988 374.362 326.227 369.962 323.973C367.09 322.501 363.813 322.168 360.783 320.968C356.663 319.344 353.759 316.538 350.117 314.442C347.071 312.692 342.4 311.036 339.011 309.971C338.508 309.814 337.852 309.526 337.83 309.222C337.807 308.951 338.323 308.942 338.754 308.987C340.939 309.197 343.311 309.847 345.587 310.349C346.295 310.507 347.026 310.668 347.744 310.864L347.753 310.874Z" fill="#3B2CD9"/>
<path opacity="0.5" d="M237.384 308.26C237.078 309.772 236.141 311.028 234.884 312.283C232.823 314.353 234.142 318.048 237.464 321.142C239.26 322.817 241.576 324.346 243.218 326.054C246.346 329.317 245.602 331.758 246.485 334.76C247.726 338.953 254.3 343.242 260.691 345.957C261.702 346.39 262.992 347.06 262.912 347.661C262.826 348.279 261.38 348.041 260.315 347.682C254.097 345.608 248.16 341.991 244.366 337.968C242.316 335.791 240.841 333.519 238.961 331.301C236.873 328.826 234.758 326.32 231.92 324.028C229.49 322.068 226.514 320.229 224.92 318.1C223.976 316.834 223.611 315.564 223.538 314.4C223.418 312.369 224.089 311.171 225.538 309.849C226.99 308.522 228.073 306.858 227.346 304.705C226.716 302.831 224.821 300.882 223.579 298.966C222.141 296.764 221.56 294.566 221.907 292.685C222.083 291.739 222.494 290.847 223.401 290.26C224.964 289.24 227.722 289.201 230.013 288.78C231.674 288.466 233.123 287.936 234.277 287.21C235.599 286.38 236.529 285.307 237.852 284.477C239.174 283.647 240.991 283.061 243.324 283.358C245.656 283.655 248.516 285.069 249.36 286.657C249.752 287.395 249.671 288.064 249.487 288.67C249.058 290.07 248.091 291.272 246.659 292.153C244.641 293.388 241.793 293.988 239.376 294.929C236.959 295.87 234.897 297.285 235.026 299.491C235.118 301.035 236.275 302.772 236.928 304.421C237.526 305.917 237.642 307.168 237.415 308.279L237.384 308.26Z" fill="#2FFD61"/>
<path opacity="0.2" d="M258.761 285.706C258.581 284.885 258.794 284.108 259.586 283.717C260.644 283.202 262.577 283.461 264.28 284.113C266.341 284.897 268.458 286.26 270.357 286.279C270.981 286.286 271.501 286.134 272.142 286.162C273.764 286.233 275.712 287.54 276.142 288.669C276.573 289.797 275.73 290.648 274.411 290.947C273.09 291.253 271.371 291.101 269.66 290.83C268.913 290.711 268.162 290.57 267.441 290.516C266.918 290.481 266.407 290.479 265.883 290.444C262.023 290.141 259.24 288.089 258.737 285.703L258.761 285.706Z" fill="#3B2CD9"/>
<path opacity="0.2" d="M208.295 299.894C209.629 298.111 212.415 294.601 207.773 291.633C205.796 290.368 203.238 290.135 201.272 290.288C193.401 290.918 187.006 298.442 193.808 305.097C195.114 306.377 196.873 307.512 198.382 308.73C200.854 310.732 202.653 312.981 203.498 315.116C204.169 316.845 204.248 318.517 205.509 320.273C209.227 325.451 220.143 327.88 225.501 332.821C226.836 334.058 227.75 335.391 229.102 336.621C230.284 337.693 231.763 338.659 233.284 339.553C239.557 343.227 246.967 345.854 253.822 346.848C253.313 345.296 250.297 344.102 247.92 343.174C242.199 340.94 236.854 337.61 233.047 333.912C231.384 332.301 229.997 330.604 228.008 329.107C224.306 326.323 218.781 324.375 216.243 321.296C212.748 317.059 217.209 313.421 213.213 309.254C211.939 307.925 209.967 306.779 208.759 305.443C206.897 303.388 207.228 301.354 208.308 299.893L208.295 299.894Z" fill="#3B2CD9"/>
<path opacity="0.2" d="M207.167 284.548C206.406 283.476 207.178 282.643 208.112 282.117C208.93 281.661 209.944 281.291 211.292 281.414C212.713 281.547 214.273 282.21 215.751 282.524C217.758 282.957 219.533 282.739 221.516 283.073C222.369 283.215 223.334 283.498 224.019 284.011C225.169 284.871 224.939 285.924 224.05 286.366C223.164 286.801 221.827 286.847 220.728 287.107C219.403 287.419 218.425 288.057 217.948 288.921C217.588 289.584 217.476 290.397 216.697 290.822C215.803 291.309 214.032 291.123 212.602 290.389C210.721 289.431 210.947 288.685 210.324 287.621C209.647 286.465 207.949 285.664 207.158 284.538L207.167 284.548Z" fill="#3B2CD9"/>
<path opacity="0.5" d="M185.59 300.671C185.913 301.421 185.876 302.107 186.042 302.833C186.207 303.56 186.627 304.39 187.591 305.038C188.292 305.508 189.172 305.812 189.906 306.262C191.043 306.959 191.677 307.898 191.992 308.733C192.882 311.054 193.353 313.43 196.489 315.635C196.89 315.922 197.341 316.209 197.599 316.534C197.868 316.863 197.874 317.243 197.468 317.298C197.279 317.324 197.051 317.286 196.825 317.242C196.168 317.119 195.479 316.982 194.854 316.679C194.163 316.35 193.648 315.865 193.178 315.392C190.837 313.051 189.596 310.745 186.734 308.658C184.181 306.794 181.876 303.801 182.209 301.958C182.346 301.176 184.369 297.852 185.581 300.661L185.59 300.671Z" fill="#2FFD61"/>
<path d="M365.984 307.585C372.434 311.695 380.061 314.555 387.426 317.494C390.694 318.797 394.053 320.193 396.761 322.113C398.959 323.667 400.567 325.454 402.138 327.205C406.839 332.454 411.608 337.793 414.195 343.08C417.334 349.483 417.069 355.46 414.906 360.527C413.748 363.238 411.94 365.815 408.229 366.965C403.91 368.3 396.895 367.912 396.131 371.291C397.801 370.057 400.847 369.892 403.737 369.731C409.373 369.421 415.194 368.897 418.191 366.324C422.402 362.702 419.927 356.172 420.783 351.012C421.29 347.932 423.028 345.141 421.671 341.625C419.776 336.695 412.456 331.861 408.945 326.843C407.852 325.279 407.123 323.7 405.698 322.166C402.778 319.014 397.541 316.723 392.67 315.164C387.8 313.605 382.82 312.495 378.124 310.39C375.989 309.431 373.963 308.291 372.141 307.02C370.139 305.622 368.41 304.08 366.361 302.703C360.088 298.502 352.381 296.802 345.308 295.149C341.568 294.27 337.9 293.469 334.118 292.436C331.064 291.603 326.507 290.062 324.031 290.275C325.489 290.409 328.712 291.565 330.459 292.139C335.17 293.681 339.807 295.542 344.552 296.83C348.533 297.91 352.315 298.779 356.046 300.834C359.659 302.827 362.582 305.411 365.987 307.579L365.984 307.585Z" fill="#2FFD61"/>
<path opacity="0.5" d="M365.984 307.585C372.434 311.695 380.061 314.555 387.426 317.494C390.694 318.797 394.053 320.193 396.761 322.113C398.959 323.667 400.567 325.454 402.138 327.205C406.839 332.454 411.608 337.793 414.195 343.08C417.334 349.483 417.069 355.46 414.906 360.527C413.748 363.238 411.94 365.815 408.229 366.965C403.91 368.3 396.895 367.912 396.131 371.291C397.801 370.057 400.847 369.892 403.737 369.731C409.373 369.421 415.194 368.897 418.191 366.324C422.402 362.702 419.927 356.172 420.783 351.012C421.29 347.932 423.028 345.141 421.671 341.625C419.776 336.695 412.456 331.861 408.945 326.843C407.852 325.279 407.123 323.7 405.698 322.166C402.778 319.014 397.541 316.723 392.67 315.164C387.8 313.605 382.82 312.495 378.124 310.39C375.989 309.431 373.963 308.291 372.141 307.02C370.139 305.622 368.41 304.08 366.361 302.703C360.088 298.502 352.381 296.802 345.308 295.149C341.568 294.27 337.9 293.469 334.118 292.436C331.064 291.603 326.507 290.062 324.031 290.275C325.489 290.409 328.712 291.565 330.459 292.139C335.17 293.681 339.807 295.542 344.552 296.83C348.533 297.91 352.315 298.779 356.046 300.834C359.659 302.827 362.582 305.411 365.987 307.579L365.984 307.585Z" fill="white"/>
<path d="M171.986 302.457C173.813 304.591 175.819 306.694 177.187 308.991C179.131 312.268 180.666 315.844 184.911 318.859C187.346 320.582 190.338 321.861 193.083 323.347C196.1 324.986 198.812 326.884 201.588 328.718C209.122 333.694 217.41 338.34 226.241 341.597C232.902 344.053 239.919 345.764 246.057 349.138C248.795 350.642 251.33 352.468 254.303 353.534C257.308 354.612 259.69 354.472 262.544 355.119C265.221 355.729 267.892 356.912 270.52 357.878C273.794 359.087 277.155 360.009 280.427 360.6C277.594 360.721 273.732 359.739 270.229 358.821C267.447 358.087 264.702 357.456 262.02 357.153C259.731 356.892 257.021 356.893 254.631 356.071C252.307 355.276 249.699 353.996 247.585 352.828C239.657 348.438 232.819 346.04 224.228 344.072C218.091 342.664 211.762 339.747 206.959 336.095C204.247 334.033 201.949 331.728 198.798 329.973C195.875 328.353 192.555 327.393 189.428 326.066C182.988 323.336 177.397 318.918 174.875 314.563C173.341 311.905 172.916 309.356 171.382 306.697C169.902 304.13 167.237 301.587 165.821 299.018C164.153 295.983 164.743 293.223 166.28 291.048C167.818 288.872 170.233 287.17 172.288 285.273C171.43 287.28 169.885 288.98 168.864 290.914C167.831 292.843 167.342 295.116 168.591 297.652C169.419 299.331 170.66 300.904 171.986 302.457Z" fill="#2FFD61"/>
<path opacity="0.7" d="M171.986 302.457C173.813 304.591 175.819 306.694 177.187 308.991C179.131 312.268 180.666 315.844 184.911 318.859C187.346 320.582 190.338 321.861 193.083 323.347C196.1 324.986 198.812 326.884 201.588 328.718C209.122 333.694 217.41 338.34 226.241 341.597C232.902 344.053 239.919 345.764 246.057 349.138C248.795 350.642 251.33 352.468 254.303 353.534C257.308 354.612 259.69 354.472 262.544 355.119C265.221 355.729 267.892 356.912 270.52 357.878C273.794 359.087 277.155 360.009 280.427 360.6C277.594 360.721 273.732 359.739 270.229 358.821C267.447 358.087 264.702 357.456 262.02 357.153C259.731 356.892 257.021 356.893 254.631 356.071C252.307 355.276 249.699 353.996 247.585 352.828C239.657 348.438 232.819 346.04 224.228 344.072C218.091 342.664 211.762 339.747 206.959 336.095C204.247 334.033 201.949 331.728 198.798 329.973C195.875 328.353 192.555 327.393 189.428 326.066C182.988 323.336 177.397 318.918 174.875 314.563C173.341 311.905 172.916 309.356 171.382 306.697C169.902 304.13 167.237 301.587 165.821 299.018C164.153 295.983 164.743 293.223 166.28 291.048C167.818 288.872 170.233 287.17 172.288 285.273C171.43 287.28 169.885 288.98 168.864 290.914C167.831 292.843 167.342 295.116 168.591 297.652C169.419 299.331 170.66 300.904 171.986 302.457Z" fill="white"/>
<path d="M272.159 274.977C274.403 274.726 276.417 274.183 278.792 274.088C282.064 273.953 285.969 274.719 289.615 276.18C295.372 278.485 300.128 281.327 306.128 282.355C311.408 283.263 316.347 283.21 321.734 284.434C323.025 284.727 324.338 285.096 325.613 285.593C327.618 286.381 329.46 287.457 331.349 288.444C336.156 290.958 341.064 292.623 346.15 293.342C344.248 293.076 340.755 291.451 338.876 290.667C336.208 289.549 333.606 288.259 331.159 286.834C326.378 284.057 321.694 281.819 316.295 281.15C313.808 280.845 311.435 280.804 308.937 280.459C305.724 280.016 301.377 278.975 298.247 277.306C295.202 275.679 292.595 274.011 289.109 272.957C283.578 271.285 278.617 271.882 274.284 272.707C270.42 273.443 265.338 274.778 260.031 272.923C263.495 274.392 267.249 275.185 270.422 275.106C271.028 275.092 271.608 275.047 272.17 274.982L272.159 274.977Z" fill="#2FFD61"/>
<path opacity="0.7" d="M272.159 274.977C274.403 274.726 276.417 274.183 278.792 274.088C282.064 273.953 285.969 274.719 289.615 276.18C295.372 278.485 300.128 281.327 306.128 282.355C311.408 283.263 316.347 283.21 321.734 284.434C323.025 284.727 324.338 285.096 325.613 285.593C327.618 286.381 329.46 287.457 331.349 288.444C336.156 290.958 341.064 292.623 346.15 293.342C344.248 293.076 340.755 291.451 338.876 290.667C336.208 289.549 333.606 288.259 331.159 286.834C326.378 284.057 321.694 281.819 316.295 281.15C313.808 280.845 311.435 280.804 308.937 280.459C305.724 280.016 301.377 278.975 298.247 277.306C295.202 275.679 292.595 274.011 289.109 272.957C283.578 271.285 278.617 271.882 274.284 272.707C270.42 273.443 265.338 274.778 260.031 272.923C263.495 274.392 267.249 275.185 270.422 275.106C271.028 275.092 271.608 275.047 272.17 274.982L272.159 274.977Z" fill="white"/>
<path d="M274.19 364.93C273.563 364.737 272.942 364.56 272.314 364.4C268.737 363.48 265.293 363.203 261.804 362.681C258.063 362.118 253.744 361.068 250.178 359.105C246.475 357.067 243.432 354.222 239.833 352.048C240.92 352.701 242.741 353.209 243.95 353.81C245.257 354.457 246.457 355.212 247.76 355.837C250.536 357.171 253.616 358.71 256.602 359.54C260.958 360.756 264.958 360.459 269.272 361.357C272.298 361.985 275.349 363.171 278.395 364.142C280.769 364.901 283.261 365.558 285.507 365.663C287.777 365.772 289.887 365.603 292.286 365.908C294.684 366.212 297.211 367.17 299.688 367.93C304.939 369.538 310.25 370.301 314.855 370.092C311.194 370.568 307.404 371.046 303.035 370.324C300.046 369.828 296.864 368.781 294.013 368.621C291.852 368.495 290.304 369.057 288.167 368.9C286.071 368.739 283.785 368.146 281.592 367.446C279.127 366.656 276.664 365.696 274.199 364.941L274.19 364.93Z" fill="#2FFD61"/>
<path opacity="0.5" d="M274.19 364.93C273.563 364.737 272.942 364.56 272.314 364.4C268.737 363.48 265.293 363.203 261.804 362.681C258.063 362.118 253.744 361.068 250.178 359.105C246.475 357.067 243.432 354.222 239.833 352.048C240.92 352.701 242.741 353.209 243.95 353.81C245.257 354.457 246.457 355.212 247.76 355.837C250.536 357.171 253.616 358.71 256.602 359.54C260.958 360.756 264.958 360.459 269.272 361.357C272.298 361.985 275.349 363.171 278.395 364.142C280.769 364.901 283.261 365.558 285.507 365.663C287.777 365.772 289.887 365.603 292.286 365.908C294.684 366.212 297.211 367.17 299.688 367.93C304.939 369.538 310.25 370.301 314.855 370.092C311.194 370.568 307.404 371.046 303.035 370.324C300.046 369.828 296.864 368.781 294.013 368.621C291.852 368.495 290.304 369.057 288.167 368.9C286.071 368.739 283.785 368.146 281.592 367.446C279.127 366.656 276.664 365.696 274.199 364.941L274.19 364.93Z" fill="white"/>
<path d="M34.737 538.043C33.5415 516.483 81.8624 475.657 142.665 446.855C203.467 418.053 253.726 412.183 254.922 433.743C256.118 455.303 207.797 496.129 146.994 524.93C86.1918 553.732 35.9325 559.602 34.737 538.043Z" fill="#2FFD61"/>
<path opacity="0.3" d="M34.737 538.043C33.5415 516.483 81.8624 475.657 142.665 446.855C203.467 418.053 253.726 412.183 254.922 433.743C256.118 455.303 207.797 496.129 146.994 524.93C86.1918 553.732 35.9325 559.602 34.737 538.043Z" fill="white"/>
<path opacity="0.5" d="M50.5034 550.51C54.7464 551.102 59.6571 551.144 65.1067 550.682C62.4809 548.943 59.3505 547.589 54.7686 548.41C53.8343 548.578 52.8153 548.834 52.1465 548.624C51.3506 548.373 51.2648 547.53 50.983 546.866C49.7044 543.767 44.1859 544.104 41.124 542.334C37.8033 540.411 37.6005 536.017 39.2572 531.34C39.9387 529.406 40.8816 527.586 42.6885 525.58C44.287 523.799 46.2489 522.069 47.4704 520.216C48.3622 518.859 48.7696 517.55 49.4158 516.212C50.7784 513.383 53.3311 510.383 56.4247 507.854C59.6788 505.2 63.1766 503.303 66.5808 500.854C69.6079 498.679 72.3356 496.138 74.4732 493.506C76.1852 491.399 77.5758 489.174 79.8031 487.24C82.4686 484.929 85.7856 483.495 88.8926 481.851C92.4144 479.99 95.8553 477.727 98.999 475.208C100.656 473.883 102.235 472.484 103.998 471.297C105.531 470.26 107.079 469.506 108.663 468.719C109.815 468.146 110.824 467.507 111.982 467.05C114.85 465.932 117.741 464.849 120.545 463.008C124.827 460.197 128.02 456.089 132.409 453.505C137.209 450.677 141.973 450.52 146.872 448.338C151.981 446.064 156.646 441.886 161.39 438.39C136.908 448.471 111.036 462.182 88.1462 477.891C36.047 513.645 19.1865 546.159 50.4902 550.512L50.5034 550.51Z" fill="#2FFD61"/>
<path opacity="0.5" d="M248.284 434.38C248.75 435.604 249.841 436.407 250.547 437.474C252.387 440.233 251.541 444.784 248.34 449.332C247.024 451.2 245.344 453.061 244.157 454.931C243.281 456.316 242.698 457.688 242.432 458.955C259.497 438.991 259.602 424.109 239.125 421.255C227.559 419.644 211.029 422.103 192.166 427.649C198.139 427.94 204.32 427.96 211.246 426.549C217.678 425.237 225.089 422.695 229.547 424.23C232.292 425.17 233.547 427.586 236.742 428.014C239.873 428.433 244.626 426.902 246.666 428.424C248.318 429.663 247.546 432.506 248.281 434.397L248.284 434.38Z" fill="#2FFD61"/>
<path opacity="0.5" d="M144.234 502.744C147.265 501.265 149.428 502.262 151.858 502.406C154.318 502.553 157.494 501.704 160.549 500.088C161.981 499.331 163.4 498.402 164.842 497.789C168.226 496.346 171.076 496.887 174.443 495.591C178.407 494.073 181.997 490.474 185.97 488.514C189.07 486.988 192.029 486.634 195.115 485.455C200.47 483.419 205.998 478.746 208.157 474.414C208.656 473.417 208.979 472.368 208.467 471.832C207.887 471.238 206.356 471.499 204.987 472.243C203.618 472.987 202.405 474.098 201.452 475.211C200.658 476.132 199.988 477.088 199.036 477.944C195.757 480.886 191.462 480.932 187.549 482.873C184.996 484.144 182.75 486.159 180.466 487.967C178.183 489.775 175.418 491.59 173.112 491.872C172.223 491.978 171.476 491.844 170.593 491.939C167.988 492.223 164.889 494.335 162.108 496.169C159.326 498.003 155.91 499.873 153.843 499.412C152.735 499.165 152.232 498.254 150.951 498.223C148.123 498.149 143.734 502.184 140.923 502.091C138.348 502.008 139.472 498.71 138.196 497.323C137.211 496.246 134.671 496.087 135.36 494.185C135.597 493.526 135.843 492.493 135 492.928C134.776 493.044 134.6 493.233 134.448 493.413C133.05 495.109 133.414 496.611 134.23 497.563C135.046 498.514 136.234 499.248 136.281 500.66C136.337 502.216 136.029 504.066 137.597 504.682C139.483 505.41 141.707 503.967 144.24 502.732L144.234 502.744Z" fill="#2FFD61"/>
<path opacity="0.5" d="M215.62 464.151C217.154 463.482 218.542 461.642 219.948 461.429C220.402 461.358 220.754 461.5 221.24 461.325C221.946 461.073 222.524 460.323 222.644 459.79C222.773 459.25 222.622 458.827 222.719 458.302C222.864 457.548 223.493 456.68 223.986 455.845C224.469 455.017 224.824 454.104 224.374 453.684C223.961 453.298 222.963 453.456 222.033 453.869C221.093 454.288 220.194 454.921 219.318 455.545C217.087 457.129 213.158 459.502 212.285 461.688C211.602 463.382 213.262 465.176 215.62 464.151Z" fill="#2FFD61"/>
<path opacity="0.5" d="M217.804 451.423C217.859 451.311 217.926 451.197 217.994 451.083C218.703 449.881 218.076 448.89 219.619 447.845C220.151 447.48 220.764 447.172 221.288 447.098C222.207 446.971 222.546 447.612 222.486 448.323C222.366 449.699 220.804 451.757 218.863 452.547C217.206 453.226 217.304 452.399 217.814 451.417L217.804 451.423Z" fill="#2FFD61"/>
<path opacity="0.2" d="M158.094 508.004C154.909 509.581 151.531 510.801 148.94 510.698C147.115 510.626 145.797 509.912 143.943 509.882C140.704 509.84 136.499 511.846 132.64 513.14C129.859 514.071 127.729 514.231 125.272 514.48C122.817 514.735 120.375 515.117 118.383 514.64C116.698 514.238 115.51 513.18 115.757 511.452C116.003 509.68 117.689 507.506 118.189 505.642C118.779 503.415 117.614 501.957 116.707 500.457C115.8 498.956 115.184 497.03 116.723 494.634C117.554 493.334 119.127 491.9 119.499 490.643C119.781 489.682 119.606 488.703 119.748 487.77C120.066 485.782 119.939 483.988 121.287 481.737C122.636 479.486 124.701 477.496 127.265 475.653C128.634 474.668 134.945 471.232 135.009 470.051C135.026 469.708 134.635 469.593 134.184 469.669C133.732 469.746 133.224 469.974 132.739 470.194C130.648 471.148 128.566 472.096 126.474 473.05C120.849 475.617 114.467 479.012 111.869 484.16C110.439 487.002 111.496 489.249 109.74 492.118C108.44 494.246 105.875 496.24 104.301 498.366C102.883 500.273 102.357 502.163 102.443 503.722C102.516 505.283 103.155 506.553 103.854 507.76C104.545 508.956 105.317 510.166 104.977 511.882C104.731 513.135 103.896 514.559 103.402 515.891C101.729 520.359 104.155 523.527 108.661 523.881C111.56 524.104 115.199 523.668 118.544 523.134C122.545 522.487 127.086 520.123 131.401 518.5C135.683 516.893 139.849 515.998 143.508 515.895C146.827 515.799 149.925 516.322 153.802 514.903C157.192 513.659 160.331 511.233 163.339 508.957C165.144 507.591 167.466 506.335 169.418 505.56C172.814 504.215 175.553 502.507 178.474 499.817C179.203 499.143 179.916 498.097 179.252 498.003C178.871 497.948 178.282 498.292 177.792 498.614C176.326 499.56 174.863 500.512 173.397 501.458C170.645 503.234 168.424 503.299 165.755 504.183C162.921 505.119 160.817 506.684 158.107 508.025L158.094 508.004Z" fill="#3B2CD9"/>
<path opacity="0.2" d="M202.337 487.578C203.22 487.115 204.082 486.599 204.859 485.975C206.875 484.365 208.031 482.299 210.01 480.654C212.107 478.906 214.672 477.973 217.061 476.732C220.509 474.945 223.804 472.343 226.158 469.553C228.476 466.818 229.886 463.945 232.485 461.287C234.414 459.308 236.959 457.5 238.401 455.434C240.313 452.691 239.678 450.431 240.564 447.828C241.488 445.131 244.061 442.024 244.238 439.583C244.402 437.362 242.769 436.172 240.789 435.499C239.754 435.148 238.938 434.737 237.5 434.881C236.038 435.034 234.375 435.618 232.949 435.694C229.973 435.855 228.801 433.911 227.72 432.169C225.118 427.977 218.812 429.257 211.061 432.448C208.525 433.489 205.18 434.889 203.132 434.632C201.126 434.375 199.285 433.824 197.214 433.575C195.389 433.352 193.736 432.89 191.688 432.979C187.638 433.162 182.406 435.61 178.09 438.836C175.711 440.612 173.457 442.687 170.865 443.969C169.721 444.536 168.557 444.921 167.417 445.516C164.606 446.987 163.457 449.627 166.517 448.965C169.076 448.413 171.816 447.397 174.512 446.013C180.801 442.78 187.282 439.685 192.517 440.232C195.275 440.522 197.229 441.741 199.876 442.167C202.039 442.511 205.389 442.222 208.378 440.328C211.249 438.515 213.672 436.242 216.726 436.005C221.585 435.635 220.599 441.726 225.403 441.447C228.827 441.249 232.982 439.059 234.891 441.099C236.491 442.801 233.575 446.821 233.668 449.43C233.721 450.809 234.615 451.836 234.007 453.451C233.246 455.464 230.542 457.486 228.764 459.543C225.722 463.046 225.153 466.953 221.322 470.087C218.821 472.135 215.699 473.18 212.992 475.001C209.307 477.47 207.041 480.803 203.916 483.618C201.301 485.971 197.084 488.587 194.002 490.364C193.545 490.625 192.963 491.047 193.002 491.344C193.034 491.608 193.538 491.503 193.948 491.365C196.032 490.68 198.21 489.531 200.325 488.546C200.981 488.238 201.661 487.922 202.32 487.575L202.337 487.578Z" fill="#3B2CD9"/>
<path opacity="0.2" d="M155.069 452.998C153.646 454.351 151.701 455.197 149.955 455.801C148.205 456.401 146.423 456.887 144.688 457.92C143.784 458.458 142.926 459.129 142.001 459.613C141.076 460.097 140.001 460.354 139.648 459.928C139.379 459.609 139.597 459.009 139.899 458.449C140.858 456.655 142.7 454.768 144.828 453.398C147.386 451.748 150.168 450.914 152.777 449.364C155.459 447.772 161.331 442.48 162.577 445.097C163.02 446.025 162.225 446.728 160.835 447.72C159.697 448.53 158.566 449.156 157.564 450.129C156.618 451.057 156.046 452.073 155.083 452.997L155.069 452.998Z" fill="#3B2CD9"/>
<path opacity="0.5" d="M95.5002 514.816C94.9017 513.435 93.7414 512.44 92.2697 511.516C89.8547 509.99 90.4012 506.159 93.0134 502.461C94.4264 500.46 96.3724 498.484 97.6291 496.484C99.2831 493.851 98.254 492.404 99.3913 490.073C100.621 487.535 103.326 484.669 106.224 482.574C107.941 481.335 109.828 480.266 111.352 478.865C112.824 477.516 113.807 475.991 115.178 474.598C116.804 472.939 118.825 471.748 120.835 470.518C121.723 469.976 124.22 468.767 123.714 468.241C123.367 467.869 120.485 469.08 119.795 469.38C117.587 470.332 115.422 471.803 113.464 473.35C110.779 475.465 108.31 477.799 105.496 479.762C102.316 481.975 99.0649 483.732 96.253 486.371C94.0949 488.394 93.5888 490.315 92.4602 492.4C90.9231 495.231 89.3667 498.099 87.0641 500.922C85.0931 503.337 82.5665 505.756 81.4404 508.148C80.7751 509.568 80.6732 510.865 80.8344 511.997C81.1213 513.968 82.0121 514.967 83.6839 515.912C85.3591 516.862 86.7425 518.216 86.4651 520.439C86.2255 522.373 84.7713 524.658 83.946 526.768C82.9869 529.196 82.8595 531.429 83.571 533.153C83.9302 534.021 84.507 534.784 85.5055 535.145C87.228 535.777 89.916 535.204 92.2269 535.1C93.9029 535.034 95.4172 535.221 96.6835 535.662C98.134 536.164 99.251 536.986 100.701 537.488C102.152 537.99 104.035 538.15 106.243 537.35C108.451 536.549 110.949 534.563 111.452 532.855C111.687 532.062 111.476 531.439 111.176 530.899C110.48 529.653 109.301 528.716 107.724 528.196C105.517 527.46 102.629 527.515 100.093 527.148C97.557 526.781 95.2704 525.882 94.957 523.741C94.7389 522.242 95.5179 520.322 95.8247 518.598C96.1079 517.034 95.9716 515.81 95.5298 514.796L95.5002 514.816Z" fill="#2FFD61"/>
<path opacity="0.2" d="M120.701 531.63C120.69 532.458 121.053 533.157 121.901 533.356C123.033 533.617 124.862 532.941 126.39 531.937C128.239 530.728 130.027 528.952 131.871 528.513C132.477 528.368 133.013 528.399 133.632 528.23C135.196 527.803 136.83 526.117 137.024 524.939C137.218 523.761 136.228 523.131 134.885 523.136C133.538 523.135 131.896 523.661 130.285 524.3C129.582 524.58 128.88 524.881 128.189 525.092C127.686 525.242 127.189 525.357 126.687 525.507C122.991 526.652 120.692 529.237 120.678 531.639L120.701 531.63Z" fill="#3B2CD9"/>
<path opacity="0.2" d="M68.9095 529.33C70.5624 530.745 73.9732 533.496 70.0494 537.37C68.378 539.022 65.9354 539.811 63.9921 540.099C56.2087 541.237 48.4869 535.436 53.778 527.547C54.7935 526.03 56.2786 524.552 57.5038 523.049C59.509 520.582 60.8107 518.026 61.2074 515.791C61.5191 513.99 61.2589 512.363 62.1362 510.4C63.9196 506.408 69.2776 502.58 73.5664 499.538C76.08 497.753 78.6659 495.752 80.1838 493.545C81.0382 492.304 81.5099 491.047 82.5942 489.829C83.6884 488.604 85.2521 487.591 86.7448 486.687C89.8059 484.842 92.9628 483.141 95.8322 481.006C97.6063 479.683 99.2412 478.215 100.998 476.866C102.204 475.94 103.814 474.737 105.178 474.2C106.531 473.67 106.679 474.305 105.387 475.23C103.736 476.415 101.805 477.847 100.367 479.202C98.5636 480.891 97.0317 482.71 95.0264 484.289C93.2571 485.684 90.5784 487.004 89.1558 488.62C88.0586 489.862 87.1578 491.465 86.3672 492.738C84.5662 495.621 82.8999 498.773 79.6245 501.42C78.4388 502.376 77.111 503.205 75.9321 504.172C72.5822 506.923 71.3968 510 71.9964 512.161C72.5502 514.188 73.6939 516.283 71.8248 519.259C70.85 520.815 69.1598 522.352 68.2513 523.9C66.8498 526.284 67.5771 528.161 68.9193 529.323L68.9095 529.33Z" fill="#3B2CD9"/>
<path opacity="0.2" d="M70.7774 544.292C70.2512 545.489 71.1679 546.116 72.1816 546.414C73.0681 546.671 74.1285 546.801 75.4148 546.384C76.7704 545.943 78.1558 544.962 79.5312 544.333C81.3979 543.473 83.1677 543.29 85.0297 542.531C85.832 542.206 86.7144 541.72 87.2778 541.078C88.2254 539.998 87.7914 539.039 86.839 538.813C85.89 538.591 84.5806 538.843 83.4593 538.837C82.1085 538.832 81.0298 538.436 80.394 537.713C79.911 537.157 79.6406 536.402 78.7978 536.168C77.8312 535.898 76.1453 536.468 74.9004 537.489C73.2622 538.824 73.6308 539.489 73.2369 540.647C72.8082 541.905 71.3162 543.049 70.771 544.304L70.7774 544.292Z" fill="#3B2CD9"/>
<path opacity="0.5" d="M46.6521 533.688C46.8168 532.898 46.6448 532.248 46.6609 531.515C46.6849 529.971 47.4699 528.214 49.2488 526.421C50.2379 525.426 51.4282 524.518 52.3338 523.505C53.1742 522.567 53.7372 521.556 53.907 520.687C54.1437 519.486 53.6473 518.563 54.0592 517.302C54.5336 515.833 56.1395 514.211 57.7291 512.782C57.945 512.588 58.1609 512.395 58.2932 512.184C58.429 511.978 58.4415 511.758 58.2578 511.719C58.1409 511.694 57.9525 511.756 57.7906 511.814C54.474 513.037 52.5892 515.211 51.5646 517.668C51.5359 517.733 51.5171 517.791 51.4849 517.851C50.8833 519.279 49.9982 520.669 49.1276 522.125C48.3504 523.418 46.9865 524.821 45.9798 526.114C44.0118 528.639 42.3697 531.331 43.1331 533.177C43.4228 533.896 46.0526 536.635 46.6718 533.675L46.6521 533.688Z" fill="#2FFD61"/>
<path d="M70.0717 488.294C64.6159 493.664 57.7655 498.095 51.1848 502.545C48.2656 504.519 45.2752 506.601 43.0232 509.042C41.1949 511.019 39.9868 513.09 38.8079 515.117C35.2811 521.194 31.7063 527.371 30.2433 533.016C28.4669 539.855 29.9178 545.531 33.0337 549.913C34.701 552.259 36.9751 554.331 40.815 554.614C45.2843 554.938 52.0324 553.014 53.4507 556.088C51.5796 555.273 48.5828 555.788 45.7385 556.274C40.1925 557.222 34.4239 558.008 30.9942 556.203C26.1737 553.659 27.2787 546.846 25.4161 542.084C24.3081 539.242 22.0598 536.949 22.6787 533.274C23.5392 528.126 29.6966 521.868 32.1118 516.276C32.8638 514.534 33.2578 512.857 34.3381 511.07C36.5502 507.4 41.1894 504.043 45.6172 501.47C50.045 498.897 54.67 496.73 58.8193 493.671C60.7053 492.279 62.4487 490.736 63.9679 489.114C65.6369 487.329 67.0118 485.468 68.731 483.694C73.9963 478.274 81.1567 474.939 87.7087 471.788C91.1725 470.117 94.5815 468.537 98.0556 466.709C100.861 465.234 104.988 462.748 107.439 462.404C106.048 462.855 103.142 464.677 101.557 465.614C97.281 468.136 93.1404 470.948 88.7804 473.233C85.1217 475.151 81.6147 476.821 78.395 479.617C75.2768 482.33 72.9481 485.455 70.0683 488.289L70.0717 488.294Z" fill="#2FFD61"/>
<path opacity="0.5" d="M70.0717 488.294C64.6159 493.664 57.7655 498.095 51.1848 502.545C48.2656 504.519 45.2752 506.601 43.0232 509.042C41.1949 511.019 39.9868 513.09 38.8079 515.117C35.2811 521.194 31.7063 527.371 30.2433 533.016C28.4669 539.855 29.9178 545.531 33.0337 549.913C34.701 552.259 36.9751 554.331 40.815 554.614C45.2843 554.938 52.0324 553.014 53.4507 556.088C51.5796 555.273 48.5828 555.788 45.7385 556.274C40.1925 557.222 34.4239 558.008 30.9942 556.203C26.1737 553.659 27.2787 546.846 25.4161 542.084C24.3081 539.242 22.0598 536.949 22.6787 533.274C23.5392 528.126 29.6966 521.868 32.1118 516.276C32.8638 514.534 33.2578 512.857 34.3381 511.07C36.5502 507.4 41.1894 504.043 45.6172 501.47C50.045 498.897 54.67 496.73 58.8193 493.671C60.7053 492.279 62.4487 490.736 63.9679 489.114C65.6369 487.329 67.0118 485.468 68.731 483.694C73.9963 478.274 81.1567 474.939 87.7087 471.788C91.1725 470.117 94.5815 468.537 98.0556 466.709C100.861 465.234 104.988 462.748 107.439 462.404C106.048 462.855 103.142 464.677 101.557 465.614C97.281 468.136 93.1404 470.948 88.7804 473.233C85.1217 475.151 81.6147 476.821 78.395 479.617C75.2768 482.33 72.9481 485.455 70.0683 488.289L70.0717 488.294Z" fill="white"/>
<path d="M257.707 440.035C256.354 442.49 254.822 444.954 253.949 447.462C252.71 451.041 251.931 454.815 248.4 458.651C246.374 460.846 243.718 462.736 241.343 464.772C238.733 467.014 236.472 469.437 234.137 471.814C227.797 478.261 220.657 484.559 212.713 489.643C206.719 493.478 200.231 496.675 194.93 501.274C192.566 503.325 190.463 505.641 187.782 507.322C185.072 509.024 182.726 509.416 180.077 510.67C177.594 511.849 175.23 513.576 172.865 515.086C169.919 516.972 166.832 518.602 163.765 519.895C166.548 519.384 170.11 517.585 173.336 515.928C175.897 514.606 178.444 513.392 180.993 512.507C183.169 511.751 185.807 511.151 187.969 509.832C190.072 508.554 192.355 506.747 194.18 505.157C201.02 499.185 207.197 495.367 215.166 491.575C220.858 488.863 226.436 484.66 230.382 480.088C232.61 477.507 234.386 474.785 237.103 472.402C239.624 470.198 242.664 468.54 245.442 466.574C251.166 462.526 255.726 457.044 257.311 452.303C258.273 449.41 258.179 446.867 259.141 443.974C260.069 441.181 262.155 438.148 263.02 435.367C264.041 432.066 262.916 429.545 260.985 427.796C259.054 426.047 256.364 424.947 253.985 423.581C255.221 425.318 257.064 426.609 258.444 428.24C259.834 429.864 260.764 431.939 260.055 434.651C259.583 436.447 258.69 438.233 257.71 440.018L257.707 440.035Z" fill="#2FFD61"/>
<path opacity="0.7" d="M257.707 440.035C256.354 442.49 254.822 444.954 253.949 447.462C252.71 451.041 251.931 454.815 248.4 458.651C246.374 460.846 243.718 462.736 241.343 464.772C238.733 467.014 236.472 469.437 234.137 471.814C227.797 478.261 220.657 484.559 212.713 489.643C206.719 493.478 200.231 496.675 194.93 501.274C192.566 503.325 190.463 505.641 187.782 507.322C185.072 509.024 182.726 509.416 180.077 510.67C177.594 511.849 175.23 513.576 172.865 515.086C169.919 516.972 166.832 518.602 163.765 519.895C166.548 519.384 170.11 517.585 173.336 515.928C175.897 514.606 178.444 513.392 180.993 512.507C183.169 511.751 185.807 511.151 187.969 509.832C190.072 508.554 192.355 506.747 194.18 505.157C201.02 499.185 207.197 495.367 215.166 491.575C220.858 488.863 226.436 484.66 230.382 480.088C232.61 477.507 234.386 474.785 237.103 472.402C239.624 470.198 242.664 468.54 245.442 466.574C251.166 462.526 255.726 457.044 257.311 452.303C258.273 449.41 258.179 446.867 259.141 443.974C260.069 441.181 262.155 438.148 263.02 435.367C264.041 432.066 262.916 429.545 260.985 427.796C259.054 426.047 256.364 424.947 253.985 423.581C255.221 425.318 257.064 426.609 258.444 428.24C259.834 429.864 260.764 431.939 260.055 434.651C259.583 436.447 258.69 438.233 257.71 440.018L257.707 440.035Z" fill="white"/>
<path d="M154.971 436.102C152.736 436.358 150.668 436.282 148.337 436.717C145.125 437.313 141.477 438.915 138.219 441.127C133.075 444.619 129.013 448.404 123.379 450.723C118.42 452.765 113.602 453.809 108.602 456.18C107.404 456.747 106.2 457.393 105.058 458.153C103.263 459.355 101.685 460.798 100.043 462.165C95.8661 465.647 91.4213 468.335 86.6144 470.153C88.4125 469.476 91.4883 467.14 93.1608 465.97C95.5349 464.304 97.8098 462.488 99.9068 460.576C104.006 456.847 108.119 453.657 113.241 451.818C115.601 450.973 117.903 450.407 120.266 449.523C123.304 448.385 127.328 446.421 130.042 444.123C132.681 441.884 134.886 439.703 138.069 437.917C143.119 435.084 148.066 434.559 152.449 434.391C156.358 434.242 161.571 434.399 166.366 431.44C163.287 433.62 159.792 435.214 156.687 435.841C156.095 435.962 155.521 436.048 154.961 436.109L154.971 436.102Z" fill="#2FFD61"/>
<path opacity="0.7" d="M154.971 436.102C152.736 436.358 150.668 436.282 148.337 436.717C145.125 437.313 141.477 438.915 138.219 441.127C133.075 444.619 129.013 448.404 123.379 450.723C118.42 452.765 113.602 453.809 108.602 456.18C107.404 456.747 106.2 457.393 105.058 458.153C103.263 459.355 101.685 460.798 100.043 462.165C95.8661 465.647 91.4213 468.335 86.6144 470.153C88.4125 469.476 91.4883 467.14 93.1608 465.97C95.5349 464.304 97.8098 462.488 99.9068 460.576C104.006 456.847 108.119 453.657 113.241 451.818C115.601 450.973 117.903 450.407 120.266 449.523C123.304 448.385 127.328 446.421 130.042 444.123C132.681 441.884 134.886 439.703 138.069 437.917C143.119 435.084 148.066 434.559 152.449 434.391C156.358 434.242 161.571 434.399 166.366 431.44C163.287 433.62 159.792 435.214 156.687 435.841C156.095 435.962 155.521 436.048 154.961 436.109L154.971 436.102Z" fill="white"/>
<path d="M170.653 522.724C171.225 522.399 171.794 522.091 172.373 521.799C175.671 520.122 178.968 519.093 182.26 517.818C185.79 516.448 189.784 514.482 192.863 511.805C196.06 509.026 198.455 505.617 201.524 502.73C200.596 503.599 198.925 504.49 197.868 505.336C196.725 506.248 195.707 507.239 194.565 508.128C192.128 510.026 189.438 512.187 186.697 513.647C182.7 515.781 178.747 516.381 174.727 518.2C171.907 519.474 169.173 521.29 166.402 522.898C164.243 524.154 161.949 525.337 159.784 525.936C157.595 526.544 155.508 526.849 153.234 527.673C150.96 528.497 148.691 529.978 146.433 531.257C141.642 533.965 136.624 535.876 132.1 536.695C135.759 536.341 139.544 535.961 143.653 534.299C146.462 533.16 149.351 531.449 152.094 530.664C154.173 530.064 155.792 530.261 157.84 529.636C159.849 529.017 161.955 527.94 163.95 526.782C166.192 525.476 168.397 524.008 170.646 522.736L170.653 522.724Z" fill="#2FFD61"/>
<path opacity="0.5" d="M170.653 522.724C171.225 522.399 171.794 522.091 172.373 521.799C175.671 520.122 178.968 519.093 182.26 517.818C185.79 516.448 189.784 514.482 192.863 511.805C196.06 509.026 198.455 505.617 201.524 502.73C200.596 503.599 198.925 504.49 197.868 505.336C196.725 506.248 195.707 507.239 194.565 508.128C192.128 510.026 189.438 512.187 186.697 513.647C182.7 515.781 178.747 516.381 174.727 518.2C171.907 519.474 169.173 521.29 166.402 522.898C164.243 524.154 161.949 525.337 159.784 525.936C157.595 526.544 155.508 526.849 153.234 527.673C150.96 528.497 148.691 529.978 146.433 531.257C141.642 533.965 136.624 535.876 132.1 536.695C135.759 536.341 139.544 535.961 143.653 534.299C146.462 533.16 149.351 531.449 152.094 530.664C154.173 530.064 155.792 530.261 157.84 529.636C159.849 529.017 161.955 527.94 163.95 526.782C166.192 525.476 168.397 524.008 170.646 522.736L170.653 522.724Z" fill="white"/>
<g clip-path="url(#clip0_167_2668)">
<path d="M448.918 108.423L272.453 58.5791L166.303 434.387L342.768 484.231L448.918 108.423Z" fill="url(#paint0_linear_167_2668)"/>
<path d="M329.191 510.423L164.165 463.81C159.81 462.58 157.19 458.214 158.361 454.069L256.197 107.698C257.368 103.553 261.832 101.187 266.24 102.432L431.266 149.045C435.621 150.276 438.241 154.642 437.07 158.787L339.234 505.158C338.063 509.303 333.599 511.668 329.191 510.423Z" fill="#E6332A"/>
<path d="M329.191 510.423L164.165 463.81C159.81 462.58 157.19 458.214 158.361 454.069L256.197 107.698C257.368 103.553 261.832 101.187 266.24 102.432L431.266 149.045C435.621 150.276 438.241 154.642 437.07 158.787L339.234 505.158C338.063 509.303 333.599 511.668 329.191 510.423Z" fill="url(#paint1_linear_167_2668)"/>
<path d="M409.679 153.074L282.906 117.266C279.545 116.316 276.051 118.271 275.102 121.632L181.141 454.285C180.192 457.645 182.147 461.139 185.507 462.089L312.28 497.897C315.641 498.846 319.135 496.891 320.084 493.531L414.045 160.878C414.994 157.517 413.04 154.023 409.679 153.074Z" fill="white" fill-opacity="0.1"/>
<path d="M377 25.8391C335.022 13.9821 294.102 22.6511 273.708 45.1067L273.865 45.1512L269.804 59.5286C269.315 61.2602 270.294 63.0098 272.026 63.4989L446.654 112.824C448.386 113.313 450.135 112.335 450.625 110.603L454.686 96.2255L454.843 96.27C449.248 66.5303 418.873 37.6665 376.895 25.8095L377 25.8391Z" fill="#E6332A"/>
<path d="M377 25.8391C335.022 13.9821 294.102 22.6511 273.708 45.1067L273.865 45.1512L269.804 59.5286C269.315 61.2602 270.294 63.0098 272.026 63.4989L446.654 112.824C448.386 113.313 450.135 112.335 450.625 110.603L454.686 96.2255L454.843 96.27C449.248 66.5303 418.873 37.6665 376.895 25.8095L377 25.8391Z" fill="url(#paint2_linear_167_2668)"/>
<path d="M299.853 55.2102C295.035 53.8492 293.808 47.8568 298.199 45.4524C317.138 35.0845 345.363 32.9364 372.807 40.6883C400.252 48.4402 423.182 65.0375 433.897 83.7815C436.382 88.1283 432.201 92.5931 427.383 91.2321L299.853 55.2102Z" fill="white" fill-opacity="0.1"/>
<path d="M418.133 111.904L296.921 77.667L290.652 99.8628L411.863 134.1L418.133 111.904Z" fill="#F6F6F6" fill-opacity="0.1"/>
<path d="M298.97 145.048L285.953 141.372C282.592 140.422 279.098 142.377 278.149 145.738L263.179 198.739C262.229 202.099 264.184 205.593 267.545 206.543L280.561 210.219C283.922 211.168 287.416 209.214 288.365 205.853L303.336 152.852C304.285 149.491 302.33 145.998 298.97 145.048Z" fill="#0B1629"/>
<path d="M330.242 153.881L317.225 150.204C313.865 149.255 310.371 151.21 309.421 154.57L294.451 207.571C293.502 210.932 295.456 214.426 298.817 215.375L311.834 219.052C315.194 220.001 318.688 218.046 319.638 214.685L334.608 161.685C335.557 158.324 333.603 154.83 330.242 153.881Z" fill="#0B1629"/>
<path d="M361.514 162.713L348.498 159.036C345.137 158.087 341.643 160.042 340.694 163.402L325.723 216.403C324.774 219.764 326.729 223.258 330.09 224.207L343.106 227.884C346.467 228.833 349.961 226.878 350.91 223.517L365.881 170.517C366.83 167.156 364.875 163.662 361.514 162.713Z" fill="#0B1629"/>
<path d="M392.786 171.546L379.769 167.869C376.409 166.92 372.915 168.875 371.966 172.235L356.995 225.236C356.046 228.597 358.001 232.091 361.361 233.04L374.378 236.717C377.739 237.666 381.232 235.711 382.182 232.35L397.152 179.35C398.102 175.989 396.147 172.495 392.786 171.546Z" fill="#0B1629"/>
<path d="M278.843 216.307L265.827 212.63C262.466 211.681 258.972 213.636 258.023 216.996L243.052 269.997C242.103 273.357 244.058 276.851 247.419 277.801L260.435 281.477C263.796 282.427 267.29 280.472 268.239 277.111L283.21 224.11C284.159 220.75 282.204 217.256 278.843 216.307Z" fill="#0B1629"/>
<path d="M310.116 225.138L297.099 221.461C293.738 220.512 290.244 222.467 289.295 225.828L274.325 278.828C273.375 282.189 275.33 285.683 278.691 286.632L291.708 290.309C295.068 291.258 298.562 289.303 299.511 285.943L314.482 232.942C315.431 229.581 313.476 226.087 310.116 225.138Z" fill="#0B1629"/>
<path d="M341.388 233.972L328.371 230.295C325.01 229.346 321.516 231.301 320.567 234.662L305.597 287.662C304.647 291.023 306.602 294.517 309.963 295.466L322.98 299.143C326.34 300.092 329.834 298.137 330.783 294.777L345.754 241.776C346.703 238.415 344.748 234.921 341.388 233.972Z" fill="#0B1629"/>
<path d="M372.659 242.805L359.642 239.128C356.282 238.179 352.788 240.134 351.838 243.495L336.868 296.495C335.919 299.856 337.873 303.35 341.234 304.299L354.251 307.976C357.611 308.925 361.105 306.97 362.055 303.61L377.025 250.609C377.974 247.248 376.019 243.754 372.659 242.805Z" fill="#0B1629"/>
<path d="M258.716 287.562L245.7 283.886C242.339 282.937 238.845 284.891 237.896 288.252L222.925 341.253C221.976 344.613 223.931 348.107 227.292 349.057L240.308 352.733C243.669 353.683 247.163 351.728 248.112 348.367L263.083 295.366C264.032 292.006 262.077 288.512 258.716 287.562Z" fill="#0B1629"/>
<path d="M289.988 296.395L276.971 292.719C273.611 291.77 270.117 293.724 269.167 297.085L254.197 350.086C253.248 353.446 255.203 356.94 258.563 357.89L271.58 361.566C274.941 362.516 278.434 360.561 279.384 357.2L294.354 304.199C295.304 300.839 293.349 297.345 289.988 296.395Z" fill="#0B1629"/>
<path d="M321.26 305.227L308.243 301.551C304.883 300.602 301.389 302.556 300.439 305.917L285.469 358.918C284.52 362.279 286.474 365.772 289.835 366.722L302.852 370.398C306.212 371.348 309.706 369.393 310.656 366.032L325.626 313.031C326.575 309.671 324.621 306.177 321.26 305.227Z" fill="#0B1629"/>
<path d="M352.532 314.06L339.515 310.384C336.154 309.435 332.66 311.389 331.711 314.75L316.741 367.751C315.791 371.112 317.746 374.605 321.107 375.555L334.123 379.231C337.484 380.181 340.978 378.226 341.927 374.865L356.898 321.864C357.847 318.504 355.892 315.01 352.532 314.06Z" fill="#0B1629"/>
<path d="M238.588 358.821L225.571 355.144C222.211 354.195 218.717 356.15 217.768 359.51L202.797 412.511C201.848 415.872 203.803 419.366 207.163 420.315L220.18 423.992C223.541 424.941 227.035 422.986 227.984 419.625L242.954 366.625C243.904 363.264 241.949 359.77 238.588 358.821Z" fill="#0B1629"/>
<path d="M235.059 248.165C234.14 251.418 230.603 253.308 227.192 252.345C223.781 251.382 221.741 247.972 222.675 244.667C223.609 241.361 227.131 239.523 230.542 240.486C233.952 241.45 235.992 244.859 235.059 248.165Z" fill="#FFEC6A"/>
</g>
<g clip-path="url(#clip1_167_2668)">
<path d="M109.744 240.683L-49.0583 332.368L146.198 670.561L305 578.876L109.744 240.683Z" fill="url(#paint3_linear_167_2668)"/>
<path d="M314.299 606.875L165.791 692.617C161.872 694.879 156.916 693.711 154.762 689.981L-25.1996 378.278C-27.3533 374.548 -25.9343 369.699 -21.9678 367.409L126.541 281.668C130.46 279.405 135.416 280.573 137.569 284.304L317.531 596.006C319.685 599.737 318.266 604.585 314.299 606.875Z" fill="#E6332A"/>
<path d="M314.299 606.875L165.791 692.617C161.872 694.879 156.916 693.711 154.762 689.981L-25.1996 378.278C-27.3533 374.548 -25.9343 369.699 -21.9678 367.409L126.541 281.668C130.46 279.405 135.416 280.573 137.569 284.304L317.531 596.006C319.685 599.737 318.266 604.585 314.299 606.875Z" fill="url(#paint4_linear_167_2668)"/>
<path d="M114.371 299.947L0.286596 365.814C-2.73774 367.56 -3.77395 371.427 -2.02785 374.452L170.806 673.809C172.552 676.833 176.42 677.87 179.444 676.123L293.528 610.257C296.553 608.511 297.589 604.644 295.843 601.619L123.009 302.262C121.263 299.237 117.395 298.201 114.371 299.947Z" fill="white" fill-opacity="0.1"/>
<path d="M31.3988 373.679L19.685 380.442C16.6607 382.189 15.6245 386.056 17.3706 389.08L44.9078 436.776C46.6539 439.8 50.5211 440.836 53.5454 439.09L65.2592 432.327C68.2835 430.581 69.3197 426.714 67.5736 423.69L40.0364 375.994C38.2903 372.97 34.4231 371.933 31.3988 373.679Z" fill="#0B1629"/>
<path d="M59.5404 357.431L47.8266 364.194C44.8023 365.94 43.7661 369.808 45.5122 372.832L73.0494 420.528C74.7955 423.552 78.6627 424.588 81.687 422.842L93.4008 416.079C96.4251 414.333 97.4613 410.466 95.7152 407.442L68.178 359.746C66.4319 356.722 62.5647 355.685 59.5404 357.431Z" fill="#0B1629"/>
<path d="M68.4234 437.805L56.7097 444.568C53.6854 446.314 52.6491 450.181 54.3952 453.206L81.9323 500.901C83.6785 503.926 87.5457 504.962 90.57 503.216L102.284 496.453C105.308 494.707 106.344 490.839 104.598 487.815L77.0611 440.119C75.315 437.095 71.4478 436.059 68.4234 437.805Z" fill="#0B1629"/>
<path d="M96.5638 421.556L84.8501 428.319C81.8257 430.065 80.7895 433.932 82.5356 436.957L110.073 484.652C111.819 487.677 115.686 488.713 118.71 486.967L130.424 480.204C133.448 478.458 134.485 474.59 132.739 471.566L105.201 423.87C103.455 420.846 99.5882 419.81 96.5638 421.556Z" fill="#0B1629"/>
<path d="M124.706 405.31L112.993 412.073C109.968 413.819 108.932 417.686 110.678 420.71L138.215 468.406C139.961 471.43 143.829 472.467 146.853 470.721L158.567 463.958C161.591 462.211 162.627 458.344 160.881 455.32L133.344 407.624C131.598 404.6 127.731 403.564 124.706 405.31Z" fill="#0B1629"/>
<path d="M152.849 389.062L141.135 395.825C138.111 397.571 137.074 401.438 138.821 404.462L166.358 452.158C168.104 455.182 171.971 456.219 174.995 454.472L186.709 447.71C189.733 445.963 190.77 442.096 189.023 439.072L161.486 391.376C159.74 388.352 155.873 387.316 152.849 389.062Z" fill="#0B1629"/>
<path d="M105.444 501.929L93.7307 508.692C90.7063 510.439 89.6701 514.306 91.4162 517.33L118.953 565.026C120.7 568.05 124.567 569.086 127.591 567.34L139.305 560.577C142.329 558.831 143.365 554.964 141.619 551.94L114.082 504.244C112.336 501.22 108.469 500.183 105.444 501.929Z" fill="#0B1629"/>
<path d="M133.587 485.681L121.873 492.444C118.848 494.19 117.812 498.058 119.558 501.082L147.096 548.778C148.842 551.802 152.709 552.838 155.733 551.092L167.447 544.329C170.471 542.583 171.507 538.716 169.761 535.692L142.224 487.996C140.478 484.972 136.611 483.935 133.587 485.681Z" fill="#0B1629"/>
<path d="M161.728 469.434L150.014 476.197C146.99 477.943 145.954 481.811 147.7 484.835L175.237 532.531C176.983 535.555 180.85 536.591 183.875 534.845L195.588 528.082C198.613 526.336 199.649 522.469 197.903 519.445L170.366 471.749C168.619 468.724 164.752 467.688 161.728 469.434Z" fill="#0B1629"/>
<path d="M189.87 453.186L178.156 459.949C175.132 461.695 174.096 465.563 175.842 468.587L203.379 516.283C205.125 519.307 208.992 520.343 212.017 518.597L223.73 511.834C226.755 510.088 227.791 506.221 226.045 503.197L198.508 455.501C196.761 452.476 192.894 451.44 189.87 453.186Z" fill="#0B1629"/>
<path d="M142.467 566.056L130.753 572.819C127.729 574.565 126.693 578.432 128.439 581.457L155.976 629.152C157.722 632.177 161.589 633.213 164.614 631.467L176.328 624.704C179.352 622.958 180.388 619.091 178.642 616.066L151.105 568.37C149.359 565.346 145.491 564.31 142.467 566.056Z" fill="#0B1629"/>
<path d="M170.608 549.807L158.894 556.57C155.87 558.316 154.834 562.183 156.58 565.207L184.117 612.903C185.863 615.928 189.73 616.964 192.755 615.218L204.468 608.455C207.493 606.709 208.529 602.842 206.783 599.817L179.246 552.121C177.5 549.097 173.632 548.061 170.608 549.807Z" fill="#0B1629"/>
<path d="M198.75 533.559L187.037 540.322C184.012 542.068 182.976 545.935 184.722 548.959L212.259 596.655C214.005 599.68 217.873 600.716 220.897 598.97L232.611 592.207C235.635 590.461 236.671 586.593 234.925 583.569L207.388 535.873C205.642 532.849 201.775 531.813 198.75 533.559Z" fill="#0B1629"/>
<path d="M226.892 517.312L215.179 524.075C212.154 525.821 211.118 529.688 212.864 532.712L240.401 580.408C242.148 583.433 246.015 584.469 249.039 582.723L260.753 575.96C263.777 574.214 264.813 570.346 263.067 567.322L235.53 519.626C233.784 516.602 229.917 515.566 226.892 517.312Z" fill="#0B1629"/>
<path d="M263.285 586.342L173.563 638.143C170.539 639.889 169.502 643.756 171.249 646.781L176.894 656.558C178.64 659.583 182.507 660.619 185.531 658.873L275.253 607.072C278.278 605.326 279.314 601.459 277.568 598.434L271.923 588.657C270.176 585.632 266.309 584.596 263.285 586.342Z" fill="white" fill-opacity="0.1"/>
</g>
<path d="M212.397 293.22C213.739 291.421 216.543 287.878 211.918 284.92C209.948 283.659 207.392 283.439 205.426 283.604C197.553 284.279 191.121 291.875 197.887 298.527C199.186 299.806 200.939 300.937 202.441 302.154C204.902 304.152 206.688 306.403 207.522 308.545C208.184 310.278 208.254 311.958 209.507 313.716C213.196 318.901 224.097 321.283 229.428 326.22C230.756 327.456 231.664 328.791 233.008 330.02C234.185 331.091 235.658 332.054 237.174 332.944C243.426 336.602 250.821 339.203 257.669 340.165C257.168 338.608 254.159 337.424 251.787 336.505C246.08 334.29 240.754 330.972 236.967 327.276C235.312 325.666 233.934 323.968 231.953 322.474C228.267 319.696 222.754 317.767 220.232 314.687C216.76 310.447 221.239 306.767 217.265 302.6C215.998 301.272 214.033 300.13 212.832 298.794C210.982 296.739 211.323 294.693 212.41 293.219L212.397 293.22Z" fill="#2FFD61"/>
<path d="M393.48 344.971C395.289 343.838 396.656 342.27 396.054 340.09C394.127 333.419 388.939 337.74 386.585 340.735C385.116 343.215 380.603 341.996 377.202 342.595C372.432 343.435 374.609 349.286 369.767 350.048C365.784 350.667 360.282 347.472 355.38 346.233C351.349 345.216 347.48 345.611 345.627 347.246C343.775 348.88 343.981 351.68 346.163 354.325C346.766 355.067 347.538 355.801 348.494 356.424C352.269 358.878 357.189 358.604 360.147 357.438C363.114 356.283 365.609 354.474 369.805 354.777C371.854 354.922 374.149 355.582 376.087 355.523C379.393 355.425 380.597 353.328 381.312 351.337L381.336 351.271C382.045 349.297 382.824 347.127 385.745 346.6C387.16 346.344 388.908 346.541 390.373 346.353C391.813 346.162 392.533 345.562 393.48 344.971Z" fill="#2FFD61"/>
<path d="M330.418 348.53C329.92 349.205 329.797 350.009 330.355 350.707C331.103 351.633 332.961 352.226 334.772 352.36C336.96 352.526 339.436 352.187 341.164 352.985C341.733 353.246 342.142 353.609 342.735 353.858C344.235 354.49 346.533 354.129 347.384 353.28C348.235 352.431 347.818 351.29 346.744 350.449C345.671 349.602 344.051 349.003 342.389 348.517C341.663 348.305 340.925 348.112 340.25 347.851C339.761 347.658 339.297 347.441 338.808 347.248C335.185 345.868 331.825 346.553 330.395 348.523L330.418 348.53Z" fill="#2FFD61"/>
<path d="M232.138 320.361C231.607 319.158 232.53 318.49 233.551 318.155C234.444 317.865 235.513 317.7 236.809 318.084C238.176 318.492 239.573 319.448 240.96 320.046C242.842 320.864 244.626 320.996 246.503 321.711C247.312 322.018 248.202 322.485 248.771 323.122C249.727 324.193 249.29 325.183 248.331 325.444C247.375 325.699 246.055 325.483 244.925 325.524C243.563 325.572 242.477 326.009 241.837 326.765C241.351 327.347 241.079 328.125 240.23 328.39C239.256 328.695 237.556 328.166 236.301 327.165C234.648 325.856 235.019 325.167 234.621 323.998C234.187 322.73 232.682 321.61 232.132 320.349L232.138 320.361Z" fill="#2FFD61"/>
<path d="M244.858 324.482C242.627 324.834 243.263 326.026 244.441 327.08C245.476 328 246.925 328.982 249.372 329.791C251.953 330.642 255.226 331.158 258.061 331.901C261.917 332.905 264.817 334.277 268.545 335.344C270.149 335.805 272.067 336.227 273.689 336.275C276.418 336.356 276.91 335.351 275.739 334.396C274.568 333.447 272.284 332.509 270.593 331.559C268.555 330.414 267.396 329.24 267.299 328.222C267.235 327.444 267.73 326.712 266.735 325.845C265.595 324.849 262.359 323.805 259.252 323.433C255.172 322.939 254.933 323.693 252.949 324.132C250.793 324.607 247.162 324.109 244.834 324.485L244.858 324.482Z" fill="#2FFD61"/>
<path d="M281.972 334.34C280.635 334.759 280.252 335.502 281.637 336.493C283.495 337.814 288.243 339.375 292.903 340.451C298.537 341.757 304.951 342.703 309.349 344.404C310.796 344.962 311.823 345.539 313.333 346.098C317.153 347.513 323.112 348.345 325.374 347.935C327.637 347.524 326.651 346.161 323.947 344.758C321.245 343.349 317.112 341.904 312.863 340.552C311.007 339.962 309.117 339.384 307.395 338.771C306.148 338.323 304.968 337.863 303.722 337.415C294.482 334.144 285.758 333.085 281.912 334.32L281.972 334.34Z" fill="#2FFD61"/>
<path d="M226.068 449.612C226.361 451.851 226.824 456.375 232.155 455.162C234.427 454.646 236.394 452.97 237.676 451.445C242.797 445.326 242.104 435.326 232.695 435.45C230.887 435.473 228.86 435.925 226.951 436.138C223.821 436.481 220.993 436.163 218.919 435.24C217.249 434.484 216.036 433.342 213.93 432.991C207.721 431.953 198.332 438.07 191.129 438.384C189.33 438.458 187.762 438.161 185.957 438.252C184.38 438.334 182.667 438.706 180.975 439.16C174.003 441.042 166.953 444.493 161.425 448.715C162.859 449.462 165.814 448.147 168.135 447.1C173.72 444.584 179.798 443.124 185.046 443.036C187.336 442.993 189.489 443.212 191.93 442.853C196.471 442.184 201.72 439.604 205.643 439.985C211.043 440.507 210.412 446.329 216.118 446.44C217.937 446.476 220.123 445.878 221.9 445.967C224.637 446.1 225.811 447.797 226.06 449.623L226.068 449.612Z" fill="#2FFD61"/>
<path d="M58.3052 536.373C57.8053 538.473 57.9206 540.566 59.857 541.681C65.8439 545.038 66.5355 538.253 66.1329 534.441C65.458 531.628 69.5069 529.26 71.5058 526.399C74.3115 522.385 68.7144 519.791 71.6247 515.782C74.0232 512.489 80.1417 510.816 84.4794 508.184C88.0457 506.018 90.5188 502.965 90.7023 500.478C90.8858 497.991 88.8009 496.151 85.4206 495.836C84.4787 495.741 83.4222 495.773 82.3124 496.016C77.9328 496.978 74.6301 500.697 73.3371 503.644C72.0307 506.589 71.512 509.661 68.3233 512.452C66.7677 513.816 64.6818 514.992 63.3467 516.421C61.0676 518.86 61.6651 521.211 62.5357 523.137L62.5645 523.201C63.4278 525.11 64.3771 527.209 62.6683 529.675C61.8412 530.87 60.4638 531.983 59.5538 533.166C58.6632 534.333 58.5676 535.275 58.3052 536.373Z" fill="#2FFD61"/>
<path d="M100.611 488.672C100.497 487.836 100.029 487.177 99.1489 487.082C97.9759 486.96 96.2464 487.87 94.8687 489.072C93.1998 490.522 91.6772 492.536 89.8972 493.208C89.3126 493.429 88.7714 493.465 88.1775 493.713C86.6752 494.339 85.2937 496.242 85.2776 497.454C85.2616 498.666 86.3474 499.177 87.6918 499.005C89.0403 498.837 90.6057 498.102 92.1218 497.257C92.7835 496.888 93.4413 496.496 94.1013 496.197C94.582 495.984 95.0618 495.805 95.5425 495.592C99.0701 493.976 100.981 491.083 100.633 488.66L100.611 488.672Z" fill="#2FFD61"/>
<path d="M186.972 441.372C188.183 441.845 187.99 442.981 187.497 443.95C187.063 444.795 186.419 445.678 185.232 446.335C183.98 447.024 182.326 447.346 180.928 447.915C179.025 448.683 177.667 449.867 175.839 450.704C175.053 451.066 174.097 451.372 173.253 451.327C171.833 451.252 171.456 450.236 171.957 449.363C172.459 448.497 173.546 447.705 174.32 446.866C175.253 445.857 175.722 444.768 175.653 443.773C175.595 443.011 175.249 442.265 175.669 441.468C176.149 440.554 177.722 439.712 179.306 439.523C181.386 439.269 181.6 440.024 182.691 440.568C183.877 441.158 185.721 440.875 186.985 441.376L186.972 441.372Z" fill="#2FFD61"/>
<path d="M177.329 448.696C178.668 446.848 177.392 446.458 175.825 446.553C174.454 446.641 172.745 446.983 170.449 448.161C168.027 449.406 165.346 451.384 162.819 452.887C159.386 454.937 156.377 456.04 152.992 457.954C151.534 458.775 149.88 459.849 148.695 460.978C146.702 462.875 147.049 463.94 148.541 463.78C150.029 463.615 152.3 462.644 154.159 462.108C156.398 461.46 158.034 461.464 158.807 462.117C159.392 462.624 159.547 463.498 160.854 463.401C162.353 463.291 165.373 461.714 167.836 459.752C171.075 457.18 170.722 456.474 171.827 454.741C173.029 452.859 175.951 450.612 177.344 448.677L177.329 448.696Z" fill="#2FFD61"/>
<path d="M144.597 463.803C145.256 462.548 145.014 461.746 143.344 462.034C141.11 462.428 136.659 464.72 132.605 467.295C127.702 470.404 122.493 474.327 118.193 476.27C116.779 476.91 115.651 477.236 114.191 477.921C110.5 479.653 105.693 483.331 104.371 485.243C103.05 487.155 104.693 487.417 107.584 486.476C110.478 485.541 114.413 483.606 118.366 481.522C120.091 480.612 121.833 479.668 123.481 478.869C124.676 478.295 125.832 477.776 127.027 477.201C135.851 472.904 142.778 467.406 144.653 463.774L144.597 463.803Z" fill="#2FFD61"/>
<defs>
<linearGradient id="paint0_linear_167_2668" x1="175.202" y1="-3.50063" x2="454.493" y2="420.891" gradientUnits="userSpaceOnUse">
<stop stop-color="#0058FF"/>
<stop offset="1" stop-color="#F700FE"/>
</linearGradient>
<linearGradient id="paint1_linear_167_2668" x1="158.062" y1="38.5955" x2="501.296" y2="635.659" gradientUnits="userSpaceOnUse">
<stop stop-color="#0058FF"/>
<stop offset="1" stop-color="#F700FE"/>
</linearGradient>
<linearGradient id="paint2_linear_167_2668" x1="178.763" y1="-35.8956" x2="150.234" y2="147.832" gradientUnits="userSpaceOnUse">
<stop stop-color="#0058FF"/>
<stop offset="1" stop-color="#F700FE"/>
</linearGradient>
<linearGradient id="paint3_linear_167_2668" x1="-161.377" y1="358.755" x2="337.541" y2="454.637" gradientUnits="userSpaceOnUse">
<stop stop-color="#0058FF"/>
<stop offset="1" stop-color="#F700FE"/>
</linearGradient>
<linearGradient id="paint4_linear_167_2668" x1="-143.167" y1="400.401" x2="524.085" y2="570.901" gradientUnits="userSpaceOnUse">
<stop stop-color="#0058FF"/>
<stop offset="1" stop-color="#F700FE"/>
</linearGradient>
<clipPath id="clip0_167_2668">
<path d="M286.461 0L468 51.2774L390.368 326.122C385.622 342.925 368.152 352.699 351.349 347.953L230.66 313.864C213.857 309.117 204.083 291.648 208.829 274.844L286.461 0Z" fill="white"/>
</clipPath>
<clipPath id="clip1_167_2668">
<path d="M71.6634 539.033C62.9329 523.911 68.114 504.575 83.2357 495.844L191.844 433.139C206.966 424.409 226.302 429.59 235.032 444.712L333.064 614.507L169.695 708.828L71.6634 539.033Z" fill="white"/>
</clipPath>
</defs>
</svg>
