<svg width="126" height="108" viewBox="0 0 126 108" fill="none" xmlns="http://www.w3.org/2000/svg">
<circle cx="64.5" cy="57.4995" r="50.5" fill="#1C1A2F"/>
<mask id="mask0_167_1721" style="mask-type:luminance" maskUnits="userSpaceOnUse" x="14" y="6" width="101" height="102">
<circle cx="64.5" cy="57.4995" r="50.5" fill="white"/>
</mask>
<g mask="url(#mask0_167_1721)">
<circle cx="110.985" cy="49.0478" r="59.3745" fill="#26233F"/>
</g>
<path opacity="0.112188" fill-rule="evenodd" clip-rule="evenodd" d="M16.0771 34.3092C15.3092 32.5526 15.7606 30.5013 17.1949 29.2293C18.8114 27.7959 21.2271 27.7403 22.9077 29.0979L23.5911 29.6499C25.1275 30.891 27.2146 31.2056 29.0486 30.4724L32.1571 29.2297C32.9428 28.9156 33.6691 28.4694 34.3044 27.9104L36.3808 26.0836C37.6885 24.933 39.6076 24.8086 41.0529 25.7806C42.4381 26.7122 44.2669 26.6405 45.5749 25.6032L46.9258 24.5319C48.3256 23.4217 50.3146 23.4543 51.6774 24.6096C52.6647 25.4466 54.014 25.7149 55.2463 25.3192L56.6682 24.8626C58.0361 24.4233 59.5238 24.5578 60.7908 25.2353C62.235 26.0076 63.9551 26.0694 65.451 25.4027L66.8007 24.8012C68.3134 24.127 69.3407 22.6844 69.4831 21.0343L69.5528 20.2266C69.6945 18.5854 70.9512 17.2596 72.5825 17.0303C73.3572 16.9214 74.1461 17.0726 74.8256 17.4602L77.7716 19.1404C78.8728 19.7684 80.1511 20.0134 81.4065 19.837L83.0926 19.6C84.3859 19.4182 85.4393 18.4696 85.7552 17.2024C86.0711 15.9352 87.1246 14.9865 88.4179 14.8048L89.8127 14.6087C90.7798 14.4728 91.7657 14.6072 92.6612 14.997L93.9281 15.5485C94.8441 15.9472 95.8526 16.0847 96.8419 15.9456L97.0349 15.9185C98.3108 15.7392 99.6063 16.066 100.645 16.8292L101.461 17.4294C102.01 17.8328 102.373 18.4405 102.467 19.115C102.617 20.1778 102.079 21.219 101.126 21.7126L99.6354 22.4845C98.8741 22.8788 97.9651 22.8612 97.2197 22.4377C96.5296 22.0457 95.6956 21.9999 94.9667 22.3139L90.5306 24.2247L85.5597 25.8952C84.6704 26.1941 83.7098 26.207 82.8127 25.9321C81.907 25.6546 80.9368 25.6705 80.0406 25.9776L76.8464 27.0721C75.8489 27.4139 75.0299 28.1411 74.5726 29.0912C74.0011 30.2783 72.8743 31.1014 71.5697 31.2847L65.2764 32.1692L61.3808 32.7167L56.7435 33.3684C56.0277 33.469 55.3474 33.7431 54.7619 34.1669C53.8113 34.8549 52.6266 35.1378 51.4677 34.9536L49.7297 34.6773C49.029 34.5659 48.3823 34.233 47.8844 33.7274C46.7497 32.5753 44.9503 32.4075 43.6221 33.33L40.9299 35.2001C40.4613 35.5255 39.9558 35.7943 39.424 36.0006L35.8276 37.396C35.0282 37.7062 34.1956 37.9231 33.3463 38.0424C32.7618 38.1246 32.1847 38.253 31.6205 38.4265L25.4522 40.3236C24.524 40.6091 23.5463 40.6975 22.5819 40.5832C20.1242 40.2919 18.0051 38.7196 17.0138 36.4519L16.0771 34.3092Z" fill="white"/>
<path opacity="0.112188" fill-rule="evenodd" clip-rule="evenodd" d="M111.577 74.8734C112.345 76.63 111.894 78.6813 110.459 79.9532C108.843 81.3867 106.427 81.4423 104.747 80.0846L104.063 79.5327C102.527 78.2915 100.44 77.977 98.6058 78.7102L95.4973 79.9529C94.7115 80.267 93.9853 80.7132 93.35 81.2721L91.2736 83.099C89.9658 84.2496 88.0468 84.374 86.6014 83.402C85.2162 82.4704 83.3875 82.5421 82.0795 83.5794L80.7286 84.6507C79.3287 85.7608 77.3398 85.7283 75.977 84.5729C74.9897 83.736 73.6404 83.4677 72.4081 83.8634L70.9862 84.32C69.6182 84.7593 68.1306 84.6248 66.8636 83.9473C65.4193 83.175 63.6993 83.1132 62.2034 83.7799L60.8537 84.3814C59.3409 85.0556 58.3136 86.4982 58.1712 88.1483L58.1015 88.9559C57.9599 90.5972 56.7032 91.923 55.0719 92.1523C54.2972 92.2612 53.5083 92.11 52.8288 91.7224L49.8827 90.0422C48.7816 89.4142 47.5032 89.1692 46.2479 89.3456L44.5618 89.5826C43.2685 89.7643 42.215 90.713 41.8991 91.9802C41.5833 93.2474 40.5298 94.1961 39.2365 94.3778L37.8417 94.5738C36.8745 94.7098 35.8887 94.5754 34.9932 94.1856L33.7263 93.6341C32.8103 93.2354 31.8018 93.0979 30.8124 93.237L30.6195 93.2641C29.3435 93.4434 28.048 93.1165 27.0098 92.3534L26.1934 91.7532C25.6446 91.3498 25.2818 90.742 25.187 90.0676C25.0376 89.0048 25.5753 87.9635 26.5283 87.47L28.019 86.698C28.7803 86.3038 29.6893 86.3214 30.4347 86.7448C31.1248 87.1368 31.9587 87.1827 32.6876 86.8687L37.1238 84.9579L42.0946 83.2874C42.984 82.9885 43.9446 82.9756 44.8416 83.2505C45.7473 83.528 46.7176 83.5121 47.6137 83.205L50.808 82.1105C51.8055 81.7687 52.6244 81.0415 53.0818 80.0914C53.6532 78.9043 54.78 78.0812 56.0847 77.8979L62.378 77.0134L66.2735 76.4659L70.9109 75.8142C71.6267 75.7136 72.3069 75.4394 72.8925 75.0157C73.8431 74.3277 75.0277 74.0448 76.1866 74.229L77.9246 74.5053C78.6254 74.6167 79.2721 74.9496 79.77 75.4551C80.9047 76.6073 82.7041 76.775 84.0322 75.8525L86.7245 73.9825C87.193 73.657 87.6985 73.3883 88.2304 73.182L91.8267 71.7866C92.6262 71.4764 93.4588 71.2595 94.308 71.1402C94.8926 71.058 95.4696 70.9296 96.0338 70.756L102.202 68.859C103.13 68.5735 104.108 68.4851 105.072 68.5994C107.53 68.8907 109.649 70.463 110.641 72.7307L111.577 74.8734Z" fill="white"/>
<path opacity="0.112188" fill-rule="evenodd" clip-rule="evenodd" d="M11.4664 75.0293C10.2207 72.6421 10.9233 69.7021 13.1136 68.136C14.8951 66.8623 17.2693 66.7901 19.1248 67.9533L20.4487 68.7833C22.4262 70.0229 24.8577 70.3033 27.0654 69.5462L31.3612 68.0731C32.3691 67.7274 33.3222 67.2387 34.1912 66.622L36.9182 64.6865C38.6314 63.4705 40.8795 63.3108 42.7475 64.2723C44.5349 65.1924 46.6774 65.0885 48.3674 63.9998L50.4781 62.6401C52.2239 61.5155 54.4692 61.5281 56.2022 62.6723C57.4726 63.5111 59.045 63.7558 60.5102 63.3428L62.7137 62.7218C64.3822 62.2515 66.1595 62.3467 67.7682 62.9926C69.595 63.726 71.6307 63.7463 73.4718 63.0495L75.8893 62.1346C77.5161 61.519 78.6806 60.0691 78.9309 58.3479C79.2368 56.2437 80.8945 54.5938 83.0001 54.2979L83.1326 54.2793C84.0332 54.1527 84.9512 54.276 85.7865 54.6357L89.4581 56.2168C90.8555 56.8186 92.3914 57.0249 93.8981 56.8131L96.6889 56.4209C98.0583 56.2284 99.2051 55.2861 99.6594 53.98C100.114 52.6739 101.26 51.7316 102.63 51.5391L105.036 51.2009C106.179 51.0403 107.344 51.1397 108.443 51.4916L110 51.9905C111.197 52.3736 112.464 52.4818 113.708 52.307L114.621 52.1786C115.85 52.0059 117.101 52.2439 118.181 52.8555L119.619 53.67C120.235 54.0189 120.653 54.6343 120.752 55.3352C120.894 56.3496 120.343 57.3344 119.403 57.7423L116.945 58.8092C116 59.2196 114.927 59.222 113.98 58.8159C113.102 58.4395 112.113 58.4131 111.216 58.7421L105.442 60.8607L99.0376 62.7403C97.9228 63.0675 96.7438 63.1105 95.6081 62.8655C94.4615 62.6181 93.271 62.6644 92.1471 63L87.7752 64.3054C86.6431 64.6435 85.6717 65.3799 85.0404 66.3786C84.2728 67.5931 83.0099 68.4086 81.5871 68.6086L73.176 69.7907L68.2242 70.4866L62.2864 71.3211C61.4002 71.4457 60.5474 71.7444 59.7772 72.2C58.5391 72.9325 57.1001 73.2523 55.6683 73.1132L53.3451 72.8874C52.4951 72.8048 51.6876 72.4766 51.021 71.9428C49.6138 70.8159 47.6614 70.6617 46.0947 71.5538L42.26 73.7374C41.6424 74.0891 40.9919 74.3795 40.3178 74.6045L36.7864 75.7833C35.0398 76.3663 33.2435 76.7886 31.4201 77.0449L22.1712 79.5539C21.1704 79.8254 20.1317 79.9297 19.0969 79.8626L17.6373 79.768C15.2607 79.6139 13.1368 78.2306 12.0351 76.1192L11.4664 75.0293Z" fill="white"/>
<path opacity="0.112188" fill-rule="evenodd" clip-rule="evenodd" d="M116.188 34.1534C117.434 36.5406 116.731 39.4806 114.541 41.0467C112.759 42.3204 110.385 42.3926 108.529 41.2294L107.206 40.3994C105.228 39.1598 102.797 38.8794 100.589 39.6365L96.2931 41.1096C95.2851 41.4553 94.332 41.944 93.4631 42.5607L90.7361 44.4962C89.0229 45.7122 86.7747 45.8719 84.9068 44.9104C83.1194 43.9903 80.9769 44.0942 79.2869 45.1829L77.1762 46.5426C75.4304 47.6672 73.1851 47.6546 71.4521 46.5104C70.1817 45.6716 68.6093 45.4269 67.144 45.8399L64.9406 46.4609C63.2721 46.9312 61.4948 46.8359 59.8861 46.1901C58.0592 45.4567 56.0236 45.4364 54.1825 46.1332L51.7649 47.0481C50.1382 47.6637 48.9736 49.1136 48.7234 50.8348C48.4175 52.939 46.7598 54.5889 44.6542 54.8848L44.5217 54.9034C43.6211 55.03 42.7031 54.9067 41.8678 54.547L38.1962 52.9659C36.7988 52.3641 35.2629 52.1578 33.7562 52.3696L30.9654 52.7618C29.5959 52.9543 28.4492 53.8966 27.9948 55.2027C27.5405 56.5088 26.3938 57.4511 25.0243 57.6436L22.6178 57.9818C21.475 58.1424 20.3107 58.043 19.2117 57.691L17.654 57.1922C16.4577 56.8091 15.1904 56.7009 13.9465 56.8757L13.0328 57.0041C11.8041 57.1768 10.5528 56.9388 9.4732 56.3272L8.03555 55.5127C7.41965 55.1638 7.00092 54.5484 6.9024 53.8475C6.75984 52.8331 7.31173 51.8483 8.25134 51.4404L10.709 50.3735C11.6543 49.9631 12.7269 49.9607 13.6741 50.3668C14.5522 50.7432 15.5411 50.7696 16.438 50.4405L22.2122 48.322L28.6167 46.4424C29.7315 46.1152 30.9105 46.0722 32.0462 46.3172C33.1927 46.5646 34.3832 46.5183 35.5071 46.1827L39.8791 44.8772C41.0112 44.5392 41.9826 43.8028 42.6138 42.8041C43.3815 41.5896 44.6444 40.7741 46.0672 40.5741L54.4782 39.392L59.4301 38.6961L65.3679 37.8616C66.2541 37.737 67.1069 37.4383 67.8771 36.9826C69.1152 36.2502 70.5541 35.9304 71.986 36.0695L74.3092 36.2953C75.1591 36.3779 75.9667 36.7061 76.6333 37.2399C78.0405 38.3668 79.9929 38.521 81.5595 37.6289L85.3943 35.4453C86.0118 35.0936 86.6623 34.8032 87.3364 34.5782L90.8678 33.3994C92.6145 32.8164 94.4107 32.3941 96.2342 32.1378L105.483 29.6288C106.484 29.3573 107.523 29.253 108.557 29.3201L110.017 29.4147C112.394 29.5688 114.517 30.9521 115.619 33.0635L116.188 34.1534Z" fill="white"/>
</svg>
