<svg width="20" height="14" viewBox="0 0 20 14" fill="none" xmlns="http://www.w3.org/2000/svg">
<path fill-rule="evenodd" clip-rule="evenodd" d="M8 10V4L13 7L8 10ZM19.582 2.18622C19.352 1.32578 18.6744 0.648 17.8138 0.418C16.2542 0 10 0 10 0C10 0 3.74578 0 2.186 0.418C1.32556 0.648 0.648 1.32578 0.418 2.18622C0 3.74578 0 7 0 7C0 7 0 10.2542 0.418 11.8138C0.648 12.6744 1.32556 13.352 2.186 13.582C3.74578 14 10 14 10 14C10 14 16.2542 14 17.8138 13.582C18.6744 13.352 19.352 12.6744 19.582 11.8138C20 10.2542 20 7 20 7C20 7 20 3.74578 19.582 2.18622Z" fill="white"/>
</svg>
