<svg width="79" height="78" viewBox="0 0 79 78" fill="none" xmlns="http://www.w3.org/2000/svg">
<rect x="0.299805" width="78" height="78" rx="24" fill="black"/>
<path d="M24.435 45L22.1237 45.8752L22 53L30 49.9721C27.2558 49.0168 25.2523 47.3365 24.435 45.0008" fill="#FDBD39"/>
<path d="M25.9993 38L18 40.8871L22.4881 46L24.7931 45.1676C23.98 42.9526 24.4817 40.4494 26 38" fill="#F69833"/>
<path d="M38.54 28.9764C28.7013 32.6698 22.3586 40.2914 24.3733 46L60 32.6246C57.9853 26.9161 48.3779 25.283 38.54 28.9764Z" fill="#FECF33"/>
<path d="M45.4588 49.0161C55.2955 45.3235 61.6488 37.7396 59.6238 32L24 45.3695C26.0258 51.109 35.6207 52.7079 45.4581 49.0161" fill="#EE6723"/>
<path d="M59.8257 33L24 46.1078C24.7012 48.0455 27.3769 49 31.1298 49C34.7892 49 39.4736 48.0933 44.3571 46.3064C54.2496 42.6869 61.2096 36.826 59.8243 33" fill="#F69833"/>
<path d="M52.8702 30C49.2108 30 44.5264 30.9067 39.6429 32.6936C29.7504 36.3131 22.7904 42.1733 24.1757 46L60 32.8922C59.2988 30.9545 56.6238 30 52.8702 30" fill="#FDBD39"/>
<path d="M51.5914 53.2253C50.5299 53.2253 48.9649 52.2789 46.9373 50.4131C44.5406 48.2055 41.7942 44.9722 39.2043 41.3078C36.6151 37.6449 34.487 33.982 33.2129 30.9946C31.8253 27.7393 31.627 25.7381 32.6246 25.0455C32.8437 24.8938 33.1073 24.8172 33.4089 24.8172C34.2205 24.8172 35.8021 25.4134 38.7259 28.2554L38.7906 28.3171L38.7812 28.4057C38.7611 28.6099 38.7432 28.8162 38.7266 29.0182L38.6943 29.4194L38.407 29.1345C35.2562 26.0011 33.8693 25.6629 33.419 25.6629C33.2904 25.6629 33.1885 25.6884 33.1152 25.7395C32.6821 26.0394 32.6541 27.5096 34 30.665C35.2519 33.5992 37.3484 37.2061 39.9038 40.8222C42.4607 44.4391 45.1648 47.6249 47.5198 49.7928C50.0587 52.1308 51.2028 52.3831 51.5777 52.3831C51.707 52.3831 51.8112 52.3562 51.8895 52.3016C52.3455 51.9854 52.3462 50.4102 50.8452 47.0132L50.7762 46.8579L50.927 46.7764C51.0779 46.6949 51.2244 46.6147 51.3608 46.5382L51.5418 46.4368L51.6251 46.6247C52.6888 49.0314 53.6836 52.0904 52.3793 52.9956C52.1595 53.1481 51.8945 53.2253 51.5914 53.2253Z" fill="#EE6723"/>
<path d="M46.6615 48.8882L46.6471 49.0725C46.395 52.1485 45.7314 55.8455 44.0026 55.9957C43.9681 55.9986 43.9322 56 43.8963 56C42.7213 56 41.6102 54.339 40.5939 51.0639C39.6315 47.9645 38.8846 43.8046 38.4917 39.3477C38.0981 34.8929 38.1039 30.6664 38.5082 27.4487C38.9485 23.9417 39.7874 22.1106 41.0012 22.005C41.0371 22.0021 41.0744 22 41.1111 22C41.9629 22 43.247 22.9528 44.5614 27.3877L43.7031 27.5508C43.2643 26.0691 42.7859 24.864 42.3112 24.0346C41.8717 23.2689 41.445 22.8471 41.1089 22.8471C41.0974 22.8471 41.0866 22.8471 41.0751 22.8486C40.5494 22.8939 39.7831 24.1537 39.3564 27.5529C38.9593 30.7132 38.9542 34.8759 39.3421 39.274C39.7314 43.6728 40.4654 47.7717 41.4106 50.815C41.8336 52.1776 42.2976 53.3012 42.7529 54.0633C43.1723 54.7665 43.5781 55.1536 43.8956 55.1536C43.9064 55.1536 43.9171 55.1536 43.9286 55.1521C44.4314 55.1089 45.3802 53.7981 45.7795 49.1867L46.6615 48.8882Z" fill="#EE6723"/>
</svg>
